# This file uses meters as units for non-parametric coordinates.

v -2.192421 0.000000 0.170509
v -1.851400 0.000000 0.170509
v -2.192421 21.516104 0.170509
v -1.851400 21.516104 0.170509
v -2.192421 21.516104 -0.170509
v -1.851400 21.516104 -0.170509
v -2.192421 0.000000 -0.170509
v -1.851400 0.000000 -0.170509
v -1.784653 18.907841 0.052210
v 2.192421 18.907841 0.052210
v -1.784653 21.372904 0.052210
v 2.192421 21.372904 0.052210
v -1.784653 21.372904 -0.101080
v 2.192421 21.372904 -0.101080
v -1.784653 18.907841 -0.101080
v 2.192421 18.907841 -0.101080
v 0.203888 21.372904 -0.101080
v 0.203888 21.372904 0.052210
v 0.203888 18.907841 0.052210
v 0.203888 18.907841 -0.101080
v 0.203888 20.140373 -0.101080
v 2.192421 20.140373 -0.101080
v 2.192421 20.140373 0.052210
v 0.203888 20.140373 0.052210
v -1.784653 20.140373 0.052210
v -1.784653 20.140373 -0.101080
v 0.203888 19.524107 -0.101080
v -1.784653 19.524107 -0.101080
v -1.784653 19.524107 0.052210
v 0.203888 19.524107 0.052210
v 2.192421 19.524107 0.052210
v 2.192421 19.524107 -0.101080
v 0.203888 20.756638 -0.101080
v 2.192421 20.756638 -0.101080
v 2.192421 20.756638 0.052210
v 0.203888 20.756638 0.052210
v -1.784653 20.756638 0.052210
v -1.784653 20.756638 -0.101080
v 2.192421 19.832239 -0.101080
v 2.192421 19.832239 0.052210
v 0.203888 19.832239 0.052210
v -1.784653 19.832239 0.052210
v -1.784653 19.832239 -0.101080
v 0.203888 19.832239 -0.101080
v 0.203888 19.215973 -0.101080
v -1.784653 19.215973 -0.101080
v -1.784653 19.215973 0.052210
v 0.203888 19.215973 0.052210
v 2.192421 19.215973 0.052210
v 2.192421 19.215973 -0.101080
v -1.784653 20.448505 -0.101080
v -1.784653 20.448505 0.052210
v 0.203888 20.448505 0.052210
v 2.192421 20.448505 0.052210
v 2.192421 20.448505 -0.101080
v 0.203888 20.448505 -0.101080
v 0.203888 21.064772 -0.101080
v 2.192421 21.064772 -0.101080
v 2.192421 21.064772 0.052210
v 0.203888 21.064772 0.052210
v -1.784653 21.064772 0.052210
v -1.784653 21.064772 -0.101080
vt 0.267452 0.089661
vt 0.297226 0.089661
vt 0.327684 0.089661
vt 0.267452 0.089661
vt 0.297226 0.089661
vt 0.327684 0.089661
vt 0.233862 0.089661
vt 0.297226 0.089661
vt 0.233862 0.089661
vt 0.233862 0.089661
vt 0.267452 0.089661
vt 0.267452 0.089661
vt 0.267452 0.089661
vt 0.267452 0.089661
vt 0.297226 0.089661
vt 0.233862 0.089661
vt 0.327684 0.089661
vt 0.297226 0.089661
vt 0.267452 0.089661
vt 0.297226 0.089661
vt 0.327684 0.089661
vt 0.297226 0.089661
vt 0.297226 0.089661
vt 0.267452 0.089661
vt 0.356643 0.473352
vt 0.356643 0.473352
vt 0.356643 0.473352
vt 0.356643 0.473352
vt 0.262045 0.170278
vt 0.262045 0.170278
vt 0.262045 0.170278
vt 0.262045 0.170278
vt 0.356643 0.473352
vt 0.356643 0.473352
vt 0.356643 0.473352
vt 0.356643 0.473352
vt 0.293549 0.475124
vt 0.293549 0.475124
vt 0.293549 0.475124
vt 0.293549 0.475124
vt 0.326869 0.473352
vt 0.326869 0.473352
vt 0.326869 0.473352
vt 0.326869 0.473352
vt 0.326869 0.473352
vt 0.326869 0.473352
vt 0.326869 0.473352
vt 0.326869 0.473352
vt 0.358580 0.331169
vt 0.358580 0.331169
vt 0.358580 0.331169
vt 0.358580 0.331169
vt 0.356643 0.473352
vt 0.356643 0.473352
vt 0.356643 0.473352
vt 0.356643 0.473352
vt 0.293549 0.475124
vt 0.293549 0.475124
vt 0.293549 0.475124
vt 0.293549 0.475124
vt 0.356643 0.473352
vt 0.356643 0.473352
vt 0.356643 0.473352
vt 0.356643 0.473352
vt 0.234975 0.170278
vt 0.234975 0.170278
vt 0.234975 0.170278
vt 0.234975 0.170278
vt 0.205201 0.170278
vt 0.205201 0.170278
vt 0.205201 0.170278
vt 0.205201 0.170278
vt 0.234975 0.170278
vt 0.234975 0.170278
vt 0.234975 0.170278
vt 0.234975 0.170278
vt 0.328122 0.331169
vt 0.328122 0.331169
vt 0.328122 0.331169
vt 0.328122 0.331169
vt 0.298348 0.331169
vt 0.298348 0.331169
vt 0.298348 0.331169
vt 0.298348 0.331169
vt 0.328122 0.331169
vt 0.328122 0.331169
vt 0.328122 0.331169
vt 0.328122 0.331169
vt 0.234975 0.170278
vt 0.234975 0.170278
vt 0.234975 0.170278
vt 0.234975 0.170278
vt 0.205201 0.170278
vt 0.205201 0.170278
vt 0.205201 0.170278
vt 0.205201 0.170278
vt 0.234975 0.170278
vt 0.234975 0.170278
vt 0.234975 0.170278
vt 0.234975 0.170278
vt 0.234975 0.170278
vt 0.234975 0.170278
vt 0.234975 0.170278
vt 0.234975 0.170278
vt 0.205201 0.170278
vt 0.205201 0.170278
vt 0.205201 0.170278
vt 0.205201 0.170278
vt 0.234975 0.170278
vt 0.234975 0.170278
vt 0.234975 0.170278
vt 0.234975 0.170278
vt 0.356643 0.473352
vt 0.356643 0.473352
vt 0.356643 0.473352
vt 0.356643 0.473352
vt 0.326869 0.473352
vt 0.326869 0.473352
vt 0.326869 0.473352
vt 0.326869 0.473352
vt 0.356643 0.473352
vt 0.356643 0.473352
vt 0.356643 0.473352
vt 0.356643 0.473352
vt 0.328122 0.331169
vt 0.328122 0.331169
vt 0.328122 0.331169
vt 0.328122 0.331169
vt 0.298348 0.331169
vt 0.298348 0.331169
vt 0.298348 0.331169
vt 0.298348 0.331169
vt 0.328122 0.331169
vt 0.328122 0.331169
vt 0.328122 0.331169
vt 0.328122 0.331169
vt 0.201814 0.170278
vt 0.201814 0.170278
vt 0.201814 0.170278
vt 0.201814 0.170278
vt 0.231588 0.170278
vt 0.231588 0.170278
vt 0.231588 0.170278
vt 0.231588 0.170278
vt 0.231588 0.170278
vt 0.231588 0.170278
vt 0.231588 0.170278
vt 0.231588 0.170278
vt 0.201814 0.170278
vt 0.201814 0.170278
vt 0.201814 0.170278
vt 0.201814 0.170278
vt 0.231588 0.170278
vt 0.231588 0.170278
vt 0.231588 0.170278
vt 0.231588 0.170278
vt 0.231588 0.170278
vt 0.231588 0.170278
vt 0.231588 0.170278
vt 0.231588 0.170278
vt 0.356913 0.475124
vt 0.356913 0.475124
vt 0.356913 0.475124
vt 0.356913 0.475124
vt 0.327139 0.475124
vt 0.327139 0.475124
vt 0.327139 0.475124
vt 0.327139 0.475124
vt 0.356913 0.475124
vt 0.356913 0.475124
vt 0.356913 0.475124
vt 0.356913 0.475124
vt 0.356913 0.475124
vt 0.356913 0.475124
vt 0.356913 0.475124
vt 0.356913 0.475124
vt 0.327139 0.475124
vt 0.327139 0.475124
vt 0.327139 0.475124
vt 0.327139 0.475124
vt 0.356913 0.475124
vt 0.356913 0.475124
vt 0.356913 0.475124
vt 0.356913 0.475124
vt 0.298348 0.331169
vt 0.298348 0.331169
vt 0.328122 0.331169
vt 0.328122 0.331169
vt 0.356913 0.475124
vt 0.356913 0.475124
vt 0.356913 0.475124
vt 0.356913 0.475124
vt 0.327139 0.475124
vt 0.327139 0.475124
vt 0.327139 0.475124
vt 0.327139 0.475124
vt 0.356913 0.475124
vt 0.356913 0.475124
vt 0.356913 0.475124
vt 0.356913 0.475124
vt 0.328122 0.331169
vt 0.328122 0.331169
vt 0.231588 0.170278
vt 0.231588 0.170278
vt 0.231588 0.170278
vt 0.231588 0.170278
vt 0.201814 0.170278
vt 0.201814 0.170278
vt 0.201814 0.170278
vt 0.201814 0.170278
vt 0.231588 0.170278
vt 0.231588 0.170278
vt 0.231588 0.170278
vt 0.231588 0.170278
vt 0.328122 0.331169
vt 0.328122 0.331169
vt 0.298348 0.331169
vt 0.298348 0.331169
vt 0.328122 0.331169
vt 0.328122 0.331169
vn 0.000000 0.000000 1.000000
vn 0.000000 0.000000 1.000000
vn 0.000000 0.000000 1.000000
vn 0.000000 0.000000 1.000000
vn 0.000000 1.000000 0.000000
vn 0.000000 1.000000 0.000000
vn 0.000000 1.000000 0.000000
vn 0.000000 1.000000 0.000000
vn 0.000000 0.000000 -1.000000
vn 0.000000 0.000000 -1.000000
vn 0.000000 0.000000 -1.000000
vn 0.000000 0.000000 -1.000000
vn 0.000000 -1.000000 0.000000
vn 0.000000 -1.000000 0.000000
vn 0.000000 -1.000000 0.000000
vn 0.000000 -1.000000 0.000000
vn 1.000000 0.000000 0.000000
vn 1.000000 0.000000 0.000000
vn 1.000000 0.000000 0.000000
vn 1.000000 0.000000 0.000000
vn -1.000000 0.000000 0.000000
vn -1.000000 0.000000 0.000000
vn -1.000000 0.000000 0.000000
vn -1.000000 0.000000 0.000000
vn 0.000000 0.000000 1.000000
vn 0.000000 0.000000 1.000000
vn 0.000000 0.000000 1.000000
vn 0.000000 0.000000 1.000000
vn 0.000000 1.000000 0.000000
vn 0.000000 1.000000 0.000000
vn 0.000000 1.000000 0.000000
vn 0.000000 1.000000 0.000000
vn 0.000000 0.000000 -1.000000
vn 0.000000 0.000000 -1.000000
vn 0.000000 0.000000 -1.000000
vn 0.000000 0.000000 -1.000000
vn 0.000000 -1.000000 0.000000
vn 0.000000 -1.000000 0.000000
vn 0.000000 -1.000000 0.000000
vn 0.000000 -1.000000 0.000000
vn 1.000000 0.000000 0.000000
vn 1.000000 0.000000 0.000000
vn 1.000000 0.000000 0.000000
vn 1.000000 0.000000 0.000000
vn -1.000000 0.000000 0.000000
vn -1.000000 0.000000 0.000000
vn -1.000000 0.000000 0.000000
vn -1.000000 0.000000 0.000000
vn 0.000000 1.000000 0.000000
vn 0.000000 1.000000 0.000000
vn 0.000000 1.000000 0.000000
vn 0.000000 1.000000 0.000000
vn 0.000000 0.000000 1.000000
vn 0.000000 0.000000 1.000000
vn 0.000000 0.000000 1.000000
vn 0.000000 0.000000 1.000000
vn 0.000000 -1.000000 0.000000
vn 0.000000 -1.000000 0.000000
vn 0.000000 -1.000000 0.000000
vn 0.000000 -1.000000 0.000000
vn 0.000000 0.000000 -1.000000
vn 0.000000 0.000000 -1.000000
vn 0.000000 0.000000 -1.000000
vn 0.000000 0.000000 -1.000000
vn 0.000000 0.000000 -1.000000
vn 0.000000 0.000000 -1.000000
vn 0.000000 0.000000 -1.000000
vn 0.000000 0.000000 -1.000000
vn 1.000000 0.000000 0.000000
vn 1.000000 0.000000 0.000000
vn 1.000000 0.000000 0.000000
vn 1.000000 0.000000 0.000000
vn 0.000000 0.000000 1.000000
vn 0.000000 0.000000 1.000000
vn 0.000000 0.000000 1.000000
vn 0.000000 0.000000 1.000000
vn 0.000000 0.000000 1.000000
vn 0.000000 0.000000 1.000000
vn 0.000000 0.000000 1.000000
vn 0.000000 0.000000 1.000000
vn -1.000000 0.000000 0.000000
vn -1.000000 0.000000 0.000000
vn -1.000000 0.000000 0.000000
vn -1.000000 0.000000 0.000000
vn 0.000000 0.000000 -1.000000
vn 0.000000 0.000000 -1.000000
vn 0.000000 0.000000 -1.000000
vn 0.000000 0.000000 -1.000000
vn 0.000000 0.000000 -1.000000
vn 0.000000 0.000000 -1.000000
vn 0.000000 0.000000 -1.000000
vn 0.000000 0.000000 -1.000000
vn -1.000000 0.000000 0.000000
vn -1.000000 0.000000 0.000000
vn -1.000000 0.000000 0.000000
vn -1.000000 0.000000 0.000000
vn 0.000000 0.000000 1.000000
vn 0.000000 0.000000 1.000000
vn 0.000000 0.000000 1.000000
vn 0.000000 0.000000 1.000000
vn 0.000000 0.000000 1.000000
vn 0.000000 0.000000 1.000000
vn 0.000000 0.000000 1.000000
vn 0.000000 0.000000 1.000000
vn 1.000000 0.000000 0.000000
vn 1.000000 0.000000 0.000000
vn 1.000000 0.000000 0.000000
vn 1.000000 0.000000 0.000000
vn 0.000000 0.000000 -1.000000
vn 0.000000 0.000000 -1.000000
vn 0.000000 0.000000 -1.000000
vn 0.000000 0.000000 -1.000000
vn 0.000000 0.000000 -1.000000
vn 0.000000 0.000000 -1.000000
vn 0.000000 0.000000 -1.000000
vn 0.000000 0.000000 -1.000000
vn 1.000000 0.000000 0.000000
vn 1.000000 0.000000 0.000000
vn 1.000000 0.000000 0.000000
vn 1.000000 0.000000 0.000000
vn 0.000000 0.000000 1.000000
vn 0.000000 0.000000 1.000000
vn 0.000000 0.000000 1.000000
vn 0.000000 0.000000 1.000000
vn 0.000000 0.000000 1.000000
vn 0.000000 0.000000 1.000000
vn 0.000000 0.000000 1.000000
vn 0.000000 0.000000 1.000000
vn -1.000000 0.000000 0.000000
vn -1.000000 0.000000 0.000000
vn -1.000000 0.000000 0.000000
vn -1.000000 0.000000 0.000000
vn 0.000000 0.000000 -1.000000
vn 0.000000 0.000000 -1.000000
vn 0.000000 0.000000 -1.000000
vn 0.000000 0.000000 -1.000000
vn 1.000000 0.000000 0.000000
vn 1.000000 0.000000 0.000000
vn 1.000000 0.000000 0.000000
vn 1.000000 0.000000 0.000000
vn 0.000000 0.000000 1.000000
vn 0.000000 0.000000 1.000000
vn 0.000000 0.000000 1.000000
vn 0.000000 0.000000 1.000000
vn 0.000000 0.000000 1.000000
vn 0.000000 0.000000 1.000000
vn 0.000000 0.000000 1.000000
vn 0.000000 0.000000 1.000000
vn -1.000000 0.000000 0.000000
vn -1.000000 0.000000 0.000000
vn -1.000000 0.000000 0.000000
vn -1.000000 0.000000 0.000000
vn 0.000000 0.000000 -1.000000
vn 0.000000 0.000000 -1.000000
vn 0.000000 0.000000 -1.000000
vn 0.000000 0.000000 -1.000000
vn 0.000000 0.000000 -1.000000
vn 0.000000 0.000000 -1.000000
vn 0.000000 0.000000 -1.000000
vn 0.000000 0.000000 -1.000000
vn 0.000000 0.000000 -1.000000
vn 0.000000 0.000000 -1.000000
vn 0.000000 0.000000 -1.000000
vn 0.000000 0.000000 -1.000000
vn -1.000000 0.000000 0.000000
vn -1.000000 0.000000 0.000000
vn -1.000000 0.000000 0.000000
vn -1.000000 0.000000 0.000000
vn 0.000000 0.000000 1.000000
vn 0.000000 0.000000 1.000000
vn 0.000000 0.000000 1.000000
vn 0.000000 0.000000 1.000000
vn 0.000000 0.000000 1.000000
vn 0.000000 0.000000 1.000000
vn 0.000000 0.000000 1.000000
vn 0.000000 0.000000 1.000000
vn 1.000000 0.000000 0.000000
vn 1.000000 0.000000 0.000000
vn 1.000000 0.000000 0.000000
vn 1.000000 0.000000 0.000000
vn 0.000000 0.000000 -1.000000
vn 0.000000 0.000000 -1.000000
vn 0.000000 0.000000 -1.000000
vn 0.000000 0.000000 -1.000000
vn -1.000000 0.000000 0.000000
vn -1.000000 0.000000 0.000000
vn -1.000000 0.000000 0.000000
vn -1.000000 0.000000 0.000000
vn 0.000000 0.000000 1.000000
vn 0.000000 0.000000 1.000000
vn 0.000000 0.000000 1.000000
vn 0.000000 0.000000 1.000000
vn 0.000000 0.000000 1.000000
vn 0.000000 0.000000 1.000000
vn 0.000000 0.000000 1.000000
vn 0.000000 0.000000 1.000000
vn 1.000000 0.000000 0.000000
vn 1.000000 0.000000 0.000000
vn 1.000000 0.000000 0.000000
vn 1.000000 0.000000 0.000000
vn 0.000000 0.000000 -1.000000
vn 0.000000 0.000000 -1.000000
vn 0.000000 0.000000 -1.000000
vn 0.000000 0.000000 -1.000000
vn 0.000000 0.000000 -1.000000
vn 0.000000 0.000000 -1.000000
vn 0.000000 0.000000 -1.000000
vn 0.000000 0.000000 -1.000000
vn 0.000000 0.000000 -1.000000
vn 0.000000 0.000000 -1.000000
vn 0.000000 0.000000 -1.000000
vn 0.000000 0.000000 -1.000000
vn 1.000000 0.000000 0.000000
vn 1.000000 0.000000 0.000000
vn 1.000000 0.000000 0.000000
vn 1.000000 0.000000 0.000000
vn 0.000000 0.000000 1.000000
vn 0.000000 0.000000 1.000000
vn 0.000000 0.000000 1.000000
vn 0.000000 0.000000 1.000000
vn 0.000000 0.000000 1.000000
vn 0.000000 0.000000 1.000000
vn 0.000000 0.000000 1.000000
vn 0.000000 0.000000 1.000000
vn -1.000000 0.000000 0.000000
vn -1.000000 0.000000 0.000000
vn -1.000000 0.000000 0.000000
vn -1.000000 0.000000 0.000000
vn 0.000000 0.000000 -1.000000
vn 0.000000 0.000000 -1.000000
vn 0.000000 0.000000 -1.000000
vn 0.000000 0.000000 -1.000000
s off
f 1/22/1 2/2/2 4/20/3 3/23/4
f 3/3/5 4/21/6 6/6/7 5/17/8
f 5/5/9 6/15/10 8/8/11 7/18/12
f 7/7/13 8/16/14 2/10/15 1/9/16
f 2/19/17 8/11/18 6/12/19 4/4/20
f 7/13/21 1/1/22 3/24/23 5/14/24
f 40/25/25 41/26/26 30/27/27 31/28/28
f 17/29/29 18/30/30 12/31/31 14/32/32
f 32/33/33 27/34/34 44/35/35 39/36/36
f 19/37/37 20/38/38 16/39/39 10/40/40
f 31/41/41 32/42/42 39/43/43 40/44/44
f 28/45/45 29/46/46 42/47/47 43/48/48
f 11/49/49 18/50/50 17/51/51 13/52/52
f 29/53/53 30/54/54 41/55/55 42/56/56
f 15/57/57 20/58/58 19/59/59 9/60/60
f 43/61/61 44/62/62 27/63/63 28/64/64
f 55/65/65 56/66/66 33/67/67 34/68/68
f 54/69/69 55/70/70 34/71/71 35/72/72
f 35/73/73 36/74/74 53/75/75 54/76/76
f 52/77/77 53/78/78 36/79/79 37/80/80
f 51/81/81 52/82/82 37/83/83 38/84/84
f 38/85/85 33/86/86 56/87/87 51/88/88
f 28/89/89 27/90/90 45/91/91 46/92/92
f 46/93/93 47/94/94 29/95/95 28/96/96
f 47/97/97 48/98/98 30/99/99 29/100/100
f 31/101/101 30/102/102 48/103/103 49/104/104
f 49/105/105 50/106/106 32/107/107 31/108/108
f 50/109/109 45/110/110 27/111/111 32/112/112
f 34/113/113 33/114/114 57/115/115 58/116/116
f 35/117/117 34/118/118 58/119/119 59/120/120
f 59/121/121 60/122/122 36/123/123 35/124/124
f 37/125/125 36/126/126 60/127/127 61/128/128
f 38/129/129 37/130/130 61/131/131 62/132/132
f 62/133/133 57/134/134 33/135/135 38/136/136
f 40/137/137 39/138/138 22/139/139 23/140/140
f 23/141/141 24/142/142 41/143/143 40/144/144
f 42/145/145 41/146/146 24/147/147 25/148/148
f 43/149/149 42/150/150 25/151/151 26/152/152
f 26/153/153 21/154/154 44/155/155 43/156/156
f 39/157/157 44/158/158 21/159/159 22/160/160
f 46/161/161 45/162/162 20/163/163 15/164/164
f 15/165/165 9/166/166 47/167/167 46/168/168
f 9/169/169 19/170/170 48/171/171 47/172/172
f 49/173/173 48/174/174 19/175/175 10/176/176
f 10/177/177 16/178/178 50/179/179 49/180/180
f 20/181/181 45/182/182 50/183/183 16/184/184
f 26/185/185 25/186/186 52/82/187 51/81/188
f 25/187/189 24/188/190 53/78/191 52/77/192
f 54/189/193 53/190/194 24/191/195 23/192/196
f 23/193/197 22/194/198 55/195/199 54/196/200
f 22/197/201 21/198/202 56/199/203 55/200/204
f 51/88/205 56/87/206 21/201/207 26/202/208
f 58/203/209 57/204/210 17/205/211 14/206/212
f 59/207/213 58/208/214 14/209/215 12/210/216
f 18/211/217 60/212/218 59/213/219 12/214/220
f 61/128/221 60/127/222 18/215/223 11/216/224
f 62/132/225 61/131/226 11/217/227 13/218/228
f 13/219/229 17/220/230 57/134/231 62/133/232
