# This file uses meters as units for non-parametric coordinates.

v -0.299786 0.000000 0.299785
v 0.299786 0.000000 0.299785
v -0.299786 0.599571 0.299785
v 0.299786 0.599571 0.299785
v -0.299786 0.599571 -0.299785
v 0.299786 0.599571 -0.299785
v -0.299786 0.000000 -0.299785
v 0.299786 0.000000 -0.299785
v -0.210793 0.599571 0.210791
v 0.210793 0.599571 0.210791
v 0.210793 0.599571 -0.210791
v -0.210793 0.599571 -0.210791
v -0.210793 0.533568 0.210791
v 0.210793 0.533568 0.210791
v 0.210793 0.533568 -0.210791
v -0.210793 0.533568 -0.210791
v -0.080486 0.533568 0.080486
v 0.080486 0.533568 0.080486
v 0.080486 0.533568 -0.080486
v -0.080486 0.533568 -0.080486
v -0.080486 1.029707 0.080486
v 0.080486 1.029707 0.080486
v 0.080486 1.029707 -0.080486
v -0.080486 1.029707 -0.080486
v -0.382038 1.029707 0.382039
v 0.382042 1.029707 0.382039
v 0.382042 1.029707 -0.382039
v -0.382038 1.029707 -0.382039
v -0.382038 1.757515 0.382039
v 0.382042 1.757515 0.382039
v 0.382042 1.757515 -0.382039
v -0.382038 1.757515 -0.382039
vt 0.169108 0.062631
vt 0.198882 0.062631
vt 0.229339 0.062631
vt 0.169108 0.062631
vt 0.198882 0.062631
vt 0.229339 0.062631
vt 0.135517 0.062631
vt 0.198882 0.062631
vt 0.135517 0.062631
vt 0.135517 0.062631
vt 0.169108 0.062631
vt 0.169108 0.062631
vt 0.169108 0.062631
vt 0.169108 0.062631
vt 0.198882 0.062631
vt 0.135517 0.062631
vt 0.229339 0.062631
vt 0.198882 0.062631
vt 0.169108 0.062631
vt 0.198882 0.062631
vt 0.229339 0.062631
vt 0.198882 0.062631
vt 0.198882 0.062631
vt 0.169108 0.062631
vt 0.201082 0.062631
vt 0.170255 0.062631
vt 0.201082 0.062631
vt 0.170255 0.062631
vt 0.232450 0.047836
vt 0.232450 0.047836
vt 0.232450 0.047836
vt 0.232450 0.047836
vt 0.267813 0.400627
vt 0.231849 0.400627
vt 0.267813 0.400627
vt 0.231849 0.400627
vt 0.138514 0.152303
vt 0.138514 0.152303
vt 0.138514 0.152303
vt 0.138514 0.152303
vt 0.204448 0.152303
vt 0.168484 0.152303
vt 0.204448 0.152303
vt 0.168484 0.152303
vt 0.236130 0.152303
vt 0.168484 0.152303
vt 0.204448 0.152303
vt 0.168484 0.152303
vt 0.168484 0.152303
vt 0.204448 0.152303
vt 0.138514 0.152303
vt 0.204448 0.152303
vt 0.168484 0.152303
vt 0.168484 0.152303
vt 0.138514 0.152303
vt 0.168484 0.152303
vt 0.231849 0.400627
vt 0.231849 0.400627
vt 0.232450 0.047836
vt 0.231849 0.400627
vt 0.231849 0.400627
vt 0.231849 0.400627
vt 0.232450 0.047836
vt 0.231849 0.400627
vt 0.236130 0.152303
vt 0.236130 0.152303
vt 0.204448 0.152303
vt 0.138514 0.152303
vt 0.204448 0.152303
vt 0.236130 0.152303
vt 0.204448 0.152303
vt 0.138514 0.152303
vt 0.267813 0.400627
vt 0.267813 0.400627
vt 0.267813 0.400627
vt 0.232450 0.047836
vt 0.267813 0.400627
vt 0.267813 0.400627
vt 0.267813 0.400627
vt 0.232450 0.047836
vt 0.138514 0.152303
vt 0.138514 0.152303
vt 0.138514 0.152303
vt 0.138514 0.152303
vt 0.138514 0.152303
vt 0.138514 0.152303
vt 0.138514 0.152303
vt 0.138514 0.152303
vt 0.170255 0.062631
vt 0.170255 0.062631
vt 0.229339 0.062631
vt 0.170255 0.062631
vt 0.170255 0.062631
vt 0.170255 0.062631
vt 0.229339 0.062631
vt 0.170255 0.062631
vt 0.201082 0.062631
vt 0.201082 0.062631
vt 0.201082 0.062631
vt 0.229339 0.062631
vt 0.201082 0.062631
vt 0.201082 0.062631
vt 0.201082 0.062631
vt 0.229339 0.062631
vt 0.232450 0.047836
vt 0.232450 0.047836
vt 0.232450 0.047836
vt 0.232450 0.047836
vt 0.232450 0.047836
vt 0.232450 0.047836
vt 0.232450 0.047836
vt 0.232450 0.047836
vn 0.000000 0.000000 1.000000
vn 0.000000 0.000000 1.000000
vn 0.000000 0.000000 1.000000
vn 0.000000 0.000000 1.000000
vn 0.000000 1.000000 0.000000
vn 0.000000 1.000000 0.000000
vn 0.000000 1.000000 0.000000
vn 0.000000 1.000000 0.000000
vn 0.000000 0.000000 -1.000000
vn 0.000000 0.000000 -1.000000
vn 0.000000 0.000000 -1.000000
vn 0.000000 0.000000 -1.000000
vn 0.000000 -1.000000 0.000000
vn 0.000000 -1.000000 0.000000
vn 0.000000 -1.000000 0.000000
vn 0.000000 -1.000000 0.000000
vn 1.000000 0.000000 0.000000
vn 1.000000 0.000000 0.000000
vn 1.000000 0.000000 0.000000
vn 1.000000 0.000000 0.000000
vn -1.000000 0.000000 0.000000
vn -1.000000 0.000000 0.000000
vn -1.000000 0.000000 0.000000
vn -1.000000 0.000000 0.000000
vn 0.000000 1.000000 -0.000000
vn 0.000000 1.000000 -0.000000
vn 0.000000 1.000000 -0.000000
vn 0.000000 1.000000 -0.000000
vn 0.000000 1.000000 0.000000
vn 0.000000 1.000000 0.000000
vn 0.000000 1.000000 0.000000
vn 0.000000 1.000000 0.000000
vn 0.000000 1.000000 0.000000
vn 0.000000 1.000000 0.000000
vn 0.000000 1.000000 0.000000
vn 0.000000 1.000000 0.000000
vn 0.000000 1.000000 0.000000
vn 0.000000 1.000000 0.000000
vn 0.000000 1.000000 0.000000
vn 0.000000 1.000000 0.000000
vn 0.000000 0.000000 -1.000000
vn 0.000000 0.000000 -1.000000
vn 0.000000 0.000000 -1.000000
vn 0.000000 0.000000 -1.000000
vn -1.000000 0.000000 0.000000
vn -1.000000 0.000000 0.000000
vn -1.000000 0.000000 0.000000
vn -1.000000 0.000000 0.000000
vn 0.000000 0.000000 1.000000
vn 0.000000 0.000000 1.000000
vn 0.000000 0.000000 1.000000
vn 0.000000 0.000000 1.000000
vn 1.000000 0.000000 0.000000
vn 1.000000 0.000000 0.000000
vn 1.000000 0.000000 0.000000
vn 1.000000 0.000000 0.000000
vn 0.000000 1.000000 -0.000000
vn 0.000000 1.000000 -0.000000
vn 0.000000 1.000000 -0.000000
vn 0.000000 1.000000 -0.000000
vn 0.000000 1.000000 0.000000
vn 0.000000 1.000000 0.000000
vn 0.000000 1.000000 0.000000
vn 0.000000 1.000000 0.000000
vn 0.000000 1.000000 0.000000
vn 0.000000 1.000000 0.000000
vn 0.000000 1.000000 0.000000
vn 0.000000 1.000000 0.000000
vn 0.000000 1.000000 0.000000
vn 0.000000 1.000000 0.000000
vn 0.000000 1.000000 0.000000
vn 0.000000 1.000000 0.000000
vn 0.000000 0.000000 1.000000
vn 0.000000 0.000000 1.000000
vn 0.000000 0.000000 1.000000
vn 0.000000 0.000000 1.000000
vn 1.000000 0.000000 0.000000
vn 1.000000 0.000000 0.000000
vn 1.000000 0.000000 0.000000
vn 1.000000 0.000000 0.000000
vn 0.000000 0.000000 -1.000000
vn 0.000000 0.000000 -1.000000
vn 0.000000 0.000000 -1.000000
vn 0.000000 0.000000 -1.000000
vn -1.000000 0.000000 0.000000
vn -1.000000 0.000000 0.000000
vn -1.000000 0.000000 0.000000
vn -1.000000 0.000000 0.000000
vn 0.000000 -1.000000 0.000000
vn 0.000000 -1.000000 0.000000
vn 0.000000 -1.000000 0.000000
vn 0.000000 -1.000000 0.000000
vn 0.000000 -1.000000 0.000000
vn 0.000000 -1.000000 0.000000
vn 0.000000 -1.000000 0.000000
vn 0.000000 -1.000000 0.000000
vn 0.000000 -1.000000 -0.000000
vn 0.000000 -1.000000 -0.000000
vn 0.000000 -1.000000 -0.000000
vn 0.000000 -1.000000 -0.000000
vn 0.000000 -1.000000 0.000000
vn 0.000000 -1.000000 0.000000
vn 0.000000 -1.000000 0.000000
vn 0.000000 -1.000000 0.000000
vn 0.000000 0.000000 1.000000
vn 0.000000 0.000000 1.000000
vn 0.000000 0.000000 1.000000
vn 0.000000 0.000000 1.000000
vn 1.000000 0.000000 0.000000
vn 1.000000 0.000000 0.000000
vn 1.000000 0.000000 0.000000
vn 1.000000 0.000000 0.000000
vn 0.000000 0.000000 -1.000000
vn 0.000000 0.000000 -1.000000
vn 0.000000 0.000000 -1.000000
vn 0.000000 0.000000 -1.000000
vn -1.000000 0.000000 0.000000
vn -1.000000 0.000000 0.000000
vn -1.000000 0.000000 0.000000
vn -1.000000 0.000000 0.000000
s off
f 1/22/1 2/2/2 4/20/3 3/23/4
f 29/45/5 30/70/6 31/66/7 32/65/8
f 5/5/9 6/15/10 8/8/11 7/18/12
f 7/7/13 8/16/14 2/10/15 1/9/16
f 2/19/17 8/11/18 6/12/19 4/4/20
f 7/13/21 1/1/22 3/24/23 5/14/24
f 3/3/25 4/21/26 10/95/27 9/104/28
f 4/21/29 6/6/30 11/100/31 10/95/32
f 6/6/33 5/17/34 12/91/35 11/100/36
f 5/17/37 3/3/38 9/104/39 12/91/40
f 9/25/41 10/103/42 14/102/43 13/101/44
f 10/26/45 11/94/46 15/93/47 14/92/48
f 11/27/49 12/99/50 16/97/51 15/98/52
f 12/28/53 9/96/54 13/89/55 16/90/56
f 13/29/57 14/111/58 18/109/59 17/80/60
f 14/30/61 15/110/62 19/107/63 18/63/64
f 15/31/65 16/108/66 20/106/67 19/76/68
f 16/32/69 13/112/70 17/105/71 20/59/72
f 17/33/73 18/79/74 22/78/75 21/77/76
f 18/34/77 19/62/78 23/61/79 22/60/80
f 19/35/81 20/75/82 24/73/83 23/74/84
f 20/36/85 17/64/86 21/57/87 24/58/88
f 21/37/89 22/87/90 26/85/91 25/72/92
f 22/38/93 23/86/94 27/83/95 26/55/96
f 23/39/97 24/84/98 28/82/99 27/68/100
f 24/40/101 21/88/102 25/81/103 28/51/104
f 25/41/105 26/71/106 30/52/107 29/69/108
f 26/42/109 27/54/110 31/53/111 30/46/112
f 27/43/113 28/67/114 32/50/115 31/47/116
f 28/44/117 25/56/118 29/49/119 32/48/120
