# This file uses meters as units for non-parametric coordinates.

v -3.985336 0.000000 -0.998046
v 3.940384 0.000000 -0.641409
v -3.985336 1.000000 -0.998046
v 3.940384 1.000000 -0.641409
v -3.940384 1.000000 -1.997036
v 3.985336 1.000000 -1.640398
v -3.940384 0.000000 -1.997036
v 3.985336 0.000000 -1.640398
v 3.985336 0.750000 -1.640398
v 3.940384 0.750000 -0.641409
v -3.985336 0.750000 -0.998046
v -3.940384 0.750000 -1.997036
v -3.985336 0.250000 -0.998046
v 3.940384 0.250000 -0.641409
v 3.985336 0.250000 -1.640398
v -3.940384 0.250000 -1.997036
v 3.815353 0.750000 -0.761674
v -3.850021 0.750000 -1.106596
v -3.815353 0.750000 -1.876770
v 3.850021 0.750000 -1.531848
v -3.850021 0.250000 -1.106596
v 3.815353 0.250000 -0.761674
v 3.850021 0.250000 -1.531848
v -3.815353 0.250000 -1.876770
v -3.954636 0.000000 0.563284
v 3.977112 0.000000 0.384912
v -3.954636 1.000000 0.563284
v 3.977112 1.000000 0.384912
v -3.977127 1.000000 -0.436463
v 3.954620 1.000000 -0.614835
v -3.977127 0.000000 -0.436463
v 3.954620 0.000000 -0.614835
v 3.954620 0.750000 -0.614835
v 3.977112 0.750000 0.384912
v -3.954636 0.750000 0.563284
v -3.977127 0.750000 -0.436463
v -3.954636 0.250000 0.563284
v 3.977112 0.250000 0.384912
v 3.954620 0.250000 -0.614835
v -3.977127 0.250000 -0.436463
v 3.844254 0.750000 0.273348
v -3.826950 0.750000 0.445861
v -3.844284 0.750000 -0.324898
v 3.826920 0.750000 -0.497411
v -3.826950 0.250000 0.445861
v 3.844254 0.250000 0.273348
v 3.826920 0.250000 -0.497411
v -3.844284 0.250000 -0.324898
v -3.984070 0.000000 1.670810
v 3.942963 0.000000 1.997036
v -3.984070 1.000000 1.670810
v 3.942963 1.000000 1.997036
v -3.942963 1.000000 0.671656
v 3.984070 1.000000 0.997882
v -3.942963 0.000000 0.671656
v 3.984070 0.000000 0.997882
v 3.984070 0.750000 0.997882
v 3.942963 0.750000 1.997036
v -3.984070 0.750000 1.670810
v -3.942963 0.750000 0.671656
v -3.984070 0.250000 1.670810
v 3.942963 0.250000 1.997036
v 3.984070 0.250000 0.997882
v -3.942963 0.250000 0.671656
v 3.817474 0.750000 1.877252
v -3.849182 0.750000 1.561742
v -3.817474 0.750000 0.791440
v 3.849182 0.750000 1.106950
v -3.849182 0.250000 1.561742
v 3.817474 0.250000 1.877252
v 3.849182 0.250000 1.106950
v -3.817474 0.250000 0.791440
v -3.656372 1.000000 1.611172
v 3.943451 1.000000 -0.666370
v -3.656372 2.000000 1.611172
v 3.943451 2.000000 -0.666370
v -3.943451 2.000000 0.653263
v 3.656372 2.000000 -1.624279
v -3.943451 1.000000 0.653263
v 3.656372 1.000000 -1.624279
v 3.656372 1.750000 -1.624279
v 3.943451 1.750000 -0.666370
v -3.656372 1.750000 1.611172
v -3.943451 1.750000 0.653263
v -3.656372 1.250000 1.611172
v 3.943451 1.250000 -0.666370
v 3.656372 1.250000 -1.624279
v -3.943451 1.250000 0.653263
v 3.785736 1.750000 -0.738667
v -3.564438 1.750000 1.464062
v -3.785751 1.750000 0.725559
v 3.564423 1.750000 -1.477169
v -3.564438 1.250000 1.464062
v 3.785736 1.250000 -0.738667
v 3.564423 1.250000 -1.477169
v -3.785751 1.250000 0.725559
vt 0.298348 0.086350
vt 0.328122 0.086350
vt 0.358580 0.086350
vt 0.298348 0.086350
vt 0.328122 0.086350
vt 0.358580 0.086350
vt 0.264758 0.086350
vt 0.328122 0.086350
vt 0.264758 0.086350
vt 0.264758 0.086350
vt 0.298348 0.086350
vt 0.298348 0.086350
vt 0.298348 0.086350
vt 0.298348 0.086350
vt 0.328122 0.086350
vt 0.264758 0.086350
vt 0.358580 0.086350
vt 0.328122 0.086350
vt 0.298348 0.086350
vt 0.328122 0.086350
vt 0.358580 0.086350
vt 0.328122 0.086350
vt 0.328122 0.086350
vt 0.298348 0.086350
vt 0.328122 0.086350
vt 0.298348 0.086350
vt 0.328122 0.086350
vt 0.298348 0.086350
vt 0.298348 0.086350
vt 0.328122 0.086350
vt 0.298348 0.086350
vt 0.328122 0.086350
vt 0.298348 0.086350
vt 0.328122 0.086350
vt 0.328122 0.086350
vt 0.298348 0.086350
vt 0.328122 0.086350
vt 0.298348 0.086350
vt 0.298348 0.086350
vt 0.328122 0.086350
vt 0.292814 0.086350
vt 0.292814 0.086350
vt 0.292814 0.086350
vt 0.292814 0.086350
vt 0.263040 0.086350
vt 0.263040 0.086350
vt 0.263040 0.086350
vt 0.263040 0.086350
vt 0.292814 0.086350
vt 0.292814 0.086350
vt 0.263040 0.086350
vt 0.263040 0.086350
vt 0.292814 0.086350
vt 0.292814 0.086350
vt 0.263040 0.086350
vt 0.263040 0.086350
vt 0.262550 0.086499
vt 0.262549 0.086499
vt 0.262549 0.086499
vt 0.262550 0.086499
vt 0.262549 0.086499
vt 0.262550 0.086499
vt 0.262550 0.086499
vt 0.262549 0.086499
vt 0.361018 0.086441
vt 0.361017 0.086441
vt 0.361017 0.086441
vt 0.361018 0.086441
vt 0.361017 0.086441
vt 0.361017 0.086441
vt 0.361018 0.086441
vt 0.361018 0.086441
vt 0.361018 0.086441
vt 0.361018 0.086441
vt 0.262549 0.086499
vt 0.361017 0.086441
vt 0.361018 0.086441
vt 0.262550 0.086499
vt 0.361017 0.086441
vt 0.361017 0.086441
vt 0.262549 0.086499
vt 0.262550 0.086499
vt 0.361017 0.086441
vt 0.361018 0.086441
vt 0.262550 0.086499
vt 0.262549 0.086499
vt 0.262549 0.086499
vt 0.262550 0.086499
vt 0.292814 0.086350
vt 0.292814 0.086350
vt 0.292814 0.086350
vt 0.292814 0.086350
vt 0.358580 0.086350
vt 0.358580 0.086350
vt 0.358580 0.086350
vt 0.358580 0.086350
vt 0.292814 0.086350
vt 0.292814 0.086350
vt 0.292814 0.086350
vt 0.292814 0.086350
vt 0.264758 0.086350
vt 0.264758 0.086350
vt 0.264758 0.086350
vt 0.264758 0.086350
vt 0.263040 0.086350
vt 0.263040 0.086350
vt 0.263040 0.086350
vt 0.263040 0.086350
vt 0.263040 0.086350
vt 0.263040 0.086350
vt 0.263040 0.086350
vt 0.263040 0.086350
vt 0.298348 0.086350
vt 0.298348 0.086350
vt 0.298348 0.086350
vt 0.298348 0.086350
vt 0.328122 0.086350
vt 0.328122 0.086350
vt 0.328122 0.086350
vt 0.328122 0.086350
vt 0.298348 0.086350
vt 0.298348 0.086350
vt 0.298348 0.086350
vt 0.298348 0.086350
vt 0.328122 0.086350
vt 0.328122 0.086350
vt 0.328122 0.086350
vt 0.328122 0.086350
vt 0.328122 0.086350
vt 0.328122 0.086350
vt 0.328122 0.086350
vt 0.328122 0.086350
vt 0.298348 0.086350
vt 0.298348 0.086350
vt 0.298348 0.086350
vt 0.298348 0.086350
vt 0.328122 0.086350
vt 0.328122 0.086350
vt 0.328122 0.086350
vt 0.328122 0.086350
vt 0.298348 0.086350
vt 0.298348 0.086350
vt 0.298348 0.086350
vt 0.298348 0.086350
vt 0.262550 0.086499
vt 0.262549 0.086499
vt 0.262549 0.086499
vt 0.262550 0.086499
vt 0.262549 0.086499
vt 0.262550 0.086499
vt 0.262550 0.086499
vt 0.262549 0.086499
vt 0.262550 0.086499
vt 0.262550 0.086499
vt 0.262550 0.086499
vt 0.262550 0.086499
vt 0.262549 0.086499
vt 0.262549 0.086499
vt 0.262549 0.086499
vt 0.262549 0.086499
vt 0.361018 0.086441
vt 0.361017 0.086441
vt 0.361017 0.086441
vt 0.361018 0.086441
vt 0.361017 0.086441
vt 0.361017 0.086441
vt 0.361017 0.086441
vt 0.361017 0.086441
vt 0.361017 0.086441
vt 0.361018 0.086441
vt 0.361018 0.086441
vt 0.361017 0.086441
vt 0.361018 0.086441
vt 0.361018 0.086441
vt 0.361018 0.086441
vt 0.361018 0.086441
vt 0.292814 0.086350
vt 0.292814 0.086350
vt 0.292814 0.086350
vt 0.292814 0.086350
vt 0.358580 0.086350
vt 0.358580 0.086350
vt 0.358580 0.086350
vt 0.358580 0.086350
vt 0.292814 0.086350
vt 0.292814 0.086350
vt 0.292814 0.086350
vt 0.292814 0.086350
vt 0.264758 0.086350
vt 0.264758 0.086350
vt 0.264758 0.086350
vt 0.264758 0.086350
vt 0.263040 0.086350
vt 0.263040 0.086350
vt 0.263040 0.086350
vt 0.263040 0.086350
vt 0.263040 0.086350
vt 0.263040 0.086350
vt 0.263040 0.086350
vt 0.263040 0.086350
vt 0.298348 0.086350
vt 0.298348 0.086350
vt 0.298348 0.086350
vt 0.298348 0.086350
vt 0.328122 0.086350
vt 0.328122 0.086350
vt 0.328122 0.086350
vt 0.328122 0.086350
vt 0.298348 0.086350
vt 0.298348 0.086350
vt 0.298348 0.086350
vt 0.298348 0.086350
vt 0.328122 0.086350
vt 0.328122 0.086350
vt 0.328122 0.086350
vt 0.328122 0.086350
vt 0.328122 0.086350
vt 0.328122 0.086350
vt 0.328122 0.086350
vt 0.328122 0.086350
vt 0.298348 0.086350
vt 0.298348 0.086350
vt 0.298348 0.086350
vt 0.298348 0.086350
vt 0.328122 0.086350
vt 0.328122 0.086350
vt 0.328122 0.086350
vt 0.328122 0.086350
vt 0.298348 0.086350
vt 0.298348 0.086350
vt 0.298348 0.086350
vt 0.298348 0.086350
vt 0.262550 0.086499
vt 0.262549 0.086499
vt 0.262549 0.086499
vt 0.262550 0.086499
vt 0.262549 0.086499
vt 0.262550 0.086499
vt 0.262550 0.086499
vt 0.262549 0.086499
vt 0.262550 0.086499
vt 0.262550 0.086499
vt 0.262550 0.086499
vt 0.262550 0.086499
vt 0.262549 0.086499
vt 0.262549 0.086499
vt 0.262549 0.086499
vt 0.262549 0.086499
vt 0.361018 0.086441
vt 0.361017 0.086441
vt 0.361017 0.086441
vt 0.361018 0.086441
vt 0.361017 0.086441
vt 0.361017 0.086441
vt 0.361017 0.086441
vt 0.361017 0.086441
vt 0.361017 0.086441
vt 0.361018 0.086441
vt 0.361018 0.086441
vt 0.361017 0.086441
vt 0.361018 0.086441
vt 0.361018 0.086441
vt 0.361018 0.086441
vt 0.361018 0.086441
vt 0.292814 0.086350
vt 0.292814 0.086350
vt 0.292814 0.086350
vt 0.292814 0.086350
vt 0.358580 0.086350
vt 0.358580 0.086350
vt 0.358580 0.086350
vt 0.358580 0.086350
vt 0.292814 0.086350
vt 0.292814 0.086350
vt 0.292814 0.086350
vt 0.292814 0.086350
vt 0.264758 0.086350
vt 0.264758 0.086350
vt 0.264758 0.086350
vt 0.264758 0.086350
vt 0.263040 0.086350
vt 0.263040 0.086350
vt 0.263040 0.086350
vt 0.263040 0.086350
vt 0.263040 0.086350
vt 0.263040 0.086350
vt 0.263040 0.086350
vt 0.263040 0.086350
vt 0.298348 0.086350
vt 0.298348 0.086350
vt 0.298348 0.086350
vt 0.298348 0.086350
vt 0.328122 0.086350
vt 0.328122 0.086350
vt 0.328122 0.086350
vt 0.328122 0.086350
vt 0.298348 0.086350
vt 0.298348 0.086350
vt 0.298348 0.086350
vt 0.298348 0.086350
vt 0.328122 0.086350
vt 0.328122 0.086350
vt 0.328122 0.086350
vt 0.328122 0.086350
vt 0.328122 0.086350
vt 0.328122 0.086350
vt 0.328122 0.086350
vt 0.328122 0.086350
vt 0.298348 0.086350
vt 0.298348 0.086350
vt 0.298348 0.086350
vt 0.298348 0.086350
vt 0.328122 0.086350
vt 0.328122 0.086350
vt 0.328122 0.086350
vt 0.328122 0.086350
vt 0.298348 0.086350
vt 0.298348 0.086350
vt 0.298348 0.086350
vt 0.298348 0.086350
vt 0.262550 0.086499
vt 0.262549 0.086499
vt 0.262549 0.086499
vt 0.262550 0.086499
vt 0.262549 0.086499
vt 0.262550 0.086499
vt 0.262550 0.086499
vt 0.262549 0.086499
vt 0.262550 0.086499
vt 0.262550 0.086499
vt 0.262550 0.086499
vt 0.262550 0.086499
vt 0.262549 0.086499
vt 0.262549 0.086499
vt 0.262549 0.086499
vt 0.262549 0.086499
vt 0.361018 0.086441
vt 0.361017 0.086441
vt 0.361017 0.086441
vt 0.361018 0.086441
vt 0.361017 0.086441
vt 0.361017 0.086441
vt 0.361017 0.086441
vt 0.361017 0.086441
vt 0.361017 0.086441
vt 0.361018 0.086441
vt 0.361018 0.086441
vt 0.361017 0.086441
vt 0.361018 0.086441
vt 0.361018 0.086441
vt 0.361018 0.086441
vt 0.361018 0.086441
vn -0.044952 0.000000 0.998989
vn -0.044952 0.000000 0.998989
vn -0.044952 0.000000 0.998989
vn -0.044952 0.000000 0.998989
vn 0.000000 1.000000 0.000000
vn 0.000000 1.000000 0.000000
vn 0.000000 1.000000 0.000000
vn 0.000000 1.000000 0.000000
vn 0.044952 0.000000 -0.998989
vn 0.044952 0.000000 -0.998989
vn 0.044952 0.000000 -0.998989
vn 0.044952 0.000000 -0.998989
vn 0.000000 -1.000000 0.000000
vn 0.000000 -1.000000 0.000000
vn 0.000000 -1.000000 0.000000
vn 0.000000 -1.000000 0.000000
vn 0.998988 0.000000 0.044968
vn 0.998988 0.000000 0.044968
vn 0.998988 0.000000 0.044968
vn 0.998988 0.000000 0.044968
vn -0.998988 0.000000 -0.044968
vn -0.998988 0.000000 -0.044968
vn -0.998988 0.000000 -0.044968
vn -0.998988 0.000000 -0.044968
vn 0.998989 0.000000 0.044952
vn 0.998989 0.000000 0.044952
vn 0.998989 0.000000 0.044952
vn 0.998989 0.000000 0.044952
vn -0.044952 0.000000 0.998989
vn -0.044952 0.000000 0.998989
vn -0.044952 0.000000 0.998989
vn -0.044952 0.000000 0.998989
vn -0.998989 0.000000 -0.044952
vn -0.998989 0.000000 -0.044952
vn -0.998989 0.000000 -0.044952
vn -0.998989 0.000000 -0.044952
vn 0.044952 0.000000 -0.998989
vn 0.044952 0.000000 -0.998989
vn 0.044952 0.000000 -0.998989
vn 0.044952 0.000000 -0.998989
vn -0.044952 0.000000 0.998989
vn -0.044952 0.000000 0.998989
vn -0.044952 0.000000 0.998989
vn -0.044952 0.000000 0.998989
vn 0.998989 0.000000 0.044952
vn 0.998989 0.000000 0.044952
vn 0.998989 0.000000 0.044952
vn 0.998989 0.000000 0.044952
vn 0.044952 0.000000 -0.998989
vn 0.044952 0.000000 -0.998989
vn 0.044952 0.000000 -0.998989
vn 0.044952 0.000000 -0.998989
vn -0.998989 0.000000 -0.044952
vn -0.998989 0.000000 -0.044952
vn -0.998989 0.000000 -0.044952
vn -0.998989 0.000000 -0.044952
vn 0.000000 -1.000000 0.000000
vn 0.000000 -1.000000 0.000000
vn 0.000000 -1.000000 0.000000
vn 0.000000 -1.000000 0.000000
vn 0.000000 -1.000000 0.000000
vn 0.000000 -1.000000 0.000000
vn 0.000000 -1.000000 0.000000
vn 0.000000 -1.000000 0.000000
vn 0.000000 -1.000000 0.000000
vn 0.000000 -1.000000 0.000000
vn 0.000000 -1.000000 0.000000
vn 0.000000 -1.000000 0.000000
vn 0.000000 -1.000000 0.000000
vn 0.000000 -1.000000 0.000000
vn 0.000000 -1.000000 0.000000
vn 0.000000 -1.000000 0.000000
vn 0.000000 1.000000 0.000000
vn 0.000000 1.000000 0.000000
vn 0.000000 1.000000 0.000000
vn 0.000000 1.000000 0.000000
vn 0.000000 1.000000 0.000000
vn 0.000000 1.000000 0.000000
vn 0.000000 1.000000 0.000000
vn 0.000000 1.000000 0.000000
vn 0.000000 1.000000 0.000000
vn 0.000000 1.000000 0.000000
vn 0.000000 1.000000 0.000000
vn 0.000000 1.000000 0.000000
vn 0.000000 1.000000 0.000000
vn 0.000000 1.000000 0.000000
vn 0.000000 1.000000 0.000000
vn 0.000000 1.000000 0.000000
vn 0.022483 0.000000 0.999747
vn 0.022483 0.000000 0.999747
vn 0.022483 0.000000 0.999747
vn 0.022483 0.000000 0.999747
vn 0.000000 1.000000 0.000000
vn 0.000000 1.000000 0.000000
vn 0.000000 1.000000 0.000000
vn 0.000000 1.000000 0.000000
vn -0.022483 0.000000 -0.999747
vn -0.022483 0.000000 -0.999747
vn -0.022483 0.000000 -0.999747
vn -0.022483 0.000000 -0.999747
vn 0.000000 -1.000000 0.000000
vn 0.000000 -1.000000 0.000000
vn 0.000000 -1.000000 0.000000
vn 0.000000 -1.000000 0.000000
vn 0.999747 0.000000 -0.022484
vn 0.999747 0.000000 -0.022484
vn 0.999747 0.000000 -0.022484
vn 0.999747 0.000000 -0.022484
vn -0.999747 0.000000 0.022484
vn -0.999747 0.000000 0.022484
vn -0.999747 0.000000 0.022484
vn -0.999747 0.000000 0.022484
vn 0.999747 0.000000 -0.022491
vn 0.999747 0.000000 -0.022491
vn 0.999747 0.000000 -0.022491
vn 0.999747 0.000000 -0.022491
vn 0.022483 0.000000 0.999747
vn 0.022483 0.000000 0.999747
vn 0.022483 0.000000 0.999747
vn 0.022483 0.000000 0.999747
vn -0.999747 0.000000 0.022491
vn -0.999747 0.000000 0.022491
vn -0.999747 0.000000 0.022491
vn -0.999747 0.000000 0.022491
vn -0.022483 0.000000 -0.999747
vn -0.022483 0.000000 -0.999747
vn -0.022483 0.000000 -0.999747
vn -0.022483 0.000000 -0.999747
vn 0.022483 0.000000 0.999747
vn 0.022483 0.000000 0.999747
vn 0.022483 0.000000 0.999747
vn 0.022483 0.000000 0.999747
vn 0.999747 0.000000 -0.022491
vn 0.999747 0.000000 -0.022491
vn 0.999747 0.000000 -0.022491
vn 0.999747 0.000000 -0.022491
vn -0.022483 0.000000 -0.999747
vn -0.022483 0.000000 -0.999747
vn -0.022483 0.000000 -0.999747
vn -0.022483 0.000000 -0.999747
vn -0.999747 0.000000 0.022491
vn -0.999747 0.000000 0.022491
vn -0.999747 0.000000 0.022491
vn -0.999747 0.000000 0.022491
vn 0.000000 -1.000000 0.000000
vn 0.000000 -1.000000 0.000000
vn 0.000000 -1.000000 0.000000
vn 0.000000 -1.000000 0.000000
vn 0.000000 -1.000000 0.000000
vn 0.000000 -1.000000 0.000000
vn 0.000000 -1.000000 0.000000
vn 0.000000 -1.000000 0.000000
vn 0.000000 -1.000000 0.000000
vn 0.000000 -1.000000 0.000000
vn 0.000000 -1.000000 0.000000
vn 0.000000 -1.000000 0.000000
vn 0.000000 -1.000000 0.000000
vn 0.000000 -1.000000 0.000000
vn 0.000000 -1.000000 0.000000
vn 0.000000 -1.000000 0.000000
vn 0.000000 1.000000 0.000000
vn 0.000000 1.000000 0.000000
vn 0.000000 1.000000 0.000000
vn 0.000000 1.000000 0.000000
vn 0.000000 1.000000 0.000000
vn 0.000000 1.000000 0.000000
vn 0.000000 1.000000 0.000000
vn 0.000000 1.000000 0.000000
vn 0.000000 1.000000 0.000000
vn 0.000000 1.000000 0.000000
vn 0.000000 1.000000 0.000000
vn 0.000000 1.000000 0.000000
vn 0.000000 1.000000 0.000000
vn 0.000000 1.000000 0.000000
vn 0.000000 1.000000 0.000000
vn 0.000000 1.000000 0.000000
vn -0.041119 0.000000 0.999154
vn -0.041119 0.000000 0.999154
vn -0.041119 0.000000 0.999154
vn -0.041119 0.000000 0.999154
vn 0.000000 1.000000 0.000000
vn 0.000000 1.000000 0.000000
vn 0.000000 1.000000 0.000000
vn 0.000000 1.000000 0.000000
vn 0.041119 0.000000 -0.999154
vn 0.041119 0.000000 -0.999154
vn 0.041119 0.000000 -0.999154
vn 0.041119 0.000000 -0.999154
vn 0.000000 -1.000000 0.000000
vn 0.000000 -1.000000 0.000000
vn 0.000000 -1.000000 0.000000
vn 0.000000 -1.000000 0.000000
vn 0.999154 0.000000 0.041128
vn 0.999154 0.000000 0.041128
vn 0.999154 0.000000 0.041128
vn 0.999154 0.000000 0.041128
vn -0.999154 0.000000 -0.041128
vn -0.999154 0.000000 -0.041128
vn -0.999154 0.000000 -0.041128
vn -0.999154 0.000000 -0.041128
vn 0.999155 0.000000 0.041107
vn 0.999155 0.000000 0.041107
vn 0.999155 0.000000 0.041107
vn 0.999155 0.000000 0.041107
vn -0.041119 0.000000 0.999154
vn -0.041119 0.000000 0.999154
vn -0.041119 0.000000 0.999154
vn -0.041119 0.000000 0.999154
vn -0.999155 0.000000 -0.041107
vn -0.999155 0.000000 -0.041107
vn -0.999155 0.000000 -0.041107
vn -0.999155 0.000000 -0.041107
vn 0.041119 0.000000 -0.999154
vn 0.041119 0.000000 -0.999154
vn 0.041119 0.000000 -0.999154
vn 0.041119 0.000000 -0.999154
vn -0.041119 0.000000 0.999154
vn -0.041119 0.000000 0.999154
vn -0.041119 0.000000 0.999154
vn -0.041119 0.000000 0.999154
vn 0.999155 0.000000 0.041107
vn 0.999155 0.000000 0.041107
vn 0.999155 0.000000 0.041107
vn 0.999155 0.000000 0.041107
vn 0.041119 0.000000 -0.999154
vn 0.041119 0.000000 -0.999154
vn 0.041119 0.000000 -0.999154
vn 0.041119 0.000000 -0.999154
vn -0.999155 0.000000 -0.041107
vn -0.999155 0.000000 -0.041107
vn -0.999155 0.000000 -0.041107
vn -0.999155 0.000000 -0.041107
vn 0.000000 -1.000000 0.000000
vn 0.000000 -1.000000 0.000000
vn 0.000000 -1.000000 0.000000
vn 0.000000 -1.000000 0.000000
vn 0.000000 -1.000000 0.000000
vn 0.000000 -1.000000 0.000000
vn 0.000000 -1.000000 0.000000
vn 0.000000 -1.000000 0.000000
vn 0.000000 -1.000000 0.000000
vn 0.000000 -1.000000 0.000000
vn 0.000000 -1.000000 0.000000
vn 0.000000 -1.000000 0.000000
vn 0.000000 -1.000000 0.000000
vn 0.000000 -1.000000 0.000000
vn 0.000000 -1.000000 0.000000
vn 0.000000 -1.000000 0.000000
vn 0.000000 1.000000 0.000000
vn 0.000000 1.000000 0.000000
vn 0.000000 1.000000 0.000000
vn 0.000000 1.000000 0.000000
vn 0.000000 1.000000 0.000000
vn 0.000000 1.000000 0.000000
vn 0.000000 1.000000 0.000000
vn 0.000000 1.000000 0.000000
vn 0.000000 1.000000 0.000000
vn 0.000000 1.000000 0.000000
vn 0.000000 1.000000 0.000000
vn 0.000000 1.000000 0.000000
vn 0.000000 1.000000 0.000000
vn 0.000000 1.000000 0.000000
vn 0.000000 1.000000 0.000000
vn 0.000000 1.000000 0.000000
vn 0.287070 0.000000 0.957910
vn 0.287070 0.000000 0.957910
vn 0.287070 0.000000 0.957910
vn 0.287070 0.000000 0.957910
vn 0.000000 1.000000 0.000000
vn 0.000000 1.000000 0.000000
vn 0.000000 1.000000 0.000000
vn 0.000000 1.000000 0.000000
vn -0.287070 0.000000 -0.957910
vn -0.287070 0.000000 -0.957910
vn -0.287070 0.000000 -0.957910
vn -0.287070 0.000000 -0.957910
vn 0.000000 -1.000000 0.000000
vn 0.000000 -1.000000 0.000000
vn 0.000000 -1.000000 0.000000
vn 0.000000 -1.000000 0.000000
vn 0.957911 0.000000 -0.287066
vn 0.957911 0.000000 -0.287066
vn 0.957911 0.000000 -0.287066
vn 0.957911 0.000000 -0.287066
vn -0.957911 0.000000 0.287066
vn -0.957911 0.000000 0.287066
vn -0.957911 0.000000 0.287066
vn -0.957911 0.000000 0.287066
vn 0.957907 0.000000 -0.287078
vn 0.957907 0.000000 -0.287078
vn 0.957907 0.000000 -0.287078
vn 0.957907 0.000000 -0.287078
vn 0.287070 0.000000 0.957910
vn 0.287070 0.000000 0.957910
vn 0.287070 0.000000 0.957910
vn 0.287070 0.000000 0.957910
vn -0.957907 0.000000 0.287078
vn -0.957907 0.000000 0.287078
vn -0.957907 0.000000 0.287078
vn -0.957907 0.000000 0.287078
vn -0.287070 0.000000 -0.957910
vn -0.287070 0.000000 -0.957910
vn -0.287070 0.000000 -0.957910
vn -0.287070 0.000000 -0.957910
vn 0.287070 0.000000 0.957910
vn 0.287070 0.000000 0.957910
vn 0.287070 0.000000 0.957910
vn 0.287070 0.000000 0.957910
vn 0.957907 0.000000 -0.287078
vn 0.957907 0.000000 -0.287078
vn 0.957907 0.000000 -0.287078
vn 0.957907 0.000000 -0.287078
vn -0.287070 0.000000 -0.957910
vn -0.287070 0.000000 -0.957910
vn -0.287070 0.000000 -0.957910
vn -0.287070 0.000000 -0.957910
vn -0.957907 0.000000 0.287078
vn -0.957907 0.000000 0.287078
vn -0.957907 0.000000 0.287078
vn -0.957907 0.000000 0.287078
vn 0.000000 -1.000000 0.000000
vn 0.000000 -1.000000 0.000000
vn 0.000000 -1.000000 0.000000
vn 0.000000 -1.000000 0.000000
vn 0.000000 -1.000000 0.000000
vn 0.000000 -1.000000 0.000000
vn 0.000000 -1.000000 0.000000
vn 0.000000 -1.000000 0.000000
vn 0.000000 -1.000000 0.000000
vn 0.000000 -1.000000 0.000000
vn 0.000000 -1.000000 0.000000
vn 0.000000 -1.000000 0.000000
vn 0.000000 -1.000000 0.000000
vn 0.000000 -1.000000 0.000000
vn 0.000000 -1.000000 0.000000
vn 0.000000 -1.000000 0.000000
vn 0.000000 1.000000 0.000000
vn 0.000000 1.000000 0.000000
vn 0.000000 1.000000 0.000000
vn 0.000000 1.000000 0.000000
vn 0.000000 1.000000 0.000000
vn 0.000000 1.000000 0.000000
vn 0.000000 1.000000 0.000000
vn 0.000000 1.000000 0.000000
vn 0.000000 1.000000 0.000000
vn 0.000000 1.000000 0.000000
vn 0.000000 1.000000 0.000000
vn 0.000000 1.000000 0.000000
vn 0.000000 1.000000 0.000000
vn 0.000000 1.000000 0.000000
vn 0.000000 1.000000 0.000000
vn 0.000000 1.000000 0.000000
s off
f 17/41/1 18/42/2 21/49/3 22/50/4
f 3/3/5 4/21/6 6/6/7 5/17/8
f 19/43/9 20/44/10 23/53/11 24/54/12
f 7/7/13 8/16/14 2/10/15 1/9/16
f 20/45/17 17/46/18 22/51/19 23/52/20
f 18/47/21 19/48/22 24/55/23 21/56/24
f 10/28/25 9/26/26 6/12/27 4/4/28
f 11/30/29 10/27/30 4/20/31 3/23/32
f 12/31/33 11/29/34 3/24/35 5/14/36
f 5/5/37 6/15/38 9/25/39 12/32/40
f 1/22/41 2/2/42 14/35/43 13/34/44
f 2/19/45 8/11/46 15/38/47 14/36/48
f 16/40/49 15/37/50 8/8/51 7/18/52
f 7/13/53 1/1/54 13/33/55 16/39/56
f 10/57/57 11/87/58 18/81/59 17/60/60
f 12/61/61 9/85/62 20/78/63 19/64/64
f 9/62/65 10/88/66 17/82/67 20/63/68
f 11/58/69 12/86/70 19/75/71 18/59/72
f 13/65/73 14/83/74 22/79/75 21/68/76
f 14/66/77 15/80/78 23/76/79 22/67/80
f 15/69/81 16/77/82 24/73/83 23/70/84
f 16/71/85 13/84/86 21/74/87 24/72/88
f 41/89/89 42/90/90 45/91/91 46/92/92
f 27/93/93 28/94/94 30/95/95 29/96/96
f 43/97/97 44/98/98 47/99/99 48/100/100
f 31/101/101 32/102/102 26/103/103 25/104/104
f 44/105/105 41/106/106 46/107/107 47/108/108
f 42/109/109 43/110/110 48/111/111 45/112/112
f 34/113/113 33/114/114 30/115/115 28/116/116
f 35/117/117 34/118/118 28/119/119 27/120/120
f 36/121/121 35/122/122 27/123/123 29/124/124
f 29/125/125 30/126/126 33/127/127 36/128/128
f 25/129/129 26/130/130 38/131/131 37/132/132
f 26/133/133 32/134/134 39/135/135 38/136/136
f 40/137/137 39/138/138 32/139/139 31/140/140
f 31/141/141 25/142/142 37/143/143 40/144/144
f 34/145/145 35/146/146 42/147/147 41/148/148
f 36/149/149 33/150/150 44/151/151 43/152/152
f 33/153/153 34/154/154 41/155/155 44/156/156
f 35/157/157 36/158/158 43/159/159 42/160/160
f 37/161/161 38/162/162 46/163/163 45/164/164
f 38/165/165 39/166/166 47/167/167 46/168/168
f 39/169/169 40/170/170 48/171/171 47/172/172
f 40/173/173 37/174/174 45/175/175 48/176/176
f 65/177/177 66/178/178 69/179/179 70/180/180
f 51/181/181 52/182/182 54/183/183 53/184/184
f 67/185/185 68/186/186 71/187/187 72/188/188
f 55/189/189 56/190/190 50/191/191 49/192/192
f 68/193/193 65/194/194 70/195/195 71/196/196
f 66/197/197 67/198/198 72/199/199 69/200/200
f 58/201/201 57/202/202 54/203/203 52/204/204
f 59/205/205 58/206/206 52/207/207 51/208/208
f 60/209/209 59/210/210 51/211/211 53/212/212
f 53/213/213 54/214/214 57/215/215 60/216/216
f 49/217/217 50/218/218 62/219/219 61/220/220
f 50/221/221 56/222/222 63/223/223 62/224/224
f 64/225/225 63/226/226 56/227/227 55/228/228
f 55/229/229 49/230/230 61/231/231 64/232/232
f 58/233/233 59/234/234 66/235/235 65/236/236
f 60/237/237 57/238/238 68/239/239 67/240/240
f 57/241/241 58/242/242 65/243/243 68/244/244
f 59/245/245 60/246/246 67/247/247 66/248/248
f 61/249/249 62/250/250 70/251/251 69/252/252
f 62/253/253 63/254/254 71/255/255 70/256/256
f 63/257/257 64/258/258 72/259/259 71/260/260
f 64/261/261 61/262/262 69/263/263 72/264/264
f 89/265/265 90/266/266 93/267/267 94/268/268
f 75/269/269 76/270/270 78/271/271 77/272/272
f 91/273/273 92/274/274 95/275/275 96/276/276
f 79/277/277 80/278/278 74/279/279 73/280/280
f 92/281/281 89/282/282 94/283/283 95/284/284
f 90/285/285 91/286/286 96/287/287 93/288/288
f 82/289/289 81/290/290 78/291/291 76/292/292
f 83/293/293 82/294/294 76/295/295 75/296/296
f 84/297/297 83/298/298 75/299/299 77/300/300
f 77/301/301 78/302/302 81/303/303 84/304/304
f 73/305/305 74/306/306 86/307/307 85/308/308
f 74/309/309 80/310/310 87/311/311 86/312/312
f 88/313/313 87/314/314 80/315/315 79/316/316
f 79/317/317 73/318/318 85/319/319 88/320/320
f 82/321/321 83/322/322 90/323/323 89/324/324
f 84/325/325 81/326/326 92/327/327 91/328/328
f 81/329/329 82/330/330 89/331/331 92/332/332
f 83/333/333 84/334/334 91/335/335 90/336/336
f 85/337/337 86/338/338 94/339/339 93/340/340
f 86/341/341 87/342/342 95/343/343 94/344/344
f 87/345/345 88/346/346 96/347/347 95/348/348
f 88/349/349 85/350/350 93/351/351 96/352/352
