# This file uses meters as units for non-parametric coordinates.

v -2.383587 0.000000 0.500000
v 2.383579 0.000000 0.500000
v -2.383640 0.755983 0.500000
v 2.383633 0.755983 0.500000
v -2.383640 0.755983 -0.500000
v 2.383633 0.755983 -0.500000
v -2.383587 0.000000 -0.500000
v 2.383579 0.000000 -0.500000
v -2.243595 0.755983 0.371758
v 2.243591 0.755983 0.371758
v 2.243591 0.755983 -0.371758
v -2.243595 0.755983 -0.371758
v -2.243595 1.396550 0.371758
v 2.243591 1.396550 0.371758
v 2.243591 1.396550 -0.371758
v -2.243595 1.396550 -0.371758
vt 0.175615 0.062376
vt 0.205389 0.062376
vt 0.235846 0.062376
vt 0.175615 0.062376
vt 0.205389 0.062376
vt 0.235846 0.062376
vt 0.142024 0.062376
vt 0.205389 0.062376
vt 0.142024 0.062376
vt 0.142024 0.062376
vt 0.175615 0.062376
vt 0.175615 0.062376
vt 0.175615 0.062376
vt 0.175615 0.062376
vt 0.205389 0.062376
vt 0.142024 0.062376
vt 0.235846 0.062376
vt 0.205389 0.062376
vt 0.175615 0.062376
vt 0.205389 0.062376
vt 0.235846 0.062376
vt 0.205389 0.062376
vt 0.205389 0.062376
vt 0.175615 0.062376
vt 0.205935 0.152502
vt 0.170669 0.152502
vt 0.205935 0.152502
vt 0.170669 0.152502
vt 0.235977 0.152502
vt 0.170669 0.152502
vt 0.205935 0.152502
vt 0.170669 0.152502
vt 0.170669 0.152502
vt 0.205935 0.152502
vt 0.235846 0.062376
vt 0.205935 0.152502
vt 0.170669 0.152502
vt 0.170669 0.152502
vt 0.235846 0.062376
vt 0.170669 0.152502
vt 0.235977 0.152502
vt 0.235977 0.152502
vt 0.205935 0.152502
vt 0.235846 0.062376
vt 0.205935 0.152502
vt 0.235977 0.152502
vt 0.205935 0.152502
vt 0.235846 0.062376
vn 0.000000 0.000000 1.000000
vn 0.000000 0.000000 1.000000
vn 0.000000 0.000000 1.000000
vn 0.000000 0.000000 1.000000
vn 0.000000 1.000000 0.000000
vn 0.000000 1.000000 0.000000
vn 0.000000 1.000000 0.000000
vn 0.000000 1.000000 0.000000
vn 0.000000 0.000000 -1.000000
vn 0.000000 0.000000 -1.000000
vn 0.000000 0.000000 -1.000000
vn 0.000000 0.000000 -1.000000
vn 0.000000 -1.000000 0.000000
vn 0.000000 -1.000000 0.000000
vn 0.000000 -1.000000 0.000000
vn 0.000000 -1.000000 0.000000
vn 1.000000 -0.000071 0.000000
vn 1.000000 -0.000071 0.000000
vn 1.000000 -0.000071 0.000000
vn 1.000000 -0.000071 0.000000
vn -1.000000 -0.000071 0.000000
vn -1.000000 -0.000071 0.000000
vn -1.000000 -0.000071 0.000000
vn -1.000000 -0.000071 0.000000
vn 0.000000 1.000000 0.000000
vn 0.000000 1.000000 0.000000
vn 0.000000 1.000000 0.000000
vn 0.000000 1.000000 0.000000
vn 0.000000 1.000000 0.000000
vn 0.000000 1.000000 0.000000
vn 0.000000 1.000000 0.000000
vn 0.000000 1.000000 0.000000
vn 0.000000 1.000000 -0.000000
vn 0.000000 1.000000 -0.000000
vn 0.000000 1.000000 -0.000000
vn 0.000000 1.000000 -0.000000
vn 0.000000 1.000000 0.000000
vn 0.000000 1.000000 0.000000
vn 0.000000 1.000000 0.000000
vn 0.000000 1.000000 0.000000
vn 0.000000 0.000000 1.000000
vn 0.000000 0.000000 1.000000
vn 0.000000 0.000000 1.000000
vn 0.000000 0.000000 1.000000
vn 1.000000 0.000000 0.000000
vn 1.000000 0.000000 0.000000
vn 1.000000 0.000000 0.000000
vn 1.000000 0.000000 0.000000
vn 0.000000 0.000000 -1.000000
vn 0.000000 0.000000 -1.000000
vn 0.000000 0.000000 -1.000000
vn 0.000000 0.000000 -1.000000
vn -1.000000 0.000000 0.000000
vn -1.000000 0.000000 0.000000
vn -1.000000 0.000000 0.000000
vn -1.000000 0.000000 0.000000
s off
f 1/22/1 2/2/2 4/20/3 3/23/4
f 13/29/5 14/46/6 15/42/7 16/41/8
f 5/5/9 6/15/10 8/8/11 7/18/12
f 7/7/13 8/16/14 2/10/15 1/9/16
f 2/19/17 8/11/18 6/12/19 4/4/20
f 7/13/21 1/1/22 3/24/23 5/14/24
f 3/3/25 4/21/26 10/39/27 9/48/28
f 4/21/29 6/6/30 11/44/31 10/39/32
f 6/6/33 5/17/34 12/35/35 11/44/36
f 5/17/37 3/3/38 9/48/39 12/35/40
f 9/25/41 10/47/42 14/36/43 13/45/44
f 10/26/45 11/38/46 15/37/47 14/30/48
f 11/27/49 12/43/50 16/34/51 15/31/52
f 12/28/53 9/40/54 13/33/55 16/32/56
