# This file uses meters as units for non-parametric coordinates.

v -1.462486 0.000000 -0.225748
v -1.462486 0.000000 0.225748
v -1.060448 1.820782 -0.225748
v -1.060448 1.820782 0.225748
v -0.629799 1.820782 -0.225748
v -0.629799 1.820782 0.225748
v -0.227760 0.000000 -0.225748
v -0.227760 0.000000 0.225748
v -0.637245 0.000000 0.225748
v -1.067619 0.000000 0.225748
v -0.841927 1.233162 0.225748
v -0.954765 0.616581 0.225748
v -0.739586 0.616581 0.225748
v -1.011177 0.308290 0.225748
v -0.688423 0.308290 0.225748
v -0.637245 0.000000 -0.225748
v -1.067619 0.000000 -0.225748
v -0.841927 1.233162 -0.225744
v -0.954765 0.616581 -0.225748
v -0.739586 0.616581 -0.225748
v -1.011177 0.308290 -0.225748
v -0.688423 0.308290 -0.225748
v -2.684090 0.000000 0.225748
v -2.684090 1.831900 0.225748
v -1.575645 1.598530 0.225748
v -1.575645 0.233370 0.225748
v -1.893959 1.831900 0.225748
v -1.893959 0.000000 0.225748
v -1.575645 1.127892 0.225748
v -1.764778 0.915949 0.225748
v -1.575645 0.722479 0.225748
v -2.267738 1.503038 0.225748
v -2.267738 1.063765 0.225748
v -2.021629 1.503038 0.225748
v -2.021629 1.063765 0.225748
v -2.267738 0.779528 0.225748
v -2.267738 0.372551 0.225748
v -2.021629 0.779528 0.225748
v -2.021629 0.372551 0.225748
v -2.021629 1.503038 -0.225748
v -1.575645 1.598530 -0.225748
v -1.893959 1.831900 -0.225748
v -2.684090 1.831900 -0.225748
v -2.267738 1.503038 -0.225748
v -2.267738 0.372551 -0.225748
v -2.684090 0.000000 -0.225748
v -2.267738 0.779528 -0.225748
v -2.267738 1.063765 -0.225748
v -2.021629 1.063765 -0.225748
v -1.764778 0.915949 -0.225748
v -1.575645 1.127892 -0.225748
v -2.021629 0.779528 -0.225748
v -1.575645 0.722479 -0.225748
v -1.575645 0.233370 -0.225748
v -2.021629 0.372551 -0.225748
v -1.893959 0.000000 -0.225748
v -0.055702 0.000000 0.225748
v -0.055702 1.850008 0.225748
v 1.185555 1.850008 0.225748
v 1.185555 0.000000 0.225748
v 0.353294 1.850008 0.225748
v 0.353294 0.000000 0.225748
v 0.777626 1.850008 0.225748
v 0.777626 0.000000 0.225748
v 0.777626 0.906685 0.225748
v 0.353294 0.889006 0.225748
v 0.777626 1.850008 -0.225748
v 0.777626 0.906685 -0.225748
v 0.777626 0.000000 -0.225748
v 1.185555 0.000000 -0.225748
v 1.185555 1.850008 -0.225748
v 0.353294 0.000000 -0.225748
v -0.055702 0.000000 -0.225748
v 0.353294 0.889006 -0.225748
v 0.353294 1.850008 -0.225748
v -0.055702 1.850008 -0.225748
v 1.470711 0.000000 0.225748
v 1.470711 1.850008 0.225748
v 2.684090 1.850008 0.225748
v 2.684090 0.000000 0.225748
v 1.878822 1.850008 0.225748
v 1.878822 0.000000 0.225748
v 2.150185 1.850008 0.225748
v 2.150185 0.000000 0.225748
v 1.878822 1.083242 0.225748
v 1.878822 0.734249 0.225748
v 2.150185 1.850008 -0.225748
v 1.878822 1.083242 -0.225748
v 1.878822 0.734249 -0.225748
v 2.150185 0.000000 -0.225748
v 2.684090 0.000000 -0.225748
v 2.684090 1.850008 -0.225748
v 1.878822 0.000000 -0.225748
v 1.470711 0.000000 -0.225748
v 1.878822 1.850008 -0.225748
v 1.470711 1.850008 -0.225748
v 2.204857 0.925003 0.225748
v 2.204857 0.925003 -0.225748
vt 0.234669 0.060348
vt 0.234669 0.060348
vt 0.234669 0.060348
vt 0.234669 0.060348
vt 0.330056 0.060349
vt 0.330056 0.060349
vt 0.330056 0.060349
vt 0.330056 0.060349
vt 0.234669 0.060348
vt 0.234669 0.060348
vt 0.234669 0.060348
vt 0.234669 0.060348
vt 0.265694 0.060349
vt 0.265694 0.060349
vt 0.265694 0.060349
vt 0.265694 0.060349
vt 0.265694 0.060349
vt 0.265694 0.060349
vt 0.265694 0.060349
vt 0.265694 0.060349
vt 0.265694 0.060349
vt 0.265694 0.060349
vt 0.265694 0.060349
vt 0.265694 0.060349
vt 0.265694 0.060349
vt 0.265694 0.060349
vt 0.265694 0.060349
vt 0.265694 0.060349
vt 0.265694 0.060349
vt 0.265694 0.060349
vt 0.265694 0.060349
vt 0.233488 0.060351
vt 0.233488 0.060351
vt 0.233488 0.060351
vt 0.233488 0.060351
vt 0.233488 0.060351
vt 0.233488 0.060351
vt 0.233488 0.060351
vt 0.233488 0.060351
vt 0.233488 0.060351
vt 0.233488 0.060351
vt 0.233488 0.060351
vt 0.233488 0.060351
vt 0.174102 0.063905
vt 0.174102 0.063905
vt 0.174102 0.063905
vt 0.174102 0.063905
vt 0.233488 0.060351
vt 0.233488 0.060351
vt 0.233488 0.060351
vt 0.233488 0.060351
vt 0.329924 0.060347
vt 0.329924 0.060347
vt 0.329924 0.060347
vt 0.329924 0.060347
vt 0.175285 0.063899
vt 0.175285 0.063899
vt 0.175285 0.063899
vt 0.175285 0.063899
vt 0.175285 0.063899
vt 0.175285 0.063899
vt 0.175285 0.063899
vt 0.175285 0.063899
vt 0.266905 0.060357
vt 0.266905 0.060357
vt 0.266905 0.060357
vt 0.266905 0.060357
vt 0.266905 0.060357
vt 0.266905 0.060357
vt 0.266905 0.060357
vt 0.266905 0.060357
vt 0.266905 0.060357
vt 0.266905 0.060357
vt 0.266905 0.060357
vt 0.266905 0.060357
vt 0.266905 0.060357
vt 0.266905 0.060357
vt 0.266905 0.060357
vt 0.266905 0.060357
vt 0.266905 0.060357
vt 0.266905 0.060357
vt 0.266905 0.060357
vt 0.266905 0.060357
vt 0.266905 0.060357
vt 0.266905 0.060357
vt 0.266905 0.060357
vt 0.266905 0.060357
vt 0.266905 0.060357
vt 0.266905 0.060357
vt 0.266905 0.060357
vt 0.266905 0.060357
vt 0.266905 0.060357
vt 0.266905 0.060357
vt 0.266905 0.060357
vt 0.334428 0.060342
vt 0.334428 0.060342
vt 0.334428 0.060342
vt 0.334428 0.060342
vt 0.334428 0.060342
vt 0.334428 0.060342
vt 0.334428 0.060342
vt 0.334428 0.060342
vt 0.172793 0.063910
vt 0.172793 0.063910
vt 0.172793 0.063910
vt 0.172793 0.063910
vt 0.238542 0.060355
vt 0.238542 0.060355
vt 0.238542 0.060355
vt 0.238542 0.060355
vt 0.238542 0.060355
vt 0.238542 0.060355
vt 0.238542 0.060355
vt 0.238542 0.060355
vt 0.238542 0.060355
vt 0.238542 0.060355
vt 0.238542 0.060355
vt 0.238542 0.060355
vt 0.172793 0.063910
vt 0.172793 0.063910
vt 0.172793 0.063910
vt 0.172793 0.063910
vt 0.238542 0.060355
vt 0.238542 0.060355
vt 0.238542 0.060355
vt 0.238542 0.060355
vt 0.238542 0.060355
vt 0.238542 0.060355
vt 0.238542 0.060355
vt 0.238542 0.060355
vt 0.334428 0.060342
vt 0.334428 0.060342
vt 0.334428 0.060342
vt 0.334428 0.060342
vt 0.172793 0.063910
vt 0.172793 0.063910
vt 0.172793 0.063910
vt 0.172793 0.063910
vt 0.238542 0.060355
vt 0.238542 0.060355
vt 0.238542 0.060355
vt 0.238542 0.060355
vt 0.334428 0.060342
vt 0.334428 0.060342
vt 0.334428 0.060342
vt 0.334428 0.060342
vt 0.238542 0.060355
vt 0.238542 0.060355
vt 0.238542 0.060355
vt 0.238542 0.060355
vt 0.334428 0.060342
vt 0.334428 0.060342
vt 0.334428 0.060342
vt 0.334428 0.060342
vt 0.172793 0.063910
vt 0.172793 0.063910
vt 0.172793 0.063910
vt 0.172793 0.063910
vt 0.172793 0.063910
vt 0.172793 0.063910
vt 0.172793 0.063910
vt 0.172793 0.063910
vt 0.267528 0.060355
vt 0.267528 0.060355
vt 0.267528 0.060355
vt 0.267528 0.060355
vt 0.267528 0.060355
vt 0.267528 0.060355
vt 0.267528 0.060355
vt 0.267528 0.060355
vt 0.267528 0.060355
vt 0.267528 0.060355
vt 0.267528 0.060355
vt 0.267528 0.060355
vt 0.267528 0.060355
vt 0.267528 0.060355
vt 0.232931 0.060347
vt 0.232931 0.060347
vt 0.232931 0.060347
vt 0.232931 0.060347
vt 0.173417 0.063897
vt 0.173417 0.063897
vt 0.173417 0.063897
vt 0.173417 0.063897
vt 0.232931 0.060347
vt 0.232931 0.060347
vt 0.232931 0.060347
vt 0.232931 0.060347
vt 0.325390 0.060329
vt 0.325390 0.060329
vt 0.325390 0.060329
vt 0.325390 0.060329
vt 0.173417 0.063897
vt 0.173417 0.063897
vt 0.173417 0.063897
vt 0.173417 0.063897
vt 0.232931 0.060347
vt 0.232931 0.060347
vt 0.232931 0.060347
vt 0.232931 0.060347
vt 0.325390 0.060329
vt 0.325390 0.060329
vt 0.325390 0.060329
vt 0.325390 0.060329
vt 0.232931 0.060347
vt 0.232931 0.060347
vt 0.232931 0.060347
vt 0.232931 0.060347
vt 0.173417 0.063897
vt 0.173417 0.063897
vt 0.173417 0.063897
vt 0.173417 0.063897
vt 0.241658 0.060352
vt 0.241658 0.060352
vt 0.241658 0.060352
vt 0.241658 0.060352
vt 0.265658 0.060362
vt 0.265658 0.060362
vt 0.265658 0.060362
vt 0.265658 0.060362
vt 0.265658 0.060362
vt 0.265658 0.060362
vt 0.265658 0.060362
vt 0.265658 0.060362
vt 0.265658 0.060362
vt 0.265658 0.060362
vt 0.235425 0.060355
vt 0.235425 0.060355
vt 0.235425 0.060355
vt 0.235425 0.060355
vt 0.235425 0.060355
vt 0.235425 0.060355
vt 0.235425 0.060355
vt 0.235425 0.060355
vt 0.174663 0.063890
vt 0.174663 0.063890
vt 0.174663 0.063890
vt 0.174663 0.063890
vt 0.328195 0.060365
vt 0.328195 0.060365
vt 0.328195 0.060365
vt 0.328195 0.060365
vt 0.325390 0.060344
vt 0.325390 0.060344
vt 0.325390 0.060344
vt 0.325390 0.060344
vt 0.174663 0.063890
vt 0.174663 0.063890
vt 0.174663 0.063890
vt 0.174663 0.063890
vt 0.235425 0.060355
vt 0.235425 0.060355
vt 0.235425 0.060355
vt 0.235425 0.060355
vt 0.235425 0.060355
vt 0.235425 0.060355
vt 0.235425 0.060355
vt 0.235425 0.060355
vt 0.325390 0.060344
vt 0.325390 0.060344
vt 0.325390 0.060344
vt 0.325390 0.060344
vt 0.235425 0.060355
vt 0.235425 0.060355
vt 0.235425 0.060355
vt 0.235425 0.060355
vt 0.171235 0.063915
vt 0.171235 0.063915
vt 0.171235 0.063915
vt 0.171235 0.063915
vt 0.265658 0.060362
vt 0.265658 0.060362
vt 0.265658 0.060362
vt 0.265658 0.060362
vt 0.265658 0.060362
vt 0.265658 0.060362
vt 0.265658 0.060362
vn -0.976481 0.215605 0.000000
vn -0.976481 0.215605 0.000000
vn -0.976481 0.215605 0.000000
vn -0.976481 0.215605 0.000000
vn 0.000000 1.000000 0.000000
vn 0.000000 1.000000 0.000000
vn 0.000000 1.000000 0.000000
vn 0.000000 1.000000 0.000000
vn 0.976481 0.215605 0.000000
vn 0.976481 0.215605 0.000000
vn 0.976481 0.215605 0.000000
vn 0.976481 0.215605 0.000000
vn 0.000000 0.000000 1.000000
vn 0.000000 0.000000 1.000000
vn 0.000000 0.000000 1.000000
vn 0.000000 0.000000 1.000000
vn 0.000000 0.000000 1.000000
vn 0.000000 0.000000 1.000000
vn 0.000000 0.000000 1.000000
vn 0.000000 0.000000 1.000000
vn 0.000000 0.000000 1.000000
vn 0.000000 0.000000 1.000000
vn 0.000000 0.000000 1.000000
vn 0.000000 0.000000 1.000000
vn 0.000000 0.000000 1.000000
vn 0.000000 0.000000 1.000000
vn 0.000000 0.000000 1.000000
vn 0.000000 0.000000 1.000000
vn 0.000000 0.000000 1.000000
vn 0.000000 0.000000 1.000000
vn 0.000000 0.000000 1.000000
vn -0.986503 -0.163743 0.000000
vn -0.986503 -0.163743 0.000000
vn -0.986503 -0.163743 0.000000
vn -0.986503 -0.163743 0.000000
vn 0.983663 -0.180018 0.000000
vn 0.983663 -0.180018 0.000000
vn 0.983663 -0.180018 0.000000
vn 0.983663 -0.180018 0.000000
vn -0.986503 -0.163742 -0.000000
vn -0.986503 -0.163742 -0.000000
vn -0.986503 -0.163742 -0.000000
vn -0.986503 -0.163742 -0.000000
vn -0.000000 -1.000000 -0.000001
vn -0.000000 -1.000000 -0.000001
vn -0.000000 -1.000000 -0.000001
vn -0.000000 -1.000000 -0.000001
vn 0.983663 -0.180020 0.000000
vn 0.983663 -0.180020 0.000000
vn 0.983663 -0.180020 0.000000
vn 0.983663 -0.180020 0.000000
vn 0.000000 1.000000 0.000000
vn 0.000000 1.000000 0.000000
vn 0.000000 1.000000 0.000000
vn 0.000000 1.000000 0.000000
vn 0.000000 -1.000000 0.000000
vn 0.000000 -1.000000 0.000000
vn 0.000000 -1.000000 0.000000
vn 0.000000 -1.000000 0.000000
vn 0.000000 -1.000000 -0.000001
vn 0.000000 -1.000000 -0.000001
vn 0.000000 -1.000000 -0.000001
vn 0.000000 -1.000000 -0.000001
vn 0.000000 0.000000 1.000000
vn 0.000000 0.000000 1.000000
vn 0.000000 0.000000 1.000000
vn 0.000000 0.000000 1.000000
vn 0.000000 0.000000 1.000000
vn 0.000000 0.000000 1.000000
vn 0.000000 0.000000 1.000000
vn 0.000000 0.000000 1.000000
vn 0.000000 0.000000 1.000000
vn 0.000000 0.000000 1.000000
vn 0.000000 0.000000 1.000000
vn 0.000000 0.000000 1.000000
vn 0.000000 0.000000 1.000000
vn 0.000000 0.000000 1.000000
vn 0.000000 0.000000 1.000000
vn 0.000000 0.000000 1.000000
vn 0.000000 0.000000 1.000000
vn 0.000000 0.000000 1.000000
vn 0.000000 0.000000 1.000000
vn 0.000000 0.000000 1.000000
vn 0.000000 0.000000 1.000000
vn -0.000000 0.000000 1.000000
vn -0.000000 0.000000 1.000000
vn -0.000000 0.000000 1.000000
vn -0.000000 0.000000 1.000000
vn -0.000000 0.000000 1.000000
vn -0.000000 0.000000 1.000000
vn -0.000000 0.000000 1.000000
vn -0.000000 0.000000 1.000000
vn -0.000000 0.000000 1.000000
vn -0.000000 0.000000 1.000000
vn 0.591264 0.806478 0.000000
vn 0.591264 0.806478 0.000000
vn 0.591264 0.806478 0.000000
vn 0.591264 0.806478 0.000000
vn 0.000001 1.000000 0.000000
vn 0.000001 1.000000 0.000000
vn 0.000001 1.000000 0.000000
vn 0.000001 1.000000 0.000000
vn 0.000000 -1.000000 0.000000
vn 0.000000 -1.000000 0.000000
vn 0.000000 -1.000000 0.000000
vn 0.000000 -1.000000 0.000000
vn 1.000000 0.000000 0.000000
vn 1.000000 0.000000 0.000000
vn 1.000000 0.000000 0.000000
vn 1.000000 0.000000 0.000000
vn 1.000000 0.000000 0.000000
vn 1.000000 0.000000 0.000000
vn 1.000000 0.000000 0.000000
vn 1.000000 0.000000 0.000000
vn -1.000000 0.000000 0.000000
vn -1.000000 0.000000 0.000000
vn -1.000000 0.000000 0.000000
vn -1.000000 0.000000 0.000000
vn 0.746135 -0.665794 0.000000
vn 0.746135 -0.665794 0.000000
vn 0.746135 -0.665794 0.000000
vn 0.746135 -0.665794 0.000000
vn 1.000000 0.000000 0.000000
vn 1.000000 0.000000 0.000000
vn 1.000000 0.000000 0.000000
vn 1.000000 0.000000 0.000000
vn -1.000000 0.000000 0.000000
vn -1.000000 0.000000 0.000000
vn -1.000000 0.000000 0.000000
vn -1.000000 0.000000 0.000000
vn 0.000000 1.000000 0.000000
vn 0.000000 1.000000 0.000000
vn 0.000000 1.000000 0.000000
vn 0.000000 1.000000 0.000000
vn 0.000000 -1.000000 0.000000
vn 0.000000 -1.000000 0.000000
vn 0.000000 -1.000000 0.000000
vn 0.000000 -1.000000 0.000000
vn 1.000000 0.000000 0.000000
vn 1.000000 0.000000 0.000000
vn 1.000000 0.000000 0.000000
vn 1.000000 0.000000 0.000000
vn 0.715099 0.699023 0.000000
vn 0.715099 0.699023 0.000000
vn 0.715099 0.699023 0.000000
vn 0.715099 0.699023 0.000000
vn -1.000000 0.000000 0.000000
vn -1.000000 0.000000 0.000000
vn -1.000000 0.000000 0.000000
vn -1.000000 0.000000 0.000000
vn 0.000000 1.000000 0.000000
vn 0.000000 1.000000 0.000000
vn 0.000000 1.000000 0.000000
vn 0.000000 1.000000 0.000000
vn 0.000000 -1.000000 0.000000
vn 0.000000 -1.000000 0.000000
vn 0.000000 -1.000000 0.000000
vn 0.000000 -1.000000 0.000000
vn 0.591264 -0.806478 0.000000
vn 0.591264 -0.806478 0.000000
vn 0.591264 -0.806478 0.000000
vn 0.591264 -0.806478 0.000000
vn 0.000000 0.000000 1.000000
vn 0.000000 0.000000 1.000000
vn 0.000000 0.000000 1.000000
vn 0.000000 0.000000 1.000000
vn 0.000000 0.000000 1.000000
vn 0.000000 0.000000 1.000000
vn 0.000000 0.000000 1.000000
vn 0.000000 0.000000 1.000000
vn 0.000000 0.000000 1.000000
vn 0.000000 0.000000 1.000000
vn 0.000000 0.000000 1.000000
vn 0.000000 0.000000 1.000000
vn 0.000000 0.000000 1.000000
vn 0.000000 0.000000 1.000000
vn -1.000000 0.000000 0.000000
vn -1.000000 0.000000 0.000000
vn -1.000000 0.000000 0.000000
vn -1.000000 0.000000 0.000000
vn 0.000000 -1.000000 0.000000
vn 0.000000 -1.000000 0.000000
vn 0.000000 -1.000000 0.000000
vn 0.000000 -1.000000 0.000000
vn 1.000000 0.000000 0.000000
vn 1.000000 0.000000 0.000000
vn 1.000000 0.000000 0.000000
vn 1.000000 0.000000 0.000000
vn 0.000000 1.000000 0.000000
vn 0.000000 1.000000 0.000000
vn 0.000000 1.000000 0.000000
vn 0.000000 1.000000 0.000000
vn 0.000000 -1.000000 0.000000
vn 0.000000 -1.000000 0.000000
vn 0.000000 -1.000000 0.000000
vn 0.000000 -1.000000 0.000000
vn 1.000000 0.000000 0.000000
vn 1.000000 0.000000 0.000000
vn 1.000000 0.000000 0.000000
vn 1.000000 0.000000 0.000000
vn 0.000000 1.000000 0.000000
vn 0.000000 1.000000 0.000000
vn 0.000000 1.000000 0.000000
vn 0.000000 1.000000 0.000000
vn -1.000000 0.000000 0.000000
vn -1.000000 0.000000 0.000000
vn -1.000000 0.000000 0.000000
vn -1.000000 0.000000 0.000000
vn -0.902468 -0.430758 0.000000
vn -0.902468 -0.430758 0.000000
vn -0.902468 -0.430758 0.000000
vn -0.902468 -0.430758 0.000000
vn 0.911980 0.410235 0.000000
vn 0.911980 0.410235 0.000000
vn 0.911980 0.410235 0.000000
vn 0.911980 0.410235 0.000000
vn 0.000000 0.000000 1.000000
vn 0.000000 0.000000 1.000000
vn 0.000000 0.000000 1.000000
vn 0.000000 0.000000 1.000000
vn 0.000000 0.000000 1.000000
vn 0.000000 0.000000 1.000000
vn 0.000000 0.000000 1.000000
vn 0.000000 0.000000 1.000000
vn 0.000000 0.000000 1.000000
vn 0.000000 0.000000 1.000000
vn -0.942704 0.333632 0.000000
vn -0.942704 0.333632 0.000000
vn -0.942704 0.333632 0.000000
vn -0.942704 0.333632 0.000000
vn -0.937990 -0.346663 0.000000
vn -0.937990 -0.346663 0.000000
vn -0.937990 -0.346663 0.000000
vn -0.937990 -0.346663 0.000000
vn 0.000000 -1.000000 0.000000
vn 0.000000 -1.000000 0.000000
vn 0.000000 -1.000000 0.000000
vn 0.000000 -1.000000 0.000000
vn 0.887907 0.460022 0.000000
vn 0.887907 0.460022 0.000000
vn 0.887907 0.460022 0.000000
vn 0.887907 0.460022 0.000000
vn 0.000000 1.000000 0.000000
vn 0.000000 1.000000 0.000000
vn 0.000000 1.000000 0.000000
vn 0.000000 1.000000 0.000000
vn 0.000000 -1.000000 0.000000
vn 0.000000 -1.000000 0.000000
vn 0.000000 -1.000000 0.000000
vn 0.000000 -1.000000 0.000000
vn 1.000000 0.000000 0.000000
vn 1.000000 0.000000 0.000000
vn 1.000000 0.000000 0.000000
vn 1.000000 0.000000 0.000000
vn 1.000000 0.000000 0.000000
vn 1.000000 0.000000 0.000000
vn 1.000000 0.000000 0.000000
vn 1.000000 0.000000 0.000000
vn 0.000000 1.000000 0.000000
vn 0.000000 1.000000 0.000000
vn 0.000000 1.000000 0.000000
vn 0.000000 1.000000 0.000000
vn -1.000000 0.000000 0.000000
vn -1.000000 0.000000 0.000000
vn -1.000000 0.000000 0.000000
vn -1.000000 0.000000 0.000000
vn 0.887908 -0.460022 0.000000
vn 0.887908 -0.460022 0.000000
vn 0.887908 -0.460022 0.000000
vn 0.887908 -0.460022 0.000000
vn 0.000000 0.000000 1.000000
vn 0.000000 0.000000 1.000000
vn 0.000000 0.000000 1.000000
vn -0.000000 0.000000 1.000000
vn -0.000000 0.000000 1.000000
vn -0.000000 0.000000 1.000000
vn -0.000000 0.000000 1.000000
s off
f 1/1/1 2/2/2 4/3/3 3/4/4
f 3/5/5 4/6/6 6/7/7 5/8/8
f 5/9/9 6/10/10 8/11/11 7/12/12
f 2/13/13 10/14/14 14/15/15 12/16/16 11/17/17 4/18/18
f 14/19/19 15/20/20 13/21/21 12/22/22
f 4/23/23 11/24/24 6/25/25
f 6/26/26 11/27/27 13/28/28 15/29/29 9/30/30 8/31/31
f 13/32/32 11/33/33 18/34/34 20/35/35
f 11/36/36 12/37/37 19/38/38 18/39/39
f 16/40/40 9/41/41 15/42/42 22/43/43
f 15/44/44 14/45/45 21/46/46 22/47/47
f 14/48/48 10/49/49 17/50/50 21/51/51
f 13/52/52 20/53/53 19/54/54 12/55/55
f 2/56/56 1/57/57 17/58/58 10/59/59
f 8/60/60 9/61/61 16/62/62 7/63/63
f 34/64/64 25/65/65 27/66/66 24/67/67 32/68/68
f 23/69/69 37/70/70 36/71/71 33/72/72 32/73/73 24/74/74
f 35/75/75 30/76/76 29/77/77 25/78/78 34/79/79
f 38/80/80 30/81/81 35/82/82 33/83/83 36/84/84
f 26/85/85 31/86/86 30/87/87 38/88/88 39/89/89
f 26/90/90 39/91/91 37/92/92 23/93/93 28/94/94
f 25/95/95 41/96/96 42/97/97 27/98/98
f 27/99/99 42/100/100 43/101/101 24/102/102
f 32/103/103 44/104/104 40/105/105 34/106/106
f 37/107/107 45/108/108 47/109/109 36/110/110
f 33/111/111 48/112/112 44/113/113 32/114/114
f 24/115/115 43/116/116 46/117/117 23/118/118
f 30/119/119 50/120/120 51/121/121 29/122/122
f 29/123/123 51/124/124 41/125/125 25/126/126
f 34/127/127 40/128/128 49/129/129 35/130/130
f 35/131/131 49/132/132 48/133/133 33/134/134
f 36/135/135 47/136/136 52/137/137 38/138/138
f 26/139/139 54/140/140 53/141/141 31/142/142
f 31/143/143 53/144/144 50/145/145 30/146/146
f 38/147/147 52/148/148 55/149/149 39/150/150
f 39/151/151 55/152/152 45/153/153 37/154/154
f 23/155/155 46/156/156 56/157/157 28/158/158
f 28/159/159 56/160/160 54/161/161 26/162/162
f 63/163/163 65/164/164 64/165/165 60/166/166 59/167/167
f 57/168/168 62/169/169 66/170/170 61/171/171 58/172/172
f 61/173/173 66/174/174 64/175/175 65/176/176
f 63/177/177 67/178/178 68/179/179 65/180/180
f 64/181/181 69/182/182 70/183/183 60/184/184
f 60/185/185 70/186/186 71/187/187 59/188/188
f 59/189/189 71/190/190 67/191/191 63/192/192
f 57/193/193 73/194/194 72/195/195 62/196/196
f 62/197/197 72/198/198 74/199/199 66/200/200
f 61/201/201 75/202/202 76/203/203 58/204/204
f 58/205/205 76/206/206 73/207/207 57/208/208
f 66/209/209 74/210/210 69/211/211 64/212/212
f 65/213/213 68/214/214 75/215/215 61/216/216
f 83/217/217 85/218/218 97/219/219 79/220/220
f 77/221/221 82/222/222 86/223/223 85/224/224 81/225/225 78/226/226
f 83/227/227 87/228/228 88/229/229 85/230/230
f 86/231/231 89/232/232 90/233/233 84/234/234
f 84/235/235 90/236/236 91/237/237 80/238/238
f 80/239/239 91/240/240 98/241/241 97/242/242
f 79/243/243 92/244/244 87/245/245 83/246/246
f 77/247/247 94/248/248 93/249/249 82/250/250
f 82/251/251 93/252/252 89/253/253 86/254/254
f 85/255/255 88/256/256 95/257/257 81/258/258
f 81/259/259 95/260/260 96/261/261 78/262/262
f 78/263/263 96/264/264 94/265/265 77/266/266
f 98/267/267 92/268/268 79/269/269 97/270/270
f 85/271/271 86/272/272 97/273/273
f 86/274/274 84/275/275 80/276/276 97/277/277
