# This file uses centimeters as units for non-parametric coordinates.

v -8.805237 9.796890 8.805267
v 8.805300 9.796890 8.805267
v 8.805300 9.796890 -8.805298
v -8.805237 9.796890 -8.805298
v -8.805237 14.917282 8.805267
v 8.805300 14.917282 8.805267
v 8.805300 14.917282 -8.805298
v -8.805237 14.917282 -8.805298
v -8.802917 -14.917274 8.802826
v -8.802917 -14.917274 -8.802856
v 8.802856 -14.917274 -8.802856
v 8.802856 -14.917274 8.802826
v -8.804869 -0.065804 8.804901
v -8.804869 -0.065804 -8.804930
v 8.804932 -0.065804 -8.804930
v 8.804932 -0.065804 8.804901
v 5.566406 -10.374073 8.802826
v -5.566467 -10.374073 8.802826
v 5.567688 -0.065804 8.804901
v -5.567688 -0.065804 8.804901
v 5.567932 5.253685 8.805267
v -5.567932 5.253685 8.805267
v -5.974325 14.917282 5.974350
v 5.974386 14.917282 5.974350
v 5.974386 14.917282 -5.974380
v -5.974325 14.917282 -5.974380
vt 0.417983 0.477572
vt 0.453192 0.477572
vt 0.417983 0.477572
vt 0.453192 0.477572
vt 0.236575 0.477572
vt 0.171345 0.477572
vt 0.202875 0.477572
vt 0.171345 0.477572
vt 0.453192 0.310840
vt 0.417983 0.310840
vt 0.453192 0.310840
vt 0.417983 0.310840
vt 0.417983 0.310840
vt 0.453192 0.310840
vt 0.453192 0.310840
vt 0.202875 0.477572
vt 0.417983 0.477572
vt 0.417983 0.310840
vt 0.171345 0.477572
vt 0.453192 0.477572
vt 0.202875 0.477572
vt 0.417983 0.477572
vt 0.171345 0.477572
vt 0.453192 0.477572
vt 0.202875 0.477572
vt 0.171345 0.477572
vt 0.202875 0.477572
vt 0.236575 0.477572
vt 0.171345 0.477572
vt 0.236575 0.477572
vt 0.171345 0.477572
vt 0.202875 0.477572
vt 0.236575 0.477572
vt 0.202875 0.477572
vt 0.171345 0.477572
vt 0.202875 0.477572
vt 0.328519 0.310840
vt 0.328519 0.310840
vt 0.328519 0.310840
vt 0.328519 0.310840
vt 0.417983 0.310840
vt 0.453192 0.310840
vt 0.453192 0.477572
vt 0.417983 0.477572
vt 0.417983 0.477572
vt 0.453192 0.477572
vt 0.453192 0.477572
vt 0.417983 0.477572
vt 0.417983 0.310840
vt 0.453192 0.310840
vt 0.417983 0.477572
vt 0.453192 0.477572
vt 0.453192 0.310840
vt 0.417983 0.310840
vt 0.417983 0.310840
vt 0.453192 0.310840
vt 0.328519 0.444286
vt 0.453192 0.310840
vt 0.453192 0.310840
vt 0.328519 0.444286
vt 0.453192 0.477572
vt 0.453192 0.477572
vt 0.453192 0.477572
vt 0.328519 0.444286
vt 0.453192 0.310840
vt 0.453192 0.477572
vt 0.328519 0.444286
vt 0.328519 0.444286
vt 0.328519 0.444286
vt 0.328519 0.444286
vt 0.453192 0.310840
vt 0.328519 0.444286
vt 0.264925 0.477572
vt 0.236575 0.477572
vt 0.236575 0.477572
vt 0.236575 0.477572
vt 0.236575 0.477572
vt 0.264925 0.477572
vt 0.264925 0.477572
vt 0.264925 0.477572
vn 0.000000 1.000000 0.000000
vn 0.000000 1.000000 0.000000
vn 0.000000 1.000000 0.000000
vn 0.000000 1.000000 0.000000
vn 0.000000 0.000000 1.000000
vn 0.000000 0.000000 1.000000
vn 0.000000 0.000000 1.000000
vn 0.000000 0.000000 1.000000
vn 1.000000 0.000000 0.000000
vn 1.000000 0.000000 0.000000
vn 1.000000 0.000000 0.000000
vn 1.000000 0.000000 0.000000
vn 0.000000 0.000000 -1.000000
vn 0.000000 0.000000 -1.000000
vn 0.000000 0.000000 -1.000000
vn 0.000000 0.000000 -1.000000
vn -1.000000 0.000000 0.000000
vn -1.000000 0.000000 0.000000
vn -1.000000 0.000000 0.000000
vn -1.000000 0.000000 0.000000
vn -1.000000 -0.000131 0.000000
vn -1.000000 -0.000131 0.000000
vn -1.000000 -0.000131 0.000000
vn -1.000000 -0.000131 0.000000
vn 0.000000 -0.000140 -1.000000
vn 0.000000 -0.000140 -1.000000
vn 0.000000 -0.000140 -1.000000
vn 0.000000 -0.000140 -1.000000
vn 1.000000 -0.000140 0.000000
vn 1.000000 -0.000140 0.000000
vn 1.000000 -0.000140 0.000000
vn 1.000000 -0.000140 0.000000
vn 0.000000 -0.000201 1.000000
vn 0.000000 -0.000201 1.000000
vn 0.000000 -0.000201 1.000000
vn 0.000000 -0.000201 1.000000
vn 0.000000 -1.000000 0.000000
vn 0.000000 -1.000000 0.000000
vn 0.000000 -1.000000 0.000000
vn 0.000000 -1.000000 0.000000
vn -1.000000 -0.000037 0.000000
vn -1.000000 -0.000037 0.000000
vn -1.000000 -0.000037 0.000000
vn -1.000000 -0.000037 0.000000
vn 0.000000 -0.000037 -1.000000
vn 0.000000 -0.000037 -1.000000
vn 0.000000 -0.000037 -1.000000
vn 0.000000 -0.000037 -1.000000
vn 1.000000 -0.000037 0.000000
vn 1.000000 -0.000037 0.000000
vn 1.000000 -0.000037 0.000000
vn 1.000000 -0.000037 0.000000
vn 0.000000 -0.000069 1.000000
vn 0.000000 -0.000069 1.000000
vn 0.000000 -0.000069 1.000000
vn 0.000000 -0.000069 1.000000
vn 0.000000 0.000000 1.000000
vn 0.000000 0.000000 1.000000
vn 0.000000 0.000000 1.000000
vn 0.000000 0.000000 1.000000
vn -0.000116 -0.000165 1.000000
vn -0.000116 -0.000165 1.000000
vn -0.000116 -0.000165 1.000000
vn -0.000116 -0.000165 1.000000
vn 0.000116 -0.000165 1.000000
vn 0.000116 -0.000165 1.000000
vn 0.000116 -0.000165 1.000000
vn 0.000116 -0.000165 1.000000
vn 0.000034 -0.000048 1.000000
vn 0.000034 -0.000048 1.000000
vn 0.000034 -0.000048 1.000000
vn 0.000034 -0.000048 1.000000
vn 0.000000 0.000000 1.000000
vn 0.000000 0.000000 1.000000
vn 0.000000 0.000000 1.000000
vn 0.000000 0.000000 1.000000
vn -0.000034 -0.000048 1.000000
vn -0.000034 -0.000048 1.000000
vn -0.000034 -0.000048 1.000000
vn -0.000034 -0.000048 1.000000
vn 0.000000 1.000000 -0.000000
vn 0.000000 1.000000 -0.000000
vn 0.000000 1.000000 -0.000000
vn 0.000000 1.000000 -0.000000
vn 0.000000 1.000000 0.000000
vn 0.000000 1.000000 0.000000
vn 0.000000 1.000000 0.000000
vn 0.000000 1.000000 0.000000
vn 0.000000 1.000000 0.000000
vn 0.000000 1.000000 0.000000
vn 0.000000 1.000000 0.000000
vn 0.000000 1.000000 0.000000
vn 0.000000 1.000000 0.000000
vn 0.000000 1.000000 0.000000
vn 0.000000 1.000000 0.000000
vn 0.000000 1.000000 0.000000
s off
f 23/73/1 24/80/2 25/79/3 26/78/4
f 1/36/5 2/16/6 6/32/7 5/25/8
f 2/35/9 3/19/10 7/29/11 6/6/12
f 3/34/13 4/21/14 8/27/15 7/7/16
f 4/31/17 1/23/18 5/26/19 8/8/20
f 10/18/21 9/13/22 13/41/23 14/55/24
f 11/15/25 10/9/26 14/56/27 15/53/28
f 12/12/29 11/10/30 15/54/31 16/49/32
f 18/57/33 17/72/34 19/69/35 20/60/36
f 10/37/37 11/38/38 12/39/39 9/40/40
f 14/44/41 13/51/42 1/1/43 4/22/44
f 15/46/45 14/43/46 4/4/47 3/20/48
f 16/48/49 15/45/50 3/3/51 2/17/52
f 20/64/53 19/70/54 21/68/55 22/67/56
f 9/14/57 12/11/58 17/58/59 18/71/60
f 12/11/61 16/50/62 19/59/63 17/58/64
f 13/42/65 9/14/66 18/71/67 20/65/68
f 16/47/69 2/2/70 21/62/71 19/61/72
f 2/2/73 1/24/74 22/63/75 21/62/76
f 1/24/77 13/52/78 20/66/79 22/63/80
f 5/5/81 6/33/82 24/74/83 23/77/84
f 6/33/85 7/30/86 25/75/87 24/74/88
f 7/30/89 8/28/90 26/76/91 25/75/92
f 8/28/93 5/5/94 23/77/95 26/76/96
