# This file uses centimeters as units for non-parametric coordinates.

v -8.096420 2.232742 12.557867
v 8.096436 2.232742 12.557867
v -3.001480 44.039650 12.557867
v 3.001495 44.039650 12.557867
v -3.001480 44.039650 -12.557868
v 3.001495 44.039650 -12.557868
v -8.096420 2.232742 -12.557868
v 8.096436 2.232742 -12.557868
v -8.096420 2.232742 -8.634955
v 8.096436 2.232742 -8.634955
v -8.096420 2.232742 8.634953
v 8.096436 2.232742 8.634953
v 3.001495 40.403969 -8.634955
v -3.001480 40.403969 -8.634955
v -3.001480 40.403969 8.634953
v 3.001495 40.403969 8.634953
v -12.567719 -44.039650 34.684692
v 12.567719 -44.039650 34.684692
v -6.475052 6.320038 28.969854
v 6.475067 6.320038 28.969854
v -6.475052 6.320038 -28.969852
v 6.475067 6.320038 -28.969852
v -12.567719 -44.039650 -34.684692
v 12.567719 -44.039650 -34.684692
v 0.000000 6.320038 -26.454514
v 0.000000 -32.194134 -30.641239
v 0.000000 6.320038 26.454512
v 0.000000 -32.194134 30.641239
v 0.000000 44.039650 12.557867
v -4.048218 2.232742 12.557867
v 4.048218 2.232742 12.557867
v 0.000000 44.039650 -12.557868
v -4.048218 2.232742 -12.557868
v 4.048218 2.232742 -12.557868
v 0.000000 40.403969 -8.634955
v -4.048218 2.232742 -8.634955
v 4.048218 2.232742 -8.634955
v 0.000000 40.403969 8.634953
v -4.048218 2.232742 8.634953
v 4.048218 2.232742 8.634953
v -4.167862 6.320038 25.873428
v -4.167862 6.320038 -25.873428
v 0.000000 6.320038 23.626938
v 0.000000 6.320038 -23.626940
v 4.167877 6.320038 25.873428
v 4.167877 6.320038 -25.873428
vt 0.417983 0.444286
vt 0.417983 0.444286
vt 0.417983 0.444286
vt 0.417983 0.444286
vt 0.417983 0.444286
vt 0.417983 0.444286
vt 0.328519 0.444286
vt 0.328519 0.444286
vt 0.328519 0.444286
vt 0.328519 0.444286
vt 0.389670 0.444286
vt 0.389670 0.444286
vt 0.389670 0.444286
vt 0.389670 0.444286
vt 0.389670 0.444286
vt 0.389670 0.444286
vt 0.389670 0.444286
vt 0.389670 0.444286
vt 0.389670 0.444286
vt 0.389670 0.444286
vt 0.389670 0.444286
vt 0.389670 0.444286
vt 0.389670 0.444286
vt 0.389670 0.444286
vt 0.389670 0.444286
vt 0.389670 0.444286
vt 0.359377 0.153689
vt 0.359377 0.153689
vt 0.359377 0.153689
vt 0.359377 0.153689
vt 0.359377 0.153689
vt 0.359377 0.153689
vt 0.453192 0.153689
vt 0.453192 0.153689
vt 0.453192 0.153689
vt 0.453192 0.153689
vt 0.453192 0.153689
vt 0.453192 0.153689
vt 0.359377 0.153689
vt 0.359377 0.153689
vt 0.359377 0.153689
vt 0.359377 0.153689
vt 0.359377 0.153689
vt 0.359377 0.153689
vt 0.171345 0.153689
vt 0.171345 0.153689
vt 0.171345 0.153689
vt 0.171345 0.153689
vt 0.417983 0.153689
vt 0.417983 0.153689
vt 0.417983 0.153689
vt 0.417983 0.153689
vt 0.417983 0.153689
vt 0.417983 0.153689
vt 0.417983 0.153689
vt 0.417983 0.153689
vt 0.297998 0.444286
vt 0.297998 0.444286
vt 0.297998 0.444286
vt 0.297998 0.444286
vt 0.297998 0.444286
vt 0.297998 0.444286
vt 0.297998 0.444286
vt 0.297998 0.444286
vt 0.236575 0.444286
vt 0.236575 0.444286
vt 0.236575 0.444286
vt 0.236575 0.444286
vt 0.236575 0.444286
vt 0.236575 0.444286
vt 0.328519 0.444286
vt 0.328519 0.444286
vt 0.328519 0.444286
vt 0.328519 0.444286
vt 0.328519 0.444286
vt 0.328519 0.444286
vt 0.328519 0.444286
vt 0.328519 0.444286
vt 0.328519 0.444286
vt 0.328519 0.444286
vt 0.328519 0.444286
vt 0.328519 0.444286
vt 0.297998 0.444286
vt 0.297998 0.444286
vt 0.297998 0.444286
vt 0.297998 0.444286
vt 0.297998 0.444286
vt 0.297998 0.444286
vt 0.297998 0.444286
vt 0.297998 0.444286
vt 0.264925 0.444286
vt 0.264925 0.444286
vt 0.264925 0.444286
vt 0.264925 0.444286
vt 0.264925 0.444286
vt 0.264925 0.444286
vt 0.264925 0.444286
vt 0.264925 0.444286
vt 0.264925 0.444286
vt 0.264925 0.444286
vt 0.264925 0.444286
vt 0.264925 0.444286
vt 0.264925 0.444286
vt 0.264925 0.444286
vt 0.453192 0.153689
vt 0.453192 0.153689
vt 0.453192 0.153689
vt 0.453192 0.153689
vt 0.453192 0.153689
vt 0.453192 0.153689
vt 0.015798 0.477572
vt 0.015798 0.477572
vt 0.015798 0.477572
vt 0.015798 0.477572
vt 0.015798 0.477572
vt 0.015798 0.477572
vn 0.000000 1.000000 0.000000
vn 0.000000 1.000000 0.000000
vn 0.000000 1.000000 0.000000
vn 0.000000 1.000000 0.000000
vn 0.000000 0.000000 -1.000000
vn 0.000000 0.000000 -1.000000
vn 0.000000 0.000000 -1.000000
vn 0.000000 0.000000 -1.000000
vn 1.000000 0.000000 0.000000
vn 1.000000 0.000000 0.000000
vn 1.000000 0.000000 0.000000
vn 1.000000 0.000000 0.000000
vn -1.000000 0.000000 0.000000
vn -1.000000 0.000000 0.000000
vn -1.000000 0.000000 0.000000
vn -1.000000 0.000000 0.000000
vn 0.990284 0.126170 -0.058466
vn 0.990284 0.126170 -0.058466
vn 0.990284 0.126170 -0.058466
vn 0.990284 0.126170 -0.058466
vn 0.990284 0.126170 0.058466
vn 0.990284 0.126170 0.058466
vn 0.990284 0.126170 0.058466
vn 0.990284 0.126170 0.058466
vn -0.990284 0.126170 0.058466
vn -0.990284 0.126170 0.058466
vn -0.990284 0.126170 0.058466
vn -0.990284 0.126170 0.058466
vn -0.990284 0.126170 -0.058466
vn -0.990284 0.126170 -0.058466
vn -0.990284 0.126170 -0.058466
vn -0.990284 0.126170 -0.058466
vn -0.275131 0.087803 0.957389
vn -0.275131 0.087803 0.957389
vn -0.275131 0.087803 0.957389
vn -0.275131 0.087803 0.957389
vn 0.000000 1.000000 0.000000
vn 0.000000 1.000000 0.000000
vn 0.000000 1.000000 0.000000
vn 0.000000 1.000000 0.000000
vn 0.275131 0.087803 -0.957389
vn 0.275131 0.087803 -0.957389
vn 0.275131 0.087803 -0.957389
vn 0.275131 0.087803 -0.957389
vn 0.000000 -1.000000 0.000000
vn 0.000000 -1.000000 0.000000
vn 0.000000 -1.000000 0.000000
vn 0.000000 -1.000000 0.000000
vn 0.992761 0.120107 0.000000
vn 0.992761 0.120107 0.000000
vn 0.992761 0.120107 0.000000
vn 0.992761 0.120107 0.000000
vn -0.992761 0.120107 0.000000
vn -0.992761 0.120107 0.000000
vn -0.992761 0.120107 0.000000
vn -0.992761 0.120107 0.000000
vn -0.275130 0.087803 -0.957389
vn -0.275130 0.087803 -0.957389
vn -0.275130 0.087803 -0.957389
vn -0.275130 0.087803 -0.957389
vn 0.000000 0.323047 -0.946383
vn 0.000000 0.323047 -0.946383
vn 0.000000 0.323047 -0.946383
vn 0.275131 0.087803 0.957389
vn 0.275131 0.087803 0.957389
vn 0.275131 0.087803 0.957389
vn 0.275131 0.087803 0.957389
vn 0.000000 0.323047 0.946383
vn 0.000000 0.323047 0.946383
vn 0.000000 0.323047 0.946383
vn 0.000000 1.000000 0.000000
vn 0.000000 1.000000 0.000000
vn 0.000000 1.000000 0.000000
vn 0.000000 1.000000 0.000000
vn 0.000000 0.000000 1.000000
vn 0.000000 0.000000 1.000000
vn 0.000000 0.000000 1.000000
vn 0.000000 0.000000 1.000000
vn 0.000000 0.000000 -1.000000
vn 0.000000 0.000000 -1.000000
vn 0.000000 0.000000 -1.000000
vn 0.000000 0.000000 -1.000000
vn 0.000000 -1.000000 0.000000
vn 0.000000 -1.000000 0.000000
vn 0.000000 -1.000000 0.000000
vn 0.000000 -1.000000 0.000000
vn 0.000000 0.000000 1.000000
vn 0.000000 0.000000 1.000000
vn 0.000000 0.000000 1.000000
vn 0.000000 0.000000 1.000000
vn 0.000000 0.000000 1.000000
vn 0.000000 0.000000 1.000000
vn 0.000000 0.000000 1.000000
vn 0.000000 0.000000 1.000000
vn 0.000000 0.000000 -1.000000
vn 0.000000 0.000000 -1.000000
vn 0.000000 0.000000 -1.000000
vn 0.000000 0.000000 -1.000000
vn 0.000000 0.000000 1.000000
vn 0.000000 0.000000 1.000000
vn 0.000000 0.000000 1.000000
vn 0.000000 0.000000 1.000000
vn 0.000000 0.000000 -1.000000
vn 0.000000 0.000000 -1.000000
vn 0.000000 0.000000 -1.000000
vn 0.000000 0.000000 -1.000000
vn 0.993833 -0.100609 -0.046621
vn 0.993833 -0.100609 -0.046621
vn 0.993833 -0.100609 -0.046621
vn 0.993833 -0.100609 -0.046621
vn -0.993833 -0.100609 -0.046621
vn -0.993833 -0.100609 -0.046621
vn -0.993833 -0.100609 -0.046621
vn -0.993833 -0.100609 -0.046621
vn 0.993833 -0.100609 0.046621
vn 0.993833 -0.100609 0.046621
vn 0.993833 -0.100609 0.046621
vn 0.993833 -0.100609 0.046621
vn -0.993833 -0.100609 0.046621
vn -0.993833 -0.100609 0.046621
vn -0.993833 -0.100609 0.046621
vn -0.993833 -0.100609 0.046621
vn 0.000000 1.000000 0.000000
vn 0.000000 1.000000 0.000000
vn 0.000000 1.000000 0.000000
vn 0.000000 1.000000 0.000000
vn 0.000000 -1.000000 0.000000
vn 0.000000 -1.000000 0.000000
vn 0.000000 -1.000000 0.000000
vn 0.000000 -1.000000 0.000000
vn 0.000000 1.000000 0.000000
vn 0.000000 1.000000 0.000000
vn 0.000000 1.000000 0.000000
vn 0.000000 1.000000 0.000000
vn 0.000000 1.000000 0.000000
vn 0.000000 1.000000 0.000000
vn 0.000000 1.000000 0.000000
vn 0.000000 1.000000 0.000000
vn 0.000000 1.000000 0.000000
vn 0.000000 1.000000 0.000000
vn 0.000000 1.000000 0.000000
vn 0.000000 1.000000 0.000000
vn 0.000000 1.000000 0.000000
vn 0.000000 1.000000 0.000000
vn 0.000000 1.000000 0.000000
vn 0.000000 1.000000 0.000000
vn 0.000000 1.000000 0.000000
vn 0.000000 1.000000 0.000000
vn 0.000000 1.000000 0.000000
vn 0.000000 1.000000 0.000000
vn 0.000000 1.000000 0.000000
vn 0.000000 1.000000 0.000000
vn 0.000000 1.000000 0.000000
vn 0.000000 1.000000 0.000000
s off
f 29/1/1 32/2/2 5/3/3 3/4/4
f 34/7/5 32/8/6 6/9/7 8/10/8
f 13/11/9 6/12/10 4/13/11 16/14/12
f 3/19/13 5/20/14 14/21/15 15/22/16
f 16/14/17 4/13/18 2/17/19 12/18/20
f 6/12/21 13/11/22 10/15/23 8/16/24
f 14/21/25 5/20/26 7/23/27 9/24/28
f 3/19/29 15/22/30 11/25/31 1/26/32
f 20/27/33 27/28/34 28/29/35 18/30/36
f 42/111/37 41/112/38 43/113/39 44/114/40
f 23/39/41 21/40/42 25/41/43 26/42/44
f 17/45/45 23/46/46 24/47/47 18/48/48
f 18/49/49 24/50/50 22/51/51 20/52/52
f 23/53/53 17/54/54 19/55/55 21/56/56
f 24/43/57 26/42/58 25/41/59 22/44/60
f 24/43/61 23/39/62 26/42/63
f 17/31/64 28/29/65 27/28/66 19/32/67
f 17/31/68 18/30/69 28/29/70
f 44/114/71 43/113/72 45/115/73 46/116/74
f 14/57/75 9/58/76 36/59/77 35/60/78
f 40/61/79 38/62/80 16/63/81 12/64/82
f 15/65/83 14/66/84 35/67/85 38/68/86
f 4/71/87 29/72/88 31/73/89 2/74/90
f 30/75/91 29/76/92 3/77/93 1/78/94
f 5/79/95 32/80/96 33/81/97 7/82/98
f 35/83/99 37/84/100 10/85/101 13/86/102
f 11/87/103 15/88/104 38/89/105 39/90/106
f 33/91/107 32/92/108 35/93/109 36/94/110
f 32/92/111 34/95/112 37/96/113 35/93/114
f 39/97/115 38/98/116 29/99/117 30/100/118
f 38/101/119 40/102/120 31/103/121 29/104/122
f 6/5/123 32/2/124 29/1/125 4/6/126
f 38/68/127 35/67/128 13/69/129 16/70/130
f 21/33/131 19/34/132 41/106/133 42/105/134
f 19/34/135 27/35/136 43/107/137 41/106/138
f 25/36/139 21/33/140 42/105/141 44/108/142
f 27/35/143 20/37/144 45/109/145 43/107/146
f 20/37/147 22/38/148 46/110/149 45/109/150
f 22/38/151 25/36/152 44/108/153 46/110/154
