# This file uses centimeters as units for non-parametric coordinates.

v -4.630737 18.066193 -4.630707
v 4.630676 18.066193 -4.630707
v -4.630737 -18.968987 -4.630707
v 4.630676 -18.968987 -4.630707
v -4.630737 -18.968987 4.630676
v 4.630676 -18.968987 4.630676
v -4.630737 18.066193 4.630676
v 4.630676 18.066193 4.630676
v -2.721191 -18.968987 -2.721132
v 2.721130 -18.968987 -2.721132
v 2.721130 -18.968987 2.721102
v -2.721191 -18.968987 2.721102
v -1.666626 -24.439682 -1.666542
v 1.666565 -24.439682 -1.666542
v 1.666565 -24.439682 1.666512
v -1.666626 -24.439682 1.666512
v -0.724182 -24.439682 -0.724155
v 0.724121 -24.439682 -0.724155
v 0.724121 -24.439682 0.724125
v -0.724182 -24.439682 0.724125
v -0.724182 -35.671898 -0.724156
v 0.724121 -35.671898 -0.724156
v 0.724121 -35.671898 0.724126
v -0.724182 -35.671898 0.724126
v -4.630737 21.204781 4.630676
v 4.630676 21.204781 4.630676
v 4.630676 21.204781 -4.630707
v -4.630737 21.204781 -4.630707
v 9.827034 18.066193 4.630676
v 9.827034 18.066193 -4.630707
v 9.827034 21.204781 -4.630707
v 9.827034 21.204781 4.630676
v -9.827156 18.066193 4.630676
v -9.827156 18.066193 -4.630707
v -9.827156 21.204781 4.630676
v -9.827156 21.204781 -4.630707
v -2.197876 21.204781 2.197874
v 2.197815 21.204781 2.197874
v 2.197815 21.204781 -2.197905
v -2.197876 21.204781 -2.197905
v -2.197876 32.812477 2.197874
v 2.197815 32.812477 2.197874
v 2.197815 32.812477 -2.197905
v -2.197876 32.812477 -2.197905
v -7.701035 32.812477 5.243496
v 7.700974 32.812477 5.243496
v 7.700974 35.671890 5.243496
v -7.701035 35.671890 5.243496
v 7.700974 32.812477 -5.243526
v 7.700974 35.671890 -5.243526
v -7.701035 32.812477 -5.243526
v -7.701035 35.671890 -5.243526
v 4.630676 -6.613550 4.630676
v -4.630737 -6.613550 4.630676
v -4.630737 -6.613550 -4.630707
v 4.630676 -6.613550 -4.630707
vt 0.417983 0.477572
vt 0.417983 0.477572
vt 0.236575 0.131308
vt 0.236575 0.131308
vt 0.417983 0.477572
vt 0.417983 0.477572
vt 0.417983 0.477572
vt 0.417983 0.477572
vt 0.417983 0.477572
vt 0.417983 0.477572
vt 0.328519 0.477572
vt 0.328519 0.477572
vt 0.328519 0.477572
vt 0.328519 0.477572
vt 0.236575 0.131308
vt 0.236575 0.131308
vt 0.417983 0.477572
vt 0.417983 0.477572
vt 0.417983 0.477572
vt 0.417983 0.477572
vt 0.417983 0.477572
vt 0.417983 0.477572
vt 0.417983 0.477572
vt 0.417983 0.477572
vt 0.389670 0.477572
vt 0.389670 0.477572
vt 0.202875 0.131308
vt 0.202875 0.131308
vt 0.389670 0.477572
vt 0.389670 0.477572
vt 0.202875 0.131308
vt 0.202875 0.131308
vt 0.171345 0.131308
vt 0.171345 0.131308
vt 0.202875 0.131308
vt 0.264925 0.131308
vt 0.171345 0.131308
vt 0.236575 0.131308
vt 0.171345 0.131308
vt 0.171345 0.131308
vt 0.171345 0.131308
vt 0.202875 0.131308
vt 0.171345 0.131308
vt 0.171345 0.131308
vt 0.171345 0.131308
vt 0.171345 0.131308
vt 0.171345 0.131308
vt 0.171345 0.131308
vt 0.328519 0.477572
vt 0.328519 0.477572
vt 0.328519 0.477572
vt 0.328519 0.477572
vt 0.297998 0.477572
vt 0.297998 0.477572
vt 0.297998 0.477572
vt 0.297998 0.477572
vt 0.328519 0.477572
vt 0.328519 0.477572
vt 0.328519 0.477572
vt 0.328519 0.477572
vt 0.297998 0.477572
vt 0.297998 0.477572
vt 0.297998 0.477572
vt 0.297998 0.477572
vt 0.389670 0.477572
vt 0.389670 0.477572
vt 0.389670 0.477572
vt 0.389670 0.477572
vt 0.389670 0.477572
vt 0.389670 0.477572
vt 0.389670 0.477572
vt 0.389670 0.477572
vt 0.453192 0.477572
vt 0.453192 0.477572
vt 0.453192 0.477572
vt 0.453192 0.477572
vt 0.453192 0.477572
vt 0.453192 0.477572
vt 0.453192 0.477572
vt 0.453192 0.477572
vt 0.453192 0.477572
vt 0.453192 0.477572
vt 0.453192 0.477572
vt 0.453192 0.477572
vt 0.453192 0.477572
vt 0.453192 0.477572
vt 0.453192 0.477572
vt 0.453192 0.477572
vt 0.453192 0.477572
vt 0.453192 0.477572
vt 0.453192 0.477572
vt 0.453192 0.477572
vt 0.328519 0.477572
vt 0.328519 0.477572
vt 0.328519 0.477572
vt 0.328519 0.477572
vt 0.297998 0.477572
vt 0.297998 0.477572
vt 0.297998 0.477572
vt 0.297998 0.477572
vt 0.328519 0.477572
vt 0.328519 0.477572
vt 0.328519 0.477572
vt 0.328519 0.477572
vt 0.297998 0.477572
vt 0.297998 0.477572
vt 0.297998 0.477572
vt 0.297998 0.477572
vt 0.297998 0.477572
vt 0.297998 0.477572
vt 0.297998 0.477572
vt 0.297998 0.477572
vt 0.264925 0.477572
vt 0.264925 0.477572
vt 0.264925 0.477572
vt 0.264925 0.477572
vt 0.297998 0.477572
vt 0.297998 0.477572
vt 0.297998 0.477572
vt 0.297998 0.477572
vt 0.264925 0.477572
vt 0.264925 0.477572
vt 0.264925 0.477572
vt 0.264925 0.477572
vt 0.328519 0.477572
vt 0.328519 0.477572
vt 0.328519 0.477572
vt 0.328519 0.477572
vt 0.328519 0.477572
vt 0.328519 0.477572
vt 0.328519 0.477572
vt 0.328519 0.477572
vt 0.328519 0.477572
vt 0.328519 0.477572
vt 0.328519 0.477572
vt 0.328519 0.477572
vt 0.328519 0.477572
vt 0.328519 0.477572
vt 0.328519 0.477572
vt 0.328519 0.477572
vt 0.328519 0.477572
vt 0.328519 0.477572
vt 0.328519 0.477572
vt 0.328519 0.477572
vt 0.453192 0.477572
vt 0.453192 0.477572
vt 0.453192 0.477572
vt 0.453192 0.477572
vt 0.453192 0.477572
vt 0.417983 0.477572
vt 0.453192 0.477572
vt 0.417983 0.477572
vt 0.453192 0.477572
vt 0.453192 0.477572
vt 0.453192 0.477572
vt 0.417983 0.477572
vt 0.453192 0.477572
vt 0.417983 0.477572
vt 0.453192 0.477572
vt 0.453192 0.477572
vt 0.417983 0.477572
vt 0.417983 0.477572
vt 0.417983 0.477572
vt 0.417983 0.477572
vt 0.417983 0.477572
vt 0.417983 0.477572
vt 0.417983 0.477572
vt 0.417983 0.477572
vt 0.171345 0.131308
vt 0.171345 0.131308
vt 0.171345 0.131308
vt 0.171345 0.131308
vt 0.202875 0.131308
vt 0.236575 0.131308
vt 0.171345 0.131308
vt 0.236575 0.131308
vt 0.202875 0.131308
vt 0.171345 0.131308
vt 0.202875 0.131308
vt 0.264925 0.131308
vt 0.171345 0.131308
vt 0.264925 0.131308
vt 0.202875 0.131308
vt 0.171345 0.131308
vt 0.171345 0.131308
vt 0.171345 0.131308
vt 0.236575 0.131308
vt 0.171345 0.131308
vt 0.171345 0.131308
vt 0.202875 0.131308
vt 0.171345 0.131308
vt 0.171345 0.131308
vt 0.264925 0.131308
vt 0.171345 0.131308
vt 0.171345 0.131308
vt 0.202875 0.131308
vt 0.171345 0.131308
vt 0.171345 0.131308
vt 0.171345 0.131308
vt 0.171345 0.131308
vt 0.236575 0.131308
vt 0.202875 0.131308
vt 0.389670 0.477572
vt 0.417983 0.477572
vt 0.389670 0.477572
vt 0.417983 0.477572
vt 0.417983 0.477572
vt 0.389670 0.477572
vt 0.236575 0.131308
vt 0.202875 0.131308
vt 0.417983 0.477572
vt 0.389670 0.477572
vt 0.202875 0.131308
vt 0.236575 0.131308
vt 0.236575 0.131308
vt 0.202875 0.131308
vn 0.000000 0.000000 -1.000000
vn 0.000000 0.000000 -1.000000
vn 0.000000 0.000000 -1.000000
vn 0.000000 0.000000 -1.000000
vn 0.000000 -1.000000 0.000000
vn 0.000000 -1.000000 0.000000
vn 0.000000 -1.000000 0.000000
vn 0.000000 -1.000000 0.000000
vn 0.000000 0.000000 1.000000
vn 0.000000 0.000000 1.000000
vn 0.000000 0.000000 1.000000
vn 0.000000 0.000000 1.000000
vn 1.000000 0.000000 0.000000
vn 1.000000 0.000000 0.000000
vn 1.000000 0.000000 0.000000
vn 1.000000 0.000000 0.000000
vn -1.000000 0.000000 0.000000
vn -1.000000 0.000000 0.000000
vn -1.000000 0.000000 0.000000
vn -1.000000 0.000000 0.000000
vn 0.000000 -1.000000 -0.000000
vn 0.000000 -1.000000 -0.000000
vn 0.000000 -1.000000 -0.000000
vn 0.000000 -1.000000 -0.000000
vn 0.000000 -1.000000 0.000000
vn 0.000000 -1.000000 0.000000
vn 0.000000 -1.000000 0.000000
vn 0.000000 -1.000000 0.000000
vn 0.000000 -1.000000 0.000000
vn 0.000000 -1.000000 0.000000
vn 0.000000 -1.000000 0.000000
vn 0.000000 -1.000000 0.000000
vn 0.000000 -1.000000 0.000000
vn 0.000000 -1.000000 0.000000
vn 0.000000 -1.000000 0.000000
vn 0.000000 -1.000000 0.000000
vn 0.000000 -0.189286 -0.981922
vn 0.000000 -0.189286 -0.981922
vn 0.000000 -0.189286 -0.981922
vn 0.000000 -0.189286 -0.981922
vn 0.981923 -0.189282 0.000000
vn 0.981923 -0.189282 0.000000
vn 0.981923 -0.189282 0.000000
vn 0.981923 -0.189282 0.000000
vn 0.000000 -0.189286 0.981922
vn 0.000000 -0.189286 0.981922
vn 0.000000 -0.189286 0.981922
vn 0.000000 -0.189286 0.981922
vn -0.981923 -0.189282 0.000000
vn -0.981923 -0.189282 0.000000
vn -0.981923 -0.189282 0.000000
vn -0.981923 -0.189282 0.000000
vn 0.000000 -1.000000 0.000002
vn 0.000000 -1.000000 0.000002
vn 0.000000 -1.000000 0.000002
vn 0.000000 -1.000000 0.000002
vn 0.000000 -1.000000 0.000000
vn 0.000000 -1.000000 0.000000
vn 0.000000 -1.000000 0.000000
vn 0.000000 -1.000000 0.000000
vn 0.000000 -1.000000 -0.000002
vn 0.000000 -1.000000 -0.000002
vn 0.000000 -1.000000 -0.000002
vn 0.000000 -1.000000 -0.000002
vn 0.000000 -1.000000 0.000000
vn 0.000000 -1.000000 0.000000
vn 0.000000 -1.000000 0.000000
vn 0.000000 -1.000000 0.000000
vn 0.000000 0.000000 -1.000000
vn 0.000000 0.000000 -1.000000
vn 0.000000 0.000000 -1.000000
vn 0.000000 0.000000 -1.000000
vn 1.000000 -0.000000 0.000000
vn 1.000000 -0.000000 0.000000
vn 1.000000 -0.000000 0.000000
vn 1.000000 -0.000000 0.000000
vn 0.000000 0.000000 1.000000
vn 0.000000 0.000000 1.000000
vn 0.000000 0.000000 1.000000
vn 0.000000 0.000000 1.000000
vn -1.000000 0.000000 0.000000
vn -1.000000 0.000000 0.000000
vn -1.000000 0.000000 0.000000
vn -1.000000 0.000000 0.000000
vn 0.000000 0.000000 1.000000
vn 0.000000 0.000000 1.000000
vn 0.000000 0.000000 1.000000
vn 0.000000 0.000000 1.000000
vn 1.000000 0.000000 0.000000
vn 1.000000 0.000000 0.000000
vn 1.000000 0.000000 0.000000
vn 1.000000 0.000000 0.000000
vn 0.000000 0.000000 -1.000000
vn 0.000000 0.000000 -1.000000
vn 0.000000 0.000000 -1.000000
vn 0.000000 0.000000 -1.000000
vn -1.000000 0.000000 0.000000
vn -1.000000 0.000000 0.000000
vn -1.000000 0.000000 0.000000
vn -1.000000 0.000000 0.000000
vn 0.000000 -1.000000 0.000000
vn 0.000000 -1.000000 0.000000
vn 0.000000 -1.000000 0.000000
vn 0.000000 -1.000000 0.000000
vn 0.000000 0.000000 -1.000000
vn 0.000000 0.000000 -1.000000
vn 0.000000 0.000000 -1.000000
vn 0.000000 0.000000 -1.000000
vn 0.000000 1.000000 0.000000
vn 0.000000 1.000000 0.000000
vn 0.000000 1.000000 0.000000
vn 0.000000 1.000000 0.000000
vn 0.000000 0.000000 1.000000
vn 0.000000 0.000000 1.000000
vn 0.000000 0.000000 1.000000
vn 0.000000 0.000000 1.000000
vn 0.000000 -1.000000 0.000000
vn 0.000000 -1.000000 0.000000
vn 0.000000 -1.000000 0.000000
vn 0.000000 -1.000000 0.000000
vn 0.000000 0.000000 1.000000
vn 0.000000 0.000000 1.000000
vn 0.000000 0.000000 1.000000
vn 0.000000 0.000000 1.000000
vn 0.000000 1.000000 0.000000
vn 0.000000 1.000000 0.000000
vn 0.000000 1.000000 0.000000
vn 0.000000 1.000000 0.000000
vn 0.000000 0.000000 -1.000000
vn 0.000000 0.000000 -1.000000
vn 0.000000 0.000000 -1.000000
vn 0.000000 0.000000 -1.000000
vn 0.000000 1.000000 -0.000000
vn 0.000000 1.000000 -0.000000
vn 0.000000 1.000000 -0.000000
vn 0.000000 1.000000 -0.000000
vn 0.000000 1.000000 0.000000
vn 0.000000 1.000000 0.000000
vn 0.000000 1.000000 0.000000
vn 0.000000 1.000000 0.000000
vn 0.000000 1.000000 0.000000
vn 0.000000 1.000000 0.000000
vn 0.000000 1.000000 0.000000
vn 0.000000 1.000000 0.000000
vn 0.000000 1.000000 0.000000
vn 0.000000 1.000000 0.000000
vn 0.000000 1.000000 0.000000
vn 0.000000 1.000000 0.000000
vn 0.000000 0.000000 1.000000
vn 0.000000 0.000000 1.000000
vn 0.000000 0.000000 1.000000
vn 0.000000 0.000000 1.000000
vn 1.000000 0.000000 0.000000
vn 1.000000 0.000000 0.000000
vn 1.000000 0.000000 0.000000
vn 1.000000 0.000000 0.000000
vn 0.000000 0.000000 -1.000000
vn 0.000000 0.000000 -1.000000
vn 0.000000 0.000000 -1.000000
vn 0.000000 0.000000 -1.000000
vn -1.000000 0.000000 0.000000
vn -1.000000 0.000000 0.000000
vn -1.000000 0.000000 0.000000
vn -1.000000 0.000000 0.000000
vn 0.000000 0.000000 1.000000
vn 0.000000 0.000000 1.000000
vn 0.000000 0.000000 1.000000
vn 0.000000 0.000000 1.000000
vn 1.000000 0.000000 0.000000
vn 1.000000 0.000000 0.000000
vn 1.000000 0.000000 0.000000
vn 1.000000 0.000000 0.000000
vn 0.000000 0.000000 -1.000000
vn 0.000000 0.000000 -1.000000
vn 0.000000 0.000000 -1.000000
vn 0.000000 0.000000 -1.000000
vn -1.000000 0.000000 0.000000
vn -1.000000 0.000000 0.000000
vn -1.000000 0.000000 0.000000
vn -1.000000 0.000000 0.000000
vn 0.000000 -1.000000 0.000000
vn 0.000000 -1.000000 0.000000
vn 0.000000 -1.000000 0.000000
vn 0.000000 -1.000000 0.000000
vn 0.000000 -1.000000 0.000000
vn 0.000000 -1.000000 0.000000
vn 0.000000 -1.000000 0.000000
vn 0.000000 -1.000000 0.000000
vn 0.000000 -1.000000 0.000000
vn 0.000000 -1.000000 0.000000
vn 0.000000 -1.000000 0.000000
vn 0.000000 -1.000000 0.000000
vn 0.000000 1.000000 0.000000
vn 0.000000 1.000000 0.000000
vn 0.000000 1.000000 0.000000
vn 0.000000 1.000000 0.000000
vn 0.000000 -1.000000 0.000000
vn 0.000000 -1.000000 0.000000
vn 0.000000 -1.000000 0.000000
vn 0.000000 -1.000000 0.000000
vn 0.000000 0.000000 1.000000
vn 0.000000 0.000000 1.000000
vn 0.000000 0.000000 1.000000
vn 0.000000 0.000000 1.000000
vn -1.000000 0.000000 0.000000
vn -1.000000 0.000000 0.000000
vn -1.000000 0.000000 0.000000
vn -1.000000 0.000000 0.000000
vn 0.000000 0.000000 -1.000000
vn 0.000000 0.000000 -1.000000
vn 0.000000 0.000000 -1.000000
vn 0.000000 0.000000 -1.000000
vn 1.000000 0.000000 0.000000
vn 1.000000 0.000000 0.000000
vn 1.000000 0.000000 0.000000
vn 1.000000 0.000000 0.000000
s off
f 55/214/1 56/209/2 4/3/3 3/4/4
f 21/11/5 22/12/6 23/13/7 24/14/8
f 5/15/9 6/16/10 53/201/11 54/215/12
f 56/210/13 53/202/14 6/27/15 4/28/16
f 54/216/17 55/213/18 3/31/19 5/32/20
f 3/33/21 4/199/22 10/192/23 9/194/24
f 4/34/25 6/198/26 11/189/27 10/191/28
f 6/37/29 5/197/30 12/186/31 11/188/32
f 5/41/33 3/200/34 9/195/35 12/185/36
f 9/36/37 10/193/38 14/180/39 13/182/40
f 10/35/41 11/190/42 15/177/43 14/179/44
f 11/38/45 12/187/46 16/174/47 15/176/48
f 12/42/49 9/196/50 13/183/51 16/173/52
f 13/40/53 14/181/54 18/171/55 17/45/56
f 14/39/57 15/178/58 19/170/59 18/44/60
f 15/43/61 16/175/62 20/169/63 19/47/64
f 16/46/65 13/184/66 17/172/67 20/48/68
f 17/49/69 18/50/70 22/51/71 21/52/72
f 18/53/73 19/54/74 23/55/75 22/56/76
f 19/57/77 20/58/78 24/59/79 23/60/80
f 20/61/81 17/62/82 21/63/83 24/64/84
f 7/163/85 8/167/86 26/156/87 25/20/88
f 29/65/89 30/66/90 31/67/91 32/68/92
f 2/165/93 1/161/94 28/150/95 27/6/96
f 34/69/97 33/70/98 35/71/99 36/72/100
f 8/73/101 2/74/102 30/75/103 29/76/104
f 2/2/105 27/152/106 31/9/107 30/10/108
f 27/153/109 26/155/110 32/79/111 31/80/112
f 26/19/113 8/168/114 29/21/115 32/22/116
f 1/89/117 7/90/118 33/91/119 34/92/120
f 7/18/121 25/158/122 35/23/123 33/24/124
f 25/159/125 28/149/126 36/87/127 35/88/128
f 28/5/129 1/162/130 34/7/131 36/8/132
f 25/85/133 26/157/134 38/147/135 37/86/136
f 26/78/137 27/154/138 39/146/139 38/82/140
f 27/77/141 28/151/142 40/145/143 39/81/144
f 28/83/145 25/160/146 37/148/147 40/84/148
f 37/93/149 38/94/150 42/95/151 41/96/152
f 38/97/153 39/98/154 43/99/155 42/100/156
f 39/101/157 40/102/158 44/103/159 43/104/160
f 40/105/161 37/106/162 41/107/163 44/108/164
f 45/109/165 46/110/166 47/111/167 48/112/168
f 46/113/169 49/114/170 50/115/171 47/116/172
f 49/117/173 51/118/174 52/119/175 50/120/176
f 51/121/177 45/122/178 48/123/179 52/124/180
f 41/125/181 42/143/182 46/141/183 45/128/184
f 42/126/185 43/142/186 49/138/187 46/127/188
f 43/129/189 44/139/190 51/136/191 49/130/192
f 50/137/193 52/134/194 48/133/195 47/140/196
f 44/131/197 41/144/198 45/135/199 51/132/200
f 54/204/201 53/211/202 8/17/203 7/164/204
f 7/29/205 1/30/206 55/205/207 54/203/208
f 1/1/209 2/166/210 56/207/211 55/206/212
f 2/25/213 8/26/214 53/212/215 56/208/216
