# This file uses centimeters as units for non-parametric coordinates.

v -10.232838 -15.018021 10.232891
v 10.232891 -15.018021 10.232891
v -12.203041 2.554249 12.203056
v 12.203041 2.554249 12.203056
v -12.203041 2.554249 -12.203072
v 12.203041 2.554249 -12.203072
v -10.232838 -15.018021 -10.232891
v 10.232891 -15.018021 -10.232891
v -14.309219 2.554249 14.309235
v 14.309219 2.554249 14.309235
v 14.309219 2.554249 -14.309250
v -14.309219 2.554249 -14.309250
v -14.309219 9.229523 14.309235
v 14.309219 9.229523 14.309235
v 14.309219 9.229523 -14.309250
v -14.309219 9.229523 -14.309250
v -7.520393 15.018021 7.520378
v 7.520378 15.018021 7.520378
v 7.520378 15.018021 -7.520378
v -7.520393 15.018021 -7.520378
vt 0.264925 0.240423
vt 0.264925 0.240423
vt 0.264925 0.240423
vt 0.264925 0.240423
vt 0.359377 0.398205
vt 0.297998 0.398205
vt 0.328519 0.398205
vt 0.297998 0.398205
vt 0.328519 0.398205
vt 0.297998 0.398205
vt 0.328519 0.398205
vt 0.297998 0.398205
vt 0.264925 0.240423
vt 0.264925 0.240423
vt 0.264925 0.240423
vt 0.264925 0.240423
vt 0.202875 0.240423
vt 0.202875 0.240423
vt 0.202875 0.240423
vt 0.202875 0.240423
vt 0.171345 0.240423
vt 0.171345 0.240423
vt 0.171345 0.240423
vt 0.171345 0.240423
vt 0.171345 0.240423
vt 0.171345 0.240423
vt 0.171345 0.240423
vt 0.171345 0.240423
vt 0.202875 0.398205
vt 0.202875 0.398205
vt 0.202875 0.398205
vt 0.202875 0.398205
vt 0.202875 0.398205
vt 0.202875 0.398205
vt 0.202875 0.398205
vt 0.202875 0.398205
vt 0.297998 0.398205
vt 0.297998 0.398205
vt 0.297998 0.398205
vt 0.297998 0.398205
vt 0.264925 0.398205
vt 0.264925 0.398205
vt 0.264925 0.398205
vt 0.264925 0.398205
vt 0.297998 0.398205
vt 0.297998 0.398205
vt 0.297998 0.398205
vt 0.297998 0.398205
vt 0.264925 0.398205
vt 0.264925 0.398205
vt 0.264925 0.398205
vt 0.264925 0.398205
vt 0.328519 0.398205
vt 0.297998 0.398205
vt 0.328519 0.398205
vt 0.359377 0.398205
vt 0.297998 0.398205
vt 0.359377 0.398205
vt 0.328519 0.398205
vt 0.328519 0.398205
vt 0.359377 0.398205
vt 0.297998 0.398205
vt 0.328519 0.398205
vt 0.297998 0.398205
vt 0.202875 0.398205
vt 0.202875 0.398205
vt 0.202875 0.398205
vt 0.202875 0.398205
vt 0.202875 0.398205
vt 0.202875 0.398205
vt 0.202875 0.398205
vt 0.202875 0.398205
vn 0.000000 -0.111420 0.993774
vn 0.000000 -0.111420 0.993774
vn 0.000000 -0.111420 0.993773
vn 0.000000 -0.111420 0.993774
vn 0.000000 1.000000 0.000000
vn 0.000000 1.000000 0.000000
vn 0.000000 1.000000 0.000000
vn 0.000000 1.000000 0.000000
vn 0.000000 -0.111421 -0.993773
vn 0.000000 -0.111421 -0.993773
vn 0.000000 -0.111421 -0.993773
vn 0.000000 -0.111421 -0.993773
vn 0.000000 -1.000000 0.000000
vn 0.000000 -1.000000 0.000000
vn 0.000000 -1.000000 0.000000
vn 0.000000 -1.000000 0.000000
vn 0.993774 -0.111419 0.000000
vn 0.993774 -0.111419 0.000000
vn 0.993774 -0.111419 0.000000
vn 0.993774 -0.111419 0.000000
vn -0.993773 -0.111422 0.000000
vn -0.993773 -0.111422 0.000000
vn -0.993773 -0.111422 0.000000
vn -0.993773 -0.111422 0.000000
vn 0.000000 -1.000000 -0.000000
vn 0.000000 -1.000000 -0.000000
vn 0.000000 -1.000000 -0.000000
vn 0.000000 -1.000000 -0.000000
vn 0.000000 -1.000000 0.000000
vn 0.000000 -1.000000 0.000000
vn 0.000000 -1.000000 0.000000
vn 0.000000 -1.000000 0.000000
vn 0.000000 -1.000000 0.000000
vn 0.000000 -1.000000 0.000000
vn 0.000000 -1.000000 0.000000
vn 0.000000 -1.000000 0.000000
vn 0.000000 -1.000000 0.000000
vn 0.000000 -1.000000 0.000000
vn 0.000000 -1.000000 0.000000
vn 0.000000 -1.000000 0.000000
vn 0.000000 0.000000 1.000000
vn 0.000000 0.000000 1.000000
vn 0.000000 0.000000 1.000000
vn 0.000000 0.000000 1.000000
vn 1.000000 0.000000 0.000000
vn 1.000000 0.000000 0.000000
vn 1.000000 0.000000 0.000000
vn 1.000000 0.000000 0.000000
vn 0.000000 0.000000 -1.000000
vn 0.000000 0.000000 -1.000000
vn 0.000000 0.000000 -1.000000
vn 0.000000 0.000000 -1.000000
vn -1.000000 0.000000 0.000000
vn -1.000000 0.000000 0.000000
vn -1.000000 0.000000 0.000000
vn -1.000000 0.000000 0.000000
vn 0.000000 0.760944 0.648817
vn 0.000000 0.760944 0.648817
vn 0.000000 0.760944 0.648817
vn 0.000000 0.760944 0.648817
vn 0.648818 0.760944 0.000000
vn 0.648818 0.760944 0.000000
vn 0.648818 0.760944 0.000000
vn 0.648818 0.760944 0.000000
vn 0.000000 0.760945 -0.648816
vn 0.000000 0.760945 -0.648816
vn 0.000000 0.760945 -0.648816
vn 0.000000 0.760945 -0.648816
vn -0.648819 0.760943 0.000000
vn -0.648819 0.760943 0.000000
vn -0.648819 0.760943 0.000000
vn -0.648819 0.760943 0.000000
s off
f 1/1/1 2/2/2 4/3/3 3/4/4
f 17/5/5 18/61/6 19/58/7 20/56/8
f 5/13/9 6/14/10 8/15/11 7/16/12
f 7/17/13 8/18/14 2/19/15 1/20/16
f 2/21/17 8/22/18 6/23/19 4/24/20
f 7/25/21 1/26/22 3/27/23 5/28/24
f 3/29/25 4/71/26 10/67/27 9/32/28
f 4/30/29 6/70/30 11/66/31 10/31/32
f 6/33/33 5/69/34 12/65/35 11/34/36
f 5/35/37 3/72/38 9/68/39 12/36/40
f 9/37/41 10/38/42 14/39/43 13/40/44
f 10/41/45 11/42/46 15/43/47 14/44/48
f 11/45/49 12/46/50 16/47/51 15/48/52
f 12/49/53 9/50/54 13/51/55 16/52/56
f 13/9/57 14/63/58 18/60/59 17/53/60
f 14/10/61 15/62/62 19/57/63 18/6/64
f 15/11/65 16/59/66 20/55/67 19/7/68
f 16/12/69 13/64/70 17/54/71 20/8/72
