# This file uses centimeters as units for non-parametric coordinates.

v -9.339233 -3.432505 -33.737198
v -9.339355 3.432519 -33.737198
v 1.905579 2.147172 66.555069
v 1.905457 -2.147181 66.555069
v -8.744080 2.147172 69.592918
v -8.744141 -2.147181 69.592918
v 2.613220 3.432504 -33.737198
v 2.613281 -3.432519 -33.737198
v -8.320374 -2.147172 -33.737206
v -8.319458 2.147172 -33.737206
v 1.565308 -2.147172 -33.737206
v 1.565308 2.147181 -33.737206
v 2.613281 -3.432519 -69.592926
v -9.339294 -3.432505 -69.592926
v -9.339355 3.432519 -69.592926
v 2.613220 3.432504 -69.592926
v 2.613220 3.432504 -60.419968
v -9.339355 3.432519 -60.419968
v -9.339294 -3.432505 -60.419968
v 2.613281 -3.432519 -60.419968
v 5.450439 3.432504 -65.006454
v -9.339355 3.432519 -65.006454
v -9.339294 -3.432505 -65.006454
v 5.450500 -3.432519 -65.006454
v 8.760559 2.147177 56.330856
v 8.760437 -2.147176 56.330856
v 1.565308 2.147179 -23.189026
v 1.565308 -2.147174 -23.189026
v 9.339355 2.147177 38.319477
v 9.339355 -2.147175 38.319477
v -8.319214 2.147172 38.319481
v -8.319702 -2.147176 38.319489
vt 0.171345 0.477572
vt 0.202875 0.477572
vt 0.359377 0.476343
vt 0.328519 0.477572
vt 0.328519 0.477572
vt 0.359377 0.477572
vt 0.328519 0.477572
vt 0.328519 0.477572
vt 0.328519 0.477572
vt 0.328519 0.477572
vt 0.359377 0.476397
vt 0.359377 0.477572
vt 0.389670 0.477572
vt 0.389670 0.477572
vt 0.202875 0.477572
vt 0.171345 0.477572
vt 0.141447 0.477572
vt 0.171345 0.477572
vt 0.171345 0.477572
vt 0.141447 0.477572
vt 0.171345 0.477572
vt 0.171345 0.477572
vt 0.202875 0.477572
vt 0.202875 0.477572
vt 0.328519 0.477572
vt 0.328519 0.477572
vt 0.328519 0.477572
vt 0.328519 0.477572
vt 0.328519 0.477572
vt 0.328519 0.477572
vt 0.328519 0.477572
vt 0.328519 0.477572
vt 0.141447 0.477572
vt 0.141447 0.477572
vt 0.202875 0.477572
vt 0.202875 0.477572
vt 0.171345 0.477572
vt 0.171345 0.477572
vt 0.202875 0.477572
vt 0.202875 0.477572
vt 0.328519 0.477572
vt 0.328519 0.477572
vt 0.359377 0.476343
vt 0.359377 0.477572
vt 0.359377 0.476397
vt 0.389670 0.477572
vt 0.359377 0.477572
vt 0.389670 0.477572
vt 0.202875 0.477572
vt 0.171345 0.477572
vt 0.171345 0.477572
vt 0.202875 0.477572
vt 0.202875 0.477572
vt 0.171345 0.477572
vt 0.171345 0.477572
vt 0.202875 0.477572
vt 0.202875 0.477572
vt 0.171345 0.477572
vt 0.171345 0.477572
vt 0.202875 0.477572
vt 0.202875 0.477572
vt 0.171345 0.477572
vt 0.171345 0.477572
vt 0.202875 0.477572
vt 0.359377 0.477572
vt 0.328519 0.477572
vt 0.328519 0.477572
vt 0.359377 0.477572
vt 0.359377 0.477572
vt 0.328519 0.477572
vt 0.328519 0.477572
vt 0.359377 0.477572
vt 0.359377 0.477572
vt 0.328519 0.477572
vt 0.328519 0.477572
vt 0.359377 0.477572
vt 0.328519 0.477572
vt 0.359377 0.477572
vt 0.359377 0.477572
vt 0.328519 0.477572
vn -0.000000 0.000006 1.000000
vn -0.000000 0.000006 1.000000
vn -0.000000 0.000006 1.000000
vn -0.000000 0.000006 1.000000
vn 0.000011 -0.000000 1.000000
vn 0.000011 -0.000000 1.000000
vn 0.000011 -0.000000 1.000000
vn 0.000011 -0.000000 1.000000
vn -0.000000 1.000000 0.000000
vn -0.000000 1.000000 0.000000
vn -0.000000 1.000000 0.000000
vn -0.000000 1.000000 0.000000
vn -0.000000 1.000000 0.000000
vn -0.000006 -0.000000 1.000000
vn -0.000006 -0.000000 1.000000
vn -0.000006 -0.000000 1.000000
vn -0.000006 -0.000000 1.000000
vn -0.000000 -1.000000 -0.000000
vn -0.000000 -1.000000 -0.000000
vn -0.000000 -1.000000 -0.000000
vn -0.000000 -1.000000 -0.000000
vn -0.000000 -1.000000 -0.000000
vn -0.999908 0.000064 -0.013577
vn -0.999908 0.000064 -0.013577
vn -0.999908 0.000064 -0.013577
vn -0.999908 0.000064 -0.013577
vn 1.000000 0.000000 0.000000
vn 1.000000 0.000000 0.000000
vn 1.000000 0.000000 0.000000
vn 1.000000 0.000000 0.000000
vn 0.000000 -0.000006 1.000000
vn 0.000000 -0.000006 1.000000
vn 0.000000 -0.000006 1.000000
vn 0.000000 -0.000006 1.000000
vn 0.274312 -0.000006 0.961641
vn 0.274312 -0.000006 0.961641
vn 0.274312 -0.000006 0.961641
vn 0.274312 -0.000006 0.961641
vn -0.000000 0.000000 -1.000000
vn -0.000000 0.000000 -1.000000
vn -0.000000 0.000000 -1.000000
vn -0.000000 0.000000 -1.000000
vn -0.000001 -1.000000 0.000000
vn -0.000001 -1.000000 0.000000
vn -0.000001 -1.000000 0.000000
vn -0.000001 -1.000000 0.000000
vn -1.000000 -0.000013 0.000001
vn -1.000000 -0.000013 0.000001
vn -1.000000 -0.000013 0.000001
vn -1.000000 -0.000013 0.000001
vn 0.000001 1.000000 0.000000
vn 0.000001 1.000000 0.000000
vn 0.000001 1.000000 0.000000
vn 0.000001 1.000000 0.000000
vn 1.000000 0.000009 0.000000
vn 1.000000 0.000009 0.000000
vn 1.000000 0.000009 0.000000
vn 1.000000 0.000009 0.000000
vn 0.000001 1.000000 0.000000
vn 0.000001 1.000000 0.000000
vn 0.000001 1.000000 0.000000
vn 0.000001 1.000000 0.000000
vn -1.000000 -0.000009 0.000000
vn -1.000000 -0.000009 0.000000
vn -1.000000 -0.000009 0.000000
vn -1.000000 -0.000009 0.000000
vn -0.000001 -1.000000 -0.000000
vn -0.000001 -1.000000 -0.000000
vn -0.000001 -1.000000 -0.000000
vn -0.000001 -1.000000 -0.000000
vn 0.850434 0.000008 0.526082
vn 0.850434 0.000008 0.526082
vn 0.850434 0.000008 0.526082
vn 0.850434 0.000008 0.526082
vn 0.000001 1.000000 -0.000000
vn 0.000001 1.000000 -0.000000
vn 0.000001 1.000000 -0.000000
vn 0.000001 1.000000 -0.000000
vn -1.000000 -0.000009 0.000000
vn -1.000000 -0.000009 0.000000
vn -1.000000 -0.000009 0.000000
vn -1.000000 -0.000009 0.000000
vn -0.000001 -1.000000 0.000000
vn -0.000001 -1.000000 0.000000
vn -0.000001 -1.000000 0.000000
vn -0.000001 -1.000000 0.000000
vn 0.850433 0.000008 -0.526083
vn 0.850433 0.000008 -0.526083
vn 0.850433 0.000008 -0.526083
vn 0.850433 0.000008 -0.526083
vn 0.830591 -0.000024 0.556883
vn 0.830591 -0.000024 0.556883
vn 0.830591 -0.000024 0.556883
vn 0.830591 -0.000024 0.556883
vn 0.992107 0.000000 -0.125392
vn 0.992107 0.000000 -0.125392
vn 0.992107 0.000000 -0.125392
vn 0.992107 0.000000 -0.125392
vn 0.999484 -0.000014 0.032122
vn 0.999484 -0.000014 0.032122
vn 0.999484 -0.000014 0.032122
vn 0.999484 -0.000014 0.032122
vn -1.000000 0.000163 0.000006
vn -1.000000 0.000163 0.000006
vn -1.000000 0.000163 0.000006
vn -1.000000 0.000163 0.000006
vn -0.000000 1.000000 0.000000
vn -0.000000 1.000000 0.000000
vn -0.000000 1.000000 0.000000
vn -0.000000 1.000000 0.000000
vn -0.000000 1.000000 0.000000
vn 0.000000 -1.000000 -0.000000
vn 0.000000 -1.000000 -0.000000
vn 0.000000 -1.000000 -0.000000
vn 0.000000 -1.000000 -0.000000
vn 0.000000 -1.000000 -0.000000
s off
f 8/25/1 11/26/2 9/27/3 1/28/4
f 10/31/5 2/32/6 1/28/7 9/27/8
f 12/41/9 10/4/10 31/77/11 29/74/12 27/70/13
f 12/29/14 11/26/15 8/25/16 7/30/17
f 9/7/18 11/8/19 28/71/20 30/75/21 32/80/22
f 31/78/23 32/79/24 6/12/25 5/47/26
f 27/69/27 28/72/28 11/43/29 12/3/30
f 2/32/31 10/31/32 12/29/33 7/30/34
f 3/13/35 5/46/36 6/48/37 4/14/38
f 13/17/39 14/33/40 15/34/41 16/20/42
f 8/23/43 1/35/44 19/53/45 20/56/46
f 1/22/47 2/16/48 18/51/49 19/54/50
f 2/24/51 7/39/52 17/49/53 18/52/54
f 7/1/55 8/37/56 20/55/57 17/50/58
f 18/52/59 17/49/60 21/57/61 22/60/62
f 19/54/63 18/51/64 22/59/65 23/62/66
f 20/56/67 19/53/68 23/61/69 24/64/70
f 17/50/71 20/55/72 24/63/73 21/58/74
f 22/60/75 21/57/76 16/40/77 15/15/78
f 23/62/79 22/59/80 15/19/81 14/18/82
f 24/64/83 23/61/84 14/36/85 13/2/86
f 21/58/87 24/63/88 13/38/89 16/21/90
f 4/44/91 26/68/92 25/65/93 3/6/94
f 29/73/95 30/76/96 28/72/97 27/69/98
f 25/65/99 26/68/100 30/76/101 29/73/102
f 10/45/103 9/11/104 32/79/105 31/78/106
f 29/74/107 31/77/108 5/5/109 3/42/110 25/66/111
f 32/80/112 30/75/113 26/67/114 4/9/115 6/10/116
