# This file uses centimeters as units for non-parametric coordinates.

v -56.158569 -10.242960 10.242981
v 56.158569 -10.242960 10.242981
v -56.158569 10.242962 10.242981
v 56.158569 10.242962 10.242981
v -56.158569 10.242962 -10.242981
v 56.158569 10.242962 -10.242981
v -56.158569 -10.242960 -10.242981
v 56.158569 -10.242960 -10.242981
vt 0.405970 0.882584
vt 0.405970 0.938136
vt 0.350418 0.882584
vt 0.350418 0.938136
vt 0.350418 0.882584
vt 0.350418 0.938136
vt 0.405970 0.882584
vt 0.405970 0.938136
vt 0.121245 0.735835
vt 0.007372 0.735835
vt 0.007372 0.692448
vt 0.121245 0.692448
vt 0.007372 0.806099
vt 0.007372 0.766206
vt 0.121245 0.766206
vt 0.121245 0.806099
vt 0.007372 0.735835
vt 0.007372 0.692448
vt 0.121245 0.692448
vt 0.121245 0.735835
vt 0.007372 0.806609
vt 0.007372 0.765687
vt 0.121245 0.765687
vt 0.121245 0.806609
vn 0.000000 0.000000 1.000000
vn 0.000000 0.000000 1.000000
vn 0.000000 0.000000 1.000000
vn 0.000000 0.000000 1.000000
vn 0.000000 1.000000 0.000000
vn 0.000000 1.000000 0.000000
vn 0.000000 1.000000 0.000000
vn 0.000000 1.000000 0.000000
vn 0.000000 0.000000 -1.000000
vn 0.000000 0.000000 -1.000000
vn 0.000000 0.000000 -1.000000
vn 0.000000 0.000000 -1.000000
vn 0.000000 -1.000000 0.000000
vn 0.000000 -1.000000 0.000000
vn 0.000000 -1.000000 0.000000
vn 0.000000 -1.000000 0.000000
vn 1.000000 0.000000 0.000000
vn 1.000000 0.000000 0.000000
vn 1.000000 0.000000 0.000000
vn 1.000000 0.000000 0.000000
vn -1.000000 0.000000 0.000000
vn -1.000000 0.000000 0.000000
vn -1.000000 0.000000 0.000000
vn -1.000000 0.000000 0.000000
s off
f 4/9/1 3/10/2 1/11/3 2/12/4
f 5/13/5 3/14/6 4/15/7 6/16/8
f 7/17/9 5/18/10 6/19/11 8/20/12
f 1/21/13 7/22/14 8/23/15 2/24/16
f 2/5/17 8/1/18 6/2/19 4/6/20
f 7/3/21 1/7/22 3/8/23 5/4/24
