# This file uses centimeters as units for non-parametric coordinates.

v -8.968506 -33.404205 7.448233
v 8.968506 -33.404205 7.448233
v -8.968506 -29.999767 7.448233
v 8.968506 -29.999767 7.448233
v -8.968506 -29.999767 -10.488638
v 8.968506 -29.999767 -10.488638
v -8.968506 -33.404205 -10.488638
v 8.968506 -33.404205 -10.488638
v -11.136475 -36.811146 -12.656811
v 11.136719 -36.811146 -12.656811
v 11.136719 -36.811146 9.616405
v -11.136475 -36.811146 9.616405
v -6.627441 -29.999767 5.107349
v 6.627441 -29.999767 5.107349
v 6.627441 -29.999767 -8.147755
v -6.627441 -29.999767 -8.147755
v -6.627441 -21.947044 5.107349
v 6.627441 -21.947044 5.107349
v 6.627441 -21.947044 -8.147755
v -6.627441 -21.947044 -8.147755
v -11.716797 -15.686230 10.196638
v 11.716797 -15.686230 10.196638
v 11.716797 -15.686230 -13.237043
v -11.716797 -15.686230 -13.237043
v -11.716797 -5.756638 10.196638
v 11.716797 -5.756638 10.196638
v 11.716797 -5.756638 -13.237043
v -11.716797 -5.756638 -13.237043
v -6.636475 1.203087 5.116438
v 6.636719 1.203087 5.116438
v 6.636719 1.203087 -8.156813
v -6.636475 1.203087 -8.156813
v -6.636475 36.811142 5.116438
v 6.636719 36.811142 5.116438
v 6.636719 36.811142 -8.156813
v -6.636475 36.811142 -8.156813
v -5.413086 36.811142 3.893089
v 5.413330 36.811142 3.893089
v 5.413330 36.811142 -6.933495
v -5.413086 36.811142 -6.933495
v -2.322754 -4.347847 9.171015
v 2.735352 -4.347847 9.171015
v -2.322754 -1.339073 13.237038
v 2.735352 -1.339073 13.237038
v -2.322754 2.726936 10.228260
v 2.735352 2.726936 10.228260
v -2.322754 -0.281837 6.162235
v 2.735352 -0.281837 6.162235
v -1.421875 -0.614853 12.701107
v 1.834473 -0.614853 12.701107
v 1.834473 2.002708 10.764160
v -1.421875 2.002708 10.764160
vt 0.141447 0.477572
vt 0.171345 0.477572
vt 0.202875 0.477572
vt 0.202875 0.477572
vt 0.202875 0.477572
vt 0.202875 0.477572
vt 0.171345 0.477572
vt 0.141447 0.477572
vt 0.141447 0.477572
vt 0.171345 0.477572
vt 0.141447 0.477572
vt 0.141447 0.477572
vt 0.141447 0.477572
vt 0.141447 0.477572
vt 0.171345 0.477572
vt 0.141447 0.477572
vt 0.171345 0.477572
vt 0.141447 0.477572
vt 0.328519 0.131308
vt 0.264925 0.131308
vt 0.328519 0.131308
vt 0.264925 0.131308
vt 0.297998 0.131308
vt 0.236575 0.131308
vt 0.297998 0.131308
vt 0.236575 0.131308
vt 0.328519 0.131308
vt 0.264925 0.131308
vt 0.328519 0.131308
vt 0.264925 0.131308
vt 0.389670 0.131308
vt 0.359377 0.131308
vt 0.389670 0.131308
vt 0.359377 0.131308
vt 0.328519 0.131308
vt 0.264925 0.131308
vt 0.328519 0.131308
vt 0.264925 0.131308
vt 0.417983 0.131308
vt 0.417983 0.131308
vt 0.417983 0.131308
vt 0.417983 0.131308
vt 0.109982 0.477572
vt 0.417983 0.131308
vt 0.417983 0.131308
vt 0.417983 0.131308
vt 0.202875 0.477572
vt 0.202875 0.477572
vt 0.202875 0.477572
vt 0.202875 0.477572
vt 0.202875 0.477572
vt 0.202875 0.477572
vt 0.171345 0.477572
vt 0.202875 0.477572
vt 0.202875 0.477572
vt 0.202875 0.477572
vt 0.171345 0.477572
vt 0.202875 0.477572
vt 0.141447 0.477572
vt 0.171345 0.477572
vt 0.202875 0.477572
vt 0.171345 0.477572
vt 0.141447 0.477572
vt 0.202875 0.477572
vt 0.171345 0.477572
vt 0.141447 0.477572
vt 0.171345 0.477572
vt 0.171345 0.477572
vt 0.141447 0.477572
vt 0.171345 0.477572
vt 0.171345 0.477572
vt 0.171345 0.477572
vt 0.171345 0.477572
vt 0.171345 0.477572
vt 0.141447 0.477572
vt 0.141447 0.477572
vt 0.171345 0.477572
vt 0.171345 0.477572
vt 0.171345 0.477572
vt 0.141447 0.477572
vt 0.264925 0.131308
vt 0.264925 0.131308
vt 0.359377 0.131308
vt 0.264925 0.131308
vt 0.264925 0.131308
vt 0.264925 0.131308
vt 0.359377 0.131308
vt 0.264925 0.131308
vt 0.264925 0.131308
vt 0.264925 0.131308
vt 0.236575 0.131308
vt 0.264925 0.131308
vt 0.264925 0.131308
vt 0.264925 0.131308
vt 0.236575 0.131308
vt 0.264925 0.131308
vt 0.264925 0.131308
vt 0.264925 0.131308
vt 0.328519 0.131308
vt 0.264925 0.131308
vt 0.264925 0.131308
vt 0.264925 0.131308
vt 0.328519 0.131308
vt 0.264925 0.131308
vt 0.359377 0.131308
vt 0.389670 0.131308
vt 0.328519 0.131308
vt 0.389670 0.131308
vt 0.359377 0.131308
vt 0.359377 0.131308
vt 0.328519 0.131308
vt 0.359377 0.131308
vt 0.236575 0.131308
vt 0.297998 0.131308
vt 0.328519 0.131308
vt 0.297998 0.131308
vt 0.236575 0.131308
vt 0.236575 0.131308
vt 0.328519 0.131308
vt 0.236575 0.131308
vt 0.328519 0.131308
vt 0.297998 0.131308
vt 0.297998 0.131308
vt 0.328519 0.131308
vt 0.297998 0.131308
vt 0.328519 0.131308
vt 0.297998 0.131308
vt 0.328519 0.131308
vt 0.328519 0.131308
vt 0.389670 0.131308
vt 0.389670 0.131308
vt 0.328519 0.131308
vt 0.389670 0.131308
vt 0.328519 0.131308
vt 0.389670 0.131308
vt 0.328519 0.131308
vt 0.417983 0.131308
vt 0.417983 0.131308
vt 0.417983 0.131308
vt 0.109982 0.477572
vt 0.417983 0.131308
vt 0.109982 0.477572
vt 0.328519 0.131308
vt 0.417983 0.131308
vt 0.417983 0.131308
vt 0.109982 0.477572
vt 0.328519 0.131308
vt 0.417983 0.131308
vt 0.328519 0.131308
vt 0.417983 0.131308
vt 0.328519 0.131308
vt 0.417983 0.131308
vt 0.264925 0.477572
vt 0.264925 0.477572
vt 0.264925 0.477572
vt 0.264925 0.477572
vt 0.109982 0.477572
vt 0.109982 0.477572
vt 0.109982 0.477572
vt 0.109982 0.477572
vt 0.297998 0.477572
vt 0.297998 0.477572
vt 0.297998 0.477572
vt 0.297998 0.477572
vt 0.297998 0.477572
vt 0.297998 0.477572
vt 0.297998 0.477572
vt 0.297998 0.477572
vt 0.236575 0.477572
vt 0.236575 0.477572
vt 0.236575 0.477572
vt 0.236575 0.477572
vt 0.236575 0.477572
vt 0.236575 0.477572
vt 0.236575 0.477572
vt 0.236575 0.477572
vt 0.297998 0.477572
vt 0.297998 0.477572
vt 0.297998 0.477572
vt 0.297998 0.477572
vt 0.297998 0.477572
vt 0.297998 0.477572
vt 0.297998 0.477572
vt 0.297998 0.477572
vt 0.297998 0.477572
vt 0.297998 0.477572
vt 0.297998 0.477572
vt 0.297998 0.477572
vt 0.297998 0.477572
vt 0.297998 0.477572
vt 0.297998 0.477572
vt 0.297998 0.477572
vn 0.000000 0.000000 1.000000
vn 0.000000 0.000000 1.000000
vn 0.000000 0.000000 1.000000
vn 0.000000 0.000000 1.000000
vn 0.000000 1.000000 0.000000
vn 0.000000 1.000000 0.000000
vn 0.000000 1.000000 0.000000
vn 0.000000 1.000000 0.000000
vn 0.000000 0.000000 -1.000000
vn 0.000000 0.000000 -1.000000
vn 0.000000 0.000000 -1.000000
vn 0.000000 0.000000 -1.000000
vn 0.000000 -1.000000 0.000000
vn 0.000000 -1.000000 0.000000
vn 0.000000 -1.000000 0.000000
vn 0.000000 -1.000000 0.000000
vn 1.000000 0.000000 0.000000
vn 1.000000 0.000000 0.000000
vn 1.000000 0.000000 0.000000
vn 1.000000 0.000000 0.000000
vn -1.000000 0.000000 0.000000
vn -1.000000 0.000000 0.000000
vn -1.000000 0.000000 0.000000
vn -1.000000 0.000000 0.000000
vn 0.000000 0.536897 -0.843648
vn 0.000000 0.536896 -0.843648
vn 0.000000 0.536897 -0.843648
vn 0.000000 0.536897 -0.843648
vn 0.843644 0.536904 0.000000
vn 0.843644 0.536904 0.000000
vn 0.843644 0.536904 0.000000
vn 0.843644 0.536904 0.000000
vn 0.000000 0.536897 0.843648
vn 0.000000 0.536897 0.843648
vn 0.000000 0.536897 0.843648
vn 0.000000 0.536897 0.843648
vn -0.843671 0.536861 0.000000
vn -0.843671 0.536861 0.000000
vn -0.843671 0.536861 0.000000
vn -0.843671 0.536861 0.000000
vn 0.000000 1.000000 0.000001
vn 0.000000 1.000000 0.000001
vn 0.000000 1.000000 0.000001
vn 0.000000 1.000000 0.000001
vn 0.000000 1.000000 0.000000
vn 0.000000 1.000000 0.000000
vn 0.000000 1.000000 0.000000
vn 0.000000 1.000000 0.000000
vn 0.000000 1.000000 -0.000001
vn 0.000000 1.000000 -0.000001
vn 0.000000 1.000000 -0.000001
vn 0.000000 1.000000 -0.000001
vn 0.000000 1.000000 0.000000
vn 0.000000 1.000000 0.000000
vn 0.000000 1.000000 0.000000
vn 0.000000 1.000000 0.000000
vn 0.000000 0.000000 1.000000
vn 0.000000 0.000000 1.000000
vn 0.000000 0.000000 1.000000
vn 0.000000 0.000000 1.000000
vn 1.000000 0.000000 0.000000
vn 1.000000 0.000000 0.000000
vn 1.000000 0.000000 0.000000
vn 1.000000 0.000000 0.000000
vn 0.000000 0.000000 -1.000000
vn 0.000000 0.000000 -1.000000
vn 0.000000 0.000000 -1.000000
vn 0.000000 0.000000 -1.000000
vn -1.000000 0.000000 0.000000
vn -1.000000 0.000000 0.000000
vn -1.000000 0.000000 0.000000
vn -1.000000 0.000000 0.000000
vn 0.000000 -0.630770 0.775970
vn 0.000000 -0.630770 0.775970
vn 0.000000 -0.630770 0.775970
vn 0.000000 -0.630770 0.775970
vn 0.775966 -0.630775 0.000000
vn 0.775966 -0.630775 0.000000
vn 0.775966 -0.630775 0.000000
vn 0.775966 -0.630775 0.000000
vn 0.000000 -0.630770 -0.775970
vn 0.000000 -0.630770 -0.775970
vn 0.000000 -0.630770 -0.775970
vn 0.000000 -0.630770 -0.775970
vn -0.775966 -0.630775 0.000000
vn -0.775966 -0.630775 0.000000
vn -0.775966 -0.630775 0.000000
vn -0.775966 -0.630775 0.000000
vn 0.000000 0.000000 1.000000
vn 0.000000 0.000000 1.000000
vn 0.000000 0.000000 1.000000
vn 0.000000 0.000000 1.000000
vn 1.000000 0.000000 0.000000
vn 1.000000 0.000000 0.000000
vn 1.000000 0.000000 0.000000
vn 1.000000 0.000000 0.000000
vn 0.000000 0.000000 -1.000000
vn 0.000000 0.000000 -1.000000
vn 0.000000 0.000000 -1.000000
vn 0.000000 0.000000 -1.000000
vn -1.000000 0.000000 0.000000
vn -1.000000 0.000000 0.000000
vn -1.000000 0.000000 0.000000
vn -1.000000 0.000000 0.000000
vn 0.000000 0.589581 0.807709
vn 0.000000 0.589581 0.807709
vn 0.000000 0.589581 0.807709
vn 0.000000 0.589581 0.807709
vn 0.807716 0.589572 0.000000
vn 0.807716 0.589572 0.000000
vn 0.807716 0.589572 0.000000
vn 0.807716 0.589572 0.000000
vn 0.000000 0.589584 -0.807707
vn 0.000000 0.589584 -0.807707
vn 0.000000 0.589584 -0.807707
vn 0.000000 0.589584 -0.807707
vn -0.807702 0.589591 0.000000
vn -0.807702 0.589591 0.000000
vn -0.807702 0.589591 0.000000
vn -0.807702 0.589591 0.000000
vn 0.000000 0.000000 1.000000
vn 0.000000 0.000000 1.000000
vn 0.000000 0.000000 1.000000
vn 0.000000 0.000000 1.000000
vn 1.000000 0.000000 0.000000
vn 1.000000 0.000000 0.000000
vn 1.000000 0.000000 0.000000
vn 1.000000 0.000000 0.000000
vn 0.000000 0.000000 -1.000000
vn 0.000000 0.000000 -1.000000
vn 0.000000 0.000000 -1.000000
vn 0.000000 0.000000 -1.000000
vn -1.000000 0.000000 0.000000
vn -1.000000 0.000000 0.000000
vn -1.000000 0.000000 0.000000
vn -1.000000 0.000000 0.000000
vn 0.000000 1.000000 0.000000
vn 0.000000 1.000000 0.000000
vn 0.000000 1.000000 0.000000
vn 0.000000 1.000000 0.000000
vn 0.000000 1.000000 0.000000
vn 0.000000 1.000000 0.000000
vn 0.000000 1.000000 0.000000
vn 0.000000 1.000000 0.000000
vn 0.000000 1.000000 0.000000
vn 0.000000 1.000000 0.000000
vn 0.000000 1.000000 0.000000
vn 0.000000 1.000000 0.000000
vn 0.000000 1.000000 0.000000
vn 0.000000 1.000000 0.000000
vn 0.000000 1.000000 0.000000
vn 0.000000 1.000000 0.000000
vn 0.000000 -0.803850 0.594832
vn 0.000000 -0.803850 0.594832
vn 0.000000 -0.803850 0.594832
vn 0.000000 -0.803850 0.594832
vn 0.000000 0.594833 0.803849
vn 0.000000 0.594833 0.803849
vn 0.000000 0.594833 0.803849
vn 0.000000 0.594833 0.803849
vn 0.000000 0.803850 -0.594832
vn 0.000000 0.803850 -0.594832
vn 0.000000 0.803850 -0.594832
vn 0.000000 0.803850 -0.594832
vn 0.000000 -0.594834 -0.803848
vn 0.000000 -0.594834 -0.803848
vn 0.000000 -0.594834 -0.803848
vn 0.000000 -0.594834 -0.803848
vn 1.000000 0.000000 0.000000
vn 1.000000 0.000000 0.000000
vn 1.000000 0.000000 0.000000
vn 1.000000 0.000000 0.000000
vn -1.000000 0.000000 0.000000
vn -1.000000 0.000000 0.000000
vn -1.000000 0.000000 0.000000
vn -1.000000 0.000000 0.000000
vn 0.000000 0.594849 0.803838
vn 0.000000 0.594849 0.803838
vn 0.000000 0.594849 0.803838
vn 0.000000 0.594849 0.803838
vn -0.000017 0.594834 0.803849
vn -0.000017 0.594834 0.803849
vn -0.000017 0.594834 0.803849
vn -0.000017 0.594834 0.803849
vn 0.000000 0.594823 0.803857
vn 0.000000 0.594823 0.803857
vn 0.000000 0.594823 0.803857
vn 0.000000 0.594823 0.803857
vn 0.000017 0.594834 0.803849
vn 0.000017 0.594834 0.803849
vn 0.000017 0.594834 0.803849
vn 0.000017 0.594834 0.803849
s off
f 1/71/1 2/2/2 4/60/3 3/62/4
f 37/43/5 38/146/6 39/142/7 40/140/8
f 5/53/9 6/57/10 8/77/11 7/79/12
f 9/15/13 10/74/14 11/70/15 12/68/16
f 2/75/17 8/11/18 6/12/19 4/59/20
f 7/13/21 1/1/22 3/63/23 5/14/24
f 7/7/25 8/78/26 10/73/27 9/65/28
f 8/8/29 2/76/30 11/69/31 10/16/32
f 2/10/33 1/72/34 12/67/35 11/17/36
f 1/9/37 7/80/38 9/66/39 12/18/40
f 3/3/41 4/61/42 14/56/43 13/47/44
f 4/4/45 6/58/46 15/52/47 14/55/48
f 6/6/49 5/54/50 16/50/51 15/51/52
f 5/5/53 3/64/54 13/48/55 16/49/56
f 13/19/57 14/103/58 18/119/59 17/128/60
f 14/20/61 15/102/62 19/101/63 18/100/64
f 15/21/65 16/99/66 20/115/67 19/124/68
f 16/22/69 13/104/70 17/97/71 20/98/72
f 17/23/73 18/127/74 22/116/75 21/125/76
f 18/24/77 19/118/78 23/117/79 22/95/80
f 19/25/81 20/123/82 24/114/83 23/122/84
f 20/26/85 17/120/86 21/113/87 24/91/88
f 21/27/89 22/126/90 26/111/91 25/136/92
f 22/28/93 23/94/94 27/93/95 26/92/96
f 23/29/97 24/121/98 28/107/99 27/132/100
f 24/30/101 21/96/102 25/89/103 28/90/104
f 25/31/105 26/135/106 30/108/107 29/133/108
f 26/32/109 27/110/110 31/109/111 30/87/112
f 27/33/113 28/131/114 32/106/115 31/130/116
f 28/34/117 25/112/118 29/105/119 32/83/120
f 29/35/121 30/134/122 34/149/123 33/151/124
f 30/36/125 31/86/126 35/85/127 34/84/128
f 31/37/129 32/129/130 36/143/131 35/147/132
f 32/38/133 29/88/134 33/81/135 36/82/136
f 33/39/137 34/150/138 38/145/139 37/137/140
f 34/40/141 35/148/142 39/141/143 38/44/144
f 35/41/145 36/144/146 40/139/147 39/45/148
f 36/42/149 33/152/150 37/138/151 40/46/152
f 41/153/153 42/154/154 44/155/155 43/156/156
f 49/157/157 50/158/158 51/159/159 52/160/160
f 45/161/161 46/162/162 48/163/163 47/164/164
f 47/165/165 48/166/166 42/167/167 41/168/168
f 42/169/169 48/170/170 46/171/171 44/172/172
f 47/173/173 41/174/174 43/175/175 45/176/176
f 43/177/177 44/178/178 50/179/179 49/180/180
f 44/181/181 46/182/182 51/183/183 50/184/184
f 46/185/185 45/186/186 52/187/187 51/188/188
f 45/189/189 43/190/190 49/191/191 52/192/192
