# This file uses centimeters as units for non-parametric coordinates.

v 5.251953 -5.252075 -43.275631
v 5.251953 5.252129 -43.275627
v 5.251953 -5.252075 33.940388
v 5.251953 5.252121 33.940376
v -5.251953 -5.252075 33.940388
v -5.251953 5.252121 33.940376
v -5.251953 -5.252075 -43.275631
v -5.251953 5.252129 -43.275627
v 10.812988 -10.813248 43.275604
v 10.812988 10.813202 43.275604
v -10.813477 10.813202 43.275604
v -10.813477 -10.813248 43.275604
v 8.769531 -8.769745 43.275623
v 8.769531 8.769699 43.275620
v -8.769775 8.769699 43.275620
v -8.769775 -8.769745 43.275623
v 10.818359 10.818497 33.937798
v 10.818359 -10.818497 33.937798
v -10.818359 -10.818497 33.937798
v -10.818359 10.818497 33.937798
v 2.524902 5.252258 1.487830
v 2.524902 7.568027 1.487835
v 2.524902 5.252258 6.537818
v 2.524902 7.568024 6.537823
v -2.525146 5.252258 6.537818
v -2.525146 7.568024 6.537823
v -2.525146 5.252258 1.487830
v -2.525146 7.568027 1.487835
vt 0.264925 0.477572
vt 0.236575 0.477572
vt 0.171345 0.477572
vt 0.171345 0.477572
vt 0.171345 0.477572
vt 0.171345 0.477572
vt 0.202875 0.477572
vt 0.236575 0.477572
vt 0.202875 0.477572
vt 0.202875 0.477572
vt 0.264925 0.477572
vt 0.264925 0.477572
vt 0.264925 0.477572
vt 0.264925 0.477572
vt 0.297998 0.477572
vt 0.297998 0.477572
vt 0.297998 0.477572
vt 0.297998 0.477572
vt 0.359377 0.221266
vt 0.297998 0.477572
vt 0.297998 0.477572
vt 0.297998 0.477572
vt 0.297998 0.477572
vt 0.359377 0.221266
vt 0.359377 0.221266
vt 0.359377 0.221266
vt 0.264925 0.477572
vt 0.236575 0.477572
vt 0.264925 0.477572
vt 0.264925 0.477572
vt 0.202875 0.477572
vt 0.236575 0.477572
vt 0.236575 0.477572
vt 0.236575 0.477572
vt 0.236575 0.477572
vt 0.236575 0.477572
vt 0.236575 0.477572
vt 0.171345 0.477572
vt 0.236575 0.477572
vt 0.171345 0.477572
vt 0.202875 0.477572
vt 0.202875 0.477572
vt 0.171345 0.477572
vt 0.236575 0.477572
vt 0.202875 0.477572
vt 0.202875 0.477572
vt 0.171345 0.477572
vt 0.236575 0.477572
vt 0.297998 0.477572
vt 0.297998 0.477572
vt 0.297998 0.477572
vt 0.297998 0.477572
vt 0.297998 0.477572
vt 0.297998 0.477572
vt 0.297998 0.477572
vt 0.297998 0.477572
vt 0.171345 0.477572
vt 0.171345 0.477572
vt 0.236575 0.477572
vt 0.202875 0.477572
vt 0.202875 0.477572
vt 0.236575 0.477572
vt 0.236575 0.477572
vt 0.202875 0.477572
vt 0.171345 0.477572
vt 0.171345 0.477572
vt 0.202875 0.477572
vt 0.236575 0.477572
vt 0.171345 0.477572
vt 0.171345 0.477572
vt 0.171345 0.477572
vt 0.171345 0.477572
vt 0.141447 0.477572
vt 0.141447 0.477572
vt 0.141447 0.477572
vt 0.141447 0.477572
vt 0.141447 0.477572
vt 0.141447 0.477572
vt 0.141447 0.477572
vt 0.141447 0.477572
vt 0.141447 0.477572
vt 0.141447 0.477572
vt 0.141447 0.477572
vt 0.141447 0.477572
vt 0.141447 0.477572
vt 0.141447 0.477572
vt 0.141447 0.477572
vt 0.141447 0.477572
vt 0.171345 0.477572
vt 0.171345 0.477572
vt 0.171345 0.477572
vt 0.171345 0.477572
vn 1.000000 0.000000 0.000000
vn 1.000000 0.000000 0.000000
vn 1.000000 0.000000 0.000000
vn 1.000000 0.000000 0.000000
vn 0.000000 0.000000 1.000000
vn 0.000000 0.000000 1.000000
vn 0.000000 0.000000 1.000000
vn 0.000000 0.000000 1.000000
vn -1.000000 0.000000 0.000000
vn -1.000000 0.000000 0.000000
vn -1.000000 0.000000 0.000000
vn -1.000000 0.000000 0.000000
vn 0.000000 0.000000 -1.000000
vn 0.000000 0.000000 -1.000000
vn 0.000000 0.000000 -1.000000
vn 0.000000 0.000000 -1.000000
vn 0.000000 1.000000 0.000000
vn 0.000000 1.000000 0.000000
vn 0.000000 1.000000 0.000000
vn 0.000000 1.000000 0.000000
vn 0.000000 -1.000000 0.000000
vn 0.000000 -1.000000 0.000000
vn 0.000000 -1.000000 0.000000
vn 0.000000 -1.000000 0.000000
vn -0.000465 -0.000000 -1.000000
vn -0.000465 -0.000000 -1.000000
vn -0.000465 -0.000000 -1.000000
vn -0.000465 -0.000000 -1.000000
vn 0.000000 -0.000463 -1.000000
vn 0.000000 -0.000463 -1.000000
vn 0.000000 -0.000463 -1.000000
vn 0.000000 -0.000463 -1.000000
vn 0.000465 -0.000000 -1.000000
vn 0.000465 -0.000000 -1.000000
vn 0.000465 -0.000000 -1.000000
vn 0.000465 -0.000000 -1.000000
vn 0.000000 0.000465 -1.000000
vn 0.000000 0.000465 -1.000000
vn 0.000000 0.000465 -1.000000
vn 0.000000 0.000465 -1.000000
vn 0.000008 0.000000 1.000000
vn 0.000008 0.000000 1.000000
vn 0.000008 0.000000 1.000000
vn 0.000008 0.000000 1.000000
vn 0.000000 0.000007 1.000000
vn 0.000000 0.000007 1.000000
vn 0.000000 0.000007 1.000000
vn 0.000000 0.000007 1.000000
vn -0.000008 0.000000 1.000000
vn -0.000008 0.000000 1.000000
vn -0.000008 0.000000 1.000000
vn -0.000008 0.000000 1.000000
vn 0.000000 -0.000009 1.000000
vn 0.000000 -0.000009 1.000000
vn 0.000000 -0.000009 1.000000
vn 0.000000 -0.000009 1.000000
vn 1.000000 0.000000 0.000575
vn 1.000000 0.000000 0.000575
vn 1.000000 0.000000 0.000575
vn 1.000000 0.000000 0.000575
vn 0.000000 -1.000000 0.000562
vn 0.000000 -1.000000 0.000562
vn 0.000000 -1.000000 0.000562
vn 0.000000 -1.000000 0.000562
vn -1.000000 0.000000 0.000523
vn -1.000000 0.000000 0.000523
vn -1.000000 0.000000 0.000523
vn -1.000000 0.000000 0.000523
vn 0.000000 1.000000 0.000567
vn 0.000000 1.000000 0.000567
vn 0.000000 1.000000 0.000567
vn 0.000000 1.000000 0.000567
vn 1.000000 0.000000 0.000000
vn 1.000000 0.000000 0.000000
vn 1.000000 0.000000 0.000000
vn 1.000000 0.000000 0.000000
vn 0.000000 -0.000002 1.000000
vn 0.000000 -0.000002 1.000000
vn 0.000000 -0.000002 1.000000
vn 0.000000 -0.000002 1.000000
vn -1.000000 0.000000 0.000000
vn -1.000000 0.000000 0.000000
vn -1.000000 0.000000 0.000000
vn -1.000000 0.000000 0.000000
vn 0.000000 0.000002 -1.000000
vn 0.000000 0.000002 -1.000000
vn 0.000000 0.000002 -1.000000
vn 0.000000 0.000002 -1.000000
vn 0.000000 1.000000 0.000001
vn 0.000000 1.000000 0.000001
vn 0.000000 1.000000 0.000001
vn 0.000000 1.000000 0.000001
s off
f 1/28/1 2/2/2 4/39/3 3/48/4
f 13/19/5 14/26/6 15/25/7 16/24/8
f 5/35/9 6/44/10 8/8/11 7/32/12
f 7/7/13 8/31/14 2/10/15 1/9/16
f 2/27/17 8/11/18 6/12/19 4/29/20
f 7/13/21 1/1/22 3/30/23 5/14/24
f 3/3/25 4/47/26 17/57/27 18/71/28
f 4/4/29 6/38/30 20/66/31 17/58/32
f 6/6/33 5/43/34 19/70/35 20/65/36
f 5/5/37 3/40/38 18/72/39 19/69/40
f 9/15/41 10/55/42 14/53/43 13/23/44
f 10/16/45 11/54/46 15/51/47 14/20/48
f 11/17/49 12/52/50 16/50/51 15/21/52
f 12/18/53 9/56/54 13/49/55 16/22/56
f 18/60/57 17/67/58 10/46/59 9/45/60
f 19/62/61 18/59/62 9/33/63 12/34/64
f 20/64/65 19/61/66 12/41/67 11/42/68
f 17/68/69 20/63/70 11/37/71 10/36/72
f 21/73/73 22/74/74 24/75/75 23/76/76
f 23/77/77 24/78/78 26/79/79 25/80/80
f 25/81/81 26/82/82 28/83/83 27/84/84
f 27/85/85 28/86/86 22/87/87 21/88/88
f 22/89/89 28/90/90 26/91/91 24/92/92
