# This file uses centimeters as units for non-parametric coordinates.

v -25.753418 -14.928520 7.628418
v 25.753418 -14.928520 7.628418
v -25.753418 14.928520 7.628418
v 25.753418 14.928520 7.628418
v -25.753418 14.928520 -7.628418
v 25.753418 14.928520 -7.628410
v -25.753418 -14.928520 -7.628418
v 25.753418 -14.928520 -7.628418
v 5.657993 14.928520 7.628418
v 5.657993 14.928520 -7.628418
v 5.657993 -14.928520 -7.628418
v 5.657993 -14.928520 7.628418
v -5.658119 14.928520 7.628418
v -5.658119 14.928520 -7.628418
v -5.658119 -14.928520 -7.628418
v -5.658119 -14.928520 7.628418
v -5.658119 8.076057 7.628418
v -5.658119 8.076057 -7.628418
v 5.657993 8.076057 -7.628418
v 5.657993 8.076057 7.628418
v -5.658119 -8.076057 7.628418
v -5.658119 -8.076057 -7.628418
v 5.657993 -8.076057 -7.628418
v 5.657993 -8.076057 7.628418
v -16.336182 8.076057 -7.628418
v -16.336182 -8.076057 -7.628418
v -16.336182 -8.076057 7.628418
v -16.336182 8.076057 7.628418
v 16.336054 8.076057 -7.628418
v 16.336054 -8.076057 -7.628418
v 16.336054 -8.076057 7.628418
v 16.336054 8.076057 7.628418
vt 0.236575 0.287733
vt 0.297998 0.477572
vt 0.236575 0.287733
vt 0.236575 0.287733
vt 0.297998 0.477572
vt 0.236575 0.287733
vt 0.236575 0.287733
vt 0.236575 0.287733
vt 0.297998 0.287733
vt 0.297998 0.287733
vt 0.359377 0.477572
vt 0.297998 0.287733
vt 0.359377 0.477572
vt 0.297998 0.287733
vt 0.297998 0.287733
vt 0.297998 0.287733
vt 0.236575 0.287733
vt 0.297998 0.477572
vt 0.297998 0.477572
vt 0.236575 0.287733
vt 0.297998 0.477572
vt 0.236575 0.287733
vt 0.236575 0.287733
vt 0.236575 0.287733
vt 0.171345 0.287733
vt 0.264925 0.477572
vt 0.264925 0.477572
vt 0.171345 0.287733
vt 0.264925 0.477572
vt 0.171345 0.287733
vt 0.171345 0.287733
vt 0.171345 0.287733
vt 0.202875 0.287733
vt 0.202875 0.287733
vt 0.202875 0.287733
vt 0.202875 0.287733
vt 0.202875 0.287733
vt 0.202875 0.287733
vt 0.202875 0.287733
vt 0.202875 0.287733
vt 0.359377 0.477572
vt 0.297998 0.287733
vt 0.297998 0.287733
vt 0.359377 0.477572
vt 0.171345 0.287733
vt 0.171345 0.287733
vt 0.171345 0.287733
vt 0.264925 0.477572
vt 0.236575 0.287733
vt 0.297998 0.477572
vt 0.236575 0.287733
vt 0.236575 0.287733
vt 0.236575 0.287733
vt 0.297998 0.477572
vt 0.236575 0.287733
vt 0.297998 0.477572
vt 0.171345 0.287733
vt 0.297998 0.477572
vt 0.171345 0.287733
vt 0.297998 0.477572
vt 0.297998 0.477572
vt 0.236575 0.287733
vt 0.297998 0.477572
vt 0.171345 0.287733
vt 0.236575 0.287733
vt 0.297998 0.477572
vt 0.236575 0.287733
vt 0.297998 0.477572
vt 0.297998 0.477572
vt 0.171345 0.287733
vt 0.236575 0.287733
vt 0.297998 0.477572
vt 0.236575 0.287733
vt 0.171345 0.287733
vt 0.236575 0.287733
vt 0.171345 0.287733
vt 0.236575 0.287733
vt 0.236575 0.287733
vt 0.236575 0.287733
vt 0.236575 0.287733
vt 0.236575 0.287733
vt 0.171345 0.287733
vt 0.171345 0.287733
vt 0.236575 0.287733
vt 0.171345 0.287733
vt 0.171345 0.287733
vt 0.171345 0.287733
vt 0.236575 0.287733
vt 0.171345 0.287733
vt 0.236575 0.287733
vt 0.171345 0.287733
vt 0.171345 0.287733
vt 0.236575 0.287733
vt 0.236575 0.287733
vt 0.171345 0.287733
vt 0.236575 0.287733
vt 0.171345 0.287733
vn 0.000000 1.000000 0.000000
vn 0.000000 1.000000 0.000000
vn 0.000000 1.000000 0.000000
vn 0.000000 1.000000 0.000000
vn 0.000000 0.000000 -1.000000
vn 0.000000 0.000000 -1.000000
vn 0.000000 0.000000 -1.000000
vn 0.000000 0.000000 -1.000000
vn 0.000000 -1.000000 0.000000
vn 0.000000 -1.000000 0.000000
vn 0.000000 -1.000000 0.000000
vn 0.000000 -1.000000 0.000000
vn 0.000000 0.000000 1.000000
vn 0.000000 0.000000 1.000000
vn 0.000000 0.000000 1.000000
vn 0.000000 0.000000 1.000000
vn 0.000000 1.000000 0.000000
vn 0.000000 1.000000 0.000000
vn 0.000000 1.000000 0.000000
vn 0.000000 1.000000 0.000000
vn 0.000000 0.000000 -1.000000
vn 0.000000 0.000000 -1.000000
vn 0.000000 0.000000 -1.000000
vn 0.000000 0.000000 -1.000000
vn 0.000000 -1.000000 0.000000
vn 0.000000 -1.000000 0.000000
vn 0.000000 -1.000000 0.000000
vn 0.000000 -1.000000 0.000000
vn 0.000000 0.000000 1.000000
vn 0.000000 0.000000 1.000000
vn 0.000000 0.000000 1.000000
vn 0.000000 0.000000 1.000000
vn 0.000000 0.000000 -1.000000
vn 0.000000 0.000000 -1.000000
vn 0.000000 0.000000 -1.000000
vn 0.000000 0.000000 -1.000000
vn 0.000000 0.000000 -1.000000
vn 0.000000 0.000000 -1.000000
vn 0.000000 0.000000 -1.000000
vn 0.000000 0.000000 -1.000000
vn 0.000000 0.000000 1.000000
vn 0.000000 0.000000 1.000000
vn 0.000000 0.000000 1.000000
vn 0.000000 0.000000 1.000000
vn 0.000000 0.000000 1.000000
vn 0.000000 0.000000 1.000000
vn 0.000000 0.000000 1.000000
vn 0.000000 0.000000 1.000000
vn 0.000000 0.000000 1.000000
vn 0.000000 0.000000 1.000000
vn 0.000000 0.000000 1.000000
vn 0.000000 0.000000 1.000000
vn -1.000000 0.000000 0.000000
vn -1.000000 0.000000 0.000000
vn -1.000000 0.000000 0.000000
vn -1.000000 0.000000 0.000000
vn 0.000000 0.000000 -1.000000
vn 0.000000 0.000000 -1.000000
vn 0.000000 0.000000 -1.000000
vn 0.000000 0.000000 -1.000000
vn 0.000000 0.000000 -1.000000
vn 0.000000 0.000000 -1.000000
vn 0.000000 0.000000 -1.000000
vn 0.000000 0.000000 -1.000000
vn 0.000000 0.000000 -1.000000
vn 0.000000 0.000000 -1.000000
vn 0.000000 0.000000 -1.000000
vn 0.000000 0.000000 -1.000000
vn 1.000000 0.000000 0.000000
vn 1.000000 0.000000 0.000000
vn 1.000000 0.000000 0.000000
vn 1.000000 0.000000 0.000000
vn 0.000000 0.000000 1.000000
vn 0.000000 0.000000 1.000000
vn 0.000000 0.000000 1.000000
vn 0.000000 0.000000 1.000000
vn 0.000000 0.000000 1.000000
vn 0.000000 0.000000 1.000000
vn 0.000000 0.000000 1.000000
vn 0.000000 0.000000 1.000000
vn 0.000000 1.000000 0.000000
vn 0.000000 1.000000 0.000000
vn 0.000000 1.000000 0.000000
vn 0.000000 1.000000 0.000000
vn 0.000000 0.000000 -1.000000
vn 0.000000 0.000000 -1.000000
vn 0.000000 0.000000 -1.000000
vn 0.000000 0.000000 -1.000000
vn 0.000000 0.000000 -1.000000
vn 0.000000 0.000000 -1.000000
vn 0.000000 0.000000 -1.000000
vn 0.000000 0.000000 -1.000000
vn 0.000000 0.000000 -1.000000
vn 0.000000 0.000000 -1.000000
vn 0.000000 0.000000 -1.000000
vn 0.000000 0.000000 -1.000000
vn 0.000000 -1.000000 0.000000
vn 0.000000 -1.000000 0.000000
vn 0.000000 -1.000000 0.000000
vn 0.000000 -1.000000 0.000000
vn 0.000000 0.000000 1.000000
vn 0.000000 0.000000 1.000000
vn 0.000000 0.000000 1.000000
vn 0.000000 0.000000 1.000000
vn 0.000000 0.000000 1.000000
vn 0.000000 0.000000 1.000000
vn 0.000000 0.000000 1.000000
vn 0.000000 0.000000 1.000000
vn 0.000000 0.000000 1.000000
vn 0.000000 0.000000 1.000000
vn 0.000000 0.000000 1.000000
vn 0.000000 0.000000 1.000000
vn 0.000000 0.000000 -1.000000
vn 0.000000 0.000000 -1.000000
vn 0.000000 0.000000 -1.000000
vn 0.000000 0.000000 -1.000000
vn -0.000000 0.000000 1.000000
vn -0.000000 0.000000 1.000000
vn -0.000000 0.000000 1.000000
vn -0.000000 0.000000 1.000000
s off
f 9/43/1 4/15/2 6/16/3 10/14/4
f 11/22/5 23/94/6 30/79/7 8/24/8
f 12/30/9 11/47/10 8/31/11 2/32/12
f 24/73/13 12/52/14 2/7/15 31/80/16
f 13/41/17 9/13/18 10/44/19 14/11/20
f 15/19/21 22/68/22 23/69/23 11/54/24
f 16/27/25 15/26/26 11/29/27 12/48/28
f 24/72/29 21/66/30 16/2/31 12/5/32
f 19/61/33 18/60/34 14/18/35 10/21/36
f 29/78/37 19/62/38 10/55/39 6/23/40
f 9/6/41 20/84/42 32/81/43 4/8/44
f 13/50/45 17/58/46 20/63/47 9/56/48
f 1/1/49 27/88/50 28/77/51 3/4/52
f 7/37/53 1/38/54 3/39/55 5/40/56
f 5/17/57 25/90/58 26/75/59 7/20/60
f 23/69/61 22/68/62 18/60/63 19/61/64
f 30/87/65 23/70/66 19/97/67 29/86/68
f 2/33/69 8/34/70 6/35/71 4/36/72
f 20/64/73 24/85/74 31/82/75 32/83/76
f 20/63/77 17/58/78 21/66/79 24/72/80
f 3/9/81 13/10/82 14/42/83 5/12/84
f 25/90/85 5/17/86 14/53/87 18/93/88
f 26/91/89 25/74/90 18/59/91 22/92/92
f 7/20/93 26/75/94 22/67/95 15/51/96
f 1/28/97 7/25/98 15/45/99 16/46/100
f 27/88/101 1/1/102 16/49/103 21/65/104
f 28/89/105 27/76/106 21/95/107 17/57/108
f 3/4/109 28/77/110 17/96/111 13/3/112
f 8/24/113 30/79/114 29/78/115 6/23/116
f 32/81/117 31/80/118 2/71/119 4/8/120
