# This file uses centimeters as units for non-parametric coordinates.

v 7.290710 -6.131767 72.326294
v 7.290710 6.131782 72.326294
v -7.290710 -6.131782 72.326324
v -7.290710 6.131782 72.326324
v -6.858215 -5.768008 -76.143097
v -6.858215 5.768022 -76.143097
v 6.858215 -5.767994 -76.143097
v 6.858154 5.768022 -76.143097
v 7.290710 6.131782 1.038101
v -7.290710 6.131782 1.038116
v -7.290710 -6.131775 1.038116
v 7.290710 -6.131761 1.038101
v 4.903381 4.123946 -67.090347
v -4.903442 4.123946 -67.090347
v -4.903442 -4.123930 -67.090347
v 4.903381 -4.123920 -67.090347
v 6.858215 5.768022 -67.090347
v -6.858215 5.768022 -67.090347
v -6.858215 -5.768010 -67.090347
v 6.858215 -5.767997 -67.090347
v 5.355652 4.504286 -30.241531
v -5.355530 4.504286 -30.241531
v -5.355530 -4.504271 -30.241531
v 5.355652 -4.504261 -30.241531
v -4.785889 -4.025068 76.143082
v 4.785828 -4.025059 76.143051
v 4.785828 4.025068 76.143051
v -4.785889 4.025068 76.143082
vt 0.236575 0.398205
vt 0.297998 0.398205
vt 0.297998 0.398205
vt 0.236575 0.398205
vt 0.359377 0.398205
vt 0.359377 0.398205
vt 0.359377 0.398205
vt 0.359377 0.398205
vt 0.297998 0.398205
vt 0.297998 0.398205
vt 0.359377 0.398205
vt 0.359377 0.398205
vt 0.236575 0.398205
vt 0.236575 0.398205
vt 0.171345 0.398205
vt 0.236575 0.398205
vt 0.359377 0.398205
vt 0.359377 0.398205
vt 0.171345 0.398205
vt 0.171345 0.398205
vt 0.236575 0.398205
vt 0.236575 0.398205
vt 0.236575 0.398205
vt 0.171345 0.398205
vt 0.297998 0.398205
vt 0.236575 0.398205
vt 0.236575 0.398205
vt 0.297998 0.398205
vt 0.236575 0.398205
vt 0.171345 0.398205
vt 0.236575 0.398205
vt 0.171345 0.398205
vt 0.417983 0.477572
vt 0.389670 0.477572
vt 0.389670 0.477572
vt 0.417983 0.477572
vt 0.389670 0.477572
vt 0.328519 0.477572
vt 0.389670 0.477572
vt 0.328519 0.477572
vt 0.297998 0.398205
vt 0.236575 0.398205
vt 0.236575 0.398205
vt 0.297998 0.398205
vt 0.236575 0.398205
vt 0.171345 0.398205
vt 0.236575 0.398205
vt 0.171345 0.398205
vt 0.297998 0.398205
vt 0.236575 0.398205
vt 0.389670 0.477572
vt 0.417983 0.477572
vt 0.389670 0.477572
vt 0.328519 0.477572
vt 0.389670 0.477572
vt 0.328519 0.477572
vt 0.328519 0.398205
vt 0.328519 0.398205
vt 0.328519 0.398205
vt 0.328519 0.398205
vt 0.328519 0.398205
vt 0.328519 0.398205
vt 0.328519 0.398205
vt 0.328519 0.398205
vt 0.171345 0.398205
vt 0.236575 0.398205
vt 0.417983 0.477572
vt 0.389670 0.477572
vt 0.236575 0.398205
vt 0.171345 0.398205
vt 0.297998 0.398205
vt 0.236575 0.398205
vt 0.359377 0.398205
vt 0.359377 0.398205
vt 0.359377 0.398205
vt 0.359377 0.398205
vn -1.000000 0.000000 0.000000
vn -1.000000 0.000000 0.000000
vn -1.000000 0.000000 0.000000
vn -1.000000 0.000000 0.000000
vn -0.000000 0.000000 -1.000000
vn -0.000000 0.000000 -1.000000
vn -0.000000 0.000000 -1.000000
vn -0.000000 0.000000 -1.000000
vn 0.000000 1.000000 0.000000
vn 0.000000 1.000000 0.000000
vn 0.000000 1.000000 0.000000
vn 0.000000 1.000000 0.000000
vn 1.000000 0.000000 0.000000
vn 1.000000 0.000000 0.000000
vn 1.000000 0.000000 0.000000
vn 1.000000 0.000000 0.000000
vn 0.000001 -1.000000 -0.000000
vn 0.000001 -1.000000 -0.000000
vn 0.000001 -1.000000 -0.000000
vn 0.000001 -1.000000 -0.000000
vn 0.000004 0.000000 1.000000
vn 0.000004 0.000000 1.000000
vn 0.000004 0.000000 1.000000
vn 0.000004 0.000000 1.000000
vn -0.000000 0.998649 -0.051960
vn -0.000000 0.998649 -0.051960
vn -0.000000 0.998649 -0.051960
vn -0.000000 0.998649 -0.051960
vn -0.998092 0.000000 -0.061749
vn -0.998092 0.000000 -0.061749
vn -0.998092 0.000000 -0.061749
vn -0.998092 0.000000 -0.061749
vn 0.000001 -0.998649 -0.051960
vn 0.000001 -0.998649 -0.051960
vn 0.000001 -0.998649 -0.051960
vn 0.000001 -0.998649 -0.051960
vn 0.998092 0.000000 -0.061745
vn 0.998092 0.000000 -0.061745
vn 0.998092 0.000000 -0.061745
vn 0.998092 0.000000 -0.061745
vn 0.000000 0.000000 1.000000
vn 0.000000 0.000000 1.000000
vn 0.000000 0.000000 1.000000
vn 0.000000 0.000000 1.000000
vn 0.000000 0.000000 1.000000
vn 0.000000 0.000000 1.000000
vn 0.000000 0.000000 1.000000
vn 0.000000 0.000000 1.000000
vn -0.000000 0.000000 1.000000
vn -0.000000 0.000000 1.000000
vn -0.000000 0.000000 1.000000
vn -0.000000 0.000000 1.000000
vn 0.000002 0.000000 1.000000
vn 0.000002 0.000000 1.000000
vn 0.000002 0.000000 1.000000
vn 0.000002 0.000000 1.000000
vn 0.000000 1.000000 0.000000
vn 0.000000 1.000000 0.000000
vn 0.000000 1.000000 0.000000
vn 0.000000 1.000000 0.000000
vn -1.000000 0.000000 0.000000
vn -1.000000 0.000000 0.000000
vn -1.000000 0.000000 0.000000
vn -1.000000 0.000000 0.000000
vn 0.000001 -1.000000 -0.000000
vn 0.000001 -1.000000 -0.000000
vn 0.000001 -1.000000 -0.000000
vn 0.000001 -1.000000 -0.000000
vn 1.000000 0.000003 -0.000003
vn 1.000000 0.000003 -0.000003
vn 1.000000 0.000003 -0.000003
vn 1.000000 0.000003 -0.000003
vn 0.000000 0.999947 -0.010321
vn 0.000000 0.999947 -0.010321
vn 0.000000 0.999947 -0.010321
vn 0.000000 0.999947 -0.010321
vn -0.999925 0.000000 -0.012268
vn -0.999925 0.000000 -0.012268
vn -0.999925 0.000000 -0.012268
vn -0.999925 0.000000 -0.012268
vn 0.000001 -0.999947 -0.010321
vn 0.000001 -0.999947 -0.010321
vn 0.000001 -0.999947 -0.010321
vn 0.000001 -0.999947 -0.010321
vn 0.999925 0.000000 -0.012273
vn 0.999925 0.000000 -0.012273
vn 0.999925 0.000000 -0.012273
vn 0.999925 0.000000 -0.012273
vn 0.000002 -0.875489 0.483238
vn 0.000002 -0.875489 0.483238
vn 0.000002 -0.875489 0.483238
vn 0.000002 -0.875489 0.483238
vn 0.836034 0.000000 0.548677
vn 0.836034 0.000000 0.548677
vn 0.836034 0.000000 0.548677
vn 0.836034 0.000000 0.548677
vn 0.000001 0.875489 0.483238
vn 0.000001 0.875489 0.483238
vn 0.000001 0.875489 0.483238
vn 0.000001 0.875489 0.483238
vn -0.836041 0.000000 0.548667
vn -0.836041 0.000000 0.548667
vn -0.836041 0.000000 0.548667
vn -0.836041 0.000000 0.548667
s off
f 3/1/1 4/21/2 10/27/3 11/29/4
f 5/5/5 6/6/6 8/7/7 7/8/8
f 2/9/9 9/25/10 10/28/11 4/2/12
f 12/31/13 9/26/14 2/14/15 1/23/16
f 11/30/17 12/32/18 1/15/19 3/20/20
f 25/73/21 26/74/22 27/75/23 28/76/24
f 10/28/25 9/25/26 21/49/27 22/71/28
f 11/29/29 10/27/30 22/72/31 23/69/32
f 23/70/33 24/65/34 12/32/35 11/30/36
f 24/66/37 21/50/38 9/26/39 12/31/40
f 14/57/41 13/58/42 17/59/43 18/60/44
f 15/63/45 14/57/46 18/60/47 19/64/48
f 19/64/49 20/61/50 16/62/51 15/63/52
f 20/61/53 17/59/54 13/58/55 16/62/56
f 18/44/57 17/41/58 8/10/59 6/3/60
f 19/45/61 18/43/62 6/22/63 5/4/64
f 7/24/65 20/48/66 19/46/67 5/19/68
f 8/13/69 17/42/70 20/47/71 7/16/72
f 22/52/73 21/67/74 13/33/75 14/36/76
f 23/53/77 22/51/78 14/35/79 15/37/80
f 15/38/81 16/40/82 24/56/83 23/54/84
f 16/39/85 13/34/86 21/68/87 24/55/88
f 3/17/89 1/18/90 26/74/91 25/73/92
f 1/18/93 2/12/94 27/75/95 26/74/96
f 2/12/97 4/11/98 28/76/99 27/75/100
f 4/11/101 3/17/102 25/73/103 28/76/104
