# This file uses centimeters as units for non-parametric coordinates.

v -21.573486 5.678131 7.918793
v 21.573486 5.678131 7.918793
v -21.573486 5.678131 -23.963280
v 21.573486 5.678131 -23.963280
v -0.172852 5.678131 7.918793
v -0.172852 5.678131 23.963249
v 21.573486 5.678131 23.963249
v -17.864502 5.678131 4.932251
v 3.386719 5.678131 4.932251
v -17.864502 5.678131 -20.051704
v 17.804443 5.678131 7.471302
v 17.804443 5.678131 -20.051704
v 3.386719 5.678131 20.418533
v 17.804443 5.678131 20.418533
v 6.822754 5.678131 14.641327
v 12.302490 5.678131 14.772675
v -8.504639 5.678131 -10.366385
v -8.460938 5.678131 -5.462788
v 15.524658 5.678131 -10.366385
v 15.524658 5.678131 -5.462788
v 12.302490 5.678131 -5.462788
v 6.822754 5.678131 -5.462788
v -21.573486 -5.678126 7.918793
v 21.573486 -5.678126 7.918793
v -21.573486 -5.678126 -23.963280
v 21.573486 -5.678126 -23.963280
v -0.172852 -5.678126 7.918793
v -0.172852 -5.678126 23.963249
v 21.573486 -5.678126 23.963249
v -17.864502 -5.678126 4.932251
v 3.386719 -5.678126 4.932251
v -17.864502 -5.678126 -20.051704
v 17.804443 -5.678126 7.471302
v 17.804443 -5.678126 -20.051704
v 3.386719 -5.678126 20.418533
v 17.804443 -5.678126 20.418533
v 6.822754 -5.678126 14.641327
v 12.302490 -5.678126 14.772675
v -8.504639 -5.678126 -10.366385
v -8.460938 -5.678126 -5.462788
v 15.524658 -5.678126 -10.366385
v 15.524658 -5.678126 -5.462788
v 12.302490 -5.678126 -5.462788
v 6.822754 -5.678126 -5.462788
vt 0.359377 0.444286
vt 0.359377 0.444286
vt 0.453192 0.310840
vt 0.417983 0.444286
vt 0.417983 0.444286
vt 0.417983 0.444286
vt 0.417983 0.444286
vt 0.417983 0.444286
vt 0.417983 0.444286
vt 0.417983 0.444286
vt 0.417983 0.444286
vt 0.417983 0.444286
vt 0.417983 0.444286
vt 0.417983 0.444286
vt 0.417983 0.444286
vt 0.359377 0.444286
vt 0.359377 0.444286
vt 0.264925 0.444286
vt 0.264925 0.444286
vt 0.264925 0.444286
vt 0.264925 0.444286
vt 0.264925 0.444286
vt 0.359377 0.444286
vt 0.359377 0.444286
vt 0.264925 0.444286
vt 0.264925 0.444286
vt 0.453192 0.310840
vt 0.417983 0.444286
vt 0.453192 0.310840
vt 0.453192 0.310840
vt 0.453192 0.310840
vt 0.453192 0.310840
vt 0.453192 0.310840
vt 0.417983 0.444286
vt 0.453192 0.310840
vt 0.264925 0.444286
vt 0.297998 0.444286
vt 0.453192 0.310840
vt 0.453192 0.310840
vt 0.453192 0.310840
vt 0.297998 0.444286
vt 0.297998 0.444286
vt 0.297998 0.444286
vt 0.297998 0.444286
vt 0.297998 0.444286
vt 0.453192 0.310840
vt 0.453192 0.310840
vt 0.297998 0.444286
vt 0.453192 0.310840
vt 0.453192 0.310840
vt 0.453192 0.310840
vt 0.453192 0.310840
vt 0.297998 0.444286
vt 0.453192 0.310840
vt 0.453192 0.310840
vt 0.453192 0.310840
vt 0.453192 0.310840
vt 0.417983 0.444286
vt 0.417983 0.444286
vt 0.417983 0.444286
vt 0.417983 0.444286
vt 0.417983 0.444286
vt 0.417983 0.444286
vt 0.417983 0.444286
vt 0.417983 0.444286
vt 0.417983 0.444286
vt 0.417983 0.444286
vt 0.417983 0.444286
vt 0.417983 0.444286
vt 0.417983 0.444286
vt 0.417983 0.444286
vt 0.453192 0.310840
vt 0.453192 0.310840
vt 0.453192 0.310840
vt 0.453192 0.310840
vt 0.453192 0.310840
vt 0.453192 0.310840
vt 0.297998 0.444286
vt 0.297998 0.444286
vt 0.297998 0.444286
vt 0.297998 0.444286
vt 0.297998 0.444286
vt 0.297998 0.444286
vt 0.297998 0.444286
vt 0.297998 0.444286
vt 0.453192 0.310840
vt 0.453192 0.310840
vt 0.453192 0.310840
vt 0.453192 0.310840
vt 0.453192 0.310840
vt 0.453192 0.310840
vt 0.453192 0.310840
vt 0.264925 0.444286
vt 0.264925 0.444286
vt 0.359377 0.444286
vt 0.359377 0.444286
vt 0.264925 0.444286
vt 0.264925 0.444286
vt 0.264925 0.444286
vt 0.264925 0.444286
vt 0.359377 0.444286
vt 0.359377 0.444286
vt 0.264925 0.444286
vt 0.264925 0.444286
vt 0.359377 0.444286
vt 0.359377 0.444286
vt 0.297998 0.444286
vt 0.297998 0.444286
vt 0.297998 0.444286
vt 0.297998 0.444286
vt 0.297998 0.444286
vt 0.297998 0.444286
vt 0.297998 0.444286
vt 0.297998 0.444286
vt 0.297998 0.444286
vt 0.297998 0.444286
vt 0.297998 0.444286
vt 0.297998 0.444286
vn 0.000000 1.000000 0.000000
vn 0.000000 1.000000 0.000000
vn 0.000000 1.000000 0.000000
vn 0.000000 1.000000 0.000000
vn 0.000000 1.000000 0.000000
vn 0.000000 1.000000 0.000000
vn 0.000000 1.000000 0.000000
vn 0.000000 1.000000 0.000000
vn 0.000000 1.000000 0.000000
vn 0.000000 1.000000 0.000000
vn 0.000000 1.000000 0.000000
vn 0.000000 1.000000 0.000000
vn 0.000000 1.000000 0.000000
vn 0.000000 1.000000 0.000000
vn 0.000000 1.000000 0.000000
vn 0.000000 1.000000 0.000000
vn 0.000000 1.000000 0.000000
vn 0.000000 1.000000 0.000000
vn 0.000000 1.000000 0.000000
vn 0.000000 1.000000 0.000000
vn 0.000000 1.000000 0.000000
vn 0.000000 1.000000 0.000000
vn 0.000000 1.000000 0.000000
vn 0.000000 1.000000 0.000000
vn 0.000000 1.000000 -0.000000
vn 0.000000 1.000000 -0.000000
vn 0.000000 1.000000 -0.000000
vn 0.000000 1.000000 -0.000000
vn 0.000000 1.000000 0.000000
vn 0.000000 1.000000 0.000000
vn 0.000000 1.000000 0.000000
vn 0.000000 1.000000 0.000000
vn 0.000000 1.000000 -0.000000
vn 0.000000 1.000000 -0.000000
vn 0.000000 1.000000 -0.000000
vn 0.000000 1.000000 -0.000000
vn 0.000000 1.000000 -0.000000
vn 0.000000 1.000000 -0.000000
vn 0.000000 1.000000 -0.000000
vn 0.000000 1.000000 0.000000
vn 0.000000 1.000000 0.000000
vn 0.000000 1.000000 0.000000
vn 0.000000 1.000000 0.000000
vn 0.000000 1.000000 0.000000
vn 0.000000 1.000000 0.000000
vn 0.000000 1.000000 0.000000
vn 0.000000 1.000000 0.000000
vn 0.000000 1.000000 0.000000
vn 0.000000 1.000000 0.000000
vn 0.000000 1.000000 0.000000
vn 0.000000 1.000000 0.000000
vn 0.000000 1.000000 0.000000
vn 0.000000 1.000000 0.000000
vn 0.000000 1.000000 0.000000
vn 0.000000 1.000000 0.000000
vn 0.000000 1.000000 0.000000
vn 0.000000 1.000000 0.000000
vn 0.000000 1.000000 0.000000
vn 0.000000 1.000000 0.000000
vn 0.000000 1.000000 0.000000
vn 0.000000 1.000000 0.000000
vn 0.000000 1.000000 0.000000
vn 0.000000 1.000000 0.000000
vn 0.000000 1.000000 0.000000
vn 0.000000 1.000000 0.000000
vn 0.000000 1.000000 0.000000
vn 0.000000 1.000000 0.000000
vn 0.000000 1.000000 0.000000
vn 0.000000 1.000000 0.000000
vn 0.000000 1.000000 0.000000
vn 0.000000 1.000000 0.000000
vn 0.000000 1.000000 0.000000
vn 0.000000 1.000000 0.000000
vn 0.000000 1.000000 0.000000
vn 0.000000 1.000000 0.000000
vn 0.000000 1.000000 0.000000
vn 0.000000 1.000000 0.000000
vn 0.000000 -1.000000 0.000000
vn 0.000000 -1.000000 0.000000
vn 0.000000 -1.000000 0.000000
vn 0.000000 -1.000000 0.000000
vn 0.000000 -1.000000 0.000000
vn 0.000000 -1.000000 0.000000
vn 0.000000 -1.000000 0.000000
vn 0.000000 -1.000000 0.000000
vn 0.000000 -1.000000 0.000000
vn 0.000000 -1.000000 0.000000
vn 0.000000 -1.000000 0.000000
vn 0.000000 -1.000000 0.000000
vn 0.000000 -1.000000 0.000000
vn 0.000000 -1.000000 0.000000
vn 0.000000 -1.000000 0.000000
vn 0.000000 -1.000000 0.000000
vn 0.000000 -1.000000 -0.000000
vn 0.000000 -1.000000 -0.000000
vn 0.000000 -1.000000 -0.000000
vn 0.000000 -1.000000 -0.000000
vn 0.000000 -1.000000 0.000000
vn 0.000000 -1.000000 0.000000
vn 0.000000 -1.000000 0.000000
vn 0.000000 -1.000000 0.000000
vn 0.000000 -1.000000 -0.000000
vn 0.000000 -1.000000 -0.000000
vn 0.000000 -1.000000 -0.000000
vn 0.000000 -1.000000 -0.000000
vn 0.000000 -1.000000 0.000000
vn 0.000000 -1.000000 0.000000
vn 0.000000 -1.000000 0.000000
vn 0.000000 -1.000000 0.000000
vn 0.000000 -1.000000 0.000000
vn 0.000000 -1.000000 0.000000
vn 0.000000 -1.000000 0.000000
vn 0.000000 -1.000000 0.000000
vn 0.000000 -1.000000 0.000000
vn 0.000000 -1.000000 0.000000
vn 0.000000 -1.000000 0.000000
vn 0.000000 -1.000000 -0.000000
vn 0.000000 -1.000000 -0.000000
vn 0.000000 -1.000000 -0.000000
vn 0.000000 -1.000000 0.000000
vn 0.000000 -1.000000 0.000000
vn 0.000000 -1.000000 0.000000
vn 0.000000 -1.000000 0.000000
vn 0.000000 -1.000000 0.000000
vn 0.000000 -1.000000 0.000000
vn 0.000000 -1.000000 0.000000
vn 0.000000 -1.000000 0.000000
vn 0.000000 -1.000000 0.000000
vn 0.000000 -1.000000 0.000000
vn 0.000000 -1.000000 0.000000
vn 0.000000 -1.000000 0.000000
vn 0.000000 -1.000000 0.000000
vn 0.000000 -1.000000 0.000000
vn 0.000000 -1.000000 0.000000
vn 0.000000 -1.000000 0.000000
vn 0.000000 -1.000000 0.000000
vn 0.000000 -1.000000 0.000000
vn 0.000000 -1.000000 0.000000
vn 0.000000 -1.000000 0.000000
vn 0.000000 -1.000000 0.000000
vn 0.000000 -1.000000 0.000000
vn 0.000000 -1.000000 0.000000
vn 0.000000 -1.000000 0.000000
vn 0.000000 -1.000000 0.000000
vn 0.000000 -1.000000 0.000000
vn 0.000000 -1.000000 0.000000
vn 0.000000 -1.000000 0.000000
vn 0.000000 -1.000000 0.000000
vn 0.000000 -1.000000 0.000000
vn 0.000000 -1.000000 0.000000
vn 0.000000 -1.000000 0.000000
vn 0.000000 -1.000000 0.000000
vn 0.000000 -1.000000 0.000000
vn 0.000000 -1.000000 0.000000
vn -1.000000 0.000000 0.000000
vn -1.000000 0.000000 0.000000
vn -1.000000 0.000000 0.000000
vn -1.000000 0.000000 0.000000
vn 0.000000 0.000000 -1.000000
vn 0.000000 0.000000 -1.000000
vn 0.000000 0.000000 -1.000000
vn 0.000000 0.000000 -1.000000
vn 1.000000 0.000000 0.000000
vn 1.000000 0.000000 0.000000
vn 1.000000 0.000000 0.000000
vn 1.000000 0.000000 0.000000
vn 1.000000 0.000000 0.000000
vn 1.000000 0.000000 0.000000
vn 1.000000 0.000000 0.000000
vn 1.000000 0.000000 0.000000
vn 0.000000 0.000000 1.000000
vn 0.000000 0.000000 1.000000
vn 0.000000 0.000000 1.000000
vn 0.000000 0.000000 1.000000
vn -1.000000 0.000000 0.000000
vn -1.000000 0.000000 0.000000
vn -1.000000 0.000000 0.000000
vn -1.000000 0.000000 0.000000
vn 0.000000 0.000000 1.000000
vn 0.000000 0.000000 1.000000
vn 0.000000 0.000000 1.000000
vn 0.000000 0.000000 1.000000
s off
f 8/3/1 18/40/2 17/39/3 10/35/4
f 1/6/5 5/7/6 9/4/7 8/34/8
f 3/9/9 1/6/10 8/34/11 10/5/12
f 2/13/13 4/14/14 12/8/15 11/28/16
f 12/8/17 4/14/18 3/9/19 10/5/20
f 5/7/21 6/10/22 13/11/23 9/4/24
f 6/10/25 7/15/26 14/12/27 13/11/28
f 7/15/29 2/13/30 11/28/31 14/12/32
f 8/3/33 9/31/34 18/40/35
f 12/33/36 10/35/37 17/39/38 19/51/39
f 9/32/40 22/47/41 18/46/42
f 22/45/43 17/48/44 18/44/45
f 16/53/46 21/116/47 22/114/48 15/37/49
f 19/41/50 21/43/51 20/42/52
f 22/113/53 21/117/54 19/118/55 17/115/56
f 12/33/57 19/51/58 20/50/59 11/27/60
f 11/27/61 16/38/62 14/29/63
f 14/29/64 16/38/65 15/52/66 13/30/67
f 15/52/68 9/32/69 13/30/70
f 11/27/71 20/50/72 21/49/73 16/38/74
f 15/52/75 22/47/76 9/32/77
f 30/54/78 32/57/79 39/56/80 40/55/81
f 23/58/82 30/61/83 31/60/84 27/59/85
f 25/62/86 32/63/87 30/61/88 23/58/89
f 24/64/90 33/67/91 34/66/92 26/65/93
f 34/66/94 32/63/95 25/62/96 26/65/97
f 27/59/98 31/60/99 35/69/100 28/68/101
f 28/68/102 35/69/103 36/71/104 29/70/105
f 29/70/106 36/71/107 33/67/108 24/64/109
f 30/54/110 40/55/111 31/72/112
f 34/73/113 41/74/114 39/56/115 32/57/116
f 31/75/117 40/77/118 44/76/119
f 44/108/120 40/80/121 39/109/122
f 38/81/123 37/83/124 44/78/125 43/110/126
f 41/112/127 42/85/128 43/111/129
f 44/107/130 39/79/131 41/84/132 43/82/133
f 34/73/134 33/87/135 42/86/136 41/74/137
f 33/87/138 36/89/139 38/88/140
f 36/89/141 35/91/142 37/90/143 38/88/144
f 37/90/145 35/91/146 31/75/147
f 33/87/148 38/88/149 43/92/150 42/86/151
f 37/90/152 31/75/153 44/76/154
f 3/22/155 25/94/156 23/93/157 1/21/158
f 4/17/159 26/96/160 25/95/161 3/16/162
f 2/19/163 24/98/164 26/97/165 4/18/166
f 7/20/167 29/100/168 24/99/169 2/36/170
f 6/23/171 28/101/172 29/102/173 7/24/174
f 5/25/175 27/103/176 28/104/177 6/26/178
f 1/2/179 23/106/180 27/105/181 5/1/182
