# This file uses centimeters as units for non-parametric coordinates.

v -9.904663 -40.765915 9.904922
v 9.904785 -40.765915 9.904922
v -11.659790 11.093231 11.660088
v 11.660034 11.093231 11.660088
v -11.659790 11.093231 -11.660072
v 11.660034 11.093231 -11.660072
v -9.904663 -40.765915 -9.904907
v 9.904785 -40.765915 -9.904907
v -14.489502 11.093231 14.489548
v 14.489624 11.093231 14.489548
v 14.489624 11.093231 -14.489532
v -14.489502 11.093231 -14.489532
v -14.489502 13.882874 14.489548
v 14.489624 13.882874 14.489548
v 14.489624 13.882874 -14.489532
v -14.489502 13.882874 -14.489532
v -9.687134 13.882874 9.687202
v 9.687378 13.882874 9.687202
v 9.687378 13.882874 -9.687195
v -9.687134 13.882874 -9.687195
v -9.687134 16.536896 9.687202
v 9.687378 16.536896 9.687202
v 9.687378 16.536896 -9.687195
v -9.687134 16.536896 -9.687195
v -1.689941 16.400467 1.468048
v 1.246216 16.400467 1.468048
v -1.689941 40.765900 -5.093414
v 1.246216 40.765900 -5.093414
v -1.689941 38.689819 -7.169510
v 1.246216 38.689819 -7.169510
v -1.689941 16.400467 -1.468040
v 1.246216 16.400467 -1.468040
v 1.246216 30.799561 1.468048
v -1.689941 30.799561 1.468048
v -1.689941 29.279007 -1.468040
v 1.246216 29.279007 -1.468040
vt 0.264925 0.375776
vt 0.328519 0.375776
vt 0.328519 0.477572
vt 0.328519 0.477572
vt 0.328519 0.477572
vt 0.328519 0.477572
vt 0.202875 0.375776
vt 0.328519 0.375776
vt 0.202875 0.375776
vt 0.202875 0.375776
vt 0.264925 0.375776
vt 0.264925 0.375776
vt 0.264925 0.375776
vt 0.264925 0.375776
vt 0.389670 0.477572
vt 0.359377 0.477572
vt 0.389670 0.477572
vt 0.359377 0.477572
vt 0.417983 0.477572
vt 0.417983 0.477572
vt 0.417983 0.477572
vt 0.417983 0.477572
vt 0.389670 0.477572
vt 0.359377 0.477572
vt 0.389670 0.477572
vt 0.359377 0.477572
vt 0.417983 0.477572
vt 0.359377 0.477572
vt 0.389670 0.477572
vt 0.359377 0.477572
vt 0.389670 0.477572
vt 0.359377 0.477572
vt 0.389670 0.477572
vt 0.417983 0.477572
vt 0.359377 0.477572
vt 0.417983 0.477572
vt 0.417983 0.477572
vt 0.417983 0.477572
vt 0.389670 0.477572
vt 0.389670 0.477572
vt 0.417983 0.477572
vt 0.417983 0.477572
vt 0.417983 0.477572
vt 0.359377 0.477572
vt 0.417983 0.477572
vt 0.417983 0.477572
vt 0.389670 0.477572
vt 0.417983 0.477572
vt 0.417983 0.477572
vt 0.359377 0.477572
vt 0.359377 0.477572
vt 0.389670 0.477572
vt 0.417983 0.477572
vt 0.389670 0.477572
vt 0.359377 0.477572
vt 0.417983 0.477572
vt 0.359377 0.477572
vt 0.389670 0.477572
vt 0.417983 0.477572
vt 0.389670 0.477572
vt 0.359377 0.477572
vt 0.417983 0.477572
vt 0.328519 0.477572
vt 0.328519 0.477572
vt 0.389670 0.477572
vt 0.328519 0.477572
vt 0.328519 0.477572
vt 0.359377 0.477572
vt 0.328519 0.477572
vt 0.328519 0.477572
vt 0.389670 0.477572
vt 0.328519 0.477572
vt 0.328519 0.477572
vt 0.359377 0.477572
vt 0.328519 0.375776
vt 0.328519 0.477572
vt 0.328519 0.375776
vt 0.328519 0.477572
vt 0.264925 0.375776
vt 0.328519 0.375776
vt 0.328519 0.477572
vt 0.328519 0.375776
vt 0.264925 0.375776
vt 0.328519 0.477572
vt 0.202875 0.375776
vt 0.264925 0.375776
vt 0.328519 0.375776
vt 0.328519 0.375776
vt 0.328519 0.477572
vt 0.328519 0.477572
vt 0.328519 0.477572
vt 0.328519 0.477572
vt 0.359377 0.477572
vt 0.359377 0.477572
vt 0.359377 0.477572
vt 0.359377 0.477572
vt 0.328519 0.477572
vt 0.328519 0.477572
vt 0.328519 0.477572
vt 0.328519 0.477572
vt 0.359377 0.477572
vt 0.359377 0.477572
vt 0.359377 0.477572
vt 0.359377 0.477572
vt 0.297998 0.477572
vt 0.297998 0.477572
vt 0.297998 0.477572
vt 0.297998 0.477572
vt 0.297998 0.477572
vt 0.297998 0.477572
vt 0.297998 0.477572
vt 0.297998 0.477572
vt 0.359377 0.477572
vt 0.359377 0.477572
vt 0.359377 0.477572
vt 0.359377 0.477572
vt 0.297998 0.477572
vt 0.297998 0.477572
vt 0.297998 0.477572
vt 0.297998 0.477572
vt 0.264925 0.477572
vt 0.264925 0.477572
vt 0.264925 0.477572
vt 0.264925 0.477572
vt 0.297998 0.477572
vt 0.297998 0.477572
vt 0.297998 0.477572
vt 0.297998 0.477572
vn 0.000000 -0.033825 0.999428
vn 0.000000 -0.033825 0.999428
vn 0.000000 -0.033825 0.999428
vn 0.000000 -0.033825 0.999428
vn 0.000000 1.000000 0.000000
vn 0.000000 1.000000 0.000000
vn 0.000000 1.000000 0.000000
vn 0.000000 1.000000 0.000000
vn 0.000000 -0.033825 -0.999428
vn 0.000000 -0.033825 -0.999428
vn 0.000000 -0.033825 -0.999428
vn 0.000000 -0.033825 -0.999428
vn 0.000000 -1.000000 0.000000
vn 0.000000 -1.000000 0.000000
vn 0.000000 -1.000000 0.000000
vn 0.000000 -1.000000 0.000000
vn 0.999428 -0.033827 0.000000
vn 0.999428 -0.033827 0.000000
vn 0.999428 -0.033827 0.000000
vn 0.999428 -0.033827 0.000000
vn -0.999428 -0.033825 0.000000
vn -0.999428 -0.033825 0.000000
vn -0.999428 -0.033825 0.000000
vn -0.999428 -0.033825 0.000000
vn 0.000000 -1.000000 0.000000
vn 0.000000 -1.000000 0.000000
vn 0.000000 -1.000000 0.000000
vn 0.000000 -1.000000 0.000000
vn 0.000000 -1.000000 0.000000
vn 0.000000 -1.000000 0.000000
vn 0.000000 -1.000000 0.000000
vn 0.000000 -1.000000 0.000000
vn 0.000000 -1.000000 0.000000
vn 0.000000 -1.000000 0.000000
vn 0.000000 -1.000000 0.000000
vn 0.000000 -1.000000 0.000000
vn 0.000000 -1.000000 0.000000
vn 0.000000 -1.000000 0.000000
vn 0.000000 -1.000000 0.000000
vn 0.000000 -1.000000 0.000000
vn 0.000000 0.000000 1.000000
vn 0.000000 0.000000 1.000000
vn 0.000000 0.000000 1.000000
vn 0.000000 0.000000 1.000000
vn 1.000000 0.000000 0.000000
vn 1.000000 0.000000 0.000000
vn 1.000000 0.000000 0.000000
vn 1.000000 0.000000 0.000000
vn 0.000000 0.000000 -1.000000
vn 0.000000 0.000000 -1.000000
vn 0.000000 0.000000 -1.000000
vn 0.000000 0.000000 -1.000000
vn -1.000000 0.000000 0.000000
vn -1.000000 0.000000 0.000000
vn -1.000000 0.000000 0.000000
vn -1.000000 0.000000 0.000000
vn 0.000000 1.000000 0.000000
vn 0.000000 1.000000 0.000000
vn 0.000000 1.000000 0.000000
vn 0.000000 1.000000 0.000000
vn 0.000000 1.000000 0.000000
vn 0.000000 1.000000 0.000000
vn 0.000000 1.000000 0.000000
vn 0.000000 1.000000 0.000000
vn 0.000000 1.000000 0.000000
vn 0.000000 1.000000 0.000000
vn 0.000000 1.000000 0.000000
vn 0.000000 1.000000 0.000000
vn 0.000000 1.000000 0.000000
vn 0.000000 1.000000 0.000000
vn 0.000000 1.000000 0.000000
vn 0.000000 1.000000 0.000000
vn 0.000000 0.000000 1.000000
vn 0.000000 0.000000 1.000000
vn 0.000000 0.000000 1.000000
vn 0.000000 0.000000 1.000000
vn 1.000000 0.000000 0.000000
vn 1.000000 0.000000 0.000000
vn 1.000000 0.000000 0.000000
vn 1.000000 0.000000 0.000000
vn 0.000000 0.000000 -1.000000
vn 0.000000 0.000000 -1.000000
vn 0.000000 0.000000 -1.000000
vn 0.000000 0.000000 -1.000000
vn -1.000000 0.000000 0.000000
vn -1.000000 0.000000 0.000000
vn -1.000000 0.000000 0.000000
vn -1.000000 0.000000 0.000000
vn 0.000000 0.000000 1.000000
vn 0.000000 0.000000 1.000000
vn 0.000000 0.000000 1.000000
vn 0.000000 0.000000 1.000000
vn 0.000000 0.707110 -0.707104
vn 0.000000 0.707110 -0.707104
vn 0.000000 0.707110 -0.707104
vn 0.000000 0.707110 -0.707104
vn 0.000000 0.000000 -1.000000
vn 0.000000 0.000000 -1.000000
vn 0.000000 0.000000 -1.000000
vn 0.000000 0.000000 -1.000000
vn 0.000000 -1.000000 0.000000
vn 0.000000 -1.000000 0.000000
vn 0.000000 -1.000000 0.000000
vn 0.000000 -1.000000 0.000000
vn 1.000000 0.000000 0.000000
vn 1.000000 0.000000 0.000000
vn 1.000000 0.000000 0.000000
vn 1.000000 0.000000 0.000000
vn -1.000000 0.000000 0.000000
vn -1.000000 0.000000 0.000000
vn -1.000000 0.000000 0.000000
vn -1.000000 0.000000 0.000000
vn 0.000000 0.549889 0.835238
vn 0.000000 0.549889 0.835238
vn 0.000000 0.549889 0.835238
vn 0.000000 0.549889 0.835238
vn -1.000000 0.000000 0.000000
vn -1.000000 0.000000 0.000000
vn -1.000000 0.000000 0.000000
vn -1.000000 0.000000 0.000000
vn 0.000000 -0.518165 -0.855281
vn 0.000000 -0.518165 -0.855281
vn 0.000000 -0.518165 -0.855281
vn 0.000000 -0.518165 -0.855281
vn 1.000000 0.000000 0.000000
vn 1.000000 0.000000 0.000000
vn 1.000000 0.000000 0.000000
vn 1.000000 0.000000 0.000000
s off
f 1/88/1 2/2/2 4/80/3 3/82/4
f 21/27/5 22/41/6 23/36/7 24/34/8
f 5/75/9 6/77/10 8/8/11 7/87/12
f 7/7/13 8/85/14 2/10/15 1/9/16
f 2/86/17 8/11/18 6/12/19 4/79/20
f 7/13/21 1/1/22 3/83/23 5/14/24
f 3/3/25 4/81/26 10/70/27 9/72/28
f 4/4/29 6/78/30 11/67/31 10/69/32
f 6/6/33 5/76/34 12/64/35 11/66/36
f 5/5/37 3/84/38 9/73/39 12/63/40
f 9/15/41 10/71/42 14/58/43 13/60/44
f 10/16/45 11/68/46 15/55/47 14/57/48
f 11/17/49 12/65/50 16/52/51 15/54/52
f 12/18/53 9/74/54 13/61/55 16/51/56
f 13/19/57 14/59/58 18/46/59 17/48/60
f 14/20/61 15/56/62 19/43/63 18/45/64
f 15/21/65 16/53/66 20/38/67 19/42/68
f 16/22/69 13/62/70 17/49/71 20/37/72
f 17/23/73 18/47/74 22/40/75 21/31/76
f 18/24/77 19/44/78 23/35/79 22/28/80
f 19/25/81 20/39/82 24/33/83 23/29/84
f 20/26/85 17/50/86 21/32/87 24/30/88
f 25/89/89 26/90/90 33/91/91 34/92/92
f 27/93/93 28/94/94 30/95/95 29/96/96
f 35/97/97 36/98/98 32/99/99 31/100/100
f 31/101/101 32/102/102 26/103/103 25/104/104
f 26/105/105 32/106/106 36/107/107 33/108/108
f 31/109/109 25/110/110 34/111/111 35/112/112
f 34/113/113 33/114/114 28/115/115 27/116/116
f 35/117/117 34/118/118 27/119/119 29/120/120
f 29/121/121 30/122/122 36/123/123 35/124/124
f 33/125/125 36/126/126 30/127/127 28/128/128
