# This file uses centimeters as units for non-parametric coordinates.

v -8.805237 9.796890 8.805267
v 8.805300 9.796890 8.805267
v 8.805300 9.796890 -8.805298
v -8.805237 9.796890 -8.805298
v -8.805237 14.917282 8.805267
v 8.805300 14.917282 8.805267
v 8.805300 14.917282 -8.805298
v -8.805237 14.917282 -8.805298
v -8.802856 -14.917274 8.802826
v -8.802856 -14.917274 -8.802856
v 8.802916 -14.917274 -8.802856
v 8.802916 -14.917274 8.802826
v 5.566467 -10.374073 8.802826
v -5.566406 -10.374073 8.802826
v 5.567932 5.253685 8.805267
v -5.567932 5.253685 8.805267
v -6.041437 14.917282 6.041430
v 6.041498 14.917282 6.041430
v 6.041498 14.917282 -6.041460
v -6.041437 14.917282 -6.041460
vt 0.417983 0.477572
vt 0.453192 0.477572
vt 0.417983 0.477572
vt 0.453192 0.477572
vt 0.236575 0.477572
vt 0.171345 0.477572
vt 0.202875 0.477572
vt 0.171345 0.477572
vt 0.453192 0.477572
vt 0.417983 0.477572
vt 0.453192 0.477572
vt 0.417983 0.477572
vt 0.417983 0.477572
vt 0.453192 0.477572
vt 0.453192 0.477572
vt 0.202875 0.477572
vt 0.417983 0.477572
vt 0.417983 0.477572
vt 0.171345 0.477572
vt 0.453192 0.477572
vt 0.202875 0.477572
vt 0.417983 0.477572
vt 0.171345 0.477572
vt 0.453192 0.477572
vt 0.202875 0.477572
vt 0.171345 0.477572
vt 0.202875 0.477572
vt 0.236575 0.477572
vt 0.171345 0.477572
vt 0.236575 0.477572
vt 0.171345 0.477572
vt 0.202875 0.477572
vt 0.236575 0.477572
vt 0.202875 0.477572
vt 0.171345 0.477572
vt 0.202875 0.477572
vt 0.328519 0.477572
vt 0.328519 0.477572
vt 0.328519 0.477572
vt 0.328519 0.477572
vt 0.328519 0.444286
vt 0.453192 0.477572
vt 0.453192 0.477572
vt 0.453192 0.477572
vt 0.328519 0.444286
vt 0.328519 0.444286
vt 0.453192 0.477572
vt 0.328519 0.444286
vt 0.264925 0.477572
vt 0.236575 0.477572
vt 0.236575 0.477572
vt 0.236575 0.477572
vt 0.236575 0.477572
vt 0.264925 0.477572
vt 0.264925 0.477572
vt 0.264925 0.477572
vn 0.000000 1.000000 0.000000
vn 0.000000 1.000000 0.000000
vn 0.000000 1.000000 0.000000
vn 0.000000 1.000000 0.000000
vn 0.000000 0.000000 1.000000
vn 0.000000 0.000000 1.000000
vn 0.000000 0.000000 1.000000
vn 0.000000 0.000000 1.000000
vn 1.000000 0.000000 0.000000
vn 1.000000 0.000000 0.000000
vn 1.000000 0.000000 0.000000
vn 1.000000 0.000000 0.000000
vn 0.000000 0.000000 -1.000000
vn 0.000000 0.000000 -1.000000
vn 0.000000 0.000000 -1.000000
vn 0.000000 0.000000 -1.000000
vn -1.000000 0.000000 0.000000
vn -1.000000 0.000000 0.000000
vn -1.000000 0.000000 0.000000
vn -1.000000 0.000000 0.000000
vn -1.000000 -0.000096 0.000000
vn -1.000000 -0.000096 0.000000
vn -1.000000 -0.000096 0.000000
vn -1.000000 -0.000096 0.000000
vn 0.000000 -0.000099 -1.000000
vn 0.000000 -0.000099 -1.000000
vn 0.000000 -0.000099 -1.000000
vn 0.000000 -0.000099 -1.000000
vn 1.000000 -0.000096 0.000000
vn 1.000000 -0.000096 0.000000
vn 1.000000 -0.000096 0.000000
vn 1.000000 -0.000096 0.000000
vn 0.000000 -0.000156 1.000000
vn 0.000000 -0.000156 1.000000
vn 0.000000 -0.000156 1.000000
vn 0.000000 -0.000156 1.000000
vn 0.000000 -1.000000 0.000000
vn 0.000000 -1.000000 0.000000
vn 0.000000 -1.000000 0.000000
vn 0.000000 -1.000000 0.000000
vn 0.000000 0.000000 1.000000
vn 0.000000 0.000000 1.000000
vn 0.000000 0.000000 1.000000
vn 0.000000 0.000000 1.000000
vn 0.000000 -0.000121 1.000000
vn 0.000000 -0.000121 1.000000
vn 0.000000 -0.000121 1.000000
vn 0.000000 -0.000121 1.000000
vn 0.000000 0.000000 1.000000
vn 0.000000 0.000000 1.000000
vn 0.000000 0.000000 1.000000
vn 0.000000 0.000000 1.000000
vn 0.000000 -0.000121 1.000000
vn 0.000000 -0.000121 1.000000
vn 0.000000 -0.000121 1.000000
vn 0.000000 -0.000121 1.000000
vn 0.000000 1.000000 -0.000000
vn 0.000000 1.000000 -0.000000
vn 0.000000 1.000000 -0.000000
vn 0.000000 1.000000 -0.000000
vn 0.000000 1.000000 0.000000
vn 0.000000 1.000000 0.000000
vn 0.000000 1.000000 0.000000
vn 0.000000 1.000000 0.000000
vn 0.000000 1.000000 0.000000
vn 0.000000 1.000000 0.000000
vn 0.000000 1.000000 0.000000
vn 0.000000 1.000000 0.000000
vn 0.000000 1.000000 0.000000
vn 0.000000 1.000000 0.000000
vn 0.000000 1.000000 0.000000
vn 0.000000 1.000000 0.000000
s off
f 17/49/1 18/56/2 19/55/3 20/54/4
f 1/36/5 2/16/6 6/32/7 5/25/8
f 2/35/9 3/19/10 7/29/11 6/6/12
f 3/34/13 4/21/14 8/27/15 7/7/16
f 4/31/17 1/23/18 5/26/19 8/8/20
f 10/18/21 9/13/22 1/1/23 4/22/24
f 11/15/25 10/9/26 4/4/27 3/20/28
f 12/12/29 11/10/30 3/3/31 2/17/32
f 14/41/33 13/48/34 15/46/35 16/45/36
f 10/37/37 11/38/38 12/39/39 9/40/40
f 9/14/41 12/11/42 13/42/43 14/47/44
f 13/42/45 12/11/46 2/2/47 15/43/48
f 2/2/49 1/24/50 16/44/51 15/43/52
f 14/47/53 16/44/54 1/24/55 9/14/56
f 5/5/57 6/33/58 18/50/59 17/53/60
f 6/33/61 7/30/62 19/51/63 18/50/64
f 7/30/65 8/28/66 20/52/67 19/51/68
f 8/28/69 5/5/70 17/53/71 20/52/72
