# This file uses centimeters as units for non-parametric coordinates.

v -15.730690 -16.289816 15.730659
v 15.730606 -16.289816 15.730659
v -15.730690 -3.973055 15.730659
v 15.730606 -3.973055 15.730659
v -15.730690 -3.973055 -15.730667
v 15.730606 -3.973055 -15.730667
v -15.730690 -16.289816 -15.730667
v 15.730606 -16.289816 -15.730667
v -15.730690 3.973051 15.730659
v 15.730606 3.973051 15.730659
v -15.730690 16.289814 15.730659
v 15.730606 16.289814 15.730659
v -15.730690 16.289814 -15.730667
v 15.730606 16.289814 -15.730667
v -15.730690 3.973051 -15.730667
v 15.730606 3.973051 -15.730667
v -21.709776 -5.322499 21.709747
v 21.709759 -5.322499 21.709747
v -21.709776 -3.520524 21.709747
v 21.709759 -3.520524 21.709747
v -21.709776 -3.520524 -21.709755
v 21.709759 -3.520524 -21.709755
v -21.709776 -5.322499 -21.709755
v 21.709759 -5.322499 -21.709755
v -18.997946 -4.047969 18.997913
v 18.997860 -4.047969 18.997913
v -18.997946 4.188767 18.997913
v 18.997860 4.188767 18.997913
v -18.997946 4.188767 -18.997921
v 18.997860 4.188767 -18.997921
v -18.997946 -4.047969 -18.997921
v 18.997860 -4.047969 -18.997921
vt 0.192465 0.909001
vt 0.192465 0.906533
vt 0.193250 0.906533
vt 0.193250 0.909001
vt 0.191621 0.909001
vt 0.191621 0.906533
vt 0.192406 0.906533
vt 0.192406 0.909001
vt 0.215213 0.905732
vt 0.213771 0.905817
vt 0.213604 0.905079
vt 0.215047 0.904994
vt 0.169849 0.910309
vt 0.169849 0.911990
vt 0.169314 0.911990
vt 0.169314 0.910309
vt 0.169265 0.910309
vt 0.169265 0.911990
vt 0.168730 0.911990
vt 0.168730 0.910309
vt 0.191308 0.911507
vt 0.191308 0.909039
vt 0.192094 0.909039
vt 0.192094 0.911507
vt 0.148066 0.995899
vt 0.148066 0.930905
vt 0.213060 0.930905
vt 0.213060 0.995899
vt 0.192167 0.911507
vt 0.192167 0.909039
vt 0.192952 0.909039
vt 0.192952 0.911507
vt 0.215863 0.907224
vt 0.214421 0.907309
vt 0.214254 0.906571
vt 0.215697 0.906486
vt 0.168681 0.910309
vt 0.168681 0.911990
vt 0.168146 0.911990
vt 0.168146 0.910309
vt 0.168097 0.910309
vt 0.168097 0.911990
vt 0.167562 0.911990
vt 0.167562 0.910309
vt 0.178882 0.884321
vt 0.178882 0.885049
vt 0.178854 0.885049
vt 0.178854 0.884321
vt 0.165812 0.879325
vt 0.164620 0.879325
vt 0.164620 0.878133
vt 0.165812 0.878133
vt 0.178089 0.884321
vt 0.178089 0.885049
vt 0.178061 0.885049
vt 0.178061 0.884321
vt 0.164516 0.879325
vt 0.163324 0.879325
vt 0.163324 0.878133
vt 0.164516 0.878133
vt 0.177297 0.884321
vt 0.177297 0.885049
vt 0.177269 0.885049
vt 0.177269 0.884321
vt 0.177252 0.884321
vt 0.177252 0.885049
vt 0.177224 0.885049
vt 0.177224 0.884321
vt 0.213583 0.907373
vt 0.213583 0.905284
vt 0.213833 0.905284
vt 0.213833 0.907373
vt 0.211044 0.919424
vt 0.211044 0.917930
vt 0.213996 0.917930
vt 0.213996 0.919424
vt 0.213866 0.907373
vt 0.213866 0.905284
vt 0.214116 0.905284
vt 0.214116 0.907373
vt 0.192951 0.914189
vt 0.192951 0.908873
vt 0.194169 0.908873
vt 0.194169 0.914189
vt 0.191597 0.914189
vt 0.191597 0.908873
vt 0.192815 0.908873
vt 0.192815 0.914189
vn 0.000000 0.000000 1.000000
vn 0.000000 0.000000 1.000000
vn 0.000000 0.000000 1.000000
vn 0.000000 0.000000 1.000000
vn 0.000000 0.000000 -1.000000
vn 0.000000 0.000000 -1.000000
vn 0.000000 0.000000 -1.000000
vn 0.000000 0.000000 -1.000000
vn 0.000000 -1.000000 0.000000
vn 0.000000 -1.000000 0.000000
vn 0.000000 -1.000000 0.000000
vn 0.000000 -1.000000 0.000000
vn 1.000000 0.000000 0.000000
vn 1.000000 0.000000 0.000000
vn 1.000000 0.000000 0.000000
vn 1.000000 0.000000 0.000000
vn -1.000000 0.000000 0.000000
vn -1.000000 0.000000 0.000000
vn -1.000000 0.000000 0.000000
vn -1.000000 0.000000 0.000000
vn 0.000000 0.000000 1.000000
vn 0.000000 0.000000 1.000000
vn 0.000000 0.000000 1.000000
vn 0.000000 0.000000 1.000000
vn 0.000000 1.000000 0.000000
vn 0.000000 1.000000 0.000000
vn 0.000000 1.000000 0.000000
vn 0.000000 1.000000 0.000000
vn 0.000000 0.000000 -1.000000
vn 0.000000 0.000000 -1.000000
vn 0.000000 0.000000 -1.000000
vn 0.000000 0.000000 -1.000000
vn 0.000000 -1.000000 0.000000
vn 0.000000 -1.000000 0.000000
vn 0.000000 -1.000000 0.000000
vn 0.000000 -1.000000 0.000000
vn 1.000000 0.000000 0.000000
vn 1.000000 0.000000 0.000000
vn 1.000000 0.000000 0.000000
vn 1.000000 0.000000 0.000000
vn -1.000000 0.000000 0.000000
vn -1.000000 0.000000 0.000000
vn -1.000000 0.000000 0.000000
vn -1.000000 0.000000 0.000000
vn 0.000000 0.000000 1.000000
vn 0.000000 0.000000 1.000000
vn 0.000000 0.000000 1.000000
vn 0.000000 0.000000 1.000000
vn 0.000000 1.000000 0.000000
vn 0.000000 1.000000 0.000000
vn 0.000000 1.000000 0.000000
vn 0.000000 1.000000 0.000000
vn 0.000000 0.000000 -1.000000
vn 0.000000 0.000000 -1.000000
vn 0.000000 0.000000 -1.000000
vn 0.000000 0.000000 -1.000000
vn 0.000000 -1.000000 0.000000
vn 0.000000 -1.000000 0.000000
vn 0.000000 -1.000000 0.000000
vn 0.000000 -1.000000 0.000000
vn 1.000000 0.000000 0.000000
vn 1.000000 0.000000 0.000000
vn 1.000000 0.000000 0.000000
vn 1.000000 0.000000 0.000000
vn -1.000000 0.000000 0.000000
vn -1.000000 0.000000 0.000000
vn -1.000000 0.000000 0.000000
vn -1.000000 0.000000 0.000000
vn 0.000000 0.000000 1.000000
vn 0.000000 0.000000 1.000000
vn 0.000000 0.000000 1.000000
vn 0.000000 0.000000 1.000000
vn 0.000000 1.000000 0.000000
vn 0.000000 1.000000 0.000000
vn 0.000000 1.000000 0.000000
vn 0.000000 1.000000 0.000000
vn 0.000000 0.000000 -1.000000
vn 0.000000 0.000000 -1.000000
vn 0.000000 0.000000 -1.000000
vn 0.000000 0.000000 -1.000000
vn 1.000000 0.000000 0.000000
vn 1.000000 0.000000 0.000000
vn 1.000000 0.000000 0.000000
vn 1.000000 0.000000 0.000000
vn -1.000000 0.000000 0.000000
vn -1.000000 0.000000 0.000000
vn -1.000000 0.000000 0.000000
vn -1.000000 0.000000 0.000000
s off
f 1/1/1 2/2/2 4/3/3 3/4/4
f 5/5/5 6/6/6 8/7/7 7/8/8
f 7/9/9 8/10/10 2/11/11 1/12/12
f 2/13/13 8/14/14 6/15/15 4/16/16
f 7/17/17 1/18/18 3/19/19 5/20/20
f 9/21/21 10/22/22 12/23/23 11/24/24
f 11/25/25 12/26/26 14/27/27 13/28/28
f 13/29/29 14/30/30 16/31/31 15/32/32
f 15/33/33 16/34/34 10/35/35 9/36/36
f 10/37/37 16/38/38 14/39/39 12/40/40
f 15/41/41 9/42/42 11/43/43 13/44/44
f 17/45/45 18/46/46 20/47/47 19/48/48
f 19/49/49 20/50/50 22/51/51 21/52/52
f 21/53/53 22/54/54 24/55/55 23/56/56
f 23/57/57 24/58/58 18/59/59 17/60/60
f 18/61/61 24/62/62 22/63/63 20/64/64
f 23/65/65 17/66/66 19/67/67 21/68/68
f 25/69/69 26/70/70 28/71/71 27/72/72
f 27/73/73 28/74/74 30/75/75 29/76/76
f 29/77/77 30/78/78 32/79/79 31/80/80
f 26/81/81 32/82/82 30/83/83 28/84/84
f 31/85/85 25/86/86 27/87/87 29/88/88
