# This file uses centimeters as units for non-parametric coordinates.

v -11.886841 -31.313889 11.886917
v 11.887024 -31.313889 11.886917
v -11.886841 1.186638 11.886917
v 11.887024 1.186638 11.886917
v -11.886841 1.186638 -11.886932
v 11.887024 1.186638 -11.886932
v -11.886841 -31.313889 -11.886932
v 11.887024 -31.313889 -11.886932
v -6.377565 27.605186 6.377661
v 6.377687 27.605186 6.377661
v 6.377687 27.605186 -6.377661
v -6.377565 27.605186 -6.377661
v -6.377565 31.313889 6.377661
v 6.377687 31.313889 6.377661
v 6.377687 31.313889 -6.377661
v -6.377565 31.313889 -6.377661
v -7.031889 15.234734 7.031960
v -7.031889 15.234734 -7.031990
v 7.032043 15.234734 -7.031990
v 7.032043 15.234734 7.031960
vt 0.359377 0.477572
vt 0.453192 0.477572
vt 0.483503 0.477572
vt 0.389670 0.477572
vt 0.389670 0.477572
vt 0.483503 0.477572
vt 0.483503 0.477572
vt 0.453192 0.477572
vt 0.483503 0.477572
vt 0.483503 0.477572
vt 0.359377 0.477572
vt 0.359377 0.477572
vt 0.359377 0.477572
vt 0.359377 0.477572
vt 0.417983 0.477572
vt 0.453192 0.477572
vt 0.417983 0.477572
vt 0.453192 0.477572
vt 0.359377 0.477572
vt 0.297998 0.477572
vt 0.328519 0.477572
vt 0.297998 0.477572
vt 0.483503 0.477572
vt 0.453192 0.477572
vt 0.417983 0.477572
vt 0.453192 0.477572
vt 0.417983 0.477572
vt 0.389670 0.477572
vt 0.417983 0.477572
vt 0.453192 0.477572
vt 0.453192 0.477572
vt 0.483503 0.477572
vt 0.328519 0.477572
vt 0.417983 0.477572
vt 0.417983 0.477572
vt 0.389670 0.477572
vt 0.297998 0.477572
vt 0.453192 0.477572
vt 0.328519 0.477572
vt 0.417983 0.477572
vt 0.297998 0.477572
vt 0.453192 0.477572
vt 0.328519 0.477572
vt 0.297998 0.477572
vt 0.328519 0.477572
vt 0.359377 0.477572
vt 0.297998 0.477572
vt 0.359377 0.477572
vt 0.297998 0.477572
vt 0.328519 0.477572
vt 0.359377 0.477572
vt 0.328519 0.477572
vt 0.297998 0.477572
vt 0.328519 0.477572
vt 0.389670 0.477572
vt 0.483503 0.477572
vt 0.389670 0.477572
vt 0.483503 0.477572
vt 0.453192 0.477572
vt 0.389670 0.477572
vt 0.359377 0.477572
vt 0.453192 0.477572
vt 0.359377 0.477572
vt 0.389670 0.477572
vt 0.359377 0.477572
vt 0.453192 0.477572
vt 0.453192 0.477572
vt 0.483503 0.477572
vt 0.483503 0.477572
vt 0.453192 0.477572
vt 0.483503 0.477572
vt 0.453192 0.477572
vn 0.000000 0.000000 1.000000
vn 0.000000 0.000000 1.000000
vn 0.000000 0.000000 1.000000
vn 0.000000 0.000000 1.000000
vn 0.000000 1.000000 0.000000
vn 0.000000 1.000000 0.000000
vn 0.000000 1.000000 0.000000
vn 0.000000 1.000000 0.000000
vn 0.000000 0.000000 -1.000000
vn 0.000000 0.000000 -1.000000
vn 0.000000 0.000000 -1.000000
vn 0.000000 0.000000 -1.000000
vn 0.000000 -1.000000 0.000000
vn 0.000000 -1.000000 0.000000
vn 0.000000 -1.000000 0.000000
vn 0.000000 -1.000000 0.000000
vn 1.000000 0.000000 0.000000
vn 1.000000 0.000000 0.000000
vn 1.000000 0.000000 0.000000
vn 1.000000 0.000000 0.000000
vn -1.000000 0.000000 0.000000
vn -1.000000 0.000000 0.000000
vn -1.000000 0.000000 0.000000
vn -1.000000 0.000000 0.000000
vn 0.000000 0.326639 0.945149
vn 0.000000 0.326639 0.945149
vn 0.000000 0.326639 0.945149
vn 0.000000 0.326639 0.945149
vn 0.945149 0.326641 0.000000
vn 0.945149 0.326641 0.000000
vn 0.945149 0.326641 0.000000
vn 0.945149 0.326641 0.000000
vn 0.000000 0.326638 -0.945149
vn 0.000000 0.326638 -0.945149
vn 0.000000 0.326638 -0.945149
vn 0.000000 0.326638 -0.945149
vn -0.945149 0.326639 0.000000
vn -0.945149 0.326639 0.000000
vn -0.945149 0.326639 0.000000
vn -0.945149 0.326639 0.000000
vn 0.000000 0.000000 1.000000
vn 0.000000 0.000000 1.000000
vn 0.000000 0.000000 1.000000
vn 0.000000 0.000000 1.000000
vn 1.000000 0.000000 0.000000
vn 1.000000 0.000000 0.000000
vn 1.000000 0.000000 0.000000
vn 1.000000 0.000000 0.000000
vn 0.000000 0.000000 -1.000000
vn 0.000000 0.000000 -1.000000
vn 0.000000 0.000000 -1.000000
vn 0.000000 0.000000 -1.000000
vn -1.000000 0.000000 0.000000
vn -1.000000 0.000000 0.000000
vn -1.000000 0.000000 0.000000
vn -1.000000 0.000000 0.000000
vn -0.998604 0.052820 0.000000
vn -0.998604 0.052820 0.000000
vn -0.998604 0.052820 0.000000
vn -0.998604 0.052820 0.000000
vn 0.000000 0.052821 -0.998604
vn 0.000000 0.052821 -0.998604
vn 0.000000 0.052821 -0.998604
vn 0.000000 0.052821 -0.998604
vn 0.998604 0.052823 0.000000
vn 0.998604 0.052823 0.000000
vn 0.998604 0.052823 0.000000
vn 0.998604 0.052823 0.000000
vn 0.000000 0.052818 0.998604
vn 0.000000 0.052818 0.998604
vn 0.000000 0.052818 0.998604
vn 0.000000 0.052818 0.998604
s off
f 1/66/1 2/2/2 4/62/3 3/72/4
f 13/19/5 14/51/6 15/48/7 16/46/8
f 5/59/9 6/67/10 8/8/11 7/70/12
f 7/7/13 8/68/14 2/10/15 1/9/16
f 2/65/17 8/11/18 6/12/19 4/61/20
f 7/13/21 1/1/22 3/63/23 5/14/24
f 3/3/25 4/71/26 20/56/27 17/23/28
f 4/4/29 6/60/30 19/55/31 20/28/32
f 6/6/33 5/69/34 18/58/35 19/32/36
f 5/5/37 3/64/38 17/57/39 18/36/40
f 9/54/41 10/33/42 14/50/43 13/43/44
f 10/53/45 11/37/46 15/47/47 14/20/48
f 11/52/49 12/39/50 16/45/51 15/21/52
f 12/49/53 9/41/54 13/44/55 16/22/56
f 18/35/57 17/29/58 9/15/59 12/40/60
f 19/31/61 18/24/62 12/18/63 11/38/64
f 20/27/65 19/25/66 11/17/67 10/34/68
f 17/30/69 20/26/70 10/16/71 9/42/72
