# This file uses centimeters as units for non-parametric coordinates.

v -3.550293 3.550797 44.545918
v 3.551270 3.550797 44.545918
v -3.550293 3.550797 -65.215347
v 3.551270 3.550797 -65.215347
v -3.550293 -3.550781 -65.215347
v 3.551270 -3.550781 -65.215347
v -3.550293 -3.550781 44.545910
v 3.551270 -3.550781 44.545910
v -5.344971 5.345188 45.778748
v 5.345459 5.345188 45.778748
v -5.344971 5.345177 39.825531
v 5.345459 5.345177 39.825531
v -5.344971 -5.345177 39.825531
v 5.345459 -5.345177 39.825531
v -5.344971 -5.345181 45.778748
v 5.345459 -5.345181 45.778748
v -16.040283 -16.040169 55.185112
v 16.040039 -16.040169 55.185112
v 16.040039 16.040184 55.185097
v -16.040283 16.040184 55.185097
v -16.040283 -16.040176 65.215324
v 16.040039 -16.040176 65.215324
v 16.040039 16.040176 65.215340
v -16.040283 16.040176 65.215340
v -13.698975 -13.699112 65.215317
v 13.699219 -13.699112 65.215317
v 13.699219 13.699112 65.215317
v -13.698975 13.699112 65.215317
vt 0.359377 0.398205
vt 0.389670 0.398205
vt 0.417983 0.398205
vt 0.359377 0.398205
vt 0.389670 0.398205
vt 0.417983 0.398205
vt 0.389670 0.398205
vt 0.389670 0.398205
vt 0.389670 0.398205
vt 0.389670 0.398205
vt 0.359377 0.398205
vt 0.359377 0.398205
vt 0.359377 0.398205
vt 0.359377 0.398205
vt 0.389670 0.398205
vt 0.359377 0.398205
vt 0.389670 0.398205
vt 0.389670 0.398205
vt 0.389670 0.398205
vt 0.417983 0.398205
vt 0.389670 0.398205
vt 0.417983 0.398205
vt 0.389670 0.398205
vt 0.359377 0.398205
vt 0.264925 0.175959
vt 0.264925 0.175959
vt 0.264925 0.175959
vt 0.264925 0.175959
vt 0.297998 0.175959
vt 0.297998 0.175959
vt 0.297998 0.175959
vt 0.297998 0.175959
vt 0.264925 0.175959
vt 0.264925 0.175959
vt 0.264925 0.175959
vt 0.264925 0.175959
vt 0.109982 0.175959
vt 0.109982 0.175959
vt 0.109982 0.175959
vt 0.109982 0.175959
vt 0.236575 0.175959
vt 0.236575 0.175959
vt 0.236575 0.175959
vt 0.236575 0.175959
vt 0.236575 0.175959
vt 0.236575 0.175959
vt 0.236575 0.175959
vt 0.236575 0.175959
vt 0.297998 0.175959
vt 0.297998 0.175959
vt 0.297998 0.175959
vt 0.297998 0.175959
vt 0.264925 0.175959
vt 0.264925 0.175959
vt 0.264925 0.175959
vt 0.264925 0.175959
vt 0.297998 0.175959
vt 0.297998 0.175959
vt 0.297998 0.175959
vt 0.297998 0.175959
vt 0.264925 0.175959
vt 0.264925 0.175959
vt 0.264925 0.175959
vt 0.264925 0.175959
vt 0.264925 0.175959
vt 0.264925 0.175959
vt 0.264925 0.175959
vt 0.264925 0.175959
vt 0.236575 0.175959
vt 0.236575 0.175959
vt 0.236575 0.175959
vt 0.236575 0.175959
vt 0.264925 0.175959
vt 0.264925 0.175959
vt 0.264925 0.175959
vt 0.264925 0.175959
vt 0.236575 0.175959
vt 0.236575 0.175959
vt 0.236575 0.175959
vt 0.236575 0.175959
vt 0.202875 0.175959
vt 0.202875 0.175959
vt 0.202875 0.175959
vt 0.202875 0.175959
vt 0.202875 0.175959
vt 0.202875 0.175959
vt 0.202875 0.175959
vt 0.202875 0.175959
vt 0.202875 0.175959
vt 0.202875 0.175959
vt 0.202875 0.175959
vt 0.202875 0.175959
vt 0.202875 0.175959
vt 0.202875 0.175959
vt 0.202875 0.175959
vt 0.202875 0.175959
vn 0.000000 1.000000 0.000000
vn 0.000000 1.000000 0.000000
vn 0.000000 1.000000 0.000000
vn 0.000000 1.000000 0.000000
vn 0.000000 0.000000 -1.000000
vn 0.000000 0.000000 -1.000000
vn 0.000000 0.000000 -1.000000
vn 0.000000 0.000000 -1.000000
vn 0.000000 -1.000000 0.000000
vn 0.000000 -1.000000 0.000000
vn 0.000000 -1.000000 0.000000
vn 0.000000 -1.000000 0.000000
vn 0.000000 -0.000001 1.000000
vn 0.000000 -0.000001 1.000000
vn 0.000000 -0.000001 1.000000
vn 0.000000 -0.000001 1.000000
vn 1.000000 0.000000 0.000000
vn 1.000000 0.000000 0.000000
vn 1.000000 0.000000 0.000000
vn 1.000000 0.000000 0.000000
vn -1.000000 0.000000 0.000000
vn -1.000000 0.000000 0.000000
vn -1.000000 0.000000 0.000000
vn -1.000000 0.000000 0.000000
vn 0.000000 1.000000 -0.000002
vn 0.000000 1.000000 -0.000002
vn 0.000000 1.000000 -0.000002
vn 0.000000 1.000000 -0.000002
vn 0.000000 0.000000 -1.000000
vn 0.000000 0.000000 -1.000000
vn 0.000000 0.000000 -1.000000
vn 0.000000 0.000000 -1.000000
vn 0.000000 -1.000000 -0.000001
vn 0.000000 -1.000000 -0.000001
vn 0.000000 -1.000000 -0.000001
vn 0.000000 -1.000000 -0.000001
vn 0.000000 0.000000 1.000000
vn 0.000000 0.000000 1.000000
vn 0.000000 0.000000 1.000000
vn 0.000000 0.000000 1.000000
vn 1.000000 0.000000 0.000000
vn 1.000000 0.000000 0.000000
vn 1.000000 0.000000 0.000000
vn 1.000000 0.000000 0.000000
vn -1.000000 0.000000 0.000000
vn -1.000000 0.000000 0.000000
vn -1.000000 0.000000 0.000000
vn -1.000000 0.000000 0.000000
vn 0.000000 -0.660421 -0.750896
vn 0.000000 -0.660421 -0.750895
vn 0.000000 -0.660421 -0.750895
vn 0.000000 -0.660421 -0.750896
vn 0.660435 -0.000000 -0.750883
vn 0.660435 -0.000000 -0.750883
vn 0.660435 -0.000000 -0.750883
vn 0.660435 -0.000000 -0.750883
vn 0.000000 0.660420 -0.750896
vn 0.000000 0.660420 -0.750896
vn 0.000000 0.660420 -0.750896
vn 0.000000 0.660420 -0.750896
vn -0.660410 -0.000000 -0.750906
vn -0.660410 -0.000000 -0.750905
vn -0.660410 -0.000000 -0.750905
vn -0.660410 -0.000000 -0.750905
vn 0.000000 -1.000000 -0.000001
vn 0.000000 -1.000000 -0.000001
vn 0.000000 -1.000000 -0.000001
vn 0.000000 -1.000000 -0.000001
vn 1.000000 0.000000 0.000000
vn 1.000000 0.000000 0.000000
vn 1.000000 0.000000 0.000000
vn 1.000000 0.000000 0.000000
vn 0.000000 1.000000 0.000001
vn 0.000000 1.000000 0.000001
vn 0.000000 1.000000 0.000001
vn 0.000000 1.000000 0.000001
vn -1.000000 0.000000 0.000000
vn -1.000000 0.000000 0.000000
vn -1.000000 0.000000 0.000000
vn -1.000000 0.000000 0.000000
vn 0.000000 0.000003 1.000000
vn 0.000000 0.000003 1.000000
vn 0.000000 0.000003 1.000000
vn 0.000000 0.000003 1.000000
vn -0.000006 -0.000000 1.000000
vn -0.000006 -0.000000 1.000000
vn -0.000006 -0.000000 1.000000
vn -0.000006 -0.000000 1.000000
vn 0.000000 -0.000010 1.000000
vn 0.000000 -0.000010 1.000000
vn 0.000000 -0.000010 1.000000
vn 0.000000 -0.000010 1.000000
vn 0.000008 -0.000000 1.000000
vn 0.000008 -0.000000 1.000000
vn 0.000008 -0.000000 1.000000
vn 0.000008 -0.000000 1.000000
s off
f 1/18/1 2/2/2 4/21/3 3/23/4
f 3/3/5 4/22/6 6/6/7 5/20/8
f 5/5/9 6/19/10 8/8/11 7/17/12
f 7/7/13 8/15/14 2/10/15 1/9/16
f 2/16/17 8/11/18 6/12/19 4/4/20
f 7/13/21 1/1/22 3/24/23 5/14/24
f 9/25/25 10/26/26 12/27/27 11/28/28
f 11/29/29 12/30/30 14/31/31 13/32/32
f 13/33/33 14/34/34 16/35/35 15/36/36
f 25/37/37 26/38/38 27/39/39 28/40/40
f 10/41/41 16/42/42 14/43/43 12/44/44
f 15/45/45 9/46/46 11/47/47 13/48/48
f 15/49/49 16/50/50 18/51/51 17/52/52
f 16/53/53 10/54/54 19/55/55 18/56/56
f 10/57/57 9/58/58 20/59/59 19/60/60
f 9/61/61 15/62/62 17/63/63 20/64/64
f 17/65/65 18/66/66 22/67/67 21/68/68
f 18/69/69 19/70/70 23/71/71 22/72/72
f 19/73/73 20/74/74 24/75/75 23/76/76
f 20/77/77 17/78/78 21/79/79 24/80/80
f 21/81/81 22/82/82 26/83/83 25/84/84
f 22/85/85 23/86/86 27/87/87 26/88/88
f 23/89/89 24/90/90 28/91/91 27/92/92
f 24/93/93 21/94/94 25/95/95 28/96/96
