# This file uses centimeters as units for non-parametric coordinates.

v 4.035400 4.320067 -28.425842
v -4.035522 4.320067 -28.425842
v -4.035522 -4.320066 -28.425842
v 4.035400 -4.320057 -28.425842
v 4.626953 4.953389 28.425842
v -4.627075 4.953389 28.425842
v -4.627075 -4.953389 28.425842
v 4.626953 -4.953379 28.425842
v 4.035400 4.320067 16.636681
v -4.035522 4.320067 16.636681
v -4.035522 -4.320066 16.636681
v 4.035400 -4.320057 16.636681
v 4.626953 4.953389 16.636681
v -4.627075 4.953389 16.636681
v -4.627075 -4.953389 16.636681
v 4.626953 -4.953378 16.636681
v 2.422363 4.320067 6.969330
v -2.422485 4.320067 6.969330
v 2.422363 4.320067 -22.972607
v -2.422485 4.320067 -22.972607
vt 0.264925 0.175959
vt 0.202875 0.175959
vt 0.141447 0.175959
vt 0.202875 0.175959
vt 0.328519 0.477572
vt 0.328519 0.477572
vt 0.264925 0.477572
vt 0.328519 0.477572
vt 0.264925 0.477572
vt 0.328519 0.477572
vt 0.171345 0.175959
vt 0.171345 0.175959
vt 0.171345 0.175959
vt 0.264925 0.175959
vt 0.264925 0.175959
vt 0.202875 0.175959
vt 0.328519 0.477572
vt 0.264925 0.175959
vt 0.202875 0.175959
vt 0.141447 0.175959
vt 0.328519 0.477572
vt 0.141447 0.175959
vt 0.264925 0.477572
vt 0.328519 0.477572
vt 0.328519 0.477572
vt 0.264925 0.477572
vt 0.328519 0.477572
vt 0.264925 0.477572
vt 0.328519 0.477572
vt 0.264925 0.477572
vt 0.264925 0.175959
vt 0.264925 0.175959
vt 0.264925 0.175959
vt 0.264925 0.175959
vt 0.109982 0.477572
vt 0.109982 0.477572
vt 0.109982 0.477572
vt 0.109982 0.477572
vt 0.202875 0.175959
vt 0.264925 0.477572
vt 0.328519 0.477572
vt 0.328519 0.477572
vt 0.264925 0.477572
vt 0.202875 0.175959
vt 0.264925 0.477572
vt 0.264925 0.477572
vt 0.417983 0.477572
vt 0.417983 0.477572
vt 0.417983 0.477572
vt 0.417983 0.477572
vt 0.389670 0.477572
vt 0.389670 0.477572
vt 0.389670 0.477572
vt 0.389670 0.477572
vt 0.141447 0.175959
vt 0.202875 0.175959
vt 0.202875 0.175959
vt 0.171345 0.175959
vn 0.000000 1.000000 0.000000
vn 0.000000 1.000000 0.000000
vn 0.000000 1.000000 0.000000
vn 0.000000 1.000000 0.000000
vn -1.000000 0.000000 0.000000
vn -1.000000 0.000000 0.000000
vn -1.000000 0.000000 0.000000
vn -1.000000 0.000000 0.000000
vn 0.000001 -1.000000 -0.000000
vn 0.000001 -1.000000 -0.000000
vn 0.000001 -1.000000 -0.000000
vn 0.000001 -1.000000 -0.000000
vn 1.000000 0.000000 0.000000
vn 1.000000 0.000000 0.000000
vn 1.000000 0.000000 0.000000
vn 1.000000 0.000000 0.000000
vn 0.000000 0.000000 1.000000
vn 0.000000 0.000000 1.000000
vn 0.000000 0.000000 1.000000
vn 0.000000 0.000000 1.000000
vn 0.000000 0.000000 -1.000000
vn 0.000000 0.000000 -1.000000
vn 0.000000 0.000000 -1.000000
vn 0.000000 0.000000 -1.000000
vn 0.000000 1.000000 0.000000
vn 0.000000 1.000000 0.000000
vn 0.000000 1.000000 0.000000
vn 0.000000 1.000000 0.000000
vn -1.000000 0.000000 0.000000
vn -1.000000 0.000000 0.000000
vn -1.000000 0.000000 0.000000
vn -1.000000 0.000000 0.000000
vn 0.000001 -1.000000 0.000000
vn 0.000001 -1.000000 0.000000
vn 0.000001 -1.000000 0.000000
vn 0.000001 -1.000000 0.000000
vn 1.000000 0.000000 0.000000
vn 1.000000 0.000000 0.000000
vn 1.000000 0.000000 0.000000
vn 1.000000 0.000000 0.000000
vn 0.000000 0.000000 -1.000000
vn 0.000000 0.000000 -1.000000
vn 0.000000 0.000000 -1.000000
vn 0.000000 0.000000 -1.000000
vn 0.000002 0.000000 -1.000000
vn 0.000002 0.000000 -1.000000
vn 0.000002 0.000000 -1.000000
vn 0.000002 0.000000 -1.000000
vn 0.000000 0.000000 -1.000000
vn 0.000000 0.000000 -1.000000
vn 0.000000 0.000000 -1.000000
vn 0.000000 0.000000 -1.000000
vn -0.000002 0.000000 -1.000000
vn -0.000002 0.000000 -1.000000
vn -0.000002 0.000000 -1.000000
vn -0.000002 0.000000 -1.000000
vn 0.000000 1.000000 -0.000000
vn 0.000000 1.000000 -0.000000
vn 0.000000 1.000000 -0.000000
vn 0.000000 1.000000 -0.000000
vn 0.000000 1.000000 0.000000
vn 0.000000 1.000000 0.000000
vn 0.000000 1.000000 0.000000
vn 0.000000 1.000000 0.000000
vn 0.000000 1.000000 0.000000
vn 0.000000 1.000000 0.000000
vn 0.000000 1.000000 0.000000
vn 0.000000 1.000000 0.000000
vn 0.000000 1.000000 0.000000
vn 0.000000 1.000000 0.000000
vn 0.000000 1.000000 0.000000
vn 0.000000 1.000000 0.000000
s off
f 6/47/1 5/48/2 13/49/3 14/50/4
f 7/6/5 6/5/6 14/25/7 15/27/8
f 15/28/9 16/30/10 8/9/11 7/7/12
f 16/29/13 13/24/14 5/10/15 8/8/16
f 7/51/17 8/52/18 5/53/19 6/54/20
f 3/13/21 2/58/22 1/12/23 4/11/24
f 18/35/25 17/36/26 19/37/27 20/38/28
f 11/19/29 10/44/30 2/2/31 3/57/32
f 3/3/33 4/55/34 12/22/35 11/20/36
f 4/4/37 1/56/38 9/16/39 12/39/40
f 14/26/41 13/23/42 9/45/43 10/46/44
f 15/27/45 14/25/46 10/17/47 11/42/48
f 11/43/49 12/40/50 16/30/51 15/28/52
f 12/21/53 9/41/54 13/24/55 16/29/56
f 10/18/57 9/15/58 17/32/59 18/31/60
f 9/15/61 1/1/62 19/33/63 17/32/64
f 1/1/65 2/14/66 20/34/67 19/33/68
f 2/14/69 10/18/70 18/31/71 20/34/72
