# This file uses centimeters as units for non-parametric coordinates.

v -10.567627 -34.045055 10.567627
v 10.567642 -34.045055 10.567627
v -10.567627 7.051971 10.567627
v 10.567642 7.051971 10.567627
v -10.567627 7.051971 -10.567688
v 10.567642 7.051971 -10.567688
v -10.567627 -34.045055 -10.567688
v 10.567642 -34.045055 -10.567688
v -4.358826 17.770401 4.358826
v 4.358826 17.770401 4.358826
v 4.358826 17.770401 -4.358826
v -4.358826 17.770401 -4.358826
v -4.358826 27.236000 4.358826
v 4.358826 27.236000 4.358826
v 4.358826 27.236000 -4.358826
v -4.358826 27.236000 -4.358826
v -2.631255 27.236000 2.631287
v 2.631271 27.236000 2.631287
v 2.631271 27.236000 -2.631226
v -2.631255 27.236000 -2.631226
v -2.631255 34.045059 2.631287
v 2.631271 34.045059 2.631287
v 2.631271 34.045059 -2.631226
v -2.631255 34.045059 -2.631226
v -1.203417 34.045059 1.203447
v 1.203447 34.045059 1.203447
v 1.203447 34.045059 -1.203447
v -1.203417 34.045059 -1.203447
vt 0.328519 0.131308
vt 0.417983 0.131308
vt 0.453192 0.131308
vt 0.389670 0.131308
vt 0.389670 0.131308
vt 0.453192 0.131308
vt 0.236575 0.131308
vt 0.417983 0.131308
vt 0.236575 0.131308
vt 0.236575 0.131308
vt 0.328519 0.131308
vt 0.328519 0.131308
vt 0.328519 0.131308
vt 0.328519 0.131308
vt 0.389670 0.477572
vt 0.359377 0.477572
vt 0.389670 0.477572
vt 0.359377 0.477572
vt 0.417983 0.477572
vt 0.417983 0.477572
vt 0.417983 0.477572
vt 0.417983 0.477572
vt 0.389670 0.477572
vt 0.359377 0.477572
vt 0.389670 0.477572
vt 0.359377 0.477572
vt 0.417983 0.477572
vt 0.417983 0.477572
vt 0.417983 0.477572
vt 0.417983 0.477572
vt 0.141447 0.477572
vt 0.417983 0.477572
vt 0.417983 0.477572
vt 0.417983 0.477572
vt 0.417983 0.477572
vt 0.417983 0.477572
vt 0.417983 0.477572
vt 0.141447 0.477572
vt 0.417983 0.477572
vt 0.141447 0.477572
vt 0.359377 0.477572
vt 0.389670 0.477572
vt 0.417983 0.477572
vt 0.417983 0.477572
vt 0.141447 0.477572
vt 0.389670 0.477572
vt 0.359377 0.477572
vt 0.417983 0.477572
vt 0.359377 0.477572
vt 0.389670 0.477572
vt 0.417983 0.477572
vt 0.389670 0.477572
vt 0.359377 0.477572
vt 0.417983 0.477572
vt 0.417983 0.477572
vt 0.417983 0.477572
vt 0.389670 0.477572
vt 0.417983 0.477572
vt 0.417983 0.477572
vt 0.359377 0.477572
vt 0.417983 0.477572
vt 0.417983 0.477572
vt 0.389670 0.477572
vt 0.417983 0.477572
vt 0.417983 0.477572
vt 0.359377 0.477572
vt 0.359377 0.477572
vt 0.389670 0.477572
vt 0.417983 0.477572
vt 0.389670 0.477572
vt 0.359377 0.477572
vt 0.417983 0.477572
vt 0.359377 0.477572
vt 0.389670 0.477572
vt 0.417983 0.477572
vt 0.389670 0.477572
vt 0.359377 0.477572
vt 0.417983 0.477572
vt 0.389670 0.131308
vt 0.453192 0.131308
vt 0.389670 0.477572
vt 0.453192 0.131308
vt 0.389670 0.131308
vt 0.359377 0.477572
vt 0.389670 0.131308
vt 0.453192 0.131308
vt 0.389670 0.477572
vt 0.453192 0.131308
vt 0.389670 0.131308
vt 0.359377 0.477572
vt 0.417983 0.131308
vt 0.453192 0.131308
vt 0.417983 0.131308
vt 0.389670 0.131308
vt 0.328519 0.131308
vt 0.417983 0.131308
vt 0.453192 0.131308
vt 0.417983 0.131308
vt 0.328519 0.131308
vt 0.389670 0.131308
vt 0.236575 0.131308
vt 0.328519 0.131308
vt 0.417983 0.131308
vt 0.417983 0.131308
vn 0.000000 0.000000 1.000000
vn 0.000000 0.000000 1.000000
vn 0.000000 0.000000 1.000000
vn 0.000000 0.000000 1.000000
vn 0.000000 1.000000 0.000000
vn 0.000000 1.000000 0.000000
vn 0.000000 1.000000 0.000000
vn 0.000000 1.000000 0.000000
vn 0.000000 0.000000 -1.000000
vn 0.000000 0.000000 -1.000000
vn 0.000000 0.000000 -1.000000
vn 0.000000 0.000000 -1.000000
vn 0.000000 -1.000000 0.000000
vn 0.000000 -1.000000 0.000000
vn 0.000000 -1.000000 0.000000
vn 0.000000 -1.000000 0.000000
vn 1.000000 0.000000 0.000000
vn 1.000000 0.000000 0.000000
vn 1.000000 0.000000 0.000000
vn 1.000000 0.000000 0.000000
vn -1.000000 0.000000 0.000000
vn -1.000000 0.000000 0.000000
vn -1.000000 0.000000 0.000000
vn -1.000000 0.000000 0.000000
vn 0.000000 0.501242 0.865307
vn 0.000000 0.501242 0.865307
vn 0.000000 0.501242 0.865307
vn 0.000000 0.501242 0.865307
vn 0.865307 0.501242 0.000000
vn 0.865307 0.501242 0.000000
vn 0.865307 0.501242 0.000000
vn 0.865307 0.501242 0.000000
vn 0.000000 0.501245 -0.865305
vn 0.000000 0.501245 -0.865305
vn 0.000000 0.501245 -0.865305
vn 0.000000 0.501245 -0.865305
vn -0.865307 0.501242 0.000000
vn -0.865307 0.501242 0.000000
vn -0.865307 0.501242 0.000000
vn -0.865307 0.501242 0.000000
vn 0.000000 0.000000 1.000000
vn 0.000000 0.000000 1.000000
vn 0.000000 0.000000 1.000000
vn 0.000000 0.000000 1.000000
vn 1.000000 0.000000 0.000000
vn 1.000000 0.000000 0.000000
vn 1.000000 0.000000 0.000000
vn 1.000000 0.000000 0.000000
vn 0.000000 0.000000 -1.000000
vn 0.000000 0.000000 -1.000000
vn 0.000000 0.000000 -1.000000
vn 0.000000 0.000000 -1.000000
vn -1.000000 0.000000 0.000000
vn -1.000000 0.000000 0.000000
vn -1.000000 0.000000 0.000000
vn -1.000000 0.000000 0.000000
vn 0.000000 1.000000 -0.000001
vn 0.000000 1.000000 -0.000001
vn 0.000000 1.000000 -0.000001
vn 0.000000 1.000000 -0.000001
vn 0.000000 1.000000 0.000000
vn 0.000000 1.000000 0.000000
vn 0.000000 1.000000 0.000000
vn 0.000000 1.000000 0.000000
vn 0.000000 1.000000 0.000001
vn 0.000000 1.000000 0.000001
vn 0.000000 1.000000 0.000001
vn 0.000000 1.000000 0.000001
vn 0.000000 1.000000 0.000000
vn 0.000000 1.000000 0.000000
vn 0.000000 1.000000 0.000000
vn 0.000000 1.000000 0.000000
vn 0.000000 0.000000 1.000000
vn 0.000000 0.000000 1.000000
vn 0.000000 0.000000 1.000000
vn 0.000000 0.000000 1.000000
vn 1.000000 0.000000 0.000000
vn 1.000000 0.000000 0.000000
vn 1.000000 0.000000 0.000000
vn 1.000000 0.000000 0.000000
vn 0.000000 0.000000 -1.000000
vn 0.000000 0.000000 -1.000000
vn 0.000000 0.000000 -1.000000
vn 0.000000 0.000000 -1.000000
vn -1.000000 0.000000 0.000000
vn -1.000000 0.000000 0.000000
vn -1.000000 0.000000 0.000000
vn -1.000000 0.000000 0.000000
vn 0.000000 1.000000 0.000000
vn 0.000000 1.000000 0.000000
vn 0.000000 1.000000 0.000000
vn 0.000000 1.000000 0.000000
vn 0.000000 1.000000 0.000000
vn 0.000000 1.000000 0.000000
vn 0.000000 1.000000 0.000000
vn 0.000000 1.000000 0.000000
vn 0.000000 1.000000 0.000000
vn 0.000000 1.000000 0.000000
vn 0.000000 1.000000 0.000000
vn 0.000000 1.000000 0.000000
vn 0.000000 1.000000 0.000000
vn 0.000000 1.000000 0.000000
vn 0.000000 1.000000 0.000000
vn 0.000000 1.000000 0.000000
s off
f 1/104/1 2/2/2 4/96/3 3/98/4
f 25/31/5 26/45/6 27/40/7 28/38/8
f 5/91/9 6/93/10 8/8/11 7/103/12
f 7/7/13 8/101/14 2/10/15 1/9/16
f 2/102/17 8/11/18 6/12/19 4/95/20
f 7/13/21 1/1/22 3/99/23 5/14/24
f 3/3/25 4/97/26 10/86/27 9/88/28
f 4/4/29 6/94/30 11/83/31 10/85/32
f 6/6/33 5/92/34 12/80/35 11/82/36
f 5/5/37 3/100/38 9/89/39 12/79/40
f 9/15/41 10/87/42 14/74/43 13/76/44
f 10/16/45 11/84/46 15/71/47 14/73/48
f 11/17/49 12/81/50 16/68/51 15/70/52
f 12/18/53 9/90/54 13/77/55 16/67/56
f 13/19/57 14/75/58 18/62/59 17/64/60
f 14/20/61 15/72/62 19/59/63 18/61/64
f 15/21/65 16/69/66 20/56/67 19/58/68
f 16/22/69 13/78/70 17/65/71 20/55/72
f 17/23/73 18/63/74 22/50/75 21/52/76
f 18/24/77 19/60/78 23/47/79 22/49/80
f 19/25/81 20/57/82 24/42/83 23/46/84
f 20/26/85 17/66/86 21/53/87 24/41/88
f 21/27/89 22/51/90 26/44/91 25/35/92
f 22/28/93 23/48/94 27/39/95 26/32/96
f 23/29/97 24/43/98 28/37/99 27/33/100
f 24/30/101 21/54/102 25/36/103 28/34/104
