# This file uses centimeters as units for non-parametric coordinates.

v -12.709106 -2.516228 24.640060
v 12.709106 -2.516228 24.640060
v -12.709106 2.516228 24.640060
v 12.709106 2.516228 24.640060
v -12.709106 2.516228 -24.640045
v 12.709106 2.516228 -24.640045
v -12.709106 -2.516228 -24.640045
v 12.709106 -2.516228 -24.640045
v -10.812256 2.516228 18.371414
v 10.812500 2.516228 18.371414
v 10.812500 2.516228 -18.739456
v -10.812256 2.516228 -18.739456
v -3.528931 -2.516228 -6.003265
v 3.528931 -2.516228 -6.003265
v 3.528931 -2.516228 4.873352
v -3.528931 -2.516228 4.873352
v 11.990723 2.516228 23.919937
v -11.990601 2.516228 23.919937
v -11.990601 2.516228 -23.919922
v 11.990723 2.516228 -23.919922
v 1.531372 2.516228 22.710403
v -1.531372 2.516228 22.710403
v 1.531372 2.516228 19.580948
v -1.531372 2.516228 19.580948
v -2.340088 2.516228 -22.113586
v 2.340088 2.516228 -22.113586
v -2.340088 2.516228 -20.614029
v 2.340088 2.516228 -20.614029
v 0.867472 2.516228 22.031990
v -0.867350 2.516228 22.031990
v 0.867472 2.516228 20.259331
v -0.867350 2.516228 20.259331
vt 0.171345 0.477572
vt 0.202875 0.477572
vt 0.236575 0.477572
vt 0.236575 0.477572
vt 0.236575 0.477572
vt 0.236575 0.477572
vt 0.236575 0.477572
vt 0.236575 0.477572
vt 0.236575 0.477572
vt 0.236575 0.477572
vt 0.171345 0.477572
vt 0.171345 0.477572
vt 0.171345 0.477572
vt 0.171345 0.477572
vt 0.417983 0.477572
vt 0.417983 0.477572
vt 0.417983 0.477572
vt 0.417983 0.477572
vt 0.171345 0.477572
vt 0.236575 0.477572
vt 0.236575 0.477572
vt 0.236575 0.477572
vt 0.236575 0.477572
vt 0.417983 0.477572
vt 0.417983 0.477572
vt 0.417983 0.477572
vt 0.236575 0.477572
vt 0.236575 0.477572
vt 0.236575 0.477572
vt 0.417983 0.477572
vt 0.236575 0.477572
vt 0.236575 0.477572
vt 0.236575 0.477572
vt 0.236575 0.477572
vt 0.236575 0.477572
vt 0.236575 0.477572
vt 0.236575 0.477572
vt 0.171345 0.477572
vt 0.236575 0.477572
vt 0.171345 0.477572
vt 0.202875 0.477572
vt 0.236575 0.477572
vt 0.236575 0.477572
vt 0.171345 0.477572
vt 0.171345 0.477572
vt 0.236575 0.477572
vt 0.202875 0.477572
vt 0.236575 0.477572
vt 0.202875 0.477572
vt 0.236575 0.477572
vt 0.202875 0.477572
vt 0.236575 0.477572
vt 0.202875 0.477572
vt 0.236575 0.477572
vt 0.171345 0.477572
vt 0.202875 0.477572
vt 0.236575 0.477572
vt 0.202875 0.477572
vt 0.171345 0.477572
vt 0.236575 0.477572
vt 0.077308 0.477572
vt 0.077308 0.477572
vt 0.077308 0.477572
vt 0.077308 0.477572
vt 0.417983 0.477572
vt 0.417983 0.477572
vt 0.417983 0.477572
vt 0.417983 0.477572
vt 0.417983 0.477572
vt 0.417983 0.477572
vt 0.417983 0.477572
vt 0.417983 0.477572
vt 0.171345 0.477572
vt 0.417983 0.477572
vt 0.417983 0.477572
vt 0.417983 0.477572
vt 0.417983 0.477572
vt 0.171345 0.477572
vt 0.171345 0.477572
vt 0.171345 0.477572
vt 0.141447 0.477572
vt 0.417983 0.477572
vt 0.417983 0.477572
vt 0.417983 0.477572
vt 0.417983 0.477572
vt 0.141447 0.477572
vt 0.141447 0.477572
vt 0.141447 0.477572
vt 0.236575 0.477572
vt 0.171345 0.477572
vt 0.171345 0.477572
vt 0.171345 0.477572
vt 0.171345 0.477572
vt 0.236575 0.477572
vt 0.236575 0.477572
vt 0.236575 0.477572
vn 0.000000 0.000000 1.000000
vn 0.000000 0.000000 1.000000
vn 0.000000 0.000000 1.000000
vn 0.000000 0.000000 1.000000
vn 0.000000 1.000000 0.000000
vn 0.000000 1.000000 0.000000
vn 0.000000 1.000000 0.000000
vn 0.000000 1.000000 0.000000
vn 0.000000 0.000000 -1.000000
vn 0.000000 0.000000 -1.000000
vn 0.000000 0.000000 -1.000000
vn 0.000000 0.000000 -1.000000
vn 0.000000 -1.000000 0.000000
vn 0.000000 -1.000000 0.000000
vn 0.000000 -1.000000 0.000000
vn 0.000000 -1.000000 0.000000
vn 1.000000 0.000000 0.000000
vn 1.000000 0.000000 0.000000
vn 1.000000 0.000000 0.000000
vn 1.000000 0.000000 0.000000
vn -1.000000 0.000000 0.000000
vn -1.000000 0.000000 0.000000
vn -1.000000 0.000000 0.000000
vn -1.000000 0.000000 0.000000
vn 0.000000 1.000000 0.000000
vn 0.000000 1.000000 0.000000
vn 0.000000 1.000000 0.000000
vn 0.000000 1.000000 0.000000
vn 0.000000 1.000000 0.000000
vn 0.000000 1.000000 0.000000
vn 0.000000 1.000000 0.000000
vn 0.000000 1.000000 0.000000
vn 0.000000 1.000000 -0.000000
vn 0.000000 1.000000 -0.000000
vn 0.000000 1.000000 -0.000000
vn 0.000000 1.000000 -0.000000
vn 0.000000 1.000000 0.000000
vn 0.000000 1.000000 0.000000
vn 0.000000 1.000000 0.000000
vn 0.000000 1.000000 0.000000
vn 0.000000 -1.000000 -0.000000
vn 0.000000 -1.000000 -0.000000
vn 0.000000 -1.000000 -0.000000
vn 0.000000 -1.000000 -0.000000
vn 0.000000 -1.000000 0.000000
vn 0.000000 -1.000000 0.000000
vn 0.000000 -1.000000 0.000000
vn 0.000000 -1.000000 0.000000
vn 0.000000 -1.000000 0.000000
vn 0.000000 -1.000000 0.000000
vn 0.000000 -1.000000 0.000000
vn 0.000000 -1.000000 0.000000
vn 0.000000 -1.000000 0.000000
vn 0.000000 -1.000000 0.000000
vn 0.000000 -1.000000 0.000000
vn 0.000000 -1.000000 0.000000
vn 0.000000 1.000000 0.000000
vn 0.000000 1.000000 0.000000
vn 0.000000 1.000000 0.000000
vn 0.000000 1.000000 0.000000
vn 0.000000 1.000000 0.000000
vn 0.000000 1.000000 0.000000
vn 0.000000 1.000000 0.000000
vn 0.000000 1.000000 0.000000
vn 0.000000 1.000000 0.000000
vn 0.000000 1.000000 0.000000
vn 0.000000 1.000000 0.000000
vn 0.000000 1.000000 0.000000
vn 0.000000 1.000000 0.000000
vn 0.000000 1.000000 0.000000
vn 0.000000 1.000000 0.000000
vn 0.000000 1.000000 0.000000
vn 0.000000 1.000000 -0.000000
vn 0.000000 1.000000 -0.000000
vn 0.000000 1.000000 -0.000000
vn 0.000000 1.000000 -0.000000
vn 0.000000 1.000000 0.000000
vn 0.000000 1.000000 0.000000
vn 0.000000 1.000000 0.000000
vn 0.000000 1.000000 0.000000
vn 0.000000 1.000000 0.000000
vn 0.000000 1.000000 0.000000
vn 0.000000 1.000000 0.000000
vn 0.000000 1.000000 0.000000
vn 0.000000 1.000000 0.000000
vn 0.000000 1.000000 0.000000
vn 0.000000 1.000000 0.000000
vn 0.000000 1.000000 0.000000
vn 0.000000 1.000000 0.000000
vn 0.000000 1.000000 0.000000
vn 0.000000 1.000000 0.000000
vn 0.000000 1.000000 0.000000
vn 0.000000 1.000000 0.000000
vn 0.000000 1.000000 0.000000
vn 0.000000 1.000000 0.000000
vn 0.000000 1.000000 0.000000
vn 0.000000 1.000000 0.000000
vn 0.000000 1.000000 0.000000
vn 0.000000 1.000000 0.000000
vn 0.000000 1.000000 0.000000
vn 0.000000 1.000000 0.000000
vn 0.000000 1.000000 0.000000
vn 0.000000 1.000000 0.000000
vn 0.000000 1.000000 0.000000
vn 0.000000 1.000000 -0.000000
vn 0.000000 1.000000 -0.000000
vn 0.000000 1.000000 -0.000000
vn 0.000000 1.000000 -0.000000
vn 0.000000 1.000000 0.000000
vn 0.000000 1.000000 0.000000
vn 0.000000 1.000000 0.000000
vn 0.000000 1.000000 0.000000
vn 0.000000 1.000000 0.000000
vn 0.000000 1.000000 0.000000
vn 0.000000 1.000000 0.000000
vn 0.000000 1.000000 0.000000
vn 0.000000 1.000000 0.000000
vn 0.000000 1.000000 0.000000
vn 0.000000 1.000000 0.000000
vn 0.000000 1.000000 0.000000
s off
f 1/41/1 2/2/2 4/56/3 3/58/4
f 9/61/5 10/64/6 11/63/7 12/62/8
f 5/51/9 6/53/10 8/47/11 7/49/12
f 13/19/13 14/44/14 15/40/15 16/38/16
f 2/45/17 8/11/18 6/12/19 4/55/20
f 7/13/21 1/1/22 3/59/23 5/14/24
f 3/3/25 4/57/26 17/29/27 18/33/28
f 4/4/29 6/54/30 20/28/31 17/23/32
f 6/6/33 5/52/34 19/32/35 20/27/36
f 5/5/37 3/60/38 18/34/39 19/31/40
f 7/7/41 8/48/42 14/43/43 13/35/44
f 8/8/45 2/46/46 15/39/47 14/20/48
f 2/10/49 1/42/50 16/37/51 15/21/52
f 1/9/53 7/50/54 13/36/55 16/22/56
f 30/89/57 29/96/58 31/95/59 32/94/60
f 19/67/61 18/24/62 9/15/63 12/70/64
f 26/81/65 25/88/66 27/87/67 28/86/68
f 17/66/69 20/26/70 11/17/71 10/72/72
f 18/69/73 17/30/74 21/74/75 22/77/76
f 17/30/77 10/16/78 23/75/79 21/74/80
f 10/16/81 9/71/82 24/76/83 23/75/84
f 9/71/85 18/69/86 22/77/87 24/76/88
f 20/65/89 19/25/90 25/82/91 26/85/92
f 19/25/93 12/18/94 27/83/95 25/82/96
f 12/18/97 11/68/98 28/84/99 27/83/100
f 11/68/101 20/65/102 26/85/103 28/84/104
f 22/73/105 21/80/106 29/90/107 30/93/108
f 21/80/109 23/79/110 31/91/111 29/90/112
f 23/79/113 24/78/114 32/92/115 31/91/116
f 24/78/117 22/73/118 30/93/119 32/92/120
