# This file uses centimeters as units for non-parametric coordinates.

v 0.000000 -13.826857 15.168568
v 0.000000 1.684034 15.168568
v -23.555176 1.684034 -15.168564
v 23.555054 1.684034 -15.168564
v 23.555054 -13.826857 -15.168564
v -23.555176 -13.826857 -15.168564
v -5.426025 4.195770 -1.590340
v 5.789978 4.195770 -1.590340
v -5.426025 10.912659 -1.590340
v 5.789978 10.912659 -1.590340
v -5.426025 10.912659 -8.307228
v 5.789978 10.912659 -8.307228
v -5.426025 4.195770 -8.307228
v 5.789978 4.195770 -8.307228
v -0.656555 13.826855 -4.110294
v -0.656555 1.222441 -4.110294
v 1.020447 13.826855 -4.110294
v 1.020447 1.222441 -4.110294
v 1.020447 13.826855 -5.787273
v 1.020447 1.222441 -5.787273
v -0.656555 13.826855 -5.787273
v -0.656555 1.222441 -5.787273
v 5.789978 6.212715 -6.290287
v 5.789978 6.212715 -3.607283
v 5.789978 8.895712 -6.290287
v 5.789978 8.895712 -3.607283
v -5.426025 6.212715 -6.290287
v -5.426025 6.212715 -3.607277
v -5.426025 8.895712 -3.607277
v -5.426025 8.895712 -6.290287
v 0.000000 -3.476046 15.168568
v -23.555176 -3.476046 -15.168564
v 23.555054 -3.476046 -15.168564
v 0.000000 -8.558165 15.168568
v -23.555176 -8.558165 -15.168564
v 23.555054 -8.558165 -15.168564
v 0.000000 -5.590014 15.168568
v 23.555054 -5.590014 -15.168564
v -23.555176 -5.590014 -15.168564
vt 0.389670 0.444286
vt 0.389670 0.444286
vt 0.389670 0.444286
vt 0.264925 0.444286
vt 0.264925 0.444286
vt 0.264925 0.444286
vt 0.264925 0.444286
vt 0.389670 0.444286
vt 0.389670 0.444286
vt 0.389670 0.444286
vt 0.297998 0.444286
vt 0.297998 0.444286
vt 0.297998 0.444286
vt 0.297998 0.444286
vt 0.328519 0.444286
vt 0.328519 0.444286
vt 0.328519 0.444286
vt 0.328519 0.444286
vt 0.297998 0.287733
vt 0.297998 0.287733
vt 0.297998 0.287733
vt 0.297998 0.287733
vt 0.328519 0.287733
vt 0.328519 0.287733
vt 0.328519 0.287733
vt 0.328519 0.287733
vt 0.297998 0.287733
vt 0.297998 0.287733
vt 0.297998 0.287733
vt 0.297998 0.287733
vt 0.297998 0.287733
vt 0.297998 0.287733
vt 0.297998 0.287733
vt 0.297998 0.287733
vt 0.236575 0.287733
vt 0.236575 0.287733
vt 0.236575 0.287733
vt 0.236575 0.287733
vt 0.236575 0.287733
vt 0.236575 0.287733
vt 0.236575 0.287733
vt 0.236575 0.287733
vt 0.264925 0.444286
vt 0.264925 0.444286
vt 0.264925 0.444286
vt 0.264925 0.444286
vt 0.236575 0.444286
vt 0.236575 0.444286
vt 0.236575 0.444286
vt 0.236575 0.444286
vt 0.264925 0.444286
vt 0.264925 0.444286
vt 0.264925 0.444286
vt 0.264925 0.444286
vt 0.236575 0.444286
vt 0.236575 0.444286
vt 0.236575 0.444286
vt 0.236575 0.444286
vt 0.236575 0.444286
vt 0.236575 0.444286
vt 0.236575 0.444286
vt 0.236575 0.444286
vt 0.236575 0.444286
vt 0.236575 0.444286
vt 0.236575 0.444286
vt 0.236575 0.444286
vt 0.417983 0.310840
vt 0.236575 0.287733
vt 0.236575 0.287733
vt 0.236575 0.287733
vt 0.417983 0.310840
vt 0.236575 0.287733
vt 0.236575 0.287733
vt 0.236575 0.287733
vt 0.417983 0.310840
vt 0.236575 0.287733
vt 0.417983 0.310840
vt 0.417983 0.310840
vt 0.236575 0.287733
vt 0.417983 0.310840
vt 0.417983 0.310840
vt 0.417983 0.310840
vt 0.236575 0.287733
vt 0.236575 0.287733
vt 0.236575 0.287733
vt 0.236575 0.287733
vt 0.236575 0.287733
vt 0.236575 0.287733
vt 0.236575 0.287733
vt 0.236575 0.287733
vt 0.236575 0.287733
vt 0.236575 0.287733
vt 0.236575 0.287733
vt 0.236575 0.287733
vt 0.236575 0.287733
vt 0.236575 0.287733
vt 0.236575 0.287733
vt 0.236575 0.287733
vt 0.328519 0.221266
vt 0.297998 0.444286
vt 0.328519 0.444286
vt 0.264925 0.444286
vt 0.264925 0.444286
vt 0.297998 0.444286
vt 0.328519 0.444286
vt 0.297998 0.444286
vt 0.028680 0.840942
vt 0.009783 0.842350
vt 0.009783 0.842615
vt 0.050507 0.843021
vt 0.032442 0.841145
vt 0.048931 0.843338
vt 0.264925 0.444286
vt 0.297998 0.444286
vt 0.328519 0.444286
vt 0.264925 0.444286
vt 0.328519 0.444286
vt 0.359377 0.221266
vt 0.297998 0.221266
vt 0.359377 0.221266
vt 0.328519 0.221266
vt 0.297998 0.221266
vt 0.032422 0.841145
vt 0.048911 0.843338
vt 0.009807 0.842615
vt 0.050483 0.843021
vt 0.028656 0.840942
vt 0.009807 0.842350
vt 0.297998 0.221266
vt 0.328519 0.221266
vt 0.359377 0.221266
vt 0.297998 0.221266
vt 0.328519 0.221266
vt 0.359377 0.221266
vn 0.000000 0.000000 -1.000000
vn 0.000000 0.000000 -1.000000
vn 0.000000 0.000000 -1.000000
vn 0.000000 0.000000 -1.000000
vn 0.000000 -1.000000 0.000000
vn 0.000000 -1.000000 0.000000
vn 0.000000 -1.000000 0.000000
vn -0.789861 0.000000 0.613285
vn -0.789861 0.000000 0.613285
vn -0.789861 0.000000 0.613285
vn -0.789861 0.000000 0.613285
vn 0.000000 1.000000 0.000000
vn 0.000000 1.000000 0.000000
vn 0.000000 1.000000 0.000000
vn 0.789863 0.000000 0.613284
vn 0.789863 0.000000 0.613284
vn 0.789863 0.000000 0.613284
vn 0.789863 0.000000 0.613284
vn 0.000000 0.000000 1.000000
vn 0.000000 0.000000 1.000000
vn 0.000000 0.000000 1.000000
vn 0.000000 0.000000 1.000000
vn 0.000000 1.000000 0.000000
vn 0.000000 1.000000 0.000000
vn 0.000000 1.000000 0.000000
vn 0.000000 1.000000 0.000000
vn 0.000000 0.000000 -1.000000
vn 0.000000 0.000000 -1.000000
vn 0.000000 0.000000 -1.000000
vn 0.000000 0.000000 -1.000000
vn 0.000000 -1.000000 0.000000
vn 0.000000 -1.000000 0.000000
vn 0.000000 -1.000000 0.000000
vn 0.000000 -1.000000 0.000000
vn 1.000000 0.000000 0.000000
vn 1.000000 0.000000 0.000000
vn 1.000000 0.000000 0.000000
vn 1.000000 0.000000 0.000000
vn -1.000000 0.000000 0.000000
vn -1.000000 0.000000 0.000000
vn -1.000000 0.000000 0.000000
vn -1.000000 0.000000 0.000000
vn 0.000000 0.000000 1.000000
vn 0.000000 0.000000 1.000000
vn 0.000000 0.000000 1.000000
vn 0.000000 0.000000 1.000000
vn 1.000000 0.000000 0.000000
vn 1.000000 0.000000 0.000000
vn 1.000000 0.000000 0.000000
vn 1.000000 0.000000 0.000000
vn 0.000000 0.000000 -1.000000
vn 0.000000 0.000000 -1.000000
vn 0.000000 0.000000 -1.000000
vn 0.000000 0.000000 -1.000000
vn -1.000000 0.000000 0.000000
vn -1.000000 0.000000 0.000000
vn -1.000000 0.000000 0.000000
vn -1.000000 0.000000 0.000000
vn 0.000000 -1.000000 0.000000
vn 0.000000 -1.000000 0.000000
vn 0.000000 -1.000000 0.000000
vn 0.000000 -1.000000 0.000000
vn 0.000000 1.000000 0.000000
vn 0.000000 1.000000 0.000000
vn 0.000000 1.000000 0.000000
vn 0.000000 1.000000 0.000000
vn 1.000000 0.000000 0.000000
vn 1.000000 0.000000 0.000000
vn 1.000000 0.000000 0.000000
vn 1.000000 0.000000 0.000000
vn 1.000000 0.000000 0.000000
vn 1.000000 0.000000 0.000000
vn 1.000000 0.000000 0.000000
vn 1.000000 0.000000 0.000000
vn 1.000000 -0.000000 0.000000
vn 1.000000 -0.000000 0.000000
vn 1.000000 -0.000000 0.000000
vn 1.000000 -0.000000 0.000000
vn 1.000000 0.000000 0.000000
vn 1.000000 0.000000 0.000000
vn 1.000000 0.000000 0.000000
vn 1.000000 0.000000 0.000000
vn -1.000000 0.000000 0.000000
vn -1.000000 0.000000 0.000000
vn -1.000000 0.000000 0.000000
vn -1.000000 0.000000 0.000000
vn -1.000000 0.000000 0.000000
vn -1.000000 0.000000 0.000000
vn -1.000000 0.000000 0.000000
vn -1.000000 0.000000 0.000000
vn -1.000000 0.000000 0.000000
vn -1.000000 0.000000 0.000000
vn -1.000000 0.000000 0.000000
vn -1.000000 0.000000 0.000000
vn -1.000000 0.000000 0.000000
vn -1.000000 0.000000 0.000000
vn -1.000000 0.000000 0.000000
vn -1.000000 0.000000 0.000000
vn -0.789861 0.000000 0.613286
vn -0.789861 0.000000 0.613286
vn -0.789861 0.000000 0.613286
vn -0.789861 0.000000 0.613286
vn 0.000000 0.000000 -1.000000
vn 0.000000 0.000000 -1.000000
vn 0.000000 0.000000 -1.000000
vn 0.000000 0.000000 -1.000000
vn 0.789863 0.000000 0.613284
vn 0.789863 0.000000 0.613284
vn 0.789863 0.000000 0.613284
vn 0.789863 0.000000 0.613284
vn -0.789861 0.000000 0.613285
vn -0.789861 0.000000 0.613285
vn -0.789861 0.000000 0.613285
vn -0.789861 0.000000 0.613285
vn 0.000000 0.000000 -1.000000
vn 0.000000 0.000000 -1.000000
vn 0.000000 0.000000 -1.000000
vn 0.000000 0.000000 -1.000000
vn 0.789863 0.000000 0.613284
vn 0.789863 0.000000 0.613284
vn 0.789863 0.000000 0.613284
vn 0.789863 0.000000 0.613284
vn -0.789861 0.000000 0.613285
vn -0.789861 0.000000 0.613285
vn -0.789861 0.000000 0.613285
vn -0.789861 0.000000 0.613285
vn 0.789863 0.000000 0.613283
vn 0.789863 0.000000 0.613283
vn 0.789863 0.000000 0.613283
vn 0.789863 0.000000 0.613283
vn 0.000000 0.000000 -1.000000
vn 0.000000 0.000000 -1.000000
vn 0.000000 0.000000 -1.000000
vn 0.000000 0.000000 -1.000000
s off
f 35/116/1 36/113/2 5/6/3 6/7/4
f 1/8/5 6/9/6 5/10/7
f 6/16/8 1/17/9 34/105/10 35/115/11
f 2/1/12 4/2/13 3/3/14
f 1/13/15 5/11/16 36/114/17 34/106/18
f 7/19/19 8/20/20 10/21/21 9/22/22
f 9/23/23 10/24/24 12/25/25 11/26/26
f 11/27/27 12/28/28 14/29/29 13/30/30
f 13/31/31 14/32/32 8/33/33 7/34/34
f 24/67/35 23/82/36 25/81/37 26/80/38
f 27/71/39 28/78/40 29/77/41 30/75/42
f 15/43/43 16/44/44 18/45/45 17/46/46
f 17/47/47 18/48/48 20/49/49 19/50/50
f 19/51/51 20/52/52 22/53/53 21/54/54
f 21/55/55 22/56/56 16/57/57 15/58/58
f 16/59/59 22/60/60 20/61/61 18/62/62
f 21/63/63 15/64/64 17/65/65 19/66/66
f 8/35/67 14/98/68 23/95/69 24/79/70
f 14/36/71 12/96/72 25/93/73 23/68/74
f 12/37/75 10/94/76 26/92/77 25/69/78
f 10/38/79 8/97/80 24/91/81 26/70/82
f 13/39/83 7/89/84 28/87/85 27/76/86
f 7/40/87 9/88/88 29/85/89 28/72/90
f 9/41/91 11/86/92 30/83/93 29/73/94
f 11/42/95 13/90/96 27/84/97 30/74/98
f 31/117/99 2/18/100 3/15/101 32/101/102
f 3/4/103 4/5/104 33/103/105 32/102/106
f 33/104/107 4/12/108 2/14/109 31/100/110
f 37/133/111 31/99/112 32/121/113 39/130/114
f 32/122/115 33/119/116 38/132/117 39/129/118
f 37/134/119 38/131/120 33/120/121 31/118/122
f 35/107/123 34/111/124 37/123/125 39/127/126
f 34/112/127 36/110/128 38/126/129 37/124/130
f 39/128/131 38/125/132 36/109/133 35/108/134
