# This file uses centimeters as units for non-parametric coordinates.

v -10.567585 10.137447 10.567688
v 10.567673 10.137447 10.567688
v -10.567585 10.137447 -10.567627
v 10.567673 10.137447 -10.567627
v -4.358841 20.855881 4.358887
v 4.358854 20.855881 4.358887
v 4.358854 20.855881 -4.358826
v -4.358841 20.855881 -4.358826
v -4.358841 30.321480 4.358887
v 4.358854 30.321480 4.358887
v 4.358854 30.321480 -4.358826
v -4.358841 30.321480 -4.358826
v -2.631226 30.321480 2.631287
v 2.631287 30.321480 2.631287
v 2.631287 30.321480 -2.631226
v -2.631226 30.321480 -2.631226
v -2.631226 37.130539 2.631287
v 2.631287 37.130539 2.631287
v 2.631287 37.130539 -2.631226
v -2.631226 37.130539 -2.631226
v -1.203400 37.130539 1.203491
v 1.203476 37.130539 1.203491
v 1.203476 37.130539 -1.203369
v -1.203400 37.130539 -1.203369
v 10.567673 1.918045 10.567688
v -10.567585 1.918045 10.567688
v -10.567585 1.918045 -10.567627
v 10.567673 1.918045 -10.567627
v 10.567673 -28.911129 10.567688
v -10.567585 -28.911129 10.567688
v -10.567585 -28.911129 -10.567627
v 10.567673 -28.911129 -10.567627
v -12.352890 -37.130535 12.352905
v 12.352917 -37.130535 12.352905
v 12.352917 -28.911129 12.352905
v -12.352890 -28.911129 12.352905
v -12.352890 -28.911129 -12.352905
v 12.352917 -28.911129 -12.352905
v 12.352917 -37.130535 -12.352905
v -12.352890 -37.130535 -12.352905
v 12.352917 1.918045 12.352905
v -12.352890 1.918045 12.352905
v 12.352917 10.137447 12.352905
v -12.352890 10.137447 12.352905
v -12.352890 1.918045 -12.352905
v -12.352890 10.137447 -12.352905
v 12.352917 10.137447 -12.352905
v 12.352917 1.918045 -12.352905
v -8.613388 -26.631174 10.567688
v -8.613388 -0.361908 10.567688
v 8.613449 -26.631174 10.567688
v 8.613449 -0.361908 10.567688
vt 0.417983 0.131308
vt 0.389670 0.131308
vt 0.389670 0.131308
vt 0.417983 0.131308
vt 0.453192 0.131308
vt 0.453192 0.131308
vt 0.389670 0.477572
vt 0.359377 0.477572
vt 0.389670 0.477572
vt 0.359377 0.477572
vt 0.417983 0.477572
vt 0.417983 0.477572
vt 0.417983 0.477572
vt 0.417983 0.477572
vt 0.389670 0.477572
vt 0.359377 0.477572
vt 0.389670 0.477572
vt 0.359377 0.477572
vt 0.417983 0.477572
vt 0.417983 0.477572
vt 0.417983 0.477572
vt 0.417983 0.477572
vt 0.141447 0.477572
vt 0.417983 0.477572
vt 0.417983 0.477572
vt 0.417983 0.477572
vt 0.417983 0.477572
vt 0.417983 0.477572
vt 0.417983 0.477572
vt 0.141447 0.477572
vt 0.417983 0.477572
vt 0.141447 0.477572
vt 0.359377 0.477572
vt 0.389670 0.477572
vt 0.417983 0.477572
vt 0.417983 0.477572
vt 0.141447 0.477572
vt 0.389670 0.477572
vt 0.359377 0.477572
vt 0.417983 0.477572
vt 0.359377 0.477572
vt 0.389670 0.477572
vt 0.417983 0.477572
vt 0.389670 0.477572
vt 0.359377 0.477572
vt 0.417983 0.477572
vt 0.417983 0.477572
vt 0.417983 0.477572
vt 0.389670 0.477572
vt 0.417983 0.477572
vt 0.417983 0.477572
vt 0.359377 0.477572
vt 0.417983 0.477572
vt 0.417983 0.477572
vt 0.389670 0.477572
vt 0.417983 0.477572
vt 0.417983 0.477572
vt 0.359377 0.477572
vt 0.359377 0.477572
vt 0.389670 0.477572
vt 0.417983 0.477572
vt 0.389670 0.477572
vt 0.359377 0.477572
vt 0.417983 0.477572
vt 0.359377 0.477572
vt 0.389670 0.477572
vt 0.417983 0.477572
vt 0.389670 0.477572
vt 0.359377 0.477572
vt 0.417983 0.477572
vt 0.389670 0.131308
vt 0.417983 0.131308
vt 0.389670 0.477572
vt 0.417983 0.131308
vt 0.389670 0.131308
vt 0.359377 0.477572
vt 0.389670 0.131308
vt 0.417983 0.131308
vt 0.389670 0.477572
vt 0.417983 0.131308
vt 0.389670 0.131308
vt 0.359377 0.477572
vt 0.453192 0.131308
vt 0.417983 0.131308
vt 0.453192 0.131308
vt 0.389670 0.131308
vt 0.453192 0.131308
vt 0.453192 0.131308
vt 0.417983 0.131308
vt 0.453192 0.131308
vt 0.453192 0.131308
vt 0.389670 0.131308
vt 0.417983 0.131308
vt 0.328519 0.131308
vt 0.328519 0.131308
vt 0.417983 0.131308
vt 0.328519 0.131308
vt 0.417983 0.131308
vt 0.417983 0.131308
vt 0.328519 0.131308
vt 0.453192 0.131308
vt 0.328519 0.131308
vt 0.453192 0.131308
vt 0.417983 0.131308
vt 0.328519 0.131308
vt 0.453192 0.131308
vt 0.417983 0.131308
vt 0.453192 0.131308
vt 0.389670 0.131308
vt 0.264925 0.131308
vt 0.389670 0.131308
vt 0.453192 0.131308
vt 0.389670 0.131308
vt 0.453192 0.131308
vt 0.389670 0.131308
vt 0.264925 0.131308
vt 0.328519 0.131308
vt 0.453192 0.131308
vt 0.328519 0.131308
vt 0.328519 0.131308
vt 0.453192 0.131308
vt 0.328519 0.131308
vt 0.389670 0.131308
vt 0.417983 0.131308
vt 0.389670 0.131308
vt 0.453192 0.131308
vt 0.328519 0.131308
vt 0.328519 0.131308
vt 0.453192 0.131308
vt 0.453192 0.131308
vt 0.453192 0.131308
vt 0.453192 0.131308
vt 0.389670 0.131308
vt 0.389670 0.131308
vt 0.328519 0.131308
vt 0.328519 0.131308
vt 0.453192 0.131308
vt 0.328519 0.131308
vt 0.453192 0.131308
vt 0.453192 0.131308
vt 0.389670 0.131308
vt 0.328519 0.131308
vt 0.328519 0.131308
vt 0.389670 0.131308
vt 0.389670 0.131308
vt 0.328519 0.131308
vt 0.389670 0.131308
vt 0.328519 0.131308
vt 0.453192 0.131308
vt 0.453192 0.131308
vt 0.389670 0.131308
vt 0.328519 0.131308
vt 0.453192 0.131308
vt 0.453192 0.131308
vt 0.328519 0.131308
vt 0.453192 0.131308
vt 0.417983 0.131308
vt 0.453192 0.131308
vt 0.328519 0.131308
vt 0.453192 0.131308
vt 0.417983 0.131308
vt 0.453192 0.131308
vt 0.389670 0.131308
vt 0.328519 0.131308
vt 0.264925 0.131308
vt 0.264925 0.131308
vt 0.389670 0.131308
vt 0.328519 0.131308
vt 0.417983 0.131308
vt 0.417983 0.131308
vt 0.417983 0.131308
vt 0.389670 0.131308
vt 0.417983 0.331011
vt 0.417983 0.131308
vt 0.417983 0.131308
vt 0.417983 0.131308
vt 0.417983 0.331011
vt 0.417983 0.131308
vt 0.417983 0.331011
vt 0.417983 0.331011
vn 0.000000 0.000000 1.000000
vn 0.000000 0.000000 1.000000
vn 0.000000 0.000000 1.000000
vn 0.000000 0.000000 1.000000
vn 0.000000 1.000000 0.000000
vn 0.000000 1.000000 0.000000
vn 0.000000 1.000000 0.000000
vn 0.000000 1.000000 0.000000
vn 0.000000 0.000000 -1.000000
vn 0.000000 0.000000 -1.000000
vn 0.000000 0.000000 -1.000000
vn 0.000000 0.000000 -1.000000
vn 1.000000 0.000000 0.000000
vn 1.000000 0.000000 0.000000
vn 1.000000 0.000000 0.000000
vn 1.000000 0.000000 0.000000
vn -1.000000 0.000000 0.000000
vn -1.000000 0.000000 0.000000
vn -1.000000 0.000000 0.000000
vn -1.000000 0.000000 0.000000
vn 0.000000 0.501241 0.865307
vn 0.000000 0.501241 0.865307
vn 0.000000 0.501241 0.865308
vn 0.000000 0.501241 0.865307
vn 0.865307 0.501242 0.000000
vn 0.865307 0.501242 0.000000
vn 0.865307 0.501242 0.000000
vn 0.865307 0.501242 0.000000
vn 0.000000 0.501241 -0.865307
vn 0.000000 0.501241 -0.865307
vn 0.000000 0.501241 -0.865307
vn 0.000000 0.501241 -0.865308
vn -0.865310 0.501238 0.000000
vn -0.865310 0.501238 0.000000
vn -0.865310 0.501238 0.000000
vn -0.865310 0.501238 0.000000
vn 0.000000 0.000000 1.000000
vn 0.000000 0.000000 1.000000
vn 0.000000 0.000000 1.000000
vn 0.000000 0.000000 1.000000
vn 1.000000 0.000000 0.000000
vn 1.000000 0.000000 0.000000
vn 1.000000 0.000000 0.000000
vn 1.000000 0.000000 0.000000
vn 0.000000 0.000000 -1.000000
vn 0.000000 0.000000 -1.000000
vn 0.000000 0.000000 -1.000000
vn 0.000000 0.000000 -1.000000
vn -1.000000 0.000000 0.000000
vn -1.000000 0.000000 0.000000
vn -1.000000 0.000000 0.000000
vn -1.000000 0.000000 0.000000
vn 0.000000 1.000000 -0.000001
vn 0.000000 1.000000 -0.000001
vn 0.000000 1.000000 -0.000001
vn 0.000000 1.000000 -0.000001
vn 0.000000 1.000000 0.000000
vn 0.000000 1.000000 0.000000
vn 0.000000 1.000000 0.000000
vn 0.000000 1.000000 0.000000
vn 0.000000 1.000000 0.000002
vn 0.000000 1.000000 0.000002
vn 0.000000 1.000000 0.000002
vn 0.000000 1.000000 0.000002
vn 0.000000 1.000000 0.000000
vn 0.000000 1.000000 0.000000
vn 0.000000 1.000000 0.000000
vn 0.000000 1.000000 0.000000
vn 0.000000 0.000000 1.000000
vn 0.000000 0.000000 1.000000
vn 0.000000 0.000000 1.000000
vn 0.000000 0.000000 1.000000
vn 1.000000 0.000000 0.000000
vn 1.000000 0.000000 0.000000
vn 1.000000 0.000000 0.000000
vn 1.000000 0.000000 0.000000
vn 0.000000 0.000000 -1.000000
vn 0.000000 0.000000 -1.000000
vn 0.000000 0.000000 -1.000000
vn 0.000000 0.000000 -1.000000
vn -1.000000 0.000000 0.000000
vn -1.000000 0.000000 0.000000
vn -1.000000 0.000000 0.000000
vn -1.000000 0.000000 0.000000
vn 0.000000 1.000000 0.000000
vn 0.000000 1.000000 0.000000
vn 0.000000 1.000000 0.000000
vn 0.000000 1.000000 0.000000
vn 0.000000 1.000000 0.000000
vn 0.000000 1.000000 0.000000
vn 0.000000 1.000000 0.000000
vn 0.000000 1.000000 0.000000
vn 0.000000 1.000000 0.000000
vn 0.000000 1.000000 0.000000
vn 0.000000 1.000000 0.000000
vn 0.000000 1.000000 0.000000
vn 0.000000 1.000000 0.000000
vn 0.000000 1.000000 0.000000
vn 0.000000 1.000000 0.000000
vn 0.000000 1.000000 0.000000
vn 0.000000 0.000000 1.000000
vn 0.000000 0.000000 1.000000
vn 0.000000 0.000000 1.000000
vn 0.000000 0.000000 1.000000
vn -1.000000 0.000000 0.000000
vn -1.000000 0.000000 0.000000
vn -1.000000 0.000000 0.000000
vn -1.000000 0.000000 0.000000
vn 0.000000 0.000000 -1.000000
vn 0.000000 0.000000 -1.000000
vn 0.000000 0.000000 -1.000000
vn 0.000000 0.000000 -1.000000
vn 1.000000 0.000000 0.000000
vn 1.000000 0.000000 0.000000
vn 1.000000 0.000000 0.000000
vn 1.000000 0.000000 0.000000
vn 0.000000 0.000000 1.000000
vn 0.000000 0.000000 1.000000
vn 0.000000 0.000000 1.000000
vn 0.000000 0.000000 1.000000
vn -1.000000 0.000000 0.000000
vn -1.000000 0.000000 0.000000
vn -1.000000 0.000000 0.000000
vn -1.000000 0.000000 0.000000
vn 0.000000 0.000000 -1.000000
vn 0.000000 0.000000 -1.000000
vn 0.000000 0.000000 -1.000000
vn 0.000000 0.000000 -1.000000
vn 1.000000 0.000000 0.000000
vn 1.000000 0.000000 0.000000
vn 1.000000 0.000000 0.000000
vn 1.000000 0.000000 0.000000
vn 0.000000 1.000000 -0.000000
vn 0.000000 1.000000 -0.000000
vn 0.000000 1.000000 -0.000000
vn 0.000000 1.000000 -0.000000
vn 0.000000 1.000000 0.000000
vn 0.000000 1.000000 0.000000
vn 0.000000 1.000000 0.000000
vn 0.000000 1.000000 0.000000
vn 0.000000 1.000000 0.000000
vn 0.000000 1.000000 0.000000
vn 0.000000 1.000000 0.000000
vn 0.000000 1.000000 0.000000
vn 0.000000 -1.000000 0.000000
vn 0.000000 -1.000000 0.000000
vn 0.000000 -1.000000 0.000000
vn 0.000000 -1.000000 0.000000
vn 0.000000 1.000000 0.000000
vn 0.000000 1.000000 0.000000
vn 0.000000 1.000000 0.000000
vn 0.000000 1.000000 0.000000
vn 0.000000 -1.000000 -0.000000
vn 0.000000 -1.000000 -0.000000
vn 0.000000 -1.000000 -0.000000
vn 0.000000 -1.000000 -0.000000
vn 0.000000 1.000000 0.000000
vn 0.000000 1.000000 0.000000
vn 0.000000 1.000000 0.000000
vn 0.000000 1.000000 0.000000
vn 0.000000 -1.000000 0.000000
vn 0.000000 -1.000000 0.000000
vn 0.000000 -1.000000 0.000000
vn 0.000000 -1.000000 0.000000
vn 0.000000 1.000000 0.000000
vn 0.000000 1.000000 0.000000
vn 0.000000 1.000000 0.000000
vn 0.000000 1.000000 0.000000
vn 0.000000 1.000000 -0.000000
vn 0.000000 1.000000 -0.000000
vn 0.000000 1.000000 -0.000000
vn 0.000000 1.000000 -0.000000
vn 0.000000 -1.000000 -0.000000
vn 0.000000 -1.000000 -0.000000
vn 0.000000 -1.000000 -0.000000
vn 0.000000 -1.000000 -0.000000
vn 0.000000 -1.000000 0.000000
vn 0.000000 -1.000000 0.000000
vn 0.000000 -1.000000 0.000000
vn 0.000000 -1.000000 0.000000
vn 0.000000 1.000000 0.000000
vn 0.000000 1.000000 0.000000
vn 0.000000 1.000000 0.000000
vn 0.000000 1.000000 0.000000
vn 0.000000 0.000000 1.000000
vn 0.000000 0.000000 1.000000
vn 0.000000 0.000000 1.000000
vn 0.000000 0.000000 1.000000
vn 0.000000 0.000000 1.000000
vn 0.000000 0.000000 1.000000
vn 0.000000 0.000000 1.000000
vn 0.000000 0.000000 1.000000
vn 0.000000 0.000000 1.000000
vn 0.000000 0.000000 1.000000
vn 0.000000 0.000000 1.000000
vn 0.000000 0.000000 1.000000
vn 0.000000 0.000000 1.000000
vn 0.000000 0.000000 1.000000
vn 0.000000 0.000000 1.000000
vn 0.000000 0.000000 1.000000
s off
f 33/109/1 34/167/2 35/111/3 36/147/4
f 21/23/5 22/37/6 23/32/7 24/30/8
f 37/113/9 38/151/10 39/115/11 40/163/12
f 34/168/13 39/117/14 38/152/15 35/119/16
f 40/164/17 33/120/18 36/148/19 37/122/20
f 1/1/21 2/89/22 6/78/23 5/80/24
f 2/2/25 4/86/26 7/75/27 6/77/28
f 4/4/29 3/84/30 8/72/31 7/74/32
f 3/3/33 1/92/34 5/81/35 8/71/36
f 5/7/37 6/79/38 10/66/39 9/68/40
f 6/8/41 7/76/42 11/63/43 10/65/44
f 7/9/45 8/73/46 12/60/47 11/62/48
f 8/10/49 5/82/50 9/69/51 12/59/52
f 9/11/53 10/67/54 14/54/55 13/56/56
f 10/12/57 11/64/58 15/51/59 14/53/60
f 11/13/61 12/61/62 16/48/63 15/50/64
f 12/14/65 9/70/66 13/57/67 16/47/68
f 13/15/69 14/55/70 18/42/71 17/44/72
f 14/16/73 15/52/74 19/39/75 18/41/76
f 15/17/77 16/49/78 20/34/79 19/38/80
f 16/18/81 13/58/82 17/45/83 20/33/84
f 17/19/85 18/43/86 22/36/87 21/27/88
f 18/20/89 19/40/90 23/31/91 22/24/92
f 19/21/93 20/35/94 24/29/95 23/25/96
f 20/22/97 17/46/98 21/28/99 24/26/100
f 42/123/101 41/172/102 43/125/103 44/145/104
f 45/127/105 42/128/106 44/146/107 46/143/108
f 46/144/109 47/141/110 48/133/111 45/134/112
f 41/135/113 48/136/114 47/142/115 43/138/116
f 50/173/117 49/180/118 51/179/119 52/177/120
f 31/105/121 30/159/122 26/95/123 27/97/124
f 32/107/125 31/157/126 27/98/127 28/99/128
f 25/94/129 29/102/130 32/155/131 28/100/132
f 29/101/133 30/160/134 36/112/135 35/153/136
f 31/106/137 32/156/138 38/114/139 37/149/140
f 32/108/141 29/162/142 35/154/143 38/118/144
f 39/166/145 34/110/146 33/165/147 40/116/148
f 30/103/149 31/158/150 37/150/151 36/121/152
f 26/96/153 25/93/154 41/124/155 42/171/156
f 2/88/157 1/90/158 44/126/159 43/139/160
f 27/97/161 26/95/162 42/128/163 45/127/164
f 1/91/165 3/6/166 46/130/167 44/129/168
f 3/83/169 4/85/170 47/132/171 46/131/172
f 28/99/173 27/98/174 45/169/175 48/170/176
f 25/94/177 28/100/178 48/136/179 41/135/180
f 4/5/181 2/87/182 43/140/183 47/137/184
f 26/96/185 30/104/186 49/174/187 50/178/188
f 30/104/189 29/161/190 51/175/191 49/174/192
f 29/161/193 25/93/194 52/176/195 51/175/196
f 25/93/197 26/96/198 50/178/199 52/176/200
