# This file uses centimeters as units for non-parametric coordinates.

v 1.644123 -1.644119 19.521729
v 1.644165 -1.644119 -19.521698
v 1.644123 1.644123 19.521729
v 1.644165 1.644123 -19.521698
v -1.644085 1.644123 19.521698
v -1.644043 1.644123 -19.521698
v -1.644085 -1.644119 19.521698
v -1.644043 -1.644119 -19.521698
v 1.644114 1.644123 -8.953979
v -1.644094 1.644123 -8.953979
v -1.644094 -1.644119 -8.953979
v 1.644114 -1.644119 -8.953979
vt 0.297998 0.398205
vt 0.236575 0.375776
vt 0.417983 0.477572
vt 0.297998 0.375776
vt 0.359377 0.477572
vt 0.236575 0.375776
vt 0.417983 0.477572
vt 0.297998 0.375776
vt 0.417983 0.477572
vt 0.297998 0.375776
vt 0.202875 0.444286
vt 0.202875 0.444286
vt 0.297998 0.398205
vt 0.297998 0.398205
vt 0.359377 0.477572
vt 0.236575 0.375776
vt 0.297998 0.375776
vt 0.236575 0.375776
vt 0.297998 0.375776
vt 0.417983 0.477572
vt 0.359377 0.477572
vt 0.417983 0.477572
vt 0.297998 0.375776
vt 0.359377 0.477572
vt 0.417983 0.477572
vt 0.417983 0.477572
vt 0.359377 0.477572
vt 0.359377 0.477572
vt 0.359377 0.477572
vt 0.417983 0.477572
vt 0.359377 0.477572
vt 0.297998 0.398205
vt 0.236575 0.375776
vt 0.202875 0.444286
vt 0.297998 0.375776
vt 0.236575 0.375776
vt 0.236575 0.375776
vt 0.297998 0.375776
vt 0.202875 0.444286
vt 0.236575 0.375776
vn 1.000000 0.000000 -0.000000
vn 1.000000 0.000000 -0.000000
vn 1.000000 0.000000 -0.000000
vn 1.000000 0.000000 -0.000000
vn 0.000000 1.000000 0.000000
vn 0.000000 1.000000 0.000000
vn 0.000000 1.000000 0.000000
vn 0.000000 1.000000 0.000000
vn -1.000000 0.000000 0.000000
vn -1.000000 0.000000 0.000000
vn -1.000000 0.000000 0.000000
vn -1.000000 0.000000 0.000000
vn 0.000000 -1.000000 0.000000
vn 0.000000 -1.000000 0.000000
vn 0.000000 -1.000000 0.000000
vn 0.000000 -1.000000 0.000000
vn 0.000000 0.000000 -1.000000
vn 0.000000 0.000000 -1.000000
vn 0.000000 0.000000 -1.000000
vn 0.000000 0.000000 -1.000000
vn -0.000009 0.000000 1.000000
vn -0.000009 0.000000 1.000000
vn -0.000009 0.000000 1.000000
vn -0.000009 0.000000 1.000000
vn 0.000000 1.000000 0.000000
vn 0.000000 1.000000 0.000000
vn 0.000000 1.000000 0.000000
vn 0.000000 1.000000 0.000000
vn -1.000000 0.000000 -0.000005
vn -1.000000 0.000000 -0.000005
vn -1.000000 0.000000 -0.000005
vn -1.000000 0.000000 -0.000005
vn 0.000000 -1.000000 0.000000
vn 0.000000 -1.000000 0.000000
vn 0.000000 -1.000000 0.000000
vn 0.000000 -1.000000 0.000000
vn 1.000000 0.000000 0.000005
vn 1.000000 0.000000 0.000005
vn 1.000000 0.000000 0.000005
vn 1.000000 0.000000 0.000005
s off
f 1/29/1 12/21/2 9/15/3 3/31/4
f 3/3/5 9/22/6 10/26/7 5/30/8
f 5/5/9 10/27/10 11/24/11 7/28/12
f 7/7/13 11/25/14 12/20/15 1/9/16
f 2/34/17 8/11/18 6/12/19 4/39/20
f 7/13/21 1/1/22 3/32/23 5/14/24
f 9/23/25 4/4/26 6/38/27 10/35/28
f 11/36/29 10/16/30 6/6/31 8/37/32
f 12/19/33 11/17/34 8/8/35 2/10/36
f 9/33/37 12/18/38 2/2/39 4/40/40
