# This file uses centimeters as units for non-parametric coordinates.

v -12.450439 -9.820866 4.812401
v 12.450378 -9.820866 4.812401
v -12.450439 22.670025 4.812401
v 12.450378 22.670025 4.812401
v -12.450439 22.670025 -4.812431
v 12.450378 22.670025 -4.812431
v -12.450439 -9.820866 -4.812431
v 12.450378 -9.820866 -4.812431
v -7.006226 31.575874 4.812401
v 7.006226 31.575874 4.812401
v 7.006226 31.575874 -4.812431
v -7.006226 31.575874 -4.812431
v -4.222778 -9.820866 -1.474854
v 4.222778 -9.820866 -1.474854
v 4.222778 -9.820866 1.474854
v -4.222778 -9.820866 1.474854
v -4.222778 -31.575874 -1.474854
v 4.222778 -31.575874 -1.474854
v 4.222778 -31.575874 1.474854
v -4.222778 -31.575874 1.474854
vt 0.417983 0.310840
vt 0.417983 0.310840
vt 0.417983 0.310840
vt 0.417983 0.310840
vt 0.417983 0.310840
vt 0.417983 0.310840
vt 0.483503 0.310840
vt 0.389670 0.310840
vt 0.389670 0.310840
vt 0.389670 0.310840
vt 0.389670 0.310840
vt 0.389670 0.310840
vt 0.389670 0.310840
vt 0.389670 0.310840
vt 0.417983 0.310840
vt 0.417983 0.310840
vt 0.417983 0.310840
vt 0.417983 0.310840
vt 0.417983 0.310840
vt 0.417983 0.310840
vt 0.171345 0.398205
vt 0.171345 0.398205
vt 0.171345 0.398205
vt 0.171345 0.398205
vt 0.359377 0.310840
vt 0.359377 0.310840
vt 0.359377 0.310840
vt 0.359377 0.310840
vt 0.359377 0.310840
vt 0.359377 0.310840
vt 0.359377 0.310840
vt 0.359377 0.310840
vt 0.359377 0.310840
vt 0.359377 0.310840
vt 0.359377 0.310840
vt 0.359377 0.310840
vt 0.359377 0.310840
vt 0.359377 0.310840
vt 0.359377 0.310840
vt 0.359377 0.310840
vt 0.328519 0.398205
vt 0.328519 0.398205
vt 0.328519 0.398205
vt 0.328519 0.398205
vt 0.236575 0.398205
vt 0.236575 0.398205
vt 0.236575 0.398205
vt 0.236575 0.398205
vt 0.328519 0.398205
vt 0.328519 0.398205
vt 0.328519 0.398205
vt 0.328519 0.398205
vt 0.236575 0.398205
vt 0.236575 0.398205
vt 0.236575 0.398205
vt 0.236575 0.398205
vt 0.359377 0.310840
vt 0.359377 0.310840
vt 0.359377 0.310840
vt 0.359377 0.310840
vt 0.359377 0.310840
vt 0.359377 0.310840
vt 0.359377 0.310840
vt 0.359377 0.310840
vt 0.389670 0.310840
vt 0.483503 0.310840
vt 0.483503 0.310840
vt 0.483503 0.310840
vn 0.000000 0.000000 1.000000
vn 0.000000 0.000000 1.000000
vn 0.000000 0.000000 1.000000
vn 0.000000 0.000000 1.000000
vn 0.000000 1.000000 0.000000
vn 0.000000 1.000000 0.000000
vn 0.000000 1.000000 0.000000
vn 0.000000 1.000000 0.000000
vn 0.000000 0.000000 -1.000000
vn 0.000000 0.000000 -1.000000
vn 0.000000 0.000000 -1.000000
vn 0.000000 0.000000 -1.000000
vn 0.000000 -1.000000 0.000000
vn 0.000000 -1.000000 0.000000
vn 0.000000 -1.000000 0.000000
vn 0.000000 -1.000000 0.000000
vn 1.000000 0.000000 0.000000
vn 1.000000 0.000000 0.000000
vn 1.000000 0.000000 0.000000
vn 1.000000 0.000000 0.000000
vn -1.000000 0.000000 0.000000
vn -1.000000 0.000000 0.000000
vn -1.000000 0.000000 0.000000
vn -1.000000 0.000000 0.000000
vn 0.000000 0.000000 1.000000
vn 0.000000 0.000000 1.000000
vn 0.000000 0.000000 1.000000
vn 0.000000 0.000000 1.000000
vn 0.853210 0.521568 0.000000
vn 0.853210 0.521568 0.000000
vn 0.853210 0.521568 0.000000
vn 0.853210 0.521568 0.000000
vn 0.000000 0.000000 -1.000000
vn 0.000000 0.000000 -1.000000
vn 0.000000 0.000000 -1.000000
vn 0.000000 0.000000 -1.000000
vn -0.853207 0.521572 0.000000
vn -0.853207 0.521572 0.000000
vn -0.853207 0.521572 0.000000
vn -0.853207 0.521572 0.000000
vn 0.000000 -1.000000 0.000000
vn 0.000000 -1.000000 0.000000
vn 0.000000 -1.000000 0.000000
vn 0.000000 -1.000000 0.000000
vn 0.000000 -1.000000 0.000000
vn 0.000000 -1.000000 0.000000
vn 0.000000 -1.000000 0.000000
vn 0.000000 -1.000000 0.000000
vn 0.000000 -1.000000 -0.000000
vn 0.000000 -1.000000 -0.000000
vn 0.000000 -1.000000 -0.000000
vn 0.000000 -1.000000 -0.000000
vn 0.000000 -1.000000 0.000000
vn 0.000000 -1.000000 0.000000
vn 0.000000 -1.000000 0.000000
vn 0.000000 -1.000000 0.000000
vn 0.000000 0.000000 -1.000000
vn 0.000000 0.000000 -1.000000
vn 0.000000 0.000000 -1.000000
vn 0.000000 0.000000 -1.000000
vn 1.000000 0.000000 0.000000
vn 1.000000 0.000000 0.000000
vn 1.000000 0.000000 0.000000
vn 1.000000 0.000000 0.000000
vn 0.000000 0.000000 1.000000
vn 0.000000 0.000000 1.000000
vn 0.000000 0.000000 1.000000
vn 0.000000 0.000000 1.000000
vn -1.000000 0.000000 0.000000
vn -1.000000 0.000000 0.000000
vn -1.000000 0.000000 0.000000
vn -1.000000 0.000000 0.000000
s off
f 1/1/1 2/2/2 4/3/3 3/4/4
f 9/7/5 10/68/6 11/67/7 12/66/8
f 5/15/9 6/16/10 8/17/11 7/18/12
f 17/21/13 18/22/14 19/23/15 20/24/16
f 2/25/17 8/26/18 6/27/19 4/28/20
f 7/29/21 1/30/22 3/31/23 5/32/24
f 3/4/25 4/3/26 10/5/27 9/6/28
f 4/11/29 6/12/30 11/9/31 10/8/32
f 6/16/33 5/15/34 12/19/35 11/20/36
f 5/13/37 3/14/38 9/65/39 12/10/40
f 7/33/41 8/63/42 14/61/43 13/36/44
f 8/34/45 2/62/46 15/59/47 14/35/48
f 2/37/49 1/60/50 16/58/51 15/38/52
f 1/39/53 7/64/54 13/57/55 16/40/56
f 13/41/57 14/42/58 18/43/59 17/44/60
f 14/45/61 15/46/62 19/47/63 18/48/64
f 15/49/65 16/50/66 20/51/67 19/52/68
f 16/53/69 13/54/70 17/55/71 20/56/72
