# This file uses centimeters as units for non-parametric coordinates.

v -6.779953 -16.011812 16.011864
v -6.779953 -16.011812 -16.011848
v 6.779974 -16.011812 16.011864
v 6.779974 -16.011812 -16.011848
v 6.779974 16.011814 16.011864
v 6.779974 16.011814 -16.011848
v -6.779953 16.011814 16.011864
v -6.779953 16.011814 -16.011848
v 6.779974 -6.599845 6.599861
v 6.779974 -6.599845 -6.599846
v 6.779974 6.599850 -6.599846
v 6.779974 6.599850 6.599861
v -6.779953 6.599850 6.599861
v -6.779953 6.599850 -6.599846
v -6.779953 -6.599845 -6.599846
v -6.779953 -6.599845 6.599861
v 6.779974 -4.150338 -16.011848
v 6.779974 3.972851 16.011864
v 6.779974 4.186432 6.599861
v -6.779953 4.186432 6.599861
v -6.779953 3.972851 16.011864
v 6.779974 -4.146355 -12.083866
v 6.779974 -0.055267 -12.085575
v 6.779974 -0.061558 -6.599846
v 3.642380 -4.146645 -16.011848
v 3.660316 -0.120731 -16.011848
v -6.779953 -0.059750 -16.011848
v 6.779974 -0.156105 -16.011848
v -6.779953 -0.215240 -6.599846
v -6.779953 4.045769 12.902264
v -3.741287 3.972851 16.011864
v -3.693329 0.551579 16.011864
v -6.779953 0.551579 16.011864
v -6.779953 0.551579 12.926510
vt 0.086919 0.929639
vt 0.086627 0.922284
vt 0.088967 0.922284
vt 0.088967 0.929639
vt 0.389670 0.110131
vt 0.389670 0.110131
vt 0.389670 0.110131
vt 0.389670 0.110131
vt 0.359377 0.110131
vt 0.359377 0.110131
vt 0.359377 0.110131
vt 0.359377 0.110131
vt 0.359377 0.110131
vt 0.359377 0.110131
vt 0.359377 0.110131
vt 0.090965 0.950539
vt 0.090965 0.959312
vt 0.088467 0.956815
vt 0.088467 0.953036
vt 0.090422 0.953182
vt 0.089295 0.953159
vt 0.089261 0.951692
vt 0.297998 0.110131
vt 0.297998 0.110131
vt 0.297998 0.110131
vt 0.297998 0.110131
vt 0.297998 0.110131
vt 0.297998 0.110131
vt 0.297998 0.110131
vt 0.297998 0.110131
vt 0.297998 0.110131
vt 0.297998 0.110131
vt 0.297998 0.110131
vt 0.297998 0.110131
vt 0.090491 0.949948
vt 0.090175 0.956858
vt 0.088434 0.955117
vt 0.088434 0.952005
vt 0.297998 0.110131
vt 0.297998 0.110131
vt 0.089963 0.920677
vt 0.089963 0.923357
vt 0.087983 0.923357
vt 0.087983 0.920677
vt 0.077488 0.917023
vt 0.077488 0.918974
vt 0.074667 0.918974
vt 0.074667 0.917023
vt 0.080459 0.920102
vt 0.077639 0.917023
vt 0.080459 0.917023
vt 0.086004 0.923414
vt 0.087985 0.923414
vt 0.087985 0.926094
vt 0.086004 0.926094
vt 0.086580 0.959312
vt 0.086580 0.958305
vt 0.086621 0.953036
vt 0.086678 0.950539
vt 0.077488 0.920839
vt 0.074667 0.920839
vt 0.087572 0.957174
vt 0.087550 0.956486
vt 0.083694 0.991404
vt 0.084094 0.991404
vt 0.084091 0.991535
vt 0.297998 0.110131
vt 0.297998 0.110131
vt 0.297998 0.110131
vt 0.297998 0.110131
vt 0.297998 0.110131
vt 0.359377 0.110131
vt 0.359377 0.110131
vt 0.359377 0.110131
vt 0.083269 0.991385
vt 0.080072 0.985207
vt 0.079679 0.985190
vt 0.083671 0.990580
vt 0.083158 0.991385
vt 0.083158 0.990580
vt 0.080459 0.920839
vt 0.077639 0.920839
vt 0.085895 0.949948
vt 0.077639 0.918819
vt 0.089890 0.954502
vt 0.088426 0.954502
vt 0.087352 0.952445
vt 0.086913 0.955117
vt 0.084142 0.992191
vt 0.084206 0.991540
vt 0.359377 0.110131
vt 0.359377 0.110131
vt 0.359377 0.110131
vt 0.359377 0.110131
vt 0.297998 0.110131
vt 0.297998 0.110131
vt 0.297998 0.110131
vt 0.297998 0.110131
vt 0.297998 0.110131
vt 0.359377 0.110131
vt 0.359377 0.110131
vt 0.086944 0.956471
vt 0.083694 0.992191
vt 0.297998 0.110131
vt 0.297998 0.110131
vt 0.297998 0.110131
vt 0.297998 0.110131
vt 0.297998 0.110131
vt 0.297998 0.110131
vt 0.297998 0.110131
vt 0.297998 0.110131
vt 0.297998 0.110131
vt 0.297998 0.110131
vt 0.297998 0.110131
vt 0.297998 0.110131
vt 0.074667 0.918974
vt 0.077488 0.918974
vt 0.297998 0.110131
vt 0.297998 0.110131
vt 0.297998 0.110131
vt 0.297998 0.110131
vn 0.000000 -1.000000 0.000000
vn 0.000000 -1.000000 0.000000
vn 0.000000 -1.000000 0.000000
vn 0.000000 -1.000000 0.000000
vn 0.000000 1.000000 0.000000
vn 0.000000 1.000000 0.000000
vn 0.000000 1.000000 0.000000
vn 0.000000 1.000000 0.000000
vn 0.000000 0.000000 -1.000000
vn 0.000000 0.000000 -1.000000
vn 0.000000 0.000000 -1.000000
vn 0.000000 0.000000 -1.000000
vn 0.000000 0.000000 1.000000
vn 0.000000 0.000000 1.000000
vn 0.000000 0.000000 1.000000
vn 1.000000 -0.000000 0.000000
vn 1.000000 -0.000000 0.000000
vn 1.000000 -0.000000 0.000000
vn 1.000000 -0.000000 0.000000
vn 1.000000 0.000000 0.000000
vn 1.000000 0.000000 0.000000
vn 1.000000 0.000000 0.000000
vn 1.000000 0.000000 0.000000
vn 1.000000 0.000000 0.000000
vn 1.000000 0.000000 0.000000
vn 1.000000 0.000000 0.000000
vn 1.000000 0.000000 0.000000
vn 1.000000 0.000000 0.000000
vn 1.000000 0.000000 0.000000
vn 1.000000 0.000000 0.000000
vn -1.000000 -0.000000 0.000000
vn -1.000000 -0.000000 0.000000
vn -1.000000 -0.000000 0.000000
vn -1.000000 -0.000000 0.000000
vn -1.000000 0.000000 0.000000
vn -1.000000 0.000000 0.000000
vn -1.000000 0.000000 0.000000
vn -1.000000 0.000000 0.000000
vn -1.000000 0.000000 0.000000
vn -1.000000 0.000000 0.000000
vn -1.000000 0.000000 0.000000
vn -1.000000 0.000000 0.000000
vn -1.000000 0.000000 0.000000
vn -1.000000 0.000000 0.000000
vn -1.000000 0.000000 0.000000
vn 0.000000 -1.000000 0.000000
vn 0.000000 -1.000000 0.000000
vn 0.000000 -1.000000 0.000000
vn 0.000000 -1.000000 0.000000
vn 0.000000 0.000000 -1.000000
vn 0.000000 0.000000 -1.000000
vn 0.000000 0.000000 -1.000000
vn 0.000000 0.000000 -1.000000
vn 0.000000 0.000000 1.000000
vn 0.000000 0.000000 1.000000
vn 0.000000 0.000000 1.000000
vn 0.000000 1.000000 0.000000
vn 0.000000 1.000000 0.000000
vn 0.000000 1.000000 0.000000
vn 0.000000 1.000000 0.000000
vn 1.000000 0.000000 0.000000
vn 1.000000 0.000000 0.000000
vn 1.000000 0.000000 0.000000
vn 1.000000 0.000000 0.000000
vn 1.000000 0.000000 0.000000
vn 1.000000 0.000000 0.000000
vn 1.000000 0.000000 0.000000
vn 1.000000 0.000000 0.000000
vn 0.000000 0.000000 -1.000000
vn 0.000000 0.000000 -1.000000
vn 0.000000 0.000000 -1.000000
vn 0.000000 0.000000 -1.000000
vn -1.000000 0.000000 0.000000
vn -1.000000 0.000000 0.000000
vn -1.000000 0.000000 0.000000
vn 0.000000 0.000000 1.000000
vn 0.000000 0.000000 1.000000
vn 0.000000 0.000000 1.000000
vn 1.000000 0.000000 0.000000
vn 1.000000 0.000000 0.000000
vn 1.000000 0.000000 0.000000
vn 1.000000 0.000000 0.000000
vn 1.000000 0.000000 0.000000
vn 1.000000 0.000000 0.000000
vn 1.000000 0.000000 0.000000
vn 1.000000 0.000000 0.000000
vn 0.000000 0.000000 -1.000000
vn 0.000000 0.000000 -1.000000
vn 0.000000 0.000000 -1.000000
vn 0.000000 0.000000 -1.000000
vn 0.000000 0.000000 -1.000000
vn 0.000000 0.000000 -1.000000
vn 0.000000 0.000000 -1.000000
vn 0.000000 0.000000 -1.000000
vn 0.000000 0.000000 -1.000000
vn 0.000000 0.000000 -1.000000
vn 1.000000 0.000000 0.000000
vn 1.000000 0.000000 0.000000
vn 1.000000 0.000000 0.000000
vn 0.000000 0.000000 -1.000000
vn 0.000000 0.000000 -1.000000
vn 0.000000 0.000000 -1.000000
vn 0.000000 0.000000 -1.000000
vn 0.000000 0.000000 1.000000
vn 0.000000 0.000000 1.000000
vn 0.000000 0.000000 1.000000
vn -1.000000 0.000000 0.000000
vn -1.000000 0.000000 0.000000
vn -1.000000 0.000000 0.000000
vn 0.000000 0.000000 -1.000000
vn 0.000000 0.000000 -1.000000
vn 0.000000 0.000000 -1.000000
vn 0.000000 0.000000 1.000000
vn 0.000000 0.000000 1.000000
vn 0.000000 0.000000 1.000000
vn 0.000000 0.000000 1.000000
vn 1.000000 0.000000 0.000000
vn 1.000000 0.000000 0.000000
vn 1.000000 0.000000 0.000000
vn -1.000000 0.000000 0.000000
vn -1.000000 0.000000 0.000000
vn -1.000000 0.000000 0.000000
vn -1.000000 0.000000 0.000000
vn -1.000000 0.000000 0.000000
vn -1.000000 0.000000 0.000000
vn -1.000000 0.000000 0.000000
vn 0.000000 0.000000 1.000000
vn 0.000000 0.000000 1.000000
vn 0.000000 0.000000 1.000000
vn 0.000000 0.000000 1.000000
vn 0.000000 0.000000 1.000000
vn 0.000000 0.000000 1.000000
vn 0.000000 0.000000 1.000000
vn -1.000000 -0.000000 0.000000
vn -1.000000 -0.000000 0.000000
vn -1.000000 -0.000000 0.000000
vn -1.000000 -0.000000 0.000000
vn -1.000000 0.000000 0.000000
vn -1.000000 0.000000 0.000000
vn -1.000000 0.000000 0.000000
vn 0.000000 0.000000 1.000000
vn 0.000000 0.000000 1.000000
vn 0.000000 0.000000 1.000000
vn 0.000000 0.000000 1.000000
vn -1.000000 0.000000 0.000000
vn -1.000000 0.000000 0.000000
vn -1.000000 0.000000 0.000000
vn -1.000000 0.000000 0.000000
vn -1.000000 0.000000 0.000000
vn -1.000000 0.000000 0.000000
vn 0.000000 0.000000 1.000000
vn 0.000000 0.000000 1.000000
vn 0.000000 0.000000 1.000000
vn 0.000000 0.000000 1.000000
s off
f 1/1/1 2/2/2 4/3/3 3/4/4
f 5/5/5 6/6/6 8/7/7 7/8/8
f 17/9/9 25/10/10 26/11/11 28/12/12
f 7/13/13 21/14/14 31/15/15
f 3/16/16 4/17/17 10/18/18 9/19/19
f 22/20/20 23/21/21 24/22/22
f 6/114/23 5/24/24 12/118/25 11/26/26
f 5/119/27 18/27/28 19/28/29 12/25/30
f 7/104/31 8/30/32 14/120/33 13/108/34
f 27/33/35 29/34/36 14/31/37 8/121/38
f 2/35/39 1/36/40 16/37/41 15/38/42
f 7/105/43 30/39/44 21/40/45
f 11/41/46 12/42/47 13/43/48 14/44/49
f 12/45/50 19/117/51 20/116/52 13/48/53
f 24/49/54 15/50/55 10/51/56
f 10/52/57 15/53/58 16/54/59 9/55/60
f 4/17/61 17/56/62 22/57/63 10/18/64
f 19/58/65 18/59/66 3/16/67 9/19/68
f 20/47/69 19/46/70 9/60/71 16/61/72
f 1/36/73 33/62/74 34/63/75
f 18/64/76 31/65/77 32/66/78
f 28/110/79 23/68/80 22/69/81 17/70/82
f 24/71/83 23/111/84 6/113/85 11/115/86
f 6/72/87 26/11/88 27/73/89 8/74/90
f 25/75/91 27/76/92 26/77/93
f 28/12/94 26/11/95 6/72/96
f 6/23/97 23/112/98 28/67/99
f 2/78/100 25/75/101 17/79/102 4/80/103
f 11/81/104 14/82/105 24/49/106
f 15/38/107 27/83/108 2/35/109
f 2/78/110 27/76/111 25/75/112
f 24/49/113 14/82/114 29/84/115 15/50/116
f 22/20/117 24/22/118 10/18/119
f 15/85/120 29/86/121 27/87/122
f 1/36/123 34/63/124 20/88/125 16/37/126
f 1/89/127 32/66/128 33/90/129
f 33/91/130 32/92/131 31/93/132 21/94/133
f 34/95/134 33/96/135 21/97/136 30/98/137
f 20/99/138 30/106/139 13/32/140
f 7/13/141 31/15/142 18/100/143 5/101/144
f 13/109/145 30/107/146 7/29/147
f 20/88/148 34/63/149 30/102/150
f 18/64/151 32/66/152 1/89/153 3/103/154
