# This file uses centimeters as units for non-parametric coordinates.

v -9.245209 -45.387985 9.245209
v 9.245178 -45.387985 9.245209
v -9.245209 -43.225601 9.245209
v 9.245178 -43.225601 9.245209
v -9.245209 -43.225601 -9.245193
v 9.245178 -43.225601 -9.245193
v -9.245209 -45.387985 -9.245193
v 9.245178 -45.387985 -9.245193
v -2.661865 -41.552780 2.661850
v 2.661865 -41.552780 2.661850
v 2.661865 -41.552780 -2.661819
v -2.661865 -41.552780 -2.661819
v -2.661865 -28.989700 2.661850
v 2.661865 -28.989700 2.661850
v 2.661865 -28.989700 -2.661819
v -2.661865 -28.989700 -2.661819
v -9.313934 1.230133 9.313873
v 9.313934 1.230133 9.313873
v 9.313934 1.230133 -9.313904
v -9.313934 1.230133 -9.313904
v -11.733917 7.262741 11.733887
v 11.733948 7.262741 11.733887
v 11.733948 7.262741 -11.733856
v -11.733917 7.262741 -11.733856
v 6.024933 -23.179886 6.024872
v -6.024933 -23.179886 6.024872
v -6.024933 -23.179886 -6.024841
v 6.024933 -23.179886 -6.024841
v -7.012482 21.827881 7.149902
v 6.685760 21.827881 7.149902
v -7.012482 31.033966 7.149902
v 6.685760 31.033966 7.149902
v -7.012482 31.033966 -6.548477
v 6.685760 31.033966 -6.548477
v -7.012482 21.827881 -6.548477
v 6.685760 21.827881 -6.548477
v -9.287781 7.026581 9.311523
v 9.238495 7.026581 9.311523
v -9.287781 20.302292 9.311523
v 9.238495 20.302292 9.311523
v -9.287781 20.302292 -9.214844
v 9.238495 20.302292 -9.214844
v -9.287781 7.026581 -9.214844
v 9.238495 7.026581 -9.214844
v -10.361603 18.114502 10.412247
v 10.288635 18.114502 10.412247
v -10.361603 22.368530 10.412247
v 10.288635 22.368530 10.412247
v -10.361603 22.368530 -10.238037
v 10.288635 22.368530 -10.238037
v -10.361603 18.114502 -10.238037
v 10.288635 18.114502 -10.238037
v -4.295319 30.394623 4.077988
v 3.981720 30.394623 4.077988
v -4.295319 38.671631 4.077988
v 3.981720 38.671631 4.077988
v -4.295319 38.671631 -4.199036
v 3.981720 38.671631 -4.199036
v -4.295319 30.394623 -4.199036
v 3.981720 30.394623 -4.199036
v -1.124939 38.231476 -1.117432
v 0.811401 38.231476 -1.117432
v -1.124939 45.387970 -5.275970
v 0.811401 45.387970 -5.275970
v -1.124939 44.415131 -6.950150
v 0.811401 44.415131 -6.950150
v -1.124939 37.258636 -2.791611
v 0.811401 37.258636 -2.791611
vt 0.359377 0.477572
vt 0.417983 0.477572
vt 0.453192 0.477572
vt 0.417983 0.477572
vt 0.417983 0.477572
vt 0.453192 0.477572
vt 0.328519 0.477572
vt 0.417983 0.477572
vt 0.328519 0.477572
vt 0.328519 0.477572
vt 0.359377 0.477572
vt 0.359377 0.477572
vt 0.359377 0.477572
vt 0.359377 0.477572
vt 0.453192 0.477572
vt 0.389670 0.477572
vt 0.453192 0.477572
vt 0.389670 0.477572
vt 0.417983 0.477572
vt 0.359377 0.477572
vt 0.417983 0.477572
vt 0.359377 0.477572
vt 0.389670 0.477572
vt 0.453192 0.477572
vt 0.389670 0.477572
vt 0.453192 0.477572
vt 0.453192 0.477572
vt 0.359377 0.477572
vt 0.417983 0.477572
vt 0.359377 0.477572
vt 0.359377 0.477572
vt 0.389670 0.477572
vt 0.453192 0.477572
vt 0.389670 0.477572
vt 0.453192 0.477572
vt 0.417983 0.477572
vt 0.359377 0.477572
vt 0.417983 0.477572
vt 0.453192 0.477572
vt 0.389670 0.477572
vt 0.389670 0.477572
vt 0.359377 0.477572
vt 0.417983 0.477572
vt 0.359377 0.477572
vt 0.417983 0.477572
vt 0.453192 0.477572
vt 0.453192 0.477572
vt 0.417983 0.477572
vt 0.359377 0.477572
vt 0.417983 0.477572
vt 0.359377 0.477572
vt 0.389670 0.477572
vt 0.359377 0.477572
vt 0.417983 0.477572
vt 0.453192 0.477572
vt 0.417983 0.477572
vt 0.359377 0.477572
vt 0.389670 0.477572
vt 0.417983 0.477572
vt 0.359377 0.477572
vt 0.417983 0.477572
vt 0.453192 0.477572
vt 0.359377 0.477572
vt 0.453192 0.477572
vt 0.417983 0.477572
vt 0.453192 0.477572
vt 0.389670 0.477572
vt 0.453192 0.477572
vt 0.417983 0.477572
vt 0.453192 0.477572
vt 0.389670 0.477572
vt 0.359377 0.477572
vt 0.389670 0.477572
vt 0.453192 0.477572
vt 0.417983 0.477572
vt 0.453192 0.477572
vt 0.389670 0.477572
vt 0.359377 0.477572
vt 0.417983 0.477572
vt 0.453192 0.477572
vt 0.453192 0.477572
vt 0.453192 0.477572
vt 0.417983 0.477572
vt 0.389670 0.477572
vt 0.417983 0.477572
vt 0.453192 0.477572
vt 0.453192 0.477572
vt 0.453192 0.477572
vt 0.417983 0.477572
vt 0.389670 0.477572
vt 0.417983 0.477572
vt 0.453192 0.477572
vt 0.417983 0.477572
vt 0.417983 0.477572
vt 0.359377 0.477572
vt 0.417983 0.477572
vt 0.453192 0.477572
vt 0.417983 0.477572
vt 0.359377 0.477572
vt 0.417983 0.477572
vt 0.328519 0.477572
vt 0.359377 0.477572
vt 0.417983 0.477572
vt 0.417983 0.477572
vt 0.417983 0.477572
vt 0.417983 0.477572
vt 0.417983 0.477572
vt 0.417983 0.477572
vt 0.453192 0.477572
vt 0.453192 0.477572
vt 0.453192 0.477572
vt 0.453192 0.477572
vt 0.417983 0.477572
vt 0.417983 0.477572
vt 0.417983 0.477572
vt 0.417983 0.477572
vt 0.389670 0.477572
vt 0.389670 0.477572
vt 0.389670 0.477572
vt 0.389670 0.477572
vt 0.389670 0.477572
vt 0.389670 0.477572
vt 0.389670 0.477572
vt 0.389670 0.477572
vt 0.389670 0.477572
vt 0.389670 0.477572
vt 0.389670 0.477572
vt 0.389670 0.477572
vt 0.417983 0.444286
vt 0.417983 0.444286
vt 0.417983 0.444286
vt 0.417983 0.444286
vt 0.453192 0.444286
vt 0.453192 0.444286
vt 0.453192 0.444286
vt 0.453192 0.444286
vt 0.417983 0.444286
vt 0.417983 0.444286
vt 0.417983 0.444286
vt 0.417983 0.444286
vt 0.389670 0.444286
vt 0.389670 0.444286
vt 0.389670 0.444286
vt 0.389670 0.444286
vt 0.359377 0.444286
vt 0.359377 0.444286
vt 0.359377 0.444286
vt 0.359377 0.444286
vt 0.359377 0.444286
vt 0.359377 0.444286
vt 0.359377 0.444286
vt 0.359377 0.444286
vt 0.236575 0.398205
vt 0.236575 0.398205
vt 0.236575 0.398205
vt 0.236575 0.398205
vt 0.264925 0.398205
vt 0.264925 0.398205
vt 0.264925 0.398205
vt 0.264925 0.398205
vt 0.236575 0.398205
vt 0.236575 0.398205
vt 0.236575 0.398205
vt 0.236575 0.398205
vt 0.202875 0.398205
vt 0.202875 0.398205
vt 0.202875 0.398205
vt 0.202875 0.398205
vt 0.202875 0.398205
vt 0.202875 0.398205
vt 0.202875 0.398205
vt 0.202875 0.398205
vt 0.202875 0.398205
vt 0.202875 0.398205
vt 0.202875 0.398205
vt 0.202875 0.398205
vt 0.417983 0.310840
vt 0.417983 0.310840
vt 0.417983 0.310840
vt 0.417983 0.310840
vt 0.453192 0.310840
vt 0.453192 0.310840
vt 0.453192 0.310840
vt 0.453192 0.310840
vt 0.417983 0.310840
vt 0.417983 0.310840
vt 0.417983 0.310840
vt 0.417983 0.310840
vt 0.389670 0.310840
vt 0.389670 0.310840
vt 0.389670 0.310840
vt 0.389670 0.310840
vt 0.389670 0.310840
vt 0.389670 0.310840
vt 0.389670 0.310840
vt 0.389670 0.310840
vt 0.389670 0.310840
vt 0.389670 0.310840
vt 0.389670 0.310840
vt 0.389670 0.310840
vt 0.297998 0.421450
vt 0.297998 0.421450
vt 0.297998 0.421450
vt 0.297998 0.421450
vt 0.328519 0.421450
vt 0.328519 0.421450
vt 0.328519 0.421450
vt 0.328519 0.421450
vt 0.297998 0.421450
vt 0.297998 0.421450
vt 0.297998 0.421450
vt 0.297998 0.421450
vt 0.264925 0.421450
vt 0.264925 0.421450
vt 0.264925 0.421450
vt 0.264925 0.421450
vt 0.264925 0.421450
vt 0.264925 0.421450
vt 0.264925 0.421450
vt 0.264925 0.421450
vt 0.264925 0.421450
vt 0.264925 0.421450
vt 0.264925 0.421450
vt 0.264925 0.421450
vn 0.000000 0.000000 1.000000
vn 0.000000 0.000000 1.000000
vn 0.000000 0.000000 1.000000
vn 0.000000 0.000000 1.000000
vn 0.000000 1.000000 0.000000
vn 0.000000 1.000000 0.000000
vn 0.000000 1.000000 0.000000
vn 0.000000 1.000000 0.000000
vn 0.000000 0.000000 -1.000000
vn 0.000000 0.000000 -1.000000
vn 0.000000 0.000000 -1.000000
vn 0.000000 0.000000 -1.000000
vn 0.000000 -1.000000 0.000000
vn 0.000000 -1.000000 0.000000
vn 0.000000 -1.000000 0.000000
vn 0.000000 -1.000000 0.000000
vn 1.000000 0.000000 0.000000
vn 1.000000 0.000000 0.000000
vn 1.000000 0.000000 0.000000
vn 1.000000 0.000000 0.000000
vn -1.000000 0.000000 0.000000
vn -1.000000 0.000000 0.000000
vn -1.000000 0.000000 0.000000
vn -1.000000 0.000000 0.000000
vn 0.000000 0.969201 0.246272
vn 0.000000 0.969201 0.246272
vn 0.000000 0.969201 0.246272
vn 0.000000 0.969201 0.246272
vn 0.246274 0.969200 0.000000
vn 0.246274 0.969200 0.000000
vn 0.246274 0.969200 0.000000
vn 0.246274 0.969200 0.000000
vn 0.000000 0.969201 -0.246272
vn 0.000000 0.969201 -0.246272
vn 0.000000 0.969201 -0.246272
vn 0.000000 0.969201 -0.246272
vn -0.246273 0.969201 0.000000
vn -0.246273 0.969200 0.000000
vn -0.246273 0.969201 0.000000
vn -0.246273 0.969200 0.000000
vn 0.000000 0.000000 1.000000
vn 0.000000 0.000000 1.000000
vn 0.000000 0.000000 1.000000
vn 0.000000 0.000000 1.000000
vn 1.000000 0.000000 0.000000
vn 1.000000 0.000000 0.000000
vn 1.000000 0.000000 0.000000
vn 1.000000 0.000000 0.000000
vn 0.000000 0.000000 -1.000000
vn 0.000000 0.000000 -1.000000
vn 0.000000 0.000000 -1.000000
vn 0.000000 0.000000 -1.000000
vn -1.000000 0.000000 0.000000
vn -1.000000 0.000000 0.000000
vn -1.000000 0.000000 0.000000
vn -1.000000 0.000000 0.000000
vn 0.000000 -0.500975 0.865462
vn 0.000000 -0.500975 0.865462
vn 0.000000 -0.500975 0.865462
vn 0.000000 -0.500975 0.865462
vn 0.865459 -0.500979 0.000000
vn 0.865459 -0.500979 0.000000
vn 0.865459 -0.500979 0.000000
vn 0.865459 -0.500979 0.000000
vn 0.000000 -0.500975 -0.865462
vn 0.000000 -0.500975 -0.865462
vn 0.000000 -0.500975 -0.865462
vn 0.000000 -0.500975 -0.865462
vn -0.865459 -0.500979 0.000000
vn -0.865459 -0.500979 0.000000
vn -0.865459 -0.500979 0.000000
vn -0.865459 -0.500979 0.000000
vn 0.000000 -0.372315 0.928106
vn 0.000000 -0.372315 0.928106
vn 0.000000 -0.372315 0.928106
vn 0.000000 -0.372315 0.928106
vn 0.928107 -0.372315 0.000000
vn 0.928106 -0.372315 0.000000
vn 0.928107 -0.372315 0.000000
vn 0.928106 -0.372315 0.000000
vn 0.000000 -0.372307 -0.928110
vn 0.000000 -0.372307 -0.928110
vn 0.000000 -0.372307 -0.928110
vn 0.000000 -0.372307 -0.928110
vn -0.928108 -0.372311 0.000000
vn -0.928108 -0.372311 0.000000
vn -0.928108 -0.372311 0.000000
vn -0.928108 -0.372311 0.000000
vn 0.000000 -0.133533 0.991044
vn 0.000000 -0.133533 0.991044
vn 0.000000 -0.133533 0.991044
vn 0.000000 -0.133533 0.991044
vn -0.991044 -0.133533 0.000000
vn -0.991044 -0.133533 0.000000
vn -0.991044 -0.133533 0.000000
vn -0.991044 -0.133533 0.000000
vn 0.000000 -0.133536 -0.991044
vn 0.000000 -0.133536 -0.991044
vn 0.000000 -0.133536 -0.991044
vn 0.000000 -0.133536 -0.991044
vn 0.991044 -0.133533 0.000000
vn 0.991044 -0.133533 0.000000
vn 0.991044 -0.133533 0.000000
vn 0.991044 -0.133533 0.000000
vn 0.000000 0.000000 1.000000
vn 0.000000 0.000000 1.000000
vn 0.000000 0.000000 1.000000
vn 0.000000 0.000000 1.000000
vn 0.000000 1.000000 0.000000
vn 0.000000 1.000000 0.000000
vn 0.000000 1.000000 0.000000
vn 0.000000 1.000000 0.000000
vn 0.000000 0.000000 -1.000000
vn 0.000000 0.000000 -1.000000
vn 0.000000 0.000000 -1.000000
vn 0.000000 0.000000 -1.000000
vn 0.000000 -1.000000 0.000000
vn 0.000000 -1.000000 0.000000
vn 0.000000 -1.000000 0.000000
vn 0.000000 -1.000000 0.000000
vn 1.000000 0.000000 0.000000
vn 1.000000 0.000000 0.000000
vn 1.000000 0.000000 0.000000
vn 1.000000 0.000000 0.000000
vn -1.000000 0.000000 0.000000
vn -1.000000 0.000000 0.000000
vn -1.000000 0.000000 0.000000
vn -1.000000 0.000000 0.000000
vn 0.000000 0.000000 1.000000
vn 0.000000 0.000000 1.000000
vn 0.000000 0.000000 1.000000
vn 0.000000 0.000000 1.000000
vn 0.000000 1.000000 0.000000
vn 0.000000 1.000000 0.000000
vn 0.000000 1.000000 0.000000
vn 0.000000 1.000000 0.000000
vn 0.000000 0.000000 -1.000000
vn 0.000000 0.000000 -1.000000
vn 0.000000 0.000000 -1.000000
vn 0.000000 0.000000 -1.000000
vn 0.000000 -1.000000 0.000000
vn 0.000000 -1.000000 0.000000
vn 0.000000 -1.000000 0.000000
vn 0.000000 -1.000000 0.000000
vn 1.000000 0.000000 0.000000
vn 1.000000 0.000000 0.000000
vn 1.000000 0.000000 0.000000
vn 1.000000 0.000000 0.000000
vn -1.000000 0.000000 0.000000
vn -1.000000 0.000000 0.000000
vn -1.000000 0.000000 0.000000
vn -1.000000 0.000000 0.000000
vn 0.000000 0.000000 1.000000
vn 0.000000 0.000000 1.000000
vn 0.000000 0.000000 1.000000
vn 0.000000 0.000000 1.000000
vn 0.000000 1.000000 0.000000
vn 0.000000 1.000000 0.000000
vn 0.000000 1.000000 0.000000
vn 0.000000 1.000000 0.000000
vn 0.000000 0.000000 -1.000000
vn 0.000000 0.000000 -1.000000
vn 0.000000 0.000000 -1.000000
vn 0.000000 0.000000 -1.000000
vn 0.000000 -1.000000 0.000000
vn 0.000000 -1.000000 0.000000
vn 0.000000 -1.000000 0.000000
vn 0.000000 -1.000000 0.000000
vn 1.000000 0.000000 0.000000
vn 1.000000 0.000000 0.000000
vn 1.000000 0.000000 0.000000
vn 1.000000 0.000000 0.000000
vn -1.000000 0.000000 0.000000
vn -1.000000 0.000000 0.000000
vn -1.000000 0.000000 0.000000
vn -1.000000 0.000000 0.000000
vn 0.000000 0.000000 1.000000
vn 0.000000 0.000000 1.000000
vn 0.000000 0.000000 1.000000
vn 0.000000 0.000000 1.000000
vn 0.000000 1.000000 0.000000
vn 0.000000 1.000000 0.000000
vn 0.000000 1.000000 0.000000
vn 0.000000 1.000000 0.000000
vn 0.000000 0.000000 -1.000000
vn 0.000000 0.000000 -1.000000
vn 0.000000 0.000000 -1.000000
vn 0.000000 0.000000 -1.000000
vn 0.000000 -1.000000 0.000000
vn 0.000000 -1.000000 0.000000
vn 0.000000 -1.000000 0.000000
vn 0.000000 -1.000000 0.000000
vn 1.000000 0.000000 0.000000
vn 1.000000 0.000000 0.000000
vn 1.000000 0.000000 0.000000
vn 1.000000 0.000000 0.000000
vn -1.000000 0.000000 0.000000
vn -1.000000 0.000000 0.000000
vn -1.000000 0.000000 0.000000
vn -1.000000 0.000000 0.000000
vn 0.000000 0.502421 0.864623
vn 0.000000 0.502421 0.864623
vn 0.000000 0.502421 0.864623
vn 0.000000 0.502421 0.864623
vn 0.000000 0.864624 -0.502420
vn 0.000000 0.864624 -0.502420
vn 0.000000 0.864624 -0.502420
vn 0.000000 0.864624 -0.502420
vn 0.000000 -0.502421 -0.864623
vn 0.000000 -0.502421 -0.864623
vn 0.000000 -0.502421 -0.864623
vn 0.000000 -0.502421 -0.864623
vn 0.000000 -0.864624 0.502420
vn 0.000000 -0.864624 0.502420
vn 0.000000 -0.864624 0.502420
vn 0.000000 -0.864624 0.502420
vn 1.000000 -0.000000 0.000000
vn 1.000000 -0.000000 0.000000
vn 1.000000 -0.000000 0.000000
vn 1.000000 -0.000000 0.000000
vn -1.000000 0.000000 0.000000
vn -1.000000 0.000000 0.000000
vn -1.000000 0.000000 0.000000
vn -1.000000 0.000000 0.000000
s off
f 1/104/1 2/2/2 4/96/3 3/98/4
f 21/27/5 22/66/6 23/64/7 24/62/8
f 5/91/9 6/93/10 8/8/11 7/103/12
f 7/7/13 8/101/14 2/10/15 1/9/16
f 2/102/17 8/11/18 6/12/19 4/95/20
f 7/13/21 1/1/22 3/99/23 5/14/24
f 3/3/25 4/97/26 10/86/27 9/88/28
f 4/4/29 6/94/30 11/83/31 10/85/32
f 6/6/33 5/92/34 12/80/35 11/82/36
f 5/5/37 3/100/38 9/89/39 12/79/40
f 9/15/41 10/87/42 14/74/43 13/76/44
f 10/16/45 11/84/46 15/71/47 14/73/48
f 11/17/49 12/81/50 16/68/51 15/70/52
f 12/18/53 9/90/54 13/77/55 16/67/56
f 13/19/57 14/75/58 25/38/59 26/48/60
f 14/20/61 15/72/62 28/37/63 25/31/64
f 15/21/65 16/69/66 27/43/67 28/36/68
f 16/22/69 13/78/70 26/49/71 27/42/72
f 17/54/73 18/56/74 22/65/75 21/59/76
f 18/57/77 19/44/78 23/63/79 22/28/80
f 19/45/81 20/50/82 24/61/83 23/29/84
f 20/51/85 17/53/86 21/60/87 24/30/88
f 26/47/89 25/39/90 18/24/91 17/55/92
f 27/41/93 26/32/94 17/23/95 20/52/96
f 28/35/97 27/33/98 20/26/99 19/46/100
f 25/40/101 28/34/102 19/25/103 18/58/104
f 29/105/105 30/106/106 32/107/107 31/108/108
f 31/109/109 32/110/110 34/111/111 33/112/112
f 33/113/113 34/114/114 36/115/115 35/116/116
f 35/117/117 36/118/118 30/119/119 29/120/120
f 30/121/121 36/122/122 34/123/123 32/124/124
f 35/125/125 29/126/126 31/127/127 33/128/128
f 37/129/129 38/130/130 40/131/131 39/132/132
f 39/133/133 40/134/134 42/135/135 41/136/136
f 41/137/137 42/138/138 44/139/139 43/140/140
f 43/141/141 44/142/142 38/143/143 37/144/144
f 38/145/145 44/146/146 42/147/147 40/148/148
f 43/149/149 37/150/150 39/151/151 41/152/152
f 45/153/153 46/154/154 48/155/155 47/156/156
f 47/157/157 48/158/158 50/159/159 49/160/160
f 49/161/161 50/162/162 52/163/163 51/164/164
f 51/165/165 52/166/166 46/167/167 45/168/168
f 46/169/169 52/170/170 50/171/171 48/172/172
f 51/173/173 45/174/174 47/175/175 49/176/176
f 53/177/177 54/178/178 56/179/179 55/180/180
f 55/181/181 56/182/182 58/183/183 57/184/184
f 57/185/185 58/186/186 60/187/187 59/188/188
f 59/189/189 60/190/190 54/191/191 53/192/192
f 54/193/193 60/194/194 58/195/195 56/196/196
f 59/197/197 53/198/198 55/199/199 57/200/200
f 61/201/201 62/202/202 64/203/203 63/204/204
f 63/205/205 64/206/206 66/207/207 65/208/208
f 65/209/209 66/210/210 68/211/211 67/212/212
f 67/213/213 68/214/214 62/215/215 61/216/216
f 62/217/217 68/218/218 66/219/219 64/220/220
f 67/221/221 61/222/222 63/223/223 65/224/224
