# This file uses centimeters as units for non-parametric coordinates.

v -11.922180 -10.548161 0.938965
v 11.922180 -10.548161 0.938965
v -11.922180 26.079430 0.938965
v 11.922180 26.079430 0.938965
v -11.922180 26.079430 -19.727768
v 11.922180 26.079430 -19.727768
v -11.922180 -10.548161 -19.727768
v 11.922180 -10.548161 -19.727768
v -49.999969 -70.589249 19.727875
v 50.000000 -70.589249 19.727875
v -49.999969 70.589264 19.727875
v 50.000000 70.589264 19.727875
v -49.999969 70.589264 0.938965
v 50.000000 70.589264 0.938965
v -49.999969 -70.589249 0.938965
v 50.000000 -70.589249 0.938965
v -35.659973 35.484047 19.727875
v 35.659973 35.484047 19.727875
v 35.659973 58.051537 19.727875
v -35.659973 58.051537 19.727875
v -35.659973 35.484047 0.938965
v 35.659973 35.484047 0.938965
v 35.659973 58.051537 0.938965
v -35.659973 58.051537 0.938965
v 11.922180 -4.250206 -12.144852
v 11.922180 19.781479 -12.144852
v 11.922180 19.781479 0.938965
v 11.922180 -4.250206 0.938965
v -11.922180 -4.250206 0.938965
v -11.922180 -4.250206 -12.144852
v -11.922180 19.781479 -12.144852
v -11.922180 19.781479 0.938965
vt 0.141447 0.477572
vt 0.141447 0.477572
vt 0.141447 0.477572
vt 0.141447 0.477572
vt 0.077308 0.477572
vt 0.077308 0.477572
vt 0.077308 0.477572
vt 0.077308 0.477572
vt 0.077308 0.477572
vt 0.077308 0.477572
vt 0.077308 0.477572
vt 0.077308 0.477572
vt 0.077308 0.477572
vt 0.077308 0.477572
vt 0.077308 0.477572
vt 0.077308 0.477572
vt 0.730611 0.511662
vt 0.850235 0.511662
vt 0.833081 0.642082
vt 0.747765 0.642082
vt 0.850235 0.685245
vt 0.833081 0.669829
vt 0.730611 0.685245
vt 0.747765 0.669829
vt 0.109982 0.477572
vt 0.109982 0.477572
vt 0.109982 0.477572
vt 0.109982 0.477572
vt 0.109982 0.477572
vt 0.109982 0.477572
vt 0.109982 0.477572
vt 0.109982 0.477572
vt 0.171345 0.477572
vt 0.171345 0.477572
vt 0.171345 0.477572
vt 0.171345 0.477572
vt 0.077308 0.477572
vt 0.077308 0.477572
vt 0.077308 0.477572
vt 0.077308 0.477572
vt 0.141447 0.477572
vt 0.141447 0.477572
vt 0.141447 0.477572
vt 0.141447 0.477572
vt 0.141447 0.477572
vt 0.141447 0.477572
vt 0.141447 0.477572
vt 0.141447 0.477572
vt 0.171345 0.477572
vt 0.171345 0.477572
vt 0.171345 0.477572
vt 0.171345 0.477572
vt 0.109982 0.477572
vt 0.109982 0.477572
vt 0.109982 0.477572
vt 0.109982 0.477572
vt 0.077308 0.477572
vt 0.077308 0.477572
vt 0.077308 0.477572
vt 0.077308 0.477572
vt 0.141447 0.477572
vt 0.141447 0.477572
vt 0.141447 0.477572
vt 0.141447 0.477572
vt 0.141447 0.477572
vt 0.141447 0.477572
vt 0.141447 0.477572
vt 0.141447 0.477572
vt 0.141447 0.477572
vt 0.141447 0.477572
vt 0.141447 0.477572
vt 0.141447 0.477572
vt 0.141447 0.477572
vt 0.141447 0.477572
vt 0.141447 0.477572
vt 0.141447 0.477572
vt 0.015798 0.477572
vt 0.015798 0.477572
vt 0.015798 0.477572
vt 0.015798 0.477572
vt 0.015798 0.477572
vt 0.015798 0.477572
vt 0.015798 0.477572
vt 0.015798 0.477572
vn 0.000000 1.000000 0.000000
vn 0.000000 1.000000 0.000000
vn 0.000000 1.000000 0.000000
vn 0.000000 1.000000 0.000000
vn 0.000000 0.000000 -1.000000
vn 0.000000 0.000000 -1.000000
vn 0.000000 0.000000 -1.000000
vn 0.000000 0.000000 -1.000000
vn 0.000000 -1.000000 0.000000
vn 0.000000 -1.000000 0.000000
vn 0.000000 -1.000000 0.000000
vn 0.000000 -1.000000 0.000000
vn 1.000000 0.000000 0.000000
vn 1.000000 0.000000 0.000000
vn 1.000000 0.000000 0.000000
vn 1.000000 0.000000 0.000000
vn -1.000000 0.000000 0.000000
vn -1.000000 0.000000 0.000000
vn -1.000000 0.000000 0.000000
vn -1.000000 0.000000 0.000000
vn 0.000000 1.000000 0.000000
vn 0.000000 1.000000 0.000000
vn 0.000000 1.000000 0.000000
vn 0.000000 1.000000 0.000000
vn 0.000000 -1.000000 0.000000
vn 0.000000 -1.000000 0.000000
vn 0.000000 -1.000000 0.000000
vn 0.000000 -1.000000 0.000000
vn 1.000000 0.000000 0.000000
vn 1.000000 0.000000 0.000000
vn 1.000000 0.000000 0.000000
vn 1.000000 0.000000 0.000000
vn -1.000000 0.000000 0.000000
vn -1.000000 0.000000 0.000000
vn -1.000000 0.000000 0.000000
vn -1.000000 0.000000 0.000000
vn 0.000000 0.000000 1.000000
vn 0.000000 0.000000 1.000000
vn 0.000000 0.000000 1.000000
vn 0.000000 0.000000 1.000000
vn 0.000000 0.000000 1.000000
vn 0.000000 0.000000 1.000000
vn 0.000000 0.000000 1.000000
vn 0.000000 0.000000 1.000000
vn 0.000000 0.000000 1.000000
vn 0.000000 0.000000 1.000000
vn 0.000000 0.000000 1.000000
vn 0.000000 0.000000 1.000000
vn 0.000000 0.000000 1.000000
vn 0.000000 0.000000 1.000000
vn 0.000000 0.000000 1.000000
vn 0.000000 0.000000 1.000000
vn 0.000000 1.000000 0.000000
vn 0.000000 1.000000 0.000000
vn 0.000000 1.000000 0.000000
vn 0.000000 1.000000 0.000000
vn -1.000000 0.000000 0.000000
vn -1.000000 0.000000 0.000000
vn -1.000000 0.000000 0.000000
vn -1.000000 0.000000 0.000000
vn 0.000000 -1.000000 0.000000
vn 0.000000 -1.000000 0.000000
vn 0.000000 -1.000000 0.000000
vn 0.000000 -1.000000 0.000000
vn 1.000000 0.000000 0.000000
vn 1.000000 0.000000 0.000000
vn 1.000000 0.000000 0.000000
vn 1.000000 0.000000 0.000000
vn 0.000000 0.000000 -1.000000
vn 0.000000 0.000000 -1.000000
vn 0.000000 0.000000 -1.000000
vn 0.000000 0.000000 -1.000000
vn 0.000000 0.000000 -1.000000
vn 0.000000 0.000000 -1.000000
vn 0.000000 0.000000 -1.000000
vn 0.000000 0.000000 -1.000000
vn 0.000000 0.000000 -1.000000
vn 0.000000 0.000000 -1.000000
vn 0.000000 0.000000 -1.000000
vn 0.000000 0.000000 -1.000000
vn 0.000000 0.000000 -1.000000
vn 0.000000 0.000000 -1.000000
vn 0.000000 0.000000 -1.000000
vn 0.000000 0.000000 -1.000000
vn -1.000000 0.000000 0.000000
vn -1.000000 0.000000 0.000000
vn -1.000000 0.000000 0.000000
vn -1.000000 0.000000 0.000000
vn -1.000000 0.000000 0.000000
vn -1.000000 0.000000 0.000000
vn -1.000000 0.000000 0.000000
vn -1.000000 0.000000 0.000000
vn 1.000000 0.000000 0.000000
vn 1.000000 0.000000 0.000000
vn 1.000000 0.000000 0.000000
vn 1.000000 0.000000 0.000000
vn 1.000000 0.000000 0.000000
vn 1.000000 0.000000 0.000000
vn 1.000000 0.000000 0.000000
vn 1.000000 0.000000 0.000000
vn 1.000000 0.000000 0.000000
vn 1.000000 0.000000 0.000000
vn 1.000000 0.000000 0.000000
vn 1.000000 0.000000 0.000000
vn -1.000000 0.000000 0.000000
vn -1.000000 0.000000 0.000000
vn -1.000000 0.000000 0.000000
vn -1.000000 0.000000 0.000000
s off
f 3/49/1 4/50/2 6/51/3 5/52/4
f 5/53/5 6/54/6 8/55/7 7/56/8
f 7/57/9 8/58/10 2/59/11 1/60/12
f 26/77/13 27/78/14 28/79/15 25/80/16
f 5/68/17 31/75/18 32/76/19 3/67/20
f 11/33/21 12/34/22 14/35/23 13/36/24
f 15/37/25 16/38/26 10/39/27 9/40/28
f 10/41/29 16/42/30 14/43/31 12/44/32
f 15/45/33 9/46/34 11/47/35 13/48/36
f 9/17/37 10/18/38 18/19/39 17/20/40
f 10/18/41 12/21/42 19/22/43 18/19/44
f 12/21/45 11/23/46 20/24/47 19/22/48
f 11/23/49 9/17/50 17/20/51 20/24/52
f 17/1/53 18/2/54 22/3/55 21/4/56
f 18/5/57 19/6/58 23/7/59 22/8/60
f 19/9/61 20/10/62 24/11/63 23/12/64
f 20/13/65 17/14/66 21/15/67 24/16/68
f 21/25/69 22/26/70 16/27/71 15/28/72
f 23/29/73 24/31/74 13/32/75 14/30/76
f 22/26/77 23/29/78 14/30/79 16/27/80
f 24/31/81 21/25/82 15/28/83 13/32/84
f 7/65/85 1/66/86 29/73/87 30/74/88
f 7/65/89 30/74/90 31/75/91 5/68/92
f 26/70/93 25/69/94 8/62/95 6/63/96
f 27/71/97 26/70/98 6/63/99 4/64/100
f 2/61/101 8/62/102 25/69/103 28/72/104
f 29/81/105 32/82/106 31/83/107 30/84/108
