# This file uses centimeters as units for non-parametric coordinates.

v -5.220642 -4.757519 51.480743
v 5.220551 -4.757519 51.480743
v -5.220642 42.130859 51.480743
v 5.220551 42.130859 51.480743
v -5.220642 42.130859 -51.480743
v 5.220551 42.130859 -51.480743
v -5.220642 -4.757519 -51.480743
v 5.220551 -4.757519 -51.480743
v -5.220642 -4.757519 -45.324646
v 5.220551 -4.757519 -45.324646
v -5.220642 -4.757519 45.324631
v 5.220551 -4.757519 45.324631
v 5.220551 34.132187 -45.324646
v -5.220642 34.132187 -45.324646
v -5.220642 34.132187 45.324631
v 5.220551 34.132187 45.324631
v -28.987457 -42.130859 45.324631
v 28.987457 -42.130859 45.324631
v -28.987457 16.487099 45.324631
v 28.987457 16.487099 45.324631
v -28.987457 16.487099 -45.324646
v 28.987457 16.487099 -45.324646
v -28.987457 -42.130859 -45.324646
v 28.987457 -42.130859 -45.324646
v 28.987457 6.091927 -45.324646
v -28.987457 6.091927 -45.324646
v -28.987457 6.091927 45.324631
v 28.987457 6.091927 45.324631
v 28.987457 3.989082 -45.324646
v -28.987457 3.989082 -45.324646
v -28.987457 3.989082 45.324631
v 28.987457 3.989082 45.324631
v 28.987457 6.091927 22.662323
v 28.987457 6.091927 -22.662323
v 28.987457 10.297653 22.662323
v 28.987457 10.297653 -22.662323
vt 0.297998 0.310840
vt 0.297998 0.310840
vt 0.297998 0.310840
vt 0.297998 0.310840
vt 0.453192 0.310840
vt 0.453192 0.310840
vt 0.453192 0.310840
vt 0.453192 0.310840
vt 0.297998 0.310840
vt 0.297998 0.310840
vt 0.297998 0.310840
vt 0.297998 0.310840
vt 0.359377 0.310840
vt 0.359377 0.310840
vt 0.359377 0.310840
vt 0.359377 0.310840
vt 0.359377 0.310840
vt 0.359377 0.310840
vt 0.359377 0.310840
vt 0.359377 0.310840
vt 0.359377 0.310840
vt 0.359377 0.310840
vt 0.359377 0.310840
vt 0.359377 0.310840
vt 0.359377 0.310840
vt 0.359377 0.310840
vt 0.359377 0.310840
vt 0.359377 0.310840
vt 0.264925 0.477572
vt 0.264925 0.477572
vt 0.264925 0.477572
vt 0.264925 0.477572
vt 0.417983 0.477572
vt 0.417983 0.477572
vt 0.417983 0.477572
vt 0.417983 0.477572
vt 0.264925 0.477572
vt 0.264925 0.477572
vt 0.264925 0.477572
vt 0.264925 0.477572
vt 0.236575 0.310840
vt 0.236575 0.310840
vt 0.236575 0.310840
vt 0.236575 0.310840
vt 0.328519 0.477572
vt 0.328519 0.477572
vt 0.328519 0.477572
vt 0.328519 0.477572
vt 0.328519 0.477572
vt 0.328519 0.477572
vt 0.328519 0.477572
vt 0.328519 0.477572
vt 0.015798 0.477572
vt 0.015798 0.477572
vt 0.015798 0.477572
vt 0.015798 0.477572
vt 0.015798 0.477572
vt 0.015798 0.477572
vt 0.015798 0.477572
vt 0.015798 0.477572
vt 0.015798 0.477572
vt 0.015798 0.477572
vt 0.015798 0.477572
vt 0.015798 0.477572
vt 0.015798 0.477572
vt 0.015798 0.477572
vt 0.015798 0.477572
vt 0.015798 0.477572
vt 0.297998 0.310840
vt 0.297998 0.310840
vt 0.297998 0.310840
vt 0.297998 0.310840
vt 0.359377 0.310840
vt 0.359377 0.310840
vt 0.359377 0.310840
vt 0.359377 0.310840
vt 0.297998 0.310840
vt 0.297998 0.310840
vt 0.297998 0.310840
vt 0.297998 0.310840
vt 0.359377 0.310840
vt 0.359377 0.310840
vt 0.359377 0.310840
vt 0.359377 0.310840
vt 0.328519 0.477572
vt 0.015798 0.477572
vt 0.328519 0.477572
vt 0.015798 0.477572
vt 0.328519 0.477572
vt 0.328519 0.477572
vt 0.236575 0.310840
vt 0.236575 0.310840
vt 0.236575 0.310840
vt 0.236575 0.310840
vt 0.236575 0.310840
vt 0.236575 0.310840
vt 0.236575 0.310840
vt 0.236575 0.310840
vt 0.297998 0.477572
vt 0.297998 0.477572
vt 0.297998 0.477572
vt 0.297998 0.477572
vt 0.236575 0.310840
vt 0.236575 0.310840
vt 0.236575 0.310840
vt 0.236575 0.310840
vt 0.236575 0.310840
vt 0.236575 0.310840
vt 0.236575 0.310840
vt 0.236575 0.310840
vt 0.236575 0.310840
vt 0.236575 0.310840
vt 0.236575 0.310840
vt 0.236575 0.310840
vn 0.000000 0.000000 1.000000
vn 0.000000 0.000000 1.000000
vn 0.000000 0.000000 1.000000
vn 0.000000 0.000000 1.000000
vn 0.000000 1.000000 0.000000
vn 0.000000 1.000000 0.000000
vn 0.000000 1.000000 0.000000
vn 0.000000 1.000000 0.000000
vn 0.000000 0.000000 -1.000000
vn 0.000000 0.000000 -1.000000
vn 0.000000 0.000000 -1.000000
vn 0.000000 0.000000 -1.000000
vn 1.000000 0.000000 0.000000
vn 1.000000 0.000000 0.000000
vn 1.000000 0.000000 0.000000
vn 1.000000 0.000000 0.000000
vn -1.000000 0.000000 0.000000
vn -1.000000 0.000000 0.000000
vn -1.000000 0.000000 0.000000
vn -1.000000 0.000000 0.000000
vn 1.000000 0.000000 0.000000
vn 1.000000 0.000000 0.000000
vn 1.000000 0.000000 0.000000
vn 1.000000 0.000000 0.000000
vn 1.000000 0.000000 0.000000
vn 1.000000 0.000000 0.000000
vn 1.000000 0.000000 0.000000
vn 1.000000 0.000000 0.000000
vn -1.000000 0.000000 0.000000
vn -1.000000 0.000000 0.000000
vn -1.000000 0.000000 0.000000
vn -1.000000 0.000000 0.000000
vn -1.000000 0.000000 0.000000
vn -1.000000 0.000000 0.000000
vn -1.000000 0.000000 0.000000
vn -1.000000 0.000000 0.000000
vn 0.000000 0.000000 1.000000
vn 0.000000 0.000000 1.000000
vn 0.000000 0.000000 1.000000
vn 0.000000 0.000000 1.000000
vn 0.000000 1.000000 0.000000
vn 0.000000 1.000000 0.000000
vn 0.000000 1.000000 0.000000
vn 0.000000 1.000000 0.000000
vn 0.000000 0.000000 -1.000000
vn 0.000000 0.000000 -1.000000
vn 0.000000 0.000000 -1.000000
vn 0.000000 0.000000 -1.000000
vn 0.000000 -1.000000 0.000000
vn 0.000000 -1.000000 0.000000
vn 0.000000 -1.000000 0.000000
vn 0.000000 -1.000000 0.000000
vn 1.000000 0.000000 0.000000
vn 1.000000 0.000000 0.000000
vn 1.000000 0.000000 0.000000
vn 1.000000 0.000000 0.000000
vn -1.000000 0.000000 0.000000
vn -1.000000 0.000000 0.000000
vn -1.000000 0.000000 0.000000
vn -1.000000 0.000000 0.000000
vn 0.000000 0.000000 -1.000000
vn 0.000000 0.000000 -1.000000
vn 0.000000 0.000000 -1.000000
vn 0.000000 0.000000 -1.000000
vn -1.000000 0.000000 0.000000
vn -1.000000 0.000000 0.000000
vn -1.000000 0.000000 0.000000
vn -1.000000 0.000000 0.000000
vn 0.000000 0.000000 1.000000
vn 0.000000 0.000000 1.000000
vn 0.000000 0.000000 1.000000
vn 0.000000 0.000000 1.000000
vn 1.000000 0.000000 0.000000
vn 1.000000 0.000000 0.000000
vn 1.000000 0.000000 0.000000
vn 0.000000 0.000000 -1.000000
vn 0.000000 0.000000 -1.000000
vn 0.000000 0.000000 -1.000000
vn 0.000000 0.000000 -1.000000
vn -1.000000 0.000000 0.000000
vn -1.000000 0.000000 0.000000
vn -1.000000 0.000000 0.000000
vn -1.000000 0.000000 0.000000
vn 0.000000 0.000000 1.000000
vn 0.000000 0.000000 1.000000
vn 0.000000 0.000000 1.000000
vn 0.000000 0.000000 1.000000
vn 1.000000 0.000000 0.000000
vn 1.000000 0.000000 0.000000
vn 1.000000 0.000000 0.000000
vn 1.000000 0.000000 0.000000
vn 1.000000 -0.000000 0.000000
vn 1.000000 -0.000000 0.000000
vn 1.000000 -0.000000 0.000000
vn 1.000000 -0.000000 0.000000
vn 1.000000 0.000000 0.000000
vn 1.000000 0.000000 0.000000
vn 1.000000 0.000000 0.000000
vn 1.000000 0.000000 0.000000
vn 1.000000 0.000000 0.000000
vn 1.000000 0.000000 0.000000
vn 1.000000 0.000000 0.000000
vn 1.000000 0.000000 0.000000
vn 1.000000 0.000000 0.000000
vn 1.000000 0.000000 0.000000
vn 1.000000 0.000000 0.000000
vn 1.000000 0.000002 0.000000
vn 1.000000 0.000002 0.000000
vn 1.000000 0.000002 0.000000
vn 1.000000 0.000002 0.000000
vn 0.000000 -1.000000 0.000000
vn 0.000000 -1.000000 0.000000
vn 0.000000 -1.000000 0.000000
vn 0.000000 -1.000000 0.000000
vn 0.000000 -1.000000 0.000000
vn 0.000000 -1.000000 0.000000
vn 0.000000 -1.000000 0.000000
vn 0.000000 -1.000000 0.000000
vn 0.000000 -1.000000 0.000000
vn 0.000000 -1.000000 0.000000
vn 0.000000 -1.000000 0.000000
vn 0.000000 -1.000000 0.000000
vn 0.000000 0.000000 -1.000000
vn 0.000000 0.000000 -1.000000
vn 0.000000 0.000000 -1.000000
vn 0.000000 0.000000 -1.000000
vn 0.000000 0.000000 1.000000
vn 0.000000 0.000000 1.000000
vn 0.000000 0.000000 1.000000
vn 0.000000 0.000000 1.000000
s off
f 1/1/1 2/2/2 4/3/3 3/4/4
f 4/5/5 6/6/6 5/7/7 3/8/8
f 6/9/9 8/10/10 7/11/11 5/12/12
f 13/13/13 6/14/14 4/15/15 16/16/16
f 3/17/17 5/18/18 14/19/19 15/20/20
f 16/16/21 4/15/22 2/21/23 12/22/24
f 6/14/25 13/13/26 10/23/27 8/24/28
f 14/19/29 5/18/30 7/25/31 9/26/32
f 3/17/33 15/20/34 11/27/35 1/28/36
f 19/29/37 27/30/38 28/31/39 20/32/40
f 22/33/41 21/34/42 19/35/43 20/36/44
f 25/37/45 26/38/46 21/39/47 22/40/48
f 17/41/49 23/42/50 24/43/51 18/44/52
f 33/85/53 35/89/54 20/47/55 28/48/56
f 21/49/57 26/50/58 27/51/59 19/52/60
f 29/53/61 30/54/62 26/55/63 25/56/64
f 26/57/65 30/58/66 31/59/67 27/60/68
f 28/61/69 27/62/70 31/63/71 32/64/72
f 29/65/73 25/66/74 34/88/75
f 23/69/76 30/70/77 29/71/78 24/72/79
f 30/73/80 23/74/81 17/75/82 31/76/83
f 32/77/84 31/78/85 17/79/86 18/80/87
f 24/81/88 29/82/89 32/83/90 18/84/91
f 35/89/92 36/90/93 22/46/94 20/47/95
f 25/45/96 22/46/97 36/90/98 34/87/99
f 34/99/100 36/100/101 35/101/102 33/102/103
f 32/68/104 33/86/105 28/67/106
f 29/65/107 34/88/108 33/86/109 32/68/110
f 2/91/111 1/92/112 11/93/113 12/94/114
f 7/95/115 8/96/116 10/97/117 9/98/118
f 14/103/119 13/104/120 16/105/121 15/106/122
f 15/107/123 16/108/124 12/109/125 11/110/126
f 14/111/127 9/112/128 10/113/129 13/114/130
