# This file uses centimeters as units for non-parametric coordinates.

v -25.753418 -14.928520 7.628418
v 25.753418 -14.928520 7.628418
v -25.753418 14.928520 7.628418
v 25.753418 14.928520 7.628418
v -25.753418 14.928520 -7.628418
v 25.753418 14.928520 -7.628418
v -25.753418 -14.928520 -7.628418
v 25.753418 -14.928520 -7.628418
v 5.657993 14.928520 7.628418
v 5.657993 14.928520 -7.628418
v 5.657993 -14.928520 -7.628418
v 5.657993 -14.928520 7.628418
v -5.658119 14.928520 7.628418
v -5.658119 14.928520 -7.628418
v -5.658119 -14.928520 -7.628418
v -5.658119 -14.928520 7.628418
v 5.657993 14.928520 -2.037600
v -5.658119 14.928520 -2.037600
v -25.753418 14.928520 -2.037600
v -25.753418 -14.928520 -2.037600
v -5.658119 -14.928520 -2.037600
v 5.657993 -14.928520 -2.037600
v 25.753418 -14.928520 -2.037600
v 25.753418 14.928520 -2.037600
v 5.657993 14.928520 -3.751976
v -5.658119 14.928520 -3.751976
v -25.753418 14.928520 -3.751976
v -25.753418 -14.928520 -3.751976
v -5.658119 -14.928520 -3.751976
v 5.657993 -14.928520 -3.751976
v 25.753418 -14.928520 -3.751976
v 25.753418 14.928520 -3.751976
v 5.657993 14.928520 3.097672
v -5.658119 14.928520 3.097672
v -25.753418 14.928520 3.097672
v -25.753418 -14.928520 3.097672
v -5.658119 -14.928520 3.097672
v 5.657993 -14.928520 3.097672
v 25.753418 -14.928520 3.097672
v 25.753418 14.928520 3.097672
v 5.657993 14.928520 5.004776
v -5.658119 14.928520 5.004776
v -25.753418 14.928520 5.004776
v -25.753418 -14.928520 5.004776
v -5.658119 -14.928520 5.004776
v 5.657993 -14.928520 5.004776
v 25.753418 -14.928520 5.004776
v 25.753418 14.928520 5.004776
vt 0.236575 0.287733
vt 0.297998 0.477572
vt 0.236575 0.287733
vt 0.236575 0.287733
vt 0.297998 0.477572
vt 0.236575 0.287733
vt 0.236575 0.287733
vt 0.236575 0.287733
vt 0.297998 0.287733
vt 0.297998 0.287733
vt 0.359377 0.477572
vt 0.297998 0.287733
vt 0.359377 0.477572
vt 0.297998 0.287733
vt 0.297998 0.287733
vt 0.297998 0.287733
vt 0.236575 0.287733
vt 0.297998 0.477572
vt 0.297998 0.477572
vt 0.236575 0.287733
vt 0.297998 0.477572
vt 0.236575 0.287733
vt 0.236575 0.287733
vt 0.236575 0.287733
vt 0.171345 0.287733
vt 0.264925 0.477572
vt 0.264925 0.477572
vt 0.171345 0.287733
vt 0.264925 0.477572
vt 0.171345 0.287733
vt 0.171345 0.287733
vt 0.171345 0.287733
vt 0.202875 0.287733
vt 0.202875 0.287733
vt 0.202875 0.287733
vt 0.202875 0.287733
vt 0.202875 0.287733
vt 0.202875 0.287733
vt 0.202875 0.287733
vt 0.202875 0.287733
vt 0.359377 0.477572
vt 0.297998 0.287733
vt 0.297998 0.287733
vt 0.359377 0.477572
vt 0.171345 0.287733
vt 0.171345 0.287733
vt 0.171345 0.287733
vt 0.264925 0.477572
vt 0.236575 0.287733
vt 0.297998 0.477572
vt 0.236575 0.287733
vt 0.236575 0.287733
vt 0.236575 0.287733
vt 0.297998 0.477572
vt 0.236575 0.287733
vt 0.297998 0.477572
vt 0.359377 0.477572
vt 0.236575 0.287733
vt 0.297998 0.287733
vt 0.359377 0.477572
vt 0.202875 0.287733
vt 0.236575 0.287733
vt 0.141447 0.287733
vt 0.171345 0.287733
vt 0.109982 0.285899
vt 0.264925 0.477572
vt 0.264925 0.477572
vt 0.171345 0.287733
vt 0.109982 0.285899
vt 0.202875 0.287733
vt 0.297998 0.287733
vt 0.141447 0.287733
vt 0.359377 0.477572
vt 0.236575 0.287733
vt 0.297998 0.287733
vt 0.359377 0.477572
vt 0.202875 0.287733
vt 0.297998 0.287733
vt 0.202875 0.287733
vt 0.171345 0.287733
vt 0.171345 0.287733
vt 0.264925 0.477572
vt 0.264925 0.477572
vt 0.171345 0.287733
vt 0.171345 0.287733
vt 0.202875 0.287733
vt 0.297998 0.287733
vt 0.202875 0.287733
vt 0.359377 0.477572
vt 0.297998 0.287733
vt 0.236575 0.287733
vt 0.359377 0.477572
vt 0.141447 0.287733
vt 0.297998 0.287733
vt 0.202875 0.287733
vt 0.171345 0.287733
vt 0.171345 0.287733
vt 0.264925 0.477572
vt 0.264925 0.477572
vt 0.171345 0.287733
vt 0.171345 0.287733
vt 0.202875 0.287733
vt 0.236575 0.287733
vt 0.202875 0.287733
vt 0.359377 0.477572
vt 0.297998 0.287733
vt 0.236575 0.287733
vt 0.359377 0.477572
vt 0.141447 0.287733
vt 0.236575 0.287733
vt 0.141447 0.287733
vt 0.109982 0.285899
vt 0.109982 0.285899
vt 0.264925 0.477572
vt 0.264925 0.477572
vt 0.109982 0.285899
vt 0.109982 0.285899
vt 0.141447 0.287733
vt 0.236575 0.287733
vt 0.141447 0.287733
vt 0.202875 0.287733
vt 0.297998 0.287733
vt 0.359377 0.477572
vt 0.236575 0.287733
vt 0.171345 0.287733
vt 0.202875 0.287733
vt 0.297998 0.287733
vt 0.141447 0.287733
vt 0.264925 0.477572
vt 0.171345 0.287733
vt 0.171345 0.287733
vt 0.264925 0.477572
vt 0.202875 0.287733
vt 0.171345 0.287733
vt 0.297998 0.287733
vt 0.202875 0.287733
vt 0.359377 0.477572
vt 0.297998 0.287733
vt 0.202875 0.287733
vt 0.236575 0.287733
vt 0.297998 0.287733
vt 0.359377 0.477572
vt 0.359377 0.477572
vt 0.236575 0.287733
vt 0.109982 0.285899
vt 0.141447 0.287733
vt 0.264925 0.477572
vt 0.109982 0.285899
vt 0.109982 0.285899
vt 0.264925 0.477572
vt 0.141447 0.287733
vt 0.109982 0.285899
vt 0.141447 0.287733
vt 0.236575 0.287733
vt 0.359377 0.477572
vt 0.297998 0.287733
vt 0.109982 0.285899
vt 0.141447 0.287733
vt 0.264925 0.477572
vt 0.109982 0.285899
vt 0.171345 0.287733
vt 0.141447 0.287733
vt 0.109982 0.285899
vt 0.264925 0.477572
vt 0.264925 0.477572
vt 0.109982 0.285899
vt 0.141447 0.287733
vt 0.109982 0.285899
vt 0.171345 0.287733
vt 0.264925 0.477572
vt 0.236575 0.287733
vt 0.141447 0.287733
vt 0.202875 0.287733
vt 0.109982 0.285899
vt 0.359377 0.477572
vt 0.236575 0.287733
vt 0.236575 0.287733
vt 0.202875 0.287733
vt 0.359377 0.477572
vt 0.297998 0.287733
vt 0.141447 0.287733
vt 0.297998 0.287733
vt 0.236575 0.287733
vt 0.359377 0.477572
vn 0.000000 0.000000 1.000000
vn 0.000000 0.000000 1.000000
vn 0.000000 0.000000 1.000000
vn 0.000000 0.000000 1.000000
vn 0.000000 1.000000 0.000000
vn 0.000000 1.000000 0.000000
vn 0.000000 1.000000 0.000000
vn 0.000000 1.000000 0.000000
vn 0.000000 0.000000 -1.000000
vn 0.000000 0.000000 -1.000000
vn 0.000000 0.000000 -1.000000
vn 0.000000 0.000000 -1.000000
vn 0.000000 -1.000000 0.000000
vn 0.000000 -1.000000 0.000000
vn 0.000000 -1.000000 0.000000
vn 0.000000 -1.000000 0.000000
vn 1.000000 0.000000 0.000000
vn 1.000000 0.000000 0.000000
vn 1.000000 0.000000 0.000000
vn 1.000000 0.000000 0.000000
vn -1.000000 0.000000 0.000000
vn -1.000000 0.000000 0.000000
vn -1.000000 0.000000 0.000000
vn -1.000000 0.000000 0.000000
vn 0.000000 1.000000 0.000000
vn 0.000000 1.000000 0.000000
vn 0.000000 1.000000 0.000000
vn 0.000000 1.000000 0.000000
vn 0.000000 0.000000 -1.000000
vn 0.000000 0.000000 -1.000000
vn 0.000000 0.000000 -1.000000
vn 0.000000 0.000000 -1.000000
vn 0.000000 -1.000000 0.000000
vn 0.000000 -1.000000 0.000000
vn 0.000000 -1.000000 0.000000
vn 0.000000 -1.000000 0.000000
vn 0.000000 0.000000 1.000000
vn 0.000000 0.000000 1.000000
vn 0.000000 0.000000 1.000000
vn 0.000000 0.000000 1.000000
vn 0.000000 1.000000 0.000000
vn 0.000000 1.000000 0.000000
vn 0.000000 1.000000 0.000000
vn 0.000000 1.000000 0.000000
vn 0.000000 0.000000 -1.000000
vn 0.000000 0.000000 -1.000000
vn 0.000000 0.000000 -1.000000
vn 0.000000 0.000000 -1.000000
vn 0.000000 -1.000000 0.000000
vn 0.000000 -1.000000 0.000000
vn 0.000000 -1.000000 0.000000
vn 0.000000 -1.000000 0.000000
vn 0.000000 0.000000 1.000000
vn 0.000000 0.000000 1.000000
vn 0.000000 0.000000 1.000000
vn 0.000000 0.000000 1.000000
vn 0.000000 1.000000 0.000000
vn 0.000000 1.000000 0.000000
vn 0.000000 1.000000 0.000000
vn 0.000000 1.000000 0.000000
vn 0.000000 1.000000 0.000000
vn 0.000000 1.000000 0.000000
vn 0.000000 1.000000 0.000000
vn 0.000000 1.000000 0.000000
vn -1.000000 0.000000 0.000000
vn -1.000000 0.000000 0.000000
vn -1.000000 0.000000 0.000000
vn -1.000000 0.000000 0.000000
vn 0.000000 -1.000000 0.000000
vn 0.000000 -1.000000 0.000000
vn 0.000000 -1.000000 0.000000
vn 0.000000 -1.000000 0.000000
vn 0.000000 -1.000000 0.000000
vn 0.000000 -1.000000 0.000000
vn 0.000000 -1.000000 0.000000
vn 0.000000 -1.000000 0.000000
vn 0.000000 -1.000000 0.000000
vn 0.000000 -1.000000 0.000000
vn 0.000000 -1.000000 0.000000
vn 0.000000 -1.000000 0.000000
vn 1.000000 0.000000 0.000000
vn 1.000000 0.000000 0.000000
vn 1.000000 0.000000 0.000000
vn 1.000000 0.000000 0.000000
vn 0.000000 1.000000 0.000000
vn 0.000000 1.000000 0.000000
vn 0.000000 1.000000 0.000000
vn 0.000000 1.000000 0.000000
vn 0.000000 1.000000 0.000000
vn 0.000000 1.000000 0.000000
vn 0.000000 1.000000 0.000000
vn 0.000000 1.000000 0.000000
vn 0.000000 1.000000 0.000000
vn 0.000000 1.000000 0.000000
vn 0.000000 1.000000 0.000000
vn 0.000000 1.000000 0.000000
vn -1.000000 0.000000 0.000000
vn -1.000000 0.000000 0.000000
vn -1.000000 0.000000 0.000000
vn -1.000000 0.000000 0.000000
vn 0.000000 -1.000000 0.000000
vn 0.000000 -1.000000 0.000000
vn 0.000000 -1.000000 0.000000
vn 0.000000 -1.000000 0.000000
vn 0.000000 -1.000000 0.000000
vn 0.000000 -1.000000 0.000000
vn 0.000000 -1.000000 0.000000
vn 0.000000 -1.000000 0.000000
vn 0.000000 -1.000000 0.000000
vn 0.000000 -1.000000 0.000000
vn 0.000000 -1.000000 0.000000
vn 0.000000 -1.000000 0.000000
vn 1.000000 0.000000 0.000000
vn 1.000000 0.000000 0.000000
vn 1.000000 0.000000 0.000000
vn 1.000000 0.000000 0.000000
vn 0.000000 1.000000 0.000000
vn 0.000000 1.000000 0.000000
vn 0.000000 1.000000 0.000000
vn 0.000000 1.000000 0.000000
vn 0.000000 1.000000 0.000000
vn 0.000000 1.000000 0.000000
vn 0.000000 1.000000 0.000000
vn 0.000000 1.000000 0.000000
vn 0.000000 1.000000 0.000000
vn 0.000000 1.000000 0.000000
vn 0.000000 1.000000 0.000000
vn 0.000000 1.000000 0.000000
vn -1.000000 0.000000 0.000000
vn -1.000000 0.000000 0.000000
vn -1.000000 0.000000 0.000000
vn -1.000000 0.000000 0.000000
vn 0.000000 -1.000000 0.000000
vn 0.000000 -1.000000 0.000000
vn 0.000000 -1.000000 0.000000
vn 0.000000 -1.000000 0.000000
vn 0.000000 -1.000000 0.000000
vn 0.000000 -1.000000 0.000000
vn 0.000000 -1.000000 0.000000
vn 0.000000 -1.000000 0.000000
vn 0.000000 -1.000000 0.000000
vn 0.000000 -1.000000 0.000000
vn 0.000000 -1.000000 0.000000
vn 0.000000 -1.000000 0.000000
vn 1.000000 0.000000 0.000000
vn 1.000000 0.000000 0.000000
vn 1.000000 0.000000 0.000000
vn 1.000000 0.000000 0.000000
vn 0.000000 1.000000 0.000000
vn 0.000000 1.000000 0.000000
vn 0.000000 1.000000 0.000000
vn 0.000000 1.000000 0.000000
vn 0.000000 1.000000 0.000000
vn 0.000000 1.000000 0.000000
vn 0.000000 1.000000 0.000000
vn 0.000000 1.000000 0.000000
vn 0.000000 1.000000 0.000000
vn 0.000000 1.000000 0.000000
vn 0.000000 1.000000 0.000000
vn 0.000000 1.000000 0.000000
vn -1.000000 0.000000 0.000000
vn -1.000000 0.000000 0.000000
vn -1.000000 0.000000 0.000000
vn -1.000000 0.000000 0.000000
vn 0.000000 -1.000000 0.000000
vn 0.000000 -1.000000 0.000000
vn 0.000000 -1.000000 0.000000
vn 0.000000 -1.000000 0.000000
vn 0.000000 -1.000000 0.000000
vn 0.000000 -1.000000 0.000000
vn 0.000000 -1.000000 0.000000
vn 0.000000 -1.000000 0.000000
vn 0.000000 -1.000000 0.000000
vn 0.000000 -1.000000 0.000000
vn 0.000000 -1.000000 0.000000
vn 0.000000 -1.000000 0.000000
vn 1.000000 0.000000 0.000000
vn 1.000000 0.000000 0.000000
vn 1.000000 0.000000 0.000000
vn 1.000000 0.000000 0.000000
vn 0.000000 1.000000 0.000000
vn 0.000000 1.000000 0.000000
vn 0.000000 1.000000 0.000000
vn 0.000000 1.000000 0.000000
s off
f 13/3/1 3/4/2 1/1/3 16/49/4
f 43/135/5 3/9/6 13/10/7 42/138/8
f 7/20/9 5/17/10 14/53/11 15/51/12
f 1/28/13 44/134/14 45/131/15 16/46/16
f 2/33/17 47/126/18 48/121/19 4/36/20
f 44/133/21 1/38/22 3/39/23 43/136/24
f 48/122/25 41/106/26 9/43/27 4/15/28
f 11/22/29 10/55/30 6/23/31 8/24/32
f 12/30/33 46/130/34 47/125/35 2/32/36
f 4/8/37 9/6/38 12/52/39 2/7/40
f 13/41/41 9/13/42 41/105/43 42/137/44
f 11/54/45 15/19/46 14/18/47 10/21/48
f 16/27/49 45/132/50 46/129/51 12/48/52
f 13/50/53 16/2/54 12/5/55 9/56/56
f 18/60/57 17/179/58 25/73/59 26/175/60
f 27/171/61 19/62/62 18/183/63 26/176/64
f 28/167/65 20/63/66 19/181/67 27/172/68
f 21/65/69 20/174/70 28/168/71 29/163/72
f 22/67/73 21/170/74 29/164/75 30/159/76
f 23/69/77 22/166/78 30/160/79 31/157/80
f 24/72/81 23/162/82 31/158/83 32/153/84
f 32/154/85 25/74/86 17/58/87 24/177/88
f 26/76/89 25/155/90 10/44/91 14/11/92
f 5/12/93 27/78/94 26/75/95 14/42/96
f 7/37/97 28/79/98 27/77/99 5/40/100
f 29/81/101 28/80/102 7/25/103 15/45/104
f 30/83/105 29/82/106 15/26/107 11/29/108
f 31/85/109 30/84/110 11/47/111 8/31/112
f 32/88/113 31/86/114 8/34/115 6/35/116
f 10/14/117 25/156/118 32/87/119 6/16/120
f 34/92/121 33/143/122 17/57/123 18/184/124
f 19/182/125 35/94/126 34/141/127 18/59/128
f 20/173/129 36/95/130 35/139/131 19/61/132
f 37/97/133 36/96/134 20/64/135 21/169/136
f 38/99/137 37/98/138 21/66/139 22/165/140
f 39/101/141 38/100/142 22/68/143 23/161/144
f 40/104/145 39/102/146 23/70/147 24/178/148
f 24/71/149 17/180/150 33/90/151 40/127/152
f 42/108/153 41/123/154 33/89/155 34/142/156
f 35/140/157 43/110/158 42/107/159 34/91/160
f 36/151/161 44/111/162 43/109/163 35/93/164
f 45/113/165 44/112/166 36/152/167 37/149/168
f 46/115/169 45/114/170 37/150/171 38/147/172
f 47/117/173 46/116/174 38/148/175 39/145/176
f 48/120/177 47/118/178 39/146/179 40/128/180
f 40/103/181 33/144/182 41/124/183 48/119/184
