# This file uses centimeters as units for non-parametric coordinates.

v -18.699219 -13.840830 13.292130
v 7.885010 -13.840830 13.292130
v -18.699219 13.840824 13.292130
v 7.885010 13.840824 13.292130
v -18.699219 13.840824 -13.292130
v 7.885010 13.840824 -13.292130
v -18.699219 -13.840830 -13.292130
v 7.885010 -13.840830 -13.292130
v -14.925537 13.840824 9.518465
v 4.111450 13.840824 9.518465
v 4.111450 13.840824 -9.518435
v -14.925537 13.840824 -9.518435
v -14.925537 10.361378 9.518465
v 4.111450 10.361378 9.518465
v 4.111450 10.361378 -9.518435
v -14.925537 10.361378 -9.518435
v 7.885010 -6.317726 3.893695
v 18.699341 -6.317726 3.893695
v 7.885010 10.226250 3.893695
v 18.699341 10.226250 3.893695
v 7.885010 10.226250 -3.893695
v 18.699341 10.226250 -3.893695
v 7.885010 -6.317726 -3.893695
v 18.699341 -6.317726 -3.893695
v 7.885010 -3.357193 3.893695
v 15.895752 -3.357193 3.893695
v 15.895752 7.265715 3.893695
v 7.885010 7.265715 3.893695
v 7.885010 7.265715 -3.893695
v 15.895752 7.265715 -3.893695
v 15.895752 -3.357193 -3.893695
v 7.885010 -3.357193 -3.893695
vt 0.328519 0.444286
vt 0.389670 0.444286
vt 0.453192 0.444286
vt 0.453192 0.444286
vt 0.453192 0.444286
vt 0.453192 0.444286
vt 0.264925 0.444286
vt 0.389670 0.444286
vt 0.264925 0.444286
vt 0.264925 0.444286
vt 0.328519 0.444286
vt 0.328519 0.444286
vt 0.328519 0.444286
vt 0.328519 0.444286
vt 0.389670 0.444286
vt 0.328519 0.444286
vt 0.389670 0.444286
vt 0.328519 0.444286
vt 0.171345 0.398205
vt 0.328519 0.444286
vt 0.389670 0.444286
vt 0.328519 0.444286
vt 0.389670 0.444286
vt 0.328519 0.444286
vt 0.389670 0.444286
vt 0.171345 0.398205
vt 0.328519 0.444286
vt 0.171345 0.398205
vt 0.453192 0.444286
vt 0.453192 0.444286
vt 0.389670 0.444286
vt 0.389670 0.444286
vt 0.171345 0.398205
vt 0.453192 0.444286
vt 0.453192 0.444286
vt 0.328519 0.444286
vt 0.453192 0.444286
vt 0.453192 0.444286
vt 0.389670 0.444286
vt 0.453192 0.444286
vt 0.453192 0.444286
vt 0.328519 0.444286
vt 0.389670 0.444286
vt 0.453192 0.444286
vt 0.389670 0.444286
vt 0.453192 0.444286
vt 0.328519 0.444286
vt 0.389670 0.444286
vt 0.453192 0.444286
vt 0.389670 0.444286
vt 0.328519 0.444286
vt 0.453192 0.444286
vt 0.264925 0.444286
vt 0.328519 0.444286
vt 0.389670 0.444286
vt 0.389670 0.444286
vt 0.015798 0.477572
vt 0.015798 0.477572
vt 0.015798 0.477572
vt 0.015798 0.477572
vt 0.389670 0.444286
vt 0.389670 0.444286
vt 0.389670 0.444286
vt 0.389670 0.444286
vt 0.015798 0.477572
vt 0.015798 0.477572
vt 0.015798 0.477572
vt 0.015798 0.477572
vt 0.236575 0.444286
vt 0.236575 0.444286
vt 0.236575 0.444286
vt 0.236575 0.444286
vt 0.328519 0.444286
vt 0.328519 0.444286
vt 0.328519 0.444286
vt 0.328519 0.444286
vt 0.264925 0.444286
vt 0.264925 0.444286
vt 0.264925 0.444286
vt 0.264925 0.444286
vt 0.264925 0.444286
vt 0.264925 0.444286
vt 0.264925 0.444286
vt 0.264925 0.444286
vt 0.264925 0.444286
vt 0.264925 0.444286
vt 0.264925 0.444286
vt 0.264925 0.444286
vt 0.264925 0.444286
vt 0.264925 0.444286
vt 0.264925 0.444286
vt 0.264925 0.444286
vt 0.264925 0.444286
vt 0.264925 0.444286
vt 0.264925 0.444286
vt 0.264925 0.444286
vt 0.264925 0.444286
vt 0.264925 0.444286
vt 0.264925 0.444286
vt 0.264925 0.444286
vn 0.000000 0.000000 1.000000
vn 0.000000 0.000000 1.000000
vn 0.000000 0.000000 1.000000
vn 0.000000 0.000000 1.000000
vn 0.000000 1.000000 0.000000
vn 0.000000 1.000000 0.000000
vn 0.000000 1.000000 0.000000
vn 0.000000 1.000000 0.000000
vn 0.000000 0.000000 -1.000000
vn 0.000000 0.000000 -1.000000
vn 0.000000 0.000000 -1.000000
vn 0.000000 0.000000 -1.000000
vn 0.000000 -1.000000 0.000000
vn 0.000000 -1.000000 0.000000
vn 0.000000 -1.000000 0.000000
vn 0.000000 -1.000000 0.000000
vn 1.000000 0.000000 0.000000
vn 1.000000 0.000000 0.000000
vn 1.000000 0.000000 0.000000
vn 1.000000 0.000000 0.000000
vn -1.000000 0.000000 0.000000
vn -1.000000 0.000000 0.000000
vn -1.000000 0.000000 0.000000
vn -1.000000 0.000000 0.000000
vn 0.000000 1.000000 0.000000
vn 0.000000 1.000000 0.000000
vn 0.000000 1.000000 0.000000
vn 0.000000 1.000000 0.000000
vn 0.000000 1.000000 0.000000
vn 0.000000 1.000000 0.000000
vn 0.000000 1.000000 0.000000
vn 0.000000 1.000000 0.000000
vn 0.000000 1.000000 0.000000
vn 0.000000 1.000000 0.000000
vn 0.000000 1.000000 0.000000
vn 0.000000 1.000000 0.000000
vn 0.000000 1.000000 0.000000
vn 0.000000 1.000000 0.000000
vn 0.000000 1.000000 0.000000
vn 0.000000 1.000000 0.000000
vn 0.000000 0.000000 -1.000000
vn 0.000000 0.000000 -1.000000
vn 0.000000 0.000000 -1.000000
vn 0.000000 0.000000 -1.000000
vn -1.000000 0.000000 0.000000
vn -1.000000 0.000000 0.000000
vn -1.000000 0.000000 0.000000
vn -1.000000 0.000000 0.000000
vn 0.000000 0.000000 1.000000
vn 0.000000 0.000000 1.000000
vn 0.000000 0.000000 1.000000
vn 0.000000 0.000000 1.000000
vn 1.000000 0.000000 0.000000
vn 1.000000 0.000000 0.000000
vn 1.000000 0.000000 0.000000
vn 1.000000 0.000000 0.000000
vn 0.000000 0.000000 1.000000
vn 0.000000 0.000000 1.000000
vn 0.000000 0.000000 1.000000
vn 0.000000 0.000000 1.000000
vn 0.000000 1.000000 0.000000
vn 0.000000 1.000000 0.000000
vn 0.000000 1.000000 0.000000
vn 0.000000 1.000000 0.000000
vn 0.000000 0.000000 -1.000000
vn 0.000000 0.000000 -1.000000
vn 0.000000 0.000000 -1.000000
vn 0.000000 0.000000 -1.000000
vn 0.000000 -1.000000 0.000000
vn 0.000000 -1.000000 0.000000
vn 0.000000 -1.000000 0.000000
vn 0.000000 -1.000000 0.000000
vn 1.000000 0.000000 0.000000
vn 1.000000 0.000000 0.000000
vn 1.000000 0.000000 0.000000
vn 1.000000 0.000000 0.000000
vn 0.000000 0.000000 1.000000
vn 0.000000 0.000000 1.000000
vn 0.000000 0.000000 1.000000
vn 0.000000 0.000000 1.000000
vn 0.000000 0.000000 1.000000
vn 0.000000 0.000000 1.000000
vn 0.000000 0.000000 1.000000
vn 0.000000 0.000000 1.000000
vn 0.000000 0.000000 1.000000
vn 0.000000 0.000000 1.000000
vn 0.000000 0.000000 1.000000
vn 0.000000 0.000000 1.000000
vn 0.000000 0.000000 -1.000000
vn 0.000000 0.000000 -1.000000
vn 0.000000 0.000000 -1.000000
vn 0.000000 0.000000 -1.000000
vn 0.000000 0.000000 -1.000000
vn 0.000000 0.000000 -1.000000
vn 0.000000 0.000000 -1.000000
vn 0.000000 0.000000 -1.000000
vn 0.000000 0.000000 -1.000000
vn 0.000000 0.000000 -1.000000
vn 0.000000 0.000000 -1.000000
vn 0.000000 0.000000 -1.000000
s off
f 1/56/1 2/2/2 4/48/3 3/50/4
f 13/19/5 14/33/6 15/28/7 16/26/8
f 5/43/9 6/45/10 8/8/11 7/55/12
f 7/7/13 8/53/14 2/10/15 1/9/16
f 2/54/17 8/11/18 6/12/19 4/47/20
f 7/13/21 1/1/22 3/51/23 5/14/24
f 3/3/25 4/49/26 10/38/27 9/40/28
f 4/4/29 6/46/30 11/35/31 10/37/32
f 6/6/33 5/44/34 12/30/35 11/34/36
f 5/5/37 3/52/38 9/41/39 12/29/40
f 9/15/41 10/39/42 14/32/43 13/23/44
f 10/16/45 11/36/46 15/27/47 14/20/48
f 11/17/49 12/31/50 16/25/51 15/21/52
f 12/18/53 9/42/54 13/24/55 16/22/56
f 25/57/57 26/58/58 27/59/59 28/60/60
f 19/61/61 20/62/62 22/63/63 21/64/64
f 29/65/65 30/66/66 31/67/67 32/68/68
f 23/69/69 24/70/70 18/71/71 17/72/72
f 18/73/73 24/74/74 22/75/75 20/76/76
f 17/77/77 18/78/78 26/79/79 25/80/80
f 18/81/81 20/82/82 27/83/83 26/84/84
f 20/85/85 19/86/86 28/87/87 27/88/88
f 21/89/89 22/90/90 30/91/91 29/92/92
f 22/93/93 24/94/94 31/95/95 30/96/96
f 24/97/97 23/98/98 32/99/99 31/100/100
