# This file uses centimeters as units for non-parametric coordinates.

v 26.393311 -0.564554 58.664856
v 26.393311 0.564547 58.664856
v -26.393372 -4.684769 57.193359
v -26.393372 4.684769 57.193375
v -11.466980 -4.684767 35.855637
v -11.467041 4.684769 35.855637
v 26.393433 -0.564551 34.375854
v 26.393311 0.564547 34.375854
v 3.378418 -3.823845 35.855621
v 3.378418 3.823845 35.855621
v -8.534119 -3.823845 35.855652
v -8.534119 3.823845 35.855652
v -9.073730 -3.823845 -58.664886
v -9.073792 3.823845 -58.664886
v 5.235291 -3.823845 -58.664886
v 5.235291 3.823845 -58.664886
v 19.599731 2.792763 58.664856
v 19.599731 -2.792770 58.664856
v 19.599792 -2.792763 34.375854
v 19.599609 2.792763 34.375854
v -8.534180 3.823845 -1.262222
v -8.534119 -3.823845 -1.262222
v 3.378418 -3.823845 -1.262222
v 3.378418 3.823845 -1.262222
v 9.987122 4.684769 35.115753
v 9.987244 -4.684762 35.115753
v 9.987244 -4.684769 58.664856
v 9.987244 4.684769 58.664871
v -14.891296 4.684769 47.355621
v -14.891235 -4.684768 47.355621
v -26.393433 4.684769 54.274902
v -26.393372 -4.684768 54.274902
v -14.891296 4.684769 57.561249
v -14.891296 -4.684769 57.561234
vt 0.171345 0.221266
vt 0.047368 0.477572
vt 0.047368 0.477572
vt 0.171345 0.221266
vt 0.077308 0.477572
vt 0.236575 0.221266
vt 0.236575 0.221266
vt 0.236575 0.221266
vt 0.077308 0.477572
vt 0.077308 0.477572
vt 0.141447 0.477572
vt 0.141447 0.477572
vt 0.141447 0.477572
vt 0.141447 0.477572
vt 0.297998 0.221266
vt 0.109982 0.477572
vt 0.109982 0.477572
vt 0.297998 0.221266
vt 0.077308 0.477572
vt 0.236575 0.221266
vt 0.359377 0.477572
vt 0.359377 0.477572
vt 0.359377 0.477572
vt 0.328519 0.477572
vt 0.359377 0.477572
vt 0.328519 0.477572
vt 0.328519 0.310840
vt 0.264925 0.310840
vt 0.264925 0.310840
vt 0.328519 0.477572
vt 0.264925 0.477572
vt 0.328519 0.477572
vt 0.297998 0.477572
vt 0.297998 0.310840
vt 0.328519 0.477572
vt 0.359377 0.477572
vt 0.328519 0.477572
vt 0.328519 0.477572
vt 0.297998 0.310840
vt 0.264925 0.477572
vt 0.297998 0.310840
vt 0.297998 0.310840
vt 0.297998 0.310840
vt 0.297998 0.310840
vt 0.328519 0.477572
vt 0.264925 0.310840
vt 0.264925 0.310840
vt 0.359377 0.477572
vt 0.359377 0.477572
vt 0.297998 0.477572
vt 0.328519 0.310840
vt 0.359377 0.477572
vt 0.389670 0.477572
vt 0.389670 0.477572
vt 0.417983 0.310840
vt 0.417983 0.310840
vt 0.389670 0.477572
vt 0.389670 0.477572
vt 0.389670 0.477572
vt 0.389670 0.477572
vt 0.236575 0.221266
vt 0.297998 0.221266
vt 0.077308 0.477572
vt 0.047368 0.477572
vt 0.077308 0.477572
vt 0.047368 0.477572
vt 0.109982 0.477572
vt 0.077308 0.477572
vt 0.236575 0.221266
vt 0.297998 0.221266
vt 0.077308 0.477572
vt 0.109982 0.477572
vt 0.171345 0.221266
vt 0.236575 0.221266
vt 0.236575 0.221266
vt 0.171345 0.221266
vt 0.264925 0.310840
vt 0.297998 0.310840
vt 0.264925 0.310840
vt 0.297998 0.310840
vt 0.328519 0.310840
vt 0.297998 0.310840
vt 0.328519 0.310840
vt 0.297998 0.310840
vt 0.389670 0.477572
vt 0.264925 0.477572
vt 0.417983 0.310840
vt 0.297998 0.310840
vt 0.389670 0.477572
vt 0.264925 0.477572
vt 0.389670 0.477572
vt 0.264925 0.477572
vt 0.297998 0.477572
vt 0.264925 0.477572
vt 0.297998 0.477572
vt 0.264925 0.477572
vt 0.328519 0.310840
vt 0.297998 0.310840
vt 0.389670 0.477572
vt 0.264925 0.477572
vt 0.297998 0.310840
vt 0.328519 0.310840
vt 0.417983 0.310840
vt 0.297998 0.310840
vn -1.000000 -0.000003 0.000010
vn -1.000000 -0.000003 0.000010
vn -1.000000 -0.000003 0.000010
vn -1.000000 -0.000003 0.000010
vn -0.000000 0.000000 -1.000000
vn -0.000000 0.000000 -1.000000
vn -0.000000 0.000000 -1.000000
vn -0.000000 0.000000 -1.000000
vn 0.311651 0.950197 -0.000001
vn 0.311651 0.950197 -0.000001
vn 0.311651 0.950197 -0.000001
vn 0.311651 0.950197 -0.000001
vn 1.000000 0.000056 0.000003
vn 1.000000 0.000056 0.000003
vn 1.000000 0.000056 0.000003
vn 1.000000 0.000056 0.000003
vn 0.311652 -0.950196 0.000001
vn 0.311652 -0.950196 0.000001
vn 0.311652 -0.950196 0.000001
vn 0.311652 -0.950196 0.000001
vn 0.000000 0.000000 1.000000
vn 0.000000 0.000000 1.000000
vn 0.000000 0.000000 1.000000
vn 0.000000 0.000000 1.000000
vn -1.000000 -0.000004 0.000001
vn -1.000000 -0.000004 0.000001
vn -1.000000 -0.000004 0.000001
vn -1.000000 -0.000004 0.000001
vn 0.000000 0.000000 -1.000000
vn 0.000000 0.000000 -1.000000
vn 0.000000 0.000000 -1.000000
vn 0.000000 0.000000 -1.000000
vn 0.000000 1.000000 0.000000
vn 0.000000 1.000000 0.000000
vn 0.000000 1.000000 0.000000
vn 0.000000 1.000000 0.000000
vn 1.000000 0.000000 0.000000
vn 1.000000 0.000000 0.000000
vn 1.000000 0.000000 0.000000
vn 1.000000 0.000000 0.000000
vn 0.000000 -1.000000 0.000000
vn 0.000000 -1.000000 0.000000
vn 0.000000 -1.000000 0.000000
vn 0.000000 -1.000000 0.000000
vn -0.044317 -0.000002 0.999018
vn -0.044317 -0.000002 0.999018
vn -0.044317 -0.000002 0.999018
vn -0.044317 -0.000002 0.999018
vn 0.000000 -1.000000 -0.000000
vn 0.000000 -1.000000 -0.000000
vn 0.000000 -1.000000 -0.000000
vn 0.000000 -1.000000 -0.000000
vn 0.000000 -1.000000 -0.000000
vn -0.034466 -0.000000 -0.999406
vn -0.034466 -0.000000 -0.999406
vn -0.034466 -0.000000 -0.999406
vn -0.034466 -0.000000 -0.999406
vn 0.000000 1.000000 0.000000
vn 0.000000 1.000000 0.000000
vn 0.000000 1.000000 0.000000
vn 0.000000 1.000000 0.000000
vn 0.000000 1.000000 0.000000
vn -0.999956 -0.000008 0.009400
vn -0.999956 -0.000008 0.009400
vn -0.999956 -0.000008 0.009400
vn -0.999956 -0.000008 0.009400
vn 0.000000 -1.000000 0.000000
vn 0.000000 -1.000000 0.000000
vn 0.000000 -1.000000 0.000000
vn 0.000000 -1.000000 0.000000
vn 0.999477 0.000000 0.032331
vn 0.999477 0.000000 0.032331
vn 0.999477 0.000000 0.032331
vn 0.999477 0.000000 0.032331
vn 0.000000 1.000000 -0.000000
vn 0.000000 1.000000 -0.000000
vn 0.000000 1.000000 -0.000000
vn 0.000000 1.000000 -0.000000
vn -0.076745 -0.000002 -0.997051
vn -0.076745 -0.000002 -0.997051
vn -0.076745 -0.000002 -0.997051
vn -0.076745 -0.000002 -0.997051
vn 0.193121 -0.981175 -0.000000
vn 0.193121 -0.981175 -0.000000
vn 0.193121 -0.981175 -0.000000
vn 0.193121 -0.981175 -0.000000
vn 0.000001 -0.000001 1.000000
vn 0.000001 -0.000001 1.000000
vn 0.000001 -0.000001 1.000000
vn 0.000001 -0.000001 1.000000
vn 0.193123 0.981175 -0.000001
vn 0.193123 0.981175 -0.000001
vn 0.193123 0.981175 -0.000001
vn 0.193123 0.981175 -0.000001
vn -0.958415 -0.000006 -0.285379
vn -0.958415 -0.000006 -0.285379
vn -0.958415 -0.000006 -0.285379
vn -0.958415 -0.000006 -0.285379
vn -0.515482 -0.000003 -0.856901
vn -0.515482 -0.000003 -0.856901
vn -0.515482 -0.000003 -0.856901
vn -0.515482 -0.000003 -0.856901
vn 0.000000 1.000000 -0.000000
vn 0.000000 1.000000 -0.000000
vn 0.000000 1.000000 -0.000000
vn 0.000000 1.000000 -0.000000
vn -0.031967 -0.000002 0.999489
vn -0.031967 -0.000002 0.999489
vn -0.031967 -0.000002 0.999489
vn -0.031967 -0.000002 0.999489
vn -0.000000 -1.000000 -0.000000
vn -0.000000 -1.000000 -0.000000
vn -0.000000 -1.000000 -0.000000
vn -0.000000 -1.000000 -0.000000
s off
f 3/53/1 4/54/2 31/89/3 32/91/4
f 19/48/5 20/49/6 8/21/7 7/22/8
f 2/38/9 8/24/10 20/30/11 17/26/12
f 8/57/13 2/58/14 1/59/15 7/60/16
f 7/37/17 1/35/18 18/32/19 19/45/20
f 17/36/21 18/52/22 1/25/23 2/23/24
f 11/7/25 12/8/26 21/61/27 22/75/28
f 13/11/29 14/12/30 16/13/31 15/14/32
f 10/15/33 24/70/34 21/62/35 12/18/36
f 23/74/37 24/69/38 10/20/39 9/6/40
f 22/76/41 23/73/42 9/1/43 11/4/44
f 27/81/45 28/83/46 33/102/47 34/97/48
f 5/41/49 26/80/50 27/82/51 34/98/52 30/88/53
f 25/77/54 26/79/55 5/46/56 6/47/57
f 29/104/58 33/101/59 28/84/60 25/78/61 6/39/62
f 22/63/63 21/71/64 14/9/65 13/10/66
f 15/2/67 23/66/68 22/64/69 13/3/70
f 16/19/71 24/68/72 23/65/73 15/5/74
f 21/72/75 24/67/76 16/16/77 14/17/78
f 20/29/79 19/28/80 26/79/81 25/77/82
f 27/82/83 26/80/84 19/34/85 18/44/86
f 18/27/87 17/51/88 28/83/89 27/81/90
f 25/78/91 28/84/92 17/43/93 20/42/94
f 30/87/95 29/103/96 6/55/97 5/56/98
f 32/91/99 31/89/100 29/85/101 30/99/102
f 4/31/103 33/94/104 29/86/105 31/90/106
f 34/95/107 33/93/108 4/33/109 3/50/110
f 30/100/111 34/96/112 3/40/113 32/92/114
