# This file uses centimeters as units for non-parametric coordinates.

v -8.323792 12.385630 -44.111008
v -8.323792 28.422388 -44.111008
v 8.324036 28.422388 -44.111008
v 8.324036 12.385630 -44.111008
v -6.133118 14.415375 -44.111004
v -6.133118 26.392643 -44.111004
v 6.133240 26.392643 -44.111004
v 6.133240 14.415375 -44.111004
v 0.870361 14.415375 -44.111004
v 0.870361 26.392643 -44.111004
v -0.937134 26.392643 -44.111004
v -0.937134 14.415375 -44.111004
v -4.187561 14.415375 -44.111004
v -4.187561 26.392643 -44.111004
v 4.187805 14.415375 -44.111004
v 4.187805 26.392643 -44.111004
v -5.546997 -13.586603 -17.931671
v 5.547241 -13.586603 -17.931671
v -10.768005 30.776756 8.118210
v 10.768005 30.776756 8.118210
v -10.768005 30.776756 -39.117531
v 10.768005 30.776756 -39.117531
v -5.546997 -13.586603 -32.501968
v 5.547241 -13.586603 -32.501968
v -10.768005 10.031267 8.118210
v -10.768005 10.031267 -39.117531
v 10.768005 10.031267 -39.117531
v 10.768005 10.031267 8.118210
v 6.355530 13.232887 8.118210
v -6.355408 13.232887 8.118210
v 6.355530 27.575134 8.118210
v -6.355408 27.575134 8.118210
v 6.355530 13.232887 15.974747
v -6.355408 13.232887 15.974747
v 6.355530 27.575134 15.974747
v -6.355408 27.575134 15.974747
v 4.716858 15.081902 24.527763
v -4.716675 15.081902 24.527763
v 4.716858 25.726116 24.527763
v -4.716675 25.726116 24.527763
v 2.173401 17.951935 24.527763
v -2.172913 17.951935 24.527763
v 2.173401 22.856083 24.527763
v -2.172913 22.856083 24.527763
v 2.173401 17.951935 37.834747
v -2.172913 17.951935 37.834747
v 2.173401 22.856083 37.834747
v -2.172913 22.856083 37.834747
v -8.164978 -13.586603 -34.970585
v 8.165283 -13.586603 -34.970585
v 8.165283 -13.586603 -7.921686
v -8.164978 -13.586603 -7.921686
v -8.164978 -30.776756 -34.970585
v 8.165283 -30.776756 -34.970585
v 8.165283 -30.776756 -7.921686
v -8.164978 -30.776756 -7.921686
v 5.547241 10.031267 -17.931671
v -5.546997 10.031267 -17.931671
v -5.546997 10.031267 -32.501968
v 5.547241 10.031267 -32.501968
v 8.165283 -17.575211 -7.921686
v 8.165283 -17.575211 -34.970585
v -8.164978 -17.575211 -34.970585
v -8.164978 -17.575211 -7.921686
v -2.151123 2.992390 -17.931671
v 2.151306 2.992390 -17.931671
v 2.151306 10.031267 -17.931671
v -2.151123 10.031267 -17.931671
v -2.151123 2.992390 -12.454317
v 2.151306 2.992390 -12.454317
v 2.151306 10.031267 -12.454317
v -2.151123 10.031267 -12.454317
v 10.768005 28.075424 -32.133789
v 10.768005 23.829060 -32.133789
v 10.768005 28.075424 -17.875507
v 10.768005 23.829060 -17.875507
v 0.000183 20.404009 44.111015
vt 0.015798 0.477572
vt 0.015798 0.477572
vt 0.015798 0.477572
vt 0.015798 0.477572
vt 0.236575 0.421450
vt 0.236575 0.421450
vt 0.236575 0.421450
vt 0.236575 0.421450
vt 0.236575 0.421450
vt 0.236575 0.421450
vt 0.236575 0.421450
vt 0.236575 0.421450
vt 0.236575 0.421450
vt 0.236575 0.421450
vt 0.236575 0.421450
vt 0.236575 0.421450
vt 0.236575 0.421450
vt 0.236575 0.421450
vt 0.236575 0.421450
vt 0.236575 0.421450
vt 0.015798 0.477572
vt 0.015798 0.477572
vt 0.015798 0.477572
vt 0.015798 0.477572
vt 0.015798 0.477572
vt 0.015798 0.477572
vt 0.015798 0.477572
vt 0.015798 0.477572
vt 0.202875 0.477572
vt 0.202875 0.477572
vt 0.202875 0.477572
vt 0.202875 0.477572
vt 0.297998 0.421450
vt 0.297998 0.421450
vt 0.297998 0.421450
vt 0.297998 0.421450
vt 0.109982 0.477572
vt 0.109982 0.477572
vt 0.109982 0.477572
vt 0.109982 0.477572
vt 0.297998 0.421450
vt 0.297998 0.421450
vt 0.297998 0.421450
vt 0.297998 0.421450
vt 0.297998 0.421450
vt 0.297998 0.421450
vt 0.297998 0.421450
vt 0.297998 0.421450
vt 0.328519 0.421450
vt 0.328519 0.421450
vt 0.328519 0.421450
vt 0.328519 0.421450
vt 0.359377 0.421450
vt 0.359377 0.421450
vt 0.359377 0.421450
vt 0.359377 0.421450
vt 0.328519 0.421450
vt 0.328519 0.421450
vt 0.328519 0.421450
vt 0.328519 0.421450
vt 0.328519 0.421450
vt 0.328519 0.421450
vt 0.328519 0.421450
vt 0.328519 0.421450
vt 0.328519 0.421450
vt 0.328519 0.421450
vt 0.328519 0.421450
vt 0.328519 0.421450
vt 0.109982 0.477572
vt 0.109982 0.477572
vt 0.109982 0.477572
vt 0.109982 0.477572
vt 0.141447 0.477572
vt 0.141447 0.477572
vt 0.141447 0.477572
vt 0.141447 0.477572
vt 0.171345 0.477572
vt 0.171345 0.477572
vt 0.171345 0.477572
vt 0.171345 0.477572
vt 0.141447 0.477572
vt 0.141447 0.477572
vt 0.141447 0.477572
vt 0.141447 0.477572
vt 0.264925 0.477572
vt 0.264925 0.477572
vt 0.264925 0.477572
vt 0.264925 0.477572
vt 0.297998 0.477572
vt 0.297998 0.477572
vt 0.297998 0.477572
vt 0.297998 0.477572
vt 0.328519 0.477572
vt 0.328519 0.477572
vt 0.328519 0.477572
vt 0.328519 0.477572
vt 0.297998 0.477572
vt 0.297998 0.477572
vt 0.297998 0.477572
vt 0.297998 0.477572
vt 0.359377 0.477572
vt 0.359377 0.477572
vt 0.359377 0.477572
vt 0.359377 0.477572
vt 0.359377 0.477572
vt 0.359377 0.477572
vt 0.359377 0.477572
vt 0.359377 0.477572
vt 0.297998 0.477572
vt 0.297998 0.477572
vt 0.297998 0.477572
vt 0.297998 0.477572
vt 0.328519 0.477572
vt 0.328519 0.477572
vt 0.328519 0.477572
vt 0.328519 0.477572
vt 0.359377 0.477572
vt 0.359377 0.477572
vt 0.359377 0.477572
vt 0.359377 0.477572
vt 0.328519 0.477572
vt 0.328519 0.477572
vt 0.328519 0.477572
vt 0.328519 0.477572
vt 0.359377 0.421450
vt 0.359377 0.421450
vt 0.359377 0.421450
vt 0.359377 0.421450
vt 0.359377 0.421450
vt 0.359377 0.421450
vt 0.359377 0.421450
vt 0.359377 0.421450
vt 0.328519 0.421450
vt 0.328519 0.421450
vt 0.328519 0.421450
vt 0.328519 0.421450
vt 0.328519 0.421450
vt 0.328519 0.421450
vt 0.328519 0.421450
vt 0.328519 0.421450
vt 0.264925 0.421450
vt 0.264925 0.421450
vt 0.264925 0.421450
vt 0.264925 0.421450
vt 0.328519 0.421450
vt 0.328519 0.421450
vt 0.328519 0.421450
vt 0.328519 0.421450
vt 0.264925 0.421450
vt 0.264925 0.421450
vt 0.264925 0.421450
vt 0.264925 0.421450
vt 0.264925 0.421450
vt 0.264925 0.421450
vt 0.264925 0.421450
vt 0.264925 0.421450
vt 0.328519 0.421450
vt 0.328519 0.421450
vt 0.328519 0.421450
vt 0.328519 0.421450
vt 0.264925 0.421450
vt 0.264925 0.421450
vt 0.328519 0.421450
vt 0.328519 0.421450
vt 0.328519 0.421450
vt 0.328519 0.421450
vt 0.359377 0.421450
vt 0.359377 0.421450
vt 0.141447 0.477572
vt 0.141447 0.477572
vt 0.141447 0.477572
vt 0.141447 0.477572
vt 0.171345 0.477572
vt 0.171345 0.477572
vt 0.171345 0.477572
vt 0.171345 0.477572
vt 0.141447 0.477572
vt 0.141447 0.477572
vt 0.141447 0.477572
vt 0.141447 0.477572
vt 0.171345 0.477572
vt 0.171345 0.477572
vt 0.171345 0.477572
vt 0.171345 0.477572
vt 0.297998 0.421450
vt 0.297998 0.421450
vt 0.297998 0.421450
vt 0.297998 0.421450
vt 0.297998 0.421450
vt 0.297998 0.421450
vt 0.297998 0.421450
vt 0.297998 0.421450
vt 0.109982 0.477572
vt 0.109982 0.477572
vt 0.109982 0.477572
vt 0.109982 0.477572
vt 0.171345 0.477572
vt 0.171345 0.477572
vt 0.171345 0.477572
vt 0.171345 0.477572
vt 0.141447 0.477572
vt 0.141447 0.477572
vt 0.141447 0.477572
vt 0.141447 0.477572
vt 0.328519 0.421450
vt 0.328519 0.421450
vt 0.328519 0.421450
vt 0.328519 0.421450
vt 0.141447 0.477572
vt 0.141447 0.477572
vt 0.141447 0.477572
vt 0.141447 0.477572
vt 0.389670 0.477572
vt 0.389670 0.477572
vt 0.389670 0.477572
vt 0.297998 0.477572
vt 0.297998 0.477572
vt 0.297998 0.477572
vt 0.328519 0.477572
vt 0.328519 0.477572
vt 0.328519 0.477572
vt 0.328519 0.477572
vt 0.328519 0.477572
vt 0.328519 0.477572
vn 0.000000 0.000000 -1.000000
vn 0.000000 0.000000 -1.000000
vn 0.000000 0.000000 -1.000000
vn 0.000000 0.000000 -1.000000
vn 0.000000 0.000000 -1.000000
vn 0.000000 0.000000 -1.000000
vn 0.000000 0.000000 -1.000000
vn 0.000000 0.000000 -1.000000
vn 0.000000 -0.000002 -1.000000
vn 0.000000 -0.000002 -1.000000
vn 0.000000 -0.000002 -1.000000
vn 0.000000 -0.000002 -1.000000
vn 0.000000 -0.000002 -1.000000
vn 0.000000 -0.000002 -1.000000
vn 0.000000 -0.000002 -1.000000
vn 0.000000 -0.000002 -1.000000
vn -0.000000 0.000000 -1.000000
vn -0.000000 0.000000 -1.000000
vn -0.000000 0.000000 -1.000000
vn -0.000000 0.000000 -1.000000
vn 0.000000 0.000002 -1.000000
vn 0.000000 0.000002 -1.000000
vn 0.000000 0.000002 -1.000000
vn 0.000000 0.000002 -1.000000
vn 0.000000 0.000002 -1.000000
vn 0.000000 0.000002 -1.000000
vn 0.000000 0.000002 -1.000000
vn 0.000000 0.000002 -1.000000
vn 0.000000 0.000000 -1.000000
vn 0.000000 0.000000 -1.000000
vn 0.000000 0.000000 -1.000000
vn 0.000000 0.000000 -1.000000
vn 0.000000 0.000000 -1.000000
vn 0.000000 0.000000 -1.000000
vn 0.000000 0.000000 -1.000000
vn 0.000000 0.000000 -1.000000
vn 0.000000 0.000000 -1.000000
vn 0.000000 0.000000 -1.000000
vn 0.000000 0.000000 -1.000000
vn 0.000000 0.000000 -1.000000
vn 0.000000 0.000000 -1.000000
vn 0.000000 0.000000 -1.000000
vn 0.000000 0.000000 -1.000000
vn 0.000000 0.000000 -1.000000
vn 0.000000 0.000000 1.000000
vn 0.000000 0.000000 1.000000
vn 0.000000 0.000000 1.000000
vn 0.000000 0.000000 1.000000
vn 0.000000 0.000000 -1.000000
vn 0.000000 0.000000 -1.000000
vn 0.000000 0.000000 -1.000000
vn 0.000000 0.000000 -1.000000
vn 0.000000 -1.000000 0.000000
vn 0.000000 -1.000000 0.000000
vn 0.000000 -1.000000 0.000000
vn 0.000000 -1.000000 0.000000
vn 1.000000 0.000000 0.000000
vn 1.000000 0.000000 0.000000
vn 1.000000 0.000000 0.000000
vn 1.000000 0.000000 0.000000
vn -1.000000 0.000000 0.000000
vn -1.000000 0.000000 0.000000
vn -1.000000 0.000000 0.000000
vn -1.000000 0.000000 0.000000
vn -1.000000 0.000000 0.000000
vn -1.000000 0.000000 0.000000
vn -1.000000 0.000000 0.000000
vn -1.000000 0.000000 0.000000
vn 0.000000 1.000000 0.000000
vn 0.000000 1.000000 0.000000
vn 0.000000 1.000000 0.000000
vn 0.000000 1.000000 0.000000
vn 1.000000 0.000000 0.000000
vn 1.000000 0.000000 0.000000
vn 1.000000 0.000000 0.000000
vn 1.000000 0.000000 0.000000
vn 0.944955 0.000000 0.327200
vn 0.944955 0.000000 0.327200
vn 0.944955 0.000000 0.327200
vn 0.000000 0.000000 1.000000
vn 0.000000 0.000000 1.000000
vn 0.000000 0.000000 1.000000
vn 0.000000 0.000000 1.000000
vn 0.000000 0.000000 1.000000
vn 0.000000 0.000000 1.000000
vn 0.000000 0.000000 1.000000
vn 0.000000 0.000000 1.000000
vn 0.000000 0.000000 1.000000
vn 0.000000 0.000000 1.000000
vn 0.000000 0.000000 1.000000
vn 0.000000 0.000000 1.000000
vn -0.000000 0.000000 1.000000
vn -0.000000 0.000000 1.000000
vn -0.000000 0.000000 1.000000
vn -0.000000 0.000000 1.000000
vn 0.000000 -1.000000 0.000000
vn 0.000000 -1.000000 0.000000
vn 0.000000 -1.000000 0.000000
vn 0.000000 -1.000000 0.000000
vn 1.000000 0.000000 0.000000
vn 1.000000 0.000000 0.000000
vn 1.000000 0.000000 0.000000
vn 1.000000 0.000000 0.000000
vn 0.000000 1.000000 0.000000
vn 0.000000 1.000000 0.000000
vn 0.000000 1.000000 0.000000
vn 0.000000 1.000000 0.000000
vn -1.000000 0.000000 0.000000
vn -1.000000 0.000000 0.000000
vn -1.000000 0.000000 0.000000
vn -1.000000 0.000000 0.000000
vn 0.000000 -0.977421 0.211301
vn 0.000000 -0.977421 0.211301
vn 0.000000 -0.977421 0.211301
vn 0.000000 -0.977421 0.211301
vn 0.982137 0.000000 0.188168
vn 0.982137 0.000000 0.188168
vn 0.982137 0.000000 0.188168
vn 0.982137 0.000000 0.188168
vn 0.000000 0.977421 0.211302
vn 0.000000 0.977421 0.211302
vn 0.000000 0.977421 0.211302
vn 0.000000 0.977421 0.211302
vn -0.982136 0.000000 0.188174
vn -0.982136 0.000000 0.188174
vn -0.982136 0.000000 0.188174
vn -0.982136 0.000000 0.188174
vn 0.000000 0.000000 1.000000
vn 0.000000 0.000000 1.000000
vn 0.000000 0.000000 1.000000
vn 0.000000 0.000000 1.000000
vn 0.000001 0.000000 1.000000
vn 0.000001 0.000000 1.000000
vn 0.000001 0.000000 1.000000
vn 0.000001 0.000000 1.000000
vn 0.000000 0.000000 1.000000
vn 0.000000 0.000000 1.000000
vn 0.000000 0.000000 1.000000
vn 0.000000 0.000000 1.000000
vn -0.000001 0.000000 1.000000
vn -0.000001 0.000000 1.000000
vn -0.000001 0.000000 1.000000
vn -0.000001 0.000000 1.000000
vn 0.000000 -1.000000 0.000000
vn 0.000000 -1.000000 0.000000
vn 0.000000 -1.000000 0.000000
vn 0.000000 -1.000000 0.000000
vn 1.000000 0.000000 0.000000
vn 1.000000 0.000000 0.000000
vn 1.000000 0.000000 0.000000
vn 1.000000 0.000000 0.000000
vn 0.000000 1.000000 0.000000
vn 0.000000 1.000000 0.000000
vn 0.000000 1.000000 0.000000
vn 0.000000 1.000000 0.000000
vn -1.000000 0.000000 0.000000
vn -1.000000 0.000000 0.000000
vn -1.000000 0.000000 0.000000
vn -1.000000 0.000000 0.000000
vn 0.000000 1.000000 0.000000
vn 0.000000 1.000000 0.000000
vn 0.000000 1.000000 0.000000
vn 0.000000 1.000000 0.000000
vn 0.000000 1.000000 0.000000
vn 0.000000 1.000000 0.000000
vn 0.000000 1.000000 0.000000
vn 0.000000 1.000000 0.000000
vn 0.000000 1.000000 -0.000000
vn 0.000000 1.000000 -0.000000
vn 0.000000 1.000000 -0.000000
vn 0.000000 1.000000 -0.000000
vn 0.000000 1.000000 0.000000
vn 0.000000 1.000000 0.000000
vn 0.000000 1.000000 0.000000
vn 0.000000 1.000000 0.000000
vn 0.000000 0.000000 -1.000000
vn 0.000000 0.000000 -1.000000
vn 0.000000 0.000000 -1.000000
vn 0.000000 0.000000 -1.000000
vn 1.000000 0.000000 0.000000
vn 1.000000 0.000000 0.000000
vn 1.000000 0.000000 0.000000
vn 1.000000 0.000000 0.000000
vn 0.000000 0.000000 1.000000
vn 0.000000 0.000000 1.000000
vn 0.000000 0.000000 1.000000
vn 0.000000 0.000000 1.000000
vn -1.000000 0.000000 0.000000
vn -1.000000 0.000000 0.000000
vn -1.000000 0.000000 0.000000
vn -1.000000 0.000000 0.000000
vn 0.000000 -1.000000 0.000000
vn 0.000000 -1.000000 0.000000
vn 0.000000 -1.000000 0.000000
vn 0.000000 -1.000000 0.000000
vn 0.000000 -1.000000 0.000000
vn 0.000000 -1.000000 0.000000
vn 0.000000 -1.000000 0.000000
vn 0.000000 -1.000000 0.000000
vn 0.000000 -1.000000 -0.000000
vn 0.000000 -1.000000 -0.000000
vn 0.000000 -1.000000 -0.000000
vn 0.000000 -1.000000 -0.000000
vn 0.000000 -1.000000 0.000000
vn 0.000000 -1.000000 0.000000
vn 0.000000 -1.000000 0.000000
vn 0.000000 -1.000000 0.000000
vn 0.898192 0.000000 -0.439604
vn 0.898192 0.000000 -0.439604
vn 0.898192 0.000000 -0.439604
vn 0.898192 0.000000 -0.439604
vn 0.000000 -0.904505 -0.426463
vn 0.000000 -0.904505 -0.426463
vn 0.000000 -0.904505 -0.426463
vn 0.000000 -0.904505 -0.426463
vn -0.898174 0.000000 -0.439639
vn -0.898174 0.000000 -0.439639
vn -0.898174 0.000000 -0.439639
vn -0.898174 0.000000 -0.439639
vn 0.000000 0.904505 -0.426464
vn 0.000000 0.904505 -0.426464
vn 0.000000 0.904505 -0.426464
vn 0.000000 0.904505 -0.426464
vn 1.000000 0.000000 0.000000
vn 1.000000 0.000000 0.000000
vn 1.000000 0.000000 0.000000
vn 1.000000 0.000000 0.000000
vn 0.000000 0.000000 -1.000000
vn 0.000000 0.000000 -1.000000
vn 0.000000 0.000000 -1.000000
vn 0.000000 0.000000 -1.000000
vn -1.000000 0.000000 0.000000
vn -1.000000 0.000000 0.000000
vn -1.000000 0.000000 0.000000
vn -1.000000 0.000000 0.000000
vn 0.000000 0.000000 1.000000
vn 0.000000 0.000000 1.000000
vn 0.000000 0.000000 1.000000
vn 0.000000 0.000000 1.000000
vn 0.000000 0.000000 1.000000
vn 0.000000 0.000000 1.000000
vn 0.000000 0.000000 1.000000
vn 0.000000 0.000000 1.000000
vn -0.000001 0.000000 1.000000
vn -0.000001 0.000000 1.000000
vn -0.000001 0.000000 1.000000
vn -0.000001 0.000000 1.000000
vn 0.000000 0.000000 1.000000
vn 0.000000 0.000000 1.000000
vn 0.000000 0.000000 1.000000
vn 0.000000 0.000000 1.000000
vn 0.000000 -1.000000 0.000000
vn 0.000000 -1.000000 0.000000
vn 0.000000 -1.000000 0.000000
vn 0.000000 -1.000000 0.000000
vn 1.000000 0.000000 0.000000
vn 1.000000 0.000000 0.000000
vn 1.000000 0.000000 0.000000
vn 1.000000 0.000000 0.000000
vn -1.000000 0.000000 0.000000
vn -1.000000 0.000000 0.000000
vn -1.000000 0.000000 0.000000
vn -1.000000 0.000000 0.000000
vn 1.000000 0.000000 0.000000
vn 1.000000 0.000000 0.000000
vn 1.000000 0.000000 0.000000
vn 1.000000 0.000000 0.000000
vn 1.000000 -0.000000 0.000000
vn 1.000000 -0.000000 0.000000
vn 1.000000 -0.000000 0.000000
vn 1.000000 -0.000000 0.000000
vn 1.000000 0.000000 0.000000
vn 1.000000 0.000000 0.000000
vn 1.000000 0.000000 0.000000
vn 1.000000 0.000000 0.000000
vn 1.000000 0.000000 0.000000
vn 1.000000 0.000000 0.000000
vn 1.000000 0.000000 0.000000
vn 1.000000 0.000000 0.000000
vn 0.000000 -0.931437 0.363903
vn 0.000000 -0.931437 0.363903
vn 0.000000 -0.931437 0.363903
vn 0.000000 0.931437 0.363903
vn 0.000000 0.931437 0.363903
vn 0.000000 0.931437 0.363903
vn -0.944961 0.000000 0.327184
vn -0.944961 0.000000 0.327184
vn -0.944961 0.000000 0.327184
s off
f 15/1/1 16/2/2 7/3/3 8/4/4
f 1/5/5 2/6/6 6/7/7 5/8/8
f 2/6/9 3/9/10 7/10/11 16/11/12 10/12/13 11/13/14 14/14/15 6/7/16
f 3/9/17 4/15/18 8/16/19 7/10/20
f 4/15/21 1/5/22 5/8/23 13/17/24 12/18/25 9/19/26 15/20/27 8/16/28
f 13/17/29 14/14/30 11/13/31 12/18/32
f 12/21/33 11/22/34 10/23/35 9/24/36
f 5/25/37 6/26/38 14/27/39 13/28/40
f 10/12/41 16/11/42 15/20/43 9/19/44
f 71/29/45 72/30/46 69/31/47 70/32/48
f 23/33/49 59/34/50 60/35/51 24/36/52
f 56/37/53 53/38/54 54/39/55 55/40/56
f 18/41/57 24/42/58 60/43/59 57/44/60
f 23/45/61 17/46/62 58/47/63 59/48/64
f 26/52/65 25/49/66 19/50/67 21/51/68
f 21/53/69 19/54/70 20/55/71 22/56/72
f 74/209/73 73/210/74 75/211/75 76/212/76
f 47/219/77 77/220/78 45/221/79
f 30/61/80 25/62/81 28/63/82 29/64/83
f 28/63/84 20/65/85 31/66/86 29/64/87
f 19/67/88 32/68/89 31/66/90 20/65/91
f 19/67/92 25/62/93 30/61/94 32/68/95
f 34/69/96 30/70/97 29/71/98 33/72/99
f 29/73/100 31/74/101 35/75/102 33/76/103
f 32/77/104 36/78/105 35/79/106 31/80/107
f 32/81/108 30/82/109 34/83/110 36/84/111
f 38/85/112 34/86/113 33/87/114 37/88/115
f 33/89/116 35/90/117 39/91/118 37/92/119
f 36/93/120 40/94/121 39/95/122 35/96/123
f 36/97/124 34/98/125 38/99/126 40/100/127
f 42/101/128 38/102/129 37/103/130 41/104/131
f 37/103/132 39/105/133 43/106/134 41/104/135
f 40/107/136 44/108/137 43/106/138 39/105/139
f 40/107/140 38/102/141 42/101/142 44/108/143
f 46/109/144 42/110/145 41/111/146 45/112/147
f 41/113/148 43/114/149 47/115/150 45/116/151
f 44/117/152 48/118/153 47/119/154 43/120/155
f 44/121/156 42/122/157 46/123/158 48/124/159
f 49/125/160 23/126/161 24/127/162 50/128/163
f 24/127/164 18/129/165 51/130/166 50/128/167
f 17/131/168 52/132/169 51/130/170 18/129/171
f 17/131/172 23/126/173 49/125/174 52/132/175
f 63/133/176 49/134/177 50/135/178 62/136/179
f 50/137/180 51/138/181 61/139/182 62/140/183
f 52/141/184 64/142/185 61/143/186 51/144/187
f 52/145/188 49/146/189 63/147/190 64/148/191
f 59/149/192 58/150/193 25/151/194 26/152/195
f 60/153/196 27/154/197 28/155/198 57/156/199
f 59/149/200 26/152/201 27/154/202 60/153/203
f 25/151/204 58/150/205 57/156/206 28/155/207
f 22/157/208 27/158/209 4/159/210 3/160/211
f 26/152/212 1/161/213 4/162/214 27/154/215
f 1/163/216 26/164/217 21/165/218 2/166/219
f 2/167/220 21/53/221 22/56/222 3/168/223
f 62/169/224 61/170/225 55/171/226 54/172/227
f 53/173/228 63/174/229 62/175/230 54/176/231
f 64/177/232 63/178/233 53/179/234 56/180/235
f 64/181/236 56/182/237 55/183/238 61/184/239
f 65/185/240 17/186/241 18/187/242 66/188/243
f 18/187/244 57/189/245 67/190/246 66/188/247
f 58/191/248 17/186/249 65/185/250 68/192/251
f 69/193/252 65/194/253 66/195/254 70/196/255
f 66/197/256 67/198/257 71/199/258 70/200/259
f 68/201/260 65/202/261 69/203/262 72/204/263
f 27/57/264 22/58/265 73/206/266 74/205/267
f 22/58/268 20/59/269 75/207/270 73/206/271
f 20/59/272 28/60/273 76/208/274 75/207/275
f 28/60/276 27/57/277 74/205/278 76/208/279
f 77/216/280 46/217/281 45/218/282
f 48/213/283 77/214/284 47/215/285
f 48/222/286 46/223/287 77/224/288
