# This file uses centimeters as units for non-parametric coordinates.

v 19.620605 14.127083 3.132866
v 19.620605 14.127083 -3.132866
v 19.620605 34.539986 3.132866
v 19.620605 34.539986 -3.132866
v -19.620605 34.539986 3.132866
v -19.620605 34.539986 -3.132866
v -19.620605 14.127083 3.132866
v -19.620605 14.127083 -3.132866
v -15.841400 14.127083 3.132866
v -15.841370 14.127083 -3.132866
v 15.841400 14.127083 3.132866
v 15.841400 14.127083 -3.132866
v -15.841370 29.787010 -3.132866
v -15.841400 29.787010 3.132866
v 15.841400 29.787010 3.132866
v 15.841400 29.787010 -3.132866
v -19.519150 -34.539986 19.519154
v 19.519165 -34.539986 19.519154
v -20.714996 14.127083 20.714989
v 20.714996 14.127083 20.714989
v -20.714996 14.127083 -20.714989
v 20.714996 14.127083 -20.714989
v -19.519150 -34.539986 -19.519157
v 19.519165 -34.539986 -19.519157
v -15.841370 14.127083 15.841347
v 15.841370 14.127083 15.841347
v 15.841370 14.127083 -15.841347
v -15.841370 14.127083 -15.841347
v -15.277740 5.183590 15.277748
v 15.277740 5.183590 15.277748
v 15.277740 5.183590 -15.277748
v -15.277740 5.183590 -15.277748
vt 0.297998 0.477572
vt 0.297998 0.477572
vt 0.297998 0.477572
vt 0.297998 0.477572
vt 0.328519 0.477572
vt 0.328519 0.477572
vt 0.328519 0.477572
vt 0.328519 0.477572
vt 0.297998 0.477572
vt 0.297998 0.477572
vt 0.297998 0.477572
vt 0.297998 0.477572
vt 0.264925 0.477572
vt 0.264925 0.477572
vt 0.264925 0.477572
vt 0.264925 0.477572
vt 0.264925 0.477572
vt 0.264925 0.477572
vt 0.264925 0.477572
vt 0.264925 0.477572
vt 0.264925 0.477572
vt 0.264925 0.477572
vt 0.264925 0.477572
vt 0.264925 0.477572
vt 0.264925 0.477572
vt 0.264925 0.477572
vt 0.264925 0.477572
vt 0.264925 0.477572
vt 0.236575 0.477572
vt 0.236575 0.477572
vt 0.236575 0.477572
vt 0.236575 0.477572
vt 0.236575 0.477572
vt 0.236575 0.477572
vt 0.236575 0.477572
vt 0.236575 0.477572
vt 0.236575 0.477572
vt 0.236575 0.477572
vt 0.236575 0.477572
vt 0.236575 0.477572
vt 0.297998 0.265241
vt 0.297998 0.265241
vt 0.297998 0.265241
vt 0.297998 0.265241
vt 0.483503 0.331011
vt 0.483503 0.331011
vt 0.483503 0.331011
vt 0.483503 0.331011
vt 0.297998 0.265241
vt 0.297998 0.265241
vt 0.297998 0.265241
vt 0.297998 0.265241
vt 0.236575 0.265241
vt 0.236575 0.265241
vt 0.236575 0.265241
vt 0.236575 0.265241
vt 0.328519 0.265241
vt 0.328519 0.265241
vt 0.328519 0.265241
vt 0.328519 0.265241
vt 0.328519 0.265241
vt 0.328519 0.265241
vt 0.328519 0.265241
vt 0.328519 0.265241
vt 0.389670 0.265241
vt 0.389670 0.265241
vt 0.389670 0.265241
vt 0.389670 0.265241
vt 0.389670 0.265241
vt 0.389670 0.265241
vt 0.389670 0.265241
vt 0.389670 0.265241
vt 0.141447 0.265241
vt 0.141447 0.265241
vt 0.141447 0.265241
vt 0.141447 0.265241
vt 0.109982 0.265241
vt 0.109982 0.265241
vt 0.109982 0.265241
vt 0.109982 0.265241
vt 0.141447 0.265241
vt 0.141447 0.265241
vt 0.141447 0.265241
vt 0.141447 0.265241
vt 0.109982 0.265241
vt 0.109982 0.265241
vt 0.109982 0.265241
vt 0.109982 0.265241
vn 1.000000 0.000000 0.000000
vn 1.000000 0.000000 0.000000
vn 1.000000 0.000000 0.000000
vn 1.000000 0.000000 0.000000
vn 0.000000 1.000000 0.000000
vn 0.000000 1.000000 0.000000
vn 0.000000 1.000000 0.000000
vn 0.000000 1.000000 0.000000
vn -1.000000 0.000000 0.000000
vn -1.000000 0.000000 0.000000
vn -1.000000 0.000000 0.000000
vn -1.000000 0.000000 0.000000
vn 0.000000 0.000000 -1.000000
vn 0.000000 0.000000 -1.000000
vn 0.000000 0.000000 -1.000000
vn 0.000000 0.000000 -1.000000
vn 0.000000 0.000000 1.000000
vn 0.000000 0.000000 1.000000
vn 0.000000 0.000000 1.000000
vn 0.000000 0.000000 1.000000
vn 0.000000 0.000000 -1.000000
vn 0.000000 0.000000 -1.000000
vn 0.000000 0.000000 -1.000000
vn 0.000000 0.000000 -1.000000
vn 0.000000 0.000000 -1.000000
vn 0.000000 0.000000 -1.000000
vn 0.000000 0.000000 -1.000000
vn 0.000000 0.000000 -1.000000
vn 0.000000 0.000000 1.000000
vn 0.000000 0.000000 1.000000
vn 0.000000 0.000000 1.000000
vn 0.000000 0.000000 1.000000
vn 0.000000 0.000000 1.000000
vn 0.000000 0.000000 1.000000
vn 0.000000 0.000000 1.000000
vn 0.000000 0.000000 1.000000
vn 1.000000 0.000000 0.000005
vn 1.000000 0.000000 0.000005
vn 1.000000 0.000000 0.000005
vn 1.000000 0.000000 0.000005
vn -1.000000 0.000000 0.000000
vn -1.000000 0.000000 0.000000
vn -1.000000 0.000000 0.000000
vn -1.000000 0.000000 0.000000
vn 0.000000 -1.000000 0.000000
vn 0.000000 -1.000000 0.000000
vn 0.000000 -1.000000 0.000000
vn 0.000000 -1.000000 0.000000
vn 0.000000 -0.024564 0.999698
vn 0.000000 -0.024564 0.999698
vn 0.000000 -0.024564 0.999698
vn 0.000000 -0.024564 0.999698
vn 0.000000 1.000000 0.000000
vn 0.000000 1.000000 0.000000
vn 0.000000 1.000000 0.000000
vn 0.000000 1.000000 0.000000
vn 0.000000 -0.024564 -0.999698
vn 0.000000 -0.024564 -0.999698
vn 0.000000 -0.024564 -0.999698
vn 0.000000 -0.024564 -0.999698
vn 0.000000 -1.000000 0.000000
vn 0.000000 -1.000000 0.000000
vn 0.000000 -1.000000 0.000000
vn 0.000000 -1.000000 0.000000
vn 0.999698 -0.024564 0.000000
vn 0.999698 -0.024564 0.000000
vn 0.999698 -0.024564 0.000000
vn 0.999698 -0.024564 0.000000
vn -0.999698 -0.024565 0.000000
vn -0.999698 -0.024565 0.000000
vn -0.999698 -0.024565 0.000000
vn -0.999698 -0.024565 0.000000
vn 0.000000 1.000000 0.000000
vn 0.000000 1.000000 0.000000
vn 0.000000 1.000000 0.000000
vn 0.000000 1.000000 0.000000
vn 0.000000 1.000000 0.000000
vn 0.000000 1.000000 0.000000
vn 0.000000 1.000000 0.000000
vn 0.000000 1.000000 0.000000
vn 0.000000 1.000000 0.000000
vn 0.000000 1.000000 0.000000
vn 0.000000 1.000000 0.000000
vn 0.000000 1.000000 0.000000
vn 0.000000 1.000000 0.000000
vn 0.000000 1.000000 0.000000
vn 0.000000 1.000000 0.000000
vn 0.000000 1.000000 0.000000
vn 0.000000 0.062893 -0.998020
vn 0.000000 0.062893 -0.998020
vn 0.000000 0.062893 -0.998020
vn 0.000000 0.062893 -0.998020
vn -0.998020 0.062896 0.000000
vn -0.998020 0.062896 0.000000
vn -0.998020 0.062896 0.000000
vn -0.998020 0.062896 0.000000
vn 0.000000 0.062893 0.998020
vn 0.000000 0.062893 0.998020
vn 0.000000 0.062893 0.998020
vn 0.000000 0.062893 0.998020
vn 0.998020 0.062896 0.000000
vn 0.998020 0.062896 0.000000
vn 0.998020 0.062896 0.000000
vn 0.998020 0.062896 0.000000
s off
f 4/1/1 3/2/2 1/3/3 2/4/4
f 6/5/5 5/6/6 3/7/7 4/8/8
f 5/9/9 6/10/10 8/11/11 7/12/12
f 13/13/13 6/14/14 4/15/15 16/16/16
f 3/21/17 5/22/18 14/23/19 15/24/20
f 16/16/21 4/15/22 2/19/23 12/20/24
f 6/14/25 13/13/26 10/17/27 8/18/28
f 14/23/29 5/22/30 7/25/31 9/26/32
f 3/21/33 15/24/34 11/27/35 1/28/36
f 10/29/37 13/30/38 14/31/39 9/32/40
f 16/33/41 12/34/42 11/35/43 15/36/44
f 13/37/45 16/38/46 15/39/47 14/40/48
f 17/41/49 18/42/50 20/43/51 19/44/52
f 31/47/53 32/48/54 29/45/55 30/46/56
f 21/49/57 22/50/58 24/51/59 23/52/60
f 23/53/61 24/54/62 18/55/63 17/56/64
f 18/57/65 24/58/66 22/59/67 20/60/68
f 21/64/69 23/61/70 17/62/71 19/63/72
f 19/65/73 20/66/74 26/67/75 25/68/76
f 22/69/77 27/70/78 26/67/79 20/66/80
f 22/69/81 21/71/82 28/72/83 27/70/84
f 28/72/85 21/71/86 19/65/87 25/68/88
f 25/73/89 26/74/90 30/75/91 29/76/92
f 27/78/93 31/79/94 30/80/95 26/77/96
f 27/81/97 28/82/98 32/83/99 31/84/100
f 32/88/101 28/85/102 25/86/103 29/87/104
