# This file uses centimeters as units for non-parametric coordinates.

v -12.289490 -37.223610 12.289459
v 12.289425 -37.223610 12.289459
v -12.289490 23.357037 12.289459
v 12.289425 23.357037 12.289459
v -12.289490 23.357037 -12.289459
v 12.289425 23.357037 -12.289459
v -12.289490 -37.223610 -12.289459
v 12.289425 -37.223610 -12.289459
v -12.289490 32.290157 0.922577
v 12.289425 32.290157 0.922577
v 12.289425 32.290157 -0.922546
v -12.289490 32.290157 -0.922546
v -12.289490 37.223614 0.922577
v 12.289425 37.223614 0.922577
v 12.289425 37.223614 -0.922546
v -12.289490 37.223614 -0.922546
v -12.289490 9.039928 12.289459
v -12.289490 9.039928 -12.289459
v 12.289425 9.039928 -12.289459
v 12.289425 9.039928 12.289459
v -12.289490 -8.335449 12.289459
v -12.289490 -8.335449 -12.289459
v 12.289425 -8.335449 -12.289459
v 12.289425 -8.335449 12.289459
vt 0.202875 0.197882
vt 0.236575 0.197882
vt 0.297998 0.197882
vt 0.141447 0.197882
vt 0.141447 0.197882
vt 0.297998 0.197882
vt 0.236575 0.197882
vt 0.236575 0.197882
vt 0.236575 0.197882
vt 0.236575 0.197882
vt 0.202875 0.197882
vt 0.202875 0.197882
vt 0.202875 0.197882
vt 0.202875 0.197882
vt 0.236575 0.197882
vt 0.236575 0.197882
vt 0.236575 0.197882
vt 0.236575 0.197882
vt 0.297998 0.197882
vt 0.236575 0.197882
vt 0.236575 0.197882
vt 0.236575 0.197882
vt 0.202875 0.197882
vt 0.236575 0.197882
vt 0.202875 0.197882
vt 0.202875 0.197882
vt 0.141447 0.197882
vt 0.141447 0.197882
vt 0.236575 0.197882
vt 0.141447 0.197882
vt 0.141447 0.197882
vt 0.141447 0.197882
vt 0.236575 0.197882
vt 0.141447 0.197882
vt 0.297998 0.197882
vt 0.297998 0.197882
vt 0.297998 0.197882
vt 0.236575 0.197882
vt 0.297998 0.197882
vt 0.297998 0.197882
vt 0.297998 0.197882
vt 0.236575 0.197882
vt 0.236575 0.197882
vt 0.297998 0.197882
vt 0.297998 0.197882
vt 0.297998 0.197882
vt 0.389670 0.477572
vt 0.236575 0.197882
vt 0.202875 0.197882
vt 0.236575 0.197882
vt 0.236575 0.197882
vt 0.202875 0.197882
vt 0.496678 0.939347
vt 0.202875 0.197882
vt 0.202875 0.197882
vt 0.236575 0.197882
vt 0.389670 0.477572
vt 0.417983 0.477572
vt 0.417983 0.477572
vt 0.389670 0.477572
vt 0.496678 0.873305
vt 0.389670 0.477572
vt 0.202875 0.197882
vt 0.236575 0.197882
vt 0.389670 0.477572
vt 0.418081 0.873305
vt 0.236575 0.197882
vt 0.202875 0.197882
vt 0.236575 0.197882
vt 0.389670 0.477572
vt 0.202875 0.197882
vt 0.236575 0.197882
vt 0.202875 0.197882
vt 0.418081 0.939347
vt 0.417983 0.477572
vt 0.389670 0.477572
vt 0.389670 0.477572
vt 0.417983 0.477572
vn 0.000000 0.000000 1.000000
vn 0.000000 0.000000 1.000000
vn 0.000000 0.000000 1.000000
vn 0.000000 0.000000 1.000000
vn 0.000000 1.000000 0.000000
vn 0.000000 1.000000 0.000000
vn 0.000000 1.000000 0.000000
vn 0.000000 1.000000 0.000000
vn 0.000000 0.000000 -1.000000
vn 0.000000 0.000000 -1.000000
vn 0.000000 0.000000 -1.000000
vn 0.000000 0.000000 -1.000000
vn 0.000000 -1.000000 0.000000
vn 0.000000 -1.000000 0.000000
vn 0.000000 -1.000000 0.000000
vn 0.000000 -1.000000 0.000000
vn 1.000000 0.000000 0.000000
vn 1.000000 0.000000 0.000000
vn 1.000000 0.000000 0.000000
vn 1.000000 0.000000 0.000000
vn -1.000000 0.000000 0.000000
vn -1.000000 0.000000 0.000000
vn -1.000000 0.000000 0.000000
vn -1.000000 0.000000 0.000000
vn 0.000000 0.786251 0.617907
vn 0.000000 0.786251 0.617907
vn 0.000000 0.786251 0.617907
vn 0.000000 0.786251 0.617907
vn 1.000000 -0.000000 0.000000
vn 1.000000 -0.000000 0.000000
vn 1.000000 -0.000000 0.000000
vn 1.000000 -0.000000 0.000000
vn 0.000000 0.786252 -0.617906
vn 0.000000 0.786252 -0.617906
vn 0.000000 0.786252 -0.617906
vn 0.000000 0.786252 -0.617906
vn -1.000000 0.000000 0.000000
vn -1.000000 0.000000 0.000000
vn -1.000000 0.000000 0.000000
vn -1.000000 0.000000 0.000000
vn 0.000000 0.000000 1.000000
vn 0.000000 0.000000 1.000000
vn 0.000000 0.000000 1.000000
vn 0.000000 0.000000 1.000000
vn 1.000000 0.000000 0.000000
vn 1.000000 0.000000 0.000000
vn 1.000000 0.000000 0.000000
vn 1.000000 0.000000 0.000000
vn 0.000000 0.000000 -1.000000
vn 0.000000 0.000000 -1.000000
vn 0.000000 0.000000 -1.000000
vn 0.000000 0.000000 -1.000000
vn -1.000000 0.000000 0.000000
vn -1.000000 0.000000 0.000000
vn -1.000000 0.000000 0.000000
vn -1.000000 0.000000 0.000000
vn -1.000000 0.000000 0.000000
vn -1.000000 0.000000 0.000000
vn -1.000000 0.000000 0.000000
vn -1.000000 0.000000 0.000000
vn 0.000000 0.000000 -1.000000
vn 0.000000 0.000000 -1.000000
vn 0.000000 0.000000 -1.000000
vn 0.000000 0.000000 -1.000000
vn 1.000000 0.000000 0.000000
vn 1.000000 0.000000 0.000000
vn 1.000000 0.000000 0.000000
vn 1.000000 0.000000 0.000000
vn 0.000000 0.000000 1.000000
vn 0.000000 0.000000 1.000000
vn 0.000000 0.000000 1.000000
vn 0.000000 0.000000 1.000000
vn -1.000000 0.000000 0.000000
vn -1.000000 0.000000 0.000000
vn -1.000000 0.000000 0.000000
vn -1.000000 0.000000 0.000000
vn 0.000000 0.000000 -1.000000
vn 0.000000 0.000000 -1.000000
vn 0.000000 0.000000 -1.000000
vn 0.000000 0.000000 -1.000000
vn 1.000000 0.000000 0.000000
vn 1.000000 0.000000 0.000000
vn 1.000000 0.000000 0.000000
vn 1.000000 0.000000 0.000000
vn 0.000000 0.000000 1.000000
vn 0.000000 0.000000 1.000000
vn 0.000000 0.000000 1.000000
vn 0.000000 0.000000 1.000000
s off
f 1/24/1 2/2/2 24/64/3 21/56/4
f 13/19/5 14/46/6 15/45/7 16/44/8
f 22/72/9 23/67/10 8/8/11 7/7/12
f 7/7/13 8/8/14 2/10/15 1/9/16
f 2/23/17 8/11/18 23/68/19 24/63/20
f 7/13/21 1/1/22 21/55/23 22/71/24
f 3/3/25 4/41/26 10/40/27 9/39/28
f 4/4/29 6/32/30 11/31/31 10/30/32
f 6/6/33 5/37/34 12/35/35 11/36/36
f 5/5/37 3/34/38 9/27/39 12/28/40
f 9/15/41 10/16/42 14/20/43 13/43/44
f 10/16/45 11/17/46 15/21/47 14/20/48
f 11/17/49 12/18/50 16/22/51 15/21/52
f 12/18/53 9/15/54 13/43/55 16/22/56
f 18/49/57 17/73/58 3/26/59 5/14/60
f 5/29/61 6/38/62 19/51/63 18/50/64
f 20/54/65 19/52/66 6/12/67 4/25/68
f 17/48/69 20/69/70 4/33/71 3/42/72
f 22/57/73 21/65/74 17/47/75 18/77/76
f 18/78/77 19/75/78 23/59/79 22/58/80
f 24/62/81 23/60/82 19/76/83 20/70/84
f 21/66/85 24/61/86 20/53/87 17/74/88
