# This file uses centimeters as units for non-parametric coordinates.

v -98.882813 -21.893753 21.893738
v -86.718750 -21.893753 21.893738
v -98.882813 21.893753 21.893738
v -86.718750 21.893753 21.893738
v -98.882813 21.893753 -21.893768
v -86.718750 21.893753 -21.893768
v -98.882813 -21.893753 -21.893768
v -86.718750 -21.893753 -21.893768
v -98.882813 -12.377783 -12.377792
v -98.882813 -12.377783 12.377792
v -98.882813 12.377785 12.377792
v -98.882813 12.377785 -12.377792
v -111.567383 -12.377783 -12.377792
v -111.567383 -12.377783 12.377792
v -111.567383 12.377785 12.377792
v -111.567383 12.377785 -12.377792
v -120.166504 -3.120129 3.120132
v 120.166504 -3.120129 3.120132
v -120.166504 3.120133 3.120132
v 120.166504 3.120133 3.120132
v -120.166504 3.120133 -3.120132
v 120.166504 3.120133 -3.120132
v -120.166504 -3.120129 -3.120132
v 120.166504 -3.120129 -3.120132
v -86.718750 -31.644409 -31.644409
v -86.718750 -31.644409 31.644409
v -86.718750 31.644413 -31.644409
v -86.718750 31.644413 31.644409
v -72.975098 -31.644409 -31.644409
v -72.975098 -31.644409 31.644409
v -72.975098 31.644413 -31.644409
v -72.975098 31.644413 31.644409
v 98.522461 -21.893753 -21.893768
v 86.357910 -21.893753 -21.893768
v 98.522461 21.893753 -21.893768
v 86.357910 21.893753 -21.893768
v 98.522461 21.893753 21.893738
v 86.357910 21.893753 21.893738
v 98.522461 -21.893753 21.893738
v 86.357910 -21.893753 21.893738
v 98.522461 -12.377783 12.377792
v 98.522461 -12.377783 -12.377792
v 98.522461 12.377785 -12.377792
v 98.522461 12.377785 12.377792
v 111.207520 -12.377783 12.377792
v 111.207520 -12.377783 -12.377792
v 111.207520 12.377785 -12.377792
v 111.207520 12.377785 12.377792
v 86.357910 -31.644409 31.644409
v 86.357910 -31.644409 -31.644409
v 86.357910 31.644413 31.644409
v 86.357910 31.644413 -31.644409
v 72.615234 -31.644409 31.644409
v 72.615234 -31.644409 -31.644409
v 72.615234 31.644413 31.644409
v 72.615234 31.644413 -31.644409
vt 0.171345 0.477572
vt 0.141447 0.477572
vt 0.171345 0.477572
vt 0.171345 0.477572
vt 0.141447 0.477572
vt 0.236575 0.477572
vt 0.141447 0.477572
vt 0.141447 0.477572
vt 0.141447 0.477572
vt 0.141447 0.477572
vt 0.171345 0.477572
vt 0.171345 0.477572
vt 0.171345 0.477572
vt 0.171345 0.477572
vt 0.141447 0.477572
vt 0.141447 0.477572
vt 0.236575 0.477572
vt 0.141447 0.477572
vt 0.171345 0.477572
vt 0.141447 0.477572
vt 0.236575 0.477572
vt 0.141447 0.477572
vt 0.236575 0.477572
vt 0.264925 0.477572
vt 0.264925 0.477572
vt 0.297998 0.477572
vt 0.297998 0.477572
vt 0.264925 0.477572
vt 0.264925 0.477572
vt 0.236575 0.477572
vt 0.236575 0.477572
vt 0.236575 0.477572
vt 0.264925 0.477572
vt 0.264925 0.477572
vt 0.236575 0.477572
vt 0.236575 0.477572
vt 0.141447 0.477572
vt 0.236575 0.477572
vt 0.236575 0.477572
vt 0.171345 0.477572
vt 0.236575 0.477572
vt 0.141447 0.477572
vt 0.236575 0.477572
vt 0.236575 0.477572
vt 0.171345 0.477572
vt 0.141447 0.477572
vt 0.171345 0.477572
vt 0.141447 0.477572
vt 0.171345 0.477572
vt 0.141447 0.477572
vt 0.171345 0.477572
vt 0.141447 0.477572
vt 0.141447 0.477572
vt 0.141447 0.477572
vt 0.171345 0.477572
vt 0.141447 0.477572
vt 0.141447 0.477572
vt 0.141447 0.477572
vt 0.236575 0.477572
vt 0.264925 0.477572
vt 0.264925 0.477572
vt 0.264925 0.477572
vt 0.264925 0.477572
vt 0.297998 0.477572
vt 0.264925 0.477572
vt 0.297998 0.477572
vt 0.264925 0.477572
vt 0.236575 0.477572
vt 0.141447 0.477572
vt 0.171345 0.477572
vt 0.141447 0.477572
vt 0.171345 0.477572
vt 0.171345 0.477572
vt 0.141447 0.477572
vt 0.236575 0.477572
vt 0.141447 0.477572
vt 0.171345 0.477572
vt 0.141447 0.477572
vt 0.236575 0.477572
vt 0.141447 0.477572
vt 0.236575 0.477572
vt 0.141447 0.477572
vt 0.236575 0.477572
vt 0.171345 0.477572
vt 0.141447 0.477572
vt 0.171345 0.477572
vt 0.171345 0.477572
vt 0.171345 0.477572
vt 0.171345 0.477572
vt 0.141447 0.477572
vt 0.141447 0.477572
vt 0.171345 0.477572
vt 0.141447 0.477572
vt 0.141447 0.477572
vt 0.141447 0.477572
vt 0.141447 0.477572
vt 0.236575 0.477572
vt 0.236575 0.477572
vt 0.236575 0.477572
vt 0.236575 0.477572
vt 0.141447 0.477572
vt 0.141447 0.477572
vt 0.141447 0.477572
vt 0.141447 0.477572
vt 0.141447 0.477572
vt 0.141447 0.477572
vt 0.141447 0.477572
vt 0.141447 0.477572
vt 0.171345 0.477572
vt 0.171345 0.477572
vt 0.171345 0.477572
vt 0.171345 0.477572
vt 0.171345 0.477572
vt 0.171345 0.477572
vt 0.171345 0.477572
vt 0.171345 0.477572
vt 0.171345 0.477572
vt 0.171345 0.477572
vt 0.171345 0.477572
vt 0.171345 0.477572
vt 0.171345 0.477572
vt 0.171345 0.477572
vt 0.171345 0.477572
vt 0.171345 0.477572
vt 0.141447 0.477572
vt 0.141447 0.477572
vt 0.141447 0.477572
vt 0.141447 0.477572
vt 0.141447 0.477572
vt 0.141447 0.477572
vt 0.141447 0.477572
vt 0.141447 0.477572
vt 0.236575 0.477572
vt 0.236575 0.477572
vt 0.236575 0.477572
vt 0.236575 0.477572
vt 0.141447 0.477572
vt 0.141447 0.477572
vt 0.141447 0.477572
vt 0.141447 0.477572
vt 0.171345 0.477572
vt 0.171345 0.477572
vt 0.171345 0.477572
vt 0.171345 0.477572
vt 0.171345 0.477572
vt 0.171345 0.477572
vt 0.171345 0.477572
vt 0.171345 0.477572
vt 0.141447 0.477572
vt 0.141447 0.477572
vt 0.141447 0.477572
vt 0.141447 0.477572
vt 0.236575 0.477572
vt 0.236575 0.477572
vt 0.236575 0.477572
vt 0.236575 0.477572
vt 0.141447 0.477572
vt 0.141447 0.477572
vt 0.141447 0.477572
vt 0.141447 0.477572
vn 0.000000 0.000000 1.000000
vn 0.000000 0.000000 1.000000
vn 0.000000 0.000000 1.000000
vn 0.000000 0.000000 1.000000
vn 0.000000 1.000000 0.000000
vn 0.000000 1.000000 0.000000
vn 0.000000 1.000000 0.000000
vn 0.000000 1.000000 0.000000
vn 0.000000 0.000000 -1.000000
vn 0.000000 0.000000 -1.000000
vn 0.000000 0.000000 -1.000000
vn 0.000000 0.000000 -1.000000
vn 0.000000 -1.000000 0.000000
vn 0.000000 -1.000000 0.000000
vn 0.000000 -1.000000 0.000000
vn 0.000000 -1.000000 0.000000
vn 1.000000 0.000000 0.000000
vn 1.000000 0.000000 0.000000
vn 1.000000 0.000000 0.000000
vn 1.000000 0.000000 0.000000
vn -1.000000 0.000000 0.000000
vn -1.000000 0.000000 0.000000
vn -1.000000 0.000000 0.000000
vn -1.000000 0.000000 0.000000
vn -1.000000 -0.000001 0.000000
vn -1.000000 -0.000001 0.000000
vn -1.000000 -0.000001 0.000000
vn -1.000000 -0.000001 0.000000
vn -1.000000 0.000000 0.000000
vn -1.000000 0.000000 0.000000
vn -1.000000 0.000000 0.000000
vn -1.000000 0.000000 0.000000
vn -1.000000 0.000001 0.000000
vn -1.000000 0.000001 0.000000
vn -1.000000 0.000001 0.000000
vn -1.000000 0.000001 0.000000
vn -1.000000 0.000000 0.000000
vn -1.000000 0.000000 0.000000
vn -1.000000 0.000000 0.000000
vn -1.000000 0.000000 0.000000
vn 0.000000 -1.000000 0.000000
vn 0.000000 -1.000000 0.000000
vn 0.000000 -1.000000 0.000000
vn 0.000000 -1.000000 0.000000
vn 0.000000 0.000000 1.000000
vn 0.000000 0.000000 1.000000
vn 0.000000 0.000000 1.000000
vn 0.000000 0.000000 1.000000
vn 0.000000 1.000000 0.000000
vn 0.000000 1.000000 0.000000
vn 0.000000 1.000000 0.000000
vn 0.000000 1.000000 0.000000
vn 0.000000 0.000000 -1.000000
vn 0.000000 0.000000 -1.000000
vn 0.000000 0.000000 -1.000000
vn 0.000000 0.000000 -1.000000
vn 0.000000 0.000000 1.000000
vn 0.000000 0.000000 1.000000
vn 0.000000 0.000000 1.000000
vn 0.000000 0.000000 1.000000
vn 0.000000 1.000000 0.000000
vn 0.000000 1.000000 0.000000
vn 0.000000 1.000000 0.000000
vn 0.000000 1.000000 0.000000
vn 0.000000 0.000000 -1.000000
vn 0.000000 0.000000 -1.000000
vn 0.000000 0.000000 -1.000000
vn 0.000000 0.000000 -1.000000
vn 0.000000 -1.000000 0.000000
vn 0.000000 -1.000000 0.000000
vn 0.000000 -1.000000 0.000000
vn 0.000000 -1.000000 0.000000
vn 1.000000 0.000000 0.000000
vn 1.000000 0.000000 0.000000
vn 1.000000 0.000000 0.000000
vn 1.000000 0.000000 0.000000
vn -1.000000 0.000000 0.000000
vn -1.000000 0.000000 0.000000
vn -1.000000 0.000000 0.000000
vn -1.000000 0.000000 0.000000
vn -1.000000 -0.000000 0.000000
vn -1.000000 -0.000000 0.000000
vn -1.000000 -0.000000 0.000000
vn -1.000000 -0.000000 0.000000
vn -1.000000 0.000000 0.000000
vn -1.000000 0.000000 0.000000
vn -1.000000 0.000000 0.000000
vn -1.000000 0.000000 0.000000
vn -1.000000 -0.000000 0.000000
vn -1.000000 -0.000000 0.000000
vn -1.000000 -0.000000 0.000000
vn -1.000000 -0.000000 0.000000
vn -1.000000 0.000000 0.000000
vn -1.000000 0.000000 0.000000
vn -1.000000 0.000000 0.000000
vn -1.000000 0.000000 0.000000
vn 0.000000 -1.000000 0.000000
vn 0.000000 -1.000000 0.000000
vn 0.000000 -1.000000 0.000000
vn 0.000000 -1.000000 0.000000
vn 0.000000 0.000000 -1.000000
vn 0.000000 0.000000 -1.000000
vn 0.000000 0.000000 -1.000000
vn 0.000000 0.000000 -1.000000
vn 0.000000 1.000000 0.000000
vn 0.000000 1.000000 0.000000
vn 0.000000 1.000000 0.000000
vn 0.000000 1.000000 0.000000
vn 0.000000 0.000000 1.000000
vn 0.000000 0.000000 1.000000
vn 0.000000 0.000000 1.000000
vn 0.000000 0.000000 1.000000
vn 0.000000 0.000000 -1.000000
vn 0.000000 0.000000 -1.000000
vn 0.000000 0.000000 -1.000000
vn 0.000000 0.000000 -1.000000
vn 0.000000 1.000000 0.000000
vn 0.000000 1.000000 0.000000
vn 0.000000 1.000000 0.000000
vn 0.000000 1.000000 0.000000
vn 0.000000 0.000000 1.000000
vn 0.000000 0.000000 1.000000
vn 0.000000 0.000000 1.000000
vn 0.000000 0.000000 1.000000
vn 0.000000 -1.000000 0.000000
vn 0.000000 -1.000000 0.000000
vn 0.000000 -1.000000 0.000000
vn 0.000000 -1.000000 0.000000
vn -1.000000 0.000000 0.000000
vn -1.000000 0.000000 0.000000
vn -1.000000 0.000000 0.000000
vn -1.000000 0.000000 0.000000
vn 1.000000 0.000000 0.000000
vn 1.000000 0.000000 0.000000
vn 1.000000 0.000000 0.000000
vn 1.000000 0.000000 0.000000
vn 1.000000 -0.000001 0.000000
vn 1.000000 -0.000001 0.000000
vn 1.000000 -0.000001 0.000000
vn 1.000000 -0.000001 0.000000
vn 1.000000 0.000000 0.000000
vn 1.000000 0.000000 0.000000
vn 1.000000 0.000000 0.000000
vn 1.000000 0.000000 0.000000
vn 1.000000 0.000001 0.000000
vn 1.000000 0.000001 0.000000
vn 1.000000 0.000001 0.000000
vn 1.000000 0.000001 0.000000
vn 1.000000 0.000000 0.000000
vn 1.000000 0.000000 0.000000
vn 1.000000 0.000000 0.000000
vn 1.000000 0.000000 0.000000
vn 0.000000 -1.000000 0.000000
vn 0.000000 -1.000000 0.000000
vn 0.000000 -1.000000 0.000000
vn 0.000000 -1.000000 0.000000
vn 0.000000 0.000000 -1.000000
vn 0.000000 0.000000 -1.000000
vn 0.000000 0.000000 -1.000000
vn 0.000000 0.000000 -1.000000
vn 0.000000 1.000000 0.000000
vn 0.000000 1.000000 0.000000
vn 0.000000 1.000000 0.000000
vn 0.000000 1.000000 0.000000
vn 0.000000 0.000000 1.000000
vn 0.000000 0.000000 1.000000
vn 0.000000 0.000000 1.000000
vn 0.000000 0.000000 1.000000
vn 1.000000 -0.000000 0.000000
vn 1.000000 -0.000000 0.000000
vn 1.000000 -0.000000 0.000000
vn 1.000000 -0.000000 0.000000
vn 1.000000 0.000000 0.000000
vn 1.000000 0.000000 0.000000
vn 1.000000 0.000000 0.000000
vn 1.000000 0.000000 0.000000
vn 1.000000 -0.000000 0.000000
vn 1.000000 -0.000000 0.000000
vn 1.000000 -0.000000 0.000000
vn 1.000000 -0.000000 0.000000
vn 1.000000 0.000000 0.000000
vn 1.000000 0.000000 0.000000
vn 1.000000 0.000000 0.000000
vn 1.000000 0.000000 0.000000
vn 0.000000 -1.000000 0.000000
vn 0.000000 -1.000000 0.000000
vn 0.000000 -1.000000 0.000000
vn 0.000000 -1.000000 0.000000
vn 0.000000 0.000000 1.000000
vn 0.000000 0.000000 1.000000
vn 0.000000 0.000000 1.000000
vn 0.000000 0.000000 1.000000
vn 0.000000 1.000000 0.000000
vn 0.000000 1.000000 0.000000
vn 0.000000 1.000000 0.000000
vn 0.000000 1.000000 0.000000
vn 0.000000 0.000000 -1.000000
vn 0.000000 0.000000 -1.000000
vn 0.000000 0.000000 -1.000000
vn 0.000000 0.000000 -1.000000
s off
f 1/57/1 2/2/2 4/56/3 3/58/4
f 3/43/5 4/41/6 6/6/7 5/44/8
f 5/5/9 6/42/10 8/8/11 7/54/12
f 7/7/13 8/53/14 2/10/15 1/9/16
f 30/77/17 29/89/18 31/88/19 32/86/20
f 13/19/21 14/70/22 15/49/23 16/45/24
f 7/13/25 1/1/26 10/51/27 9/72/28
f 1/1/29 3/3/30 11/40/31 10/51/32
f 3/3/33 5/14/34 12/47/35 11/40/36
f 5/14/37 7/13/38 9/72/39 12/47/40
f 9/15/41 10/71/42 14/48/43 13/69/44
f 10/16/45 11/50/46 15/37/47 14/20/48
f 11/17/49 12/39/50 16/38/51 15/21/52
f 12/18/53 9/52/54 13/46/55 16/22/56
f 17/62/57 18/24/58 20/65/59 19/67/60
f 19/26/61 20/66/62 22/27/63 21/64/64
f 21/28/65 22/63/66 24/29/67 23/61/68
f 23/30/69 24/59/70 18/31/71 17/32/72
f 18/60/73 24/33/74 22/34/75 20/25/76
f 23/35/77 17/23/78 19/68/79 21/36/80
f 2/55/81 8/11/82 25/92/83 26/73/84
f 8/11/85 6/12/86 27/84/87 25/92/88
f 6/12/89 4/4/90 28/87/91 27/84/92
f 4/4/93 2/55/94 26/73/95 28/87/96
f 26/73/97 25/92/98 29/89/99 30/77/100
f 25/74/101 27/90/102 31/82/103 29/78/104
f 27/75/105 28/83/106 32/81/107 31/79/108
f 28/76/109 26/91/110 30/85/111 32/80/112
f 33/93/113 34/94/114 36/95/115 35/96/116
f 35/97/117 36/98/118 38/99/119 37/100/120
f 37/101/121 38/102/122 40/103/123 39/104/124
f 39/105/125 40/106/126 34/107/127 33/108/128
f 54/109/129 53/110/130 55/111/131 56/112/132
f 45/113/133 46/114/134 47/115/135 48/116/136
f 39/117/137 33/118/138 42/119/139 41/120/140
f 33/118/141 35/121/142 43/122/143 42/119/144
f 35/121/145 37/123/146 44/124/147 43/122/148
f 37/123/149 39/117/150 41/120/151 44/124/152
f 41/125/153 42/126/154 46/127/155 45/128/156
f 42/129/157 43/130/158 47/131/159 46/132/160
f 43/133/161 44/134/162 48/135/163 47/136/164
f 44/137/165 41/138/166 45/139/167 48/140/168
f 34/141/169 40/142/170 49/143/171 50/144/172
f 40/142/173 38/145/174 51/146/175 49/143/176
f 38/145/177 36/147/178 52/148/179 51/146/180
f 36/147/181 34/141/182 50/144/183 52/148/184
f 50/144/185 49/143/186 53/110/187 54/109/188
f 49/149/189 51/150/190 55/151/191 53/152/192
f 51/153/193 52/154/194 56/155/195 55/156/196
f 52/157/197 50/158/198 54/159/199 56/160/200
