# This file uses centimeters as units for non-parametric coordinates.

v -20.321716 -3.884301 -51.133728
v -20.321716 3.884301 -51.133728
v -19.226257 3.221156 51.133732
v -19.226257 -3.221156 51.133732
v -8.733643 3.884301 -51.133728
v -8.733643 -3.884301 -51.133728
v -8.733643 -3.884301 -9.973244
v -8.733643 3.884301 -9.973244
v -19.269348 -3.221156 -9.973236
v -19.268555 3.221156 -9.973244
v -9.813538 -3.221156 -9.973244
v -9.813538 3.221156 -9.973244
v -20.298462 3.884300 -9.973236
v -20.298767 -3.884300 -9.973213
v 15.431274 -3.221156 -9.973244
v 15.431274 -3.221156 51.133732
v 15.431274 3.221156 -9.973244
v 15.431213 3.221156 51.133732
v 20.321716 -0.788659 -9.973244
v 20.321716 -0.788660 51.133732
v 20.321716 0.788660 -9.973244
v 20.321655 0.788660 51.133732
v -14.650269 -3.221156 47.352890
v -14.650269 -3.221156 40.058300
v -7.328369 -3.221156 40.058300
v -7.328369 -3.221156 47.352890
v -14.650269 3.221156 47.352890
v -7.328369 3.221156 47.352890
v -7.328369 3.221156 40.058300
v -14.650269 3.221156 40.058300
vt 0.328519 0.477572
vt 0.328519 0.477572
vt 0.328519 0.477572
vt 0.328519 0.477572
vt 0.328519 0.477572
vt 0.359377 0.476397
vt 0.359377 0.477572
vt 0.328519 0.398205
vt 0.328519 0.398205
vt 0.328519 0.398205
vt 0.328519 0.398205
vt 0.328519 0.398205
vt 0.328519 0.398205
vt 0.328519 0.398205
vt 0.328519 0.398205
vt 0.297998 0.398205
vt 0.297998 0.398205
vt 0.297998 0.398205
vt 0.297998 0.398205
vt 0.297998 0.398205
vt 0.297998 0.398205
vt 0.297998 0.398205
vt 0.297998 0.398205
vt 0.264925 0.398205
vt 0.264925 0.398205
vt 0.264925 0.398205
vt 0.264925 0.398205
vt 0.264925 0.398205
vt 0.264925 0.398205
vt 0.264925 0.398205
vt 0.264925 0.398205
vt 0.236575 0.398205
vt 0.236575 0.398205
vt 0.236575 0.398205
vt 0.236575 0.398205
vt 0.328519 0.477572
vt 0.359377 0.476397
vt 0.359377 0.477572
vt 0.359377 0.477572
vt 0.359377 0.476343
vt 0.359377 0.476343
vt 0.359377 0.477572
vt 0.359377 0.477572
vt 0.359377 0.476343
vt 0.359377 0.476343
vt 0.359377 0.477572
vt 0.389670 0.477572
vt 0.389670 0.477572
vt 0.389670 0.477572
vt 0.389670 0.477572
vt 0.389670 0.477572
vt 0.389670 0.477572
vt 0.328519 0.477572
vt 0.328519 0.477572
vt 0.328519 0.477572
vt 0.328519 0.477572
vt 0.328519 0.477572
vt 0.297998 0.477572
vt 0.297998 0.477572
vt 0.297998 0.477572
vt 0.297998 0.477572
vt 0.297998 0.477572
vt 0.297998 0.477572
vt 0.328519 0.477572
vt 0.328519 0.477572
vt 0.328519 0.477572
vt 0.328519 0.477572
vt 0.328519 0.477572
vt 0.328519 0.477572
vt 0.328519 0.477572
vt 0.328519 0.477572
vt 0.015798 0.477572
vt 0.015798 0.477572
vt 0.015798 0.477572
vt 0.015798 0.477572
vt 0.015798 0.477572
vt 0.015798 0.477572
vt 0.015798 0.477572
vt 0.015798 0.477572
vn 1.000000 0.000000 0.000000
vn 1.000000 0.000000 0.000000
vn 1.000000 0.000000 0.000000
vn 1.000000 0.000000 0.000000
vn 0.000002 0.000017 1.000000
vn 0.000002 0.000017 1.000000
vn 0.000002 0.000017 1.000000
vn 0.000002 0.000017 1.000000
vn 0.000015 0.000002 1.000000
vn 0.000015 0.000002 1.000000
vn 0.000015 0.000002 1.000000
vn 0.000015 0.000002 1.000000
vn 0.000000 1.000000 0.000000
vn 0.000000 1.000000 0.000000
vn 0.000000 1.000000 0.000000
vn 0.000000 0.000000 1.000000
vn 0.000000 0.000000 1.000000
vn 0.000000 0.000000 1.000000
vn 0.000000 0.000000 1.000000
vn 0.000000 -1.000000 -0.000000
vn 0.000000 -1.000000 -0.000000
vn 0.000000 -1.000000 -0.000000
vn 0.000000 -1.000000 -0.000000
vn -1.000000 0.000061 0.000699
vn -1.000000 0.000061 0.000699
vn -1.000000 0.000061 0.000699
vn -1.000000 0.000061 0.000699
vn 1.000000 0.000019 0.000000
vn 1.000000 0.000019 0.000000
vn 1.000000 0.000019 0.000000
vn 1.000000 0.000019 0.000000
vn 0.000000 -0.000006 1.000000
vn 0.000000 -0.000006 1.000000
vn 0.000000 -0.000006 1.000000
vn 0.000000 -0.000006 1.000000
vn -1.000000 0.000019 0.000561
vn -1.000000 0.000019 0.000561
vn -1.000000 0.000019 0.000561
vn -1.000000 0.000019 0.000561
vn 0.000000 0.000000 -1.000000
vn 0.000000 0.000000 -1.000000
vn 0.000000 0.000000 -1.000000
vn 0.000000 0.000000 -1.000000
vn -0.000000 -1.000000 0.000000
vn -0.000000 -1.000000 0.000000
vn -0.000000 -1.000000 0.000000
vn -0.000000 -1.000000 0.000000
vn -0.000000 1.000000 0.000000
vn -0.000000 1.000000 0.000000
vn -0.000000 1.000000 0.000000
vn -0.000000 1.000000 0.000000
vn 0.000000 0.000000 -1.000000
vn 0.000000 0.000000 -1.000000
vn 0.000000 0.000000 -1.000000
vn 0.000000 0.000000 -1.000000
vn 0.000000 1.000000 0.000000
vn 0.000000 1.000000 0.000000
vn 0.000000 1.000000 0.000000
vn 0.000000 1.000000 0.000000
vn 0.000000 0.000000 1.000000
vn 0.000000 0.000000 1.000000
vn 0.000000 0.000000 1.000000
vn 0.000000 0.000000 1.000000
vn 0.445349 -0.895357 -0.000000
vn 0.445349 -0.895357 -0.000000
vn 0.445349 -0.895357 -0.000000
vn 0.445349 -0.895357 -0.000000
vn 0.000000 0.000000 -1.000000
vn 0.000000 0.000000 -1.000000
vn 0.000000 0.000000 -1.000000
vn 0.000000 0.000000 -1.000000
vn 0.445349 0.895357 0.000000
vn 0.445349 0.895357 0.000000
vn 0.445349 0.895357 0.000000
vn 0.445349 0.895357 0.000000
vn -0.000000 0.000000 1.000000
vn -0.000000 0.000000 1.000000
vn -0.000000 0.000000 1.000000
vn -0.000000 0.000000 1.000000
vn 0.000000 -1.000000 0.000000
vn 0.000000 -1.000000 0.000000
vn 0.000000 -1.000000 0.000000
vn 0.000000 -1.000000 0.000000
vn 0.000000 -1.000000 0.000000
vn 0.000000 -1.000000 0.000000
vn 0.000000 -1.000000 0.000000
vn 0.000000 -1.000000 -0.000000
vn 0.000000 -1.000000 -0.000000
vn 0.000000 -1.000000 -0.000000
vn 0.000000 -1.000000 -0.000000
vn -0.000000 -1.000000 0.000000
vn -0.000000 -1.000000 0.000000
vn -0.000000 -1.000000 0.000000
vn -0.000000 -1.000000 0.000000
vn 0.000000 -1.000000 0.000000
vn 0.000000 -1.000000 0.000000
vn 0.000000 -1.000000 0.000000
vn 0.000000 -1.000000 0.000000
vn 0.000000 1.000000 0.000000
vn 0.000000 1.000000 0.000000
vn 0.000000 1.000000 0.000000
vn 0.000000 1.000000 0.000000
vn 0.000000 1.000000 -0.000000
vn 0.000000 1.000000 -0.000000
vn 0.000000 1.000000 -0.000000
vn 0.000000 1.000000 -0.000000
vn 0.000000 1.000000 0.000000
vn 0.000000 1.000000 0.000000
vn 0.000000 1.000000 0.000000
vn 0.000000 1.000000 0.000000
vn 0.000000 1.000000 0.000000
vn 0.000000 1.000000 0.000000
vn 0.000000 1.000000 0.000000
vn 0.000000 1.000000 0.000000
s off
f 6/24/1 5/25/2 8/26/3 7/27/4
f 7/8/5 11/9/6 9/10/7 14/11/8
f 10/14/9 13/15/10 14/11/11 9/10/12
f 12/36/13 10/1/14 3/2/15
f 12/12/16 11/9/17 7/8/18 8/13/19
f 23/72/20 24/73/21 25/74/22 26/75/23
f 10/37/24 9/6/25 4/7/26 3/38/27
f 20/43/28 19/44/29 21/45/30 22/46/31
f 13/15/32 10/14/33 12/12/34 8/13/35
f 14/28/36 13/29/37 2/30/38 1/31/39
f 1/33/40 2/34/41 5/35/42 6/32/43
f 6/16/44 7/17/45 14/18/46 1/19/47
f 2/20/48 13/21/49 8/22/50 5/23/51
f 11/58/52 12/59/53 17/60/54 15/61/55
f 27/76/56 28/77/57 29/78/58 30/79/59
f 4/48/60 16/49/61 18/50/62 3/47/63
f 16/39/64 15/40/65 19/44/66 20/43/67
f 15/61/68 17/60/69 21/62/70 19/63/71
f 17/41/72 18/42/73 22/46/74 21/45/75
f 18/50/76 16/49/77 20/51/78 22/52/79
f 9/3/80 11/4/81 4/5/82
f 4/5/83 11/53/84 24/65/85 23/64/86
f 11/53/87 15/54/88 25/66/89 24/65/90
f 15/54/91 16/55/92 26/67/93 25/66/94
f 16/55/95 4/5/96 23/64/97 26/67/98
f 3/2/99 18/56/100 28/69/101 27/68/102
f 18/56/103 17/57/104 29/70/105 28/69/106
f 17/57/107 12/36/108 30/71/109 29/70/110
f 12/36/111 3/2/112 27/68/113 30/71/114
