# This file uses centimeters as units for non-parametric coordinates.

v 19.123932 -25.771618 11.785545
v 19.123932 -9.797592 11.785545
v 19.123932 -9.797592 -11.785550
v 19.123932 -25.771618 -11.785550
v 19.123932 -36.948589 56.211243
v 16.703735 -36.948589 56.211243
v 19.123932 2.208748 56.211243
v 16.703735 2.208748 56.211243
v 19.123932 2.208748 16.908674
v 16.703735 2.208748 16.908676
v 19.123932 -36.948589 16.908676
v 16.703735 -36.948589 16.908676
v -7.326935 22.354248 22.845602
v 6.485291 22.354248 22.845602
v -7.326935 43.516449 22.845602
v 6.485291 43.516449 22.845602
v -7.326935 43.516449 -22.845602
v 6.485291 43.516449 -22.845602
v -7.326935 22.354248 -22.845602
v 6.485291 22.354248 -22.845602
v -7.326935 22.354248 -11.422801
v 6.485291 22.354248 -11.422801
v -7.326935 22.354248 11.422800
v 6.485291 22.354248 11.422800
v 6.485291 32.935356 -11.422801
v -7.326935 32.935356 -11.422801
v -7.326935 32.935356 11.422800
v 6.485291 32.935356 11.422800
v -19.123962 -43.516449 59.957954
v 19.123932 -43.516449 59.957951
v -19.123962 22.354248 59.957954
v 19.123932 22.354248 59.957954
v -19.123962 22.354248 -59.957954
v 19.123932 22.354248 -59.957954
v -19.123962 -43.516449 -59.957954
v 19.123932 -43.516449 -59.957954
v 19.123932 -36.948589 -16.908674
v 16.703735 -36.948589 -16.908674
v 19.123932 2.208748 -16.908674
v 16.703735 2.208748 -16.908674
v 19.123932 2.208748 -56.211243
v 16.703735 2.208748 -56.211243
v 19.123932 -36.948589 -56.211243
v 16.703735 -36.948589 -56.211243
v -19.123962 -39.527561 14.798899
v -19.123962 -20.338173 14.798899
v -19.123962 -20.338173 -14.798901
v -19.123962 -39.527561 -14.798901
v 16.703735 -21.285652 40.490219
v 16.703735 -13.454182 40.490219
v 16.703735 -21.285652 32.629707
v 16.703735 -13.454182 32.629707
v 16.703735 -21.285652 -32.629707
v 16.703735 -13.454182 -32.629707
v 16.703735 -21.285652 -40.490215
v 16.703735 -13.454182 -40.490215
v 19.123932 18.842400 55.078259
v 19.123932 18.842400 -55.078259
v 19.123932 5.720589 55.078259
v 19.123932 5.720589 -55.078259
v 17.999054 -17.369919 -36.559959
v 17.999054 -17.369919 36.559963
vt 0.171345 0.477572
vt 0.171345 0.477572
vt 0.171345 0.477572
vt 0.171345 0.477572
vt 0.015798 0.477572
vt 0.015798 0.477572
vt 0.015798 0.477572
vt 0.015798 0.477572
vt 0.015798 0.477572
vt 0.015798 0.477572
vt 0.015798 0.477572
vt 0.015798 0.477572
vt 0.171345 0.477572
vt 0.171345 0.477572
vt 0.171345 0.477572
vt 0.171345 0.477572
vt 0.570394 0.501435
vt 0.570394 0.545576
vt 0.502146 0.545577
vt 0.502147 0.501434
vt 0.109982 0.477572
vt 0.109982 0.477572
vt 0.109982 0.477572
vt 0.109982 0.477572
vt 0.109982 0.477572
vt 0.109982 0.477572
vt 0.109982 0.477572
vt 0.109982 0.477572
vt 0.109982 0.477572
vt 0.109982 0.477572
vt 0.109982 0.477572
vt 0.109982 0.477572
vt 0.109982 0.477572
vt 0.109982 0.477572
vt 0.109982 0.477572
vt 0.109982 0.477572
vt 0.077308 0.477572
vt 0.077308 0.477572
vt 0.077308 0.477572
vt 0.077308 0.477572
vt 0.141447 0.477572
vt 0.141447 0.477572
vt 0.141447 0.477572
vt 0.141447 0.477572
vt 0.109982 0.477572
vt 0.109982 0.477572
vt 0.109982 0.477572
vt 0.109982 0.477572
vt 0.109982 0.477572
vt 0.109982 0.477572
vt 0.109982 0.477572
vt 0.109982 0.477572
vt 0.109982 0.477572
vt 0.109982 0.477572
vt 0.109982 0.477572
vt 0.109982 0.477572
vt 0.109982 0.477572
vt 0.109982 0.477572
vt 0.109982 0.477572
vt 0.109982 0.477572
vt 0.109982 0.477572
vt 0.109982 0.477572
vt 0.109982 0.477572
vt 0.109982 0.477572
vt 0.109982 0.477572
vt 0.109982 0.477572
vt 0.109982 0.477572
vt 0.109982 0.477572
vt 0.109982 0.477572
vt 0.109982 0.477572
vt 0.109982 0.477572
vt 0.109982 0.477572
vt 0.109982 0.477572
vt 0.109982 0.477572
vt 0.109982 0.477572
vt 0.109982 0.477572
vt 0.171345 0.477572
vt 0.171345 0.477572
vt 0.171345 0.477572
vt 0.171345 0.477572
vt 0.171345 0.477572
vt 0.171345 0.477572
vt 0.171345 0.477572
vt 0.171345 0.477572
vt 0.171345 0.477572
vt 0.171345 0.477572
vt 0.171345 0.477572
vt 0.171345 0.477572
vt 0.171345 0.477572
vt 0.171345 0.477572
vt 0.171345 0.477572
vt 0.171345 0.477572
vt 0.171345 0.477572
vt 0.171345 0.477572
vt 0.171345 0.477572
vt 0.171345 0.477572
vt 0.171345 0.477572
vt 0.171345 0.477572
vt 0.171345 0.477572
vt 0.171345 0.477572
vt 0.171345 0.477572
vt 0.171345 0.477572
vt 0.171345 0.477572
vt 0.171345 0.477572
vt 0.171345 0.477572
vt 0.171345 0.477572
vt 0.171345 0.477572
vt 0.171345 0.477572
vt 0.171345 0.477572
vt 0.171345 0.477572
vt 0.171345 0.477572
vt 0.171345 0.477572
vt 0.599833 0.516495
vt 0.599833 0.527090
vt 0.574597 0.527090
vt 0.574597 0.527090
vt 0.599833 0.516495
vt 0.574597 0.516495
vt 0.574597 0.527090
vt 0.599833 0.516495
vt 0.141447 0.477572
vt 0.141447 0.477572
vt 0.141447 0.477572
vt 0.141447 0.477572
vt 0.141447 0.477572
vt 0.141447 0.477572
vt 0.141447 0.477572
vt 0.141447 0.477572
vt 0.141447 0.477572
vt 0.141447 0.477572
vt 0.141447 0.477572
vt 0.141447 0.477572
vt 0.141447 0.477572
vt 0.141447 0.477572
vt 0.141447 0.477572
vt 0.141447 0.477572
vt 0.202875 0.477572
vt 0.202875 0.477572
vt 0.202875 0.477572
vt 0.202875 0.477572
vt 0.202875 0.477572
vt 0.202875 0.477572
vt 0.202875 0.477572
vt 0.202875 0.477572
vt 0.171345 0.477572
vt 0.171345 0.477572
vt 0.171345 0.477572
vt 0.171345 0.477572
vt 0.264925 0.477572
vt 0.264925 0.477572
vt 0.264925 0.477572
vt 0.264925 0.477572
vt 0.574597 0.516495
vt 0.599833 0.527090
vt 0.574597 0.516495
vt 0.599833 0.516495
vt 0.599833 0.527090
vt 0.574597 0.527090
vt 0.599833 0.527090
vt 0.574597 0.516495
vt 0.171345 0.477572
vt 0.171345 0.477572
vn 1.000000 0.000000 0.000000
vn 1.000000 0.000000 0.000000
vn 1.000000 0.000000 0.000000
vn 1.000000 0.000000 0.000000
vn 0.000000 0.000000 -1.000000
vn 0.000000 0.000000 -1.000000
vn 0.000000 0.000000 -1.000000
vn 0.000000 0.000000 -1.000000
vn 0.000000 -1.000000 0.000000
vn 0.000000 -1.000000 0.000000
vn 0.000000 -1.000000 0.000000
vn 0.000000 -1.000000 0.000000
vn 0.000000 0.000000 1.000000
vn 0.000000 0.000000 1.000000
vn 0.000000 0.000000 1.000000
vn 0.000000 0.000000 1.000000
vn 0.949403 0.314060 0.000000
vn 0.949403 0.314060 0.000000
vn 0.949403 0.314060 0.000000
vn 0.000000 1.000000 0.000000
vn 0.000000 1.000000 0.000000
vn 0.000000 1.000000 0.000000
vn 0.000000 1.000000 0.000000
vn 0.000000 0.000000 1.000000
vn 0.000000 0.000000 1.000000
vn 0.000000 0.000000 1.000000
vn 0.000000 0.000000 1.000000
vn 0.000000 1.000000 0.000000
vn 0.000000 1.000000 0.000000
vn 0.000000 1.000000 0.000000
vn 0.000000 1.000000 0.000000
vn 0.000000 0.000000 -1.000000
vn 0.000000 0.000000 -1.000000
vn 0.000000 0.000000 -1.000000
vn 0.000000 0.000000 -1.000000
vn 1.000000 -0.000000 0.000000
vn 1.000000 -0.000000 0.000000
vn 1.000000 -0.000000 0.000000
vn 1.000000 -0.000000 0.000000
vn -1.000000 0.000000 0.000000
vn -1.000000 0.000000 0.000000
vn -1.000000 0.000000 0.000000
vn -1.000000 0.000000 0.000000
vn 1.000000 0.000000 0.000000
vn 1.000000 0.000000 0.000000
vn 1.000000 0.000000 0.000000
vn 1.000000 0.000000 0.000000
vn -1.000000 0.000000 0.000000
vn -1.000000 0.000000 0.000000
vn -1.000000 0.000000 0.000000
vn -1.000000 0.000000 0.000000
vn 1.000000 0.000000 0.000000
vn 1.000000 0.000000 0.000000
vn 1.000000 0.000000 0.000000
vn 1.000000 0.000000 0.000000
vn 1.000000 0.000000 0.000000
vn 1.000000 0.000000 0.000000
vn 1.000000 0.000000 0.000000
vn 1.000000 0.000000 0.000000
vn -1.000000 0.000000 0.000000
vn -1.000000 0.000000 0.000000
vn -1.000000 0.000000 0.000000
vn -1.000000 0.000000 0.000000
vn -1.000000 0.000000 0.000000
vn -1.000000 0.000000 0.000000
vn -1.000000 0.000000 0.000000
vn -1.000000 0.000000 0.000000
vn 0.000000 -0.000000 1.000000
vn 0.000000 -0.000000 1.000000
vn 0.000000 -0.000000 1.000000
vn 0.000000 -0.000000 1.000000
vn 0.000000 1.000000 0.000000
vn 0.000000 1.000000 0.000000
vn 0.000000 1.000000 0.000000
vn 0.000000 1.000000 0.000000
vn 0.000000 0.000000 -1.000000
vn 0.000000 0.000000 -1.000000
vn 0.000000 0.000000 -1.000000
vn 0.000000 0.000000 -1.000000
vn 0.000000 -1.000000 0.000000
vn 0.000000 -1.000000 0.000000
vn 0.000000 -1.000000 0.000000
vn 0.000000 -1.000000 0.000000
vn -1.000000 0.000000 0.000000
vn -1.000000 0.000000 0.000000
vn -1.000000 0.000000 0.000000
vn -1.000000 0.000000 0.000000
vn 0.000000 0.000000 -1.000000
vn 0.000000 0.000000 -1.000000
vn 0.000000 0.000000 -1.000000
vn 0.000000 0.000000 -1.000000
vn 0.000000 -1.000000 0.000000
vn 0.000000 -1.000000 0.000000
vn 0.000000 -1.000000 0.000000
vn 0.000000 -1.000000 0.000000
vn 0.000000 0.000000 1.000000
vn 0.000000 0.000000 1.000000
vn 0.000000 0.000000 1.000000
vn 0.000000 0.000000 1.000000
vn 0.949403 0.314061 0.000000
vn 0.949403 0.314061 0.000000
vn 0.949403 0.314061 0.000000
vn 1.000000 0.000000 0.000000
vn 1.000000 0.000000 0.000000
vn 1.000000 0.000000 0.000000
vn 1.000000 0.000000 0.000000
vn 1.000000 0.000000 0.000000
vn 1.000000 0.000000 0.000000
vn 1.000000 0.000000 0.000000
vn 1.000000 0.000000 0.000000
vn 0.000000 1.000000 0.000000
vn 0.000000 1.000000 0.000000
vn 0.000000 1.000000 0.000000
vn 0.000000 1.000000 0.000000
vn 1.000000 -0.000000 0.000000
vn 1.000000 -0.000000 0.000000
vn 1.000000 -0.000000 0.000000
vn 1.000000 -0.000000 0.000000
vn 1.000000 -0.000000 0.000000
vn 1.000000 -0.000000 0.000000
vn 1.000000 0.000000 0.000000
vn 1.000000 0.000000 0.000000
vn 1.000000 0.000000 0.000000
vn 1.000000 0.000000 0.000000
vn 1.000000 0.000000 0.000000
vn 1.000000 0.000000 0.000000
vn 1.000000 0.000000 0.000000
vn 1.000000 0.000000 0.000000
vn 1.000000 0.000000 0.000000
vn 1.000000 0.000000 0.000000
vn 1.000000 0.000000 0.000000
vn 1.000000 0.000000 0.000000
vn 1.000000 0.000000 0.000000
vn 1.000000 0.000000 0.000000
vn 1.000000 0.000000 0.000000
vn 1.000000 0.000000 0.000000
vn 1.000000 0.000000 0.000000
vn 1.000000 0.000000 0.000000
vn 1.000000 0.000000 0.000000
vn 1.000000 0.000000 0.000000
vn -1.000000 0.000000 0.000000
vn -1.000000 0.000000 0.000000
vn -1.000000 0.000000 0.000000
vn -1.000000 0.000000 0.000000
vn -1.000000 0.000000 0.000000
vn -1.000000 0.000000 0.000000
vn -1.000000 0.000000 0.000000
vn -1.000000 0.000000 0.000000
vn -1.000000 0.000000 0.000000
vn -1.000000 0.000000 0.000000
vn -1.000000 0.000000 0.000000
vn -1.000000 0.000000 0.000000
vn -1.000000 -0.000000 0.000000
vn -1.000000 -0.000000 0.000000
vn -1.000000 -0.000000 0.000000
vn -1.000000 -0.000000 0.000000
vn 1.000000 0.000000 0.000000
vn 1.000000 0.000000 0.000000
vn 1.000000 0.000000 0.000000
vn 1.000000 0.000000 0.000000
vn 1.000000 0.000000 0.000000
vn 1.000000 0.000000 0.000000
vn 1.000000 0.000000 0.000000
vn 1.000000 0.000000 0.000000
vn 1.000000 0.000000 0.000000
vn 1.000000 0.000000 0.000000
vn 1.000000 0.000000 0.000000
vn 1.000000 0.000000 0.000000
vn 1.000000 -0.000000 0.000000
vn 1.000000 -0.000000 0.000000
vn 1.000000 -0.000000 0.000000
vn 1.000000 -0.000000 0.000000
vn 1.000000 0.000000 0.000000
vn 1.000000 0.000000 0.000000
vn 1.000000 0.000000 0.000000
vn 1.000000 0.000000 0.000000
vn 1.000000 0.000000 0.000000
vn 1.000000 0.000000 0.000000
vn 1.000000 0.000000 0.000000
vn 1.000000 0.000000 0.000000
vn 1.000000 0.000000 0.000000
vn 1.000000 0.000000 0.000000
vn 1.000000 0.000000 0.000000
vn 1.000000 0.000000 0.000000
vn 1.000000 0.000000 0.000000
vn 1.000000 0.000000 0.000000
vn 1.000000 0.000000 0.000000
vn 1.000000 0.000000 0.000000
vn 1.000000 -0.000000 0.000000
vn 1.000000 -0.000000 0.000000
vn 1.000000 -0.000000 0.000000
vn 1.000000 -0.000000 0.000000
vn 1.000000 0.000000 0.000000
vn 1.000000 0.000000 0.000000
vn 1.000000 0.000000 0.000000
vn 1.000000 0.000000 0.000000
vn 1.000000 0.000000 0.000000
vn 1.000000 0.000000 0.000000
vn 1.000000 0.000000 0.000000
vn 1.000000 0.000000 0.000000
vn 1.000000 0.000000 0.000000
vn 1.000000 0.000000 0.000000
vn 1.000000 0.000000 0.000000
vn 1.000000 0.000000 0.000000
vn 1.000000 0.000000 0.000000
vn 1.000000 0.000000 0.000000
vn 0.949748 0.000000 0.313015
vn 0.949748 0.000000 0.313015
vn 0.949748 0.000000 0.313015
vn 0.949403 -0.314061 0.000000
vn 0.949403 -0.314061 0.000000
vn 0.949403 -0.314061 0.000000
vn 0.949749 0.000000 -0.313014
vn 0.949749 0.000000 -0.313014
vn 0.949749 0.000000 -0.313014
vn 0.949748 0.000000 -0.313015
vn 0.949748 0.000000 -0.313015
vn 0.949748 0.000000 -0.313015
vn 0.949748 0.000000 0.313015
vn 0.949748 0.000000 0.313015
vn 0.949748 0.000000 0.313015
vn 0.949403 -0.314060 0.000000
vn 0.949403 -0.314060 0.000000
vn 0.949403 -0.314060 0.000000
s off
f 2/17/1 1/18/2 4/19/3 3/20/4
f 7/21/5 5/22/6 6/23/7 8/24/8
f 8/25/9 10/26/10 9/27/11 7/28/12
f 12/29/13 11/30/14 9/31/15 10/32/16
f 50/1/17 62/162/18 52/4/19
f 5/33/20 11/34/21 12/35/22 6/36/23
f 13/121/24 14/122/25 16/123/26 15/124/27
f 16/137/28 18/138/29 17/139/30 15/140/31
f 18/125/32 20/126/33 19/127/34 17/128/35
f 25/77/36 18/78/37 16/79/38 28/80/39
f 15/85/40 17/86/41 26/87/42 27/88/43
f 24/5/44 22/6/45 25/7/46 28/8/47
f 26/9/48 21/10/49 23/11/50 27/12/51
f 28/80/52 16/79/53 14/83/54 24/84/55
f 18/78/56 25/77/57 22/81/58 20/82/59
f 26/87/60 17/86/61 19/89/62 21/90/63
f 15/85/64 27/88/65 23/91/66 13/92/67
f 32/129/68 31/130/69 29/131/70 30/132/71
f 31/141/72 32/142/73 34/143/74 33/144/75
f 33/133/76 34/134/77 36/135/78 35/136/79
f 36/37/80 30/38/81 29/39/82 35/40/83
f 45/41/84 46/42/85 47/43/86 48/44/87
f 39/45/88 37/46/89 38/47/90 40/48/91
f 40/49/92 42/50/93 41/51/94 39/52/95
f 44/53/96 43/54/97 41/55/98 42/56/99
f 54/13/100 61/161/101 56/16/102
f 58/149/103 57/150/104 59/151/105 60/152/106
f 41/100/107 43/101/108 36/104/109 34/95/110
f 44/57/111 38/58/112 37/59/113 43/60/114
f 43/101/115 37/102/116 11/103/117 5/98/118 30/99/119 36/104/120
f 5/98/121 7/96/122 32/93/123 30/99/124
f 2/113/125 3/157/126 39/115/127 9/160/128
f 11/119/129 37/155/130 4/117/131 1/154/132
f 4/156/133 37/118/134 39/158/135 3/114/136
f 2/159/137 9/116/138 11/153/139 1/120/140
f 29/105/141 31/106/142 46/107/143 45/108/144
f 31/106/145 33/109/146 47/110/147 46/107/148
f 33/109/149 35/111/150 48/112/151 47/110/152
f 35/111/153 29/105/154 45/108/155 48/112/156
f 8/61/157 6/62/158 49/63/159 50/64/160
f 6/62/161 12/65/162 51/66/163 49/63/164
f 12/65/165 10/67/166 52/68/167 51/66/168
f 10/67/169 8/61/170 50/64/171 52/68/172
f 40/69/173 38/70/174 53/71/175 54/72/176
f 38/70/177 44/73/178 55/74/179 53/71/180
f 44/73/181 42/75/182 56/76/183 55/74/184
f 42/75/185 40/69/186 54/72/187 56/76/188
f 34/95/189 32/93/190 57/146/191 58/145/192
f 32/93/193 7/96/194 59/147/195 57/146/196
f 59/147/197 7/96/198 9/94/199 39/97/200 41/100/201 60/148/202
f 41/100/203 34/95/204 58/145/205 60/148/206
f 54/13/207 53/14/208 61/161/209
f 61/161/210 53/14/211 55/15/212
f 56/16/213 61/161/214 55/15/215
f 52/4/216 62/162/217 51/3/218
f 50/1/219 49/2/220 62/162/221
f 51/3/222 62/162/223 49/2/224
