# This file uses centimeters as units for non-parametric coordinates.

v -4.408875 10.039721 45.897354
v -4.408875 10.039721 49.703156
v -0.555786 10.039721 45.897369
v -0.555786 10.039721 49.703156
v -0.555786 8.074199 49.703156
v -4.408875 8.074199 49.703156
v -4.408875 8.074199 45.897354
v -0.555786 8.074199 45.897369
v 3.647766 10.039721 53.187988
v 3.647766 10.039721 56.993790
v 7.500916 10.039721 53.188004
v 7.500916 10.039721 56.993790
v 7.500916 8.074199 56.993790
v 3.647766 8.074199 56.993790
v 3.647766 8.074199 53.187988
v 7.500916 8.074199 53.188004
v -7.423096 10.039721 55.249481
v -7.423096 10.039721 59.055298
v -3.569946 10.039721 55.249496
v -3.569946 10.039721 59.055298
v -3.569946 8.074199 59.055298
v -7.423096 8.074199 59.055298
v -7.423096 8.074199 55.249481
v -3.569946 8.074199 55.249496
v 11.042786 -0.446424 68.377182
v 11.042786 8.074199 68.377182
v -11.042786 -0.446437 68.377213
v -11.042786 8.074199 68.377213
v -11.042786 -0.446424 -68.377213
v -11.042786 8.074199 -68.377213
v 11.042786 -0.446424 -68.377213
v 11.042786 8.074199 -68.377213
v -1.258911 -10.039721 47.800262
v -2.414978 -0.446424 49.703156
v -0.103027 -0.446424 49.703156
v -0.103027 -0.446424 45.897354
v -2.414978 -0.446424 45.897369
v -5.496399 -10.039721 57.160370
v -6.652466 -0.446424 59.063263
v -4.340515 -0.446424 59.063263
v -4.340515 -0.446424 55.257462
v -6.652466 -0.446424 55.257477
v 5.574402 -10.039721 55.305313
v 4.418518 -0.446424 57.208221
v 6.730408 -0.446424 57.208221
v 6.730408 -0.446424 53.402420
v 4.418518 -0.446424 53.402435
vt 0.297998 0.477572
vt 0.236575 0.477572
vt 0.359377 0.477572
vt 0.359377 0.477572
vt 0.359377 0.477572
vt 0.359377 0.477572
vt 0.297998 0.477572
vt 0.236575 0.477572
vt 0.236575 0.477572
vt 0.171345 0.477572
vt 0.236575 0.477572
vt 0.171345 0.477572
vt 0.297998 0.477572
vt 0.236575 0.477572
vt 0.236575 0.477572
vt 0.297998 0.477572
vt 0.236575 0.477572
vt 0.171345 0.477572
vt 0.236575 0.477572
vt 0.171345 0.477572
vt 0.359377 0.477572
vt 0.359377 0.477572
vt 0.359377 0.477572
vt 0.359377 0.477572
vt 0.297998 0.477572
vt 0.297998 0.477572
vt 0.297998 0.477572
vt 0.297998 0.477572
vt 0.236575 0.477572
vt 0.236575 0.477572
vt 0.236575 0.477572
vt 0.236575 0.477572
vt 0.171345 0.477572
vt 0.171345 0.477572
vt 0.171345 0.477572
vt 0.171345 0.477572
vt 0.236575 0.477572
vt 0.236575 0.477572
vt 0.236575 0.477572
vt 0.236575 0.477572
vt 0.359377 0.477572
vt 0.359377 0.477572
vt 0.359377 0.477572
vt 0.359377 0.477572
vt 0.297998 0.477572
vt 0.297998 0.477572
vt 0.297998 0.477572
vt 0.297998 0.477572
vt 0.236575 0.477572
vt 0.236575 0.477572
vt 0.236575 0.477572
vt 0.236575 0.477572
vt 0.171345 0.477572
vt 0.171345 0.477572
vt 0.171345 0.477572
vt 0.171345 0.477572
vt 0.236575 0.477572
vt 0.236575 0.477572
vt 0.236575 0.477572
vt 0.236575 0.477572
vt 0.236575 0.398205
vt 0.236575 0.398205
vt 0.236575 0.398205
vt 0.236575 0.398205
vt 0.359377 0.398205
vt 0.359377 0.398205
vt 0.359377 0.398205
vt 0.359377 0.398205
vt 0.297998 0.398205
vt 0.297998 0.398205
vt 0.297998 0.398205
vt 0.297998 0.398205
vt 0.236575 0.398205
vt 0.236575 0.398205
vt 0.236575 0.398205
vt 0.236575 0.398205
vt 0.171345 0.398205
vt 0.171345 0.398205
vt 0.171345 0.398205
vt 0.171345 0.398205
vt 0.359377 0.398205
vt 0.359377 0.398205
vt 0.359377 0.398205
vt 0.359377 0.398205
vt 0.297998 0.477572
vt 0.297998 0.477572
vt 0.297998 0.477572
vt 0.236575 0.477572
vt 0.236575 0.477572
vt 0.236575 0.477572
vt 0.171345 0.477572
vt 0.171345 0.477572
vt 0.171345 0.477572
vt 0.236575 0.477572
vt 0.236575 0.477572
vt 0.236575 0.477572
vt 0.297998 0.477572
vt 0.297998 0.477572
vt 0.297998 0.477572
vt 0.236575 0.477572
vt 0.236575 0.477572
vt 0.236575 0.477572
vt 0.171345 0.477572
vt 0.171345 0.477572
vt 0.171345 0.477572
vt 0.236575 0.477572
vt 0.236575 0.477572
vt 0.236575 0.477572
vt 0.297998 0.477572
vt 0.297998 0.477572
vt 0.297998 0.477572
vt 0.236575 0.477572
vt 0.236575 0.477572
vt 0.236575 0.477572
vt 0.171345 0.477572
vt 0.171345 0.477572
vt 0.171345 0.477572
vt 0.236575 0.477572
vt 0.236575 0.477572
vt 0.236575 0.477572
vn 0.000000 1.000000 0.000000
vn 0.000000 1.000000 0.000000
vn 0.000000 1.000000 0.000000
vn 0.000000 1.000000 0.000000
vn 0.000000 0.000000 1.000000
vn 0.000000 0.000000 1.000000
vn 0.000000 0.000000 1.000000
vn 0.000000 0.000000 1.000000
vn -1.000000 0.000000 0.000000
vn -1.000000 0.000000 0.000000
vn -1.000000 0.000000 0.000000
vn -1.000000 0.000000 0.000000
vn 0.000004 0.000000 -1.000000
vn 0.000004 0.000000 -1.000000
vn 0.000004 0.000000 -1.000000
vn 0.000004 0.000000 -1.000000
vn 1.000000 0.000000 0.000000
vn 1.000000 0.000000 0.000000
vn 1.000000 0.000000 0.000000
vn 1.000000 0.000000 0.000000
vn 0.000000 1.000000 0.000000
vn 0.000000 1.000000 0.000000
vn 0.000000 1.000000 0.000000
vn 0.000000 1.000000 0.000000
vn 0.000000 0.000000 1.000000
vn 0.000000 0.000000 1.000000
vn 0.000000 0.000000 1.000000
vn 0.000000 0.000000 1.000000
vn -1.000000 0.000000 0.000000
vn -1.000000 0.000000 0.000000
vn -1.000000 0.000000 0.000000
vn -1.000000 0.000000 0.000000
vn 0.000004 0.000000 -1.000000
vn 0.000004 0.000000 -1.000000
vn 0.000004 0.000000 -1.000000
vn 0.000004 0.000000 -1.000000
vn 1.000000 0.000000 0.000000
vn 1.000000 0.000000 0.000000
vn 1.000000 0.000000 0.000000
vn 1.000000 0.000000 0.000000
vn 0.000000 1.000000 0.000000
vn 0.000000 1.000000 0.000000
vn 0.000000 1.000000 0.000000
vn 0.000000 1.000000 0.000000
vn 0.000000 0.000000 1.000000
vn 0.000000 0.000000 1.000000
vn 0.000000 0.000000 1.000000
vn 0.000000 0.000000 1.000000
vn -1.000000 0.000000 0.000000
vn -1.000000 0.000000 0.000000
vn -1.000000 0.000000 0.000000
vn -1.000000 0.000000 0.000000
vn 0.000004 0.000000 -1.000000
vn 0.000004 0.000000 -1.000000
vn 0.000004 0.000000 -1.000000
vn 0.000004 0.000000 -1.000000
vn 1.000000 0.000000 0.000000
vn 1.000000 0.000000 0.000000
vn 1.000000 0.000000 0.000000
vn 1.000000 0.000000 0.000000
vn -1.000000 0.000000 0.000000
vn -1.000000 0.000000 0.000000
vn -1.000000 0.000000 0.000000
vn -1.000000 0.000000 0.000000
vn 0.000000 0.000000 -1.000000
vn 0.000000 0.000000 -1.000000
vn 0.000000 0.000000 -1.000000
vn 0.000000 0.000000 -1.000000
vn 0.000000 1.000000 0.000000
vn 0.000000 1.000000 0.000000
vn 0.000000 1.000000 0.000000
vn 0.000000 1.000000 0.000000
vn 1.000000 0.000000 0.000000
vn 1.000000 0.000000 0.000000
vn 1.000000 0.000000 0.000000
vn 1.000000 0.000000 0.000000
vn 0.000000 -1.000000 -0.000000
vn 0.000000 -1.000000 -0.000000
vn 0.000000 -1.000000 -0.000000
vn 0.000000 -1.000000 -0.000000
vn 0.000002 0.000000 1.000000
vn 0.000002 0.000000 1.000000
vn 0.000002 0.000000 1.000000
vn 0.000002 0.000000 1.000000
vn 0.000000 -0.194566 0.980889
vn 0.000000 -0.194566 0.980889
vn 0.000000 -0.194566 0.980889
vn 0.992819 -0.119623 0.000000
vn 0.992819 -0.119623 0.000000
vn 0.992819 -0.119623 0.000000
vn -0.000008 -0.194567 -0.980889
vn -0.000008 -0.194567 -0.980889
vn -0.000008 -0.194567 -0.980889
vn -0.992817 -0.119642 0.000000
vn -0.992817 -0.119642 0.000000
vn -0.992817 -0.119642 0.000000
vn 0.000000 -0.194566 0.980889
vn 0.000000 -0.194566 0.980889
vn 0.000000 -0.194566 0.980889
vn 0.992819 -0.119623 0.000000
vn 0.992819 -0.119623 0.000000
vn 0.992819 -0.119623 0.000000
vn -0.000005 -0.194567 -0.980889
vn -0.000005 -0.194567 -0.980889
vn -0.000005 -0.194567 -0.980889
vn -0.992817 -0.119642 0.000000
vn -0.992817 -0.119642 0.000000
vn -0.992817 -0.119642 0.000000
vn 0.000000 -0.194567 0.980889
vn 0.000000 -0.194567 0.980889
vn 0.000000 -0.194567 0.980889
vn 0.992818 -0.119636 0.000000
vn 0.992818 -0.119636 0.000000
vn 0.992818 -0.119636 0.000000
vn -0.000005 -0.194565 -0.980890
vn -0.000005 -0.194565 -0.980890
vn -0.000005 -0.194565 -0.980890
vn -0.992819 -0.119624 0.000000
vn -0.992819 -0.119624 0.000000
vn -0.992819 -0.119624 0.000000
s off
f 1/3/1 2/4/2 4/5/3 3/6/4
f 6/16/5 5/13/6 4/7/7 2/1/8
f 7/17/9 6/15/10 2/11/11 1/2/12
f 3/12/13 8/20/14 7/18/15 1/10/16
f 4/8/17 5/14/18 8/19/19 3/9/20
f 9/21/21 10/22/22 12/23/23 11/24/24
f 14/25/25 13/26/26 12/27/27 10/28/28
f 15/29/29 14/30/30 10/31/31 9/32/32
f 11/33/33 16/34/34 15/35/35 9/36/36
f 12/37/37 13/38/38 16/39/39 11/40/40
f 17/41/41 18/42/42 20/43/43 19/44/44
f 22/45/45 21/46/46 20/47/47 18/48/48
f 23/49/49 22/50/50 18/51/51 17/52/52
f 19/53/53 24/54/54 23/55/55 17/56/56
f 20/57/57 21/58/58 24/59/59 19/60/60
f 27/61/61 28/62/62 30/63/63 29/64/64
f 29/65/65 30/66/66 32/67/67 31/68/68
f 26/69/69 32/70/70 30/71/71 28/72/72
f 32/73/73 26/74/74 25/75/75 31/76/76
f 31/77/77 25/78/78 27/79/79 29/80/80
f 27/81/81 25/82/82 26/83/83 28/84/84
f 35/85/85 34/86/86 33/87/87
f 36/88/88 35/89/89 33/90/90
f 33/91/91 37/92/92 36/93/93
f 33/94/94 34/95/95 37/96/96
f 40/97/97 39/98/98 38/99/99
f 41/100/100 40/101/101 38/102/102
f 38/103/103 42/104/104 41/105/105
f 38/106/106 39/107/107 42/108/108
f 45/109/109 44/110/110 43/111/111
f 46/112/112 45/113/113 43/114/114
f 43/115/115 47/116/116 46/117/117
f 43/118/118 44/119/119 47/120/120
