# This file uses centimeters as units for non-parametric coordinates.

v -12.120544 -47.949902 12.120544
v 12.120544 -47.949902 12.120544
v -12.120544 -9.519680 12.120544
v 12.120544 -9.519680 12.120544
v -12.120544 -9.519680 -12.120544
v 12.120544 -9.519680 -12.120544
v -12.120544 -47.949902 -12.120544
v 12.120544 -47.949902 -12.120544
v -4.418751 10.154816 4.418783
v 4.418751 10.154816 4.418783
v 4.418751 10.154816 -4.418753
v -4.418751 10.154816 -4.418753
v -4.418751 41.823090 4.418783
v 4.418751 41.823090 4.418783
v 4.418751 41.823090 -4.418753
v -4.418751 41.823090 -4.418753
v -6.586626 41.823090 6.586582
v 6.586626 41.823090 6.586582
v 6.586626 41.823090 -6.586582
v -6.586626 41.823090 -6.586582
v -6.586626 47.949890 6.586582
v 6.586626 47.949890 6.586582
v 6.586626 47.949890 -6.586582
v -6.586626 47.949890 -6.586582
v -3.845730 47.949890 3.845773
v 3.845791 47.949890 3.845773
v 3.845791 47.949890 -3.845742
v -3.845730 47.949890 -3.845742
v -8.130116 -36.770111 12.120544
v 8.130116 -36.770111 12.120544
v 8.130116 -18.182131 12.120544
v -8.130116 -18.182131 12.120544
vt 0.264925 0.131308
vt 0.328519 0.131308
vt 0.359377 0.131308
vt 0.328519 0.131308
vt 0.328519 0.131308
vt 0.359377 0.131308
vt 0.202875 0.131308
vt 0.328519 0.131308
vt 0.202875 0.131308
vt 0.202875 0.131308
vt 0.264925 0.131308
vt 0.264925 0.131308
vt 0.264925 0.131308
vt 0.264925 0.131308
vt 0.328519 0.131308
vt 0.264925 0.131308
vt 0.328519 0.131308
vt 0.264925 0.131308
vt 0.297998 0.131308
vt 0.297998 0.131308
vt 0.297998 0.131308
vt 0.297998 0.131308
vt 0.328519 0.131308
vt 0.264925 0.131308
vt 0.328519 0.131308
vt 0.264925 0.131308
vt 0.389670 0.131308
vt 0.389670 0.131308
vt 0.389670 0.131308
vt 0.389670 0.131308
vt 0.141447 0.477572
vt 0.389670 0.131308
vt 0.389670 0.131308
vt 0.389670 0.131308
vt 0.389670 0.131308
vt 0.141447 0.477572
vt 0.141447 0.477572
vt 0.141447 0.477572
vt 0.264925 0.131308
vt 0.264925 0.131308
vt 0.297998 0.131308
vt 0.264925 0.131308
vt 0.264925 0.131308
vt 0.264925 0.131308
vt 0.297998 0.131308
vt 0.264925 0.131308
vt 0.264925 0.131308
vt 0.264925 0.131308
vt 0.328519 0.131308
vt 0.359377 0.131308
vt 0.264925 0.131308
vt 0.264925 0.131308
vt 0.328519 0.131308
vt 0.264925 0.131308
vt 0.328519 0.131308
vt 0.359377 0.131308
vt 0.328519 0.131308
vt 0.264925 0.131308
vt 0.328519 0.131308
vt 0.328519 0.131308
vt 0.264925 0.131308
vt 0.328519 0.131308
vt 0.264925 0.131308
vt 0.328519 0.131308
vt 0.264925 0.131308
vt 0.328519 0.131308
vt 0.202875 0.131308
vt 0.328519 0.131308
vt 0.389670 0.131308
vt 0.389670 0.131308
vt 0.389670 0.131308
vt 0.328519 0.131308
vt 0.389670 0.131308
vt 0.389670 0.131308
vt 0.328519 0.131308
vt 0.389670 0.131308
vt 0.328519 0.131308
vt 0.389670 0.131308
vt 0.328519 0.131308
vt 0.389670 0.131308
vt 0.328519 0.131308
vt 0.297998 0.131308
vt 0.328519 0.131308
vt 0.297998 0.131308
vt 0.328519 0.131308
vt 0.328519 0.131308
vt 0.328519 0.131308
vt 0.359377 0.131308
vt 0.328519 0.131308
vt 0.328519 0.131308
vt 0.328519 0.131308
vt 0.359377 0.131308
vt 0.328519 0.131308
vt 0.359377 0.131308
vt 0.359377 0.131308
vt 0.328519 0.131308
vt 0.297998 0.131308
vt 0.297998 0.131308
vt 0.297998 0.131308
vt 0.297998 0.131308
vt 0.297998 0.131308
vt 0.297998 0.131308
vt 0.297998 0.131308
vt 0.297998 0.131308
vt 0.297998 0.444286
vt 0.328519 0.131308
vt 0.328519 0.131308
vt 0.328519 0.131308
vt 0.328519 0.131308
vt 0.297998 0.444286
vt 0.297998 0.444286
vt 0.297998 0.444286
vn 0.000000 0.000000 1.000000
vn 0.000000 0.000000 1.000000
vn 0.000000 0.000000 1.000000
vn 0.000000 0.000000 1.000000
vn 0.000000 1.000000 0.000000
vn 0.000000 1.000000 0.000000
vn 0.000000 1.000000 0.000000
vn 0.000000 1.000000 0.000000
vn 0.000000 0.000000 -1.000000
vn 0.000000 0.000000 -1.000000
vn 0.000000 0.000000 -1.000000
vn 0.000000 0.000000 -1.000000
vn 0.000000 -1.000000 0.000000
vn 0.000000 -1.000000 0.000000
vn 0.000000 -1.000000 0.000000
vn 0.000000 -1.000000 0.000000
vn 1.000000 0.000000 0.000000
vn 1.000000 0.000000 0.000000
vn 1.000000 0.000000 0.000000
vn 1.000000 0.000000 0.000000
vn -1.000000 0.000000 0.000000
vn -1.000000 0.000000 0.000000
vn -1.000000 0.000000 0.000000
vn -1.000000 0.000000 0.000000
vn 0.000000 0.364524 0.931194
vn 0.000000 0.364524 0.931194
vn 0.000000 0.364524 0.931194
vn 0.000000 0.364524 0.931194
vn 0.931193 0.364526 0.000000
vn 0.931193 0.364526 0.000000
vn 0.931193 0.364526 0.000000
vn 0.931193 0.364526 0.000000
vn 0.000000 0.364526 -0.931193
vn 0.000000 0.364526 -0.931193
vn 0.000000 0.364526 -0.931193
vn 0.000000 0.364526 -0.931193
vn -0.931193 0.364526 0.000000
vn -0.931193 0.364526 0.000000
vn -0.931193 0.364526 0.000000
vn -0.931193 0.364526 0.000000
vn 0.000000 0.000000 1.000000
vn 0.000000 0.000000 1.000000
vn 0.000000 0.000000 1.000000
vn 0.000000 0.000000 1.000000
vn 1.000000 0.000000 0.000000
vn 1.000000 0.000000 0.000000
vn 1.000000 0.000000 0.000000
vn 1.000000 0.000000 0.000000
vn 0.000000 0.000000 -1.000000
vn 0.000000 0.000000 -1.000000
vn 0.000000 0.000000 -1.000000
vn 0.000000 0.000000 -1.000000
vn -1.000000 0.000000 0.000000
vn -1.000000 0.000000 0.000000
vn -1.000000 0.000000 0.000000
vn -1.000000 0.000000 0.000000
vn 0.000000 -1.000000 -0.000000
vn 0.000000 -1.000000 -0.000000
vn 0.000000 -1.000000 -0.000000
vn 0.000000 -1.000000 -0.000000
vn 0.000000 -1.000000 0.000000
vn 0.000000 -1.000000 0.000000
vn 0.000000 -1.000000 0.000000
vn 0.000000 -1.000000 0.000000
vn 0.000000 -1.000000 0.000000
vn 0.000000 -1.000000 0.000000
vn 0.000000 -1.000000 0.000000
vn 0.000000 -1.000000 0.000000
vn 0.000000 -1.000000 0.000000
vn 0.000000 -1.000000 0.000000
vn 0.000000 -1.000000 0.000000
vn 0.000000 -1.000000 0.000000
vn 0.000000 0.000000 1.000000
vn 0.000000 0.000000 1.000000
vn 0.000000 0.000000 1.000000
vn 0.000000 0.000000 1.000000
vn 1.000000 0.000000 0.000000
vn 1.000000 0.000000 0.000000
vn 1.000000 0.000000 0.000000
vn 1.000000 0.000000 0.000000
vn 0.000000 0.000000 -1.000000
vn 0.000000 0.000000 -1.000000
vn 0.000000 0.000000 -1.000000
vn 0.000000 0.000000 -1.000000
vn -1.000000 0.000000 0.000000
vn -1.000000 0.000000 0.000000
vn -1.000000 0.000000 0.000000
vn -1.000000 0.000000 0.000000
vn 0.000000 1.000000 -0.000001
vn 0.000000 1.000000 -0.000001
vn 0.000000 1.000000 -0.000001
vn 0.000000 1.000000 -0.000001
vn 0.000000 1.000000 0.000000
vn 0.000000 1.000000 0.000000
vn 0.000000 1.000000 0.000000
vn 0.000000 1.000000 0.000000
vn 0.000000 1.000000 0.000001
vn 0.000000 1.000000 0.000001
vn 0.000000 1.000000 0.000001
vn 0.000000 1.000000 0.000001
vn 0.000000 1.000000 0.000000
vn 0.000000 1.000000 0.000000
vn 0.000000 1.000000 0.000000
vn 0.000000 1.000000 0.000000
vn 0.000000 0.000000 1.000000
vn 0.000000 0.000000 1.000000
vn 0.000000 0.000000 1.000000
vn 0.000000 0.000000 1.000000
vn 0.000000 0.000000 1.000000
vn 0.000000 0.000000 1.000000
vn 0.000000 0.000000 1.000000
vn 0.000000 0.000000 1.000000
vn 0.000000 0.000000 1.000000
vn 0.000000 0.000000 1.000000
vn 0.000000 0.000000 1.000000
vn 0.000000 0.000000 1.000000
vn -0.000000 0.000000 1.000000
vn -0.000000 0.000000 1.000000
vn -0.000000 0.000000 1.000000
vn -0.000000 0.000000 1.000000
s off
f 29/105/1 30/112/2 31/111/3 32/110/4
f 25/31/5 26/38/6 27/37/7 28/36/8
f 5/59/9 6/93/10 8/8/11 7/68/12
f 7/7/13 8/67/14 2/10/15 1/9/16
f 2/65/17 8/11/18 6/12/19 4/61/20
f 7/13/21 1/1/22 3/63/23 5/14/24
f 3/3/25 4/95/26 10/56/27 9/92/28
f 4/4/29 6/60/30 11/53/31 10/55/32
f 6/6/33 5/94/34 12/50/35 11/88/36
f 5/5/37 3/64/38 9/57/39 12/49/40
f 9/15/41 10/91/42 14/90/43 13/89/44
f 10/16/45 11/54/46 15/52/47 14/51/48
f 11/17/49 12/87/50 16/85/51 15/86/52
f 12/18/53 9/58/54 13/47/55 16/48/56
f 13/19/57 14/103/58 18/101/59 17/84/60
f 14/20/61 15/102/62 19/99/63 18/45/64
f 15/21/65 16/100/66 20/98/67 19/82/68
f 16/22/69 13/104/70 17/97/71 20/41/72
f 17/23/73 18/83/74 22/77/75 21/79/76
f 18/24/77 19/44/78 23/43/79 22/42/80
f 19/25/81 20/81/82 24/72/83 23/75/84
f 20/26/85 17/46/86 21/39/87 24/40/88
f 21/27/89 22/78/90 26/74/91 25/35/92
f 22/28/93 23/76/94 27/71/95 26/32/96
f 23/29/97 24/73/98 28/70/99 27/33/100
f 24/30/101 21/80/102 25/69/103 28/34/104
f 1/66/105 2/2/106 30/106/107 29/109/108
f 2/2/109 4/62/110 31/107/111 30/106/112
f 4/62/113 3/96/114 32/108/115 31/107/116
f 3/96/117 1/66/118 29/109/119 32/108/120
