# This file uses centimeters as units for non-parametric coordinates.

v -11.863617 -11.863609 3.097225
v 11.863617 -11.863609 3.097225
v -11.863617 11.863613 3.097225
v 11.863617 11.863613 3.097225
v -11.863617 11.863613 -3.097240
v 11.863617 11.863613 -3.097240
v -11.863617 -11.863609 -3.097240
v 11.863617 -11.863609 -3.097240
v -8.942039 -8.942032 3.097225
v 8.942009 -8.942032 3.097225
v 8.942009 8.942032 3.097225
v -8.942039 8.942032 3.097225
v -8.942039 8.942032 -3.097240
v 8.942009 8.942032 -3.097240
v 8.942009 -8.942032 -3.097240
v -8.942039 -8.942032 -3.097240
vt 0.417983 0.375776
vt 0.417983 0.375776
vt 0.417983 0.375776
vt 0.417983 0.375776
vt 0.417983 0.375776
vt 0.417983 0.375776
vt 0.417983 0.375776
vt 0.417983 0.375776
vt 0.359377 0.375776
vt 0.359377 0.375776
vt 0.389670 0.375776
vt 0.389670 0.375776
vt 0.389670 0.375776
vt 0.389670 0.375776
vt 0.359377 0.375776
vt 0.417983 0.375776
vt 0.417983 0.375776
vt 0.417983 0.375776
vt 0.359377 0.375776
vt 0.417983 0.375776
vt 0.417983 0.375776
vt 0.417983 0.375776
vt 0.417983 0.375776
vt 0.359377 0.375776
vt 0.359377 0.375776
vt 0.359377 0.375776
vt 0.417983 0.375776
vt 0.359377 0.375776
vt 0.359377 0.375776
vt 0.359377 0.375776
vt 0.483503 0.375776
vt 0.483503 0.375776
vt 0.483503 0.375776
vt 0.483503 0.375776
vt 0.359377 0.375776
vt 0.359377 0.375776
vt 0.389670 0.375776
vt 0.389670 0.375776
vt 0.389670 0.375776
vt 0.389670 0.375776
vn 0.000000 0.000000 1.000000
vn 0.000000 0.000000 1.000000
vn 0.000000 0.000000 1.000000
vn 0.000000 0.000000 1.000000
vn 0.000000 1.000000 0.000000
vn 0.000000 1.000000 0.000000
vn 0.000000 1.000000 0.000000
vn 0.000000 1.000000 0.000000
vn 0.000000 0.000000 -1.000000
vn 0.000000 0.000000 -1.000000
vn 0.000000 0.000000 -1.000000
vn 0.000000 0.000000 -1.000000
vn 0.000000 -1.000000 0.000000
vn 0.000000 -1.000000 0.000000
vn 0.000000 -1.000000 0.000000
vn 0.000000 -1.000000 0.000000
vn 1.000000 0.000000 0.000000
vn 1.000000 0.000000 0.000000
vn 1.000000 0.000000 0.000000
vn 1.000000 0.000000 0.000000
vn -1.000000 0.000000 0.000000
vn -1.000000 0.000000 0.000000
vn -1.000000 0.000000 0.000000
vn -1.000000 0.000000 0.000000
vn 0.000000 0.000000 1.000000
vn 0.000000 0.000000 1.000000
vn 0.000000 0.000000 1.000000
vn 0.000000 0.000000 1.000000
vn 0.000000 0.000000 1.000000
vn 0.000000 0.000000 1.000000
vn 0.000000 0.000000 1.000000
vn 0.000000 0.000000 1.000000
vn 0.000000 0.000000 1.000000
vn 0.000000 0.000000 1.000000
vn 0.000000 0.000000 1.000000
vn 0.000000 0.000000 1.000000
vn -0.000000 0.000000 1.000000
vn -0.000000 0.000000 1.000000
vn -0.000000 0.000000 1.000000
vn -0.000000 0.000000 1.000000
vn 0.000000 0.000000 -1.000000
vn 0.000000 0.000000 -1.000000
vn 0.000000 0.000000 -1.000000
vn 0.000000 0.000000 -1.000000
vn 0.000000 0.000000 -1.000000
vn 0.000000 0.000000 -1.000000
vn 0.000000 0.000000 -1.000000
vn 0.000000 0.000000 -1.000000
vn 0.000000 0.000000 -1.000000
vn 0.000000 0.000000 -1.000000
vn 0.000000 0.000000 -1.000000
vn 0.000000 0.000000 -1.000000
vn 0.000000 0.000000 -1.000000
vn 0.000000 0.000000 -1.000000
vn 0.000000 0.000000 -1.000000
vn 0.000000 0.000000 -1.000000
s off
f 9/15/1 10/30/2 11/29/3 12/28/4
f 3/33/5 4/31/6 6/32/7 5/34/8
f 13/19/9 14/26/10 15/25/11 16/24/12
f 7/36/13 8/35/14 2/10/15 1/9/16
f 2/37/17 8/11/18 6/12/19 4/39/20
f 7/13/21 1/38/22 3/40/23 5/14/24
f 1/1/25 2/2/26 10/16/27 9/27/28
f 2/2/29 4/4/30 11/17/31 10/16/32
f 4/4/33 3/3/34 12/18/35 11/17/36
f 3/3/37 1/1/38 9/27/39 12/18/40
f 5/5/41 6/6/42 14/20/43 13/23/44
f 6/6/45 8/8/46 15/21/47 14/20/48
f 8/8/49 7/7/50 16/22/51 15/21/52
f 7/7/53 5/5/54 13/23/55 16/22/56
