# This file uses centimeters as units for non-parametric coordinates.

v -9.482300 -4.755887 29.060654
v -9.482300 4.755898 29.060654
v -16.731140 -4.755898 34.805634
v -16.731140 4.755898 34.805634
v -20.724182 0.000000 29.786240
v -12.082764 0.000008 28.765869
v -21.021484 2.180933 25.031113
v -23.347839 2.180929 26.432220
v -21.021484 4.755898 25.031113
v -23.347839 4.755898 26.432220
v -23.347839 -4.755898 26.432220
v -21.021484 -4.755883 25.031113
v -21.021484 -2.180929 25.031113
v -23.347839 -2.180933 26.432220
v 23.347656 -6.604614 41.690048
v 23.347656 6.604618 41.690048
v 23.347900 -6.604595 28.741623
v 23.347656 6.604618 28.741623
v 7.024048 -3.483826 41.739731
v 7.024048 3.483826 41.739731
v -2.193237 -3.483826 41.739746
v -2.193237 3.483826 41.739746
v -3.330933 -4.343839 -41.739761
v -3.331177 4.343839 -41.739761
v 8.161865 -4.343839 -41.739761
v 8.161865 4.343839 -41.739761
v 17.098511 6.604618 41.690048
v 17.098511 -6.604614 41.690048
v 17.111816 -6.604605 28.741623
v 17.111328 6.604618 28.741623
v 13.121216 4.755898 39.675354
v 13.121216 -4.755894 39.675354
v 13.134399 -4.755881 30.756332
v 13.134399 4.755898 30.756332
v 10.731689 4.755898 40.941956
v 10.731689 -4.755895 40.941956
v 10.731689 -4.755884 29.489700
v 10.731689 4.755898 29.489700
v -5.194214 4.755898 40.941956
v -5.194214 -4.755895 40.941956
v -5.194214 -4.755886 29.489700
v -5.194214 4.755898 29.489700
v -2.193237 -3.483826 8.640228
v -2.193359 3.483826 8.640228
v 7.024048 3.483826 8.640213
v 7.024048 -3.483826 8.640213
v -3.330933 -4.343839 3.763977
v -3.331177 4.343839 3.763977
v 8.161865 4.343839 3.763977
v 8.161865 -4.343839 3.763977
vt 0.171345 0.477572
vt 0.171345 0.477572
vt 0.171345 0.477572
vt 0.171345 0.477572
vt 0.171345 0.477572
vt 0.171345 0.477572
vt 0.171345 0.477572
vt 0.171345 0.477572
vt 0.171345 0.477572
vt 0.171345 0.477572
vt 0.171345 0.477572
vt 0.171345 0.477572
vt 0.171345 0.477572
vt 0.171345 0.477572
vt 0.264925 0.477572
vt 0.264925 0.477572
vt 0.264925 0.477572
vt 0.264925 0.477572
vt 0.236575 0.398205
vt 0.236575 0.398205
vt 0.236575 0.398205
vt 0.236575 0.398205
vt 0.359377 0.398205
vt 0.359377 0.398205
vt 0.359377 0.398205
vt 0.359377 0.398205
vt 0.297998 0.398205
vt 0.297998 0.398205
vt 0.297998 0.398205
vt 0.297998 0.398205
vt 0.236575 0.398205
vt 0.236575 0.398205
vt 0.236575 0.398205
vt 0.236575 0.398205
vt 0.171345 0.398205
vt 0.171345 0.398205
vt 0.171345 0.398205
vt 0.171345 0.398205
vt 0.359377 0.398205
vt 0.359377 0.398205
vt 0.359377 0.398205
vt 0.359377 0.398205
vt 0.236575 0.398205
vt 0.171345 0.398205
vt 0.236575 0.398205
vt 0.297998 0.398205
vt 0.297998 0.398205
vt 0.236575 0.398205
vt 0.236575 0.398205
vt 0.171345 0.398205
vt 0.236575 0.398205
vt 0.171345 0.398205
vt 0.236575 0.398205
vt 0.297998 0.398205
vt 0.297998 0.398205
vt 0.236575 0.398205
vt 0.236575 0.398205
vt 0.171345 0.398205
vt 0.264925 0.477572
vt 0.264925 0.477572
vt 0.264925 0.477572
vt 0.264925 0.477572
vt 0.264925 0.477572
vt 0.264925 0.477572
vt 0.264925 0.477572
vt 0.264925 0.477572
vt 0.264925 0.477572
vt 0.264925 0.477572
vt 0.264925 0.477572
vt 0.264925 0.477572
vt 0.264925 0.477572
vt 0.264925 0.477572
vt 0.264925 0.477572
vt 0.264925 0.477572
vt 0.264925 0.477572
vt 0.264925 0.477572
vt 0.264925 0.477572
vt 0.264925 0.477572
vt 0.264925 0.477572
vt 0.264925 0.477572
vt 0.264925 0.477572
vt 0.264925 0.477572
vt 0.264925 0.477572
vt 0.264925 0.477572
vt 0.264925 0.477572
vt 0.264925 0.477572
vt 0.328519 0.477572
vt 0.328519 0.477572
vt 0.328519 0.477572
vt 0.328519 0.477572
vt 0.328519 0.477572
vt 0.328519 0.477572
vt 0.328519 0.477572
vt 0.328519 0.477572
vt 0.328519 0.477572
vt 0.328519 0.477572
vt 0.328519 0.477572
vt 0.328519 0.477572
vt 0.328519 0.477572
vt 0.328519 0.477572
vt 0.328519 0.477572
vt 0.328519 0.477572
vt 0.328519 0.477572
vt 0.236575 0.477572
vt 0.236575 0.477572
vt 0.236575 0.477572
vt 0.236575 0.477572
vt 0.236575 0.477572
vt 0.236575 0.477572
vt 0.236575 0.477572
vt 0.236575 0.477572
vt 0.236575 0.477572
vt 0.236575 0.477572
vt 0.236575 0.477572
vt 0.236575 0.477572
vt 0.236575 0.477572
vt 0.236575 0.477572
vt 0.236575 0.477572
vt 0.236575 0.477572
vt 0.236575 0.477572
vt 0.297998 0.477572
vt 0.297998 0.477572
vt 0.297998 0.477572
vt 0.297998 0.477572
vt 0.202875 0.477572
vt 0.202875 0.477572
vt 0.202875 0.477572
vt 0.202875 0.477572
vt 0.236575 0.477572
vt 0.236575 0.477572
vt 0.236575 0.477572
vt 0.236575 0.477572
vt 0.236575 0.477572
vt 0.236575 0.477572
vt 0.236575 0.477572
vt 0.236575 0.477572
vn -0.515928 0.000000 -0.856632
vn -0.515928 0.000000 -0.856632
vn -0.515928 0.000000 -0.856632
vn -0.515928 0.000000 -0.856632
vn -0.782575 0.000000 0.622556
vn -0.782575 0.000000 0.622556
vn -0.782575 0.000000 0.622556
vn 0.112636 0.000000 -0.993636
vn 0.112636 0.000000 -0.993636
vn 0.112636 0.000000 -0.993636
vn -0.515929 0.000000 -0.856631
vn -0.515929 0.000000 -0.856631
vn -0.515929 0.000000 -0.856631
vn -0.515929 0.000000 -0.856631
vn -0.090627 -0.907351 -0.410489
vn -0.090627 -0.907351 -0.410489
vn -0.090627 -0.907351 -0.410489
vn -0.090627 -0.907351 -0.410489
vn 0.345327 -0.084914 -0.934633
vn 0.345327 -0.084914 -0.934633
vn 0.345327 -0.084914 -0.934633
vn 0.345327 -0.084914 -0.934633
vn 0.000000 1.000000 0.000000
vn 0.000000 1.000000 0.000000
vn 0.000000 1.000000 0.000000
vn 0.000000 1.000000 0.000000
vn -0.785141 0.003623 0.619307
vn -0.785141 0.003623 0.619307
vn -0.785141 0.003623 0.619307
vn -0.785141 0.003623 0.619307
vn 0.000001 -1.000000 -0.000002
vn 0.000001 -1.000000 -0.000002
vn 0.000001 -1.000000 -0.000002
vn 0.000001 -1.000000 -0.000002
vn 0.345327 0.084915 -0.934633
vn 0.345327 0.084915 -0.934633
vn 0.345327 0.084915 -0.934633
vn 0.345327 0.084915 -0.934633
vn -0.090629 0.907351 -0.410488
vn -0.090629 0.907351 -0.410488
vn -0.090629 0.907351 -0.410488
vn -0.090629 0.907351 -0.410488
vn -0.785141 -0.003622 0.619307
vn -0.785141 -0.003622 0.619307
vn -0.785141 -0.003622 0.619307
vn -0.785141 -0.003622 0.619307
vn 0.000000 0.000000 -1.000000
vn 0.000000 0.000000 -1.000000
vn 0.000000 0.000000 -1.000000
vn 0.000000 0.000000 -1.000000
vn 0.000000 1.000000 0.000000
vn 0.000000 1.000000 0.000000
vn 0.000000 1.000000 0.000000
vn 0.000000 1.000000 0.000000
vn 1.000000 0.000009 0.000009
vn 1.000000 0.000009 0.000009
vn 1.000000 0.000009 0.000009
vn 1.000000 0.000009 0.000009
vn 0.000001 -1.000000 -0.000001
vn 0.000001 -1.000000 -0.000001
vn 0.000001 -1.000000 -0.000001
vn 0.000001 -1.000000 -0.000001
vn 0.000000 0.000000 1.000000
vn 0.000000 0.000000 1.000000
vn 0.000000 0.000000 1.000000
vn 0.000000 0.000000 1.000000
vn -1.000000 -0.000028 0.000000
vn -1.000000 -0.000028 0.000000
vn -1.000000 -0.000028 0.000000
vn -1.000000 -0.000028 0.000000
vn 0.000000 0.000000 -1.000000
vn 0.000000 0.000000 -1.000000
vn 0.000000 0.000000 -1.000000
vn 0.000000 0.000000 -1.000000
vn 0.000000 1.000000 0.000000
vn 0.000000 1.000000 0.000000
vn 0.000000 1.000000 0.000000
vn 0.000000 1.000000 0.000000
vn 1.000000 0.000000 0.000000
vn 1.000000 0.000000 0.000000
vn 1.000000 0.000000 0.000000
vn 1.000000 0.000000 0.000000
vn 0.000000 -1.000000 0.000000
vn 0.000000 -1.000000 0.000000
vn 0.000000 -1.000000 0.000000
vn 0.000000 -1.000000 0.000000
vn 0.000002 0.000000 1.000000
vn 0.000002 0.000000 1.000000
vn 0.000002 0.000000 1.000000
vn 0.000002 0.000000 1.000000
vn -0.451881 0.000000 0.892078
vn -0.451881 0.000000 0.892078
vn -0.451881 0.000000 0.892078
vn -0.451881 0.000000 0.892078
vn -0.421504 -0.906827 -0.000512
vn -0.421504 -0.906827 -0.000512
vn -0.421504 -0.906827 -0.000512
vn -0.421504 -0.906827 -0.000512
vn -0.451895 -0.000010 -0.892071
vn -0.451894 -0.000010 -0.892071
vn -0.451895 -0.000010 -0.892071
vn -0.451894 -0.000010 -0.892071
vn -0.421525 0.906817 -0.000501
vn -0.421525 0.906817 -0.000501
vn -0.421525 0.906817 -0.000501
vn -0.421525 0.906817 -0.000501
vn 0.468337 0.000000 0.883550
vn 0.468337 0.000000 0.883550
vn 0.468337 0.000000 0.883550
vn 0.468337 0.000000 0.883550
vn 0.000001 -1.000000 -0.000001
vn 0.000001 -1.000000 -0.000001
vn 0.000001 -1.000000 -0.000001
vn 0.000001 -1.000000 -0.000001
vn 0.466335 0.000000 -0.884608
vn 0.466335 0.000000 -0.884608
vn 0.466335 0.000000 -0.884608
vn 0.466335 0.000000 -0.884608
vn 0.000000 1.000000 -0.000000
vn 0.000000 1.000000 -0.000000
vn 0.000000 1.000000 -0.000000
vn 0.000000 1.000000 -0.000000
vn 0.000000 0.000000 1.000000
vn 0.000000 0.000000 1.000000
vn 0.000000 0.000000 1.000000
vn 0.000000 0.000000 1.000000
vn 0.000000 -1.000000 -0.000001
vn 0.000000 -1.000000 -0.000001
vn 0.000000 -1.000000 -0.000001
vn 0.000000 -1.000000 -0.000001
vn 0.000000 0.000000 -1.000000
vn 0.000000 0.000000 -1.000000
vn 0.000000 0.000000 -1.000000
vn 0.000000 0.000000 -1.000000
vn 0.000000 1.000000 0.000000
vn 0.000000 1.000000 0.000000
vn 0.000000 1.000000 0.000000
vn 0.000000 1.000000 0.000000
vn -0.469593 0.000000 0.882883
vn -0.469593 0.000000 0.882883
vn -0.469593 0.000000 0.882883
vn -0.469593 0.000000 0.882883
vn 0.000001 -1.000000 -0.000001
vn 0.000001 -1.000000 -0.000001
vn 0.000001 -1.000000 -0.000001
vn 0.000001 -1.000000 -0.000001
vn 0.099558 0.000000 -0.995032
vn 0.099558 0.000000 -0.995032
vn 0.099558 0.000000 -0.995032
vn 0.099558 0.000000 -0.995032
vn 0.000000 1.000000 0.000000
vn 0.000000 1.000000 0.000000
vn 0.000000 1.000000 0.000000
vn 0.000000 1.000000 0.000000
vn -1.000000 -0.000009 0.000002
vn -1.000000 -0.000009 0.000002
vn -1.000000 -0.000009 0.000002
vn -1.000000 -0.000009 0.000002
vn 0.000000 1.000000 0.000000
vn 0.000000 1.000000 0.000000
vn 0.000000 1.000000 0.000000
vn 0.000000 1.000000 0.000000
vn 1.000000 0.000000 0.000000
vn 1.000000 0.000000 0.000000
vn 1.000000 0.000000 0.000000
vn 1.000000 0.000000 0.000000
vn 0.000000 -1.000000 0.000000
vn 0.000000 -1.000000 0.000000
vn 0.000000 -1.000000 0.000000
vn 0.000000 -1.000000 0.000000
vn -0.973843 -0.000023 0.227223
vn -0.973843 -0.000023 0.227223
vn -0.973843 -0.000023 0.227223
vn -0.973843 -0.000023 0.227223
vn 0.000000 0.984801 0.173687
vn 0.000000 0.984801 0.173687
vn 0.000000 0.984801 0.173687
vn 0.000000 0.984801 0.173687
vn 0.973840 0.000000 0.227235
vn 0.973840 0.000000 0.227235
vn 0.973840 0.000000 0.227235
vn 0.973840 0.000000 0.227235
vn 0.000000 -0.984801 0.173687
vn 0.000000 -0.984801 0.173687
vn 0.000000 -0.984801 0.173687
vn 0.000000 -0.984801 0.173687
s off
f 11/1/1 14/4/2 13/3/3 12/2/4
f 4/98/5 5/99/6 3/97/7
f 1/104/8 6/105/9 2/106/10
f 8/5/11 10/8/12 9/7/13 7/6/14
f 5/9/15 8/12/16 7/11/17 6/10/18
f 2/106/19 6/105/20 7/109/21 9/110/22
f 4/59/23 2/60/24 9/61/25 10/62/26
f 5/99/27 4/98/28 10/100/29 8/101/30
f 1/69/31 3/70/32 11/71/33 12/72/34
f 6/105/35 1/104/36 12/107/37 13/108/38
f 6/10/39 13/14/40 14/13/41 5/9/42
f 3/97/43 5/99/44 14/102/45 11/103/46
f 30/117/47 18/118/48 17/119/49 29/120/50
f 16/79/51 18/80/52 30/81/53 27/82/54
f 18/15/55 16/16/56 15/17/57 17/18/58
f 17/83/59 15/84/60 28/85/61 29/86/62
f 16/87/63 27/88/64 28/89/65 15/90/66
f 47/51/67 48/53/68 24/21/69 23/22/70
f 23/23/71 24/24/72 26/25/73 25/26/74
f 48/54/75 49/55/76 26/28/77 24/29/78
f 26/31/79 49/56/80 50/57/81 25/34/82
f 25/35/83 50/58/84 47/52/85 23/38/86
f 21/39/87 19/40/88 20/41/89 22/42/90
f 31/121/91 32/122/92 28/123/93 27/124/94
f 32/129/95 33/130/96 29/131/97 28/132/98
f 30/125/99 29/126/100 33/127/101 34/128/102
f 27/133/103 30/134/104 34/135/105 31/136/106
f 35/91/107 36/92/108 32/93/109 31/94/110
f 36/76/111 37/75/112 33/77/113 32/78/114
f 34/115/115 33/116/116 37/114/117 38/113/118
f 31/67/119 34/68/120 38/66/121 35/65/122
f 39/95/123 40/96/124 36/92/125 35/91/126
f 40/74/127 41/73/128 37/75/129 36/76/130
f 38/113/131 37/114/132 41/112/133 42/111/134
f 35/65/135 38/66/136 42/64/137 39/63/138
f 3/97/139 40/96/140 39/95/141 4/98/142
f 1/69/143 41/73/144 40/74/145 3/70/146
f 42/111/147 41/112/148 1/104/149 2/106/150
f 4/59/151 39/63/152 42/64/153 2/60/154
f 21/19/155 22/20/156 44/45/157 43/43/158
f 20/27/159 45/47/160 44/46/161 22/30/162
f 46/49/163 45/48/164 20/32/165 19/33/166
f 43/44/167 46/50/168 19/36/169 21/37/170
f 43/43/171 44/45/172 48/53/173 47/51/174
f 44/46/175 45/47/176 49/55/177 48/54/178
f 50/57/179 49/56/180 45/48/181 46/49/182
f 47/52/183 50/58/184 46/50/185 43/44/186
