# This file uses centimeters as units for non-parametric coordinates.

v 3.641205 22.588547 36.797089
v 3.641205 24.824265 36.797089
v -8.808331 22.588547 36.797089
v -8.808331 24.824265 36.797089
v -8.808331 22.588547 29.747408
v -8.808331 24.824265 29.747408
v 3.641205 22.588547 29.747408
v 3.641205 24.824265 29.747408
v -1.143375 22.588547 29.747408
v -1.143375 24.824265 29.747408
v -1.143375 24.824265 36.797089
v -1.143375 22.588547 36.797089
v 0.734589 22.588547 29.747408
v 0.734589 24.824265 29.747408
v 0.734589 24.824265 36.797089
v 0.734589 22.588547 36.797089
v 3.641205 22.588547 -29.747410
v 3.641205 24.824265 -29.747410
v -8.808331 22.588547 -29.747410
v -8.808331 24.824265 -29.747410
v -8.808331 22.588547 -36.797085
v -8.808331 24.824265 -36.797085
v 3.641205 22.588547 -36.797085
v 3.641205 24.824265 -36.797085
v -1.143375 22.588547 -36.797085
v -1.143375 24.824265 -36.797085
v -1.143375 24.824265 -29.747410
v -1.143375 22.588547 -29.747410
v 0.734589 22.588547 -36.797085
v 0.734589 24.824265 -36.797085
v 0.734589 24.824265 -29.747410
v 0.734589 22.588547 -29.747410
v -2.839321 22.293961 17.269911
v 7.601921 22.293961 17.269911
v -2.839321 38.291321 17.269911
v 7.601921 38.291321 17.269911
v -2.839321 38.291321 -17.269911
v 7.601921 38.291321 -17.269911
v -2.839321 22.293961 -17.269911
v 7.601921 22.293961 -17.269911
v -2.839321 22.293961 -8.634955
v 7.601921 22.293961 -8.634955
v -2.839321 22.293961 8.634954
v 7.601921 22.293961 8.634954
v 7.601921 30.292648 -8.634955
v -2.839321 30.292648 -8.634955
v -2.839321 30.292648 8.634954
v 7.601921 30.292648 8.634954
v -12.567715 -38.291321 45.324635
v 12.567719 -38.291321 45.324635
v -12.567715 22.293961 45.324635
v 12.567719 22.293961 45.324635
v -12.567715 22.293961 -45.324635
v 12.567719 22.293961 -45.324635
v -12.567715 -38.291321 -45.324635
v 12.567719 -38.291321 -45.324635
v -3.006802 22.293961 -45.324635
v -3.006802 -38.291321 -45.324635
v -3.006802 -38.291321 45.324635
v -3.006802 22.293961 45.324635
v -5.587009 22.293961 -45.324635
v -5.587009 -38.291321 -45.324635
v -5.587009 -38.291321 45.324635
v -5.587009 22.293961 45.324635
vt 0.109982 0.398205
vt 0.109982 0.398205
vt 0.109982 0.398205
vt 0.109982 0.398205
vt 0.202875 0.398205
vt 0.202875 0.398205
vt 0.202875 0.398205
vt 0.202875 0.398205
vt 0.109982 0.398205
vt 0.109982 0.398205
vt 0.109982 0.398205
vt 0.109982 0.398205
vt 0.141447 0.398205
vt 0.141447 0.398205
vt 0.141447 0.398205
vt 0.141447 0.398205
vt 0.141447 0.398205
vt 0.141447 0.398205
vt 0.141447 0.398205
vt 0.141447 0.398205
vt 0.015798 0.477572
vt 0.015798 0.477572
vt 0.015798 0.477572
vt 0.015798 0.477572
vt 0.015798 0.477572
vt 0.015798 0.477572
vt 0.015798 0.477572
vt 0.015798 0.477572
vt 0.141447 0.398205
vt 0.141447 0.398205
vt 0.141447 0.398205
vt 0.141447 0.398205
vt 0.141447 0.398205
vt 0.141447 0.398205
vt 0.141447 0.398205
vt 0.141447 0.398205
vt 0.109982 0.398205
vt 0.109982 0.398205
vt 0.109982 0.398205
vt 0.109982 0.398205
vt 0.171345 0.398205
vt 0.171345 0.398205
vt 0.171345 0.398205
vt 0.171345 0.398205
vt 0.109982 0.398205
vt 0.109982 0.398205
vt 0.109982 0.398205
vt 0.109982 0.398205
vt 0.171345 0.398205
vt 0.171345 0.398205
vt 0.171345 0.398205
vt 0.171345 0.398205
vt 0.141447 0.398205
vt 0.141447 0.398205
vt 0.141447 0.398205
vt 0.141447 0.398205
vt 0.141447 0.398205
vt 0.141447 0.398205
vt 0.141447 0.398205
vt 0.141447 0.398205
vt 0.109982 0.398205
vt 0.109982 0.398205
vt 0.109982 0.398205
vt 0.109982 0.398205
vt 0.171345 0.398205
vt 0.171345 0.398205
vt 0.171345 0.398205
vt 0.171345 0.398205
vt 0.109982 0.398205
vt 0.109982 0.398205
vt 0.109982 0.398205
vt 0.109982 0.398205
vt 0.171345 0.398205
vt 0.171345 0.398205
vt 0.171345 0.398205
vt 0.171345 0.398205
vt 0.015798 0.477572
vt 0.015798 0.477572
vt 0.015798 0.477572
vt 0.015798 0.477572
vt 0.015798 0.477572
vt 0.015798 0.477572
vt 0.015798 0.477572
vt 0.015798 0.477572
vt 0.015798 0.477572
vt 0.015798 0.477572
vt 0.015798 0.477572
vt 0.015798 0.477572
vt 0.015798 0.477572
vt 0.015798 0.477572
vt 0.015798 0.477572
vt 0.015798 0.477572
vt 0.236575 0.477572
vt 0.236575 0.477572
vt 0.015798 0.398205
vt 0.015798 0.398205
vt 0.015798 0.398205
vt 0.236575 0.477572
vt 0.236575 0.477572
vt 0.236575 0.477572
vt 0.328519 0.477572
vt 0.328519 0.477572
vt 0.328519 0.477572
vt 0.328519 0.477572
vt 0.236575 0.477572
vt 0.015798 0.398205
vt 0.236575 0.477572
vt 0.236575 0.477572
vt 0.015798 0.398205
vt 0.236575 0.477572
vt 0.236575 0.477572
vt 0.236575 0.477572
vt 0.297998 0.477572
vt 0.297998 0.477572
vt 0.015798 0.398205
vt 0.015798 0.398205
vt 0.297998 0.477572
vt 0.297998 0.477572
vt 0.297998 0.477572
vt 0.297998 0.477572
vt 0.202875 0.398205
vt 0.202875 0.398205
vt 0.202875 0.398205
vt 0.202875 0.398205
vt 0.236575 0.477572
vt 0.236575 0.477572
vt 0.015798 0.398205
vt 0.015798 0.398205
vt 0.015798 0.398205
vt 0.236575 0.477572
vt 0.236575 0.477572
vt 0.236575 0.477572
vt 0.328519 0.477572
vt 0.328519 0.477572
vt 0.328519 0.477572
vt 0.328519 0.477572
vt 0.236575 0.477572
vt 0.015798 0.398205
vt 0.236575 0.477572
vt 0.236575 0.477572
vt 0.015798 0.398205
vt 0.236575 0.477572
vt 0.236575 0.477572
vt 0.236575 0.477572
vt 0.297998 0.477572
vt 0.297998 0.477572
vt 0.015798 0.398205
vt 0.236575 0.477572
vt 0.297998 0.477572
vt 0.297998 0.477572
vt 0.297998 0.477572
vt 0.297998 0.477572
vt 0.202875 0.398205
vt 0.202875 0.398205
vt 0.202875 0.398205
vt 0.202875 0.398205
vt 0.297998 0.477572
vt 0.236575 0.477572
vt 0.236575 0.477572
vt 0.236575 0.477572
vt 0.297998 0.477572
vt 0.015798 0.398205
vt 0.236575 0.477572
vt 0.236575 0.477572
vt 0.015798 0.398205
vt 0.015798 0.398205
vt 0.297998 0.477572
vt 0.236575 0.477572
vt 0.297998 0.477572
vt 0.236575 0.477572
vt 0.236575 0.477572
vt 0.236575 0.477572
vn 0.000000 0.000000 1.000000
vn 0.000000 0.000000 1.000000
vn 0.000000 0.000000 1.000000
vn 0.000000 0.000000 1.000000
vn -1.000000 0.000000 0.000000
vn -1.000000 0.000000 0.000000
vn -1.000000 0.000000 0.000000
vn -1.000000 0.000000 0.000000
vn 0.000000 0.000000 -1.000000
vn 0.000000 0.000000 -1.000000
vn 0.000000 0.000000 -1.000000
vn 0.000000 0.000000 -1.000000
vn 0.000000 1.000000 0.000000
vn 0.000000 1.000000 0.000000
vn 0.000000 1.000000 0.000000
vn 0.000000 1.000000 0.000000
vn 1.000000 0.000000 0.000000
vn 1.000000 0.000000 0.000000
vn 1.000000 0.000000 0.000000
vn 1.000000 0.000000 0.000000
vn 0.000000 0.000000 -1.000000
vn 0.000000 0.000000 -1.000000
vn 0.000000 0.000000 -1.000000
vn 0.000000 0.000000 -1.000000
vn 0.000000 1.000000 0.000000
vn 0.000000 1.000000 0.000000
vn 0.000000 1.000000 0.000000
vn 0.000000 1.000000 0.000000
vn 0.000000 0.000000 1.000000
vn 0.000000 0.000000 1.000000
vn 0.000000 0.000000 1.000000
vn 0.000000 0.000000 1.000000
vn 0.000000 0.000000 -1.000000
vn 0.000000 0.000000 -1.000000
vn 0.000000 0.000000 -1.000000
vn 0.000000 0.000000 -1.000000
vn 0.000000 1.000000 0.000000
vn 0.000000 1.000000 0.000000
vn 0.000000 1.000000 0.000000
vn 0.000000 1.000000 0.000000
vn 0.000000 0.000000 1.000000
vn 0.000000 0.000000 1.000000
vn 0.000000 0.000000 1.000000
vn 0.000000 0.000000 1.000000
vn 0.000000 0.000000 1.000000
vn 0.000000 0.000000 1.000000
vn 0.000000 0.000000 1.000000
vn 0.000000 0.000000 1.000000
vn -1.000000 0.000000 0.000000
vn -1.000000 0.000000 0.000000
vn -1.000000 0.000000 0.000000
vn -1.000000 0.000000 0.000000
vn 0.000000 0.000000 -1.000000
vn 0.000000 0.000000 -1.000000
vn 0.000000 0.000000 -1.000000
vn 0.000000 0.000000 -1.000000
vn 0.000000 1.000000 0.000000
vn 0.000000 1.000000 0.000000
vn 0.000000 1.000000 0.000000
vn 0.000000 1.000000 0.000000
vn 1.000000 0.000000 0.000000
vn 1.000000 0.000000 0.000000
vn 1.000000 0.000000 0.000000
vn 1.000000 0.000000 0.000000
vn 0.000000 0.000000 -1.000000
vn 0.000000 0.000000 -1.000000
vn 0.000000 0.000000 -1.000000
vn 0.000000 0.000000 -1.000000
vn 0.000000 1.000000 0.000000
vn 0.000000 1.000000 0.000000
vn 0.000000 1.000000 0.000000
vn 0.000000 1.000000 0.000000
vn 0.000000 0.000000 1.000000
vn 0.000000 0.000000 1.000000
vn 0.000000 0.000000 1.000000
vn 0.000000 0.000000 1.000000
vn 0.000000 0.000000 -1.000000
vn 0.000000 0.000000 -1.000000
vn 0.000000 0.000000 -1.000000
vn 0.000000 0.000000 -1.000000
vn 0.000000 1.000000 0.000000
vn 0.000000 1.000000 0.000000
vn 0.000000 1.000000 0.000000
vn 0.000000 1.000000 0.000000
vn 0.000000 0.000000 1.000000
vn 0.000000 0.000000 1.000000
vn 0.000000 0.000000 1.000000
vn 0.000000 0.000000 1.000000
vn 0.000000 0.000000 1.000000
vn 0.000000 0.000000 1.000000
vn 0.000000 0.000000 1.000000
vn 0.000000 0.000000 1.000000
vn 0.000000 1.000000 0.000000
vn 0.000000 1.000000 0.000000
vn 0.000000 1.000000 0.000000
vn 0.000000 1.000000 0.000000
vn 0.000000 0.000000 -1.000000
vn 0.000000 0.000000 -1.000000
vn 0.000000 0.000000 -1.000000
vn 0.000000 0.000000 -1.000000
vn 1.000000 -0.000000 0.000000
vn 1.000000 -0.000000 0.000000
vn 1.000000 -0.000000 0.000000
vn 1.000000 -0.000000 0.000000
vn -1.000000 -0.000000 0.000000
vn -1.000000 -0.000000 0.000000
vn -1.000000 -0.000000 0.000000
vn -1.000000 -0.000000 0.000000
vn 1.000000 0.000000 0.000000
vn 1.000000 0.000000 0.000000
vn 1.000000 0.000000 0.000000
vn 1.000000 0.000000 0.000000
vn -1.000000 0.000000 0.000000
vn -1.000000 0.000000 0.000000
vn -1.000000 0.000000 0.000000
vn -1.000000 0.000000 0.000000
vn 1.000000 0.000000 0.000000
vn 1.000000 0.000000 0.000000
vn 1.000000 0.000000 0.000000
vn 1.000000 0.000000 0.000000
vn 1.000000 0.000000 0.000000
vn 1.000000 0.000000 0.000000
vn 1.000000 0.000000 0.000000
vn 1.000000 0.000000 0.000000
vn -1.000000 0.000000 0.000000
vn -1.000000 0.000000 0.000000
vn -1.000000 0.000000 0.000000
vn -1.000000 0.000000 0.000000
vn -1.000000 0.000000 0.000000
vn -1.000000 0.000000 0.000000
vn -1.000000 0.000000 0.000000
vn -1.000000 0.000000 0.000000
vn 0.000000 0.000000 1.000000
vn 0.000000 0.000000 1.000000
vn 0.000000 0.000000 1.000000
vn 0.000000 0.000000 1.000000
vn 0.000000 1.000000 0.000000
vn 0.000000 1.000000 0.000000
vn 0.000000 1.000000 0.000000
vn 0.000000 1.000000 0.000000
vn 0.000000 0.000000 -1.000000
vn 0.000000 0.000000 -1.000000
vn 0.000000 0.000000 -1.000000
vn 0.000000 0.000000 -1.000000
vn 0.000000 -1.000000 0.000000
vn 0.000000 -1.000000 0.000000
vn 0.000000 -1.000000 0.000000
vn 0.000000 -1.000000 0.000000
vn 1.000000 0.000000 0.000000
vn 1.000000 0.000000 0.000000
vn 1.000000 0.000000 0.000000
vn 1.000000 0.000000 0.000000
vn -1.000000 0.000000 0.000000
vn -1.000000 0.000000 0.000000
vn -1.000000 0.000000 0.000000
vn -1.000000 0.000000 0.000000
vn 0.000000 0.000000 -1.000000
vn 0.000000 0.000000 -1.000000
vn 0.000000 0.000000 -1.000000
vn 0.000000 0.000000 -1.000000
vn 0.000000 -1.000000 0.000000
vn 0.000000 -1.000000 0.000000
vn 0.000000 -1.000000 0.000000
vn 0.000000 -1.000000 0.000000
vn 0.000000 0.000000 1.000000
vn 0.000000 0.000000 1.000000
vn 0.000000 0.000000 1.000000
vn 0.000000 0.000000 1.000000
vn 0.000000 1.000000 0.000000
vn 0.000000 1.000000 0.000000
vn 0.000000 1.000000 0.000000
vn 0.000000 1.000000 0.000000
vn 0.000000 0.000000 -1.000000
vn 0.000000 0.000000 -1.000000
vn 0.000000 0.000000 -1.000000
vn 0.000000 0.000000 -1.000000
vn 0.000000 -1.000000 0.000000
vn 0.000000 -1.000000 0.000000
vn 0.000000 -1.000000 0.000000
vn 0.000000 -1.000000 0.000000
vn 0.000000 0.000000 1.000000
vn 0.000000 0.000000 1.000000
vn 0.000000 0.000000 1.000000
vn 0.000000 0.000000 1.000000
vn 0.000000 1.000000 0.000000
vn 0.000000 1.000000 0.000000
vn 0.000000 1.000000 0.000000
vn 0.000000 1.000000 0.000000
s off
f 1/93/1 2/94/2 15/170/3 16/171/4
f 4/101/5 6/102/6 5/103/7 3/104/8
f 13/105/9 14/172/10 8/107/11 7/108/12
f 2/113/13 8/114/14 14/167/15 15/169/16
f 1/121/17 7/122/18 8/123/19 2/124/20
f 6/111/21 10/110/22 9/148/23 5/112/24
f 11/118/25 10/117/26 6/119/27 4/120/28
f 12/98/29 11/164/30 4/99/31 3/100/32
f 9/109/33 10/116/34 14/106/35 13/147/36
f 15/95/37 14/106/38 10/116/39 11/97/40
f 16/96/41 15/95/42 11/97/43 12/115/44
f 17/125/45 18/126/46 31/158/47 32/159/48
f 20/133/49 22/134/50 21/135/51 19/136/52
f 29/137/53 30/160/54 24/139/55 23/140/56
f 18/145/57 24/146/58 30/161/59 31/157/60
f 17/153/61 23/154/62 24/155/63 18/156/64
f 22/143/65 26/142/66 25/168/67 21/144/68
f 27/150/69 26/149/70 22/151/71 20/152/72
f 28/130/73 27/163/74 20/131/75 19/132/76
f 25/141/77 26/166/78 30/138/79 29/162/80
f 31/127/81 30/138/82 26/166/83 27/129/84
f 32/128/85 31/127/86 27/129/87 28/165/88
f 36/1/89 35/2/90 33/3/91 34/4/92
f 38/5/93 37/6/94 35/7/95 36/8/96
f 37/9/97 38/10/98 40/11/99 39/12/100
f 45/13/101 38/14/102 36/15/103 48/16/104
f 35/17/105 37/18/106 46/19/107 47/20/108
f 44/21/109 42/22/110 45/23/111 48/24/112
f 46/25/113 41/26/114 43/27/115 47/28/116
f 48/16/117 36/15/118 34/29/119 44/30/120
f 38/14/121 45/13/122 42/31/123 40/32/124
f 46/19/125 37/18/126 39/33/127 41/34/128
f 35/17/129 47/20/130 43/35/131 33/36/132
f 49/37/133 63/38/134 64/39/135 51/40/136
f 51/41/137 64/42/138 61/43/139 53/44/140
f 53/45/141 61/46/142 62/47/143 55/48/144
f 63/49/145 49/50/146 55/51/147 62/52/148
f 54/53/149 52/54/150 50/55/151 56/56/152
f 49/57/153 51/58/154 53/59/155 55/60/156
f 58/61/157 57/62/158 54/63/159 56/64/160
f 50/65/161 59/66/162 58/67/163 56/68/164
f 60/69/165 59/70/166 50/71/167 52/72/168
f 60/73/169 52/74/170 54/75/171 57/76/172
f 62/77/173 61/78/174 57/79/175 58/80/176
f 59/81/177 63/82/178 62/83/179 58/84/180
f 64/85/181 63/86/182 59/87/183 60/88/184
f 64/89/185 60/90/186 57/91/187 61/92/188
