# This file uses centimeters as units for non-parametric coordinates.

v 5.134560 5.134552 -37.723251
v -5.134560 5.134552 -37.723251
v 3.639893 3.639845 -4.945442
v -3.639832 3.639845 -4.945442
v 3.639893 -3.639843 -4.945438
v -3.639832 -3.639843 -4.945438
v 5.134560 -5.134567 -37.723251
v -5.134560 -5.134567 -37.723251
v 5.290405 5.290356 -2.489761
v -5.290344 5.290356 -2.489761
v -5.290344 -5.290356 -2.489761
v 5.290405 -5.290356 -2.489761
v 5.290405 5.290356 0.630081
v -5.290344 5.290356 0.630081
v -5.290344 -5.290356 0.630074
v 5.290405 -5.290356 0.630074
v 1.352783 1.352821 0.630074
v -1.353027 1.352821 0.630074
v -1.353027 -1.352821 0.630074
v 1.352783 -1.352821 0.630074
v 1.352783 1.352814 30.459145
v -1.353027 1.352814 30.459145
v -1.353027 -1.352829 30.459148
v 1.352783 -1.352829 30.459148
v 2.283937 1.352814 34.090401
v -2.284058 1.352814 34.090401
v -2.284058 -1.352829 34.090401
v 2.283937 -1.352829 34.090401
v 2.283937 0.391998 37.723251
v -2.284058 0.391998 37.723251
v -2.284058 -0.391998 37.723251
v 2.283937 -0.391998 37.723251
v -5.134560 5.134561 -13.358170
v 5.134560 5.134561 -13.358170
v 5.134560 -5.134562 -13.358170
v -5.134560 -5.134562 -13.358170
v -3.639832 3.639845 -8.604988
v 3.639893 3.639845 -8.604988
v 3.639893 -3.639845 -8.604992
v -3.639832 -3.639845 -8.604992
vt 0.236575 0.331011
vt 0.297998 0.331011
vt 0.264925 0.331011
vt 0.297998 0.331011
vt 0.202875 0.331011
vt 0.236575 0.331011
vt 0.202875 0.331011
vt 0.297998 0.331011
vt 0.202875 0.331011
vt 0.202875 0.331011
vt 0.236575 0.331011
vt 0.264925 0.331011
vt 0.236575 0.331011
vt 0.264925 0.331011
vt 0.297998 0.331011
vt 0.236575 0.331011
vt 0.297998 0.331011
vt 0.236575 0.331011
vt 0.359377 0.331011
vt 0.359377 0.331011
vt 0.359377 0.331011
vt 0.359377 0.331011
vt 0.297998 0.477572
vt 0.236575 0.477572
vt 0.297998 0.477572
vt 0.236575 0.477572
vt 0.297998 0.477572
vt 0.202875 0.477572
vt 0.297998 0.477572
vt 0.202875 0.477572
vt 0.297998 0.477572
vt 0.236575 0.477572
vt 0.297998 0.477572
vt 0.236575 0.477572
vt 0.328519 0.477572
vt 0.236575 0.477572
vt 0.297998 0.477572
vt 0.236575 0.477572
vt 0.236575 0.331011
vt 0.297998 0.331011
vt 0.297998 0.331011
vt 0.297998 0.331011
vt 0.328519 0.331011
vt 0.236575 0.331011
vt 0.297998 0.331011
vt 0.264925 0.331011
vt 0.264925 0.331011
vt 0.297998 0.331011
vt 0.297998 0.331011
vt 0.264925 0.331011
vt 0.328519 0.331011
vt 0.297998 0.331011
vt 0.328519 0.331011
vt 0.297998 0.331011
vt 0.264925 0.331011
vt 0.297998 0.331011
vt 0.328519 0.331011
vt 0.297998 0.331011
vt 0.297998 0.331011
vt 0.297998 0.331011
vt 0.328519 0.331011
vt 0.297998 0.331011
vt 0.236575 0.331011
vt 0.328519 0.331011
vt 0.202875 0.331011
vt 0.236575 0.331011
vt 0.297998 0.331011
vt 0.236575 0.331011
vt 0.202875 0.331011
vt 0.264925 0.331011
vt 0.297998 0.331011
vt 0.328519 0.331011
vt 0.297998 0.331011
vt 0.202875 0.331011
vt 0.328519 0.331011
vt 0.297998 0.331011
vt 0.236575 0.331011
vt 0.297998 0.331011
vt 0.359377 0.331011
vt 0.359377 0.331011
vt 0.359377 0.331011
vt 0.359377 0.331011
vt 0.359377 0.331011
vt 0.359377 0.331011
vt 0.236575 0.331011
vt 0.297998 0.331011
vt 0.359377 0.331011
vt 0.359377 0.331011
vt 0.359377 0.331011
vt 0.297998 0.331011
vt 0.236575 0.331011
vt 0.359377 0.331011
vt 0.236575 0.331011
vt 0.297998 0.331011
vt 0.359377 0.331011
vt 0.297998 0.331011
vt 0.236575 0.331011
vt 0.359377 0.331011
vt 0.202875 0.331011
vt 0.236575 0.331011
vt 0.297998 0.331011
vt 0.236575 0.331011
vt 0.202875 0.331011
vt 0.236575 0.331011
vt 0.202875 0.331011
vt 0.236575 0.331011
vt 0.297998 0.331011
vt 0.236575 0.331011
vt 0.202875 0.331011
vt 0.236575 0.331011
vt 0.297998 0.331011
vt 0.236575 0.331011
vt 0.297998 0.331011
vt 0.202875 0.331011
vt 0.236575 0.331011
vt 0.297998 0.331011
vt 0.236575 0.477572
vt 0.297998 0.477572
vt 0.202875 0.477572
vt 0.297998 0.477572
vt 0.236575 0.477572
vt 0.236575 0.477572
vt 0.202875 0.477572
vt 0.236575 0.477572
vt 0.236575 0.477572
vt 0.236575 0.477572
vt 0.297998 0.477572
vt 0.236575 0.477572
vt 0.236575 0.477572
vt 0.236575 0.477572
vt 0.297998 0.477572
vt 0.236575 0.477572
vt 0.202875 0.477572
vt 0.297998 0.477572
vt 0.297998 0.477572
vt 0.297998 0.477572
vt 0.202875 0.477572
vt 0.202875 0.477572
vt 0.297998 0.477572
vt 0.202875 0.477572
vt 0.328519 0.477572
vt 0.328519 0.477572
vt 0.297998 0.477572
vt 0.297998 0.477572
vt 0.297998 0.477572
vt 0.328519 0.477572
vt 0.297998 0.477572
vt 0.297998 0.477572
vt 0.297998 0.477572
vt 0.297998 0.477572
vt 0.297998 0.477572
vt 0.297998 0.477572
vn 0.000000 1.000000 -0.000000
vn 0.000000 1.000000 -0.000000
vn 0.000000 1.000000 -0.000000
vn 0.000000 1.000000 -0.000000
vn 0.000000 0.000000 1.000000
vn 0.000000 0.000000 1.000000
vn 0.000000 0.000000 1.000000
vn 0.000000 0.000000 1.000000
vn 0.000000 -1.000000 0.000000
vn 0.000000 -1.000000 0.000000
vn 0.000000 -1.000000 0.000000
vn 0.000000 -1.000000 0.000000
vn 0.000000 0.000000 -1.000000
vn 0.000000 0.000000 -1.000000
vn 0.000000 0.000000 -1.000000
vn 0.000000 0.000000 -1.000000
vn -1.000000 0.000000 0.000000
vn -1.000000 0.000000 0.000000
vn -1.000000 0.000000 0.000000
vn -1.000000 0.000000 0.000000
vn 1.000000 0.000000 0.000000
vn 1.000000 0.000000 0.000000
vn 1.000000 0.000000 0.000000
vn 1.000000 0.000000 0.000000
vn 0.000000 0.829956 -0.557829
vn 0.000000 0.829956 -0.557829
vn 0.000000 0.829956 -0.557829
vn 0.000000 0.829956 -0.557829
vn -0.829955 -0.000000 -0.557830
vn -0.829955 -0.000000 -0.557830
vn -0.829955 -0.000000 -0.557830
vn -0.829955 -0.000000 -0.557830
vn 0.000000 -0.829955 -0.557830
vn 0.000000 -0.829955 -0.557830
vn 0.000000 -0.829955 -0.557830
vn 0.000000 -0.829955 -0.557830
vn 0.829955 -0.000000 -0.557830
vn 0.829955 -0.000000 -0.557830
vn 0.829955 -0.000000 -0.557830
vn 0.829955 -0.000000 -0.557830
vn 0.000000 1.000000 0.000000
vn 0.000000 1.000000 0.000000
vn 0.000000 1.000000 0.000000
vn 0.000000 1.000000 0.000000
vn -1.000000 0.000000 0.000000
vn -1.000000 0.000000 0.000000
vn -1.000000 0.000000 0.000000
vn -1.000000 0.000000 0.000000
vn 0.000000 -1.000000 0.000000
vn 0.000000 -1.000000 0.000000
vn 0.000000 -1.000000 0.000000
vn 0.000000 -1.000000 0.000000
vn 1.000000 0.000000 0.000000
vn 1.000000 0.000000 0.000000
vn 1.000000 0.000000 0.000000
vn 1.000000 0.000000 0.000000
vn 0.000000 -0.000002 1.000000
vn 0.000000 -0.000002 1.000000
vn 0.000000 -0.000002 1.000000
vn 0.000000 -0.000002 1.000000
vn 0.000001 -0.000001 1.000000
vn 0.000001 -0.000001 1.000000
vn 0.000001 -0.000001 1.000000
vn 0.000001 -0.000001 1.000000
vn 0.000000 0.000000 1.000000
vn 0.000000 0.000000 1.000000
vn 0.000000 0.000000 1.000000
vn 0.000000 0.000000 1.000000
vn -0.000001 -0.000001 1.000000
vn -0.000001 -0.000001 1.000000
vn -0.000001 -0.000001 1.000000
vn -0.000001 -0.000001 1.000000
vn 0.000000 1.000000 0.000000
vn 0.000000 1.000000 0.000000
vn 0.000000 1.000000 0.000000
vn 0.000000 1.000000 0.000000
vn -1.000000 0.000000 0.000000
vn -1.000000 0.000000 0.000000
vn -1.000000 0.000000 0.000000
vn -1.000000 0.000000 0.000000
vn 0.000000 -1.000000 -0.000000
vn 0.000000 -1.000000 -0.000000
vn 0.000000 -1.000000 -0.000000
vn 0.000000 -1.000000 -0.000000
vn 1.000000 0.000000 0.000000
vn 1.000000 0.000000 0.000000
vn 1.000000 0.000000 0.000000
vn 1.000000 0.000000 0.000000
vn 0.000000 1.000000 -0.000000
vn 0.000000 1.000000 -0.000000
vn 0.000000 1.000000 -0.000000
vn 0.000000 1.000000 -0.000000
vn -0.968668 -0.000000 -0.248360
vn -0.968668 -0.000000 -0.248360
vn -0.968668 -0.000000 -0.248360
vn -0.968668 -0.000000 -0.248360
vn 0.000000 -1.000000 -0.000000
vn 0.000000 -1.000000 -0.000000
vn 0.000000 -1.000000 -0.000000
vn 0.000000 -1.000000 -0.000000
vn 0.968660 -0.000000 -0.248391
vn 0.968660 -0.000000 -0.248391
vn 0.968660 -0.000000 -0.248391
vn 0.968660 -0.000000 -0.248391
vn 0.000000 0.966759 0.255688
vn 0.000000 0.966759 0.255688
vn 0.000000 0.966759 0.255688
vn 0.000000 0.966759 0.255688
vn -1.000000 0.000000 0.000000
vn -1.000000 0.000000 0.000000
vn -1.000000 0.000000 0.000000
vn -1.000000 0.000000 0.000000
vn 0.000000 -0.966758 0.255692
vn 0.000000 -0.966758 0.255692
vn 0.000000 -0.966758 0.255692
vn 0.000000 -0.966758 0.255692
vn 1.000000 0.000000 0.000000
vn 1.000000 0.000000 0.000000
vn 1.000000 0.000000 0.000000
vn 1.000000 0.000000 0.000000
vn 0.000000 0.953944 0.299983
vn 0.000000 0.953945 0.299983
vn 0.000000 0.953944 0.299983
vn 0.000000 0.953944 0.299983
vn 0.953947 -0.000000 0.299975
vn 0.953947 -0.000000 0.299975
vn 0.953947 -0.000000 0.299975
vn 0.953947 -0.000000 0.299975
vn 0.000000 -0.953944 0.299984
vn 0.000000 -0.953944 0.299984
vn 0.000000 -0.953944 0.299984
vn 0.000000 -0.953944 0.299984
vn -0.953944 -0.000000 0.299986
vn -0.953944 -0.000000 0.299986
vn -0.953944 -0.000000 0.299986
vn -0.953944 -0.000000 0.299986
vn 0.000000 1.000000 0.000000
vn 0.000000 1.000000 0.000000
vn 0.000000 1.000000 0.000000
vn 0.000000 1.000000 0.000000
vn 1.000000 0.000000 0.000000
vn 1.000000 0.000000 0.000000
vn 1.000000 0.000000 0.000000
vn 1.000000 0.000000 0.000000
vn 0.000000 -1.000000 0.000001
vn 0.000000 -1.000000 0.000001
vn 0.000000 -1.000000 0.000001
vn 0.000000 -1.000000 0.000001
vn -1.000000 -0.000000 0.000000
vn -1.000000 -0.000000 0.000000
vn -1.000000 -0.000000 0.000000
vn -1.000000 -0.000000 0.000000
s off
f 1/116/1 2/2/2 33/71/3 34/76/4
f 29/35/5 30/146/6 31/142/7 32/141/8
f 35/42/9 36/58/10 8/8/11 7/78/12
f 7/7/13 8/74/14 2/10/15 1/9/16
f 2/115/17 8/11/18 36/44/19 33/39/20
f 7/13/21 1/1/22 34/77/23 35/63/24
f 3/66/25 4/68/26 10/106/27 9/108/28
f 4/69/29 6/114/30 11/103/31 10/105/32
f 6/6/33 5/112/34 12/100/35 11/102/36
f 5/5/37 3/65/38 9/109/39 12/99/40
f 9/15/41 10/107/42 14/94/43 13/96/44
f 10/16/45 11/104/46 15/91/47 14/93/48
f 11/17/49 12/101/50 16/86/51 15/90/52
f 12/18/53 9/110/54 13/97/55 16/85/56
f 13/19/57 14/95/58 18/89/59 17/79/60
f 14/20/61 15/92/62 19/84/63 18/88/64
f 15/21/65 16/87/66 20/82/67 19/83/68
f 16/22/69 13/98/70 17/80/71 20/81/72
f 17/23/73 18/131/74 22/139/75 21/152/76
f 18/24/77 19/130/78 23/129/79 22/128/80
f 19/25/81 20/127/82 24/135/83 23/150/84
f 20/26/85 17/132/86 21/125/87 24/126/88
f 21/27/89 22/151/90 26/136/91 25/148/92
f 22/28/93 23/138/94 27/137/95 26/123/96
f 23/29/97 24/149/98 28/134/99 27/144/100
f 24/30/101 21/140/102 25/133/103 28/119/104
f 25/31/105 26/147/106 30/120/107 29/145/108
f 26/32/109 27/122/110 31/121/111 30/36/112
f 27/33/113 28/143/114 32/118/115 31/37/116
f 28/34/117 25/124/118 29/117/119 32/38/120
f 34/75/121 33/72/122 37/53/123 38/61/124
f 35/41/125 34/40/126 38/62/127 39/56/128
f 39/57/129 40/51/130 36/43/131 35/64/132
f 33/73/133 36/59/134 40/52/135 37/45/136
f 38/60/137 37/54/138 4/4/139 3/67/140
f 39/47/141 38/46/142 3/3/143 5/14/144
f 5/111/145 6/113/146 40/49/147 39/48/148
f 37/55/149 40/50/150 6/12/151 4/70/152
