# This file uses centimeters as units for non-parametric coordinates.

v -9.487854 -5.946125 9.487793
v 9.487793 -5.946125 9.487793
v -9.487854 5.946125 9.487793
v 9.487793 5.946125 9.487793
v -9.487854 5.946125 -9.487793
v 9.487793 5.946125 -9.487793
v -9.487854 -5.946125 -9.487793
v 9.487793 -5.946125 -9.487793
v -8.523376 5.946125 8.523376
v 8.523315 5.946125 8.523376
v 8.523315 5.946125 -8.523315
v -8.523376 5.946125 -8.523315
v -4.183289 5.946125 4.183289
v 4.183228 5.946125 4.183289
v 4.183228 5.946125 -4.183289
v -4.183289 5.946125 -4.183289
v -3.053843 5.946125 3.053827
v 3.053782 5.946125 3.053827
v 3.053782 5.946125 -3.053827
v -3.053843 5.946125 -3.053827
vt 0.236575 0.398205
vt 0.297998 0.398205
vt 0.359377 0.398205
vt 0.236575 0.398205
vt 0.297998 0.398205
vt 0.359377 0.398205
vt 0.202875 0.398205
vt 0.297998 0.398205
vt 0.202875 0.398205
vt 0.202875 0.398205
vt 0.236575 0.398205
vt 0.236575 0.398205
vt 0.236575 0.398205
vt 0.236575 0.398205
vt 0.236575 0.398205
vt 0.297998 0.398205
vt 0.297998 0.398205
vt 0.236575 0.398205
vt 0.202875 0.398205
vt 0.297998 0.398205
vt 0.359377 0.398205
vt 0.297998 0.398205
vt 0.297998 0.398205
vt 0.359377 0.398205
vt 0.328519 0.421450
vt 0.328519 0.421450
vt 0.328519 0.421450
vt 0.328519 0.421450
vt 0.171345 0.477572
vt 0.171345 0.477572
vt 0.171345 0.477572
vt 0.171345 0.477572
vt 0.359377 0.444286
vt 0.171345 0.477572
vt 0.171345 0.477572
vt 0.171345 0.477572
vt 0.328519 0.421450
vt 0.328519 0.421450
vt 0.328519 0.421450
vt 0.328519 0.421450
vt 0.328519 0.421450
vt 0.328519 0.421450
vt 0.359377 0.398205
vt 0.328519 0.421450
vt 0.328519 0.421450
vt 0.328519 0.421450
vt 0.359377 0.398205
vt 0.328519 0.421450
vt 0.359377 0.398205
vt 0.328519 0.421450
vt 0.359377 0.398205
vt 0.328519 0.421450
vt 0.171345 0.477572
vt 0.359377 0.444286
vt 0.359377 0.444286
vt 0.359377 0.444286
vt 0.171345 0.477572
vt 0.171345 0.477572
vt 0.171345 0.477572
vt 0.171345 0.477572
vt 0.171345 0.477572
vt 0.171345 0.477572
vt 0.171345 0.477572
vt 0.171345 0.477572
vn 0.000000 0.000000 1.000000
vn 0.000000 0.000000 1.000000
vn 0.000000 0.000000 1.000000
vn 0.000000 0.000000 1.000000
vn 0.000000 1.000000 0.000000
vn 0.000000 1.000000 0.000000
vn 0.000000 1.000000 0.000000
vn 0.000000 1.000000 0.000000
vn 0.000000 0.000000 -1.000000
vn 0.000000 0.000000 -1.000000
vn 0.000000 0.000000 -1.000000
vn 0.000000 0.000000 -1.000000
vn 0.000000 -1.000000 0.000000
vn 0.000000 -1.000000 0.000000
vn 0.000000 -1.000000 0.000000
vn 0.000000 -1.000000 0.000000
vn 1.000000 0.000000 0.000000
vn 1.000000 0.000000 0.000000
vn 1.000000 0.000000 0.000000
vn 1.000000 0.000000 0.000000
vn -1.000000 0.000000 0.000000
vn -1.000000 0.000000 0.000000
vn -1.000000 0.000000 0.000000
vn -1.000000 0.000000 0.000000
vn 0.000000 1.000000 0.000000
vn 0.000000 1.000000 0.000000
vn 0.000000 1.000000 0.000000
vn 0.000000 1.000000 0.000000
vn 0.000000 1.000000 0.000000
vn 0.000000 1.000000 0.000000
vn 0.000000 1.000000 0.000000
vn 0.000000 1.000000 0.000000
vn 0.000000 1.000000 -0.000000
vn 0.000000 1.000000 -0.000000
vn 0.000000 1.000000 -0.000000
vn 0.000000 1.000000 -0.000000
vn 0.000000 1.000000 0.000000
vn 0.000000 1.000000 0.000000
vn 0.000000 1.000000 0.000000
vn 0.000000 1.000000 0.000000
vn 0.000000 1.000000 0.000000
vn 0.000000 1.000000 0.000000
vn 0.000000 1.000000 0.000000
vn 0.000000 1.000000 0.000000
vn 0.000000 1.000000 0.000000
vn 0.000000 1.000000 0.000000
vn 0.000000 1.000000 0.000000
vn 0.000000 1.000000 0.000000
vn 0.000000 1.000000 -0.000000
vn 0.000000 1.000000 -0.000000
vn 0.000000 1.000000 -0.000000
vn 0.000000 1.000000 -0.000000
vn 0.000000 1.000000 0.000000
vn 0.000000 1.000000 0.000000
vn 0.000000 1.000000 0.000000
vn 0.000000 1.000000 0.000000
vn 0.000000 1.000000 -0.000000
vn 0.000000 1.000000 -0.000000
vn 0.000000 1.000000 -0.000000
vn 0.000000 1.000000 -0.000000
vn 0.000000 1.000000 0.000000
vn 0.000000 1.000000 0.000000
vn 0.000000 1.000000 0.000000
vn 0.000000 1.000000 0.000000
vn 0.000000 1.000000 0.000000
vn 0.000000 1.000000 0.000000
vn 0.000000 1.000000 0.000000
vn 0.000000 1.000000 0.000000
vn 0.000000 1.000000 0.000000
vn 0.000000 1.000000 0.000000
vn 0.000000 1.000000 0.000000
vn 0.000000 1.000000 0.000000
s off
f 1/16/1 2/2/2 4/17/3 3/23/4
f 17/33/5 18/56/6 19/55/7 20/54/8
f 5/5/9 6/22/10 8/8/11 7/20/12
f 7/7/13 8/19/14 2/10/15 1/9/16
f 2/15/17 8/11/18 6/12/19 4/4/20
f 7/13/21 1/1/22 3/18/23 5/14/24
f 3/3/25 4/21/26 10/49/27 9/51/28
f 4/21/29 6/6/30 11/47/31 10/49/32
f 6/6/33 5/24/34 12/43/35 11/47/36
f 5/24/37 3/3/38 9/51/39 12/43/40
f 9/25/41 10/50/42 14/46/43 13/37/44
f 10/26/45 11/48/46 15/42/47 14/45/48
f 11/27/49 12/44/50 16/40/51 15/41/52
f 12/28/53 9/52/54 13/38/55 16/39/56
f 13/29/57 14/63/58 18/61/59 17/53/60
f 14/30/61 15/62/62 19/59/63 18/34/64
f 15/31/65 16/60/66 20/58/67 19/35/68
f 16/32/69 13/64/70 17/57/71 20/36/72
