# This file uses centimeters as units for non-parametric coordinates.

v -33.776489 33.635284 39.302731
v -33.776489 -33.635284 39.302731
v -31.710693 33.635284 39.302731
v -31.710693 -31.851974 39.302731
v -31.710693 33.635284 -39.302734
v -31.710693 -31.851974 -39.302734
v -33.776489 33.635284 -39.302734
v -33.776489 -33.635284 -39.302734
v -29.258057 33.635284 39.302731
v -29.258057 -29.746828 39.302731
v -29.258057 -29.746828 -39.302738
v -29.258057 33.635284 -39.302738
v 33.776611 -33.635284 39.302731
v 33.776611 -31.851974 39.302731
v 33.776611 -31.851974 -39.302734
v 33.776611 -33.635284 -39.302734
v 33.776611 -29.746828 39.302731
v 33.776611 -29.746828 -39.302738
vt 0.998265 0.903810
vt 0.877282 0.903810
vt 0.877282 0.805261
vt 0.998265 0.805261
vt 0.998265 0.903810
vt 0.877282 0.903810
vt 0.877282 0.805261
vt 0.998265 0.805261
vt 0.417983 0.444286
vt 0.417983 0.444286
vt 0.417983 0.444286
vt 0.417983 0.444286
vt 0.417983 0.444286
vt 0.417983 0.444286
vt 0.417983 0.444286
vt 0.417983 0.444286
vt 0.359377 0.444286
vt 0.359377 0.444286
vt 0.359377 0.444286
vt 0.359377 0.444286
vt 0.359377 0.444286
vt 0.359377 0.444286
vt 0.359377 0.444286
vt 0.359377 0.444286
vt 0.297998 0.444286
vt 0.297998 0.444286
vt 0.297998 0.444286
vt 0.297998 0.444286
vt 0.297998 0.444286
vt 0.297998 0.444286
vt 0.297998 0.444286
vt 0.297998 0.444286
vt 0.767238 0.794442
vt 0.870645 0.794442
vt 0.870645 0.924266
vt 0.767238 0.924266
vt 0.236575 0.221266
vt 0.236575 0.221266
vt 0.236575 0.221266
vt 0.236575 0.221266
vt 0.236575 0.221266
vt 0.236575 0.221266
vt 0.417983 0.221266
vt 0.417983 0.221266
vt 0.417983 0.221266
vt 0.417983 0.221266
vt 0.417983 0.221266
vt 0.417983 0.221266
vt 0.328519 0.221266
vt 0.328519 0.221266
vt 0.328519 0.221266
vt 0.328519 0.221266
vt 0.328519 0.221266
vt 0.328519 0.221266
vt 0.328519 0.221266
vt 0.328519 0.221266
vt 0.663832 0.794441
vt 0.663831 0.924265
vn 0.000000 0.000000 1.000000
vn 0.000000 0.000000 1.000000
vn 0.000000 0.000000 1.000000
vn 0.000000 0.000000 1.000000
vn 1.000000 0.000000 0.000000
vn 1.000000 0.000000 0.000000
vn 1.000000 0.000000 0.000000
vn 1.000000 0.000000 0.000000
vn 0.000000 0.000000 -1.000000
vn 0.000000 0.000000 -1.000000
vn 0.000000 0.000000 -1.000000
vn 0.000000 0.000000 -1.000000
vn -1.000000 0.000000 0.000000
vn -1.000000 0.000000 0.000000
vn -1.000000 0.000000 0.000000
vn -1.000000 0.000000 0.000000
vn 0.000000 1.000000 0.000000
vn 0.000000 1.000000 0.000000
vn 0.000000 1.000000 0.000000
vn 0.000000 1.000000 0.000000
vn 0.000000 0.000000 1.000000
vn 0.000000 0.000000 1.000000
vn 0.000000 0.000000 1.000000
vn 0.000000 0.000000 1.000000
vn -0.000001 0.000000 -1.000000
vn -0.000001 0.000000 -1.000000
vn -0.000001 0.000000 -1.000000
vn -0.000001 0.000000 -1.000000
vn 0.000000 1.000000 0.000000
vn 0.000000 1.000000 0.000000
vn 0.000000 1.000000 0.000000
vn 0.000000 1.000000 0.000000
vn 0.000000 0.000000 1.000000
vn 0.000000 0.000000 1.000000
vn 0.000000 0.000000 1.000000
vn 0.000000 0.000000 1.000000
vn 0.000000 1.000000 0.000000
vn 0.000000 1.000000 0.000000
vn 0.000000 1.000000 0.000000
vn 0.000000 1.000000 0.000000
vn 0.000000 0.000000 -1.000000
vn 0.000000 0.000000 -1.000000
vn 0.000000 0.000000 -1.000000
vn 0.000000 0.000000 -1.000000
vn 0.000000 -1.000000 0.000000
vn 0.000000 -1.000000 0.000000
vn 0.000000 -1.000000 0.000000
vn 0.000000 -1.000000 0.000000
vn 1.000000 0.000000 0.000000
vn 1.000000 0.000000 0.000000
vn 1.000000 0.000000 0.000000
vn 1.000000 0.000000 0.000000
vn 0.000000 0.000000 1.000000
vn 0.000000 0.000000 1.000000
vn 0.000000 0.000000 1.000000
vn 0.000000 0.000000 1.000000
vn 1.000000 0.000001 0.000000
vn 1.000000 0.000001 0.000000
vn 1.000000 0.000001 0.000000
vn 1.000000 0.000001 0.000000
vn 0.000000 -0.000002 -1.000000
vn 0.000000 -0.000002 -1.000000
vn 0.000000 -0.000002 -1.000000
vn 0.000000 -0.000002 -1.000000
s off
f 1/43/1 2/44/2 4/45/3 3/46/4
f 9/1/5 10/2/6 11/3/7 12/4/8
f 5/37/9 6/38/10 8/39/11 7/40/12
f 7/57/13 8/33/14 2/36/15 1/58/16
f 7/49/17 1/50/18 3/51/19 5/52/20
f 3/9/21 4/10/22 10/11/23 9/12/24
f 6/25/25 5/26/26 12/27/27 11/28/28
f 5/17/29 3/18/30 9/19/31 12/20/32
f 2/44/33 13/47/34 14/48/35 4/45/36
f 10/5/37 17/6/38 18/7/39 11/8/40
f 6/38/41 15/41/42 16/42/43 8/39/44
f 8/33/45 16/34/46 13/35/47 2/36/48
f 13/53/49 16/54/50 15/55/51 14/56/52
f 4/13/53 14/14/54 17/15/55 10/16/56
f 14/21/57 15/22/58 18/23/59 17/24/60
f 15/29/61 6/30/62 11/31/63 18/32/64
