# This file uses centimeters as units for non-parametric coordinates.

v -25.753418 -14.928520 7.628448
v 25.753418 -14.928520 7.628448
v -25.753418 14.928520 7.628448
v 25.753418 14.928520 7.628448
v -25.753418 14.928520 -7.628357
v 25.753418 14.928520 -7.628357
v -25.753418 -14.928520 -7.628357
v 25.753418 -14.928520 -7.628357
v 5.658115 14.928520 7.628448
v 5.658115 14.928520 -7.628357
v 5.658115 -14.928520 -7.628357
v 5.658115 -14.928520 7.628448
v -5.658119 14.928520 7.628448
v -5.658119 14.928520 -7.628357
v -5.658119 -14.928520 -7.628357
v -5.658119 -14.928520 7.628448
vt 0.236575 0.287733
vt 0.297998 0.477572
vt 0.236575 0.287733
vt 0.236575 0.287733
vt 0.297998 0.477572
vt 0.236575 0.287733
vt 0.236575 0.287733
vt 0.236575 0.287733
vt 0.297998 0.287733
vt 0.297998 0.287733
vt 0.359377 0.477572
vt 0.297998 0.287733
vt 0.359377 0.477572
vt 0.297998 0.287733
vt 0.297998 0.287733
vt 0.297998 0.287733
vt 0.236575 0.287733
vt 0.297998 0.477572
vt 0.297998 0.477572
vt 0.236575 0.287733
vt 0.297998 0.477572
vt 0.236575 0.287733
vt 0.236575 0.287733
vt 0.236575 0.287733
vt 0.171345 0.287733
vt 0.264925 0.477572
vt 0.264925 0.477572
vt 0.171345 0.287733
vt 0.264925 0.477572
vt 0.171345 0.287733
vt 0.171345 0.287733
vt 0.171345 0.287733
vt 0.202875 0.287733
vt 0.202875 0.287733
vt 0.202875 0.287733
vt 0.202875 0.287733
vt 0.202875 0.287733
vt 0.202875 0.287733
vt 0.202875 0.287733
vt 0.202875 0.287733
vt 0.359377 0.477572
vt 0.297998 0.287733
vt 0.297998 0.287733
vt 0.359377 0.477572
vt 0.171345 0.287733
vt 0.171345 0.287733
vt 0.171345 0.287733
vt 0.264925 0.477572
vt 0.236575 0.287733
vt 0.297998 0.477572
vt 0.236575 0.287733
vt 0.236575 0.287733
vt 0.236575 0.287733
vt 0.297998 0.477572
vt 0.236575 0.287733
vt 0.297998 0.477572
vn 0.000000 0.000000 1.000000
vn 0.000000 0.000000 1.000000
vn 0.000000 0.000000 1.000000
vn 0.000000 0.000000 1.000000
vn 0.000000 1.000000 0.000000
vn 0.000000 1.000000 0.000000
vn 0.000000 1.000000 0.000000
vn 0.000000 1.000000 0.000000
vn 0.000000 0.000000 -1.000000
vn 0.000000 0.000000 -1.000000
vn 0.000000 0.000000 -1.000000
vn 0.000000 0.000000 -1.000000
vn 0.000000 -1.000000 0.000000
vn 0.000000 -1.000000 0.000000
vn 0.000000 -1.000000 0.000000
vn 0.000000 -1.000000 0.000000
vn 1.000000 0.000000 0.000000
vn 1.000000 0.000000 0.000000
vn 1.000000 0.000000 0.000000
vn 1.000000 0.000000 0.000000
vn -1.000000 0.000000 0.000000
vn -1.000000 0.000000 0.000000
vn -1.000000 0.000000 0.000000
vn -1.000000 0.000000 0.000000
vn 0.000000 1.000000 0.000000
vn 0.000000 1.000000 0.000000
vn 0.000000 1.000000 0.000000
vn 0.000000 1.000000 0.000000
vn 0.000000 0.000000 -1.000000
vn 0.000000 0.000000 -1.000000
vn 0.000000 0.000000 -1.000000
vn 0.000000 0.000000 -1.000000
vn 0.000000 -1.000000 0.000000
vn 0.000000 -1.000000 0.000000
vn 0.000000 -1.000000 0.000000
vn 0.000000 -1.000000 0.000000
vn 0.000000 0.000000 1.000000
vn 0.000000 0.000000 1.000000
vn 0.000000 0.000000 1.000000
vn 0.000000 0.000000 1.000000
vn 0.000000 1.000000 0.000000
vn 0.000000 1.000000 0.000000
vn 0.000000 1.000000 0.000000
vn 0.000000 1.000000 0.000000
vn 0.000000 0.000000 -1.000000
vn 0.000000 0.000000 -1.000000
vn 0.000000 0.000000 -1.000000
vn 0.000000 0.000000 -1.000000
vn 0.000000 -1.000000 0.000000
vn 0.000000 -1.000000 0.000000
vn 0.000000 -1.000000 0.000000
vn 0.000000 -1.000000 0.000000
vn 0.000000 0.000000 1.000000
vn 0.000000 0.000000 1.000000
vn 0.000000 0.000000 1.000000
vn 0.000000 0.000000 1.000000
s off
f 13/3/1 3/4/2 1/1/3 16/49/4
f 5/12/5 3/9/6 13/10/7 14/42/8
f 7/20/9 5/17/10 14/53/11 15/51/12
f 1/28/13 7/25/14 15/45/15 16/46/16
f 2/33/17 8/34/18 6/35/19 4/36/20
f 7/37/21 1/38/22 3/39/23 5/40/24
f 10/14/25 9/43/26 4/15/27 6/16/28
f 11/22/29 10/55/30 6/23/31 8/24/32
f 12/30/33 11/47/34 8/31/35 2/32/36
f 4/8/37 9/6/38 12/52/39 2/7/40
f 13/41/41 9/13/42 10/44/43 14/11/44
f 11/54/45 15/19/46 14/18/47 10/21/48
f 16/27/49 15/26/50 11/29/51 12/48/52
f 13/50/53 16/2/54 12/5/55 9/56/56
