# This file uses centimeters as units for non-parametric coordinates.

v -23.555054 -7.769592 10.458244
v 23.555115 -7.769592 10.458244
v -23.555054 3.615662 10.458244
v 23.555115 3.615662 10.458244
v -23.555054 3.615662 -10.458286
v 23.555115 3.615662 -10.458286
v -23.555054 -7.769592 -10.458286
v 23.555115 -7.769592 -10.458286
v -34.663086 -2.553162 3.867790
v 34.663147 -2.553162 3.867790
v -34.663086 5.182465 3.867790
v 34.663147 5.182465 3.867790
v -34.663086 5.182465 -3.867828
v 34.663147 5.182465 -3.867828
v -34.663086 -2.553162 -3.867828
v 34.663147 -2.553162 -3.867828
v -27.054291 5.180420 1.673466
v 27.054352 5.180420 1.673466
v -27.054291 7.769592 1.673466
v 27.054352 7.769592 1.673466
v -27.054291 7.769592 -1.673504
v 27.054352 7.769592 -1.673504
v -27.054291 5.180420 -1.673504
v 27.054352 5.180420 -1.673504
vt 0.328519 0.398205
vt 0.359377 0.398205
vt 0.417983 0.398205
vt 0.328519 0.398205
vt 0.359377 0.398205
vt 0.417983 0.398205
vt 0.297998 0.398205
vt 0.359377 0.398205
vt 0.297998 0.398205
vt 0.297998 0.398205
vt 0.328519 0.398205
vt 0.328519 0.398205
vt 0.328519 0.398205
vt 0.328519 0.398205
vt 0.359377 0.398205
vt 0.297998 0.398205
vt 0.417983 0.398205
vt 0.359377 0.398205
vt 0.328519 0.398205
vt 0.359377 0.398205
vt 0.417983 0.398205
vt 0.359377 0.398205
vt 0.359377 0.398205
vt 0.328519 0.398205
vt 0.236575 0.175959
vt 0.236575 0.175959
vt 0.236575 0.175959
vt 0.236575 0.175959
vt 0.297998 0.175959
vt 0.297998 0.175959
vt 0.297998 0.175959
vt 0.297998 0.175959
vt 0.236575 0.175959
vt 0.236575 0.175959
vt 0.236575 0.175959
vt 0.236575 0.175959
vt 0.141447 0.175959
vt 0.141447 0.175959
vt 0.141447 0.175959
vt 0.141447 0.175959
vt 0.171345 0.175959
vt 0.171345 0.175959
vt 0.171345 0.175959
vt 0.171345 0.175959
vt 0.171345 0.175959
vt 0.171345 0.175959
vt 0.171345 0.175959
vt 0.171345 0.175959
vt 0.297998 0.221266
vt 0.297998 0.221266
vt 0.297998 0.221266
vt 0.297998 0.221266
vt 0.359377 0.221266
vt 0.359377 0.221266
vt 0.359377 0.221266
vt 0.359377 0.221266
vt 0.297998 0.221266
vt 0.297998 0.221266
vt 0.297998 0.221266
vt 0.297998 0.221266
vt 0.236575 0.221266
vt 0.236575 0.221266
vt 0.236575 0.221266
vt 0.236575 0.221266
vt 0.236575 0.221266
vt 0.236575 0.221266
vt 0.236575 0.221266
vt 0.236575 0.221266
vn 0.000000 0.000000 1.000000
vn 0.000000 0.000000 1.000000
vn 0.000000 0.000000 1.000000
vn 0.000000 0.000000 1.000000
vn 0.000000 1.000000 0.000000
vn 0.000000 1.000000 0.000000
vn 0.000000 1.000000 0.000000
vn 0.000000 1.000000 0.000000
vn 0.000000 0.000000 -1.000000
vn 0.000000 0.000000 -1.000000
vn 0.000000 0.000000 -1.000000
vn 0.000000 0.000000 -1.000000
vn 0.000000 -1.000000 0.000000
vn 0.000000 -1.000000 0.000000
vn 0.000000 -1.000000 0.000000
vn 0.000000 -1.000000 0.000000
vn 1.000000 0.000000 0.000000
vn 1.000000 0.000000 0.000000
vn 1.000000 0.000000 0.000000
vn 1.000000 0.000000 0.000000
vn -1.000000 0.000000 0.000000
vn -1.000000 0.000000 0.000000
vn -1.000000 0.000000 0.000000
vn -1.000000 0.000000 0.000000
vn 0.000000 0.000000 1.000000
vn 0.000000 0.000000 1.000000
vn 0.000000 0.000000 1.000000
vn 0.000000 0.000000 1.000000
vn 0.000000 1.000000 0.000000
vn 0.000000 1.000000 0.000000
vn 0.000000 1.000000 0.000000
vn 0.000000 1.000000 0.000000
vn 0.000000 0.000000 -1.000000
vn 0.000000 0.000000 -1.000000
vn 0.000000 0.000000 -1.000000
vn 0.000000 0.000000 -1.000000
vn 0.000000 -1.000000 0.000000
vn 0.000000 -1.000000 0.000000
vn 0.000000 -1.000000 0.000000
vn 0.000000 -1.000000 0.000000
vn 1.000000 0.000000 0.000000
vn 1.000000 0.000000 0.000000
vn 1.000000 0.000000 0.000000
vn 1.000000 0.000000 0.000000
vn -1.000000 0.000000 0.000000
vn -1.000000 0.000000 0.000000
vn -1.000000 0.000000 0.000000
vn -1.000000 0.000000 0.000000
vn 0.000000 0.000000 1.000000
vn 0.000000 0.000000 1.000000
vn 0.000000 0.000000 1.000000
vn 0.000000 0.000000 1.000000
vn 0.000000 1.000000 0.000000
vn 0.000000 1.000000 0.000000
vn 0.000000 1.000000 0.000000
vn 0.000000 1.000000 0.000000
vn 0.000000 0.000000 -1.000000
vn 0.000000 0.000000 -1.000000
vn 0.000000 0.000000 -1.000000
vn 0.000000 0.000000 -1.000000
vn 1.000000 0.000000 0.000000
vn 1.000000 0.000000 0.000000
vn 1.000000 0.000000 0.000000
vn 1.000000 0.000000 0.000000
vn -1.000000 0.000000 0.000000
vn -1.000000 0.000000 0.000000
vn -1.000000 0.000000 0.000000
vn -1.000000 0.000000 0.000000
s off
f 1/22/1 2/2/2 4/20/3 3/23/4
f 3/3/5 4/21/6 6/6/7 5/17/8
f 5/5/9 6/15/10 8/8/11 7/18/12
f 7/7/13 8/16/14 2/10/15 1/9/16
f 2/19/17 8/11/18 6/12/19 4/4/20
f 7/13/21 1/1/22 3/24/23 5/14/24
f 9/25/25 10/26/26 12/27/27 11/28/28
f 11/29/29 12/30/30 14/31/31 13/32/32
f 13/33/33 14/34/34 16/35/35 15/36/36
f 15/37/37 16/38/38 10/39/39 9/40/40
f 10/41/41 16/42/42 14/43/43 12/44/44
f 15/45/45 9/46/46 11/47/47 13/48/48
f 17/49/49 18/50/50 20/51/51 19/52/52
f 19/53/53 20/54/54 22/55/55 21/56/56
f 21/57/57 22/58/58 24/59/59 23/60/60
f 18/61/61 24/62/62 22/63/63 20/64/64
f 23/65/65 17/66/66 19/67/67 21/68/68
