# This file uses centimeters as units for non-parametric coordinates.

v -16.121094 5.723339 35.628468
v -16.121094 -5.723339 35.628468
v 16.120972 5.723339 35.628468
v 16.120972 -5.723339 35.628468
v -16.121094 -5.723339 -19.064415
v 16.232910 -5.723339 -19.064415
v 16.120972 5.723339 -19.064415
v -16.121094 5.723339 -19.064415
v -16.121094 5.723339 26.113760
v 16.120972 5.723339 26.113760
v 16.120972 5.723339 -7.170540
v -16.121094 5.723339 -7.170540
v 21.568237 3.064034 32.324150
v 21.568237 3.064034 -13.676676
v -21.568359 3.064034 -13.676676
v -21.568359 3.064034 32.324150
v 21.568237 -2.757732 32.324150
v 21.568237 -2.757732 -13.676676
v -21.568359 -2.757732 -13.676676
v -21.568359 -2.757732 32.324150
v -16.121094 5.723339 33.592640
v 16.120972 5.723339 33.592640
v -16.121094 5.723339 -16.751949
v 16.120972 5.723339 -16.751949
v 16.120972 -5.723339 33.592640
v 0.000000 5.723339 -19.064415
v 0.111938 -5.723339 -19.064415
v -8.060547 5.723339 -19.064415
v -7.948608 -5.723339 -19.064415
v 8.060425 5.723339 -19.064415
v 8.172363 -5.723339 -19.064415
v -1.612183 3.434002 -31.946024
v -1.500244 -3.434002 -31.946024
v -6.336548 -3.434002 -31.946024
v -6.448364 3.434002 -31.946024
v 9.784546 -3.434002 -31.946024
v 14.620728 -3.434002 -31.946024
v 9.672607 3.434002 -31.946024
v 14.508789 3.434002 -31.946024
v -1.612183 3.434002 -35.628468
v -1.500244 -3.434002 -35.628468
v -6.336548 -3.434002 -35.628468
v -6.448364 3.434002 -35.628468
v 9.784546 -3.434002 -35.628468
v 14.620728 -3.434002 -35.628468
v 9.672607 3.434002 -35.628468
v 14.508789 3.434002 -35.628468
v 14.508789 3.434002 -22.663174
v 9.672607 3.434002 -22.663174
v 9.784546 -3.434002 -22.663174
v 14.620728 -3.434002 -22.663174
v -1.612183 3.434002 -22.663174
v -6.448364 3.434002 -22.663174
v -6.336548 -3.434002 -22.663174
v -1.500244 -3.434002 -22.663174
vt 0.359377 0.310840
vt 0.359377 0.310840
vt 0.359377 0.310840
vt 0.359377 0.310840
vt 0.359377 0.310840
vt 0.359377 0.310840
vt 0.359377 0.310840
vt 0.359377 0.310840
vt 0.453192 0.310840
vt 0.453192 0.310840
vt 0.453192 0.310840
vt 0.453192 0.310840
vt 0.453192 0.310840
vt 0.453192 0.310840
vt 0.453192 0.310840
vt 0.453192 0.310840
vt 0.389670 0.310840
vt 0.389670 0.310840
vt 0.389670 0.310840
vt 0.389670 0.310840
vt 0.389670 0.310840
vt 0.389670 0.310840
vt 0.389670 0.310840
vt 0.389670 0.310840
vt 0.389670 0.310840
vt 0.389670 0.310840
vt 0.389670 0.310840
vt 0.389670 0.310840
vt 0.483503 0.310840
vt 0.483503 0.310840
vt 0.483503 0.310840
vt 0.483503 0.310840
vt 0.389670 0.310840
vt 0.359377 0.310840
vt 0.389670 0.310840
vt 0.483503 0.310840
vt 0.389670 0.310840
vt 0.483503 0.310840
vt 0.359377 0.310840
vt 0.389670 0.310840
vt 0.359377 0.310840
vt 0.389670 0.310840
vt 0.483503 0.310840
vt 0.359377 0.310840
vt 0.483503 0.310840
vt 0.359377 0.310840
vt 0.359377 0.310840
vt 0.501691 0.642307
vt 0.566154 0.642307
vt 0.566154 0.713629
vt 0.501691 0.713629
vt 0.389670 0.310840
vt 0.453192 0.310840
vt 0.453192 0.310840
vt 0.389670 0.310840
vt 0.389670 0.310840
vt 0.453192 0.310840
vt 0.453192 0.310840
vt 0.389670 0.310840
vt 0.389670 0.310840
vt 0.359377 0.310840
vt 0.453192 0.310840
vt 0.483503 0.310840
vt 0.359377 0.310840
vt 0.483503 0.310840
vt 0.453192 0.310840
vt 0.483503 0.310840
vt 0.359377 0.310840
vt 0.483503 0.310840
vt 0.453192 0.310840
vt 0.483503 0.310840
vt 0.359377 0.310840
vt 0.483503 0.310840
vt 0.483503 0.310840
vt 0.483503 0.310840
vt 0.359377 0.477572
vt 0.483503 0.310840
vt 0.483503 0.310840
vt 0.359377 0.477572
vt 0.483503 0.310840
vt 0.483503 0.310840
vt 0.359377 0.477572
vt 0.359377 0.477572
vt 0.359377 0.477572
vt 0.359377 0.477572
vt 0.359377 0.477572
vt 0.359377 0.477572
vt 0.359377 0.477572
vt 0.359377 0.477572
vt 0.483503 0.310840
vt 0.483503 0.310840
vt 0.483503 0.310840
vt 0.483503 0.310840
vt 0.483503 0.310840
vt 0.483503 0.310840
vt 0.483503 0.310840
vt 0.483503 0.310840
vt 0.236575 0.477572
vt 0.359377 0.310840
vt 0.236575 0.477572
vt 0.236575 0.477572
vt 0.359377 0.310840
vt 0.359377 0.310840
vt 0.359377 0.310840
vt 0.359377 0.310840
vt 0.236575 0.477572
vt 0.359377 0.310840
vt 0.236575 0.477572
vt 0.236575 0.477572
vt 0.359377 0.310840
vt 0.359377 0.310840
vt 0.359377 0.310840
vt 0.359377 0.310840
vt 0.359377 0.477572
vt 0.359377 0.310840
vt 0.359377 0.477572
vt 0.359377 0.477572
vt 0.236575 0.477572
vt 0.483503 0.310840
vt 0.359377 0.477572
vt 0.359377 0.477572
vt 0.236575 0.477572
vt 0.483503 0.310840
vt 0.359377 0.477572
vt 0.359377 0.310840
vt 0.417983 0.477572
vt 0.417983 0.477572
vt 0.417983 0.477572
vt 0.417983 0.477572
vt 0.417983 0.477572
vt 0.417983 0.477572
vt 0.417983 0.477572
vt 0.417983 0.477572
vt 0.359377 0.310840
vt 0.389670 0.310840
vt 0.359377 0.310840
vt 0.359377 0.310840
vt 0.359377 0.310840
vt 0.359377 0.310840
vt 0.359377 0.310840
vt 0.389670 0.310840
vt 0.389670 0.310840
vt 0.359377 0.310840
vt 0.359377 0.310840
vn 0.000000 1.000000 0.000000
vn 0.000000 1.000000 0.000000
vn 0.000000 1.000000 0.000000
vn 0.000000 1.000000 0.000000
vn 0.000000 -1.000000 0.000000
vn 0.000000 -1.000000 0.000000
vn 0.000000 -1.000000 0.000000
vn 0.000000 -1.000000 0.000000
vn 0.000000 -1.000000 0.000000
vn 0.000000 -1.000000 0.000000
vn 0.000000 -1.000000 0.000000
vn 0.000000 -1.000000 0.000000
vn 0.000000 1.000000 0.000000
vn 0.000000 1.000000 0.000000
vn 0.000000 1.000000 0.000000
vn 0.000000 1.000000 0.000000
vn 0.000000 1.000000 0.000000
vn 0.000000 1.000000 0.000000
vn 0.438704 0.898632 0.000000
vn 0.438704 0.898632 0.000000
vn 0.438704 0.898632 0.000000
vn 0.438704 0.898632 0.000000
vn 0.000000 1.000000 0.000000
vn 0.000000 1.000000 0.000000
vn 0.000000 1.000000 0.000000
vn 0.000000 1.000000 0.000000
vn 0.000000 1.000000 0.000000
vn 0.000000 1.000000 0.000000
vn 0.000000 1.000000 0.000000
vn 0.000000 1.000000 0.000000
vn 0.000000 1.000000 0.000000
vn -0.438704 0.898632 0.000000
vn -0.438704 0.898632 0.000000
vn -0.438704 0.898632 0.000000
vn -0.438704 0.898632 0.000000
vn -0.703211 0.000000 -0.710981
vn -0.703211 0.000000 -0.710981
vn -0.703211 0.000000 -0.710981
vn -0.703211 0.000000 -0.710981
vn 1.000000 0.000000 0.000000
vn 1.000000 0.000000 0.000000
vn 1.000000 0.000000 0.000000
vn 1.000000 0.000000 0.000000
vn -1.000000 0.000000 0.000000
vn -1.000000 0.000000 0.000000
vn -1.000000 0.000000 0.000000
vn -1.000000 0.000000 0.000000
vn -0.478153 -0.878277 0.000000
vn -0.478153 -0.878277 0.000000
vn -0.478153 -0.878277 0.000000
vn -0.478153 -0.878277 0.000000
vn -0.518640 0.000000 0.854993
vn -0.518640 0.000000 0.854993
vn -0.518639 0.000000 0.854993
vn -0.518640 0.000000 0.854993
vn 0.000000 0.000000 1.000000
vn 0.000000 0.000000 1.000000
vn 0.000000 0.000000 1.000000
vn 0.000000 0.000000 1.000000
vn 0.706801 0.004582 -0.707398
vn 0.706801 0.004582 -0.707398
vn 0.706801 0.004582 -0.707398
vn 0.706801 0.004582 -0.707398
vn 0.000000 0.000000 -1.000000
vn 0.000000 0.000000 -1.000000
vn 0.000000 0.000000 -1.000000
vn 0.000000 0.000000 -1.000000
vn 0.481733 -0.876318 0.000536
vn 0.481733 -0.876318 0.000536
vn 0.481733 -0.876318 0.000536
vn 0.481733 -0.876318 0.000536
vn 0.481733 -0.876318 0.000536
vn 0.000000 0.000000 -1.000000
vn 0.000000 0.000000 -1.000000
vn 0.000000 0.000000 -1.000000
vn 0.000000 0.000000 -1.000000
vn 0.000000 0.000000 -1.000000
vn 0.000000 0.000000 -1.000000
vn 0.000000 0.000000 -1.000000
vn 0.000000 0.000000 -1.000000
vn 0.000000 0.000000 -1.000000
vn 0.000000 0.000000 -1.000000
vn 0.000000 0.000000 -1.000000
vn 0.000000 0.000000 -1.000000
vn 0.912552 0.011155 -0.408808
vn 0.912552 0.011155 -0.408808
vn 0.912552 0.011155 -0.408808
vn 0.912552 0.011155 -0.408808
vn 0.000000 -0.843745 -0.536745
vn 0.000000 -0.843744 -0.536745
vn 0.000000 -0.843745 -0.536745
vn 0.000000 -0.843744 -0.536745
vn -0.912558 -0.011149 -0.408795
vn -0.912558 -0.011149 -0.408795
vn -0.912558 -0.011149 -0.408795
vn -0.912558 -0.011149 -0.408795
vn 0.000000 0.843744 -0.536745
vn 0.000000 0.843744 -0.536745
vn 0.000000 0.843744 -0.536745
vn 0.000000 0.843744 -0.536745
vn 0.000000 -0.843745 -0.536745
vn 0.000000 -0.843745 -0.536745
vn 0.000000 -0.843745 -0.536745
vn 0.000000 -0.843745 -0.536745
vn -0.912552 -0.011155 -0.408808
vn -0.912552 -0.011155 -0.408808
vn -0.912552 -0.011155 -0.408808
vn -0.912552 -0.011155 -0.408808
vn 0.000000 0.843745 -0.536745
vn 0.000000 0.843745 -0.536745
vn 0.000000 0.843745 -0.536745
vn 0.000000 0.843745 -0.536745
vn 0.912552 0.011155 -0.408808
vn 0.912552 0.011155 -0.408808
vn 0.912552 0.011155 -0.408808
vn 0.912552 0.011155 -0.408808
vn 0.999867 0.016296 0.000000
vn 0.999867 0.016296 0.000000
vn 0.999867 0.016296 0.000000
vn 0.999867 0.016296 0.000000
vn 0.000000 -1.000000 0.000000
vn 0.000000 -1.000000 0.000000
vn 0.000000 -1.000000 0.000000
vn 0.000000 -1.000000 0.000000
vn -0.999867 -0.016279 0.000000
vn -0.999867 -0.016279 0.000000
vn -0.999867 -0.016279 0.000000
vn -0.999867 -0.016279 0.000000
vn 0.000000 1.000000 0.000000
vn 0.000000 1.000000 0.000000
vn 0.000000 1.000000 0.000000
vn 0.000000 1.000000 0.000000
vn 0.000000 -1.000000 0.000000
vn 0.000000 -1.000000 0.000000
vn 0.000000 -1.000000 0.000000
vn 0.000000 -1.000000 0.000000
vn -0.999867 -0.016296 0.000000
vn -0.999867 -0.016296 0.000000
vn -0.999867 -0.016296 0.000000
vn -0.999867 -0.016296 0.000000
vn 0.000000 1.000000 0.000000
vn 0.000000 1.000000 0.000000
vn 0.000000 1.000000 0.000000
vn 0.000000 1.000000 0.000000
vn 0.999867 0.016296 0.000000
vn 0.999867 0.016296 0.000000
vn 0.999867 0.016296 0.000000
vn 0.999867 0.016296 0.000000
vn 0.000000 1.000000 0.000000
vn 0.000000 1.000000 0.000000
vn 0.000000 1.000000 0.000000
vn 0.000000 1.000000 0.000000
vn -0.999867 -0.016296 0.000000
vn -0.999867 -0.016296 0.000000
vn -0.999867 -0.016296 0.000000
vn -0.999867 -0.016296 0.000000
vn 0.000000 -1.000000 0.000000
vn 0.000000 -1.000000 0.000000
vn 0.000000 -1.000000 0.000000
vn 0.000000 -1.000000 0.000000
vn 0.999867 0.016296 0.000000
vn 0.999867 0.016296 0.000000
vn 0.999867 0.016296 0.000000
vn 0.999867 0.016296 0.000000
vn 0.000000 1.000000 0.000000
vn 0.000000 1.000000 0.000000
vn 0.000000 1.000000 0.000000
vn 0.000000 1.000000 0.000000
vn -0.999867 -0.016279 0.000000
vn -0.999867 -0.016279 0.000000
vn -0.999867 -0.016279 0.000000
vn -0.999867 -0.016279 0.000000
vn 0.000000 -1.000000 0.000000
vn 0.000000 -1.000000 0.000000
vn 0.000000 -1.000000 0.000000
vn 0.000000 -1.000000 0.000000
vn 0.999867 0.016296 0.000000
vn 0.999867 0.016296 0.000000
vn 0.999867 0.016296 0.000000
vn 0.999867 0.016296 0.000000
vn -0.438704 0.898632 0.000000
vn -0.438704 0.898632 0.000000
vn -0.438704 0.898632 0.000000
vn -0.438704 0.898632 0.000000
vn -0.438704 0.898632 0.000000
vn -0.438704 0.898632 0.000000
vn -0.438704 0.898632 0.000000
vn -0.438704 0.898632 0.000000
vn 0.438704 0.898632 0.000000
vn 0.438704 0.898632 0.000000
vn 0.438704 0.898632 0.000000
vn 0.438704 0.898632 0.000000
vn 0.438704 0.898632 0.000000
vn 0.438704 0.898632 0.000000
vn 0.438704 0.898632 0.000000
vn 0.438704 0.898632 0.000000
vn 0.518639 0.000000 0.854993
vn 0.518639 0.000000 0.854993
vn 0.518639 0.000000 0.854993
vn 0.518639 0.000000 0.854993
s off
f 9/48/1 10/49/2 11/50/3 12/51/4
f 25/61/5 4/5/6 2/6/7 5/7/8 29/68/9 27/64/10 31/72/11 6/8/12
f 22/54/13 10/11/14 9/12/15 21/53/16 1/9/17 3/10/18
f 13/33/19 10/18/20 22/55/21 3/21/22
f 24/58/23 7/15/24 30/70/25 26/62/26 28/66/27 8/16/28 23/57/29 12/13/30 11/14/31
f 9/25/32 16/40/33 1/24/34 21/52/35
f 8/31/36 5/30/37 19/45/38 15/38/39
f 17/41/40 18/137/41 14/138/42 13/134/43
f 19/44/44 20/47/45 16/144/46 15/143/47
f 19/141/48 5/26/49 2/23/50 20/142/51
f 2/3/52 1/1/53 16/39/54 20/46/55
f 3/4/56 1/1/57 2/3/58 4/2/59
f 6/29/60 7/32/61 14/36/62 18/43/63
f 28/67/64 29/69/65 5/30/66 8/31/67
f 18/42/68 17/135/69 4/19/70 25/60/71 6/20/72
f 30/71/73 31/73/74 27/65/75 26/63/76
f 40/126/77 41/127/78 42/128/79 43/129/80
f 45/130/81 44/131/82 46/132/83 47/133/84
f 26/63/85 27/65/86 55/97/87 52/94/88
f 27/104/89 29/105/90 54/103/91 55/102/92
f 29/69/93 28/67/94 53/95/95 54/96/96
f 28/67/97 26/63/98 52/94/99 53/95/100
f 6/112/101 31/113/102 50/111/103 51/110/104
f 31/73/105 30/71/106 49/91/107 50/92/108
f 30/71/109 7/32/110 48/90/111 49/91/112
f 7/32/113 6/29/114 51/93/115 48/90/116
f 32/120/117 33/124/118 41/83/119 40/82/120
f 33/98/121 34/122/122 42/100/123 41/101/124
f 34/76/125 35/121/126 43/85/127 42/84/128
f 35/121/129 32/120/130 40/82/131 43/85/132
f 37/106/133 36/118/134 44/108/135 45/109/136
f 36/79/137 38/117/138 46/88/139 44/87/140
f 38/117/141 39/116/142 47/89/143 46/88/144
f 39/116/145 37/114/146 45/86/147 47/89/148
f 49/91/149 48/90/150 39/81/151 38/80/152
f 50/92/153 49/91/154 38/80/155 36/119/156
f 51/110/157 50/111/158 36/107/159 37/115/160
f 48/90/161 51/93/162 37/78/163 39/81/164
f 53/95/165 52/94/166 32/74/167 35/77/168
f 54/96/169 53/95/170 35/77/171 34/123/172
f 55/102/173 54/103/174 34/99/175 33/125/176
f 52/94/177 55/97/178 33/75/179 32/74/180
f 23/56/181 8/28/182 15/37/183 12/27/184
f 12/27/185 15/37/186 16/40/187 9/25/188
f 14/35/189 7/22/190 24/59/191 11/17/192
f 14/35/193 11/17/194 10/18/195 13/33/196
f 17/136/197 13/34/198 3/140/199 4/139/200
