# This file uses centimeters as units for non-parametric coordinates.

v 3.261417 -3.261330 13.179657
v 2.267456 -2.267342 -13.179680
v 3.261417 3.261330 13.179657
v 2.267456 2.267342 -13.179680
v -3.261288 3.261330 13.179657
v -2.267334 2.267342 -13.179665
v -3.261288 -3.261330 13.179657
v -2.267334 -2.267342 -13.179665
v 3.261414 3.261330 0.633881
v -3.261292 3.261330 0.633881
v -3.261292 -3.261330 0.633881
v 3.261414 -3.261330 0.633881
v 3.261374 3.261330 -3.483063
v -3.261332 3.261330 -3.483063
v -3.261332 -3.261330 -3.483063
v 3.261374 -3.261330 -3.483063
v 3.261349 3.261330 11.008392
v -3.261234 3.261330 11.008392
v -3.261234 -3.261330 11.008392
v 3.261349 -3.261330 11.008392
vt 0.440277 0.986423
vt 0.297998 0.398205
vt 0.440277 0.986423
vt 0.359377 0.398205
vt 0.440277 0.986423
vt 0.359377 0.398205
vt 0.440277 0.986423
vt 0.297998 0.398205
vt 0.440277 0.986423
vt 0.359377 0.398205
vt 0.359377 0.398205
vt 0.359377 0.398205
vt 0.440277 0.986423
vt 0.440277 0.986423
vt 0.359377 0.398205
vt 0.359377 0.398205
vt 0.440277 0.986423
vt 0.440277 0.986423
vt 0.297998 0.398205
vt 0.440277 0.986423
vt 0.297998 0.398205
vt 0.359377 0.398205
vt 0.440277 0.986423
vt 0.440277 0.986423
vt 0.359377 0.398205
vt 0.297998 0.398205
vt 0.297998 0.287733
vt 0.359377 0.287733
vt 0.359377 0.287733
vt 0.297998 0.287733
vt 0.297998 0.287733
vt 0.359377 0.287733
vt 0.359377 0.287733
vt 0.297998 0.287733
vt 0.297998 0.398205
vt 0.359377 0.398205
vt 0.359377 0.398205
vt 0.297998 0.398205
vt 0.297998 0.398205
vt 0.359377 0.398205
vt 0.297998 0.287733
vt 0.297998 0.398205
vt 0.297998 0.287733
vt 0.297998 0.287733
vt 0.297998 0.398205
vt 0.297998 0.287733
vt 0.297998 0.398205
vt 0.297998 0.398205
vt 0.359377 0.287733
vt 0.359377 0.398205
vt 0.359377 0.287733
vt 0.359377 0.287733
vt 0.359377 0.398205
vt 0.359377 0.287733
vt 0.359377 0.398205
vt 0.359377 0.398205
vt 0.440277 0.986423
vt 0.440277 0.986423
vt 0.297998 0.398205
vt 0.359377 0.398205
vt 0.359377 0.398205
vt 0.297998 0.398205
vt 0.297998 0.398205
vt 0.359377 0.398205
vt 0.440277 0.986423
vt 0.440277 0.986423
vt 0.359377 0.398205
vt 0.297998 0.398205
vt 0.440277 0.986423
vt 0.440277 0.986423
vt 0.440277 0.986423
vt 0.440277 0.986423
vn 1.000000 0.000000 -0.000032
vn 1.000000 0.000000 -0.000032
vn 1.000000 0.000000 -0.000032
vn 1.000000 0.000000 -0.000032
vn 0.000000 1.000000 -0.000000
vn 0.000000 1.000000 -0.000000
vn 0.000000 1.000000 -0.000000
vn 0.000000 1.000000 -0.000000
vn -1.000000 0.000000 -0.000025
vn -1.000000 0.000000 -0.000025
vn -1.000000 0.000000 -0.000025
vn -1.000000 0.000000 -0.000025
vn 0.000000 -1.000000 -0.000000
vn 0.000000 -1.000000 -0.000000
vn 0.000000 -1.000000 -0.000000
vn 0.000000 -1.000000 -0.000000
vn -0.000003 0.000000 -1.000000
vn -0.000003 0.000000 -1.000000
vn -0.000003 0.000000 -1.000000
vn -0.000003 0.000000 -1.000000
vn 0.000000 0.000000 1.000000
vn 0.000000 0.000000 1.000000
vn 0.000000 0.000000 1.000000
vn 0.000000 0.000000 1.000000
vn 0.000000 1.000000 0.000000
vn 0.000000 1.000000 0.000000
vn 0.000000 1.000000 0.000000
vn 0.000000 1.000000 0.000000
vn -1.000000 0.000000 0.000010
vn -1.000000 0.000000 0.000010
vn -1.000000 0.000000 0.000010
vn -1.000000 0.000000 0.000010
vn 0.000000 -1.000000 0.000000
vn 0.000000 -1.000000 0.000000
vn 0.000000 -1.000000 0.000000
vn 0.000000 -1.000000 0.000000
vn 1.000000 0.000000 -0.000010
vn 1.000000 0.000000 -0.000010
vn 1.000000 0.000000 -0.000010
vn 1.000000 0.000000 -0.000010
vn -0.000000 0.994787 -0.101974
vn -0.000000 0.994787 -0.101974
vn -0.000000 0.994787 -0.101974
vn -0.000000 0.994787 -0.101974
vn -0.994787 0.000000 -0.101975
vn -0.994787 0.000000 -0.101975
vn -0.994787 0.000000 -0.101975
vn -0.994787 0.000000 -0.101975
vn -0.000000 -0.994787 -0.101974
vn -0.000000 -0.994787 -0.101974
vn -0.000000 -0.994787 -0.101974
vn -0.000000 -0.994787 -0.101974
vn 0.994788 0.000000 -0.101967
vn 0.994788 0.000000 -0.101967
vn 0.994788 0.000000 -0.101967
vn 0.994788 0.000000 -0.101967
vn 0.000000 1.000000 0.000000
vn 0.000000 1.000000 0.000000
vn 0.000000 1.000000 0.000000
vn 0.000000 1.000000 0.000000
vn -1.000000 0.000000 0.000006
vn -1.000000 0.000000 0.000006
vn -1.000000 0.000000 0.000006
vn -1.000000 0.000000 0.000006
vn 0.000000 -1.000000 0.000000
vn 0.000000 -1.000000 0.000000
vn 0.000000 -1.000000 0.000000
vn 0.000000 -1.000000 0.000000
vn 1.000000 0.000000 0.000006
vn 1.000000 0.000000 0.000006
vn 1.000000 0.000000 0.000006
vn 1.000000 0.000000 0.000006
s off
f 1/18/1 20/66/2 17/58/3 3/23/4
f 3/3/5 17/57/6 18/71/7 5/20/8
f 5/5/9 18/72/10 19/69/11 7/17/12
f 7/7/13 19/70/14 20/65/15 1/9/16
f 2/16/17 8/11/18 6/12/19 4/4/20
f 7/13/21 1/1/22 3/24/23 5/14/24
f 9/54/25 13/33/26 14/52/27 10/28/28
f 11/30/29 10/27/30 14/43/31 15/44/32
f 12/32/33 11/29/34 15/51/35 16/49/36
f 9/46/37 12/31/38 16/41/39 13/34/40
f 13/50/41 4/22/42 6/6/43 14/36/44
f 15/38/45 14/35/46 6/19/47 8/8/48
f 16/40/49 15/37/50 8/15/51 2/10/52
f 13/42/53 16/39/54 2/2/55 4/21/56
f 17/67/57 9/25/58 10/56/59 18/60/60
f 19/62/61 18/59/62 10/47/63 11/48/64
f 20/64/65 19/61/66 11/55/67 12/53/68
f 17/68/69 20/63/70 12/45/71 9/26/72
