# This file uses centimeters as units for non-parametric coordinates.

v -5.188232 -1.941658 -38.132294
v 5.188232 -1.941658 -38.132294
v -5.188232 -1.941666 98.108994
v 5.188232 -1.941650 89.662643
v -5.188232 1.941666 98.108978
v 5.188232 1.941650 89.662659
v -5.188232 1.941658 -38.132294
v 5.188232 1.941658 -38.132294
v -2.247803 -1.941666 95.715530
v -2.247803 1.941666 95.715515
v -2.247803 1.941658 -38.132294
v -2.247803 -1.941658 -38.132294
v -12.004395 -5.797100 -40.664658
v 12.004150 -5.797100 -40.664658
v -12.004395 -5.797096 -37.272446
v 12.004150 -5.797096 -37.272446
v -12.004395 5.797096 -37.272446
v 12.004150 5.797096 -37.272446
v -12.004395 5.797108 -40.664658
v 12.004150 5.797108 -40.664658
v -4.785400 -2.895264 -98.108963
v 4.785400 -2.895264 -98.108963
v -4.785400 -2.895279 -40.270004
v 4.785400 -2.895279 -40.270004
v -4.785400 2.895279 -40.270004
v 4.785400 2.895279 -40.270004
v -4.785400 2.895294 -98.108948
v 4.785400 2.895294 -98.108948
v 4.785400 -2.895264 -93.611984
v -4.785400 -2.895264 -93.611984
v -4.785400 2.895294 -93.612000
v 4.785400 2.895294 -93.612000
vt 0.417983 0.477572
vt 0.359377 0.477572
vt 0.417983 0.477572
vt 0.417983 0.477572
vt 0.359377 0.477572
vt 0.359377 0.477572
vt 0.417983 0.477572
vt 0.359377 0.477572
vt 0.359377 0.477572
vt 0.417983 0.477572
vt 0.359377 0.477572
vt 0.359377 0.477572
vt 0.297998 0.477572
vt 0.297998 0.477572
vt 0.297998 0.477572
vt 0.297998 0.477572
vt 0.297998 0.477572
vt 0.297998 0.477572
vt 0.328519 0.477572
vt 0.328519 0.477572
vt 0.328519 0.477572
vt 0.359377 0.477572
vt 0.389670 0.477572
vt 0.359377 0.477572
vt 0.389670 0.477572
vt 0.389670 0.477572
vt 0.453192 0.477572
vt 0.453192 0.477572
vt 0.453192 0.477572
vt 0.453192 0.477572
vt 0.264925 0.221266
vt 0.264925 0.221266
vt 0.264925 0.221266
vt 0.264925 0.221266
vt 0.297998 0.221266
vt 0.297998 0.221266
vt 0.297998 0.221266
vt 0.297998 0.221266
vt 0.264925 0.221266
vt 0.264925 0.221266
vt 0.264925 0.221266
vt 0.264925 0.221266
vt 0.236575 0.221266
vt 0.236575 0.221266
vt 0.236575 0.221266
vt 0.236575 0.221266
vt 0.236575 0.221266
vt 0.236575 0.221266
vt 0.236575 0.221266
vt 0.236575 0.221266
vt 0.236575 0.221266
vt 0.236575 0.221266
vt 0.236575 0.221266
vt 0.236575 0.221266
vt 0.328519 0.221266
vt 0.328519 0.221266
vt 0.328519 0.221266
vt 0.297998 0.398205
vt 0.297998 0.398205
vt 0.297998 0.398205
vt 0.297998 0.477572
vt 0.297998 0.477572
vt 0.297998 0.477572
vt 0.297998 0.477572
vt 0.297998 0.398205
vt 0.297998 0.398205
vt 0.328519 0.221266
vt 0.328519 0.221266
vt 0.297998 0.398205
vt 0.297998 0.398205
vt 0.264925 0.221266
vt 0.264925 0.221266
vt 0.264925 0.221266
vt 0.264925 0.221266
vt 0.264925 0.221266
vt 0.264925 0.221266
vt 0.236575 0.398205
vt 0.264925 0.221266
vt 0.236575 0.398205
vt 0.236575 0.398205
vt 0.264925 0.221266
vt 0.264925 0.221266
vt 0.236575 0.398205
vt 0.236575 0.398205
vt 0.236575 0.398205
vt 0.236575 0.398205
vt 0.417983 0.477572
vt 0.359377 0.477572
vt 0.417983 0.477572
vt 0.417983 0.477572
vt 0.359377 0.477572
vt 0.328519 0.477572
vt 0.359377 0.477572
vt 0.389670 0.477572
vt 0.328519 0.221266
vt 0.264925 0.221266
vt 0.297998 0.398205
vt 0.236575 0.398205
vt 0.264925 0.221266
vt 0.328519 0.221266
vt 0.328519 0.221266
vt 0.264925 0.221266
vn -0.000000 -1.000000 -0.000000
vn -0.000000 -1.000000 -0.000000
vn -0.000000 -1.000000 -0.000000
vn -0.000000 -1.000000 -0.000000
vn 0.631285 0.000003 0.775551
vn 0.631285 0.000003 0.775551
vn 0.631285 0.000003 0.775551
vn 0.631285 0.000003 0.775551
vn -0.000000 1.000000 -0.000000
vn -0.000000 1.000000 -0.000000
vn -0.000000 1.000000 -0.000000
vn -0.000000 1.000000 -0.000000
vn 0.000000 0.000000 -1.000000
vn 0.000000 0.000000 -1.000000
vn 0.000000 0.000000 -1.000000
vn 0.000000 0.000000 -1.000000
vn 1.000000 0.000000 0.000000
vn 1.000000 0.000000 0.000000
vn 1.000000 0.000000 0.000000
vn 1.000000 0.000000 0.000000
vn -1.000000 0.000000 0.000000
vn -1.000000 0.000000 0.000000
vn -1.000000 0.000000 0.000000
vn -1.000000 0.000000 0.000000
vn 0.631290 -0.000000 0.775547
vn 0.631290 -0.000000 0.775547
vn 0.631290 -0.000000 0.775547
vn 0.631290 -0.000000 0.775547
vn 0.000001 1.000000 0.000000
vn 0.000001 1.000000 0.000000
vn 0.000001 1.000000 0.000000
vn 0.000001 1.000000 0.000000
vn 0.000000 0.000000 -1.000000
vn 0.000000 0.000000 -1.000000
vn 0.000000 0.000000 -1.000000
vn 0.000000 0.000000 -1.000000
vn 0.000001 -1.000000 0.000000
vn 0.000001 -1.000000 0.000000
vn 0.000001 -1.000000 0.000000
vn 0.000001 -1.000000 0.000000
vn 0.000000 -1.000000 0.000001
vn 0.000000 -1.000000 0.000001
vn 0.000000 -1.000000 0.000001
vn 0.000000 -1.000000 0.000001
vn 0.000000 0.000000 1.000000
vn 0.000000 0.000000 1.000000
vn 0.000000 0.000000 1.000000
vn 0.000000 0.000000 1.000000
vn 0.000000 1.000000 0.000003
vn 0.000000 1.000000 0.000003
vn 0.000000 1.000000 0.000003
vn 0.000000 1.000000 0.000003
vn 0.000000 0.000000 -1.000000
vn 0.000000 0.000000 -1.000000
vn 0.000000 0.000000 -1.000000
vn 0.000000 0.000000 -1.000000
vn 1.000000 0.000000 0.000000
vn 1.000000 0.000000 0.000000
vn 1.000000 0.000000 0.000000
vn 1.000000 0.000000 0.000000
vn -1.000000 0.000000 0.000000
vn -1.000000 0.000000 0.000000
vn -1.000000 0.000000 0.000000
vn -1.000000 0.000000 0.000000
vn 0.000000 -1.000000 0.000000
vn 0.000000 -1.000000 0.000000
vn 0.000000 -1.000000 0.000000
vn 0.000000 -1.000000 0.000000
vn 0.000000 0.000000 1.000000
vn 0.000000 0.000000 1.000000
vn 0.000000 0.000000 1.000000
vn 0.000000 0.000000 1.000000
vn 0.000000 1.000000 0.000000
vn 0.000000 1.000000 0.000000
vn 0.000000 1.000000 0.000000
vn 0.000000 1.000000 0.000000
vn 0.000000 0.000003 -1.000000
vn 0.000000 0.000003 -1.000000
vn 0.000000 0.000003 -1.000000
vn 0.000000 0.000003 -1.000000
vn 1.000000 0.000000 0.000000
vn 1.000000 0.000000 0.000000
vn 1.000000 0.000000 0.000000
vn 1.000000 0.000000 0.000000
vn -1.000000 0.000000 0.000000
vn -1.000000 0.000000 0.000000
vn -1.000000 0.000000 0.000000
vn -1.000000 0.000000 0.000000
vn 0.000000 -1.000000 -0.000000
vn 0.000000 -1.000000 -0.000000
vn 0.000000 -1.000000 -0.000000
vn 0.000000 -1.000000 -0.000000
vn -1.000000 0.000000 0.000000
vn -1.000000 0.000000 0.000000
vn -1.000000 0.000000 0.000000
vn -1.000000 0.000000 0.000000
vn 0.000000 1.000000 0.000000
vn 0.000000 1.000000 0.000000
vn 0.000000 1.000000 0.000000
vn 0.000000 1.000000 0.000000
vn 1.000000 0.000000 0.000000
vn 1.000000 0.000000 0.000000
vn 1.000000 0.000000 0.000000
vn 1.000000 0.000000 0.000000
s off
f 1/1/1 12/87/2 9/3/3 3/4/4
f 3/25/5 9/23/6 10/94/7 5/26/8
f 5/7/9 10/89/10 11/90/11 7/10/12
f 7/13/13 11/14/14 12/15/15 1/16/16
f 2/19/17 8/20/18 6/21/19 4/92/20
f 7/27/21 1/28/22 3/29/23 5/30/24
f 9/93/25 4/22/26 6/91/27 10/24/28
f 11/9/29 10/8/30 6/11/31 8/12/32
f 12/15/33 11/14/34 8/17/35 2/18/36
f 9/88/37 12/2/38 2/5/39 4/6/40
f 13/31/41 14/32/42 16/33/43 15/34/44
f 15/35/45 16/36/46 18/37/47 17/38/48
f 17/39/49 18/40/50 20/41/51 19/42/52
f 19/43/53 20/44/54 14/45/55 13/46/56
f 14/47/57 20/48/58 18/49/59 16/50/60
f 19/51/61 13/52/62 15/53/63 17/54/64
f 21/55/65 22/56/66 29/57/67 30/101/68
f 23/61/69 24/62/70 26/63/71 25/64/72
f 31/100/73 32/95/74 28/67/75 27/68/76
f 27/71/77 28/72/78 22/73/79 21/74/80
f 22/75/81 28/76/82 32/96/83 29/78/84
f 27/81/85 21/82/86 30/102/87 31/99/88
f 30/58/89 29/97/90 24/59/91 23/60/92
f 31/84/93 30/83/94 23/85/95 25/86/96
f 25/69/97 26/70/98 32/66/99 31/65/100
f 29/98/101 32/77/102 26/79/103 24/80/104
