# This file uses centimeters as units for non-parametric coordinates.

v -0.409737 -0.498410 -0.100038
v -0.409737 -0.498410 0.100038
v -0.409737 -0.370473 -0.100038
v -0.409737 -0.370473 0.100038
v -0.167003 -0.370473 -0.100038
v -0.167003 -0.370473 0.100038
v -0.167003 -0.498410 -0.100038
v -0.167003 -0.498410 0.100038
v -0.408481 -0.319164 -0.100038
v -0.408481 -0.319164 0.100038
v -0.358092 0.498410 -0.100038
v -0.358092 0.498410 0.100038
v -0.218647 0.498410 -0.100038
v -0.218647 0.498410 0.100038
v -0.168259 -0.319164 -0.100038
v -0.168259 -0.319164 0.100038
v -0.408481 0.329791 -0.100038
v -0.408481 0.329791 0.100038
v -0.168259 0.329791 0.100038
v -0.168259 0.329791 -0.100038
v -0.124759 -0.498410 -0.100038
v -0.124759 -0.498410 0.100038
v -0.124759 -0.370473 -0.100038
v -0.124759 -0.370473 0.100038
v 0.117976 -0.370473 -0.100038
v 0.117976 -0.370473 0.100038
v 0.117976 -0.498410 -0.100038
v 0.117976 -0.498410 0.100038
v -0.123503 -0.319164 -0.100038
v -0.123503 -0.319164 0.100038
v -0.073113 0.498410 -0.100038
v -0.073113 0.498410 0.100038
v 0.066331 0.498410 -0.100038
v 0.066331 0.498410 0.100038
v 0.116720 -0.319164 -0.100038
v 0.116720 -0.319164 0.100038
v -0.123503 0.329791 -0.100038
v -0.123503 0.329791 0.100038
v 0.116720 0.329791 0.100038
v 0.116720 0.329791 -0.100038
v 0.167003 -0.498410 -0.100038
v 0.167003 -0.498410 0.100038
v 0.167003 -0.370473 -0.100038
v 0.167003 -0.370473 0.100038
v 0.409738 -0.370473 -0.100038
v 0.409738 -0.370473 0.100038
v 0.409738 -0.498410 -0.100038
v 0.409738 -0.498410 0.100038
v 0.168259 -0.319164 -0.100038
v 0.168259 -0.319164 0.100038
v 0.218648 0.498410 -0.100038
v 0.218648 0.498410 0.100038
v 0.358092 0.498410 -0.100038
v 0.358092 0.498410 0.100038
v 0.408482 -0.319164 -0.100038
v 0.408482 -0.319164 0.100038
v 0.168259 0.329791 -0.100038
v 0.168259 0.329791 0.100038
v 0.408482 0.329791 0.100038
v 0.408482 0.329791 -0.100038
vt 0.369044 0.953551
vt 0.369044 0.953551
vt 0.369044 0.953551
vt 0.369044 0.953551
vt 0.865003 0.953551
vt 0.865003 0.953551
vt 0.865003 0.953551
vt 0.865003 0.953551
vt 0.369044 0.953551
vt 0.369044 0.953551
vt 0.369044 0.953551
vt 0.369044 0.953551
vt 0.126308 0.953551
vt 0.126308 0.953551
vt 0.126308 0.953551
vt 0.126308 0.953551
vt 0.620417 0.953551
vt 0.620417 0.953551
vt 0.620417 0.953551
vt 0.620417 0.953551
vt 0.620417 0.953551
vt 0.620417 0.953551
vt 0.620417 0.953551
vt 0.620417 0.953551
vt 0.369044 0.953551
vt 0.369044 0.953551
vt 0.369044 0.953551
vt 0.369044 0.953551
vt 0.865003 0.953551
vt 0.865003 0.953551
vt 0.865003 0.953551
vt 0.865003 0.953551
vt 0.369044 0.953551
vt 0.369044 0.953551
vt 0.369044 0.953551
vt 0.369044 0.953551
vt 0.126308 0.953551
vt 0.126308 0.953551
vt 0.126308 0.953551
vt 0.126308 0.953551
vt 0.620417 0.953551
vt 0.620417 0.953551
vt 0.620417 0.953551
vt 0.620417 0.953551
vt 0.620417 0.953551
vt 0.620417 0.953551
vt 0.620417 0.953551
vt 0.620417 0.953551
vt 0.369044 0.953551
vt 0.369044 0.953551
vt 0.620417 0.953551
vt 0.620417 0.953551
vt 0.369044 0.953551
vt 0.369044 0.953551
vt 0.620417 0.953551
vt 0.620417 0.953551
vt 0.369044 0.953551
vt 0.369044 0.953551
vt 0.369044 0.953551
vt 0.369044 0.953551
vt 0.865003 0.953551
vt 0.865003 0.953551
vt 0.865003 0.953551
vt 0.865003 0.953551
vt 0.369044 0.953551
vt 0.369044 0.953551
vt 0.369044 0.953551
vt 0.369044 0.953551
vt 0.126308 0.953551
vt 0.126308 0.953551
vt 0.126308 0.953551
vt 0.126308 0.953551
vt 0.620417 0.953551
vt 0.620417 0.953551
vt 0.620417 0.953551
vt 0.620417 0.953551
vt 0.620417 0.953551
vt 0.620417 0.953551
vt 0.620417 0.953551
vt 0.620417 0.953551
vt 0.369044 0.953551
vt 0.369044 0.953551
vt 0.369044 0.953551
vt 0.369044 0.953551
vt 0.865003 0.953551
vt 0.865003 0.953551
vt 0.865003 0.953551
vt 0.865003 0.953551
vt 0.369044 0.953551
vt 0.369044 0.953551
vt 0.369044 0.953551
vt 0.369044 0.953551
vt 0.126308 0.953551
vt 0.126308 0.953551
vt 0.126308 0.953551
vt 0.126308 0.953551
vt 0.620417 0.953551
vt 0.620417 0.953551
vt 0.620417 0.953551
vt 0.620417 0.953551
vt 0.620417 0.953551
vt 0.620417 0.953551
vt 0.620417 0.953551
vt 0.620417 0.953551
vt 0.369044 0.953551
vt 0.369044 0.953551
vt 0.620417 0.953551
vt 0.620417 0.953551
vt 0.369044 0.953551
vt 0.369044 0.953551
vt 0.620417 0.953551
vt 0.620417 0.953551
vt 0.369044 0.953551
vt 0.369044 0.953551
vt 0.369044 0.953551
vt 0.369044 0.953551
vt 0.865003 0.953551
vt 0.865003 0.953551
vt 0.865003 0.953551
vt 0.865003 0.953551
vt 0.369044 0.953551
vt 0.369044 0.953551
vt 0.369044 0.953551
vt 0.369044 0.953551
vt 0.126308 0.953551
vt 0.126308 0.953551
vt 0.126308 0.953551
vt 0.126308 0.953551
vt 0.620417 0.953551
vt 0.620417 0.953551
vt 0.620417 0.953551
vt 0.620417 0.953551
vt 0.620417 0.953551
vt 0.620417 0.953551
vt 0.620417 0.953551
vt 0.620417 0.953551
vt 0.369044 0.953551
vt 0.369044 0.953551
vt 0.369044 0.953551
vt 0.369044 0.953551
vt 0.865003 0.953551
vt 0.865003 0.953551
vt 0.865003 0.953551
vt 0.865003 0.953551
vt 0.369044 0.953551
vt 0.369044 0.953551
vt 0.369044 0.953551
vt 0.369044 0.953551
vt 0.126308 0.953551
vt 0.126308 0.953551
vt 0.126308 0.953551
vt 0.126308 0.953551
vt 0.620417 0.953551
vt 0.620417 0.953551
vt 0.620417 0.953551
vt 0.620417 0.953551
vt 0.620417 0.953551
vt 0.620417 0.953551
vt 0.620417 0.953551
vt 0.620417 0.953551
vt 0.369044 0.953551
vt 0.369044 0.953551
vt 0.620417 0.953551
vt 0.620417 0.953551
vt 0.369044 0.953551
vt 0.369044 0.953551
vt 0.620417 0.953551
vt 0.620417 0.953551
vn -1.000000 0.000000 -0.000000
vn -1.000000 0.000000 -0.000000
vn -1.000000 0.000000 -0.000000
vn -1.000000 0.000000 -0.000000
vn 0.000000 1.000000 0.000000
vn 0.000000 1.000000 0.000000
vn 0.000000 1.000000 0.000000
vn 0.000000 1.000000 0.000000
vn 1.000000 0.000000 0.000000
vn 1.000000 0.000000 0.000000
vn 1.000000 0.000000 0.000000
vn 1.000000 0.000000 0.000000
vn 0.000000 -1.000000 0.000000
vn 0.000000 -1.000000 0.000000
vn 0.000000 -1.000000 0.000000
vn 0.000000 -1.000000 0.000000
vn -0.000000 0.000000 1.000000
vn -0.000000 0.000000 1.000000
vn -0.000000 0.000000 1.000000
vn -0.000000 0.000000 1.000000
vn -0.000000 0.000000 -1.000000
vn -0.000000 0.000000 -1.000000
vn -0.000000 0.000000 -1.000000
vn -0.000000 0.000000 -1.000000
vn -0.958134 0.286319 -0.000000
vn -0.958134 0.286319 -0.000000
vn -0.958134 0.286319 -0.000000
vn -0.958134 0.286319 -0.000000
vn 0.000000 1.000000 0.000000
vn 0.000000 1.000000 0.000000
vn 0.000000 1.000000 0.000000
vn 0.000000 1.000000 0.000000
vn 0.958134 0.286319 0.000000
vn 0.958134 0.286319 0.000000
vn 0.958134 0.286319 0.000000
vn 0.958134 0.286319 0.000000
vn 0.000000 -1.000000 -0.000000
vn 0.000000 -1.000000 -0.000000
vn 0.000000 -1.000000 -0.000000
vn 0.000000 -1.000000 -0.000000
vn 0.000000 0.000000 1.000000
vn 0.000000 0.000000 1.000000
vn 0.000000 0.000000 1.000000
vn 0.000000 0.000000 1.000000
vn -0.000000 -0.000000 -1.000000
vn -0.000000 -0.000000 -1.000000
vn -0.000000 -0.000000 -1.000000
vn -0.000000 -0.000000 -1.000000
vn -1.000000 0.000000 -0.000000
vn -1.000000 0.000000 -0.000000
vn -1.000000 0.000000 -0.000000
vn -1.000000 0.000000 -0.000000
vn 0.000000 0.000000 1.000000
vn 0.000000 0.000000 1.000000
vn 0.000000 0.000000 1.000000
vn 0.000000 0.000000 1.000000
vn 1.000000 0.000000 0.000000
vn 1.000000 0.000000 0.000000
vn 1.000000 0.000000 0.000000
vn 1.000000 0.000000 0.000000
vn -0.000000 0.000000 -1.000000
vn -0.000000 0.000000 -1.000000
vn -0.000000 0.000000 -1.000000
vn -0.000000 0.000000 -1.000000
vn -1.000000 0.000000 0.000000
vn -1.000000 0.000000 0.000000
vn -1.000000 0.000000 0.000000
vn -1.000000 0.000000 0.000000
vn 0.000000 1.000000 0.000000
vn 0.000000 1.000000 0.000000
vn 0.000000 1.000000 0.000000
vn 0.000000 1.000000 0.000000
vn 1.000000 0.000000 0.000000
vn 1.000000 0.000000 0.000000
vn 1.000000 0.000000 0.000000
vn 1.000000 0.000000 0.000000
vn 0.000000 -1.000000 0.000000
vn 0.000000 -1.000000 0.000000
vn 0.000000 -1.000000 0.000000
vn 0.000000 -1.000000 0.000000
vn 0.000000 0.000000 1.000000
vn 0.000000 0.000000 1.000000
vn 0.000000 0.000000 1.000000
vn 0.000000 0.000000 1.000000
vn 0.000000 0.000000 -1.000000
vn 0.000000 0.000000 -1.000000
vn 0.000000 0.000000 -1.000000
vn 0.000000 0.000000 -1.000000
vn -0.958133 0.286324 0.000000
vn -0.958133 0.286324 0.000000
vn -0.958133 0.286324 0.000000
vn -0.958133 0.286324 0.000000
vn 0.000000 1.000000 0.000000
vn 0.000000 1.000000 0.000000
vn 0.000000 1.000000 0.000000
vn 0.000000 1.000000 0.000000
vn 0.958133 0.286324 0.000000
vn 0.958133 0.286324 0.000000
vn 0.958133 0.286324 0.000000
vn 0.958133 0.286324 0.000000
vn 0.000000 -1.000000 0.000000
vn 0.000000 -1.000000 0.000000
vn 0.000000 -1.000000 0.000000
vn 0.000000 -1.000000 0.000000
vn 0.000000 0.000000 1.000000
vn 0.000000 0.000000 1.000000
vn 0.000000 0.000000 1.000000
vn 0.000000 0.000000 1.000000
vn 0.000000 0.000000 -1.000000
vn 0.000000 0.000000 -1.000000
vn 0.000000 0.000000 -1.000000
vn 0.000000 0.000000 -1.000000
vn -1.000000 0.000000 0.000000
vn -1.000000 0.000000 0.000000
vn -1.000000 0.000000 0.000000
vn -1.000000 0.000000 0.000000
vn 0.000000 0.000000 1.000000
vn 0.000000 0.000000 1.000000
vn 0.000000 0.000000 1.000000
vn 0.000000 0.000000 1.000000
vn 1.000000 0.000000 0.000000
vn 1.000000 0.000000 0.000000
vn 1.000000 0.000000 0.000000
vn 1.000000 0.000000 0.000000
vn 0.000000 0.000000 -1.000000
vn 0.000000 0.000000 -1.000000
vn 0.000000 0.000000 -1.000000
vn 0.000000 0.000000 -1.000000
vn -1.000000 0.000000 0.000000
vn -1.000000 0.000000 0.000000
vn -1.000000 0.000000 0.000000
vn -1.000000 0.000000 0.000000
vn 0.000000 1.000000 0.000000
vn 0.000000 1.000000 0.000000
vn 0.000000 1.000000 0.000000
vn 0.000000 1.000000 0.000000
vn 1.000000 0.000000 -0.000000
vn 1.000000 0.000000 -0.000000
vn 1.000000 0.000000 -0.000000
vn 1.000000 0.000000 -0.000000
vn 0.000000 -1.000000 0.000000
vn 0.000000 -1.000000 0.000000
vn 0.000000 -1.000000 0.000000
vn 0.000000 -1.000000 0.000000
vn -0.000000 0.000000 1.000000
vn -0.000000 0.000000 1.000000
vn -0.000000 0.000000 1.000000
vn -0.000000 0.000000 1.000000
vn 0.000000 0.000000 -1.000000
vn 0.000000 0.000000 -1.000000
vn 0.000000 0.000000 -1.000000
vn 0.000000 0.000000 -1.000000
vn -0.958133 0.286324 0.000000
vn -0.958133 0.286324 0.000000
vn -0.958133 0.286324 0.000000
vn -0.958133 0.286324 0.000000
vn 0.000000 1.000000 0.000000
vn 0.000000 1.000000 0.000000
vn 0.000000 1.000000 0.000000
vn 0.000000 1.000000 0.000000
vn 0.958133 0.286324 -0.000000
vn 0.958133 0.286324 -0.000000
vn 0.958133 0.286324 -0.000000
vn 0.958133 0.286324 -0.000000
vn 0.000000 -1.000000 0.000000
vn 0.000000 -1.000000 0.000000
vn 0.000000 -1.000000 0.000000
vn 0.000000 -1.000000 0.000000
vn -0.000000 0.000000 1.000000
vn -0.000000 0.000000 1.000000
vn -0.000000 0.000000 1.000000
vn -0.000000 0.000000 1.000000
vn 0.000000 -0.000000 -1.000000
vn 0.000000 -0.000000 -1.000000
vn 0.000000 -0.000000 -1.000000
vn 0.000000 -0.000000 -1.000000
vn -1.000000 0.000000 0.000000
vn -1.000000 0.000000 0.000000
vn -1.000000 0.000000 0.000000
vn -1.000000 0.000000 0.000000
vn -0.000000 0.000000 1.000000
vn -0.000000 0.000000 1.000000
vn -0.000000 0.000000 1.000000
vn -0.000000 0.000000 1.000000
vn 1.000000 0.000000 -0.000000
vn 1.000000 0.000000 -0.000000
vn 1.000000 0.000000 -0.000000
vn 1.000000 0.000000 -0.000000
vn 0.000000 0.000000 -1.000000
vn 0.000000 0.000000 -1.000000
vn 0.000000 -0.000000 -1.000000
vn 0.000000 -0.000000 -1.000000
s off
f 1/1/1 2/2/2 4/3/3 3/4/4
f 3/5/5 4/6/6 6/7/7 5/8/8
f 5/9/9 6/10/10 8/11/11 7/12/12
f 7/13/13 8/14/14 2/15/15 1/16/16
f 2/17/17 8/18/18 6/19/19 4/20/20
f 7/21/21 1/22/22 3/23/23 5/24/24
f 17/25/25 18/26/26 12/27/27 11/28/28
f 11/29/29 12/30/30 14/31/31 13/32/32
f 13/33/33 14/34/34 19/35/35 20/36/36
f 15/37/37 16/38/38 10/39/39 9/40/40
f 18/41/41 19/42/42 14/43/43 12/44/44
f 20/45/45 17/46/46 11/47/47 13/48/48
f 9/49/49 10/50/50 18/26/51 17/25/52
f 10/51/53 16/52/54 19/42/55 18/41/56
f 20/36/57 19/35/58 16/53/59 15/54/60
f 15/55/61 9/56/62 17/46/63 20/45/64
f 21/57/65 22/58/66 24/59/67 23/60/68
f 23/61/69 24/62/70 26/63/71 25/64/72
f 25/65/73 26/66/74 28/67/75 27/68/76
f 27/69/77 28/70/78 22/71/79 21/72/80
f 22/73/81 28/74/82 26/75/83 24/76/84
f 27/77/85 21/78/86 23/79/87 25/80/88
f 37/81/89 38/82/90 32/83/91 31/84/92
f 31/85/93 32/86/94 34/87/95 33/88/96
f 33/89/97 34/90/98 39/91/99 40/92/100
f 35/93/101 36/94/102 30/95/103 29/96/104
f 38/97/105 39/98/106 34/99/107 32/100/108
f 40/101/109 37/102/110 31/103/111 33/104/112
f 29/105/113 30/106/114 38/82/115 37/81/116
f 30/107/117 36/108/118 39/98/119 38/97/120
f 40/92/121 39/91/122 36/109/123 35/110/124
f 35/111/125 29/112/126 37/102/127 40/101/128
f 41/113/129 42/114/130 44/115/131 43/116/132
f 43/117/133 44/118/134 46/119/135 45/120/136
f 45/121/137 46/122/138 48/123/139 47/124/140
f 47/125/141 48/126/142 42/127/143 41/128/144
f 42/129/145 48/130/146 46/131/147 44/132/148
f 47/133/149 41/134/150 43/135/151 45/136/152
f 57/137/153 58/138/154 52/139/155 51/140/156
f 51/141/157 52/142/158 54/143/159 53/144/160
f 53/145/161 54/146/162 59/147/163 60/148/164
f 55/149/165 56/150/166 50/151/167 49/152/168
f 58/153/169 59/154/170 54/155/171 52/156/172
f 60/157/173 57/158/174 51/159/175 53/160/176
f 49/161/177 50/162/178 58/138/179 57/137/180
f 50/163/181 56/164/182 59/154/183 58/153/184
f 60/148/185 59/147/186 56/165/187 55/166/188
f 55/167/189 49/168/190 57/158/191 60/157/192
