# This file uses centimeters as units for non-parametric coordinates.

v -0.324291 0.510010 -0.100038
v -0.324291 0.510010 0.100038
v 0.324291 0.510010 -0.100038
v 0.324291 0.510010 0.100038
v 0.324291 0.158700 0.100038
v -0.324291 0.262164 0.100038
v -0.324291 0.262164 -0.100038
v 0.324291 0.158700 -0.100038
v -0.209034 0.510010 -0.100038
v -0.209034 0.510010 0.100038
v -0.001873 0.510010 -0.100038
v -0.001873 0.510010 0.100038
v 0.266121 0.212996 0.100038
v 0.266121 0.460419 0.100038
v 0.140011 0.460419 0.100038
v 0.140011 0.231982 0.100038
v 0.266121 0.460419 -0.100038
v 0.266121 0.212996 -0.100038
v 0.140011 0.460419 -0.100038
v 0.140011 0.231982 -0.100038
v -0.209034 0.599625 -0.100038
v -0.209034 0.599625 0.100038
v -0.001873 0.599625 0.100038
v -0.001873 0.599625 -0.100038
v -0.209034 -0.599625 -0.100038
v -0.209034 -0.599625 0.100038
v -0.001873 -0.599625 -0.100038
v -0.001873 -0.599625 0.100038
v -0.209034 0.202059 -0.100038
v -0.209034 0.202059 0.100038
v -0.001873 0.170925 0.100038
v -0.001873 0.170925 -0.100038
v -0.157288 -0.047557 0.100038
v 0.049873 -0.047557 0.100038
v 0.049873 -0.047557 -0.100038
v -0.157288 -0.047557 -0.100038
v -0.249535 -0.341388 0.100038
v -0.042377 -0.341388 0.100038
v -0.042377 -0.341388 -0.100038
v -0.249535 -0.341388 -0.100038
v -0.209034 -0.523075 0.100038
v -0.001873 -0.523075 0.100038
v -0.001873 -0.523075 -0.100038
v -0.209034 -0.523075 -0.100038
v -0.001873 0.124255 -0.100038
v -0.001873 0.124255 0.100038
v -0.209034 0.124255 0.100038
v -0.209034 0.124255 -0.100038
vt 0.865003 0.953551
vt 0.865003 0.953551
vt 0.865003 0.953551
vt 0.865003 0.953551
vt 0.369044 0.953551
vt 0.369044 0.953551
vt 0.369044 0.953551
vt 0.369044 0.953551
vt 0.620417 0.953551
vt 0.620417 0.953551
vt 0.620417 0.953551
vt 0.620417 0.953551
vt 0.620417 0.953551
vt 0.620417 0.953551
vt 0.369044 0.953551
vt 0.369044 0.953551
vt 0.369044 0.953551
vt 0.369044 0.953551
vt 0.865003 0.953551
vt 0.865003 0.953551
vt 0.865003 0.953551
vt 0.865003 0.953551
vt 0.865003 0.953551
vt 0.865003 0.953551
vt 0.865003 0.953551
vt 0.865003 0.953551
vt 0.620417 0.953551
vt 0.620417 0.953551
vt 0.620417 0.953551
vt 0.620417 0.953551
vt 0.620417 0.953551
vt 0.620417 0.953551
vt 0.620417 0.953551
vt 0.620417 0.953551
vt 0.620417 0.953551
vt 0.620417 0.953551
vt 0.620417 0.953551
vt 0.620417 0.953551
vt 0.620417 0.953551
vt 0.620417 0.953551
vt 0.369044 0.953551
vt 0.369044 0.953551
vt 0.369044 0.953551
vt 0.369044 0.953551
vt 0.620417 0.953551
vt 0.620417 0.953551
vt 0.620417 0.953551
vt 0.620417 0.953551
vt 0.369044 0.953551
vt 0.369044 0.953551
vt 0.369044 0.953551
vt 0.369044 0.953551
vt 0.620417 0.953551
vt 0.620417 0.953551
vt 0.620417 0.953551
vt 0.620417 0.953551
vt 0.126308 0.953551
vt 0.126308 0.953551
vt 0.126308 0.953551
vt 0.126308 0.953551
vt 0.865003 0.953551
vt 0.865003 0.953551
vt 0.865003 0.953551
vt 0.865003 0.953551
vt 0.369044 0.953551
vt 0.369044 0.953551
vt 0.369044 0.953551
vt 0.369044 0.953551
vt 0.126308 0.953551
vt 0.126308 0.953551
vt 0.126308 0.953551
vt 0.126308 0.953551
vt 0.369044 0.953551
vt 0.369044 0.953551
vt 0.369044 0.953551
vt 0.369044 0.953551
vt 0.126308 0.953551
vt 0.126308 0.953551
vt 0.126308 0.953551
vt 0.126308 0.953551
vt 0.369044 0.953551
vt 0.369044 0.953551
vt 0.369044 0.953551
vt 0.369044 0.953551
vt 0.620417 0.953551
vt 0.620417 0.953551
vt 0.620417 0.953551
vt 0.620417 0.953551
vt 0.369044 0.953551
vt 0.369044 0.953551
vt 0.369044 0.953551
vt 0.369044 0.953551
vt 0.620417 0.953551
vt 0.620417 0.953551
vt 0.620417 0.953551
vt 0.620417 0.953551
vt 0.865003 0.953551
vt 0.865003 0.953551
vt 0.865003 0.953551
vt 0.865003 0.953551
vt 0.620417 0.953551
vt 0.620417 0.953551
vt 0.369044 0.953551
vt 0.369044 0.953551
vt 0.620417 0.953551
vt 0.620417 0.953551
vt 0.369044 0.953551
vt 0.369044 0.953551
vt 0.620417 0.953551
vt 0.620417 0.953551
vt 0.369044 0.953551
vt 0.369044 0.953551
vt 0.620417 0.953551
vt 0.620417 0.953551
vt 0.369044 0.953551
vt 0.369044 0.953551
vt 0.620417 0.953551
vt 0.620417 0.953551
vt 0.369044 0.953551
vt 0.369044 0.953551
vt 0.620417 0.953551
vt 0.620417 0.953551
vt 0.369044 0.953551
vt 0.369044 0.953551
vt 0.369044 0.953551
vt 0.369044 0.953551
vt 0.620417 0.953551
vt 0.620417 0.953551
vt 0.369044 0.953551
vt 0.369044 0.953551
vt 0.620417 0.953551
vt 0.620417 0.953551
vn 0.000000 1.000000 0.000000
vn 0.000000 1.000000 0.000000
vn 0.000000 1.000000 0.000000
vn 0.000000 1.000000 0.000000
vn -1.000000 0.000000 0.000000
vn -1.000000 0.000000 0.000000
vn -1.000000 0.000000 0.000000
vn -1.000000 0.000000 0.000000
vn 0.000000 0.000000 -1.000000
vn 0.000000 0.000000 -1.000000
vn 0.000000 0.000000 -1.000000
vn 0.000000 0.000000 -1.000000
vn 0.000000 0.000000 -1.000000
vn 0.000000 0.000000 -1.000000
vn 1.000000 0.000000 0.000000
vn 1.000000 0.000000 0.000000
vn 1.000000 0.000000 0.000000
vn 1.000000 0.000000 0.000000
vn 0.000000 1.000000 0.000000
vn 0.000000 1.000000 0.000000
vn 0.000000 1.000000 0.000000
vn 0.000000 1.000000 0.000000
vn 0.000000 1.000000 -0.000000
vn 0.000000 1.000000 -0.000000
vn 0.000000 1.000000 -0.000000
vn 0.000000 1.000000 -0.000000
vn 0.000000 0.000000 1.000000
vn 0.000000 0.000000 1.000000
vn 0.000000 0.000000 1.000000
vn 0.000000 0.000000 1.000000
vn 0.000000 -0.000000 1.000000
vn 0.000000 -0.000000 1.000000
vn 0.000000 -0.000000 1.000000
vn 0.000000 -0.000000 1.000000
vn 0.000000 -0.000000 1.000000
vn 0.000000 -0.000000 1.000000
vn 0.000000 0.000000 1.000000
vn 0.000000 0.000000 1.000000
vn 0.000000 0.000000 1.000000
vn 0.000000 0.000000 1.000000
vn 0.000000 0.000000 1.000000
vn 0.000000 0.000000 1.000000
vn 0.000000 0.000000 1.000000
vn 0.000000 0.000000 1.000000
vn 0.000000 0.000000 -1.000000
vn 0.000000 0.000000 -1.000000
vn 0.000000 0.000000 -1.000000
vn 0.000000 0.000000 -1.000000
vn -0.000000 0.000000 -1.000000
vn -0.000000 0.000000 -1.000000
vn -0.000000 0.000000 -1.000000
vn -0.000000 0.000000 -1.000000
vn 0.000000 0.000000 -1.000000
vn 0.000000 0.000000 -1.000000
vn 0.000000 0.000000 -1.000000
vn 0.000000 0.000000 -1.000000
vn -1.000000 0.000000 0.000000
vn -1.000000 0.000000 0.000000
vn -1.000000 0.000000 0.000000
vn -1.000000 0.000000 0.000000
vn 0.000000 0.000000 1.000000
vn 0.000000 0.000000 1.000000
vn 0.000000 0.000000 1.000000
vn 0.000000 0.000000 1.000000
vn 1.000000 0.000000 0.000000
vn 1.000000 0.000000 0.000000
vn 1.000000 0.000000 0.000000
vn 1.000000 0.000000 0.000000
vn 0.000000 0.000000 -1.000000
vn 0.000000 0.000000 -1.000000
vn 0.000000 0.000000 -1.000000
vn 0.000000 0.000000 -1.000000
vn -0.157532 -0.987514 0.000000
vn -0.157532 -0.987514 0.000000
vn -0.157532 -0.987514 0.000000
vn -0.157532 -0.987514 0.000000
vn 0.148868 0.988857 0.000000
vn 0.148868 0.988857 0.000000
vn 0.148868 0.988857 0.000000
vn 0.148868 0.988857 0.000000
vn 1.000000 0.000000 0.000000
vn 1.000000 0.000000 0.000000
vn 1.000000 0.000000 0.000000
vn 1.000000 0.000000 0.000000
vn 0.000000 -1.000000 0.000001
vn 0.000000 -1.000000 0.000001
vn 0.000000 -1.000000 0.000001
vn 0.000000 -1.000000 0.000001
vn -1.000000 0.000000 0.000000
vn -1.000000 0.000000 0.000000
vn -1.000000 0.000000 0.000000
vn -1.000000 0.000000 0.000000
vn 0.000000 -1.000000 -0.000000
vn 0.000000 -1.000000 -0.000000
vn 0.000000 -1.000000 -0.000000
vn 0.000000 -1.000000 -0.000000
vn -0.957515 -0.288385 0.000000
vn -0.957515 -0.288385 0.000000
vn -0.957515 -0.288385 0.000000
vn -0.957515 -0.288385 0.000000
vn 0.000000 -0.000000 1.000000
vn 0.000000 -0.000000 1.000000
vn 0.000000 -0.000000 1.000000
vn 0.000000 -0.000000 1.000000
vn 0.957515 0.288385 0.000000
vn 0.957515 0.288385 0.000000
vn 0.957515 0.288385 0.000000
vn 0.957515 0.288385 0.000000
vn 0.000000 0.000000 -1.000000
vn 0.000000 0.000000 -1.000000
vn 0.000000 0.000000 -1.000000
vn 0.000000 0.000000 -1.000000
vn 0.148618 0.988895 0.000000
vn 0.148618 0.988895 0.000000
vn 0.148618 0.988895 0.000000
vn 0.148618 0.988895 0.000000
vn 0.000000 0.000000 1.000000
vn 0.000000 0.000000 1.000000
vn 0.000000 0.000000 1.000000
vn 0.000000 0.000000 1.000000
vn 0.954083 -0.299543 -0.000000
vn 0.954083 -0.299543 -0.000000
vn 0.954083 -0.299543 -0.000000
vn 0.954083 -0.299543 -0.000000
vn 0.000000 0.000000 -1.000000
vn 0.000000 0.000000 -1.000000
vn 0.000000 0.000000 -1.000000
vn 0.000000 0.000000 -1.000000
vn -0.954086 0.299532 0.000000
vn -0.954086 0.299532 0.000000
vn -0.954086 0.299532 0.000000
vn -0.954086 0.299532 0.000000
vn 0.000000 -0.000000 1.000000
vn 0.000000 -0.000000 1.000000
vn 0.000000 -0.000000 1.000000
vn 0.000000 -0.000000 1.000000
vn 0.976039 0.217594 -0.000000
vn 0.976039 0.217594 -0.000000
vn 0.976039 0.217594 -0.000000
vn 0.976039 0.217594 -0.000000
vn 0.000000 0.000000 -1.000000
vn 0.000000 0.000000 -1.000000
vn 0.000000 0.000000 -1.000000
vn 0.000000 0.000000 -1.000000
vn -0.976044 -0.217574 0.000000
vn -0.976044 -0.217574 0.000000
vn -0.976044 -0.217574 0.000000
vn -0.976044 -0.217574 0.000000
vn 0.000000 0.000000 1.000000
vn 0.000000 0.000000 1.000000
vn 0.000000 0.000000 1.000000
vn 0.000000 0.000000 1.000000
vn 1.000000 0.000000 0.000000
vn 1.000000 0.000000 0.000000
vn 1.000000 0.000000 0.000000
vn 1.000000 0.000000 0.000000
vn 0.000000 0.000000 -1.000000
vn 0.000000 0.000000 -1.000000
vn 0.000000 0.000000 -1.000000
vn 0.000000 0.000000 -1.000000
vn -1.000000 0.000000 0.000000
vn -1.000000 0.000000 0.000000
vn -1.000000 0.000000 0.000000
vn -1.000000 0.000000 0.000000
vn 1.000000 0.000000 0.000000
vn 1.000000 0.000000 0.000000
vn 1.000000 0.000000 0.000000
vn 1.000000 0.000000 0.000000
vn 0.000000 0.000000 1.000000
vn 0.000000 0.000000 1.000000
vn 0.000000 0.000000 1.000000
vn 0.000000 0.000000 1.000000
vn -1.000000 0.000000 0.000000
vn -1.000000 0.000000 0.000000
vn -1.000000 0.000000 0.000000
vn -1.000000 0.000000 0.000000
vn 0.000000 0.000000 -1.000000
vn 0.000000 0.000000 -1.000000
vn 0.000000 0.000000 -1.000000
vn 0.000000 0.000000 -1.000000
s off
f 11/1/1 12/2/2 4/3/3 3/4/4
f 7/5/5 6/6/6 2/7/7 1/8/8
f 17/9/9 19/10/10 1/11/11 9/12/12 11/13/13 3/14/14
f 3/15/15 4/16/16 5/17/17 8/18/18
f 1/19/19 2/20/20 10/21/21 9/22/22
f 21/23/23 22/24/24 23/25/25 24/26/26
f 4/27/27 14/28/28 13/29/29 5/30/30
f 2/31/31 15/32/32 14/28/33 4/27/34 12/33/35 10/34/36
f 6/35/37 16/36/38 15/32/39 2/31/40
f 6/35/41 5/30/42 13/29/43 16/36/44
f 8/37/45 18/38/46 17/9/47 3/14/48
f 19/10/49 20/39/50 7/40/51 1/11/52
f 8/37/53 7/40/54 20/39/55 18/38/56
f 9/41/57 10/42/58 22/43/59 21/44/60
f 10/45/61 12/46/62 23/47/63 22/48/64
f 12/49/65 11/50/66 24/51/67 23/52/68
f 11/53/69 9/54/70 21/55/71 24/56/72
f 6/57/73 7/58/74 8/59/75 5/60/76
f 13/61/77 18/62/78 20/63/79 16/64/80
f 16/65/81 20/66/82 19/67/83 15/68/84
f 15/69/85 19/70/86 17/71/87 14/72/88
f 14/73/89 17/74/90 18/75/91 13/76/92
f 27/77/93 28/78/94 26/79/95 25/80/96
f 36/81/97 33/82/98 47/83/99 48/84/100
f 33/85/101 34/86/102 46/87/103 47/88/104
f 45/89/105 46/90/106 34/91/107 35/92/108
f 35/93/109 36/94/110 48/95/111 45/96/112
f 30/97/113 31/98/114 32/99/115 29/100/116
f 37/101/117 38/102/118 34/86/119 33/85/120
f 35/92/121 34/91/122 38/103/123 39/104/124
f 39/105/125 40/106/126 36/94/127 35/93/128
f 40/107/129 37/108/130 33/82/131 36/81/132
f 41/109/133 42/110/134 38/102/135 37/101/136
f 39/104/137 38/103/138 42/111/139 43/112/140
f 43/113/141 44/114/142 40/106/143 39/105/144
f 44/115/145 41/116/146 37/108/147 40/107/148
f 26/117/149 28/118/150 42/110/151 41/109/152
f 43/112/153 42/111/154 28/119/155 27/120/156
f 27/121/157 25/122/158 44/114/159 43/113/160
f 25/123/161 26/124/162 41/116/163 44/115/164
f 32/125/165 31/126/166 46/90/167 45/89/168
f 47/88/169 46/87/170 31/127/171 30/128/172
f 48/84/173 47/83/174 30/129/175 29/130/176
f 45/96/177 48/95/178 29/131/179 32/132/180
