# This file uses centimeters as units for non-parametric coordinates.

v -0.038448 -0.170650 -0.100038
v -0.038448 -0.170650 0.100038
v -0.038448 -0.047058 -0.100038
v -0.038448 -0.047058 0.100038
v 0.035179 -0.047058 -0.100038
v 0.035179 -0.047058 0.100038
v 0.035179 -0.170650 -0.100038
v 0.035179 -0.170650 0.100038
v -0.500000 -0.399043 -0.100038
v -0.500000 -0.399043 0.100038
v -0.500000 -0.047058 -0.100038
v -0.500000 -0.047058 0.100038
v 0.500000 -0.047058 -0.100038
v 0.500000 -0.047058 0.100038
v 0.500000 -0.399043 -0.100038
v 0.500000 -0.399043 0.100038
v -0.081165 -0.212986 -0.100038
v 0.076317 -0.212986 -0.100038
v -0.081165 -0.212986 0.100038
v 0.076317 -0.212986 0.100038
v -0.081165 -0.047058 -0.100038
v -0.081165 -0.047058 0.100038
v 0.076317 -0.047058 -0.100038
v 0.076317 -0.047058 0.100038
v -0.500000 0.000325 -0.100038
v -0.500000 0.000325 0.100038
v -0.500000 0.227868 -0.100038
v -0.500000 0.227868 0.100038
v 0.500000 0.227868 -0.100038
v 0.500000 0.227868 0.100038
v 0.500000 0.000325 -0.100038
v 0.500000 0.000325 0.100038
v -0.103527 0.227868 -0.100038
v -0.103527 0.227868 0.100038
v -0.167400 0.227868 0.100038
v -0.167400 0.227868 -0.100038
v 0.101360 0.227868 0.100038
v 0.101360 0.227868 -0.100038
v 0.162552 0.227868 0.100038
v 0.162552 0.227868 -0.100038
v -0.167400 0.399043 0.100038
v -0.167400 0.399043 -0.100038
v -0.103527 0.343043 0.100038
v -0.103527 0.343043 -0.100038
v 0.101360 0.343043 0.100038
v 0.101360 0.343043 -0.100038
v 0.162552 0.399043 0.100038
v 0.162552 0.399043 -0.100038
vt 0.369044 0.953552
vt 0.369044 0.953552
vt 0.369044 0.953552
vt 0.369044 0.953552
vt 0.865003 0.953552
vt 0.865003 0.953552
vt 0.865003 0.953552
vt 0.865003 0.953552
vt 0.369044 0.953552
vt 0.369044 0.953552
vt 0.369044 0.953552
vt 0.369044 0.953552
vt 0.126308 0.953552
vt 0.126308 0.953552
vt 0.126308 0.953552
vt 0.126308 0.953552
vt 0.620417 0.953552
vt 0.620417 0.953552
vt 0.620417 0.953552
vt 0.620417 0.953552
vt 0.620417 0.953552
vt 0.620417 0.953552
vt 0.620417 0.953552
vt 0.620417 0.953552
vt 0.369044 0.953552
vt 0.369044 0.953552
vt 0.369044 0.953552
vt 0.369044 0.953552
vt 0.865003 0.953552
vt 0.865003 0.953552
vt 0.865003 0.953552
vt 0.865003 0.953552
vt 0.369044 0.953552
vt 0.369044 0.953552
vt 0.369044 0.953552
vt 0.369044 0.953552
vt 0.126308 0.953552
vt 0.126308 0.953552
vt 0.126308 0.953552
vt 0.126308 0.953552
vt 0.620417 0.953552
vt 0.620417 0.953552
vt 0.620417 0.953552
vt 0.620417 0.953552
vt 0.620417 0.953552
vt 0.620417 0.953552
vt 0.620417 0.953552
vt 0.620417 0.953552
vt 0.620417 0.953552
vt 0.620417 0.953552
vt 0.620417 0.953552
vt 0.620417 0.953552
vt 0.620417 0.953552
vt 0.620417 0.953552
vt 0.620417 0.953552
vt 0.620417 0.953552
vt 0.369044 0.953552
vt 0.369044 0.953552
vt 0.369044 0.953552
vt 0.369044 0.953552
vt 0.865003 0.953552
vt 0.865003 0.953552
vt 0.865003 0.953552
vt 0.865003 0.953552
vt 0.865003 0.953552
vt 0.865003 0.953552
vt 0.865003 0.953552
vt 0.865003 0.953552
vt 0.369044 0.953552
vt 0.369044 0.953552
vt 0.369044 0.953552
vt 0.369044 0.953552
vt 0.369044 0.953552
vt 0.369044 0.953552
vt 0.369044 0.953552
vt 0.369044 0.953552
vt 0.865003 0.953552
vt 0.865003 0.953552
vt 0.865003 0.953552
vt 0.865003 0.953552
vt 0.369044 0.953552
vt 0.369044 0.953552
vt 0.369044 0.953552
vt 0.369044 0.953552
vt 0.126308 0.953552
vt 0.126308 0.953552
vt 0.126308 0.953552
vt 0.126308 0.953552
vt 0.620417 0.953552
vt 0.620417 0.953552
vt 0.620417 0.953552
vt 0.620417 0.953552
vt 0.620417 0.953552
vt 0.620417 0.953552
vt 0.620417 0.953552
vt 0.620417 0.953552
vt 0.620417 0.953552
vt 0.620417 0.953552
vt 0.620417 0.953552
vt 0.620417 0.953552
vt 0.620417 0.953552
vt 0.620417 0.953552
vt 0.620417 0.953552
vt 0.620417 0.953552
vt 0.865003 0.953552
vt 0.865003 0.953552
vt 0.865003 0.953552
vt 0.865003 0.953552
vt 0.865003 0.953552
vt 0.865003 0.953552
vt 0.865003 0.953552
vt 0.865003 0.953552
vt 0.369044 0.953552
vt 0.369044 0.953552
vt 0.369044 0.953552
vt 0.369044 0.953552
vt 0.620417 0.953552
vt 0.620417 0.953552
vt 0.620417 0.953552
vt 0.620417 0.953552
vt 0.369044 0.953552
vt 0.369044 0.953552
vt 0.369044 0.953552
vt 0.369044 0.953552
vt 0.620417 0.953552
vt 0.620417 0.953552
vt 0.620417 0.953552
vt 0.620417 0.953552
vt 0.369044 0.953552
vt 0.369044 0.953552
vt 0.369044 0.953552
vt 0.369044 0.953552
vt 0.620417 0.953552
vt 0.620417 0.953552
vt 0.620417 0.953552
vt 0.620417 0.953552
vt 0.369044 0.953552
vt 0.369044 0.953552
vt 0.369044 0.953552
vt 0.369044 0.953552
vt 0.620417 0.953552
vt 0.620417 0.953552
vt 0.620417 0.953552
vt 0.620417 0.953552
vt 0.126308 0.953552
vt 0.126308 0.953552
vt 0.126308 0.953552
vt 0.126308 0.953552
vt 0.865003 0.953552
vt 0.865003 0.953552
vt 0.865003 0.953552
vt 0.865003 0.953552
vn -1.000000 0.000000 0.000000
vn -1.000000 0.000000 0.000000
vn -1.000000 0.000000 0.000000
vn -1.000000 0.000000 0.000000
vn 0.000000 1.000000 0.000000
vn 0.000000 1.000000 0.000000
vn 0.000000 1.000000 0.000000
vn 0.000000 1.000000 0.000000
vn 1.000000 0.000000 0.000000
vn 1.000000 0.000000 0.000000
vn 1.000000 0.000000 0.000000
vn 1.000000 0.000000 0.000000
vn 0.000000 -1.000000 0.000000
vn 0.000000 -1.000000 0.000000
vn 0.000000 -1.000000 0.000000
vn 0.000000 -1.000000 0.000000
vn 0.000000 0.000000 1.000000
vn 0.000000 0.000000 1.000000
vn 0.000000 0.000000 1.000000
vn 0.000000 0.000000 1.000000
vn 0.000000 0.000000 -1.000000
vn 0.000000 0.000000 -1.000000
vn 0.000000 0.000000 -1.000000
vn 0.000000 0.000000 -1.000000
vn -1.000000 0.000000 0.000000
vn -1.000000 0.000000 0.000000
vn -1.000000 0.000000 0.000000
vn -1.000000 0.000000 0.000000
vn 0.000000 1.000000 0.000000
vn 0.000000 1.000000 0.000000
vn 0.000000 1.000000 0.000000
vn 0.000000 1.000000 0.000000
vn 1.000000 0.000000 -0.000000
vn 1.000000 0.000000 -0.000000
vn 1.000000 0.000000 -0.000000
vn 1.000000 0.000000 -0.000000
vn 0.000000 -1.000000 0.000000
vn 0.000000 -1.000000 0.000000
vn 0.000000 -1.000000 0.000000
vn 0.000000 -1.000000 0.000000
vn -0.000000 0.000000 1.000000
vn -0.000000 0.000000 1.000000
vn -0.000000 0.000000 1.000000
vn -0.000000 0.000000 1.000000
vn -0.000000 0.000000 1.000000
vn -0.000000 0.000000 1.000000
vn -0.000000 0.000000 1.000000
vn -0.000000 0.000000 1.000000
vn -0.000000 -0.000000 -1.000000
vn -0.000000 -0.000000 -1.000000
vn -0.000000 -0.000000 -1.000000
vn -0.000000 -0.000000 -1.000000
vn -0.000000 -0.000000 -1.000000
vn -0.000000 -0.000000 -1.000000
vn -0.000000 -0.000000 -1.000000
vn -0.000000 -0.000000 -1.000000
vn 1.000000 0.000000 -0.000000
vn 1.000000 0.000000 -0.000000
vn 1.000000 0.000000 -0.000000
vn 1.000000 0.000000 -0.000000
vn 0.000000 1.000000 0.000000
vn 0.000000 1.000000 0.000000
vn 0.000000 1.000000 0.000000
vn 0.000000 1.000000 0.000000
vn 0.000000 1.000000 0.000000
vn 0.000000 1.000000 0.000000
vn 0.000000 1.000000 0.000000
vn 0.000000 1.000000 0.000000
vn -1.000000 0.000000 0.000000
vn -1.000000 0.000000 0.000000
vn -1.000000 0.000000 0.000000
vn -1.000000 0.000000 0.000000
vn -1.000000 0.000000 0.000000
vn -1.000000 0.000000 0.000000
vn -1.000000 0.000000 0.000000
vn -1.000000 0.000000 0.000000
vn 0.000000 1.000000 0.000000
vn 0.000000 1.000000 0.000000
vn 0.000000 1.000000 0.000000
vn 0.000000 1.000000 0.000000
vn 1.000000 0.000000 -0.000000
vn 1.000000 0.000000 -0.000000
vn 1.000000 0.000000 -0.000000
vn 1.000000 0.000000 -0.000000
vn 0.000000 -1.000000 0.000000
vn 0.000000 -1.000000 0.000000
vn 0.000000 -1.000000 0.000000
vn 0.000000 -1.000000 0.000000
vn -0.000000 0.000000 1.000000
vn -0.000000 0.000000 1.000000
vn -0.000000 0.000000 1.000000
vn -0.000000 0.000000 1.000000
vn -0.000000 0.000000 1.000000
vn -0.000000 0.000000 1.000000
vn -0.000000 0.000000 1.000000
vn -0.000000 0.000000 1.000000
vn -0.000000 -0.000000 -1.000000
vn -0.000000 -0.000000 -1.000000
vn -0.000000 -0.000000 -1.000000
vn -0.000000 -0.000000 -1.000000
vn -0.000000 -0.000000 -1.000000
vn -0.000000 -0.000000 -1.000000
vn -0.000000 -0.000000 -1.000000
vn -0.000000 -0.000000 -1.000000
vn -0.000001 1.000000 0.000000
vn -0.000001 1.000000 0.000000
vn -0.000001 1.000000 0.000000
vn -0.000001 1.000000 0.000000
vn 0.000001 1.000000 0.000000
vn 0.000001 1.000000 0.000000
vn 0.000001 1.000000 0.000000
vn 0.000001 1.000000 0.000000
vn -1.000000 0.000000 0.000000
vn -1.000000 0.000000 0.000000
vn -1.000000 0.000000 0.000000
vn -1.000000 0.000000 0.000000
vn 0.000000 0.000000 1.000000
vn 0.000000 0.000000 1.000000
vn 0.000000 0.000000 1.000000
vn 0.000000 0.000000 1.000000
vn 1.000000 0.000000 -0.000000
vn 1.000000 0.000000 -0.000000
vn 1.000000 0.000000 -0.000000
vn 1.000000 0.000000 -0.000000
vn -0.000000 0.000000 -1.000000
vn -0.000000 0.000000 -1.000000
vn -0.000000 0.000000 -1.000000
vn -0.000000 0.000000 -1.000000
vn -1.000000 0.000000 0.000000
vn -1.000000 0.000000 0.000000
vn -1.000000 0.000000 0.000000
vn -1.000000 0.000000 0.000000
vn 0.000000 0.000000 1.000000
vn 0.000000 0.000000 1.000000
vn 0.000000 0.000000 1.000000
vn 0.000000 0.000000 1.000000
vn 1.000000 0.000000 0.000000
vn 1.000000 0.000000 0.000000
vn 1.000000 0.000000 0.000000
vn 1.000000 0.000000 0.000000
vn 0.000000 0.000000 -1.000000
vn 0.000000 0.000000 -1.000000
vn 0.000000 0.000000 -1.000000
vn 0.000000 0.000000 -1.000000
vn 0.000000 -1.000000 0.000000
vn 0.000000 -1.000000 0.000000
vn 0.000000 -1.000000 0.000000
vn 0.000000 -1.000000 0.000000
vn 0.000000 0.000000 -1.000000
vn 0.000000 0.000000 -1.000000
vn 0.000000 0.000000 -1.000000
vn 0.000000 0.000000 -1.000000
vn 0.000000 1.000000 0.000000
vn 0.000000 1.000000 0.000000
vn 0.000000 1.000000 0.000000
vn 0.000000 1.000000 0.000000
vn 0.000000 0.000000 1.000000
vn 0.000000 0.000000 1.000000
vn 0.000000 0.000000 1.000000
vn 0.000000 0.000000 1.000000
s off
f 1/1/1 2/2/2 4/3/3 3/4/4
f 3/5/5 4/6/6 6/7/7 5/8/8
f 5/9/9 6/10/10 8/11/11 7/12/12
f 7/13/13 8/14/14 2/15/15 1/16/16
f 2/17/17 8/18/18 6/19/19 4/20/20
f 7/21/21 1/22/22 3/23/23 5/24/24
f 9/25/25 10/26/26 12/27/27 11/28/28
f 17/29/29 19/30/30 20/31/31 18/32/32
f 13/33/33 14/34/34 16/35/35 15/36/36
f 15/37/37 16/38/38 10/39/39 9/40/40
f 10/41/41 16/42/42 14/43/43 24/44/44 20/45/45 19/46/46 22/47/47 12/48/48
f 15/49/49 9/50/50 11/51/51 21/52/52 17/53/53 18/54/54 23/55/55 13/56/56
f 21/57/57 22/58/58 19/59/59 17/60/60
f 23/61/61 24/62/62 14/63/63 13/64/64
f 11/65/65 12/66/66 22/67/67 21/68/68
f 18/69/69 20/70/70 24/71/71 23/72/72
f 25/73/73 26/74/74 28/75/75 27/76/76
f 33/77/77 34/78/78 37/79/79 38/80/80
f 29/81/81 30/82/82 32/83/83 31/84/84
f 31/85/85 32/86/86 26/87/87 25/88/88
f 26/89/89 32/90/90 30/91/91 39/92/92 37/93/93 34/94/94 35/95/95 28/96/96
f 31/97/97 25/98/98 27/99/99 36/100/100 33/101/101 38/102/102 40/103/103 29/104/104
f 27/105/105 28/106/106 35/107/107 36/108/108
f 40/109/109 39/110/110 30/111/111 29/112/112
f 36/113/113 35/114/114 41/115/115 42/116/116
f 35/117/117 34/118/118 43/119/119 41/120/120
f 34/121/121 33/122/122 44/123/123 43/124/124
f 33/125/125 36/126/126 42/127/127 44/128/128
f 38/129/129 37/130/130 45/131/131 46/132/132
f 37/133/133 39/134/134 47/135/135 45/136/136
f 39/137/137 40/138/138 48/139/139 47/140/140
f 40/141/141 38/142/142 46/143/143 48/144/144
f 43/145/145 44/146/146 46/147/147 45/148/148
f 44/128/149 42/127/150 48/144/151 46/143/152
f 42/149/153 41/150/154 47/151/155 48/152/156
f 41/120/157 43/119/158 45/136/159 47/135/160
