# This file uses centimeters as units for non-parametric coordinates.

v -0.351242 -0.217926 -0.100038
v -0.351242 -0.217926 0.100038
v -0.218054 0.427712 -0.100038
v -0.218054 0.427712 0.100038
v 0.218054 0.427712 -0.100038
v 0.218054 0.427712 0.100038
v 0.351242 -0.217926 -0.100038
v 0.351242 -0.217926 0.100038
v 0.258327 -0.217926 0.100038
v -0.258327 -0.217926 0.100038
v 0.160372 0.334799 0.100038
v -0.160372 0.334799 0.100038
v 0.258327 -0.217926 -0.100038
v -0.258327 -0.217926 -0.100038
v -0.160372 0.334799 -0.100038
v 0.160372 0.334799 -0.100038
v -0.351242 0.186171 0.100038
v -0.258327 0.186171 0.100038
v -0.258327 0.186171 -0.100038
v -0.351242 0.186171 -0.100038
v 0.351242 0.186171 0.100038
v 0.258327 0.186171 0.100038
v 0.258327 0.186171 -0.100038
v 0.351242 0.186171 -0.100038
v -0.070248 0.427712 0.100038
v 0.070248 0.427712 0.100038
v -0.070248 0.427712 -0.100038
v 0.070248 0.427712 -0.100038
v -0.070248 0.519921 -0.100038
v -0.070248 0.519921 0.100038
v 0.070248 0.519921 0.100038
v 0.070248 0.519921 -0.100038
v 0.351242 -0.359893 -0.100038
v 0.351242 -0.359893 0.100038
v -0.351242 -0.359893 0.100038
v -0.351242 -0.359893 -0.100038
v 0.422924 -0.274771 -0.100038
v 0.422924 -0.274771 0.100038
v 0.422924 -0.359893 0.100038
v 0.422924 -0.359893 -0.100038
v -0.422924 -0.274771 -0.100038
v -0.422924 -0.274771 0.100038
v -0.422924 -0.359893 -0.100038
v -0.422924 -0.359893 0.100038
v -0.105188 -0.519921 -0.100038
v -0.105188 -0.519921 0.100038
v -0.105188 -0.404764 -0.100038
v -0.105188 -0.404764 0.100038
v 0.105188 -0.404764 -0.100038
v 0.105188 -0.404764 0.100038
v 0.105188 -0.519921 -0.100038
v 0.105188 -0.519921 0.100038
vt 0.369044 0.953552
vt 0.369044 0.953552
vt 0.369044 0.953552
vt 0.369044 0.953552
vt 0.865003 0.953552
vt 0.865003 0.953552
vt 0.865003 0.953552
vt 0.865003 0.953552
vt 0.369044 0.953552
vt 0.369044 0.953552
vt 0.369044 0.953552
vt 0.369044 0.953552
vt 0.126308 0.953552
vt 0.126308 0.953552
vt 0.126308 0.953552
vt 0.126308 0.953552
vt 0.620417 0.953552
vt 0.620417 0.953552
vt 0.620417 0.953552
vt 0.620417 0.953552
vt 0.620417 0.953552
vt 0.620417 0.953552
vt 0.620417 0.953552
vt 0.620417 0.953552
vt 0.620417 0.953552
vt 0.620417 0.953552
vt 0.620417 0.953552
vt 0.620417 0.953552
vt 0.620417 0.953552
vt 0.620417 0.953552
vt 0.620417 0.953552
vt 0.620417 0.953552
vt 0.620417 0.953552
vt 0.620417 0.953552
vt 0.620417 0.953552
vt 0.620417 0.953552
vt 0.620417 0.953552
vt 0.620417 0.953552
vt 0.620417 0.953552
vt 0.620417 0.953552
vt 0.620417 0.953552
vt 0.620417 0.953552
vt 0.620417 0.953552
vt 0.620417 0.953552
vt 0.865003 0.953552
vt 0.865003 0.953552
vt 0.865003 0.953552
vt 0.865003 0.953552
vt 0.369044 0.953552
vt 0.369044 0.953552
vt 0.369044 0.953552
vt 0.369044 0.953552
vt 0.126308 0.953552
vt 0.126308 0.953552
vt 0.126308 0.953552
vt 0.126308 0.953552
vt 0.369044 0.953552
vt 0.369044 0.953552
vt 0.369044 0.953552
vt 0.369044 0.953552
vt 0.369044 0.953552
vt 0.369044 0.953552
vt 0.369044 0.953552
vt 0.369044 0.953552
vt 0.369044 0.953552
vt 0.369044 0.953552
vt 0.369044 0.953552
vt 0.369044 0.953552
vt 0.865003 0.953552
vt 0.865003 0.953552
vt 0.865003 0.953552
vt 0.865003 0.953552
vt 0.865003 0.953552
vt 0.865003 0.953552
vt 0.865003 0.953552
vt 0.865003 0.953552
vt 0.369044 0.953552
vt 0.369044 0.953552
vt 0.369044 0.953552
vt 0.369044 0.953552
vt 0.620417 0.953552
vt 0.620417 0.953552
vt 0.620417 0.953552
vt 0.620417 0.953552
vt 0.369044 0.953552
vt 0.369044 0.953552
vt 0.369044 0.953552
vt 0.369044 0.953552
vt 0.620417 0.953552
vt 0.620417 0.953552
vt 0.620417 0.953552
vt 0.620417 0.953552
vt 0.369044 0.953552
vt 0.369044 0.953552
vt 0.369044 0.953552
vt 0.369044 0.953552
vt 0.620417 0.953552
vt 0.620417 0.953552
vt 0.620417 0.953552
vt 0.620417 0.953552
vt 0.369044 0.953552
vt 0.369044 0.953552
vt 0.369044 0.953552
vt 0.369044 0.953552
vt 0.620417 0.953552
vt 0.620417 0.953552
vt 0.620417 0.953552
vt 0.620417 0.953552
vt 0.865003 0.953552
vt 0.865003 0.953552
vt 0.865003 0.953552
vt 0.865003 0.953552
vt 0.620417 0.953552
vt 0.620417 0.953552
vt 0.620417 0.953552
vt 0.620417 0.953552
vt 0.126308 0.953552
vt 0.126308 0.953552
vt 0.126308 0.953552
vt 0.126308 0.953552
vt 0.620417 0.953552
vt 0.620417 0.953552
vt 0.620417 0.953552
vt 0.620417 0.953552
vt 0.865003 0.953552
vt 0.865003 0.953552
vt 0.865003 0.953552
vt 0.865003 0.953552
vt 0.620417 0.953552
vt 0.620417 0.953552
vt 0.620417 0.953552
vt 0.620417 0.953552
vt 0.126308 0.953552
vt 0.126308 0.953552
vt 0.126308 0.953552
vt 0.126308 0.953552
vt 0.620417 0.953552
vt 0.620417 0.953552
vt 0.620417 0.953552
vt 0.620417 0.953552
vt 0.369044 0.953552
vt 0.369044 0.953552
vt 0.369044 0.953552
vt 0.369044 0.953552
vt 0.865003 0.953552
vt 0.865003 0.953552
vt 0.865003 0.953552
vt 0.865003 0.953552
vt 0.369044 0.953552
vt 0.369044 0.953552
vt 0.369044 0.953552
vt 0.369044 0.953552
vt 0.126308 0.953552
vt 0.126308 0.953552
vt 0.126308 0.953552
vt 0.126308 0.953552
vt 0.620417 0.953552
vt 0.620417 0.953552
vt 0.620417 0.953552
vt 0.620417 0.953552
vt 0.620417 0.953552
vt 0.620417 0.953552
vt 0.620417 0.953552
vt 0.620417 0.953552
vn -0.875695 0.482866 0.000000
vn -0.875695 0.482866 0.000000
vn -0.875695 0.482866 0.000000
vn -0.875695 0.482866 0.000000
vn 0.000002 1.000000 -0.000000
vn 0.000002 1.000000 -0.000000
vn 0.000002 1.000000 -0.000000
vn 0.000002 1.000000 -0.000000
vn 1.000000 0.000000 0.000000
vn 1.000000 0.000000 0.000000
vn 1.000000 0.000000 0.000000
vn 1.000000 0.000000 0.000000
vn 0.000000 -1.000000 0.000000
vn 0.000000 -1.000000 0.000000
vn 0.000000 -1.000000 0.000000
vn 0.000000 -1.000000 0.000000
vn 0.000000 -0.000000 -0.000000
vn 0.000000 -0.000000 -0.000000
vn 0.000000 -0.925211 -0.379453
vn 0.000000 -0.925211 -0.379453
vn 0.000000 0.000000 1.000000
vn 0.000000 0.000000 1.000000
vn 0.000000 0.000000 1.000000
vn 0.000000 0.000000 1.000000
vn 0.000000 -0.000000 1.000000
vn 0.000000 -0.000000 1.000000
vn 0.000000 -0.000000 1.000000
vn 0.000000 -0.000000 1.000000
vn 0.000000 -0.000000 1.000000
vn 0.000000 -0.000000 1.000000
vn -0.000000 0.000000 1.000000
vn -0.000000 0.000000 1.000000
vn -0.000000 0.000000 1.000000
vn -0.000000 0.000000 1.000000
vn 0.000000 0.000000 0.000000
vn 0.000000 0.000000 0.000000
vn 0.000000 0.000000 0.000000
vn 0.000000 0.000000 0.000000
vn 0.000000 0.000000 -1.000000
vn 0.000000 0.000000 -1.000000
vn 0.000000 0.000000 -1.000000
vn 0.000000 0.000000 -1.000000
vn 0.000000 0.000000 -1.000000
vn 0.000000 0.000000 -1.000000
vn 0.000000 0.000000 -1.000000
vn 0.000000 0.000000 -1.000000
vn 0.000000 0.000000 -1.000000
vn 0.000000 0.000000 -1.000000
vn 0.000000 0.000000 -1.000000
vn 0.000000 0.000000 -1.000000
vn 0.000000 0.000000 -1.000000
vn 0.000000 0.000000 -1.000000
vn 0.000000 1.000000 0.000000
vn 0.000000 1.000000 0.000000
vn 0.000000 1.000000 0.000000
vn 0.000000 1.000000 0.000000
vn -1.000000 0.000000 0.000000
vn -1.000000 0.000000 0.000000
vn -1.000000 0.000000 0.000000
vn -1.000000 0.000000 0.000000
vn 0.000000 -1.000000 0.000000
vn 0.000000 -1.000000 0.000000
vn 0.000000 -1.000000 0.000000
vn 0.000000 -1.000000 0.000000
vn 0.834969 -0.550298 0.000000
vn 0.834969 -0.550298 0.000000
vn 0.834969 -0.550298 0.000000
vn 0.834969 -0.550298 0.000000
vn -0.000000 0.000000 1.000000
vn -0.000000 0.000000 1.000000
vn -0.000000 0.000000 1.000000
vn -0.000000 0.000000 1.000000
vn 1.000000 0.000000 0.000000
vn 1.000000 0.000000 0.000000
vn 1.000000 0.000000 0.000000
vn 1.000000 0.000000 0.000000
vn 0.000000 0.000000 -1.000000
vn 0.000000 0.000000 -1.000000
vn 0.000000 0.000000 -1.000000
vn 0.000000 0.000000 -1.000000
vn -1.000000 0.000000 0.000000
vn -1.000000 0.000000 0.000000
vn -1.000000 0.000000 0.000000
vn -1.000000 0.000000 0.000000
vn -0.000000 0.000000 1.000000
vn -0.000000 0.000000 1.000000
vn -0.000000 0.000000 1.000000
vn -0.000000 0.000000 1.000000
vn -0.834969 -0.550298 0.000000
vn -0.834969 -0.550298 0.000000
vn -0.834969 -0.550298 0.000000
vn -0.834969 -0.550298 0.000000
vn -0.000000 0.000000 -1.000000
vn -0.000000 0.000000 -1.000000
vn -0.000000 0.000000 -1.000000
vn -0.000000 0.000000 -1.000000
vn 0.875695 0.482866 0.000000
vn 0.875695 0.482866 0.000000
vn 0.875695 0.482866 0.000000
vn 0.875695 0.482866 0.000000
vn 0.000000 1.000000 0.000000
vn 0.000000 1.000000 0.000000
vn 0.000000 1.000000 0.000000
vn 0.000000 1.000000 0.000000
vn 0.000000 1.000000 0.000000
vn 0.000000 1.000000 0.000000
vn 0.000000 1.000000 0.000000
vn 0.000000 1.000000 0.000000
vn -1.000000 0.000000 0.000000
vn -1.000000 0.000000 0.000000
vn -1.000000 0.000000 0.000000
vn -1.000000 0.000000 0.000000
vn 0.000000 0.000000 1.000000
vn 0.000000 0.000000 1.000000
vn 0.000000 0.000000 1.000000
vn 0.000000 0.000000 1.000000
vn 1.000000 0.000000 0.000000
vn 1.000000 0.000000 0.000000
vn 1.000000 0.000000 0.000000
vn 1.000000 0.000000 0.000000
vn 0.000000 0.000000 -1.000000
vn 0.000000 0.000000 -1.000000
vn 0.000000 0.000000 -1.000000
vn 0.000000 0.000000 -1.000000
vn 1.000000 0.000000 -0.000000
vn 1.000000 0.000000 -0.000000
vn 1.000000 0.000000 -0.000000
vn 1.000000 0.000000 -0.000000
vn 0.000000 0.000000 1.000000
vn 0.000000 0.000000 1.000000
vn 0.000000 0.000000 1.000000
vn 0.000000 0.000000 1.000000
vn -1.000000 0.000000 -0.000000
vn -1.000000 0.000000 -0.000000
vn -1.000000 0.000000 -0.000000
vn -1.000000 0.000000 -0.000000
vn 0.000000 0.000000 -1.000000
vn 0.000000 0.000000 -1.000000
vn 0.000000 0.000000 -1.000000
vn 0.000000 0.000000 -1.000000
vn 0.621351 0.783532 0.000000
vn 0.621351 0.783532 0.000000
vn 0.621351 0.783532 0.000000
vn 0.621351 0.783532 0.000000
vn -0.000000 0.000000 1.000000
vn -0.000000 0.000000 1.000000
vn -0.000000 0.000000 1.000000
vn -0.000000 0.000000 1.000000
vn 0.000000 -1.000000 0.000000
vn 0.000000 -1.000000 0.000000
vn 0.000000 -1.000000 0.000000
vn 0.000000 -1.000000 0.000000
vn -0.000000 0.000000 -1.000000
vn -0.000000 0.000000 -1.000000
vn -0.000000 0.000000 -1.000000
vn -0.000000 0.000000 -1.000000
vn -0.621351 0.783532 0.000000
vn -0.621351 0.783532 0.000000
vn -0.621351 0.783532 0.000000
vn -0.621351 0.783532 0.000000
vn -0.000000 0.000000 -1.000000
vn -0.000000 0.000000 -1.000000
vn -0.000000 0.000000 -1.000000
vn -0.000000 0.000000 -1.000000
vn 0.000000 -1.000000 0.000000
vn 0.000000 -1.000000 0.000000
vn 0.000000 -1.000000 0.000000
vn 0.000000 -1.000000 0.000000
vn 0.000000 0.000000 1.000000
vn 0.000000 0.000000 1.000000
vn 0.000000 0.000000 1.000000
vn 0.000000 0.000000 1.000000
vn -1.000000 0.000000 0.000000
vn -1.000000 0.000000 0.000000
vn -1.000000 0.000000 0.000000
vn -1.000000 0.000000 0.000000
vn 0.000000 1.000000 0.000000
vn 0.000000 1.000000 0.000000
vn 0.000000 1.000000 0.000000
vn 0.000000 1.000000 0.000000
vn 1.000000 0.000000 0.000000
vn 1.000000 0.000000 0.000000
vn 1.000000 0.000000 0.000000
vn 1.000000 0.000000 0.000000
vn 0.000000 -1.000000 -0.000000
vn 0.000000 -1.000000 -0.000000
vn 0.000000 -1.000000 -0.000000
vn 0.000000 -1.000000 -0.000000
vn 0.000000 0.000000 1.000000
vn 0.000000 0.000000 1.000000
vn 0.000000 0.000000 1.000000
vn 0.000000 0.000000 1.000000
vn 0.000000 0.000000 -1.000000
vn 0.000000 0.000000 -1.000000
vn 0.000000 0.000000 -1.000000
vn 0.000000 0.000000 -1.000000
s off
f 20/1/1 17/2/2 4/3/3 3/4/4
f 29/5/5 30/6/6 31/7/7 32/8/8
f 24/9/9 21/10/10 8/11/11 7/12/12
f 33/13/13 34/14/14 35/15/15 36/16/16
f 2/17/17 8/18/18 9/19/19 10/20/20
f 8/18/21 21/21/22 22/22/23 9/19/24
f 6/23/25 26/24/26 25/25/27 4/26/28 12/27/29 11/28/30
f 4/26/31 17/29/32 18/30/33 12/27/34
f 7/31/35 1/32/36 14/33/37 13/34/38
f 19/35/39 20/36/40 3/37/41 15/38/42
f 3/37/43 27/39/44 28/40/45 5/41/46 16/42/47 15/38/48
f 23/43/49 24/44/50 7/31/51 13/34/52
f 10/45/53 9/46/54 13/47/55 14/48/56
f 9/49/57 22/50/58 23/51/59 13/52/60
f 11/53/61 12/54/62 15/55/63 16/56/64
f 12/57/65 18/58/66 19/59/67 15/60/68
f 18/30/69 17/29/70 2/17/71 10/20/72
f 19/59/73 18/58/74 10/61/75 14/62/76
f 1/32/77 20/36/78 19/35/79 14/33/80
f 1/63/81 2/64/82 17/2/83 20/1/84
f 22/22/85 21/21/86 6/23/87 11/28/88
f 23/51/89 22/50/90 11/65/91 16/66/92
f 5/41/93 24/44/94 23/43/95 16/42/96
f 5/67/97 6/68/98 21/10/99 24/9/100
f 28/69/101 26/70/102 6/71/103 5/72/104
f 3/73/105 4/74/106 25/75/107 27/76/108
f 27/77/109 25/78/110 30/79/111 29/80/112
f 25/81/113 26/82/114 31/83/115 30/84/116
f 26/85/117 28/86/118 32/87/119 31/88/120
f 28/89/121 27/90/122 29/91/123 32/92/124
f 37/93/125 38/94/126 39/95/127 40/96/128
f 8/97/129 2/98/130 35/99/131 34/100/132
f 42/101/133 41/102/134 43/103/135 44/104/136
f 1/105/137 7/106/138 33/107/139 36/108/140
f 7/109/141 8/110/142 38/111/143 37/112/144
f 8/113/145 34/114/146 39/115/147 38/116/148
f 34/117/149 33/118/150 40/119/151 39/120/152
f 33/121/153 7/122/154 37/123/155 40/124/156
f 2/125/157 1/126/158 41/127/159 42/128/160
f 1/129/161 36/130/162 43/131/163 41/132/164
f 36/133/165 35/134/166 44/135/167 43/136/168
f 35/137/169 2/138/170 42/139/171 44/140/172
f 45/141/173 46/142/174 48/143/175 47/144/176
f 47/145/177 48/146/178 50/147/179 49/148/180
f 49/149/181 50/150/182 52/151/183 51/152/184
f 51/153/185 52/154/186 46/155/187 45/156/188
f 46/157/189 52/158/190 50/159/191 48/160/192
f 51/161/193 45/162/194 47/163/195 49/164/196
