# This file uses centimeters as units for non-parametric coordinates.

v -0.128316 -0.025114 -0.095621
v -0.128316 -0.025114 0.095621
v -0.128316 0.152382 -0.095621
v -0.128316 0.152382 0.095621
v 0.266954 0.152382 -0.095621
v 0.266954 0.152382 0.095621
v 0.266954 -0.025114 -0.095621
v 0.266954 -0.025114 0.095621
v -0.287671 -0.025114 -0.095621
v -0.287671 -0.025114 0.095621
v -0.287671 0.152382 -0.095621
v -0.287671 0.152382 0.095621
v -0.155649 0.152382 -0.095621
v -0.155649 0.152382 0.095621
v -0.155649 -0.025114 -0.095621
v -0.155649 -0.025114 0.095621
v -0.452588 -0.402058 -0.095621
v -0.452588 -0.402058 0.095621
v -0.452588 0.402058 -0.095621
v -0.452588 0.402058 0.095621
v 0.452587 0.091579 -0.095621
v 0.452587 0.091579 0.095621
v 0.452587 -0.402058 -0.095621
v 0.452587 -0.402058 0.095621
v -0.323012 0.402058 -0.095621
v -0.323012 0.402058 0.095621
v -0.323012 -0.402058 0.095621
v -0.323012 -0.402058 -0.095621
v 0.303130 -0.402058 0.095621
v 0.303130 0.091579 0.095621
v 0.303130 0.091579 -0.095621
v 0.303130 -0.402058 -0.095621
v -0.323012 -0.060289 -0.095621
v -0.323012 -0.060289 0.095621
v -0.323013 -0.287562 0.095621
v -0.323013 -0.287562 -0.095621
v 0.303130 -0.287562 0.095621
v 0.303130 -0.060289 0.095621
v 0.303130 -0.060289 -0.095621
v 0.303130 -0.287562 -0.095621
vt 0.369044 0.958269
vt 0.369044 0.958269
vt 0.369044 0.958269
vt 0.369044 0.958269
vt 0.865003 0.958269
vt 0.865003 0.958269
vt 0.865003 0.958269
vt 0.865003 0.958269
vt 0.369044 0.958269
vt 0.369044 0.958269
vt 0.369044 0.958269
vt 0.369044 0.958269
vt 0.126308 0.958268
vt 0.126308 0.958268
vt 0.126308 0.958268
vt 0.126308 0.958268
vt 0.620417 0.958269
vt 0.620417 0.958269
vt 0.620417 0.958269
vt 0.620417 0.958269
vt 0.620417 0.958269
vt 0.620417 0.958269
vt 0.620417 0.958269
vt 0.620417 0.958269
vt 0.369044 0.958269
vt 0.369044 0.958269
vt 0.369044 0.958269
vt 0.369044 0.958269
vt 0.865003 0.958269
vt 0.865003 0.958269
vt 0.865003 0.958269
vt 0.865003 0.958269
vt 0.369044 0.958269
vt 0.369044 0.958269
vt 0.369044 0.958269
vt 0.369044 0.958269
vt 0.126308 0.958268
vt 0.126308 0.958268
vt 0.126308 0.958268
vt 0.126308 0.958268
vt 0.620417 0.958269
vt 0.620417 0.958269
vt 0.620417 0.958269
vt 0.620417 0.958269
vt 0.620417 0.958269
vt 0.620417 0.958269
vt 0.620417 0.958269
vt 0.620417 0.958269
vt 0.357647 0.958273
vt 0.357647 0.958273
vt 0.357647 0.958273
vt 0.357647 0.958273
vt 0.863320 0.958270
vt 0.863320 0.958270
vt 0.863320 0.958270
vt 0.863320 0.958270
vt 0.357647 0.958273
vt 0.357647 0.958273
vt 0.357647 0.958273
vt 0.357647 0.958273
vt 0.121952 0.958267
vt 0.121952 0.958267
vt 0.121952 0.958267
vt 0.121952 0.958267
vt 0.631910 0.958273
vt 0.631910 0.958273
vt 0.631910 0.958273
vt 0.631910 0.958273
vt 0.631910 0.958273
vt 0.631910 0.958273
vt 0.631910 0.958273
vt 0.631910 0.958273
vt 0.863320 0.958270
vt 0.863320 0.958270
vt 0.863320 0.958270
vt 0.863320 0.958270
vt 0.631910 0.958273
vt 0.631910 0.958273
vt 0.631910 0.958273
vt 0.631910 0.958273
vt 0.121952 0.958267
vt 0.121952 0.958267
vt 0.121952 0.958267
vt 0.121952 0.958267
vt 0.631910 0.958273
vt 0.631910 0.958273
vt 0.631910 0.958273
vt 0.631910 0.958273
vt 0.631910 0.958273
vt 0.631910 0.958273
vt 0.631910 0.958273
vt 0.631910 0.958273
vt 0.863320 0.958270
vt 0.863320 0.958270
vt 0.863320 0.958270
vt 0.863320 0.958270
vt 0.631910 0.958273
vt 0.631910 0.958273
vt 0.631910 0.958273
vt 0.631910 0.958273
vt 0.631910 0.958273
vt 0.121952 0.958267
vt 0.121952 0.958267
vt 0.121952 0.958267
vt 0.121952 0.958267
vt 0.357647 0.958273
vt 0.357647 0.958273
vt 0.357647 0.958273
vt 0.357647 0.958273
vt 0.357647 0.958273
vt 0.357647 0.958273
vt 0.357647 0.958273
vt 0.357647 0.958273
vt 0.357647 0.958273
vt 0.357647 0.958273
vt 0.357647 0.958273
vt 0.357647 0.958273
vt 0.357647 0.958273
vt 0.357647 0.958273
vt 0.357647 0.958273
vt 0.357647 0.958273
vt 0.631910 0.958273
vn -1.000000 0.000000 0.000000
vn -1.000000 0.000000 0.000000
vn -1.000000 0.000000 0.000000
vn -1.000000 0.000000 0.000000
vn 0.000000 1.000000 0.000000
vn 0.000000 1.000000 0.000000
vn 0.000000 1.000000 0.000000
vn 0.000000 1.000000 0.000000
vn 1.000000 0.000000 0.000000
vn 1.000000 0.000000 0.000000
vn 1.000000 0.000000 0.000000
vn 1.000000 0.000000 0.000000
vn 0.000000 -1.000000 0.000000
vn 0.000000 -1.000000 0.000000
vn 0.000000 -1.000000 0.000000
vn 0.000000 -1.000000 0.000000
vn 0.000000 0.000000 1.000000
vn 0.000000 0.000000 1.000000
vn 0.000000 0.000000 1.000000
vn 0.000000 0.000000 1.000000
vn 0.000000 0.000000 -1.000000
vn 0.000000 0.000000 -1.000000
vn 0.000000 0.000000 -1.000000
vn 0.000000 0.000000 -1.000000
vn -1.000000 0.000000 0.000000
vn -1.000000 0.000000 0.000000
vn -1.000000 0.000000 0.000000
vn -1.000000 0.000000 0.000000
vn 0.000000 1.000000 0.000000
vn 0.000000 1.000000 0.000000
vn 0.000000 1.000000 0.000000
vn 0.000000 1.000000 0.000000
vn 1.000000 0.000000 0.000000
vn 1.000000 0.000000 0.000000
vn 1.000000 0.000000 0.000000
vn 1.000000 0.000000 0.000000
vn 0.000000 -1.000000 0.000000
vn 0.000000 -1.000000 0.000000
vn 0.000000 -1.000000 0.000000
vn 0.000000 -1.000000 0.000000
vn 0.000000 0.000000 1.000000
vn 0.000000 0.000000 1.000000
vn 0.000000 0.000000 1.000000
vn 0.000000 0.000000 1.000000
vn 0.000000 0.000000 -1.000000
vn 0.000000 0.000000 -1.000000
vn 0.000000 0.000000 -1.000000
vn 0.000000 0.000000 -1.000000
vn -1.000000 0.000000 0.000000
vn -1.000000 0.000000 0.000000
vn -1.000000 0.000000 0.000000
vn -1.000000 0.000000 0.000000
vn 0.594014 0.804455 0.000000
vn 0.594014 0.804455 0.000000
vn -0.235711 0.971823 0.000000
vn -0.235711 0.971823 0.000000
vn 1.000000 0.000000 0.000000
vn 1.000000 0.000000 0.000000
vn 1.000000 0.000000 0.000000
vn 1.000000 0.000000 0.000000
vn -0.179876 -0.983689 0.000000
vn -0.179876 -0.983689 0.000000
vn 0.179876 -0.983689 0.000000
vn 0.179876 -0.983689 0.000000
vn 0.000000 0.000000 1.000000
vn 0.000000 0.000000 1.000000
vn 0.000000 0.000000 1.000000
vn 0.000000 0.000000 1.000000
vn 0.000000 0.000000 -1.000000
vn 0.000000 0.000000 -1.000000
vn 0.000000 0.000000 -1.000000
vn 0.000000 0.000000 -1.000000
vn 0.000001 1.000000 0.000000
vn 0.000001 1.000000 0.000000
vn 0.962900 0.269859 0.000000
vn 0.962900 0.269859 0.000000
vn 0.000000 0.000000 1.000000
vn 0.000000 0.000000 1.000000
vn 0.000000 0.000000 1.000000
vn 0.000000 0.000000 1.000000
vn 0.000000 0.000000 1.000000
vn 0.000000 0.000000 1.000000
vn 0.662155 -0.749367 0.000000
vn 0.662155 -0.749367 0.000000
vn 0.000000 -1.000000 0.000000
vn 0.000000 -1.000000 0.000000
vn 0.000000 0.000000 -1.000000
vn 0.000000 0.000000 -1.000000
vn 0.000000 0.000000 -1.000000
vn 0.000000 0.000000 -1.000000
vn 0.000000 0.000000 -1.000000
vn 0.000000 0.000000 -1.000000
vn 0.000000 0.000000 1.000000
vn 0.000000 0.000000 1.000000
vn 0.000000 0.000000 1.000000
vn 0.000000 0.000000 1.000000
vn 0.000000 0.000000 1.000000
vn 0.000000 0.000000 1.000000
vn -0.712740 0.701428 0.000000
vn -0.712740 0.701428 0.000000
vn 0.000000 1.000000 0.000000
vn 0.000000 1.000000 0.000000
vn 0.000000 0.000000 -1.000000
vn 0.000000 0.000000 -1.000000
vn 0.000000 0.000000 -1.000000
vn 0.000000 0.000000 -1.000000
vn 0.000000 0.000000 -1.000000
vn 0.000000 0.000000 -1.000000
vn 0.000000 -1.000000 0.000000
vn 0.000000 -1.000000 0.000000
vn -0.608136 -0.793833 0.000000
vn -0.608136 -0.793833 0.000000
vn 0.962900 0.269859 0.000000
vn 0.962900 0.269859 0.000000
vn 0.594014 0.804455 0.000000
vn 0.594014 0.804455 0.000000
vn 0.179876 -0.983689 0.000000
vn 0.179876 -0.983689 0.000000
vn 0.662155 -0.749367 0.000000
vn 0.662155 -0.749367 0.000000
vn -0.235711 0.971823 0.000000
vn -0.235711 0.971823 0.000000
vn -0.712740 0.701428 0.000000
vn -0.712740 0.701428 0.000000
vn -0.608136 -0.793833 0.000000
vn -0.608136 -0.793833 0.000000
vn -0.179876 -0.983689 0.000000
vn -0.179876 -0.983689 0.000000
s off
f 1/1/1 2/2/2 4/3/3 3/4/4
f 3/5/5 4/6/6 6/7/7 5/8/8
f 5/9/9 6/10/10 8/11/11 7/12/12
f 7/13/13 8/14/14 2/15/15 1/16/16
f 2/17/17 8/18/18 6/19/19 4/20/20
f 7/21/21 1/22/22 3/23/23 5/24/24
f 9/25/25 10/26/26 12/27/27 11/28/28
f 11/29/29 12/30/30 14/31/31 13/32/32
f 13/33/33 14/34/34 16/35/35 15/36/36
f 15/37/37 16/38/38 10/39/39 9/40/40
f 10/41/41 16/42/42 14/43/43 12/44/44
f 15/45/45 9/46/46 11/47/47 13/48/48
f 17/49/49 18/50/50 20/51/51 19/52/52
f 33/53/53 34/54/54 38/55/55 39/56/56
f 21/57/57 22/58/58 24/59/59 23/60/60
f 40/61/61 37/62/62 35/63/63 36/64/64
f 38/65/65 34/66/66 35/67/67 37/68/68
f 40/69/69 36/70/70 33/71/71 39/72/72
f 19/73/73 20/74/74 26/75/75 25/76/76
f 18/77/77 27/78/78 35/67/79 34/66/80 26/79/81 20/80/82
f 28/81/83 27/82/84 18/83/85 17/84/86
f 25/85/87 33/71/88 36/70/89 28/86/90 17/87/91 19/88/92
f 30/89/93 38/122/94 37/68/95 29/90/96 24/91/97 22/92/98
f 31/93/99 30/94/100 22/95/101 21/96/102
f 23/97/103 32/98/104 40/99/105 39/72/106 31/100/107 21/101/108
f 23/102/109 24/103/110 29/104/111 32/105/112
f 25/106/113 26/107/114 34/108/115 33/109/116
f 36/110/117 35/111/118 27/112/119 28/113/120
f 39/114/121 38/115/122 30/116/123 31/117/124
f 32/118/125 29/119/126 37/120/127 40/121/128
