# This file uses centimeters as units for non-parametric coordinates.

v 0.274626 -0.409174 -0.095292
v 0.456474 -0.150497 -0.095292
v 0.491453 0.438300 -0.095292
v 0.261721 0.418550 -0.095292
v -0.040489 0.511561 -0.095292
v -0.339655 0.409174 -0.095292
v -0.521503 0.150496 -0.095292
v -0.516575 -0.165666 -0.095292
v -0.326752 -0.418550 -0.095292
v -0.024540 -0.511561 -0.095292
v 0.274626 -0.409174 0.095292
v 0.456474 -0.150497 0.095292
v 0.491453 0.438300 0.095292
v 0.261721 0.418550 0.095292
v -0.040489 0.511561 0.095292
v -0.339655 0.409174 0.095292
v -0.521503 0.150496 0.095292
v -0.516575 -0.165666 0.095292
v -0.326752 -0.418550 0.095292
v -0.024540 -0.511561 0.095292
v -0.379856 -0.118875 -0.095292
v -0.243647 -0.300334 -0.095292
v -0.383392 0.107990 -0.095292
v -0.252907 0.293607 -0.095292
v -0.038237 0.367076 -0.095292
v 0.178617 0.300334 -0.095292
v 0.068348 0.127029 -0.095292
v 0.318363 -0.107990 -0.095292
v 0.187878 -0.293607 -0.095292
v -0.026793 -0.367076 -0.095292
v -0.026793 -0.367076 0.095292
v 0.187878 -0.293607 0.095292
v 0.318363 -0.107990 0.095292
v 0.068348 0.127029 0.095292
v 0.178617 0.300334 0.095292
v -0.038237 0.367076 0.095292
v -0.252907 0.293607 0.095292
v -0.383392 0.107990 0.095292
v -0.379856 -0.118875 0.095292
v -0.243647 -0.300334 0.095292
v 0.521503 -0.045743 -0.095292
v 0.521503 -0.045743 0.095292
v 0.224203 0.241689 0.095292
v 0.335176 0.323330 0.095292
v 0.335176 0.323330 -0.095292
v 0.224203 0.241689 -0.095292
vt 0.369044 0.953551
vt 0.369044 0.953551
vt 0.369044 0.953551
vt 0.369044 0.953551
vt 0.865003 0.953551
vt 0.865003 0.953551
vt 0.865003 0.953551
vt 0.865003 0.953551
vt 0.865003 0.953551
vt 0.865003 0.953551
vt 0.865003 0.953551
vt 0.865003 0.953551
vt 0.865003 0.953551
vt 0.865003 0.953551
vt 0.865003 0.953551
vt 0.865003 0.953551
vt 0.865003 0.953551
vt 0.865003 0.953551
vt 0.865003 0.953551
vt 0.865003 0.953551
vt 0.620417 0.953551
vt 0.620417 0.953551
vt 0.620417 0.953551
vt 0.620417 0.953551
vt 0.369044 0.953551
vt 0.369044 0.953551
vt 0.369044 0.953551
vt 0.369044 0.953551
vt 0.126308 0.953551
vt 0.126308 0.953551
vt 0.126308 0.953551
vt 0.126308 0.953551
vt 0.126308 0.953551
vt 0.126308 0.953551
vt 0.126308 0.953551
vt 0.126308 0.953551
vt 0.620417 0.953551
vt 0.620417 0.953551
vt 0.620417 0.953551
vt 0.620417 0.953551
vt 0.620417 0.953551
vt 0.620417 0.953551
vt 0.620417 0.953551
vt 0.620417 0.953551
vt 0.620417 0.953551
vt 0.620417 0.953551
vt 0.620417 0.953551
vt 0.620417 0.953551
vt 0.620417 0.953551
vt 0.620417 0.953551
vt 0.620417 0.953551
vt 0.620417 0.953551
vt 0.620417 0.953551
vt 0.620417 0.953551
vt 0.620417 0.953551
vt 0.620417 0.953551
vt 0.620417 0.953551
vt 0.620417 0.953551
vt 0.620417 0.953551
vt 0.620417 0.953551
vt 0.620417 0.953551
vt 0.620417 0.953551
vt 0.620417 0.953551
vt 0.620417 0.953551
vt 0.620417 0.953551
vt 0.620417 0.953551
vt 0.620417 0.953551
vt 0.620417 0.953551
vt 0.620417 0.953551
vt 0.620417 0.953551
vt 0.620417 0.953551
vt 0.620417 0.953551
vt 0.620417 0.953551
vt 0.620417 0.953551
vt 0.620417 0.953551
vt 0.620417 0.953551
vt 0.126308 0.953551
vt 0.126308 0.953551
vt 0.126308 0.953551
vt 0.126308 0.953551
vt 0.126308 0.953551
vt 0.126308 0.953551
vt 0.126308 0.953551
vt 0.126308 0.953551
vt 0.126308 0.953551
vt 0.126308 0.953551
vt 0.126308 0.953551
vt 0.126308 0.953551
vt 0.126308 0.953551
vt 0.126308 0.953551
vt 0.126308 0.953551
vt 0.126308 0.953551
vt 0.126308 0.953551
vt 0.126308 0.953551
vt 0.126308 0.953551
vt 0.126308 0.953551
vt 0.126308 0.953551
vt 0.126308 0.953551
vt 0.126308 0.953551
vt 0.126308 0.953551
vt 0.126308 0.953551
vt 0.126308 0.953551
vt 0.126308 0.953551
vt 0.126308 0.953551
vt 0.369044 0.953551
vt 0.369044 0.953551
vt 0.369044 0.953551
vt 0.369044 0.953551
vt 0.369044 0.953551
vt 0.369044 0.953551
vt 0.369044 0.953551
vt 0.369044 0.953551
vt 0.865003 0.953551
vt 0.865003 0.953551
vt 0.865003 0.953551
vt 0.865003 0.953551
vt 0.126308 0.953551
vt 0.126308 0.953551
vt 0.126308 0.953551
vt 0.126308 0.953551
vt 0.126308 0.953551
vt 0.126308 0.953551
vt 0.620417 0.953551
vt 0.620417 0.953551
vt 0.620417 0.953551
vt 0.865003 0.953551
vt 0.865003 0.953551
vt 0.620417 0.953551
vt 0.620417 0.953551
vt 0.620417 0.953551
vt 0.126308 0.953551
vt 0.126308 0.953551
vn 0.818080 -0.575104 -0.000000
vn 0.818080 -0.575104 -0.000000
vn 0.818080 -0.575104 -0.000000
vn 0.818080 -0.575104 -0.000000
vn 0.791781 0.610805 0.000000
vn 0.791781 0.610805 0.000000
vn 0.791781 0.610805 0.000000
vn 0.791781 0.610805 0.000000
vn 0.294155 0.955758 0.000000
vn 0.294155 0.955758 0.000000
vn 0.294155 0.955758 0.000000
vn 0.294155 0.955758 0.000000
vn -0.323804 0.946124 0.000000
vn -0.323804 0.946124 0.000000
vn -0.323804 0.946124 0.000000
vn -0.323804 0.946124 0.000000
vn -0.818080 0.575104 0.000000
vn -0.818080 0.575104 0.000000
vn -0.818080 0.575104 0.000000
vn -0.818080 0.575104 0.000000
vn -0.999879 -0.015587 0.000000
vn -0.999879 -0.015587 0.000000
vn -0.999879 -0.015587 0.000000
vn -0.999879 -0.015587 0.000000
vn -0.799756 -0.600325 0.000000
vn -0.799757 -0.600325 0.000000
vn -0.799757 -0.600325 0.000000
vn -0.799756 -0.600325 0.000000
vn -0.294154 -0.955758 0.000000
vn -0.294154 -0.955758 0.000000
vn -0.294154 -0.955758 0.000000
vn -0.294154 -0.955758 0.000000
vn 0.323803 -0.946124 -0.000000
vn 0.323804 -0.946124 -0.000000
vn 0.323803 -0.946124 -0.000000
vn 0.323803 -0.946124 -0.000000
vn -0.000000 -0.000000 -1.000000
vn -0.000000 -0.000000 -1.000000
vn -0.000000 -0.000000 -1.000000
vn -0.000000 -0.000000 -1.000000
vn -0.000000 -0.000000 -1.000000
vn -0.000000 -0.000000 -1.000000
vn -0.000000 -0.000000 -1.000000
vn -0.000000 -0.000000 -1.000000
vn -0.000000 0.000000 -1.000000
vn -0.000000 0.000000 -1.000000
vn -0.000000 0.000000 -1.000000
vn -0.000000 0.000000 -1.000000
vn 0.000000 0.000000 -1.000000
vn 0.000000 0.000000 -1.000000
vn 0.000000 0.000000 -1.000000
vn 0.000000 0.000000 -1.000000
vn 0.000000 -0.000000 -1.000000
vn 0.000000 -0.000000 -1.000000
vn 0.000000 -0.000000 -1.000000
vn 0.000000 -0.000000 -1.000000
vn 0.000000 -0.000000 -1.000000
vn 0.000000 -0.000000 -1.000000
vn 0.000000 -0.000000 -1.000000
vn 0.000000 -0.000000 -1.000000
vn 0.000000 0.000000 -1.000000
vn 0.000000 0.000000 -1.000000
vn 0.000000 0.000000 -1.000000
vn 0.000000 0.000000 -1.000000
vn -0.000000 0.000000 -1.000000
vn -0.000000 0.000000 -1.000000
vn -0.000000 0.000000 -1.000000
vn -0.000000 0.000000 -1.000000
vn 0.000000 -0.000000 -1.000000
vn 0.000000 -0.000000 -1.000000
vn 0.000000 -0.000000 -1.000000
vn 0.000000 -0.000000 -1.000000
vn 0.000000 0.000000 1.000000
vn 0.000000 0.000000 1.000000
vn 0.000000 0.000000 1.000000
vn 0.000000 0.000000 1.000000
vn -0.000000 0.000000 1.000000
vn -0.000000 0.000000 1.000000
vn -0.000000 0.000000 1.000000
vn -0.000000 0.000000 1.000000
vn -0.000000 0.000000 1.000000
vn -0.000000 0.000000 1.000000
vn -0.000000 0.000000 1.000000
vn -0.000000 0.000000 1.000000
vn 0.000000 -0.000000 1.000000
vn 0.000000 -0.000000 1.000000
vn 0.000000 -0.000000 1.000000
vn 0.000000 -0.000000 1.000000
vn 0.000000 0.000000 1.000000
vn 0.000000 0.000000 1.000000
vn 0.000000 0.000000 1.000000
vn 0.000000 0.000000 1.000000
vn -0.000000 -0.000000 1.000000
vn -0.000000 -0.000000 1.000000
vn -0.000000 -0.000000 1.000000
vn -0.000000 -0.000000 1.000000
vn 0.000000 0.000000 1.000000
vn 0.000000 0.000000 1.000000
vn 0.000000 0.000000 1.000000
vn 0.000000 0.000000 1.000000
vn -0.000000 0.000000 1.000000
vn -0.000000 0.000000 1.000000
vn -0.000000 0.000000 1.000000
vn -0.000000 0.000000 1.000000
vn 0.000000 -0.000000 1.000000
vn 0.000000 -0.000000 1.000000
vn 0.000000 -0.000000 1.000000
vn 0.000000 -0.000000 1.000000
vn 0.799756 0.600325 0.000000
vn 0.799756 0.600325 0.000000
vn 0.799756 0.600325 0.000000
vn 0.799756 0.600325 0.000000
vn 0.999879 0.015585 0.000000
vn 0.999879 0.015585 0.000000
vn 0.999879 0.015585 0.000000
vn 0.999879 0.015585 0.000000
vn 0.818083 -0.575100 0.000000
vn 0.818083 -0.575100 0.000000
vn 0.818083 -0.575100 0.000000
vn 0.818083 -0.575100 0.000000
vn 0.323803 -0.946124 0.000000
vn 0.323803 -0.946124 0.000000
vn 0.323803 -0.946124 0.000000
vn 0.323804 -0.946124 0.000000
vn -0.294156 -0.955757 0.000000
vn -0.294156 -0.955757 0.000000
vn -0.294156 -0.955757 0.000000
vn -0.294156 -0.955757 0.000000
vn -0.789528 -0.613714 0.000000
vn -0.789528 -0.613714 0.000000
vn -0.789528 -0.613714 0.000000
vn -0.789528 -0.613714 0.000000
vn -0.818084 0.575099 0.000000
vn -0.818084 0.575099 0.000000
vn -0.818084 0.575099 0.000000
vn -0.818084 0.575099 0.000000
vn -0.323802 0.946125 0.000000
vn -0.323802 0.946125 0.000000
vn -0.323802 0.946125 0.000000
vn -0.323802 0.946125 0.000000
vn 0.294155 0.955758 0.000000
vn 0.294155 0.955758 0.000000
vn 0.294155 0.955758 0.000000
vn 0.294155 0.955758 0.000000
vn 0.294154 0.955758 0.000000
vn 0.294154 0.955758 0.000000
vn 0.294154 0.955758 0.000000
vn 0.294154 0.955758 0.000000
vn -0.356249 -0.934391 0.000000
vn -0.356249 -0.934391 0.000000
vn -0.356249 -0.934391 0.000000
vn -0.356249 -0.934391 0.000000
vn 0.998078 0.061963 0.000000
vn 0.998078 0.061963 0.000000
vn 0.998078 0.061963 0.000000
vn 0.998078 0.061963 0.000000
vn 0.000000 0.000000 1.000000
vn 0.000000 0.000000 1.000000
vn 0.000000 0.000000 1.000000
vn 0.000000 0.000000 1.000000
vn 0.000000 0.000000 1.000000
vn -0.592595 0.805501 -0.000000
vn -0.592595 0.805501 -0.000000
vn -0.592595 0.805501 -0.000000
vn -0.592595 0.805501 -0.000000
vn 0.000000 -0.000000 -1.000000
vn 0.000000 -0.000000 -1.000000
vn 0.000000 -0.000000 -1.000000
vn 0.000000 -0.000000 -1.000000
vn 0.000000 -0.000000 -1.000000
vn -0.592595 0.805500 -0.000000
vn -0.592595 0.805500 -0.000000
vn -0.592595 0.805500 -0.000000
vn -0.592595 0.805500 -0.000000
s off
f 1/1/1 2/2/2 12/3/3 11/4/4
f 44/5/5 45/6/6 4/7/7 14/8/8
f 4/9/9 5/10/10 15/11/11 14/12/12
f 5/13/13 6/14/14 16/15/15 15/16/16
f 6/17/17 7/18/18 17/19/19 16/20/20
f 7/21/21 8/22/22 18/23/23 17/24/24
f 8/25/25 9/26/26 19/27/27 18/28/28
f 9/29/29 10/30/30 20/31/31 19/32/32
f 10/33/33 1/34/34 11/35/35 20/36/36
f 9/37/37 8/38/38 21/39/39 22/40/40
f 8/38/41 7/41/42 23/42/43 21/39/44
f 7/41/45 6/43/46 24/44/47 23/42/48
f 6/43/49 5/45/50 25/46/51 24/44/52
f 5/45/53 4/47/54 26/48/55 25/46/56
f 4/47/57 45/49/58 46/50/59 26/48/60
f 2/51/61 1/52/62 29/53/63 28/54/64
f 1/52/65 10/55/66 30/56/67 29/53/68
f 10/55/69 9/37/70 22/40/71 30/56/72
f 20/57/73 11/58/74 32/59/75 31/60/76
f 11/58/77 12/61/78 33/62/79 32/59/80
f 43/63/81 44/64/82 14/65/83 35/66/84
f 14/65/85 15/67/86 36/68/87 35/66/88
f 15/67/89 16/69/90 37/70/91 36/68/92
f 16/69/93 17/71/94 38/72/95 37/70/96
f 17/71/97 18/73/98 39/74/99 38/72/100
f 18/73/101 19/75/102 40/76/103 39/74/104
f 19/75/105 20/57/106 31/60/107 40/76/108
f 22/77/109 21/78/110 39/79/111 40/80/112
f 21/81/113 23/82/114 38/83/115 39/84/116
f 23/85/117 24/86/118 37/87/119 38/88/120
f 24/89/121 25/90/122 36/91/123 37/92/124
f 25/93/125 26/94/126 35/95/127 36/96/128
f 26/97/129 46/98/130 43/99/131 35/100/132
f 28/101/133 29/102/134 32/103/135 33/104/136
f 29/105/137 30/106/138 31/107/139 32/108/140
f 30/109/141 22/110/142 40/111/143 31/112/144
f 12/113/145 2/114/146 28/115/147 33/116/148
f 41/117/149 42/118/150 34/119/151 27/120/152
f 13/121/153 42/118/154 41/117/155 3/122/156
f 13/123/157 44/64/158 43/63/159 34/124/160 42/125/161
f 3/126/162 45/6/163 44/5/164 13/127/165
f 46/50/166 45/49/167 3/128/168 41/129/169 27/130/170
f 43/99/171 46/98/172 27/131/173 34/132/174
