# This file uses centimeters as units for non-parametric coordinates.

v -0.398150 -0.386771 -0.095621
v -0.398150 -0.386771 0.095621
v -0.398150 -0.262064 -0.095621
v -0.398150 -0.262064 0.095621
v 0.357022 -0.262064 -0.095621
v 0.357022 -0.262064 0.095621
v 0.357022 -0.386771 -0.095621
v 0.357022 -0.386771 0.095621
v -0.265914 -0.196449 -0.095621
v -0.265914 -0.196449 0.095621
v -0.265914 0.386771 -0.095621
v -0.265914 0.386771 0.095621
v 0.221151 0.386771 -0.095621
v 0.221151 0.386771 0.095621
v 0.221152 -0.196449 -0.095621
v 0.221152 -0.196449 0.095621
v 0.221151 0.278215 0.095621
v 0.221151 0.278215 -0.095621
v 0.221152 -0.045428 -0.095621
v 0.221152 -0.045428 0.095621
v 0.398151 0.278215 0.095621
v 0.398151 0.278215 -0.095621
v 0.398151 -0.045428 0.095621
v 0.398151 -0.045428 -0.095621
v 0.221151 0.185710 0.095621
v 0.221151 0.047078 0.095621
v 0.323183 0.047078 0.095621
v 0.323183 0.185710 0.095621
v 0.221151 0.185710 -0.095621
v 0.221151 0.047078 -0.095621
v 0.323183 0.185710 -0.095621
v 0.323183 0.047078 -0.095621
vt 0.369044 0.958269
vt 0.369044 0.958269
vt 0.369044 0.958269
vt 0.369044 0.958269
vt 0.865003 0.958269
vt 0.865003 0.958269
vt 0.865003 0.958269
vt 0.865003 0.958269
vt 0.369044 0.958269
vt 0.369044 0.958269
vt 0.369044 0.958269
vt 0.369044 0.958269
vt 0.126308 0.958268
vt 0.126308 0.958268
vt 0.126308 0.958268
vt 0.126308 0.958268
vt 0.620417 0.958269
vt 0.620417 0.958269
vt 0.620417 0.958269
vt 0.620417 0.958269
vt 0.620417 0.958269
vt 0.620417 0.958269
vt 0.620417 0.958269
vt 0.620417 0.958269
vt 0.369044 0.958269
vt 0.369044 0.958269
vt 0.369044 0.958269
vt 0.369044 0.958269
vt 0.865003 0.958269
vt 0.865003 0.958269
vt 0.865003 0.958269
vt 0.865003 0.958269
vt 0.369044 0.958269
vt 0.369044 0.958269
vt 0.369044 0.958269
vt 0.369044 0.958269
vt 0.126308 0.958268
vt 0.126308 0.958268
vt 0.126308 0.958268
vt 0.126308 0.958268
vt 0.620417 0.958269
vt 0.620417 0.958269
vt 0.620417 0.958269
vt 0.620417 0.958269
vt 0.620417 0.958269
vt 0.620417 0.958269
vt 0.620417 0.958269
vt 0.620417 0.958269
vt 0.620417 0.958269
vt 0.620417 0.958269
vt 0.620417 0.958269
vt 0.620417 0.958269
vt 0.620417 0.958269
vt 0.620417 0.958269
vt 0.620417 0.958269
vt 0.620417 0.958269
vt 0.369044 0.958269
vt 0.369044 0.958269
vt 0.369044 0.958269
vt 0.369044 0.958269
vt 0.370503 0.958275
vt 0.370503 0.958275
vt 0.370503 0.958275
vt 0.370503 0.958275
vt 0.837608 0.958253
vt 0.837608 0.958253
vt 0.837608 0.958253
vt 0.837608 0.958253
vt 0.134808 0.958267
vt 0.134808 0.958267
vt 0.134808 0.958267
vt 0.134808 0.958267
vt 0.631910 0.958275
vt 0.631910 0.958275
vt 0.631910 0.958275
vt 0.631910 0.958275
vt 0.631910 0.958275
vt 0.631910 0.958275
vt 0.631910 0.958275
vt 0.631910 0.958275
vt 0.631910 0.958275
vt 0.631910 0.958275
vt 0.631910 0.958275
vt 0.631910 0.958275
vt 0.631910 0.958275
vt 0.631910 0.958275
vt 0.631910 0.958275
vt 0.631910 0.958275
vt 0.370503 0.958275
vt 0.370503 0.958275
vt 0.370503 0.958275
vt 0.370503 0.958275
vt 0.134808 0.958267
vt 0.134808 0.958267
vt 0.134808 0.958267
vt 0.134808 0.958267
vt 0.370503 0.958275
vt 0.370503 0.958275
vt 0.370503 0.958275
vt 0.370503 0.958275
vt 0.837608 0.958253
vt 0.837608 0.958253
vt 0.837608 0.958253
vt 0.837608 0.958253
vn -1.000000 0.000000 0.000000
vn -1.000000 0.000000 0.000000
vn -1.000000 0.000000 0.000000
vn -1.000000 0.000000 0.000000
vn 0.000000 1.000000 0.000000
vn 0.000000 1.000000 0.000000
vn 0.000000 1.000000 0.000000
vn 0.000000 1.000000 0.000000
vn 1.000000 0.000000 0.000000
vn 1.000000 0.000000 0.000000
vn 1.000000 0.000000 0.000000
vn 1.000000 0.000000 0.000000
vn 0.000000 -1.000000 0.000000
vn 0.000000 -1.000000 0.000000
vn 0.000000 -1.000000 0.000000
vn 0.000000 -1.000000 0.000000
vn 0.000000 0.000000 1.000000
vn 0.000000 0.000000 1.000000
vn 0.000000 0.000000 1.000000
vn 0.000000 0.000000 1.000000
vn 0.000000 0.000000 -1.000000
vn 0.000000 0.000000 -1.000000
vn 0.000000 0.000000 -1.000000
vn 0.000000 0.000000 -1.000000
vn -1.000000 -0.000000 0.000000
vn -1.000000 -0.000000 0.000000
vn -1.000000 -0.000000 0.000000
vn -1.000000 -0.000000 0.000000
vn 0.000000 1.000000 0.000000
vn 0.000000 1.000000 0.000000
vn 0.000000 1.000000 0.000000
vn 0.000000 1.000000 0.000000
vn 1.000000 0.000000 0.000000
vn 1.000000 0.000000 0.000000
vn 1.000000 0.000000 0.000000
vn 1.000000 0.000000 0.000000
vn 0.000000 -1.000000 0.000000
vn 0.000000 -1.000000 0.000000
vn 0.000000 -1.000000 0.000000
vn 0.000000 -1.000000 0.000000
vn -0.000000 0.000000 1.000000
vn -0.000000 0.000000 1.000000
vn -0.000000 0.000000 1.000000
vn -0.000000 0.000000 1.000000
vn -0.000000 0.000000 1.000000
vn -0.000000 0.000000 1.000000
vn -0.000000 0.000000 1.000000
vn -0.000000 0.000000 1.000000
vn -0.000000 0.000000 -1.000000
vn -0.000000 0.000000 -1.000000
vn -0.000000 0.000000 -1.000000
vn -0.000000 0.000000 -1.000000
vn -0.000000 0.000000 -1.000000
vn -0.000000 0.000000 -1.000000
vn -0.000000 0.000000 -1.000000
vn -0.000000 0.000000 -1.000000
vn 1.000000 0.000000 0.000000
vn 1.000000 0.000000 0.000000
vn 1.000000 0.000000 0.000000
vn 1.000000 0.000000 0.000000
vn 1.000000 0.000001 0.000000
vn 1.000000 0.000001 0.000000
vn 1.000000 0.000001 0.000000
vn 1.000000 0.000001 0.000000
vn 0.000000 1.000000 0.000000
vn 0.000000 1.000000 0.000000
vn 0.000000 1.000000 0.000000
vn 0.000000 1.000000 0.000000
vn 0.000000 -1.000000 0.000000
vn 0.000000 -1.000000 0.000000
vn 0.000000 -1.000000 0.000000
vn 0.000000 -1.000000 0.000000
vn 0.000000 0.000000 1.000000
vn 0.000000 0.000000 1.000000
vn 0.000000 0.000000 1.000000
vn 0.000000 0.000000 1.000000
vn 0.000000 0.000000 1.000000
vn 0.000000 0.000000 1.000000
vn 0.000000 0.000000 1.000000
vn 0.000000 0.000000 1.000000
vn 0.000000 0.000000 1.000000
vn 0.000000 0.000000 1.000000
vn 0.000000 0.000000 1.000000
vn 0.000000 0.000000 1.000000
vn 0.000000 0.000000 -1.000000
vn 0.000000 0.000000 -1.000000
vn 0.000000 0.000000 -1.000000
vn 0.000000 0.000000 -1.000000
vn 0.000000 0.000000 -1.000000
vn 0.000000 0.000000 -1.000000
vn 0.000000 0.000000 -1.000000
vn 0.000000 0.000000 -1.000000
vn 0.000000 0.000000 -1.000000
vn 0.000000 0.000000 -1.000000
vn 0.000000 0.000000 -1.000000
vn 0.000000 0.000000 -1.000000
vn -1.000000 0.000000 0.000000
vn -1.000000 0.000000 0.000000
vn -1.000000 0.000000 0.000000
vn -1.000000 0.000000 0.000000
vn 0.000000 -1.000000 0.000000
vn 0.000000 -1.000000 0.000000
vn 0.000000 -1.000000 0.000000
vn 0.000000 -1.000000 0.000000
vn 1.000000 0.000000 0.000000
vn 1.000000 0.000000 0.000000
vn 1.000000 0.000000 0.000000
vn 1.000000 0.000000 0.000000
vn 0.000000 1.000000 0.000000
vn 0.000000 1.000000 0.000000
vn 0.000000 1.000000 0.000000
vn 0.000000 1.000000 0.000000
s off
f 1/1/1 2/2/2 4/3/3 3/4/4
f 3/5/5 4/6/6 6/7/7 5/8/8
f 5/9/9 6/10/10 8/11/11 7/12/12
f 7/13/13 8/14/14 2/15/15 1/16/16
f 2/17/17 8/18/18 6/19/19 4/20/20
f 7/21/21 1/22/22 3/23/23 5/24/24
f 9/25/25 10/26/26 12/27/27 11/28/28
f 11/29/29 12/30/30 14/31/31 13/32/32
f 13/33/33 14/34/34 17/35/35 18/36/36
f 15/37/37 16/38/38 10/39/39 9/40/40
f 10/41/41 16/42/42 20/43/43 26/44/44 25/45/45 17/46/46 14/47/47 12/48/48
f 15/49/49 9/50/50 11/51/51 13/52/52 18/53/53 29/54/54 30/55/55 19/56/56
f 19/57/57 20/58/58 16/59/59 15/60/60
f 22/61/61 21/62/62 23/63/63 24/64/64
f 18/65/65 17/66/66 21/67/67 22/68/68
f 20/69/69 19/70/70 24/71/71 23/72/72
f 20/73/73 23/74/74 27/75/75 26/76/76
f 23/74/77 21/77/78 28/78/79 27/75/80
f 21/77/81 17/79/82 25/80/83 28/78/84
f 18/81/85 22/82/86 31/83/87 29/84/88
f 22/82/89 24/85/90 32/86/91 31/83/92
f 24/85/93 19/87/94 30/88/95 32/86/96
f 27/89/97 28/90/98 31/91/99 32/92/100
f 28/93/101 25/94/102 29/95/103 31/96/104
f 26/97/105 30/98/106 29/99/107 25/100/108
f 27/101/109 32/102/110 30/103/111 26/104/112
