# This file uses centimeters as units for non-parametric coordinates.

v -0.167023 0.491620 -0.100038
v -0.167023 0.491620 0.100038
v 0.167023 0.491620 -0.100038
v 0.167023 0.491620 0.100038
v 0.167023 0.335460 0.100038
v -0.167023 0.335460 0.100038
v -0.167023 0.335460 -0.100038
v 0.167023 0.335460 -0.100038
v 0.131374 0.362633 0.100038
v -0.131374 0.362633 0.100038
v 0.131374 0.464446 0.100038
v -0.131374 0.464446 0.100038
v -0.131374 0.362633 -0.100038
v 0.131374 0.362633 -0.100038
v -0.131374 0.464446 -0.100038
v 0.131374 0.464446 -0.100038
v -0.167023 -0.491620 -0.100038
v -0.167023 -0.491620 0.100038
v 0.167023 -0.491620 -0.100038
v 0.167023 -0.491620 0.100038
v -0.167023 0.293065 -0.100038
v -0.167023 0.293065 0.100038
v 0.167023 0.293065 0.100038
v 0.167023 0.293065 -0.100038
v -0.288544 0.214027 -0.100038
v -0.288544 0.214027 0.100038
v 0.288544 0.214027 0.100038
v 0.288544 0.214027 -0.100038
v -0.288544 -0.269728 -0.100038
v -0.288544 -0.269728 0.100038
v 0.288544 -0.269728 0.100038
v 0.288544 -0.269728 -0.100038
v -0.167023 -0.343748 -0.100038
v -0.167023 -0.343748 0.100038
v 0.167023 -0.343748 0.100038
v 0.167023 -0.343748 -0.100038
vt 0.865003 0.953551
vt 0.865003 0.953551
vt 0.865003 0.953551
vt 0.865003 0.953551
vt 0.369044 0.953551
vt 0.369044 0.953551
vt 0.369044 0.953551
vt 0.369044 0.953551
vt 0.369044 0.953551
vt 0.369044 0.953551
vt 0.369044 0.953551
vt 0.369044 0.953551
vt 0.126308 0.953551
vt 0.126308 0.953551
vt 0.126308 0.953551
vt 0.126308 0.953551
vt 0.620417 0.953551
vt 0.620417 0.953551
vt 0.620417 0.953551
vt 0.620417 0.953551
vt 0.620417 0.953551
vt 0.620417 0.953551
vt 0.620417 0.953551
vt 0.620417 0.953551
vt 0.620417 0.953551
vt 0.620417 0.953551
vt 0.620417 0.953551
vt 0.620417 0.953551
vt 0.620417 0.953551
vt 0.620417 0.953551
vt 0.620417 0.953551
vt 0.620417 0.953551
vt 0.126308 0.953551
vt 0.126308 0.953551
vt 0.126308 0.953551
vt 0.126308 0.953551
vt 0.369044 0.953551
vt 0.369044 0.953551
vt 0.369044 0.953551
vt 0.369044 0.953551
vt 0.620417 0.953551
vt 0.620417 0.953551
vt 0.620417 0.953551
vt 0.620417 0.953551
vt 0.369044 0.953551
vt 0.369044 0.953551
vt 0.369044 0.953551
vt 0.369044 0.953551
vt 0.620417 0.953551
vt 0.620417 0.953551
vt 0.620417 0.953551
vt 0.620417 0.953551
vt 0.369044 0.953551
vt 0.369044 0.953551
vt 0.620417 0.953551
vt 0.620417 0.953551
vt 0.369044 0.953551
vt 0.369044 0.953551
vt 0.620417 0.953551
vt 0.620417 0.953551
vt 0.369044 0.953551
vt 0.369044 0.953551
vt 0.620417 0.953551
vt 0.620417 0.953551
vt 0.369044 0.953551
vt 0.369044 0.953551
vt 0.620417 0.953551
vt 0.620417 0.953551
vt 0.369044 0.953551
vt 0.369044 0.953551
vt 0.369044 0.953551
vt 0.369044 0.953551
vt 0.865003 0.953551
vt 0.865003 0.953551
vt 0.865003 0.953551
vt 0.865003 0.953551
vt 0.620417 0.953551
vt 0.620417 0.953551
vt 0.620417 0.953551
vt 0.620417 0.953551
vn 0.000000 1.000000 0.000000
vn 0.000000 1.000000 0.000000
vn 0.000000 1.000000 0.000000
vn 0.000000 1.000000 0.000000
vn -1.000000 0.000000 0.000000
vn -1.000000 0.000000 0.000000
vn -1.000000 0.000000 0.000000
vn -1.000000 0.000000 0.000000
vn 1.000000 0.000000 0.000000
vn 1.000000 0.000000 0.000000
vn 1.000000 0.000000 0.000000
vn 1.000000 0.000000 0.000000
vn 0.000000 -1.000000 0.000000
vn 0.000000 -1.000000 0.000000
vn 0.000000 -1.000000 0.000000
vn 0.000000 -1.000000 0.000000
vn 0.000000 0.000000 1.000000
vn 0.000000 0.000000 1.000000
vn 0.000000 0.000000 1.000000
vn 0.000000 0.000000 1.000000
vn 0.000000 0.000000 1.000000
vn 0.000000 0.000000 1.000000
vn 0.000000 0.000000 1.000000
vn 0.000000 0.000000 1.000000
vn 0.000000 0.000000 1.000000
vn 0.000000 0.000000 1.000000
vn 0.000000 0.000000 1.000000
vn 0.000000 0.000000 1.000000
vn -0.000000 0.000000 1.000000
vn -0.000000 0.000000 1.000000
vn -0.000000 0.000000 1.000000
vn -0.000000 0.000000 1.000000
vn 0.000000 0.000000 -1.000000
vn 0.000000 0.000000 -1.000000
vn 0.000000 0.000000 -1.000000
vn 0.000000 0.000000 -1.000000
vn -0.000000 0.000000 -1.000000
vn -0.000000 0.000000 -1.000000
vn -0.000000 0.000000 -1.000000
vn -0.000000 0.000000 -1.000000
vn 0.000000 0.000000 -1.000000
vn 0.000000 0.000000 -1.000000
vn 0.000000 0.000000 -1.000000
vn 0.000000 0.000000 -1.000000
vn 0.000000 0.000000 -1.000000
vn 0.000000 0.000000 -1.000000
vn 0.000000 0.000000 -1.000000
vn 0.000000 0.000000 -1.000000
vn 0.000000 1.000000 0.000000
vn 0.000000 1.000000 0.000000
vn 0.000000 1.000000 0.000000
vn 0.000000 1.000000 0.000000
vn -1.000000 0.000000 0.000000
vn -1.000000 0.000000 0.000000
vn -1.000000 0.000000 0.000000
vn -1.000000 0.000000 0.000000
vn 0.000000 -1.000000 0.000000
vn 0.000000 -1.000000 0.000000
vn 0.000000 -1.000000 0.000000
vn 0.000000 -1.000000 0.000000
vn 1.000000 0.000000 0.000000
vn 1.000000 0.000000 0.000000
vn 1.000000 0.000000 0.000000
vn 1.000000 0.000000 0.000000
vn 0.000000 -1.000000 0.000000
vn 0.000000 -1.000000 0.000000
vn 0.000000 -1.000000 0.000000
vn 0.000000 -1.000000 0.000000
vn -0.545226 0.838289 0.000000
vn -0.545226 0.838289 0.000000
vn -0.545226 0.838289 0.000000
vn -0.545226 0.838289 0.000000
vn 0.000000 0.000000 1.000000
vn 0.000000 0.000000 1.000000
vn 0.000000 0.000000 1.000000
vn 0.000000 0.000000 1.000000
vn 0.545226 0.838289 0.000000
vn 0.545226 0.838289 0.000000
vn 0.545226 0.838289 0.000000
vn 0.545226 0.838289 0.000000
vn 0.000000 0.000000 -1.000000
vn 0.000000 0.000000 -1.000000
vn 0.000000 0.000000 -1.000000
vn 0.000000 0.000000 -1.000000
vn -1.000000 0.000000 0.000000
vn -1.000000 0.000000 0.000000
vn -1.000000 0.000000 0.000000
vn -1.000000 0.000000 0.000000
vn 0.000000 0.000000 1.000000
vn 0.000000 0.000000 1.000000
vn 0.000000 0.000000 1.000000
vn 0.000000 0.000000 1.000000
vn 1.000000 0.000000 0.000000
vn 1.000000 0.000000 0.000000
vn 1.000000 0.000000 0.000000
vn 1.000000 0.000000 0.000000
vn 0.000000 0.000000 -1.000000
vn 0.000000 0.000000 -1.000000
vn 0.000000 0.000000 -1.000000
vn 0.000000 0.000000 -1.000000
vn -0.520204 -0.854042 0.000000
vn -0.520204 -0.854042 0.000000
vn -0.520204 -0.854042 0.000000
vn -0.520204 -0.854042 0.000000
vn 0.000000 -0.000000 1.000000
vn 0.000000 -0.000000 1.000000
vn 0.000000 -0.000000 1.000000
vn 0.000000 -0.000000 1.000000
vn 0.520204 -0.854042 0.000000
vn 0.520204 -0.854042 0.000000
vn 0.520204 -0.854042 0.000000
vn 0.520204 -0.854042 0.000000
vn 0.000000 0.000000 -1.000000
vn 0.000000 0.000000 -1.000000
vn 0.000000 0.000000 -1.000000
vn 0.000000 0.000000 -1.000000
vn -1.000000 0.000000 0.000000
vn -1.000000 0.000000 0.000000
vn -1.000000 0.000000 0.000000
vn -1.000000 0.000000 0.000000
vn 1.000000 0.000000 0.000000
vn 1.000000 0.000000 0.000000
vn 1.000000 0.000000 0.000000
vn 1.000000 0.000000 0.000000
vn 0.000000 1.000000 0.000000
vn 0.000000 1.000000 0.000000
vn 0.000000 1.000000 0.000000
vn 0.000000 1.000000 0.000000
vn 0.000000 0.000000 1.000000
vn 0.000000 0.000000 1.000000
vn 0.000000 0.000000 1.000000
vn 0.000000 0.000000 1.000000
vn 0.000000 0.000000 -1.000000
vn 0.000000 0.000000 -1.000000
vn 0.000000 0.000000 -1.000000
vn 0.000000 0.000000 -1.000000
s off
f 1/1/1 2/2/2 4/3/3 3/4/4
f 7/5/5 6/6/6 2/7/7 1/8/8
f 3/9/9 4/10/10 5/11/11 8/12/12
f 6/13/13 7/14/14 8/15/15 5/16/16
f 6/17/17 5/18/18 9/19/19 10/20/20
f 5/18/21 4/21/22 11/22/23 9/19/24
f 4/21/25 2/23/26 12/24/27 11/22/28
f 2/23/29 6/17/30 10/20/31 12/24/32
f 8/25/33 7/26/34 13/27/35 14/28/36
f 7/26/37 1/29/38 15/30/39 13/27/40
f 1/29/41 3/31/42 16/32/43 15/30/44
f 3/31/45 8/25/46 14/28/47 16/32/48
f 10/20/49 9/19/50 14/28/51 13/27/52
f 9/19/53 11/22/54 16/32/55 14/28/56
f 11/22/57 12/24/58 15/30/59 16/32/60
f 12/24/61 10/20/62 13/27/63 15/30/64
f 19/33/65 20/34/66 18/35/67 17/36/68
f 25/37/69 26/38/70 22/39/71 21/40/72
f 26/41/73 27/42/74 23/43/75 22/44/76
f 24/45/77 23/46/78 27/47/79 28/48/80
f 28/49/81 25/50/82 21/51/83 24/52/84
f 29/53/85 30/54/86 26/38/87 25/37/88
f 30/55/89 31/56/90 27/42/91 26/41/92
f 28/48/93 27/47/94 31/57/95 32/58/96
f 32/59/97 29/60/98 25/50/99 28/49/100
f 33/61/101 34/62/102 30/54/103 29/53/104
f 34/63/105 35/64/106 31/56/107 30/55/108
f 32/58/109 31/57/110 35/65/111 36/66/112
f 36/67/113 33/68/114 29/60/115 32/59/116
f 17/69/117 18/70/118 34/62/119 33/61/120
f 36/66/121 35/65/122 20/71/123 19/72/124
f 22/73/125 23/74/126 24/75/127 21/76/128
f 34/63/129 18/77/130 20/78/131 35/64/132
f 19/79/133 17/80/134 33/68/135 36/67/136
