# This file uses centimeters as units for non-parametric coordinates.

v -0.251936 -0.285063 0.095621
v -0.251936 0.303415 0.095621
v 0.232303 0.303415 0.095621
v 0.232303 -0.285063 0.095621
v 0.232303 0.090610 0.095621
v 0.232303 -0.067618 0.095621
v 0.061881 -0.067618 0.095621
v 0.061881 -0.138825 0.095621
v -0.063203 -0.138825 0.095621
v -0.063203 0.158777 0.095621
v 0.061881 0.158777 0.095621
v 0.061881 0.090610 0.095621
v 0.061881 -0.138825 -0.095621
v 0.232303 -0.285063 -0.095621
v 0.232303 -0.067618 -0.095621
v 0.061881 -0.067618 -0.095621
v -0.251936 -0.285063 -0.095621
v -0.063203 -0.138825 -0.095621
v -0.063203 0.158777 -0.095621
v -0.251936 0.303415 -0.095621
v 0.061881 0.158777 -0.095621
v 0.232303 0.303415 -0.095621
v 0.061881 0.090610 -0.095621
v 0.232303 0.090610 -0.095621
v -0.500000 -0.500000 -0.095621
v -0.500000 -0.500000 0.095621
v -0.500000 0.500000 -0.095621
v -0.500000 0.500000 0.095621
v 0.500000 0.500000 -0.095621
v 0.500000 0.500000 0.095621
v 0.500000 -0.500000 -0.095621
v 0.500000 -0.500000 0.095621
v 0.382323 -0.382323 0.095621
v -0.382323 -0.382323 0.095621
v 0.382323 0.382323 0.095621
v -0.382323 0.382323 0.095621
v 0.382323 -0.382323 -0.095621
v -0.382323 -0.382323 -0.095621
v -0.382323 0.382323 -0.095621
v 0.382323 0.382323 -0.095621
vt 0.142844 0.958273
vt 0.142844 0.958273
vt 0.385272 0.958273
vt 0.385272 0.958273
vt 0.142844 0.958273
vt 0.385272 0.958273
vt 0.385272 0.958273
vt 0.385272 0.958273
vt 0.385272 0.958273
vt 0.142844 0.958273
vt 0.142844 0.958273
vt 0.142844 0.958273
vt 0.612548 0.958273
vt 0.612548 0.958273
vt 0.612548 0.958273
vt 0.612548 0.958273
vt 0.612548 0.958273
vt 0.612548 0.958273
vt 0.612548 0.958273
vt 0.612548 0.958273
vt 0.612548 0.958273
vt 0.612548 0.958273
vt 0.612548 0.958273
vt 0.612548 0.958273
vt 0.612548 0.958273
vt 0.612548 0.958273
vt 0.612548 0.958273
vt 0.612548 0.958273
vt 0.612548 0.958273
vt 0.612548 0.958273
vt 0.612548 0.958273
vt 0.612548 0.958273
vt 0.612548 0.958273
vt 0.612548 0.958273
vt 0.612548 0.958273
vt 0.612548 0.958273
vt 0.867603 0.958273
vt 0.867603 0.958273
vt 0.867603 0.958273
vt 0.867603 0.958273
vt 0.867603 0.958273
vt 0.867603 0.958273
vt 0.867603 0.958273
vt 0.867603 0.958273
vt 0.867603 0.958273
vt 0.867603 0.958273
vt 0.867603 0.958273
vt 0.867603 0.958273
vt 0.385272 0.958273
vt 0.385272 0.958273
vt 0.385272 0.958273
vt 0.385272 0.958273
vt 0.385272 0.958273
vt 0.385272 0.958273
vt 0.385272 0.958273
vt 0.385272 0.958273
vt 0.385272 0.958273
vt 0.385272 0.958273
vt 0.385272 0.958273
vt 0.385272 0.958273
vt 0.385272 0.958273
vt 0.385272 0.958273
vt 0.385272 0.958273
vt 0.385272 0.958273
vt 0.385272 0.958273
vt 0.385272 0.958273
vt 0.142844 0.958273
vt 0.142844 0.958273
vt 0.142844 0.958273
vt 0.142844 0.958273
vt 0.142844 0.958273
vt 0.142844 0.958273
vt 0.369044 0.958269
vt 0.369044 0.958269
vt 0.369044 0.958269
vt 0.369044 0.958269
vt 0.865003 0.958269
vt 0.865003 0.958269
vt 0.865003 0.958269
vt 0.865003 0.958269
vt 0.369044 0.958269
vt 0.369044 0.958269
vt 0.369044 0.958269
vt 0.369044 0.958269
vt 0.126308 0.958268
vt 0.126308 0.958268
vt 0.126308 0.958268
vt 0.126308 0.958268
vt 0.620417 0.958269
vt 0.620417 0.958269
vt 0.620417 0.958269
vt 0.620417 0.958269
vt 0.620417 0.958269
vt 0.620417 0.958269
vt 0.620417 0.958269
vt 0.620417 0.958269
vt 0.620417 0.958269
vt 0.620417 0.958269
vt 0.620417 0.958269
vt 0.620417 0.958269
vt 0.620417 0.958269
vt 0.620417 0.958269
vt 0.620417 0.958269
vt 0.620417 0.958269
vt 0.865003 0.958269
vt 0.865003 0.958269
vt 0.865003 0.958269
vt 0.865003 0.958269
vt 0.369044 0.958269
vt 0.369044 0.958269
vt 0.369044 0.958269
vt 0.369044 0.958269
vt 0.126308 0.958268
vt 0.126308 0.958268
vt 0.126308 0.958268
vt 0.126308 0.958268
vt 0.369044 0.958269
vt 0.369044 0.958269
vt 0.369044 0.958269
vt 0.369044 0.958269
vn 0.000000 0.000000 -1.000000
vn 0.000000 0.000000 -1.000000
vn 0.000000 0.000000 -1.000000
vn 0.000000 0.000000 -1.000000
vn 0.000000 0.000000 -1.000000
vn 0.000000 0.000000 -1.000000
vn 0.000000 0.000000 -1.000000
vn 0.000000 0.000000 -1.000000
vn -0.000000 0.000000 -1.000000
vn -0.000000 0.000000 -1.000000
vn -0.000000 0.000000 -1.000000
vn -0.000000 0.000000 -1.000000
vn 0.000000 0.000000 -1.000000
vn 0.000000 0.000000 -1.000000
vn 0.000000 0.000000 -1.000000
vn 0.000000 0.000000 -1.000000
vn 0.000000 0.000000 -1.000000
vn 0.000000 0.000000 -1.000000
vn 0.000000 0.000000 -1.000000
vn 0.000000 0.000000 -1.000000
vn 0.000000 0.000000 1.000000
vn 0.000000 0.000000 1.000000
vn 0.000000 0.000000 1.000000
vn 0.000000 0.000000 1.000000
vn 0.000000 0.000000 1.000000
vn 0.000000 0.000000 1.000000
vn 0.000000 0.000000 1.000000
vn 0.000000 0.000000 1.000000
vn 0.000000 0.000000 1.000000
vn 0.000000 0.000000 1.000000
vn 0.000000 0.000000 1.000000
vn 0.000000 0.000000 1.000000
vn 0.000000 0.000000 1.000000
vn 0.000000 0.000000 1.000000
vn 0.000000 0.000000 1.000000
vn 0.000000 0.000000 1.000000
vn 0.000000 0.000000 1.000000
vn 0.000000 0.000000 1.000000
vn 0.000000 0.000000 1.000000
vn 0.000000 0.000000 1.000000
vn 1.000000 0.000000 0.000000
vn 1.000000 0.000000 0.000000
vn 1.000000 0.000000 0.000000
vn 1.000000 0.000000 0.000000
vn 0.000000 1.000000 0.000000
vn 0.000000 1.000000 0.000000
vn 0.000000 1.000000 0.000000
vn 0.000000 1.000000 0.000000
vn -1.000000 0.000000 0.000000
vn -1.000000 0.000000 0.000000
vn -1.000000 0.000000 0.000000
vn -1.000000 0.000000 0.000000
vn 0.000000 -1.000000 0.000000
vn 0.000000 -1.000000 0.000000
vn 0.000000 -1.000000 0.000000
vn 0.000000 -1.000000 0.000000
vn 0.000000 1.000000 0.000000
vn 0.000000 1.000000 0.000000
vn 0.000000 1.000000 0.000000
vn 0.000000 1.000000 0.000000
vn 1.000000 0.000000 0.000000
vn 1.000000 0.000000 0.000000
vn 1.000000 0.000000 0.000000
vn 1.000000 0.000000 0.000000
vn -1.000000 0.000000 0.000000
vn -1.000000 0.000000 0.000000
vn -1.000000 0.000000 0.000000
vn -1.000000 0.000000 0.000000
vn 0.000000 -1.000000 0.000000
vn 0.000000 -1.000000 0.000000
vn 0.000000 -1.000000 0.000000
vn 0.000000 -1.000000 0.000000
vn 0.000000 1.000000 0.000000
vn 0.000000 1.000000 0.000000
vn 0.000000 1.000000 0.000000
vn 0.000000 1.000000 0.000000
vn -1.000000 0.000000 0.000000
vn -1.000000 0.000000 0.000000
vn -1.000000 0.000000 0.000000
vn -1.000000 0.000000 0.000000
vn 0.000000 -1.000000 0.000000
vn 0.000000 -1.000000 0.000000
vn 0.000000 -1.000000 0.000000
vn 0.000000 -1.000000 0.000000
vn 1.000000 0.000000 0.000000
vn 1.000000 0.000000 0.000000
vn 1.000000 0.000000 0.000000
vn 1.000000 0.000000 0.000000
vn -1.000000 0.000000 0.000000
vn -1.000000 0.000000 0.000000
vn -1.000000 0.000000 0.000000
vn -1.000000 0.000000 0.000000
vn 0.000000 1.000000 0.000000
vn 0.000000 1.000000 0.000000
vn 0.000000 1.000000 0.000000
vn 0.000000 1.000000 0.000000
vn 1.000000 0.000000 0.000000
vn 1.000000 0.000000 0.000000
vn 1.000000 0.000000 0.000000
vn 1.000000 0.000000 0.000000
vn 0.000000 -1.000000 0.000000
vn 0.000000 -1.000000 0.000000
vn 0.000000 -1.000000 0.000000
vn 0.000000 -1.000000 0.000000
vn 0.000000 0.000000 1.000000
vn 0.000000 0.000000 1.000000
vn 0.000000 0.000000 1.000000
vn 0.000000 0.000000 1.000000
vn 0.000000 0.000000 1.000000
vn 0.000000 0.000000 1.000000
vn 0.000000 0.000000 1.000000
vn 0.000000 0.000000 1.000000
vn 0.000000 0.000000 1.000000
vn 0.000000 0.000000 1.000000
vn 0.000000 0.000000 1.000000
vn 0.000000 0.000000 1.000000
vn -0.000000 0.000000 1.000000
vn -0.000000 0.000000 1.000000
vn -0.000000 0.000000 1.000000
vn -0.000000 0.000000 1.000000
vn 0.000000 0.000000 -1.000000
vn 0.000000 0.000000 -1.000000
vn 0.000000 0.000000 -1.000000
vn 0.000000 0.000000 -1.000000
vn -0.000000 0.000000 -1.000000
vn -0.000000 0.000000 -1.000000
vn -0.000000 0.000000 -1.000000
vn -0.000000 0.000000 -1.000000
vn 0.000000 0.000000 -1.000000
vn 0.000000 0.000000 -1.000000
vn 0.000000 0.000000 -1.000000
vn 0.000000 0.000000 -1.000000
vn 0.000000 0.000000 -1.000000
vn 0.000000 0.000000 -1.000000
vn 0.000000 0.000000 -1.000000
vn 0.000000 0.000000 -1.000000
vn 0.000000 1.000000 0.000000
vn 0.000000 1.000000 0.000000
vn 0.000000 1.000000 0.000000
vn 0.000000 1.000000 0.000000
vn -1.000000 0.000000 0.000000
vn -1.000000 0.000000 0.000000
vn -1.000000 0.000000 0.000000
vn -1.000000 0.000000 0.000000
vn 0.000000 -1.000000 0.000000
vn 0.000000 -1.000000 0.000000
vn 0.000000 -1.000000 0.000000
vn 0.000000 -1.000000 0.000000
vn 1.000000 0.000000 0.000000
vn 1.000000 0.000000 0.000000
vn 1.000000 0.000000 0.000000
vn 1.000000 0.000000 0.000000
s off
f 13/28/1 16/27/2 15/26/3 14/25/4
f 17/29/5 18/30/6 13/28/7 14/25/8
f 17/29/9 20/32/10 19/31/11 18/30/12
f 20/32/13 22/34/14 21/33/15 19/31/16
f 22/34/17 24/36/18 23/35/19 21/33/20
f 8/13/21 4/14/22 6/15/23 7/16/24
f 1/17/25 4/14/26 8/13/27 9/18/28
f 1/17/29 9/18/30 10/19/31 2/20/32
f 2/20/33 10/19/34 11/21/35 3/22/36
f 3/22/37 11/21/38 12/23/39 5/24/40
f 4/3/41 14/7/42 15/6/43 6/4/44
f 6/37/45 15/40/46 16/39/47 7/38/48
f 7/8/49 16/50/50 13/49/51 8/9/52
f 1/1/53 17/10/54 14/5/55 4/2/56
f 8/41/57 13/44/58 18/43/59 9/42/60
f 9/51/61 18/54/62 19/53/63 10/52/64
f 2/55/65 20/58/66 17/57/67 1/56/68
f 10/11/69 19/68/70 21/67/71 11/12/72
f 3/45/73 22/48/74 20/47/75 2/46/76
f 11/59/77 21/62/78 23/61/79 12/60/80
f 12/69/81 23/72/82 24/71/83 5/70/84
f 5/63/85 24/66/86 22/65/87 3/64/88
f 25/73/89 26/74/90 28/75/91 27/76/92
f 27/77/93 28/78/94 30/79/95 29/80/96
f 29/81/97 30/82/98 32/83/99 31/84/100
f 31/85/101 32/86/102 26/87/103 25/88/104
f 26/89/105 32/90/106 33/91/107 34/92/108
f 32/90/109 30/93/110 35/94/111 33/91/112
f 30/93/113 28/95/114 36/96/115 35/94/116
f 28/95/117 26/89/118 34/92/119 36/96/120
f 31/97/121 25/98/122 38/99/123 37/100/124
f 25/98/125 27/101/126 39/102/127 38/99/128
f 27/101/129 29/103/130 40/104/131 39/102/132
f 29/103/133 31/97/134 37/100/135 40/104/136
f 34/105/137 33/106/138 37/107/139 38/108/140
f 33/109/141 35/110/142 40/111/143 37/112/144
f 35/113/145 36/114/146 39/115/147 40/116/148
f 36/117/149 34/118/150 38/119/151 39/120/152
