# This file uses centimeters as units for non-parametric coordinates.

v -0.500000 0.109753 -0.100038
v -0.500000 0.109753 0.100038
v -0.409850 0.520436 -0.100038
v -0.409850 0.520436 0.100038
v 0.409850 0.520436 -0.100038
v 0.409850 0.520436 0.100038
v 0.500000 0.109753 -0.100038
v 0.500000 0.109753 0.100038
v 0.380038 0.109753 0.100038
v -0.380038 0.109753 0.100038
v 0.311518 0.421141 0.100038
v -0.311518 0.421141 0.100038
v 0.380038 0.109753 -0.100038
v -0.380038 0.109753 -0.100038
v -0.311518 0.421141 -0.100038
v 0.311518 0.421141 -0.100038
v 0.500000 -0.345298 -0.100038
v 0.500000 -0.345298 0.100038
v -0.500000 -0.345298 0.100038
v -0.500000 -0.345298 -0.100038
v 0.433006 0.030581 0.100038
v -0.433006 0.030581 0.100038
v -0.433006 -0.142818 0.100038
v 0.433006 -0.142818 0.100038
v 0.433006 0.030581 -0.100038
v -0.433006 0.030581 -0.100038
v 0.433006 -0.142818 -0.100038
v -0.433006 -0.142818 -0.100038
v 0.300000 -0.345298 0.100038
v -0.300000 -0.345298 0.100038
v 0.300000 -0.345298 -0.100038
v -0.300000 -0.345298 -0.100038
v -0.300000 -0.520436 0.100038
v -0.300000 -0.520436 -0.100038
v -0.500000 -0.520436 0.100038
v -0.500000 -0.520436 -0.100038
v 0.500000 -0.520436 -0.100038
v 0.500000 -0.520436 0.100038
v 0.300000 -0.520436 0.100038
v 0.300000 -0.520436 -0.100038
v 0.259804 0.030581 0.100038
v -0.259804 0.030581 0.100038
v 0.259804 -0.142818 0.100038
v -0.259804 -0.142818 0.100038
v 0.259804 0.030581 -0.100038
v -0.259804 0.030581 -0.100038
v 0.259804 -0.142818 -0.100038
v -0.259804 -0.142818 -0.100038
vt 0.369044 0.953552
vt 0.369044 0.953552
vt 0.369044 0.953552
vt 0.369044 0.953552
vt 0.865003 0.953552
vt 0.865003 0.953552
vt 0.865003 0.953552
vt 0.865003 0.953552
vt 0.369044 0.953552
vt 0.369044 0.953552
vt 0.369044 0.953552
vt 0.369044 0.953552
vt 0.126308 0.953552
vt 0.126308 0.953552
vt 0.126308 0.953552
vt 0.126308 0.953552
vt 0.620417 0.953552
vt 0.620417 0.953552
vt 0.620417 0.953552
vt 0.620417 0.953552
vt 0.620417 0.953552
vt 0.620417 0.953552
vt 0.620417 0.953552
vt 0.620417 0.953552
vt 0.620417 0.953552
vt 0.620417 0.953552
vt 0.620417 0.953552
vt 0.620417 0.953552
vt 0.620417 0.953552
vt 0.620417 0.953552
vt 0.620417 0.953552
vt 0.620417 0.953552
vt 0.865003 0.953552
vt 0.865003 0.953552
vt 0.865003 0.953552
vt 0.865003 0.953552
vt 0.369044 0.953552
vt 0.369044 0.953552
vt 0.369044 0.953552
vt 0.369044 0.953552
vt 0.126308 0.953552
vt 0.126308 0.953552
vt 0.126308 0.953552
vt 0.126308 0.953552
vt 0.369044 0.953552
vt 0.369044 0.953552
vt 0.369044 0.953552
vt 0.369044 0.953552
vt 0.369044 0.953552
vt 0.369044 0.953552
vt 0.369044 0.953552
vt 0.369044 0.953552
vt 0.369044 0.953552
vt 0.369044 0.953552
vt 0.369044 0.953552
vt 0.369044 0.953552
vt 0.620417 0.953552
vt 0.620417 0.953552
vt 0.620417 0.953552
vt 0.620417 0.953552
vt 0.620417 0.953552
vt 0.620417 0.953552
vt 0.620417 0.953552
vt 0.620417 0.953552
vt 0.620417 0.953552
vt 0.620417 0.953552
vt 0.620417 0.953552
vt 0.620417 0.953552
vt 0.620417 0.953552
vt 0.620417 0.953552
vt 0.620417 0.953552
vt 0.620417 0.953552
vt 0.620417 0.953552
vt 0.620417 0.953552
vt 0.620417 0.953552
vt 0.620417 0.953552
vt 0.620417 0.953552
vt 0.620417 0.953552
vt 0.620417 0.953552
vt 0.620417 0.953552
vt 0.620417 0.953552
vt 0.620417 0.953552
vt 0.620417 0.953552
vt 0.620417 0.953552
vt 0.126308 0.953552
vt 0.126308 0.953552
vt 0.126308 0.953552
vt 0.126308 0.953552
vt 0.126308 0.953552
vt 0.126308 0.953552
vt 0.126308 0.953552
vt 0.126308 0.953552
vt 0.369044 0.953552
vt 0.369044 0.953552
vt 0.369044 0.953552
vt 0.369044 0.953552
vt 0.620417 0.953552
vt 0.620417 0.953552
vt 0.369044 0.953552
vt 0.369044 0.953552
vt 0.369044 0.953552
vt 0.369044 0.953552
vt 0.620417 0.953552
vt 0.620417 0.953552
vt 0.369044 0.953552
vt 0.369044 0.953552
vt 0.369044 0.953552
vt 0.369044 0.953552
vt 0.620417 0.953552
vt 0.620417 0.953552
vt 0.369044 0.953552
vt 0.369044 0.953552
vt 0.369044 0.953552
vt 0.369044 0.953552
vt 0.620417 0.953552
vt 0.620417 0.953552
vt 0.865003 0.953552
vt 0.865003 0.953552
vt 0.865003 0.953552
vt 0.865003 0.953552
vt 0.369044 0.953552
vt 0.369044 0.953552
vt 0.369044 0.953552
vt 0.369044 0.953552
vt 0.126308 0.953552
vt 0.126308 0.953552
vt 0.126308 0.953552
vt 0.126308 0.953552
vt 0.369044 0.953552
vt 0.369044 0.953552
vt 0.369044 0.953552
vt 0.369044 0.953552
vt 0.369044 0.953552
vt 0.369044 0.953552
vt 0.369044 0.953552
vt 0.369044 0.953552
vt 0.865003 0.953552
vt 0.865003 0.953552
vt 0.865003 0.953552
vt 0.865003 0.953552
vt 0.369044 0.953552
vt 0.369044 0.953552
vt 0.369044 0.953552
vt 0.369044 0.953552
vt 0.126308 0.953552
vt 0.126308 0.953552
vt 0.126308 0.953552
vt 0.126308 0.953552
vn -0.976744 0.214407 -0.000000
vn -0.976744 0.214407 -0.000000
vn -0.976744 0.214407 -0.000000
vn -0.976744 0.214407 -0.000000
vn 0.000000 1.000000 0.000000
vn 0.000000 1.000000 0.000000
vn 0.000000 1.000000 0.000000
vn 0.000000 1.000000 0.000000
vn 0.976744 0.214407 -0.000000
vn 0.976744 0.214407 -0.000000
vn 0.976744 0.214407 -0.000000
vn 0.976744 0.214407 -0.000000
vn 0.000000 -1.000000 0.000000
vn 0.000000 -1.000000 0.000000
vn 0.000000 -1.000000 0.000000
vn 0.000000 -1.000000 0.000000
vn 0.000000 0.000000 -0.000000
vn 0.000000 0.000000 -0.000000
vn 0.000000 0.961938 -0.273266
vn 0.000000 0.961938 -0.273266
vn -0.000000 -0.000000 1.000000
vn -0.000000 -0.000000 1.000000
vn -0.000000 -0.000000 1.000000
vn -0.000000 -0.000000 1.000000
vn -0.000000 -0.000000 1.000000
vn -0.000000 -0.000000 1.000000
vn -0.000000 -0.000000 1.000000
vn -0.000000 -0.000000 1.000000
vn -0.000000 -0.000000 1.000000
vn -0.000000 -0.000000 1.000000
vn -0.000000 -0.000000 1.000000
vn -0.000000 -0.000000 1.000000
vn 0.000000 -0.000000 0.000000
vn 0.000000 -0.000000 0.000000
vn 0.000000 -0.869466 0.493993
vn 0.000000 -0.869466 0.493993
vn -0.000000 0.000000 -1.000000
vn -0.000000 0.000000 -1.000000
vn -0.000000 0.000000 -1.000000
vn -0.000000 0.000000 -1.000000
vn -0.000000 0.000000 -1.000000
vn -0.000000 0.000000 -1.000000
vn -0.000000 0.000000 -1.000000
vn -0.000000 0.000000 -1.000000
vn 0.000000 0.000000 -1.000000
vn 0.000000 0.000000 -1.000000
vn 0.000000 0.000000 -1.000000
vn 0.000000 0.000000 -1.000000
vn 0.000000 1.000000 0.000000
vn 0.000000 1.000000 0.000000
vn 0.000000 1.000000 0.000000
vn 0.000000 1.000000 0.000000
vn -0.976635 -0.214907 0.000000
vn -0.976635 -0.214907 0.000000
vn -0.976635 -0.214907 0.000000
vn -0.976635 -0.214907 0.000000
vn 0.000000 -1.000000 0.000000
vn 0.000000 -1.000000 0.000000
vn 0.000000 -1.000000 0.000000
vn 0.000000 -1.000000 0.000000
vn 0.976634 -0.214907 0.000000
vn 0.976635 -0.214907 0.000000
vn 0.976635 -0.214907 0.000000
vn 0.976635 -0.214907 0.000000
vn 1.000000 0.000000 -0.000000
vn 1.000000 0.000000 -0.000000
vn 1.000000 0.000000 -0.000000
vn 1.000000 0.000000 -0.000000
vn -1.000000 0.000000 0.000000
vn -1.000000 0.000000 0.000000
vn -1.000000 0.000000 0.000000
vn -1.000000 0.000000 0.000000
vn -0.000000 -0.000000 1.000000
vn -0.000000 -0.000000 1.000000
vn -0.000000 -0.000000 1.000000
vn -0.000000 -0.000000 1.000000
vn -0.000000 -0.000000 1.000000
vn -0.000000 -0.000000 1.000000
vn 0.000000 0.000000 1.000000
vn 0.000000 0.000000 1.000000
vn 0.000000 0.000000 1.000000
vn 0.000000 0.000000 1.000000
vn -0.000000 -0.000000 1.000000
vn -0.000000 -0.000000 1.000000
vn -0.000000 -0.000000 1.000000
vn -0.000000 -0.000000 1.000000
vn -0.000000 -0.000000 1.000000
vn -0.000000 -0.000000 1.000000
vn -0.000000 -0.000000 1.000000
vn -0.000000 -0.000000 1.000000
vn 0.000000 0.000000 1.000000
vn 0.000000 0.000000 1.000000
vn 0.000000 0.000000 1.000000
vn 0.000000 0.000000 1.000000
vn -0.000000 0.000000 -1.000000
vn -0.000000 0.000000 -1.000000
vn -0.000000 0.000000 -1.000000
vn -0.000000 0.000000 -1.000000
vn -0.000000 0.000000 -1.000000
vn -0.000000 0.000000 -1.000000
vn -0.000000 0.000000 -1.000000
vn -0.000000 0.000000 -1.000000
vn -0.000000 0.000000 -1.000000
vn -0.000000 0.000000 -1.000000
vn -0.000000 0.000000 -1.000000
vn -0.000000 0.000000 -1.000000
vn -0.000000 0.000000 -1.000000
vn -0.000000 0.000000 -1.000000
vn -0.000000 0.000000 -1.000000
vn -0.000000 0.000000 -1.000000
vn -0.000000 0.000000 -1.000000
vn -0.000000 0.000000 -1.000000
vn 0.000000 0.000000 -1.000000
vn 0.000000 0.000000 -1.000000
vn 0.000000 0.000000 -1.000000
vn 0.000000 0.000000 -1.000000
vn 0.000000 -1.000000 0.000000
vn 0.000000 -1.000000 0.000000
vn 0.000000 -1.000000 0.000000
vn 0.000000 -1.000000 0.000000
vn -0.000001 -1.000000 0.000000
vn -0.000001 -1.000000 0.000000
vn -0.000001 -1.000000 0.000000
vn -0.000001 -1.000000 0.000000
vn 1.000000 0.000000 0.000000
vn 1.000000 0.000000 0.000000
vn 1.000000 0.000000 0.000000
vn 1.000000 0.000000 0.000000
vn -0.000000 0.000000 1.000000
vn -0.000000 0.000000 1.000000
vn -0.000000 0.000000 1.000000
vn -0.000000 0.000000 1.000000
vn -1.000000 0.000000 0.000000
vn -1.000000 0.000000 0.000000
vn -1.000000 0.000000 0.000000
vn -1.000000 0.000000 0.000000
vn -0.000000 0.000000 -1.000000
vn -0.000000 0.000000 -1.000000
vn -0.000000 0.000000 -1.000000
vn -0.000000 0.000000 -1.000000
vn 1.000000 0.000000 -0.000000
vn 1.000000 0.000000 -0.000000
vn 1.000000 0.000000 -0.000000
vn 1.000000 0.000000 -0.000000
vn -0.000000 0.000000 1.000000
vn -0.000000 0.000000 1.000000
vn -0.000000 0.000000 1.000000
vn -0.000000 0.000000 1.000000
vn -1.000000 0.000000 0.000000
vn -1.000000 0.000000 0.000000
vn -1.000000 0.000000 0.000000
vn -1.000000 0.000000 0.000000
vn 0.000000 0.000000 -1.000000
vn 0.000000 0.000000 -1.000000
vn 0.000000 0.000000 -1.000000
vn 0.000000 0.000000 -1.000000
vn 0.000000 0.000000 1.000000
vn 0.000000 0.000000 1.000000
vn 0.000000 0.000000 1.000000
vn 0.000000 0.000000 1.000000
vn 0.000000 0.000000 -1.000000
vn 0.000000 0.000000 -1.000000
vn 0.000000 0.000000 -1.000000
vn 0.000000 0.000000 -1.000000
vn 0.000000 1.000000 0.000000
vn 0.000000 1.000000 0.000000
vn 0.000000 1.000000 0.000000
vn 0.000000 1.000000 0.000000
vn -1.000000 0.000000 0.000000
vn -1.000000 0.000000 0.000000
vn -1.000000 0.000000 0.000000
vn -1.000000 0.000000 0.000000
vn 0.000000 -1.000000 0.000000
vn 0.000000 -1.000000 0.000000
vn 0.000000 -1.000000 0.000000
vn 0.000000 -1.000000 0.000000
vn 1.000000 0.000000 0.000000
vn 1.000000 0.000000 0.000000
vn 1.000000 0.000000 0.000000
vn 1.000000 0.000000 0.000000
vn -1.000000 0.000000 0.000000
vn -1.000000 0.000000 0.000000
vn -1.000000 0.000000 0.000000
vn -1.000000 0.000000 0.000000
vn 0.000000 1.000000 0.000000
vn 0.000000 1.000000 0.000000
vn 0.000000 1.000000 0.000000
vn 0.000000 1.000000 0.000000
vn 1.000000 0.000000 0.000000
vn 1.000000 0.000000 0.000000
vn 1.000000 0.000000 0.000000
vn 1.000000 0.000000 0.000000
vn 0.000000 -1.000000 0.000000
vn 0.000000 -1.000000 0.000000
vn 0.000000 -1.000000 0.000000
vn 0.000000 -1.000000 0.000000
s off
f 1/1/1 2/2/2 4/3/3 3/4/4
f 3/5/5 4/6/6 6/7/7 5/8/8
f 5/9/9 6/10/10 8/11/11 7/12/12
f 31/13/13 29/14/14 30/15/15 32/16/16
f 2/17/17 8/18/18 9/19/19 10/20/20
f 8/18/21 6/21/22 11/22/23 9/19/24
f 6/21/25 4/23/26 12/24/27 11/22/28
f 4/23/29 2/17/30 10/20/31 12/24/32
f 7/25/33 1/26/34 14/27/35 13/28/36
f 1/26/37 3/29/38 15/30/39 14/27/40
f 3/29/41 5/31/42 16/32/43 15/30/44
f 5/31/45 7/25/46 13/28/47 16/32/48
f 10/33/49 9/34/50 13/35/51 14/36/52
f 9/37/53 11/38/54 16/39/55 13/40/56
f 11/41/57 12/42/58 15/43/59 16/44/60
f 12/45/61 10/46/62 14/47/63 15/48/64
f 7/49/65 8/50/66 18/51/67 17/52/68
f 2/53/69 1/54/70 20/55/71 19/56/72
f 8/57/73 2/58/74 22/59/75 42/60/76 41/61/77 21/62/78
f 2/58/79 19/63/80 23/64/81 22/59/82
f 19/63/83 30/65/84 29/66/85 18/67/86 24/68/87 43/69/88 44/70/89 23/64/90
f 18/67/91 8/57/92 21/62/93 24/68/94
f 1/71/95 7/72/96 25/73/97 45/74/98 46/75/99 26/76/100
f 7/72/101 17/77/102 27/78/103 25/73/104
f 17/77/105 31/79/106 32/80/107 20/81/108 28/82/109 48/83/110 47/84/111 27/78/112
f 20/81/113 1/71/114 26/76/115 28/82/116
f 34/85/117 33/86/118 35/87/119 36/88/120
f 37/89/121 38/90/122 39/91/123 40/92/124
f 32/93/125 30/94/126 33/95/127 34/96/128
f 30/65/129 19/63/130 35/97/131 33/98/132
f 19/99/133 20/100/134 36/101/135 35/102/136
f 20/81/137 32/80/138 34/103/139 36/104/140
f 17/105/141 18/106/142 38/107/143 37/108/144
f 18/67/145 29/66/146 39/109/147 38/110/148
f 29/111/149 31/112/150 40/113/151 39/114/152
f 31/79/153 17/77/154 37/115/155 40/116/156
f 43/69/157 41/61/158 42/60/159 44/70/160
f 48/83/161 46/75/162 45/74/163 47/84/164
f 43/117/165 24/118/166 27/119/167 47/120/168
f 24/121/169 21/122/170 25/123/171 27/124/172
f 26/125/173 46/126/174 42/127/175 22/128/176
f 28/129/177 26/130/178 22/131/179 23/132/180
f 48/133/181 44/134/182 42/135/183 46/136/184
f 28/137/185 23/138/186 44/139/187 48/140/188
f 43/141/189 47/142/190 45/143/191 41/144/192
f 41/145/193 45/146/194 25/147/195 21/148/196
