# This file uses centimeters as units for non-parametric coordinates.

v -0.500000 -0.500000 -0.100038
v -0.500000 -0.500000 0.100038
v -0.500000 0.500000 -0.100038
v -0.500000 0.500000 0.100038
v 0.500000 0.500000 -0.100038
v 0.500000 0.500000 0.100038
v 0.500000 -0.500000 -0.100038
v 0.500000 -0.500000 0.100038
v 0.417015 -0.417015 0.100038
v -0.417015 -0.417015 0.100038
v 0.417015 0.417015 0.100038
v -0.417015 0.417015 0.100038
v 0.417015 -0.417015 -0.100038
v -0.417015 -0.417015 -0.100038
v -0.417015 0.417015 -0.100038
v 0.417015 0.417015 -0.100038
v 0.417015 -0.417015 0.057260
v -0.417015 -0.417015 0.057260
v 0.417015 0.417015 0.057260
v -0.417015 0.417015 0.057260
v 0.417015 -0.417015 -0.057260
v -0.417015 -0.417015 -0.057260
v -0.417015 0.417015 -0.057260
v 0.417015 0.417015 -0.057260
v 0.058861 -0.289974 0.057260
v -0.058861 -0.289974 0.057260
v 0.058861 0.289974 0.057260
v -0.058861 0.289974 0.057260
v 0.058861 -0.289974 -0.057260
v -0.058861 -0.289974 -0.057260
v -0.058861 0.289974 -0.057260
v 0.058861 0.289974 -0.057260
vt 0.369044 0.953551
vt 0.369044 0.953551
vt 0.369044 0.953551
vt 0.369044 0.953551
vt 0.865003 0.953551
vt 0.865003 0.953551
vt 0.865003 0.953551
vt 0.865003 0.953551
vt 0.369044 0.953551
vt 0.369044 0.953551
vt 0.369044 0.953551
vt 0.369044 0.953551
vt 0.126308 0.953551
vt 0.126308 0.953551
vt 0.126308 0.953551
vt 0.126308 0.953551
vt 0.865003 0.953551
vt 0.865003 0.953551
vt 0.865003 0.953551
vt 0.865003 0.953551
vt 0.865003 0.953551
vt 0.865003 0.953551
vt 0.865003 0.953551
vt 0.865003 0.953551
vt 0.865003 0.953551
vt 0.865003 0.953551
vt 0.865003 0.953551
vt 0.865003 0.953551
vt 0.865003 0.953551
vt 0.865003 0.953551
vt 0.865003 0.953551
vt 0.865003 0.953551
vt 0.865003 0.953551
vt 0.865003 0.953551
vt 0.865003 0.953551
vt 0.865003 0.953551
vt 0.865003 0.953551
vt 0.865003 0.953551
vt 0.865003 0.953551
vt 0.865003 0.953551
vt 0.865003 0.953551
vt 0.865003 0.953551
vt 0.865003 0.953551
vt 0.865003 0.953551
vt 0.865003 0.953551
vt 0.865003 0.953551
vt 0.865003 0.953551
vt 0.865003 0.953551
vt 0.369044 0.953551
vt 0.369044 0.953551
vt 0.369044 0.953551
vt 0.369044 0.953551
vt 0.126308 0.953551
vt 0.126308 0.953551
vt 0.126308 0.953551
vt 0.126308 0.953551
vt 0.126308 0.953551
vt 0.126308 0.953551
vt 0.126308 0.953551
vt 0.126308 0.953551
vt 0.126308 0.953551
vt 0.126308 0.953551
vt 0.126308 0.953551
vt 0.126308 0.953551
vt 0.369044 0.953551
vt 0.369044 0.953551
vt 0.369044 0.953551
vt 0.369044 0.953551
vt 0.126308 0.953551
vt 0.126308 0.953551
vt 0.126308 0.953551
vt 0.126308 0.953551
vt 0.126308 0.953551
vt 0.126308 0.953551
vt 0.126308 0.953551
vt 0.126308 0.953551
vt 0.126308 0.953551
vt 0.126308 0.953551
vt 0.126308 0.953551
vt 0.126308 0.953551
vt 0.620417 0.953551
vt 0.620417 0.953551
vt 0.620417 0.953551
vt 0.620417 0.953551
vt 0.620417 0.953551
vt 0.620417 0.953551
vt 0.620417 0.953551
vt 0.620417 0.953551
vt 0.620417 0.953551
vt 0.620417 0.953551
vt 0.620417 0.953551
vt 0.620417 0.953551
vt 0.620417 0.953551
vt 0.620417 0.953551
vt 0.620417 0.953551
vt 0.620417 0.953551
vt 0.620417 0.953551
vt 0.620417 0.953551
vt 0.620417 0.953551
vt 0.620417 0.953551
vt 0.620417 0.953551
vt 0.620417 0.953551
vt 0.620417 0.953551
vt 0.620417 0.953551
vt 0.620417 0.953551
vt 0.620417 0.953551
vt 0.620417 0.953551
vt 0.620417 0.953551
vt 0.620417 0.953551
vt 0.620417 0.953551
vt 0.620417 0.953551
vt 0.620417 0.953551
vt 0.126308 0.953551
vt 0.126308 0.953551
vt 0.126308 0.953551
vt 0.126308 0.953551
vt 0.126308 0.953551
vt 0.126308 0.953551
vt 0.126308 0.953551
vt 0.126308 0.953551
vt 0.126308 0.953551
vt 0.126308 0.953551
vt 0.126308 0.953551
vt 0.126308 0.953551
vt 0.126308 0.953551
vt 0.126308 0.953551
vt 0.126308 0.953551
vt 0.126308 0.953551
vn -1.000000 0.000000 0.000000
vn -1.000000 0.000000 0.000000
vn -1.000000 0.000000 0.000000
vn -1.000000 0.000000 0.000000
vn 0.000000 1.000000 0.000000
vn 0.000000 1.000000 0.000000
vn 0.000000 1.000000 0.000000
vn 0.000000 1.000000 0.000000
vn 1.000000 0.000000 -0.000000
vn 1.000000 0.000000 -0.000000
vn 1.000000 0.000000 -0.000000
vn 1.000000 0.000000 -0.000000
vn 0.000000 -1.000000 0.000000
vn 0.000000 -1.000000 0.000000
vn 0.000000 -1.000000 0.000000
vn 0.000000 -1.000000 0.000000
vn -0.000000 -0.000000 1.000000
vn -0.000000 -0.000000 1.000000
vn -0.000000 -0.000000 1.000000
vn -0.000000 -0.000000 1.000000
vn 0.000000 0.000000 1.000000
vn 0.000000 0.000000 1.000000
vn 0.000000 0.000000 1.000000
vn 0.000000 0.000000 1.000000
vn -0.000000 0.000000 1.000000
vn -0.000000 0.000000 1.000000
vn -0.000000 0.000000 1.000000
vn -0.000000 0.000000 1.000000
vn -0.000000 0.000000 1.000000
vn -0.000000 0.000000 1.000000
vn -0.000000 0.000000 1.000000
vn -0.000000 0.000000 1.000000
vn -0.000000 0.000000 -1.000000
vn -0.000000 0.000000 -1.000000
vn -0.000000 0.000000 -1.000000
vn -0.000000 0.000000 -1.000000
vn 0.000000 0.000000 -1.000000
vn 0.000000 0.000000 -1.000000
vn 0.000000 0.000000 -1.000000
vn 0.000000 0.000000 -1.000000
vn -0.000000 0.000000 -1.000000
vn -0.000000 0.000000 -1.000000
vn -0.000000 0.000000 -1.000000
vn -0.000000 0.000000 -1.000000
vn 0.000000 0.000000 -1.000000
vn 0.000000 0.000000 -1.000000
vn 0.000000 0.000000 -1.000000
vn 0.000000 0.000000 -1.000000
vn 0.000000 1.000000 -0.000000
vn 0.000000 1.000000 -0.000000
vn 0.000000 1.000000 -0.000000
vn 0.000000 1.000000 -0.000000
vn -1.000000 0.000000 0.000000
vn -1.000000 0.000000 0.000000
vn -1.000000 0.000000 0.000000
vn -1.000000 0.000000 0.000000
vn 0.000000 -1.000000 0.000000
vn 0.000000 -1.000000 0.000000
vn 0.000000 -1.000000 0.000000
vn 0.000000 -1.000000 0.000000
vn 1.000000 0.000000 0.000001
vn 1.000000 0.000000 0.000001
vn 1.000000 0.000000 0.000001
vn 1.000000 0.000000 0.000001
vn 0.000000 1.000000 -0.000000
vn 0.000000 1.000000 -0.000000
vn 0.000000 1.000000 -0.000000
vn 0.000000 1.000000 -0.000000
vn 1.000000 0.000000 0.000000
vn 1.000000 0.000000 0.000000
vn 1.000000 0.000000 0.000000
vn 1.000000 0.000000 0.000000
vn 0.000000 -1.000000 0.000000
vn 0.000000 -1.000000 0.000000
vn 0.000000 -1.000000 0.000000
vn 0.000000 -1.000000 0.000000
vn -1.000000 0.000000 0.000001
vn -1.000000 0.000000 0.000001
vn -1.000000 0.000000 0.000001
vn -1.000000 0.000000 0.000001
vn 0.000000 0.000000 1.000000
vn 0.000000 0.000000 1.000000
vn 0.000000 0.000000 1.000000
vn 0.000000 0.000000 1.000000
vn -0.000000 0.000000 1.000000
vn -0.000000 0.000000 1.000000
vn -0.000000 0.000000 1.000000
vn -0.000000 0.000000 1.000000
vn 0.000000 -0.000000 1.000000
vn 0.000000 -0.000000 1.000000
vn 0.000000 -0.000000 1.000000
vn 0.000000 -0.000000 1.000000
vn -0.000000 0.000000 1.000000
vn -0.000000 0.000000 1.000000
vn -0.000000 0.000000 1.000000
vn -0.000000 0.000000 1.000000
vn -0.000000 0.000000 -1.000000
vn -0.000000 0.000000 -1.000000
vn -0.000000 0.000000 -1.000000
vn -0.000000 0.000000 -1.000000
vn 0.000000 0.000000 -1.000000
vn 0.000000 0.000000 -1.000000
vn 0.000000 0.000000 -1.000000
vn 0.000000 0.000000 -1.000000
vn -0.000000 -0.000000 -1.000000
vn -0.000000 -0.000000 -1.000000
vn -0.000000 -0.000000 -1.000000
vn -0.000000 -0.000000 -1.000000
vn -0.000000 0.000000 -1.000000
vn -0.000000 0.000000 -1.000000
vn -0.000000 0.000000 -1.000000
vn -0.000000 0.000000 -1.000000
vn 0.000000 1.000000 -0.000000
vn 0.000000 1.000000 -0.000000
vn 0.000000 1.000000 -0.000000
vn 0.000000 1.000000 -0.000000
vn -1.000000 0.000000 0.000000
vn -1.000000 0.000000 0.000000
vn -1.000000 0.000000 0.000000
vn -1.000000 0.000000 0.000000
vn 0.000000 -1.000000 -0.000000
vn 0.000000 -1.000000 -0.000000
vn 0.000000 -1.000000 -0.000000
vn 0.000000 -1.000000 -0.000000
vn 1.000000 0.000000 -0.000000
vn 1.000000 0.000000 -0.000000
vn 1.000000 0.000000 -0.000000
vn 1.000000 0.000000 -0.000000
s off
f 1/1/1 2/2/2 4/3/3 3/4/4
f 3/5/5 4/6/6 6/7/7 5/8/8
f 5/9/9 6/10/10 8/11/11 7/12/12
f 7/13/13 8/14/14 2/15/15 1/16/16
f 2/17/17 8/18/18 9/19/19 10/20/20
f 8/21/21 6/22/22 11/23/23 9/24/24
f 6/25/25 4/26/26 12/27/27 11/28/28
f 4/29/29 2/30/30 10/31/31 12/32/32
f 7/33/33 1/34/34 14/35/35 13/36/36
f 1/37/37 3/38/38 15/39/39 14/40/40
f 3/41/41 5/42/42 16/43/43 15/44/44
f 5/45/45 7/46/46 13/47/47 16/48/48
f 10/49/49 9/50/50 17/51/51 18/52/52
f 9/53/53 11/54/54 19/55/55 17/56/56
f 11/57/57 12/58/58 20/59/59 19/60/60
f 12/61/61 10/62/62 18/63/63 20/64/64
f 13/65/65 14/66/66 22/67/67 21/68/68
f 14/69/69 15/70/70 23/71/71 22/72/72
f 15/73/73 16/74/74 24/75/75 23/76/76
f 16/77/77 13/78/78 21/79/79 24/80/80
f 18/81/81 17/82/82 25/83/83 26/84/84
f 17/85/85 19/86/86 27/87/87 25/88/88
f 19/89/89 20/90/90 28/91/91 27/92/92
f 20/93/93 18/94/94 26/95/95 28/96/96
f 21/97/97 22/98/98 30/99/99 29/100/100
f 22/101/101 23/102/102 31/103/103 30/104/104
f 23/105/105 24/106/106 32/107/107 31/108/108
f 24/109/109 21/110/110 29/111/111 32/112/112
f 26/113/113 25/114/114 29/115/115 30/116/116
f 25/117/117 27/118/118 32/119/119 29/120/120
f 27/121/121 28/122/122 31/123/123 32/124/124
f 28/125/125 26/126/126 30/127/127 31/128/128
