# This file uses centimeters as units for non-parametric coordinates.

v -0.500000 -0.500000 -0.100038
v -0.500000 -0.500000 0.100038
v -0.500000 0.500000 -0.100038
v -0.500000 0.500000 0.100038
v 0.500000 0.500000 -0.100038
v 0.500000 0.500000 0.100038
v 0.500000 -0.500000 -0.100038
v 0.500000 -0.500000 0.100038
v 0.192062 -0.500000 0.100038
v 0.036892 -0.500000 0.100038
v 0.036892 -0.111952 0.100038
v -0.096713 -0.111952 0.100038
v -0.096713 0.036342 0.100038
v 0.036892 0.036342 0.100038
v 0.036892 0.233165 0.100038
v 0.151871 0.346117 0.100038
v 0.346456 0.344290 0.100038
v 0.346456 0.205610 0.100038
v 0.228565 0.205610 0.100038
v 0.192062 0.166609 0.100038
v 0.192062 0.036342 0.100038
v 0.341438 0.036342 0.100038
v 0.322402 -0.111952 0.100038
v 0.192062 -0.111952 0.100038
v 0.192062 -0.111952 -0.100038
v 0.192062 -0.500000 -0.100038
v 0.322402 -0.111952 -0.100038
v 0.341438 0.036342 -0.100038
v 0.192062 0.036342 -0.100038
v 0.192062 0.166609 -0.100038
v 0.228565 0.205610 -0.100038
v 0.346456 0.205610 -0.100038
v 0.346456 0.344290 -0.100038
v 0.151871 0.346117 -0.100038
v 0.036892 0.233165 -0.100038
v 0.036892 0.036342 -0.100038
v -0.096713 0.036342 -0.100038
v -0.096713 -0.111952 -0.100038
v 0.036892 -0.111952 -0.100038
v 0.036892 -0.500000 -0.100038
vt 0.378420 0.953553
vt 0.378420 0.953553
vt 0.378420 0.953553
vt 0.378420 0.953553
vt 0.879200 0.953550
vt 0.879200 0.953550
vt 0.879200 0.953550
vt 0.879200 0.953550
vt 0.378420 0.953553
vt 0.378420 0.953553
vt 0.378420 0.953553
vt 0.378420 0.953553
vt 0.589658 0.953549
vt 0.589658 0.953549
vt 0.589658 0.953549
vt 0.589658 0.953549
vt 0.589658 0.953549
vt 0.589658 0.953549
vt 0.589658 0.953549
vt 0.589658 0.953549
vt 0.589658 0.953549
vt 0.589658 0.953549
vt 0.589658 0.953549
vt 0.589658 0.953549
vt 0.589658 0.953549
vt 0.589658 0.953549
vt 0.589658 0.953549
vt 0.589658 0.953549
vt 0.589658 0.953549
vt 0.589658 0.953549
vt 0.589658 0.953549
vt 0.589658 0.953549
vt 0.378420 0.953553
vt 0.378420 0.953553
vt 0.378420 0.953553
vt 0.378420 0.953553
vt 0.879200 0.953550
vt 0.879200 0.953550
vt 0.879200 0.953550
vt 0.879200 0.953550
vt 0.378420 0.953553
vt 0.378420 0.953553
vt 0.378420 0.953553
vt 0.378420 0.953553
vt 0.378420 0.953553
vt 0.378420 0.953553
vt 0.879200 0.953550
vt 0.879200 0.953550
vt 0.879200 0.953550
vt 0.879200 0.953550
vt 0.879200 0.953550
vt 0.879200 0.953550
vt 0.879200 0.953550
vt 0.879200 0.953550
vt 0.378420 0.953553
vt 0.378420 0.953553
vt 0.378420 0.953553
vt 0.378420 0.953553
vt 0.123477 0.953549
vt 0.123477 0.953549
vt 0.378420 0.953553
vt 0.378420 0.953553
vt 0.378420 0.953553
vt 0.378420 0.953553
vt 0.378420 0.953553
vt 0.378420 0.953553
vt 0.378420 0.953553
vt 0.378420 0.953553
vt 0.879200 0.953550
vt 0.879200 0.953550
vt 0.378420 0.953553
vt 0.378420 0.953553
vt 0.378420 0.953553
vt 0.378420 0.953553
vt 0.378420 0.953553
vt 0.378420 0.953553
vt 0.123477 0.953549
vt 0.123477 0.953549
vt 0.123477 0.953549
vt 0.123477 0.953549
vt 0.123477 0.953549
vt 0.123477 0.953549
vt 0.123477 0.953549
vt 0.123477 0.953549
vt 0.589658 0.953549
vt 0.589658 0.953549
vt 0.589658 0.953549
vt 0.589658 0.953549
vt 0.589658 0.953549
vt 0.589658 0.953549
vt 0.589658 0.953549
vt 0.589658 0.953549
vt 0.589658 0.953549
vt 0.589658 0.953549
vt 0.589658 0.953549
vt 0.589658 0.953549
vt 0.589658 0.953549
vt 0.589658 0.953549
vt 0.589658 0.953549
vt 0.589658 0.953549
vt 0.589658 0.953549
vt 0.589658 0.953549
vt 0.589658 0.953549
vt 0.589658 0.953549
vt 0.123477 0.953549
vt 0.123477 0.953549
vt 0.123477 0.953549
vt 0.123477 0.953549
vt 0.123477 0.953549
vt 0.123477 0.953549
vt 0.123477 0.953549
vt 0.123477 0.953549
vt 0.123477 0.953549
vt 0.123477 0.953549
vt 0.123477 0.953549
vt 0.123477 0.953549
vn -1.000000 0.000000 0.000000
vn -1.000000 0.000000 0.000000
vn -1.000000 0.000000 0.000000
vn -1.000000 0.000000 0.000000
vn 0.000000 1.000000 0.000000
vn 0.000000 1.000000 0.000000
vn 0.000000 1.000000 0.000000
vn 0.000000 1.000000 0.000000
vn 1.000000 0.000000 -0.000000
vn 1.000000 0.000000 -0.000000
vn 1.000000 0.000000 -0.000000
vn 1.000000 0.000000 -0.000000
vn -0.000000 -0.000000 1.000000
vn -0.000000 -0.000000 1.000000
vn -0.000000 -0.000000 1.000000
vn -0.000000 -0.000000 1.000000
vn -0.000000 -0.000000 1.000000
vn -0.000000 -0.000000 1.000000
vn -0.000000 -0.000000 1.000000
vn -0.000000 -0.000000 1.000000
vn -0.000000 -0.000000 1.000000
vn -0.000000 -0.000000 1.000000
vn -0.000000 -0.000000 1.000000
vn -0.000000 -0.000000 1.000000
vn -0.000000 -0.000000 1.000000
vn -0.000000 -0.000000 1.000000
vn -0.000000 -0.000000 1.000000
vn -0.000000 -0.000000 1.000000
vn -0.000000 -0.000000 1.000000
vn -0.000000 -0.000000 1.000000
vn -0.000000 -0.000000 1.000000
vn -0.000000 -0.000000 1.000000
vn -1.000000 0.000000 0.000000
vn -1.000000 0.000000 0.000000
vn -1.000000 0.000000 0.000000
vn -1.000000 0.000000 0.000000
vn 0.000000 1.000000 0.000000
vn 0.000000 1.000000 0.000000
vn 0.000000 1.000000 0.000000
vn 0.000000 1.000000 0.000000
vn -0.991862 0.127321 0.000000
vn -0.991862 0.127321 0.000000
vn -0.991862 0.127321 0.000000
vn -0.991862 0.127321 0.000000
vn 0.000000 -1.000000 0.000000
vn 0.000000 -1.000000 0.000000
vn 0.000000 -1.000000 0.000000
vn 0.000000 -1.000000 0.000000
vn -1.000000 0.000000 0.000000
vn -1.000000 0.000000 0.000000
vn -1.000000 0.000000 0.000000
vn -1.000000 0.000000 0.000000
vn -0.730105 0.683335 0.000000
vn -0.730105 0.683335 0.000000
vn -0.730105 0.683335 0.000000
vn -0.730105 0.683335 0.000000
vn 0.000000 1.000000 0.000000
vn 0.000000 1.000000 0.000000
vn 0.000000 1.000000 0.000000
vn 0.000000 1.000000 0.000000
vn -1.000000 0.000000 0.000000
vn -1.000000 0.000000 0.000000
vn -1.000000 0.000000 0.000000
vn -1.000000 0.000000 0.000000
vn -0.009389 -0.999956 0.000000
vn -0.009389 -0.999956 0.000000
vn -0.009389 -0.999956 0.000000
vn -0.009389 -0.999956 0.000000
vn 0.700792 -0.713366 0.000000
vn 0.700792 -0.713366 0.000000
vn 0.700792 -0.713366 0.000000
vn 0.700792 -0.713366 0.000000
vn 1.000000 0.000000 0.000000
vn 1.000000 0.000000 0.000000
vn 1.000000 0.000000 0.000000
vn 1.000000 0.000000 0.000000
vn 0.000000 -1.000000 0.000000
vn 0.000000 -1.000000 0.000000
vn 0.000000 -1.000000 0.000000
vn 0.000000 -1.000000 0.000000
vn 1.000000 0.000000 -0.000000
vn 1.000000 0.000000 -0.000000
vn 1.000000 0.000000 -0.000000
vn 1.000000 0.000000 -0.000000
vn 0.000000 1.000000 0.000000
vn 0.000000 1.000000 0.000000
vn 0.000000 1.000000 0.000000
vn 0.000000 1.000000 0.000000
vn 1.000000 0.000000 0.000000
vn 1.000000 0.000000 0.000000
vn 1.000000 0.000000 0.000000
vn 1.000000 0.000000 0.000000
vn 0.000000 -1.000000 0.000000
vn 0.000000 -1.000000 0.000000
vn 0.000000 -1.000000 0.000000
vn 0.000000 -1.000000 0.000000
vn 0.000000 -1.000000 0.000000
vn 0.000000 -1.000000 0.000000
vn 0.000000 -1.000000 0.000000
vn 0.000000 -1.000000 0.000000
vn -0.000000 0.000000 -1.000000
vn -0.000000 0.000000 -1.000000
vn -0.000000 0.000000 -1.000000
vn -0.000000 0.000000 -1.000000
vn -0.000000 0.000000 -1.000000
vn -0.000000 0.000000 -1.000000
vn -0.000000 0.000000 -1.000000
vn -0.000000 0.000000 -1.000000
vn -0.000000 0.000000 -1.000000
vn -0.000000 0.000000 -1.000000
vn -0.000000 0.000000 -1.000000
vn -0.000000 0.000000 -1.000000
vn -0.000000 0.000000 -1.000000
vn -0.000000 0.000000 -1.000000
vn -0.000000 0.000000 -1.000000
vn -0.000000 0.000000 -1.000000
vn -0.000000 0.000000 -1.000000
vn -0.000000 0.000000 -1.000000
vn -0.000000 0.000000 -1.000000
vn -0.000000 0.000000 -1.000000
s off
f 1/1/1 2/2/2 4/3/3 3/4/4
f 3/5/5 4/6/6 6/7/7 5/8/8
f 5/9/9 6/10/10 8/11/11 7/12/12
f 2/13/13 10/14/14 11/15/15 12/16/16 13/17/17 14/18/18 15/19/19 16/20/20 17/21/21 18/22/22 19/23/23 20/24/24 21/25/25 22/26/26 23/27/27 24/28/28 9/29/29 8/30/30 6/31/31 4/32/32
f 9/33/33 24/34/34 25/35/35 26/36/36
f 24/37/37 23/38/38 27/39/39 25/40/40
f 23/41/41 22/42/42 28/43/43 27/44/44
f 22/59/45 21/60/46 29/77/47 28/78/48
f 21/45/49 20/46/50 30/55/51 29/56/52
f 20/47/53 19/48/54 31/49/55 30/50/56
f 19/48/57 18/51/58 32/52/59 31/49/60
f 18/57/61 17/58/62 33/61/63 32/62/64
f 17/79/65 16/80/66 34/81/67 33/82/68
f 16/80/69 15/83/70 35/84/71 34/81/72
f 15/63/73 14/64/74 36/65/75 35/66/76
f 14/105/77 13/106/78 37/107/79 36/108/80
f 13/67/81 12/68/82 38/73/83 37/74/84
f 12/53/85 11/54/86 39/69/87 38/70/88
f 11/75/89 10/76/90 40/72/91 39/71/92
f 9/109/93 26/110/94 7/111/95 8/112/96
f 40/113/97 10/114/98 2/115/99 1/116/100
f 3/85/101 5/86/102 7/87/103 26/88/104 25/89/105 27/90/106 28/91/107 29/92/108 30/93/109 31/94/110 32/95/111 33/96/112 34/97/113 35/98/114 36/99/115 37/100/116 38/101/117 39/102/118 40/103/119 1/104/120
