# This file uses centimeters as units for non-parametric coordinates.

v -0.309193 -0.624962 -0.100038
v -0.309193 -0.624962 0.100038
v -0.309193 0.536511 -0.100038
v -0.309193 0.536511 0.100038
v 0.309193 0.536511 -0.100038
v 0.309193 0.536511 0.100038
v 0.309193 -0.624962 -0.100038
v 0.309193 -0.624962 0.100038
v -0.309193 0.119940 -0.100038
v -0.309193 0.119940 0.100038
v 0.309193 0.119940 0.100038
v 0.309193 0.119940 -0.100038
v -0.104076 -0.239939 -0.100038
v -0.104076 -0.239939 0.100038
v 0.104076 -0.239939 0.100038
v 0.104076 -0.239939 -0.100038
v -0.104076 -0.426924 -0.100038
v -0.104076 -0.426924 0.100038
v 0.104076 -0.426924 0.100038
v 0.104076 -0.426924 -0.100038
v -0.309193 -0.524996 -0.100038
v -0.309193 -0.524996 0.100038
v 0.309193 -0.524996 0.100038
v 0.309193 -0.524996 -0.100038
v 0.104076 -0.390257 -0.100038
v 0.104076 -0.390257 0.100038
v -0.104076 -0.390257 0.100038
v -0.104076 -0.390257 -0.100038
v 0.104076 -0.283202 -0.100038
v 0.104076 -0.283202 0.100038
v -0.104076 -0.283202 0.100038
v -0.104076 -0.283202 -0.100038
v 0.143620 -0.283202 -0.100038
v 0.143620 -0.283202 0.100038
v 0.143620 -0.390257 0.100038
v 0.143620 -0.390257 -0.100038
v -0.143620 -0.390257 0.100038
v -0.143620 -0.390257 -0.100038
v -0.143620 -0.283202 0.100038
v -0.143620 -0.283202 -0.100038
v -0.444778 0.040736 -0.053746
v -0.444778 0.040736 0.053746
v -0.444778 0.624962 -0.053746
v -0.444778 0.624962 0.053746
v 0.444778 0.624962 -0.053746
v 0.444778 0.624962 0.053746
v 0.444778 0.040736 -0.053746
v 0.444778 0.040736 0.053746
v 0.385563 0.096500 0.053746
v -0.385563 0.096500 0.053746
v 0.385563 0.569198 0.053746
v -0.385563 0.569198 0.053746
v 0.385563 0.096500 -0.053746
v -0.385563 0.096500 -0.053746
v -0.385563 0.569198 -0.053746
v 0.385563 0.569198 -0.053746
v -0.230839 0.624962 -0.053746
v -0.230839 0.624962 0.053746
v -0.285400 0.569198 0.053746
v -0.285400 0.569198 -0.053746
v 0.285400 0.569198 0.053746
v 0.230839 0.624962 0.053746
v 0.230839 0.624962 -0.053746
v 0.285400 0.569198 -0.053746
v -0.230839 0.530039 0.053746
v -0.285400 0.530039 0.053746
v -0.285400 0.530039 -0.053746
v -0.230839 0.530039 -0.053746
v 0.230839 0.530039 0.053746
v 0.230839 0.530039 -0.053746
v 0.285400 0.530039 -0.053746
v 0.285400 0.530039 0.053746
v 0.000000 -0.257576 0.053746
v 0.000000 -0.201813 0.053746
v 0.000000 -0.201813 -0.053746
v 0.000000 -0.257576 -0.053746
vt 0.369044 0.953551
vt 0.369044 0.953551
vt 0.369044 0.953551
vt 0.369044 0.953551
vt 0.865003 0.953551
vt 0.865003 0.953551
vt 0.865003 0.953551
vt 0.865003 0.953551
vt 0.369044 0.953551
vt 0.369044 0.953551
vt 0.369044 0.953551
vt 0.369044 0.953551
vt 0.126308 0.953551
vt 0.126308 0.953551
vt 0.126308 0.953551
vt 0.126308 0.953551
vt 0.620417 0.953551
vt 0.620417 0.953551
vt 0.620417 0.953551
vt 0.620417 0.953551
vt 0.620417 0.953551
vt 0.620417 0.953551
vt 0.620417 0.953551
vt 0.620417 0.953551
vt 0.369044 0.953551
vt 0.369044 0.953551
vt 0.620417 0.953551
vt 0.620417 0.953551
vt 0.369044 0.953551
vt 0.369044 0.953551
vt 0.620417 0.953551
vt 0.620417 0.953551
vt 0.369044 0.953551
vt 0.369044 0.953551
vt 0.369044 0.953551
vt 0.369044 0.953551
vt 0.620417 0.953551
vt 0.620417 0.953551
vt 0.620417 0.953551
vt 0.620417 0.953551
vt 0.369044 0.953551
vt 0.369044 0.953551
vt 0.369044 0.953551
vt 0.369044 0.953551
vt 0.620417 0.953551
vt 0.620417 0.953551
vt 0.620417 0.953551
vt 0.620417 0.953551
vt 0.369044 0.953551
vt 0.369044 0.953551
vt 0.620417 0.953551
vt 0.620417 0.953551
vt 0.369044 0.953551
vt 0.369044 0.953551
vt 0.620417 0.953551
vt 0.620417 0.953551
vt 0.369044 0.953551
vt 0.369044 0.953551
vt 0.620417 0.953551
vt 0.620417 0.953551
vt 0.369044 0.953551
vt 0.369044 0.953551
vt 0.620417 0.953551
vt 0.620417 0.953551
vt 0.369044 0.953551
vt 0.369044 0.953551
vt 0.369044 0.953551
vt 0.369044 0.953551
vt 0.620417 0.953551
vt 0.620417 0.953551
vt 0.369044 0.953551
vt 0.369044 0.953551
vt 0.369044 0.953551
vt 0.369044 0.953551
vt 0.620417 0.953551
vt 0.620417 0.953551
vt 0.369044 0.953551
vt 0.369044 0.953551
vt 0.369044 0.953551
vt 0.369044 0.953551
vt 0.865003 0.953551
vt 0.865003 0.953551
vt 0.865003 0.953551
vt 0.865003 0.953551
vt 0.620417 0.953551
vt 0.620417 0.953551
vt 0.620417 0.953551
vt 0.620417 0.953551
vt 0.126308 0.953551
vt 0.126308 0.953551
vt 0.126308 0.953551
vt 0.126308 0.953551
vt 0.620417 0.953551
vt 0.620417 0.953551
vt 0.620417 0.953551
vt 0.620417 0.953551
vt 0.126308 0.953551
vt 0.126308 0.953551
vt 0.126308 0.953551
vt 0.126308 0.953551
vt 0.620417 0.953551
vt 0.620417 0.953551
vt 0.620417 0.953551
vt 0.620417 0.953551
vt 0.865003 0.953551
vt 0.865003 0.953551
vt 0.865003 0.953551
vt 0.865003 0.953551
vt 0.620417 0.953551
vt 0.620417 0.953551
vt 0.620417 0.953551
vt 0.620417 0.953551
vt 0.369044 0.953551
vt 0.369044 0.953551
vt 0.369044 0.953551
vt 0.369044 0.953551
vt 0.369044 0.953551
vt 0.369044 0.953551
vt 0.369044 0.953551
vt 0.369044 0.953551
vt 0.126308 0.953551
vt 0.126308 0.953551
vt 0.126308 0.953551
vt 0.126308 0.953551
vt 0.620417 0.953551
vt 0.620417 0.953551
vt 0.620417 0.953551
vt 0.620417 0.953551
vt 0.620417 0.953551
vt 0.620417 0.953551
vt 0.620417 0.953551
vt 0.620417 0.953551
vt 0.620417 0.953551
vt 0.620417 0.953551
vt 0.620417 0.953551
vt 0.620417 0.953551
vt 0.620417 0.953551
vt 0.620417 0.953551
vt 0.620417 0.953551
vt 0.620417 0.953551
vt 0.620417 0.953551
vt 0.620417 0.953551
vt 0.620417 0.953551
vt 0.620417 0.953551
vt 0.369044 0.953551
vt 0.369044 0.953551
vt 0.369044 0.953551
vt 0.369044 0.953551
vt 0.126308 0.953551
vt 0.126308 0.953551
vt 0.126308 0.953551
vt 0.126308 0.953551
vt 0.126308 0.953551
vt 0.126308 0.953551
vt 0.126308 0.953551
vt 0.126308 0.953551
vt 0.865003 0.953551
vt 0.865003 0.953551
vt 0.865003 0.953551
vt 0.865003 0.953551
vt 0.620417 0.953551
vt 0.620417 0.953551
vt 0.126308 0.953551
vt 0.126308 0.953551
vt 0.126308 0.953551
vt 0.126308 0.953551
vt 0.620417 0.953551
vt 0.620417 0.953551
vt 0.620417 0.953551
vt 0.620417 0.953551
vt 0.865003 0.953551
vt 0.865003 0.953551
vt 0.865003 0.953551
vt 0.865003 0.953551
vt 0.620417 0.953551
vt 0.620417 0.953551
vt 0.126308 0.953551
vt 0.126308 0.953551
vt 0.126308 0.953551
vt 0.126308 0.953551
vt 0.620417 0.953551
vt 0.620417 0.953551
vt 0.620417 0.953551
vt 0.620417 0.953551
vt 0.126308 0.953551
vt 0.126308 0.953551
vt 0.126308 0.953551
vt 0.126308 0.953551
vt 0.620417 0.953551
vt 0.620417 0.953551
vt 0.620417 0.953551
vt 0.620417 0.953551
vt 0.369044 0.953551
vt 0.369044 0.953551
vt 0.369044 0.953551
vt 0.369044 0.953551
vt 0.369044 0.953551
vt 0.369044 0.953551
vt 0.369044 0.953551
vt 0.369044 0.953551
vt 0.620417 0.953551
vt 0.620417 0.953551
vt 0.620417 0.953551
vt 0.620417 0.953551
vt 0.126308 0.953551
vt 0.126308 0.953551
vt 0.126308 0.953551
vt 0.126308 0.953551
vt 0.620417 0.953551
vt 0.620417 0.953551
vt 0.620417 0.953551
vt 0.620417 0.953551
vt 0.369044 0.953551
vt 0.369044 0.953551
vt 0.126308 0.953551
vt 0.126308 0.953551
vn -0.966833 -0.255410 0.000000
vn -0.966833 -0.255410 0.000000
vn -1.000000 0.000000 0.000000
vn -1.000000 0.000000 0.000000
vn 0.000000 1.000000 0.000000
vn 0.000000 1.000000 0.000000
vn 0.000000 1.000000 0.000000
vn 0.000000 1.000000 0.000000
vn 1.000000 0.000000 0.000000
vn 1.000000 0.000000 0.000000
vn 0.966833 -0.255410 0.000000
vn 0.966833 -0.255410 0.000000
vn 0.000000 -1.000000 0.000000
vn 0.000000 -1.000000 0.000000
vn 0.000000 -1.000000 0.000000
vn 0.000000 -1.000000 0.000000
vn 0.000000 -0.000000 1.000000
vn 0.000000 -0.000000 1.000000
vn 0.000000 0.000000 1.000000
vn 0.000000 0.000000 1.000000
vn 0.000000 0.000000 -1.000000
vn 0.000000 0.000000 -1.000000
vn 0.000000 0.000000 -1.000000
vn 0.000000 0.000000 -1.000000
vn -0.891270 -0.453473 0.000000
vn -0.891270 -0.453473 0.000000
vn -0.966833 -0.255410 0.000000
vn -0.966833 -0.255410 0.000000
vn 0.000000 -0.000000 1.000000
vn 0.000000 -0.000000 1.000000
vn 0.000000 -0.000000 1.000000
vn 0.000000 -0.000000 1.000000
vn 0.966833 -0.255410 0.000000
vn 0.966833 -0.255410 0.000000
vn 0.891270 -0.453473 0.000000
vn 0.891270 -0.453473 0.000000
vn 0.000000 0.000000 -1.000000
vn 0.000000 0.000000 -1.000000
vn 0.000000 0.000000 -1.000000
vn 0.000000 0.000000 -1.000000
vn -0.549029 0.835804 0.000000
vn -0.549029 0.835804 0.000000
vn -1.000000 0.000000 0.000000
vn -1.000000 0.000000 0.000000
vn 0.000000 0.000000 1.000000
vn 0.000000 0.000000 1.000000
vn 0.000000 0.000000 1.000000
vn 0.000000 0.000000 1.000000
vn 1.000000 0.000000 0.000000
vn 1.000000 0.000000 0.000000
vn 0.549029 0.835804 0.000000
vn 0.549029 0.835804 0.000000
vn -0.000000 0.000000 -1.000000
vn -0.000000 0.000000 -1.000000
vn -0.000000 0.000000 -1.000000
vn -0.000000 0.000000 -1.000000
vn -0.694584 0.719411 0.000000
vn -0.694584 0.719411 0.000000
vn -0.549029 0.835804 0.000000
vn -0.549029 0.835804 0.000000
vn 0.000000 0.000000 1.000000
vn 0.000000 0.000000 1.000000
vn 0.000000 0.000000 1.000000
vn 0.000000 0.000000 1.000000
vn 0.549029 0.835804 0.000000
vn 0.549029 0.835804 0.000000
vn 0.694584 0.719411 0.000000
vn 0.694584 0.719411 0.000000
vn 0.000000 0.000000 -1.000000
vn 0.000000 0.000000 -1.000000
vn -0.000000 0.000000 -1.000000
vn -0.000000 0.000000 -1.000000
vn -1.000000 0.000000 0.000000
vn -1.000000 0.000000 0.000000
vn -0.694584 0.719411 0.000000
vn -0.694584 0.719411 0.000000
vn 0.000000 0.000000 1.000000
vn 0.000000 0.000000 1.000000
vn 0.000000 0.000000 1.000000
vn 0.000000 0.000000 1.000000
vn 0.694584 0.719411 0.000000
vn 0.694584 0.719411 0.000000
vn 1.000000 0.000000 0.000000
vn 1.000000 0.000000 0.000000
vn 0.000000 0.000000 -1.000000
vn 0.000000 0.000000 -1.000000
vn 0.000000 0.000000 -1.000000
vn 0.000000 0.000000 -1.000000
vn 1.000000 0.000000 0.000000
vn 1.000000 0.000000 0.000000
vn 1.000000 0.000000 0.000000
vn 1.000000 0.000000 0.000000
vn 0.000000 0.000000 1.000000
vn 0.000000 0.000000 1.000000
vn 0.000000 0.000000 1.000000
vn 0.000000 0.000000 1.000000
vn -1.000000 0.000000 0.000000
vn -1.000000 0.000000 0.000000
vn -1.000000 0.000000 0.000000
vn -1.000000 0.000000 0.000000
vn -0.000000 0.000000 -1.000000
vn -0.000000 0.000000 -1.000000
vn -0.000000 0.000000 -1.000000
vn -0.000000 0.000000 -1.000000
vn 0.891270 -0.453473 0.000000
vn 0.891270 -0.453473 0.000000
vn 1.000000 0.000000 0.000000
vn 1.000000 0.000000 0.000000
vn 0.000000 0.000000 1.000000
vn 0.000000 0.000000 1.000000
vn 0.000000 -0.000000 1.000000
vn 0.000000 -0.000000 1.000000
vn -1.000000 0.000000 0.000000
vn -1.000000 0.000000 0.000000
vn -0.891270 -0.453473 0.000000
vn -0.891270 -0.453473 0.000000
vn -0.000000 0.000000 -1.000000
vn -0.000000 0.000000 -1.000000
vn 0.000000 0.000000 -1.000000
vn 0.000000 0.000000 -1.000000
vn 0.000000 1.000000 0.000000
vn 0.000000 1.000000 0.000000
vn 0.000000 1.000000 0.000000
vn 0.000000 1.000000 0.000000
vn -0.000000 0.000000 1.000000
vn -0.000000 0.000000 1.000000
vn -0.000000 0.000000 1.000000
vn -0.000000 0.000000 1.000000
vn 0.000000 -1.000000 0.000000
vn 0.000000 -1.000000 0.000000
vn 0.000000 -1.000000 0.000000
vn 0.000000 -1.000000 0.000000
vn 0.000000 0.000000 -1.000000
vn 0.000000 0.000000 -1.000000
vn 0.000000 0.000000 -1.000000
vn 0.000000 0.000000 -1.000000
vn 0.000000 -1.000000 0.000000
vn 0.000000 -1.000000 0.000000
vn 0.000000 -1.000000 0.000000
vn 0.000000 -1.000000 0.000000
vn -0.000000 0.000000 1.000000
vn -0.000000 0.000000 1.000000
vn -0.000000 0.000000 1.000000
vn -0.000000 0.000000 1.000000
vn 0.000000 1.000000 0.000000
vn 0.000000 1.000000 0.000000
vn 0.000000 1.000000 0.000000
vn 0.000000 1.000000 0.000000
vn 0.000000 0.000000 -1.000000
vn 0.000000 0.000000 -1.000000
vn 0.000000 0.000000 -1.000000
vn 0.000000 0.000000 -1.000000
vn -1.000000 0.000000 0.000000
vn -1.000000 0.000000 0.000000
vn -1.000000 0.000000 0.000000
vn -1.000000 0.000000 0.000000
vn 1.000000 0.000000 0.000000
vn 1.000000 0.000000 0.000000
vn 1.000000 0.000000 0.000000
vn 1.000000 0.000000 0.000000
vn 0.000000 -1.000000 0.000000
vn 0.000000 -1.000000 0.000000
vn -0.557017 -0.830501 0.000000
vn -0.557017 -0.830501 0.000000
vn 0.000000 -0.000000 1.000000
vn 0.000000 -0.000000 1.000000
vn 0.000000 -0.000000 1.000000
vn 0.000000 -0.000000 1.000000
vn -0.000000 0.000000 1.000000
vn -0.000000 0.000000 1.000000
vn -0.000000 0.000000 1.000000
vn -0.000000 0.000000 1.000000
vn 0.000000 0.000000 1.000000
vn 0.000000 0.000000 1.000000
vn 0.000000 0.000000 1.000000
vn 0.000000 0.000000 1.000000
vn -0.000000 0.000000 -1.000000
vn -0.000000 0.000000 -1.000000
vn 0.000000 0.000000 -1.000000
vn 0.000000 0.000000 -1.000000
vn 0.000000 0.000000 -1.000000
vn 0.000000 0.000000 -1.000000
vn 0.000000 0.000000 -1.000000
vn 0.000000 0.000000 -1.000000
vn 0.000000 0.000000 -1.000000
vn 0.000000 0.000000 -1.000000
vn 0.000000 0.000000 -1.000000
vn 0.000000 0.000000 -1.000000
vn 0.611932 0.790910 0.000000
vn -0.000000 1.000000 0.000000
vn -0.000000 1.000000 0.000000
vn 0.611932 0.790910 0.000000
vn -1.000000 0.000000 0.000000
vn -1.000000 0.000000 0.000000
vn -1.000000 0.000000 0.000000
vn -1.000000 0.000000 0.000000
vn 1.000000 0.000000 0.000000
vn 1.000000 0.000000 0.000000
vn 1.000000 0.000000 0.000000
vn 1.000000 0.000000 0.000000
vn 0.000000 1.000000 0.000000
vn 0.000000 1.000000 0.000000
vn 0.000000 1.000000 0.000000
vn 0.000000 1.000000 0.000000
vn 0.000000 0.000000 1.000000
vn 0.000000 0.000000 1.000000
vn 0.000000 0.000000 1.000000
vn 0.000000 0.000000 1.000000
vn 0.000000 -1.000000 0.000000
vn 0.000000 -1.000000 0.000000
vn 0.000000 -1.000000 0.000000
vn 0.000000 -1.000000 0.000000
vn 0.000000 0.000000 -1.000000
vn 0.000000 0.000000 -1.000000
vn 0.000000 0.000000 -1.000000
vn 0.000000 0.000000 -1.000000
vn 0.000000 0.000000 1.000000
vn 0.000000 0.000000 1.000000
vn 0.000000 0.000000 1.000000
vn 0.000000 0.000000 1.000000
vn 0.000000 1.000000 0.000000
vn 0.000000 1.000000 0.000000
vn 0.000000 1.000000 0.000000
vn 0.000000 1.000000 0.000000
vn -0.000000 0.000000 -1.000000
vn -0.000000 0.000000 -1.000000
vn -0.000000 0.000000 -1.000000
vn -0.000000 0.000000 -1.000000
vn 0.000000 -1.000000 0.000000
vn 0.000000 -1.000000 0.000000
vn 0.000000 -1.000000 0.000000
vn 0.000000 -1.000000 0.000000
vn -0.000000 0.000000 1.000000
vn -0.000000 0.000000 1.000000
vn -0.000000 0.000000 1.000000
vn -0.000000 0.000000 1.000000
vn -1.000000 0.000000 0.000000
vn -1.000000 0.000000 0.000000
vn -1.000000 0.000000 0.000000
vn -1.000000 0.000000 0.000000
vn -0.000000 0.000000 -1.000000
vn -0.000000 0.000000 -1.000000
vn -0.000000 0.000000 -1.000000
vn -0.000000 0.000000 -1.000000
vn 1.000000 0.000000 0.000000
vn 1.000000 0.000000 0.000000
vn 1.000000 0.000000 0.000000
vn 1.000000 0.000000 0.000000
vn -1.000000 0.000000 0.000000
vn -1.000000 0.000000 0.000000
vn -1.000000 0.000000 0.000000
vn -1.000000 0.000000 0.000000
vn 0.000000 0.000000 -1.000000
vn 0.000000 0.000000 -1.000000
vn 0.000000 0.000000 -1.000000
vn 0.000000 0.000000 -1.000000
vn 1.000000 0.000000 0.000000
vn 1.000000 0.000000 0.000000
vn 1.000000 0.000000 0.000000
vn 1.000000 0.000000 0.000000
vn 0.000000 0.000000 1.000000
vn 0.000000 0.000000 1.000000
vn 0.000000 0.000000 1.000000
vn 0.000000 0.000000 1.000000
vn 0.000000 -0.000000 1.000000
vn 0.000000 -0.000000 1.000000
vn 0.000000 -0.000000 1.000000
vn 0.000000 -0.000000 1.000000
vn -0.000000 1.000000 0.000000
vn -0.000000 1.000000 0.000000
vn -0.611933 0.790910 0.000000
vn -0.611933 0.790910 0.000000
vn -0.000000 -0.000000 -1.000000
vn -0.000000 0.000000 -1.000000
vn -0.000000 0.000000 -1.000000
vn -0.000000 -0.000000 -1.000000
vn 0.557017 -0.830501 0.000000
vn 0.557017 -0.830501 0.000000
vn 0.000000 -1.000000 0.000000
vn 0.000000 -1.000000 0.000000
s off
f 9/1/1 10/2/2 4/3/3 3/4/4
f 3/5/5 4/6/6 6/7/7 5/8/8
f 5/9/9 6/10/10 11/11/11 12/12/12
f 7/13/13 8/14/14 2/15/15 1/16/16
f 10/17/17 11/18/18 6/19/19 4/20/20
f 12/21/21 9/22/22 3/23/23 5/24/24
f 13/25/25 14/26/26 10/2/27 9/1/28
f 14/27/29 15/28/30 11/18/31 10/17/32
f 12/12/33 11/11/34 15/29/35 16/30/36
f 16/31/37 13/32/38 9/22/39 12/21/40
f 17/33/41 18/34/42 27/35/43 28/36/44
f 18/37/45 19/38/46 26/39/47 27/40/48
f 25/41/49 26/42/50 19/43/51 20/44/52
f 20/45/53 17/46/54 28/47/55 25/48/56
f 21/49/57 22/50/58 18/34/59 17/33/60
f 22/51/61 23/52/62 19/38/63 18/37/64
f 20/44/65 19/43/66 23/53/67 24/54/68
f 24/55/69 21/56/70 17/46/71 20/45/72
f 1/57/73 2/58/74 22/50/75 21/49/76
f 2/59/77 8/60/78 23/52/79 22/51/80
f 24/54/81 23/53/82 8/61/83 7/62/84
f 7/63/85 1/64/86 21/56/87 24/55/88
f 33/65/89 34/66/90 35/67/91 36/68/92
f 27/40/93 26/39/94 30/69/95 31/70/96
f 38/71/97 37/72/98 39/73/99 40/74/100
f 25/48/101 28/47/102 32/75/103 29/76/104
f 16/30/105 15/29/106 30/77/107 29/78/108
f 31/70/109 30/69/110 15/28/111 14/27/112
f 32/79/113 31/80/114 14/26/115 13/25/116
f 29/76/117 32/75/118 13/32/119 16/31/120
f 29/81/121 30/82/122 34/83/123 33/84/124
f 30/85/125 26/86/126 35/87/127 34/88/128
f 26/89/129 25/90/130 36/91/131 35/92/132
f 25/93/133 29/94/134 33/95/135 36/96/136
f 28/97/137 27/98/138 37/99/139 38/100/140
f 27/101/141 31/102/142 39/103/143 37/104/144
f 31/105/145 32/106/146 40/107/147 39/108/148
f 32/109/149 28/110/150 38/111/151 40/112/152
f 41/113/153 42/114/154 44/115/155 43/116/156
f 45/117/157 46/118/158 48/119/159 47/120/160
f 76/121/161 73/122/162 42/123/163 41/124/164
f 42/125/165 73/126/166 74/127/167 50/128/168
f 48/129/169 46/130/170 51/131/171 49/132/172
f 44/133/173 42/125/174 50/128/175 52/134/176
f 75/135/177 76/136/178 41/137/179 54/138/180
f 41/137/181 43/139/182 55/140/183 54/138/184
f 45/141/185 47/142/186 53/143/187 56/144/188
f 50/145/189 74/146/190 75/147/191 54/148/192
f 49/149/193 51/150/194 56/151/195 53/152/196
f 52/153/197 50/154/198 54/155/199 55/156/200
f 43/157/201 44/158/202 58/159/203 57/160/204
f 59/161/205 58/162/206 44/133/207 52/134/208
f 60/163/209 59/164/210 52/165/211 55/166/212
f 43/139/213 57/167/214 60/168/215 55/140/216
f 46/130/217 62/169/218 61/170/219 51/131/220
f 63/171/221 62/172/222 46/173/223 45/174/224
f 64/175/225 63/176/226 45/141/227 56/144/228
f 51/177/229 61/178/230 64/179/231 56/180/232
f 58/181/233 59/182/234 66/183/235 65/184/236
f 59/185/237 60/186/238 67/187/239 66/188/240
f 60/189/241 57/190/242 68/191/243 67/192/244
f 57/193/245 58/194/246 65/195/247 68/196/248
f 62/197/249 63/198/250 70/199/251 69/200/252
f 63/201/253 64/202/254 71/203/255 70/204/256
f 64/205/257 61/206/258 72/207/259 71/208/260
f 61/209/261 62/210/262 69/211/263 72/212/264
f 74/127/265 73/126/266 48/129/267 49/132/268
f 75/147/269 74/146/270 49/213/271 53/214/272
f 47/142/273 76/136/274 75/135/275 53/143/276
f 47/215/277 48/216/278 73/122/279 76/121/280
