# This file uses centimeters as units for non-parametric coordinates.

v 0.259052 -0.320762 -0.038836
v 0.259052 -0.320762 0.043045
v 0.461510 0.225219 -0.038836
v 0.461510 0.225219 0.043045
v 0.461510 0.127726 -0.038836
v 0.461510 0.127726 0.043045
v 0.461510 -0.320762 -0.038836
v 0.461510 -0.320762 0.043045
v 0.399666 -0.264081 0.043045
v 0.319107 -0.264081 0.043045
v 0.399666 0.080751 0.043045
v 0.320023 0.140188 0.043045
v 0.399666 -0.264081 -0.038836
v 0.319107 -0.264081 -0.038836
v 0.320023 0.140188 -0.038836
v 0.399666 0.080751 -0.038836
v 0.372730 0.332913 -0.038836
v 0.372730 0.332913 0.043045
v 0.320023 0.275634 0.043045
v 0.320023 0.275634 -0.038836
v 0.299732 0.420760 -0.038836
v 0.299732 0.420760 0.043045
v 0.247025 0.363481 0.043045
v 0.247025 0.363481 -0.038836
v 0.259052 -0.002429 0.043045
v 0.319107 0.067001 0.043045
v 0.319107 0.067001 -0.038836
v 0.259052 -0.002429 -0.038836
v 0.170723 -0.002429 0.043045
v 0.170723 0.067001 0.043045
v 0.170723 0.067001 -0.038836
v 0.170723 -0.002429 -0.038836
v -0.461510 -0.499144 -0.100038
v -0.461510 -0.499144 0.100038
v -0.402138 0.499144 -0.100038
v -0.402138 0.499144 0.100038
v 0.188606 0.499144 -0.100038
v 0.188606 0.499144 0.100038
v 0.247978 -0.499144 -0.100038
v 0.247978 -0.499144 0.100038
v -0.461510 -0.365497 -0.100038
v -0.461510 -0.365497 0.100038
v 0.247978 -0.365497 0.100038
v 0.247978 -0.365497 -0.100038
v 0.188606 -0.327616 0.100038
v -0.402138 -0.327616 0.100038
v -0.402138 -0.327616 -0.100038
v 0.188606 -0.327616 -0.100038
v 0.105415 0.088920 0.100038
v -0.318947 0.088920 0.100038
v 0.105415 0.401372 0.100038
v -0.318947 0.401372 0.100038
v -0.318947 0.088920 -0.100038
v 0.105415 0.088920 -0.100038
v -0.318947 0.401372 -0.100038
v 0.105415 0.401372 -0.100038
vt 0.369044 0.953551
vt 0.369044 0.953551
vt 0.369044 0.953551
vt 0.369044 0.953551
vt 0.369044 0.953551
vt 0.369044 0.953551
vt 0.369044 0.953551
vt 0.369044 0.953551
vt 0.126308 0.953551
vt 0.126308 0.953551
vt 0.126308 0.953551
vt 0.126308 0.953551
vt 0.620417 0.953551
vt 0.620417 0.953551
vt 0.620417 0.953551
vt 0.620417 0.953551
vt 0.620417 0.953551
vt 0.620417 0.953551
vt 0.620417 0.953551
vt 0.620417 0.953551
vt 0.620417 0.953551
vt 0.620417 0.953551
vt 0.620417 0.953551
vt 0.620417 0.953551
vt 0.620417 0.953551
vt 0.620417 0.953551
vt 0.620417 0.953551
vt 0.620417 0.953551
vt 0.369044 0.953551
vt 0.369044 0.953551
vt 0.369044 0.953551
vt 0.369044 0.953551
vt 0.126308 0.953551
vt 0.126308 0.953551
vt 0.126308 0.953551
vt 0.126308 0.953551
vt 0.126308 0.953551
vt 0.126308 0.953551
vt 0.126308 0.953551
vt 0.126308 0.953551
vt 0.865003 0.953551
vt 0.865003 0.953551
vt 0.865003 0.953551
vt 0.865003 0.953551
vt 0.620417 0.953551
vt 0.620417 0.953551
vt 0.620417 0.953551
vt 0.620417 0.953551
vt 0.620417 0.953551
vt 0.620417 0.953551
vt 0.620417 0.953551
vt 0.620417 0.953551
vt 0.369044 0.953551
vt 0.369044 0.953551
vt 0.369044 0.953551
vt 0.369044 0.953551
vt 0.865003 0.953551
vt 0.865003 0.953551
vt 0.865003 0.953551
vt 0.865003 0.953551
vt 0.620417 0.953551
vt 0.620417 0.953551
vt 0.620417 0.953551
vt 0.620417 0.953551
vt 0.126308 0.953551
vt 0.126308 0.953551
vt 0.126308 0.953551
vt 0.126308 0.953551
vt 0.865003 0.953551
vt 0.865003 0.953551
vt 0.865003 0.953551
vt 0.865003 0.953551
vt 0.620417 0.953551
vt 0.620417 0.953551
vt 0.620417 0.953551
vt 0.620417 0.953551
vt 0.126308 0.953551
vt 0.126308 0.953551
vt 0.126308 0.953551
vt 0.126308 0.953551
vt 0.620417 0.953551
vt 0.620417 0.953551
vt 0.620417 0.953551
vt 0.620417 0.953551
vt 0.126308 0.953551
vt 0.126308 0.953551
vt 0.126308 0.953551
vt 0.126308 0.953551
vt 0.620417 0.953551
vt 0.620417 0.953551
vt 0.865003 0.953551
vt 0.865003 0.953551
vt 0.865003 0.953551
vt 0.865003 0.953551
vt 0.620417 0.953551
vt 0.620417 0.953551
vt 0.126308 0.953551
vt 0.126308 0.953551
vt 0.865003 0.953551
vt 0.865003 0.953551
vt 0.865003 0.953551
vt 0.865003 0.953551
vt 0.865003 0.953551
vt 0.865003 0.953551
vt 0.865003 0.953551
vt 0.865003 0.953551
vt 0.865003 0.953551
vt 0.865003 0.953551
vt 0.865003 0.953551
vt 0.865003 0.953551
vt 0.126308 0.953551
vt 0.126308 0.953551
vt 0.126308 0.953551
vt 0.126308 0.953551
vt 0.369044 0.953551
vt 0.369044 0.953551
vt 0.369044 0.953551
vt 0.369044 0.953551
vt 0.620417 0.953551
vt 0.620417 0.953551
vt 0.620417 0.953551
vt 0.620417 0.953551
vt 0.369044 0.953551
vt 0.369044 0.953551
vt 0.369044 0.953551
vt 0.369044 0.953551
vt 0.620417 0.953551
vt 0.620417 0.953551
vt 0.620417 0.953551
vt 0.620417 0.953551
vt 0.369044 0.953551
vt 0.369044 0.953551
vt 0.369044 0.953551
vt 0.369044 0.953551
vt 0.369044 0.953551
vt 0.369044 0.953551
vt 0.369044 0.953551
vt 0.369044 0.953551
vt 0.620417 0.953551
vt 0.620417 0.953551
vt 0.620417 0.953551
vt 0.620417 0.953551
vt 0.620417 0.953551
vt 0.620417 0.953551
vt 0.620417 0.953551
vt 0.620417 0.953551
vt 0.620417 0.953551
vt 0.620417 0.953551
vt 0.620417 0.953551
vt 0.620417 0.953551
vt 0.620417 0.953551
vt 0.620417 0.953551
vt 0.620417 0.953551
vt 0.620417 0.953551
vt 0.126308 0.953551
vt 0.126308 0.953551
vt 0.126308 0.953551
vt 0.126308 0.953551
vt 0.126308 0.953551
vt 0.126308 0.953551
vt 0.126308 0.953551
vt 0.126308 0.953551
vt 0.126308 0.953551
vt 0.126308 0.953551
vt 0.126308 0.953551
vt 0.126308 0.953551
vt 0.126308 0.953551
vt 0.126308 0.953551
vt 0.126308 0.953551
vt 0.126308 0.953551
vn 1.000000 0.000000 0.000000
vn 1.000000 0.000000 0.000000
vn 1.000000 0.000000 0.000000
vn 1.000000 0.000000 0.000000
vn 1.000000 0.000000 0.000000
vn 1.000000 0.000000 0.000000
vn 1.000000 0.000000 0.000000
vn 1.000000 0.000000 0.000000
vn 0.000000 -1.000000 0.000000
vn 0.000000 -1.000000 0.000000
vn 0.000000 -1.000000 0.000000
vn 0.000000 -1.000000 0.000000
vn -0.000000 0.000000 1.000000
vn -0.000000 0.000000 1.000000
vn -0.000000 0.000000 1.000000
vn -0.000000 0.000000 1.000000
vn -0.000000 0.000000 1.000000
vn -0.000000 0.000000 1.000000
vn -0.000000 0.000000 1.000000
vn -0.000000 0.000000 1.000000
vn -0.000000 -0.000000 1.000000
vn -0.000000 -0.000000 1.000000
vn -0.000000 -0.000000 1.000000
vn -0.000000 -0.000000 1.000000
vn 0.000000 0.000000 -1.000000
vn 0.000000 0.000000 -1.000000
vn 0.000000 0.000000 -1.000000
vn 0.000000 0.000000 -1.000000
vn -0.000000 0.000000 -1.000000
vn -0.000000 0.000000 -1.000000
vn -0.000000 0.000000 -1.000000
vn -0.000000 0.000000 -1.000000
vn -0.000000 0.000000 -1.000000
vn -0.000000 0.000000 -1.000000
vn -0.000000 0.000000 -1.000000
vn -0.000000 0.000000 -1.000000
vn 0.000000 1.000000 0.000000
vn 0.000000 1.000000 0.000000
vn 0.000000 1.000000 0.000000
vn 0.000000 1.000000 0.000000
vn -1.000000 0.000000 0.000000
vn -1.000000 0.000000 0.000000
vn -1.000000 0.000000 0.000000
vn -1.000000 0.000000 0.000000
vn -0.598099 -0.801422 0.000000
vn -0.598099 -0.801422 0.000000
vn -0.598099 -0.801422 0.000000
vn -0.598099 -0.801422 0.000000
vn 0.771613 0.636093 0.000000
vn 0.771613 0.636093 0.000000
vn 0.771613 0.636093 0.000000
vn 0.771613 0.636093 0.000000
vn -0.000000 0.000000 1.000000
vn -0.000000 0.000000 1.000000
vn -0.000000 0.000000 1.000000
vn -0.000000 0.000000 1.000000
vn 0.000000 0.000000 -1.000000
vn 0.000000 0.000000 -1.000000
vn 0.000000 0.000000 -1.000000
vn 0.000000 0.000000 -1.000000
vn -1.000000 0.000000 0.000000
vn -1.000000 0.000000 0.000000
vn -1.000000 0.000000 0.000000
vn -1.000000 0.000000 0.000000
vn 0.769116 0.639109 0.000000
vn 0.769116 0.639109 0.000000
vn 0.769116 0.639109 0.000000
vn 0.769116 0.639109 0.000000
vn -0.000000 0.000000 1.000000
vn -0.000000 0.000000 1.000000
vn -0.000000 0.000000 1.000000
vn -0.000000 0.000000 1.000000
vn 0.000000 0.000000 -1.000000
vn 0.000000 0.000000 -1.000000
vn 0.000000 0.000000 -1.000000
vn 0.000000 0.000000 -1.000000
vn -0.769117 -0.639108 0.000000
vn -0.769117 -0.639108 0.000000
vn -0.769117 -0.639108 0.000000
vn -0.769117 -0.639108 0.000000
vn -0.735860 0.677134 0.000000
vn -0.735860 0.677134 0.000000
vn -0.735860 0.677134 0.000000
vn -0.735860 0.677134 0.000000
vn 0.000000 0.000000 1.000000
vn 0.000000 0.000000 1.000000
vn 0.000000 0.000000 1.000000
vn 0.000000 0.000000 1.000000
vn 1.000000 0.000000 0.000000
vn 1.000000 0.000000 0.000000
vn 1.000000 0.000000 0.000000
vn 1.000000 0.000000 0.000000
vn 0.000000 0.000000 -1.000000
vn 0.000000 0.000000 -1.000000
vn 0.000000 0.000000 -1.000000
vn 0.000000 0.000000 -1.000000
vn -1.000000 0.000000 0.000000
vn -1.000000 0.000000 0.000000
vn -1.000000 0.000000 0.000000
vn -1.000000 0.000000 0.000000
vn 0.000000 0.000000 1.000000
vn 0.000000 0.000000 1.000000
vn 0.000000 0.000000 1.000000
vn 0.000000 0.000000 1.000000
vn 0.000000 1.000000 0.000000
vn 0.000000 1.000000 0.000000
vn 0.000000 1.000000 0.000000
vn 0.000000 1.000000 0.000000
vn 0.000000 0.000000 -1.000000
vn 0.000000 0.000000 -1.000000
vn 0.000000 0.000000 -1.000000
vn 0.000000 0.000000 -1.000000
vn 0.000000 -1.000000 0.000000
vn 0.000000 -1.000000 0.000000
vn 0.000000 -1.000000 0.000000
vn 0.000000 -1.000000 0.000000
vn -0.944992 0.327094 -0.000000
vn -0.944992 0.327094 -0.000000
vn -0.997651 0.068505 -0.000000
vn -0.997651 0.068505 -0.000000
vn 0.000000 1.000000 0.000000
vn 0.000000 1.000000 0.000000
vn 0.000000 1.000000 0.000000
vn 0.000000 1.000000 0.000000
vn 0.997651 0.068505 0.000000
vn 0.997651 0.068505 0.000000
vn 0.944992 0.327095 0.000000
vn 0.944992 0.327095 0.000000
vn 0.000000 -1.000000 0.000000
vn 0.000000 -1.000000 0.000000
vn 0.000000 -1.000000 0.000000
vn 0.000000 -1.000000 0.000000
vn 0.000000 0.000000 1.000000
vn 0.000000 0.000000 1.000000
vn 0.000000 0.000000 1.000000
vn 0.000000 0.000000 1.000000
vn -0.000000 0.000000 -1.000000
vn -0.000000 0.000000 -1.000000
vn -0.000000 0.000000 -1.000000
vn -0.000000 0.000000 -1.000000
vn -1.000000 0.000000 -0.000000
vn -1.000000 0.000000 -0.000000
vn -0.944992 0.327094 -0.000000
vn -0.944992 0.327094 -0.000000
vn 0.000000 0.000000 1.000000
vn 0.000000 0.000000 1.000000
vn 0.000000 0.000000 1.000000
vn 0.000000 0.000000 1.000000
vn 0.944992 0.327095 0.000000
vn 0.944992 0.327095 0.000000
vn 1.000000 0.000000 0.000000
vn 1.000000 0.000000 0.000000
vn -0.000000 0.000000 -1.000000
vn -0.000000 0.000000 -1.000000
vn -0.000000 0.000000 -1.000000
vn -0.000000 0.000000 -1.000000
vn -0.997651 0.068505 -0.000000
vn -0.997651 0.068505 -0.000000
vn -1.000000 0.000000 -0.000000
vn -1.000000 0.000000 -0.000000
vn 1.000000 0.000000 0.000000
vn 1.000000 0.000000 0.000000
vn 0.997651 0.068505 0.000000
vn 0.997651 0.068505 0.000000
vn 0.000000 -0.000000 1.000000
vn 0.000000 -0.000000 1.000000
vn 0.000000 -0.000000 1.000000
vn 0.000000 -0.000000 1.000000
vn 0.000000 0.000000 1.000000
vn 0.000000 0.000000 1.000000
vn 0.000000 0.000000 1.000000
vn 0.000000 0.000000 1.000000
vn 0.000000 0.000000 1.000000
vn 0.000000 0.000000 1.000000
vn 0.000000 0.000000 1.000000
vn 0.000000 0.000000 1.000000
vn -0.000000 0.000000 1.000000
vn -0.000000 0.000000 1.000000
vn -0.000000 0.000000 1.000000
vn -0.000000 0.000000 1.000000
vn -0.000000 -0.000000 -1.000000
vn -0.000000 -0.000000 -1.000000
vn -0.000000 -0.000000 -1.000000
vn -0.000000 -0.000000 -1.000000
vn -0.000000 0.000000 -1.000000
vn -0.000000 0.000000 -1.000000
vn -0.000000 0.000000 -1.000000
vn -0.000000 0.000000 -1.000000
vn -0.000000 0.000000 -1.000000
vn -0.000000 0.000000 -1.000000
vn -0.000000 0.000000 -1.000000
vn -0.000000 0.000000 -1.000000
vn -0.000000 0.000000 -1.000000
vn -0.000000 0.000000 -1.000000
vn -0.000000 0.000000 -1.000000
vn -0.000000 0.000000 -1.000000
vn 0.000000 1.000000 0.000000
vn 0.000000 1.000000 0.000000
vn 0.000000 1.000000 0.000000
vn 0.000000 1.000000 0.000000
vn -1.000000 0.000000 0.000000
vn -1.000000 0.000000 0.000000
vn -1.000000 0.000000 0.000000
vn -1.000000 0.000000 0.000000
vn 0.000000 -1.000000 0.000000
vn 0.000000 -1.000000 0.000000
vn 0.000000 -1.000000 0.000000
vn 0.000000 -1.000000 0.000000
vn 1.000000 0.000000 0.000000
vn 1.000000 0.000000 0.000000
vn 1.000000 0.000000 0.000000
vn 1.000000 0.000000 0.000000
s off
f 3/1/1 4/2/2 6/3/3 5/4/4
f 5/5/5 6/6/6 8/7/7 7/8/8
f 7/9/9 8/10/10 2/11/11 1/12/12
f 2/13/13 8/14/14 9/15/15 10/16/16
f 8/14/17 6/17/18 11/18/19 9/15/20
f 6/17/21 4/19/22 12/20/23 11/18/24
f 7/21/25 1/22/26 14/23/27 13/24/28
f 3/25/29 5/26/30 16/27/31 15/28/32
f 5/26/33 7/21/34 13/24/35 16/27/36
f 10/29/37 9/30/38 13/31/39 14/32/40
f 9/33/41 11/34/42 16/35/43 13/36/44
f 11/37/45 12/38/46 15/39/47 16/40/48
f 4/41/49 3/42/50 17/43/51 18/44/52
f 12/45/53 4/46/54 18/47/55 19/48/56
f 3/49/57 15/50/58 20/51/59 17/52/60
f 15/53/61 12/54/62 19/55/63 20/56/64
f 18/57/65 17/58/66 21/59/67 22/60/68
f 19/48/69 18/47/70 22/61/71 23/62/72
f 17/52/73 20/51/74 24/63/75 21/64/76
f 20/65/77 19/66/78 23/67/79 24/68/80
f 22/69/81 21/70/82 24/71/83 23/72/84
f 2/73/85 10/74/86 26/75/87 25/76/88
f 10/77/89 14/78/90 27/79/91 26/80/92
f 14/81/93 1/82/94 28/83/95 27/84/96
f 1/85/97 2/86/98 25/87/99 28/88/100
f 25/76/101 26/75/102 30/89/103 29/90/104
f 26/91/105 27/92/106 31/93/107 30/94/108
f 27/84/109 28/83/110 32/95/111 31/96/112
f 28/88/113 25/87/114 29/97/115 32/98/116
f 41/99/117 42/100/118 46/101/119 47/102/120
f 35/103/121 36/104/122 38/105/123 37/106/124
f 48/107/125 45/108/126 43/109/127 44/110/128
f 39/111/129 40/112/130 34/113/131 33/114/132
f 42/100/133 43/109/134 45/108/135 46/101/136
f 44/110/137 41/99/138 47/102/139 48/107/140
f 33/115/141 34/116/142 42/117/143 41/118/144
f 34/119/145 40/120/146 43/121/147 42/122/148
f 44/123/149 43/124/150 40/125/151 39/126/152
f 39/127/153 33/128/154 41/129/155 44/130/156
f 47/131/157 46/132/158 36/133/159 35/134/160
f 37/135/161 38/136/162 45/137/163 48/138/164
f 46/139/165 45/140/166 49/141/167 50/142/168
f 45/140/169 38/143/170 51/144/171 49/141/172
f 38/143/173 36/145/174 52/146/175 51/144/176
f 36/145/177 46/139/178 50/142/179 52/146/180
f 48/147/181 47/148/182 53/149/183 54/150/184
f 47/148/185 35/151/186 55/152/187 53/149/188
f 35/151/189 37/153/190 56/154/191 55/152/192
f 37/153/193 48/147/194 54/150/195 56/154/196
f 50/155/197 49/156/198 54/157/199 53/158/200
f 49/159/201 51/160/202 56/161/203 54/162/204
f 51/163/205 52/164/206 55/165/207 56/166/208
f 52/167/209 50/168/210 53/169/211 55/170/212
