# This file uses centimeters as units for non-parametric coordinates.

v -0.500000 -0.500000 -0.100038
v -0.500000 -0.500000 0.100038
v 0.000000 0.500000 -0.100038
v 0.000000 0.500000 0.100038
v 0.500000 -0.500000 -0.100038
v 0.500000 -0.500000 0.100038
v -0.571992 -0.070884 -0.100038
v -0.571992 -0.070884 0.100038
v 0.571992 -0.070884 0.100038
v 0.571992 -0.070884 -0.100038
v 0.571992 0.046065 0.100038
v -0.571992 0.046065 0.100038
v -0.571992 0.046065 -0.100038
v 0.571992 0.046065 -0.100038
v -0.500000 -0.070884 -0.100038
v -0.500000 -0.070884 0.100038
v 0.500000 -0.070884 0.100038
v 0.500000 -0.070884 -0.100038
v 0.134932 -0.500000 0.100038
v -0.134932 -0.500000 0.100038
v 0.134932 -0.500000 -0.100038
v -0.134932 -0.500000 -0.100038
v 0.134932 -0.117259 -0.100038
v -0.134932 -0.117259 -0.100038
v -0.134932 -0.117259 0.100038
v 0.134932 -0.117259 0.100038
v 0.228797 0.318426 -0.100038
v 0.228797 0.318426 0.100038
v 0.400395 0.182245 -0.100038
v 0.400395 0.182245 0.100038
v 0.228797 0.454077 -0.100038
v 0.228797 0.454077 0.100038
v 0.400395 0.454077 0.100038
v 0.400395 0.454077 -0.100038
vt 0.369044 0.953551
vt 0.369044 0.953551
vt 0.369044 0.953551
vt 0.369044 0.953551
vt 0.369044 0.953551
vt 0.369044 0.953551
vt 0.369044 0.953551
vt 0.369044 0.953551
vt 0.620417 0.953551
vt 0.620417 0.953551
vt 0.620417 0.953551
vt 0.620417 0.953551
vt 0.620417 0.953551
vt 0.620417 0.953551
vt 0.620417 0.953551
vt 0.620417 0.953551
vt 0.126308 0.953551
vt 0.126308 0.953551
vt 0.126308 0.953551
vt 0.126308 0.953551
vt 0.865003 0.953551
vt 0.865003 0.953551
vt 0.865003 0.953551
vt 0.865003 0.953551
vt 0.126308 0.953551
vt 0.126308 0.953551
vt 0.126308 0.953551
vt 0.126308 0.953551
vt 0.865003 0.953551
vt 0.865003 0.953551
vt 0.865003 0.953551
vt 0.865003 0.953551
vt 0.620417 0.953551
vt 0.620417 0.953551
vt 0.620417 0.953551
vt 0.620417 0.953551
vt 0.620417 0.953551
vt 0.865003 0.953551
vt 0.865003 0.953551
vt 0.865003 0.953551
vt 0.865003 0.953551
vt 0.620417 0.953551
vt 0.620417 0.953551
vt 0.620417 0.953551
vt 0.620417 0.953551
vt 0.620417 0.953551
vt 0.865003 0.953551
vt 0.865003 0.953551
vt 0.865003 0.953551
vt 0.865003 0.953551
vt 0.369044 0.953551
vt 0.369044 0.953551
vt 0.369044 0.953551
vt 0.369044 0.953551
vt 0.620417 0.953551
vt 0.620417 0.953551
vt 0.620417 0.953551
vt 0.620417 0.953551
vt 0.369044 0.953551
vt 0.369044 0.953551
vt 0.369044 0.953551
vt 0.369044 0.953551
vt 0.620417 0.953551
vt 0.620417 0.953551
vt 0.620417 0.953551
vt 0.620417 0.953551
vt 0.126308 0.953551
vt 0.126308 0.953551
vt 0.126308 0.953551
vt 0.126308 0.953551
vt 0.126308 0.953551
vt 0.126308 0.953551
vt 0.126308 0.953551
vt 0.126308 0.953551
vt 0.620417 0.953551
vt 0.620417 0.953551
vt 0.620417 0.953551
vt 0.620417 0.953551
vt 0.620417 0.953551
vt 0.620417 0.953551
vt 0.620417 0.953551
vt 0.620417 0.953551
vt 0.620417 0.953551
vt 0.620417 0.953551
vt 0.620417 0.953551
vt 0.620417 0.953551
vt 0.620417 0.953551
vt 0.620417 0.953551
vt 0.620417 0.953551
vt 0.620417 0.953551
vt 0.126308 0.953551
vt 0.126308 0.953551
vt 0.126308 0.953551
vt 0.126308 0.953551
vt 0.126308 0.953551
vt 0.126308 0.953551
vt 0.126308 0.953551
vt 0.126308 0.953551
vt 0.126308 0.953551
vt 0.126308 0.953551
vt 0.126308 0.953551
vt 0.126308 0.953551
vt 0.865003 0.953551
vt 0.865003 0.953551
vt 0.865003 0.953551
vt 0.865003 0.953551
vt 0.865003 0.953551
vt 0.865003 0.953551
vt 0.865003 0.953551
vt 0.865003 0.953551
vt 0.369044 0.953551
vt 0.369044 0.953551
vt 0.369044 0.953551
vt 0.369044 0.953551
vt 0.620417 0.953551
vt 0.620417 0.953551
vt 0.620417 0.953551
vt 0.620417 0.953551
vt 0.369044 0.953551
vt 0.369044 0.953551
vt 0.369044 0.953551
vt 0.369044 0.953551
vt 0.620417 0.953551
vt 0.620417 0.953551
vt 0.620417 0.953551
vt 0.620417 0.953551
vn -1.000000 0.000000 0.000000
vn -1.000000 0.000000 0.000000
vn -1.000000 0.000000 0.000000
vn -1.000000 0.000000 0.000000
vn 1.000000 0.000000 0.000000
vn 1.000000 0.000000 0.000000
vn 1.000000 0.000000 0.000000
vn 1.000000 0.000000 0.000000
vn -0.000000 0.000000 1.000000
vn -0.000000 0.000000 1.000000
vn -0.000000 0.000000 1.000000
vn -0.000000 0.000000 1.000000
vn -0.000000 0.000000 -1.000000
vn -0.000000 0.000000 -1.000000
vn -0.000000 0.000000 -1.000000
vn -0.000000 0.000000 -1.000000
vn -0.000003 -1.000000 0.000000
vn -0.000003 -1.000000 0.000000
vn -0.000003 -1.000000 0.000000
vn -0.000003 -1.000000 0.000000
vn -0.000000 0.000000 1.000000
vn -0.000000 0.000000 1.000000
vn -0.000000 0.000000 0.000000
vn -0.000000 0.000000 0.000000
vn 0.000000 -1.000000 -0.000000
vn 0.000000 -1.000000 -0.000000
vn 0.000000 -1.000000 -0.000000
vn 0.000000 -1.000000 -0.000000
vn -0.000000 0.000000 -1.000000
vn -0.000000 0.000000 -1.000000
vn -0.000000 0.000000 -0.000000
vn -0.000000 0.000000 -0.000000
vn -0.000000 0.000000 1.000000
vn -0.000000 0.000000 1.000000
vn -0.000000 0.000000 1.000000
vn -0.000000 0.000000 1.000000
vn -0.000000 0.000000 1.000000
vn -0.621635 0.783307 0.000000
vn -0.621635 0.783307 0.000000
vn -0.621635 0.783307 0.000000
vn -0.621635 0.783307 0.000000
vn -0.000000 -0.000000 -1.000000
vn -0.000000 -0.000000 -1.000000
vn -0.000000 -0.000000 -1.000000
vn -0.000000 -0.000000 -1.000000
vn -0.000000 -0.000000 -1.000000
vn 0.621636 0.783306 -0.000000
vn 0.621636 0.783306 -0.000000
vn 0.621636 0.783306 -0.000000
vn 0.621636 0.783306 -0.000000
vn -1.000000 0.000000 0.000000
vn -1.000000 0.000000 0.000000
vn -1.000000 0.000000 0.000000
vn -1.000000 0.000000 0.000000
vn -0.000000 0.000000 1.000000
vn -0.000000 0.000000 1.000000
vn -0.000000 0.000000 1.000000
vn -0.000000 0.000000 1.000000
vn 1.000000 0.000000 -0.000000
vn 1.000000 0.000000 -0.000000
vn 1.000000 0.000000 -0.000000
vn 1.000000 0.000000 -0.000000
vn 0.000000 0.000000 -1.000000
vn 0.000000 0.000000 -1.000000
vn 0.000000 0.000000 -1.000000
vn 0.000000 0.000000 -1.000000
vn 0.000000 -1.000000 0.000000
vn 0.000000 -1.000000 0.000000
vn 0.000000 -1.000000 0.000000
vn 0.000000 -1.000000 0.000000
vn 0.000000 -1.000000 0.000000
vn 0.000000 -1.000000 0.000000
vn 0.000000 -1.000000 0.000000
vn 0.000000 -1.000000 0.000000
vn -0.000000 0.000000 -1.000000
vn -0.000000 0.000000 -1.000000
vn -0.000000 0.000000 -1.000000
vn -0.000000 0.000000 -1.000000
vn -0.000000 0.000000 -1.000000
vn -0.000000 0.000000 -1.000000
vn -0.000000 0.000000 -1.000000
vn -0.000000 0.000000 -1.000000
vn -0.000000 0.000000 1.000000
vn -0.000000 0.000000 1.000000
vn -0.000000 0.000000 1.000000
vn -0.000000 0.000000 1.000000
vn -0.000000 -0.000000 1.000000
vn -0.000000 -0.000000 1.000000
vn -0.000000 -0.000000 1.000000
vn -0.000000 -0.000000 1.000000
vn 1.000000 0.000000 0.000000
vn 1.000000 0.000000 0.000000
vn 1.000000 0.000000 0.000000
vn 1.000000 0.000000 0.000000
vn -1.000000 0.000000 0.000000
vn -1.000000 0.000000 0.000000
vn -1.000000 0.000000 0.000000
vn -1.000000 0.000000 0.000000
vn 0.000000 -1.000000 0.000000
vn 0.000000 -1.000000 0.000000
vn 0.000000 -1.000000 0.000000
vn 0.000000 -1.000000 0.000000
vn 0.621635 0.783307 0.000000
vn 0.621635 0.783307 0.000000
vn 0.621635 0.783307 0.000000
vn 0.621635 0.783307 0.000000
vn 0.000000 1.000000 0.000000
vn 0.000000 1.000000 0.000000
vn 0.000000 1.000000 0.000000
vn 0.000000 1.000000 0.000000
vn -1.000000 0.000000 0.000000
vn -1.000000 0.000000 0.000000
vn -1.000000 0.000000 0.000000
vn -1.000000 0.000000 0.000000
vn -0.000000 0.000000 1.000000
vn -0.000000 0.000000 1.000000
vn -0.000000 0.000000 1.000000
vn -0.000000 0.000000 1.000000
vn 1.000000 0.000000 -0.000000
vn 1.000000 0.000000 -0.000000
vn 1.000000 0.000000 -0.000000
vn 1.000000 0.000000 -0.000000
vn 0.000000 0.000000 -1.000000
vn 0.000000 0.000000 -1.000000
vn 0.000000 0.000000 -1.000000
vn 0.000000 0.000000 -1.000000
s off
f 7/1/1 8/2/2 12/3/3 13/4/4
f 14/5/5 11/6/6 9/7/7 10/8/8
f 8/9/9 9/10/10 11/11/11 12/12/12
f 10/13/13 7/14/14 13/15/15 14/16/16
f 15/17/17 16/18/18 8/19/19 7/20/20
f 16/21/21 17/22/22 9/23/23 8/24/24
f 10/25/25 9/26/26 17/27/27 18/28/28
f 18/29/29 15/30/30 7/31/31 10/32/32
f 12/33/33 11/34/34 30/35/35 28/36/36 4/37/37
f 13/38/38 12/39/39 4/40/40 3/41/41
f 14/42/42 13/43/43 3/44/44 27/45/45 29/46/46
f 29/47/47 30/48/48 11/49/49 14/50/50
f 1/51/51 2/52/52 16/53/53 15/54/54
f 2/55/55 20/56/56 25/57/57 16/58/58
f 18/59/59 17/60/60 6/61/61 5/62/62
f 5/63/63 21/64/64 23/65/65 18/66/66
f 22/67/67 20/68/68 2/69/69 1/70/70
f 5/71/71 6/72/72 19/73/73 21/74/74
f 18/75/75 23/76/76 24/77/77 15/78/78
f 15/79/79 24/80/80 22/81/81 1/82/82
f 17/83/83 26/84/84 19/85/85 6/86/86
f 16/87/87 25/88/88 26/89/89 17/90/90
f 22/91/91 24/92/92 25/93/93 20/94/94
f 26/95/95 23/96/96 21/97/97 19/98/98
f 25/99/99 24/100/100 23/101/101 26/102/102
f 3/103/103 4/104/104 28/105/105 27/106/106
f 31/107/107 32/108/108 33/109/109 34/110/110
f 27/111/111 28/112/112 32/113/113 31/114/114
f 28/115/115 30/116/116 33/117/117 32/118/118
f 30/119/119 29/120/120 34/121/121 33/122/122
f 29/123/123 27/124/124 31/125/125 34/126/126
