# This file uses centimeters as units for non-parametric coordinates.

v -0.471331 -0.079258 -0.095621
v -0.471331 -0.079258 0.095621
v -0.471331 -0.006153 -0.095621
v -0.471331 -0.006153 0.095621
v 0.471329 -0.006153 -0.095621
v 0.471329 -0.006153 0.095621
v 0.471329 -0.079258 -0.095621
v 0.471329 -0.079258 0.095621
v -0.199804 -0.006153 -0.095621
v -0.199804 -0.006153 0.095621
v -0.247476 -0.079258 0.095621
v -0.247476 -0.079258 -0.095621
v -0.158020 -0.209370 0.095621
v -0.157513 -0.068162 0.095621
v -0.157513 -0.068162 -0.095621
v -0.158020 -0.209370 -0.095621
v -0.013008 0.519279 0.095621
v -0.044597 0.660487 0.095621
v -0.044597 0.660487 -0.095621
v -0.013008 0.519279 -0.095621
v 0.093611 -0.660487 0.095621
v 0.132697 -0.519279 0.095621
v 0.132697 -0.519279 -0.095621
v 0.093611 -0.660487 -0.095621
v 0.260482 0.085974 0.095621
v 0.221081 0.227182 0.095621
v 0.221081 0.227182 -0.095621
v 0.260482 0.085974 -0.095621
v 0.331470 -0.079258 0.095621
v 0.359264 -0.006153 0.095621
v 0.359264 -0.006153 -0.095621
v 0.331470 -0.079258 -0.095621
v -0.125762 -0.209370 0.095621
v -0.125762 -0.209370 -0.095621
v 0.025752 0.660487 0.095621
v 0.025752 0.660487 -0.095621
v 0.174057 -0.660487 0.095621
v 0.174057 -0.660487 -0.095621
v 0.259194 0.227182 -0.095621
v 0.259194 0.227182 0.095621
vt 0.369044 0.958269
vt 0.369044 0.958269
vt 0.369044 0.958269
vt 0.369044 0.958269
vt 0.865003 0.958269
vt 0.865003 0.958269
vt 0.865003 0.958269
vt 0.865003 0.958269
vt 0.369044 0.958269
vt 0.369044 0.958269
vt 0.369044 0.958269
vt 0.369044 0.958269
vt 0.126308 0.958268
vt 0.126308 0.958268
vt 0.126308 0.958268
vt 0.126308 0.958268
vt 0.620417 0.958269
vt 0.620417 0.958269
vt 0.620417 0.958269
vt 0.620417 0.958269
vt 0.620417 0.958269
vt 0.620417 0.958269
vt 0.620417 0.958269
vt 0.620417 0.958269
vt 0.620417 0.958269
vt 0.421289 0.958269
vt 0.865003 0.958269
vt 0.620417 0.958269
vt 0.126308 0.958268
vt 0.620417 0.958269
vt 0.620417 0.958269
vt 0.126308 0.958268
vt 0.126308 0.958268
vt 0.620417 0.958269
vt 0.421289 0.958269
vt 0.620417 0.958269
vt 0.620417 0.958269
vt 0.421289 0.958269
vt 0.620417 0.958269
vt 0.126308 0.958268
vt 0.343677 0.958279
vt 0.620417 0.958269
vt 0.421289 0.958269
vt 0.620417 0.958269
vt 0.620417 0.958269
vt 0.865003 0.958269
vt 0.620417 0.958269
vt 0.343677 0.958279
vt 0.126308 0.958268
vt 0.620417 0.958269
vt 0.421289 0.958269
vt 0.620417 0.958269
vt 0.620417 0.958269
vt 0.421289 0.958269
vt 0.620417 0.958269
vt 0.126308 0.958268
vt 0.343677 0.958279
vt 0.620417 0.958269
vt 0.421289 0.958269
vt 0.620417 0.958269
vt 0.620417 0.958269
vt 0.865003 0.958269
vt 0.620417 0.958269
vt 0.343677 0.958279
vt 0.126308 0.958268
vt 0.620417 0.958269
vt 0.421289 0.958269
vt 0.620417 0.958269
vt 0.620417 0.958269
vt 0.865003 0.958269
vt 0.620417 0.958269
vt 0.126308 0.958268
vt 0.126308 0.958268
vt 0.620417 0.958269
vt 0.620417 0.958269
vt 0.126308 0.958268
vt 0.421289 0.958269
vt 0.620417 0.958269
vt 0.620417 0.958269
vt 0.865003 0.958269
vt 0.126308 0.958268
vt 0.620417 0.958269
vt 0.620417 0.958269
vt 0.126308 0.958268
vt 0.620417 0.958269
vt 0.421289 0.958269
vt 0.865003 0.958269
vt 0.620417 0.958269
vt 0.865003 0.958269
vt 0.421289 0.958269
vt 0.865003 0.958269
vt 0.421289 0.958269
vt 0.421289 0.958269
vt 0.865003 0.958269
vt 0.421289 0.958269
vt 0.421289 0.958269
vt 0.421289 0.958269
vt 0.865003 0.958269
vt 0.421289 0.958269
vt 0.865003 0.958269
vt 0.421289 0.958269
vt 0.421289 0.958269
vt 0.865003 0.958269
vt 0.421289 0.958269
vt 0.343677 0.958279
vt 0.343677 0.958279
vt 0.343677 0.958279
vt 0.343677 0.958279
vt 0.343677 0.958279
vt 0.343677 0.958279
vt 0.343677 0.958279
vt 0.343677 0.958279
vt 0.343677 0.958279
vt 0.343677 0.958279
vt 0.343677 0.958279
vt 0.343677 0.958279
vn -1.000000 0.000000 0.000000
vn -1.000000 0.000000 0.000000
vn -1.000000 0.000000 0.000000
vn -1.000000 0.000000 0.000000
vn 0.193848 0.981032 0.000000
vn 0.193848 0.981032 0.000000
vn -0.973952 0.226755 0.000000
vn -0.973952 0.226755 0.000000
vn 1.000000 0.000000 0.000000
vn 1.000000 0.000000 0.000000
vn 1.000000 0.000000 0.000000
vn 1.000000 0.000000 0.000000
vn -0.730284 -0.683144 0.000000
vn -0.730284 -0.683144 0.000000
vn -0.383524 -0.923531 0.000000
vn -0.383524 -0.923531 0.000000
vn 0.000000 0.000000 1.000000
vn 0.000000 0.000000 1.000000
vn 0.000000 0.000000 1.000000
vn 0.000000 0.000000 1.000000
vn 0.000000 0.000000 -1.000000
vn 0.000000 0.000000 -1.000000
vn 0.000000 0.000000 -1.000000
vn 0.000000 0.000000 -1.000000
vn 0.000000 1.000000 0.000000
vn 0.000000 1.000000 0.000000
vn 0.193848 0.981032 0.000000
vn 0.193848 0.981032 0.000000
vn 0.000000 0.000000 1.000000
vn 0.000000 0.000000 1.000000
vn 0.000000 0.000000 1.000000
vn 0.000000 0.000000 1.000000
vn -0.383524 -0.923531 0.000000
vn -0.383524 -0.923531 0.000000
vn 0.000000 -1.000000 0.000000
vn 0.000000 -1.000000 0.000000
vn 0.000000 0.000000 -1.000000
vn 0.000000 0.000000 -1.000000
vn 0.000000 0.000000 -1.000000
vn 0.000000 0.000000 -1.000000
vn 0.000000 0.000000 1.000000
vn 0.000000 0.000000 1.000000
vn -0.000000 0.000000 1.000000
vn 0.000000 0.000000 1.000000
vn -0.973952 0.226755 0.000000
vn -0.973952 0.226755 0.000000
vn -0.969796 0.243916 0.000000
vn -0.969796 0.243916 0.000000
vn 0.000000 0.000000 -1.000000
vn -0.000000 0.000000 -1.000000
vn 0.000000 0.000000 -1.000000
vn 0.000000 0.000000 -1.000000
vn -0.899305 -0.437322 0.000000
vn -0.899305 -0.437322 0.000000
vn 0.980766 -0.195186 0.000000
vn 0.980766 -0.195186 0.000000
vn -0.000000 0.000000 1.000000
vn -0.000000 0.000000 1.000000
vn -0.000000 0.000000 1.000000
vn -0.000000 0.000000 1.000000
vn 0.988896 0.148610 0.000000
vn 0.988896 0.148610 0.000000
vn 0.911652 0.410962 0.000000
vn 0.911652 0.410962 0.000000
vn -0.000000 0.000000 -1.000000
vn -0.000000 0.000000 -1.000000
vn -0.000000 0.000000 -1.000000
vn -0.000000 0.000000 -1.000000
vn -0.987661 -0.156605 0.000000
vn -0.987661 -0.156605 0.000000
vn -0.899305 -0.437322 0.000000
vn -0.899305 -0.437322 0.000000
vn -0.000000 0.000000 1.000000
vn 0.000000 0.000000 1.000000
vn 0.000000 0.000000 1.000000
vn 0.000000 0.000000 1.000000
vn 0.911652 0.410962 0.000000
vn 0.911652 0.410962 0.000000
vn -0.985943 0.167081 0.000000
vn -0.985943 0.167081 0.000000
vn 0.000000 0.000000 -1.000000
vn 0.000000 0.000000 -1.000000
vn 0.000000 0.000000 -1.000000
vn -0.000000 0.000000 -1.000000
vn 0.965227 -0.261411 0.000000
vn 0.965227 -0.261411 0.000000
vn 0.975912 -0.218165 0.000000
vn 0.975912 -0.218165 0.000000
vn 0.000000 0.000000 1.000000
vn 0.000000 0.000000 1.000000
vn 0.000000 0.000000 1.000000
vn 0.000000 0.000000 1.000000
vn 0.860436 0.509559 0.000000
vn 0.860436 0.509559 0.000000
vn 0.739921 0.672693 0.000000
vn 0.739921 0.672693 0.000000
vn 0.000000 0.000000 -1.000000
vn 0.000000 0.000000 -1.000000
vn 0.000000 0.000000 -1.000000
vn 0.000000 0.000000 -1.000000
vn -0.616822 -0.787103 0.000000
vn -0.616822 -0.787103 0.000000
vn 0.965227 -0.261411 0.000000
vn 0.965227 -0.261411 0.000000
vn 0.000000 0.000000 1.000000
vn 0.000000 0.000000 1.000000
vn 0.000000 0.000000 1.000000
vn 0.000000 0.000000 1.000000
vn 0.739921 0.672693 0.000000
vn 0.739921 0.672693 0.000000
vn 0.000000 1.000000 0.000000
vn 0.000000 1.000000 0.000000
vn 0.000000 0.000000 -1.000000
vn 0.000000 0.000000 -1.000000
vn 0.000000 0.000000 -1.000000
vn 0.000000 0.000000 -1.000000
vn 0.000000 -1.000000 0.000000
vn 0.000000 -1.000000 0.000000
vn -0.616822 -0.787103 0.000000
vn -0.616822 -0.787103 0.000000
vn 0.000000 0.000000 1.000000
vn 0.000000 0.000000 1.000000
vn 0.000000 0.000000 1.000000
vn 0.980766 -0.195186 0.000000
vn 0.980766 -0.195186 0.000000
vn -0.730284 -0.683144 0.000000
vn -0.730284 -0.683144 0.000000
vn 0.000000 0.000000 -1.000000
vn 0.000000 0.000000 -1.000000
vn 0.000000 0.000000 -1.000000
vn 0.000000 0.000000 1.000000
vn -0.000000 0.000000 1.000000
vn -0.000000 0.000000 1.000000
vn -0.000000 0.000000 -1.000000
vn -0.000000 0.000000 -1.000000
vn 0.000000 0.000000 -1.000000
vn -0.969796 0.243916 0.000000
vn -0.969796 0.243916 0.000000
vn 0.988896 0.148610 0.000000
vn 0.988896 0.148610 0.000000
vn -0.000000 0.000000 1.000000
vn -0.000000 0.000000 1.000000
vn 0.000000 0.000000 1.000000
vn 0.975912 -0.218165 0.000000
vn 0.975912 -0.218165 0.000000
vn -0.987661 -0.156605 0.000000
vn -0.987661 -0.156605 0.000000
vn -0.000000 0.000000 -1.000000
vn 0.000000 0.000000 -1.000000
vn -0.000000 0.000000 -1.000000
vn -0.985943 0.167081 0.000000
vn -0.985943 0.167081 0.000000
vn 0.860436 0.509559 0.000000
vn 0.860436 0.509559 0.000000
vn 0.000000 0.000000 1.000000
vn 0.000000 0.000000 1.000000
vn 0.000000 0.000000 1.000000
vn 0.000000 0.000000 -1.000000
vn 0.000000 0.000000 -1.000000
vn 0.000000 0.000000 -1.000000
s off
f 1/1/1 2/2/2 4/3/3 3/4/4
f 9/26/5 10/104/6 14/35/7 15/101/8
f 5/9/9 6/10/10 8/11/11 7/12/12
f 16/41/13 13/48/14 11/57/15 12/64/16
f 10/28/17 11/30/18 13/34/19 14/36/20
f 15/37/21 16/39/22 12/31/23 9/25/24
f 3/5/25 4/6/26 10/27/27 9/103/28
f 2/17/29 11/30/30 10/28/31 4/20/32
f 12/32/33 11/29/34 2/15/35 1/16/36
f 9/25/37 12/31/38 1/22/39 3/23/40
f 14/36/41 33/74/42 17/42/43 18/44/44
f 15/38/45 14/99/46 18/43/47 19/102/48
f 19/45/49 20/47/50 34/75/51 15/37/52
f 20/105/53 17/106/54 33/107/55 34/108/56
f 35/78/57 17/42/58 21/50/59 22/52/60
f 36/97/61 35/77/62 22/51/63 23/95/64
f 23/53/65 24/55/66 20/47/67 36/79/68
f 24/109/69 21/110/70 17/106/71 20/105/72
f 22/52/73 37/82/74 25/58/75 26/60/76
f 23/54/77 22/93/78 26/59/79 27/96/80
f 27/61/81 28/63/82 38/83/83 23/53/84
f 28/111/85 25/112/86 37/113/87 38/114/88
f 40/88/89 25/58/90 29/66/91 30/68/92
f 39/86/93 40/90/94 30/67/95 31/92/96
f 31/69/97 32/71/98 28/63/99 39/85/100
f 32/115/101 29/116/102 25/112/103 28/111/104
f 30/68/105 29/66/106 8/18/107 6/19/108
f 31/70/109 30/91/110 6/7/111 5/8/112
f 7/21/113 32/71/114 31/69/115 5/24/116
f 7/13/117 8/14/118 29/65/119 32/72/120
f 14/36/121 13/34/122 33/74/123
f 34/76/124 33/73/125 13/33/126 16/40/127
f 15/37/128 34/75/129 16/39/130
f 18/44/131 17/42/132 35/78/133
f 36/79/134 20/47/135 19/45/136
f 19/46/137 18/100/138 35/98/139 36/80/140
f 22/52/141 21/50/142 37/82/143
f 38/84/144 37/81/145 21/49/146 24/56/147
f 23/53/148 38/83/149 24/55/150
f 27/62/151 26/94/152 40/87/153 39/89/154
f 26/60/155 25/58/156 40/88/157
f 39/85/158 28/63/159 27/61/160
