# This file uses centimeters as units for non-parametric coordinates.

v 0.217245 0.438437 0.191242
v 0.439933 0.934311 0.191242
v 0.000000 0.438437 0.191242
v -0.224353 0.934311 0.191242
v -0.005168 0.934311 0.191242
v 0.108879 0.605510 0.191242
v 0.226098 0.934311 0.191242
v 0.108879 0.605510 0.000000
v 0.000000 0.438437 0.000000
v -0.224353 0.934311 0.000000
v -0.005168 0.934311 0.000000
v 0.217246 0.438437 0.000000
v 0.226098 0.934311 0.000000
v 0.439933 0.934311 0.000000
v 0.000000 0.000000 0.191242
v 0.217245 0.000000 0.191242
v 0.000000 0.000000 0.000000
v 0.217246 0.000000 0.000000
vt 0.351196 0.960333
vt 0.351196 0.960333
vt 0.385272 0.960338
vt 0.385272 0.960338
vt 0.351196 0.960333
vt 0.385272 0.960338
vt 0.385272 0.960338
vt 0.385272 0.960338
vt 0.385272 0.960338
vt 0.351196 0.960333
vt 0.612548 0.960335
vt 0.612548 0.960335
vt 0.612548 0.960335
vt 0.612548 0.960335
vt 0.612548 0.960335
vt 0.612548 0.960335
vt 0.612548 0.960335
vt 0.612548 0.960335
vt 0.612548 0.960335
vt 0.612548 0.960335
vt 0.612548 0.960335
vt 0.612548 0.960335
vt 0.612548 0.960335
vt 0.612548 0.960335
vt 0.867603 0.960335
vt 0.867603 0.960335
vt 0.867603 0.960335
vt 0.867603 0.960335
vt 0.385272 0.960338
vt 0.385272 0.960338
vt 0.385272 0.960338
vt 0.385272 0.960338
vt 0.385272 0.960338
vt 0.385272 0.960338
vt 0.385272 0.960338
vt 0.385272 0.960338
vt 0.385272 0.960338
vt 0.385272 0.960338
vt 0.890330 0.960330
vt 0.890330 0.960330
vt 0.890330 0.960330
vt 0.890330 0.960330
vt 0.142844 0.960338
vt 0.142844 0.960338
vt 0.142844 0.960338
vt 0.142844 0.960338
vt 0.603285 0.960313
vt 0.603285 0.960313
vt 0.603285 0.960313
vt 0.603285 0.960313
vt 0.603285 0.960313
vt 0.603285 0.960313
vt 0.603285 0.960313
vt 0.603285 0.960313
vt 0.351196 0.960333
vt 0.351196 0.960333
vt 0.351196 0.960333
vt 0.351196 0.960333
vn 0.000000 0.000000 -1.000000
vn 0.000000 0.000000 -1.000000
vn 0.000000 0.000000 -1.000000
vn 0.000000 0.000000 -1.000000
vn 0.000000 0.000000 -1.000000
vn 0.000000 0.000000 -1.000000
vn 0.000000 0.000000 -1.000000
vn 0.000000 0.000000 -1.000000
vn 0.000000 0.000000 -1.000000
vn 0.000000 0.000000 -1.000000
vn 0.000000 0.000000 -1.000000
vn 0.000000 0.000000 1.000000
vn 0.000000 0.000000 1.000000
vn 0.000000 0.000000 1.000000
vn 0.000000 0.000000 1.000000
vn 0.000000 0.000000 1.000000
vn 0.000000 0.000000 1.000000
vn 0.000000 0.000000 1.000000
vn 0.000000 0.000000 1.000000
vn 0.000000 0.000000 1.000000
vn 0.000000 0.000000 1.000000
vn 0.000000 0.000000 1.000000
vn -0.911088 -0.412212 0.000000
vn -0.911088 -0.412212 0.000000
vn -0.911088 -0.412212 0.000000
vn -0.911088 -0.412212 0.000000
vn 0.000000 1.000000 0.000000
vn 0.000000 1.000000 0.000000
vn 0.000000 1.000000 0.000000
vn 0.000000 1.000000 0.000000
vn 0.944781 0.327704 0.000000
vn 0.944781 0.327704 0.000000
vn 0.944781 0.327704 0.000000
vn 0.944781 0.327704 0.000000
vn 0.000000 -1.000000 0.000000
vn 0.000000 -1.000000 0.000000
vn 0.000000 -1.000000 0.000000
vn 0.000000 -1.000000 0.000000
vn -0.941932 0.335802 0.000000
vn -0.941932 0.335802 0.000000
vn -0.941932 0.335802 0.000000
vn -0.941932 0.335802 0.000000
vn 0.912235 -0.409667 0.000002
vn 0.912235 -0.409667 0.000002
vn 0.912235 -0.409667 0.000002
vn 0.912235 -0.409667 0.000002
vn 0.000000 1.000000 0.000000
vn 0.000000 1.000000 0.000000
vn 0.000000 1.000000 0.000000
vn 0.000000 1.000000 0.000000
vn 0.000000 0.000000 1.000000
vn 0.000000 0.000000 1.000000
vn 0.000000 0.000000 1.000000
vn 0.000000 0.000000 1.000000
vn -1.000000 0.000000 0.000000
vn -1.000000 0.000000 0.000000
vn -1.000000 0.000000 0.000000
vn -1.000000 0.000000 0.000000
vn 0.000000 0.000000 -1.000000
vn 0.000000 0.000000 -1.000000
vn 0.000000 0.000000 -1.000000
vn 0.000000 0.000000 -1.000000
vn 1.000000 0.000000 0.000005
vn 1.000000 0.000000 0.000005
vn 1.000000 0.000000 0.000005
vn 1.000000 0.000000 0.000005
s off
f 8/21/1 9/18/2 10/19/3 11/20/4
f 12/22/5 9/18/6 8/21/7
f 12/22/8 8/21/9 13/23/10 14/24/11
f 6/11/12 5/14/13 4/13/14 3/12/15
f 1/15/16 6/11/17 3/12/18
f 1/15/19 2/17/20 7/16/21 6/11/22
f 3/3/23 4/4/24 10/6/25 9/7/26
f 4/25/27 5/26/28 11/27/29 10/28/30
f 5/8/31 6/9/32 8/29/33 11/30/34
f 16/43/35 15/44/36 17/45/37 18/46/38
f 6/31/39 7/32/40 13/33/41 8/34/42
f 2/35/43 1/36/44 12/37/45 14/38/46
f 2/39/47 14/40/48 13/41/49 7/42/50
f 1/47/51 3/48/52 15/49/53 16/50/54
f 3/1/55 9/2/56 17/5/57 15/10/58
f 9/51/59 12/52/60 18/53/61 17/54/62
f 12/55/63 1/56/64 16/57/65 18/58/66
