# This file uses centimeters as units for non-parametric coordinates.

v 0.000000 0.000000 0.191242
v 0.000000 0.946110 0.191242
v 0.572468 0.825582 0.191242
v 0.572468 0.120527 0.191242
v 0.408071 0.946109 0.191242
v 0.408071 0.000000 0.191242
v 0.572468 0.582515 0.191242
v 0.474794 0.473055 0.191242
v 0.572468 0.373134 0.191242
v 0.215028 0.776266 0.191242
v 0.215028 0.549396 0.191242
v 0.342132 0.776266 0.191242
v 0.342132 0.549396 0.191242
v 0.215028 0.402598 0.191242
v 0.215028 0.192409 0.191242
v 0.342132 0.402598 0.191242
v 0.342132 0.192409 0.191242
v 0.342132 0.776266 0.000000
v 0.572468 0.825582 0.000000
v 0.408071 0.946109 0.000000
v 0.000000 0.946110 0.000000
v 0.215028 0.776266 0.000000
v 0.215028 0.192409 0.000000
v 0.000000 0.000000 0.000000
v 0.215028 0.402598 0.000000
v 0.215028 0.549396 0.000000
v 0.342132 0.549396 0.000000
v 0.474794 0.473055 0.000000
v 0.572468 0.582515 0.000000
v 0.342132 0.402598 0.000000
v 0.572468 0.373134 0.000000
v 0.572468 0.120527 0.000000
v 0.342132 0.192409 0.000000
v 0.408071 0.000000 0.000000
vt 0.130217 0.960343
vt 0.130217 0.960343
vt 0.400423 0.960338
vt 0.400423 0.960338
vt 0.900432 0.960325
vt 0.130217 0.960343
vt 0.130217 0.960343
vt 0.130217 0.960343
vt 0.400423 0.960338
vt 0.130217 0.960343
vt 0.400423 0.960338
vt 0.130217 0.960343
vt 0.400423 0.960338
vt 0.130217 0.960343
vt 0.400423 0.960338
vt 0.130217 0.960343
vt 0.400423 0.960338
vt 0.630225 0.960340
vt 0.630225 0.960340
vt 0.630225 0.960340
vt 0.630225 0.960340
vt 0.630225 0.960340
vt 0.630225 0.960340
vt 0.630225 0.960340
vt 0.630225 0.960340
vt 0.630225 0.960340
vt 0.630225 0.960340
vt 0.630225 0.960340
vt 0.630225 0.960340
vt 0.630225 0.960340
vt 0.630225 0.960340
vt 0.630225 0.960340
vt 0.630225 0.960340
vt 0.630225 0.960340
vt 0.630225 0.960340
vt 0.630225 0.960340
vt 0.630225 0.960340
vt 0.630225 0.960340
vt 0.630225 0.960340
vt 0.630225 0.960340
vt 0.630225 0.960340
vt 0.630225 0.960340
vt 0.630225 0.960340
vt 0.630225 0.960340
vt 0.630225 0.960340
vt 0.630225 0.960340
vt 0.630225 0.960340
vt 0.630225 0.960340
vt 0.630225 0.960340
vt 0.630225 0.960340
vt 0.630225 0.960340
vt 0.900432 0.960325
vt 0.900432 0.960325
vt 0.900432 0.960325
vt 0.900432 0.960325
vt 0.900432 0.960325
vt 0.900432 0.960325
vt 0.900432 0.960325
vt 0.900432 0.960325
vt 0.900432 0.960325
vt 0.900432 0.960325
vt 0.900432 0.960325
vt 0.900432 0.960325
vt 0.900432 0.960325
vt 0.900432 0.960325
vt 0.900432 0.960325
vt 0.900432 0.960325
vt 0.900432 0.960325
vt 0.400423 0.960338
vt 0.400423 0.960338
vt 0.400423 0.960338
vt 0.400423 0.960338
vt 0.400423 0.960338
vt 0.400423 0.960338
vt 0.400423 0.960338
vt 0.400423 0.960338
vt 0.400423 0.960338
vt 0.400423 0.960338
vt 0.400423 0.960338
vt 0.400423 0.960338
vt 0.400423 0.960338
vt 0.400423 0.960338
vt 0.400423 0.960338
vt 0.400423 0.960338
vt 0.400423 0.960338
vt 0.400423 0.960338
vt 0.400423 0.960338
vt 0.400423 0.960338
vt 0.400423 0.960338
vt 0.130217 0.960343
vt 0.130217 0.960343
vt 0.130217 0.960343
vt 0.130217 0.960343
vt 0.130217 0.960343
vt 0.130217 0.960343
vt 0.130217 0.960343
vt 0.130217 0.960343
vt 0.130217 0.960343
vn 0.000000 0.000000 -1.000000
vn 0.000000 0.000000 -1.000000
vn 0.000000 0.000000 -1.000000
vn 0.000000 0.000000 -1.000000
vn 0.000000 0.000000 -1.000000
vn 0.000000 0.000000 -1.000000
vn 0.000000 0.000000 -1.000000
vn 0.000000 0.000000 -1.000000
vn 0.000000 0.000000 -1.000000
vn 0.000000 0.000000 -1.000000
vn 0.000000 0.000000 -1.000000
vn 0.000000 0.000000 -1.000000
vn 0.000000 0.000000 -1.000000
vn 0.000000 0.000000 -1.000000
vn 0.000000 0.000000 -1.000000
vn 0.000000 0.000000 -1.000000
vn 0.000000 0.000000 -1.000000
vn 0.000000 0.000000 -1.000000
vn 0.000000 0.000000 -1.000000
vn 0.000000 0.000000 -1.000000
vn 0.000000 0.000000 -1.000000
vn 0.000000 0.000000 -1.000000
vn 0.000000 0.000000 -1.000000
vn 0.000000 0.000000 -1.000000
vn 0.000000 0.000000 -1.000000
vn 0.000000 0.000000 -1.000000
vn 0.000000 0.000000 -1.000000
vn 0.000000 0.000000 -1.000000
vn 0.000000 0.000000 -1.000000
vn 0.000000 0.000000 -1.000000
vn 0.000000 0.000000 -1.000000
vn 0.000000 0.000000 1.000000
vn 0.000000 0.000000 1.000000
vn 0.000000 0.000000 1.000000
vn 0.000000 0.000000 1.000000
vn 0.000000 0.000000 1.000000
vn 0.000000 0.000000 1.000000
vn 0.000000 0.000000 1.000000
vn 0.000000 0.000000 1.000000
vn 0.000000 0.000000 1.000000
vn 0.000000 0.000000 1.000000
vn 0.000000 0.000000 1.000000
vn 0.000000 0.000000 1.000000
vn 0.000000 0.000000 1.000000
vn 0.000000 0.000000 1.000000
vn 0.000000 0.000000 1.000000
vn 0.000000 0.000000 1.000000
vn 0.000000 0.000000 1.000000
vn 0.000000 0.000000 1.000000
vn 0.000000 0.000000 1.000000
vn 0.000000 0.000000 1.000000
vn 0.000000 0.000000 1.000000
vn -0.000000 0.000000 1.000000
vn -0.000000 0.000000 1.000000
vn -0.000000 0.000000 1.000000
vn -0.000000 0.000000 1.000000
vn -0.000000 0.000000 1.000000
vn -0.000000 0.000000 1.000000
vn -0.000000 0.000000 1.000000
vn -0.000000 0.000000 1.000000
vn -0.000000 0.000000 1.000000
vn -0.000000 0.000000 1.000000
vn 0.591265 0.806478 0.000000
vn 0.591265 0.806478 0.000000
vn 0.591265 0.806478 0.000000
vn 0.591265 0.806478 0.000000
vn 0.000001 1.000000 0.000000
vn 0.000001 1.000000 0.000000
vn 0.000001 1.000000 0.000000
vn 0.000001 1.000000 0.000000
vn 0.000000 -1.000000 0.000000
vn 0.000000 -1.000000 0.000000
vn 0.000000 -1.000000 0.000000
vn 0.000000 -1.000000 0.000000
vn 1.000000 0.000000 0.000000
vn 1.000000 0.000000 0.000000
vn 1.000000 0.000000 0.000000
vn 1.000000 0.000000 0.000000
vn 1.000000 0.000000 0.000000
vn 1.000000 0.000000 0.000000
vn 1.000000 0.000000 0.000000
vn 1.000000 0.000000 0.000000
vn -1.000000 0.000000 0.000000
vn -1.000000 0.000000 0.000000
vn -1.000000 0.000000 0.000000
vn -1.000000 0.000000 0.000000
vn 0.746135 -0.665794 0.000000
vn 0.746135 -0.665794 0.000000
vn 0.746135 -0.665794 0.000000
vn 0.746135 -0.665794 0.000000
vn 1.000000 0.000000 0.000000
vn 1.000000 0.000000 0.000000
vn 1.000000 0.000000 0.000000
vn 1.000000 0.000000 0.000000
vn -1.000000 0.000000 0.000000
vn -1.000000 0.000000 0.000000
vn -1.000000 0.000000 0.000000
vn -1.000000 0.000000 0.000000
vn 0.000000 1.000000 0.000000
vn 0.000000 1.000000 0.000000
vn 0.000000 1.000000 0.000000
vn 0.000000 1.000000 0.000000
vn 0.000000 -1.000000 0.000000
vn 0.000000 -1.000000 0.000000
vn 0.000000 -1.000000 0.000000
vn 0.000000 -1.000000 0.000000
vn 1.000000 0.000000 0.000000
vn 1.000000 0.000000 0.000000
vn 1.000000 0.000000 0.000000
vn 1.000000 0.000000 0.000000
vn 0.715099 0.699023 0.000000
vn 0.715099 0.699023 0.000000
vn 0.715099 0.699023 0.000000
vn 0.715099 0.699023 0.000000
vn -1.000000 0.000000 0.000000
vn -1.000000 0.000000 0.000000
vn -1.000000 0.000000 0.000000
vn -1.000000 0.000000 0.000000
vn 0.000000 1.000000 0.000000
vn 0.000000 1.000000 0.000000
vn 0.000000 1.000000 0.000000
vn 0.000000 1.000000 0.000000
vn 0.000000 -1.000000 0.000000
vn 0.000000 -1.000000 0.000000
vn 0.000000 -1.000000 0.000000
vn 0.000000 -1.000000 0.000000
vn 0.591264 -0.806478 0.000000
vn 0.591264 -0.806478 0.000000
vn 0.591264 -0.806478 0.000000
vn 0.591264 -0.806478 0.000000
s off
f 18/39/1 22/38/2 21/37/3 20/36/4 19/35/5
f 24/43/6 21/37/7 22/38/8 26/42/9 25/41/10 23/40/11
f 27/46/12 18/39/13 19/35/14 29/45/15 28/44/16
f 30/47/17 25/41/18 26/42/19 27/46/20 28/44/21
f 32/48/22 33/50/23 30/47/24 28/44/25 31/49/26
f 32/48/27 34/51/28 24/43/29 23/40/30 33/50/31
f 12/18/32 3/19/33 5/20/34 2/21/35 10/22/36
f 1/23/37 15/24/38 14/25/39 11/26/40 10/22/41 2/21/42
f 13/27/43 8/28/44 7/29/45 3/19/46 12/18/47
f 16/30/48 8/28/49 13/27/50 11/26/51 14/25/52
f 4/31/53 9/32/54 8/28/55 16/30/56 17/33/57
f 4/31/58 17/33/59 15/24/60 1/23/61 6/34/62
f 3/5/63 19/54/64 20/53/65 5/52/66
f 5/52/67 20/53/68 21/56/69 2/55/70
f 10/1/71 22/7/72 18/6/73 12/2/74
f 15/3/75 23/11/76 25/9/77 14/4/78
f 11/13/79 26/69/80 22/17/81 10/15/82
f 2/70/83 21/73/84 24/72/85 1/71/86
f 8/8/87 28/14/88 29/12/89 7/10/90
f 7/74/91 29/77/92 19/76/93 3/75/94
f 12/78/95 18/81/96 27/80/97 13/79/98
f 13/57/99 27/60/100 26/59/101 11/58/102
f 14/16/103 25/92/104 30/91/105 16/90/106
f 4/82/107 32/85/108 31/84/109 9/83/110
f 9/61/111 31/64/112 28/63/113 8/62/114
f 16/86/115 30/89/116 33/88/117 17/87/118
f 17/65/119 33/68/120 23/67/121 15/66/122
f 1/93/123 24/96/124 34/95/125 6/94/126
f 6/94/127 34/95/128 32/98/129 4/97/130
