# This file uses centimeters as units for non-parametric coordinates.

v 0.374316 0.000000 0.191242
v 0.583366 0.000000 0.191242
v 0.797843 0.957730 0.191242
v 0.556123 0.957730 0.191242
v 0.480732 0.389177 0.191242
v 0.372136 0.957730 0.191242
v 0.480732 0.389177 0.000000
v 0.583366 0.000000 0.000000
v 0.797843 0.957730 0.000000
v 0.556123 0.957730 0.000000
v 0.374316 0.000000 0.000000
v 0.372136 0.957730 0.000000
v 0.291683 0.478865 0.191242
v 0.291683 0.478865 0.000000
v 0.209050 0.000000 0.191242
v 0.000000 0.000000 0.191242
v -0.214477 0.957730 0.191242
v 0.027244 0.957730 0.191242
v 0.102634 0.389177 0.191242
v 0.211230 0.957730 0.191242
v 0.102634 0.389177 0.000000
v 0.000000 0.000000 0.000000
v -0.214477 0.957730 0.000000
v 0.027244 0.957730 0.000000
v 0.209050 0.000000 0.000000
v 0.211230 0.957730 0.000000
vt 0.142844 0.960338
vt 0.142844 0.960338
vt 0.385272 0.960338
vt 0.385272 0.960338
vt 0.142844 0.960338
vt 0.385272 0.960338
vt 0.385272 0.960338
vt 0.385272 0.960338
vt 0.385272 0.960338
vt 0.142844 0.960338
vt 0.612548 0.960335
vt 0.612548 0.960335
vt 0.612548 0.960335
vt 0.612548 0.960335
vt 0.612548 0.960335
vt 0.612548 0.960335
vt 0.612548 0.960335
vt 0.612548 0.960335
vt 0.612548 0.960335
vt 0.612548 0.960335
vt 0.612548 0.960335
vt 0.612548 0.960335
vt 0.867603 0.960335
vt 0.867603 0.960335
vt 0.867603 0.960335
vt 0.867603 0.960335
vt 0.385272 0.960338
vt 0.385272 0.960338
vt 0.385272 0.960338
vt 0.385272 0.960338
vt 0.385272 0.960338
vt 0.385272 0.960338
vt 0.385272 0.960338
vt 0.385272 0.960338
vt 0.890330 0.960330
vt 0.890330 0.960330
vt 0.385272 0.960338
vt 0.385272 0.960338
vt 0.612548 0.960335
vt 0.612548 0.960335
vt 0.612548 0.960335
vt 0.612548 0.960335
vt 0.612548 0.960335
vt 0.612548 0.960335
vt 0.612548 0.960335
vt 0.612548 0.960335
vt 0.612548 0.960335
vt 0.612548 0.960335
vt 0.612548 0.960335
vt 0.612548 0.960335
vt 0.612548 0.960335
vt 0.612548 0.960335
vt 0.385272 0.960338
vt 0.385272 0.960338
vt 0.385272 0.960338
vt 0.385272 0.960338
vt 0.867603 0.960335
vt 0.867603 0.960335
vt 0.867603 0.960335
vt 0.867603 0.960335
vt 0.385272 0.960338
vt 0.385272 0.960338
vt 0.385272 0.960338
vt 0.385272 0.960338
vt 0.142844 0.960338
vt 0.142844 0.960338
vt 0.142844 0.960338
vt 0.142844 0.960338
vt 0.385272 0.960338
vt 0.385272 0.960338
vt 0.385272 0.960338
vt 0.385272 0.960338
vt 0.890330 0.960330
vt 0.890330 0.960330
vt 0.385272 0.960338
vt 0.385272 0.960338
vt 0.385272 0.960338
vt 0.385272 0.960338
vn 0.000000 0.000000 -1.000000
vn 0.000000 0.000000 -1.000000
vn 0.000000 0.000000 -1.000000
vn 0.000000 0.000000 -1.000000
vn 0.000000 0.000000 -1.000000
vn 0.000000 0.000000 -1.000000
vn 0.000000 0.000000 -1.000000
vn 0.000000 0.000000 1.000000
vn 0.000000 0.000000 1.000000
vn 0.000000 0.000000 1.000000
vn 0.000000 0.000000 1.000000
vn 0.000000 0.000000 1.000000
vn 0.000000 0.000000 1.000000
vn 0.000000 0.000000 1.000000
vn -0.000000 0.000000 1.000000
vn -0.000000 0.000000 1.000000
vn -0.000000 0.000000 1.000000
vn -0.000000 0.000000 1.000000
vn 0.975830 -0.218530 0.000000
vn 0.975830 -0.218530 0.000000
vn 0.975830 -0.218530 0.000000
vn 0.975830 -0.218530 0.000000
vn 0.000000 1.000000 0.000000
vn 0.000000 1.000000 0.000000
vn 0.000000 1.000000 0.000000
vn 0.000000 1.000000 0.000000
vn -0.991323 0.131451 0.000000
vn -0.991323 0.131451 0.000000
vn -0.991323 0.131451 0.000000
vn -0.991323 0.131451 0.000000
vn 0.000000 -1.000000 0.000000
vn 0.000000 -1.000000 0.000000
vn 0.000000 -1.000000 0.000000
vn 0.000000 -1.000000 0.000000
vn 0.982243 0.187612 0.000000
vn 0.982243 0.187612 0.000000
vn 0.982243 0.187612 0.000000
vn 0.982243 0.187612 0.000000
vn 0.000000 1.000000 0.000000
vn 0.000000 1.000000 0.000000
vn 0.000000 1.000000 0.000000
vn 0.000000 1.000000 0.000000
vn -0.985436 -0.170047 0.000000
vn -0.985436 -0.170047 0.000000
vn -0.985436 -0.170047 0.000000
vn -0.985436 -0.170047 0.000000
vn 0.000000 0.000000 -1.000000
vn 0.000000 0.000000 -1.000000
vn 0.000000 0.000000 -1.000000
vn 0.000000 0.000000 -1.000000
vn 0.000000 0.000000 -1.000000
vn 0.000000 0.000000 -1.000000
vn 0.000000 0.000000 -1.000000
vn 0.000000 0.000000 -1.000000
vn 0.000000 0.000000 -1.000000
vn 0.000000 0.000000 -1.000000
vn 0.000000 0.000000 -1.000000
vn -0.000000 0.000000 1.000000
vn -0.000000 0.000000 1.000000
vn -0.000000 0.000000 1.000000
vn -0.000000 0.000000 1.000000
vn 0.000000 0.000000 1.000000
vn 0.000000 0.000000 1.000000
vn 0.000000 0.000000 1.000000
vn -0.975830 -0.218530 0.000000
vn -0.975830 -0.218530 0.000000
vn -0.975830 -0.218530 0.000000
vn -0.975830 -0.218530 0.000000
vn 0.000000 1.000000 0.000000
vn 0.000000 1.000000 0.000000
vn 0.000000 1.000000 0.000000
vn 0.000000 1.000000 0.000000
vn 0.991323 0.131451 0.000000
vn 0.991323 0.131451 0.000000
vn 0.991323 0.131451 0.000000
vn 0.991323 0.131451 0.000000
vn 0.000000 -1.000000 0.000000
vn 0.000000 -1.000000 0.000000
vn 0.000000 -1.000000 0.000000
vn 0.000000 -1.000000 0.000000
vn -0.982243 0.187613 0.000000
vn -0.982243 0.187613 0.000000
vn -0.982243 0.187613 0.000000
vn -0.982243 0.187613 0.000000
vn 0.985436 -0.170047 0.000000
vn 0.985436 -0.170047 0.000000
vn 0.985436 -0.170047 0.000000
vn 0.985436 -0.170047 0.000000
vn 0.000000 0.000000 1.000000
vn 0.000000 0.000000 1.000000
vn 0.000000 0.000000 1.000000
vn 0.000000 0.000000 1.000000
vn 0.000000 0.000000 1.000000
vn 0.000000 0.000000 1.000000
vn 0.000000 0.000000 1.000000
vn 0.000000 0.000000 -1.000000
vn 0.000000 0.000000 -1.000000
vn 0.000000 0.000000 -1.000000
vn 0.000000 0.000000 -1.000000
vn 0.000000 0.000000 -1.000000
vn 0.000000 0.000000 -1.000000
vn 0.000000 0.000000 -1.000000
s off
f 7/20/1 10/19/2 9/18/3 8/17/4
f 11/21/5 7/20/6 8/17/7
f 5/11/8 2/12/9 3/13/10 4/14/11
f 1/15/12 2/12/13 5/11/14
f 6/16/15 13/52/16 1/15/17 5/11/18
f 2/3/19 8/7/20 9/6/21 3/4/22
f 3/23/23 9/26/24 10/25/25 4/24/26
f 4/8/27 10/28/28 7/27/29 5/9/30
f 1/1/31 11/10/32 8/5/33 2/2/34
f 5/29/35 7/32/36 12/31/37 6/30/38
f 12/35/39 26/74/40 20/73/41 6/36/42
f 14/38/43 11/34/44 1/33/45 13/37/46
f 21/40/47 22/43/48 23/42/49 24/41/50
f 25/44/51 22/43/52 21/40/53
f 14/39/54 25/44/55 21/40/56 26/45/57
f 19/46/58 18/49/59 17/48/60 16/47/61
f 15/50/62 19/46/63 16/47/64
f 16/53/65 17/56/66 23/55/67 22/54/68
f 17/57/69 18/60/70 24/59/71 23/58/72
f 18/61/73 19/64/74 21/63/75 24/62/76
f 15/65/77 16/68/78 22/67/79 25/66/80
f 19/69/81 20/72/82 26/71/83 21/70/84
f 14/75/85 13/78/86 15/77/87 25/76/88
f 6/16/89 20/51/90 13/52/91
f 20/51/92 19/46/93 15/50/94 13/52/95
f 12/22/96 14/39/97 26/45/98
f 12/22/99 7/20/100 11/21/101 14/39/102
