# This file uses centimeters as units for non-parametric coordinates.

v -0.185883 0.955462 0.191242
v 0.402834 0.955462 0.191242
v -0.185883 0.762892 0.191242
v 0.000000 0.000000 0.191242
v 0.000000 0.762892 0.191242
v 0.220084 0.000000 0.191242
v 0.402834 0.762892 0.191242
v 0.220084 0.762892 0.191242
v -0.185883 0.762892 0.000000
v 0.000000 0.762892 0.000000
v 0.220084 0.762892 0.000000
v 0.402834 0.762892 0.000000
v 0.402834 0.955462 0.000000
v -0.185883 0.955462 0.000000
v 0.000000 0.000000 0.000000
v 0.220084 0.000000 0.000000
vt 0.351196 0.960318
vt 0.351196 0.960318
vt 0.351196 0.960318
vt 0.351196 0.960318
vt 0.351196 0.960318
vt 0.351196 0.960318
vt 0.351196 0.960318
vt 0.351196 0.960318
vt 0.620417 0.960332
vt 0.620417 0.960332
vt 0.620417 0.960332
vt 0.620417 0.960332
vt 0.620417 0.960332
vt 0.620417 0.960332
vt 0.620417 0.960332
vt 0.620417 0.960332
vt 0.620417 0.960332
vt 0.620417 0.960332
vt 0.620417 0.960332
vt 0.620417 0.960332
vt 0.620417 0.960332
vt 0.620417 0.960332
vt 0.620417 0.960332
vt 0.620417 0.960332
vt 0.875657 0.960324
vt 0.875657 0.960324
vt 0.875657 0.960324
vt 0.875657 0.960324
vt 0.119390 0.960336
vt 0.119390 0.960336
vt 0.119390 0.960336
vt 0.119390 0.960336
vt 0.119390 0.960336
vt 0.119390 0.960336
vt 0.119390 0.960336
vt 0.119390 0.960336
vt 0.119390 0.960336
vt 0.119390 0.960336
vt 0.119390 0.960336
vt 0.119390 0.960336
vt 0.351196 0.960318
vt 0.351196 0.960318
vt 0.351196 0.960318
vt 0.351196 0.960318
vt 0.351196 0.960318
vt 0.351196 0.960318
vt 0.351196 0.960318
vt 0.351196 0.960318
vn 0.000000 0.000000 -1.000000
vn 0.000000 0.000000 -1.000000
vn 0.000000 0.000000 -1.000000
vn 0.000000 0.000000 -1.000000
vn 0.000000 0.000000 -1.000000
vn 0.000000 0.000000 -1.000000
vn 0.000000 0.000000 -1.000000
vn 0.000000 0.000000 -1.000000
vn 0.000000 0.000000 -1.000000
vn 0.000000 0.000000 -1.000000
vn 0.000000 0.000000 1.000000
vn 0.000000 0.000000 1.000000
vn 0.000000 0.000000 1.000000
vn 0.000000 0.000000 1.000000
vn 0.000000 0.000000 1.000000
vn 0.000000 0.000000 1.000000
vn 0.000000 0.000000 1.000000
vn 0.000000 0.000000 1.000000
vn 0.000000 0.000000 1.000000
vn 0.000000 0.000000 1.000000
vn 0.000000 -1.000000 0.000000
vn 0.000000 -1.000000 0.000000
vn 0.000000 -1.000000 0.000000
vn 0.000000 -1.000000 0.000000
vn 0.000000 -1.000000 0.000000
vn 0.000000 -1.000000 0.000000
vn 0.000000 -1.000000 0.000000
vn 0.000000 -1.000000 0.000000
vn 1.000000 0.000000 0.000000
vn 1.000000 0.000000 0.000000
vn 1.000000 0.000000 0.000000
vn 1.000000 0.000000 0.000000
vn 0.000000 1.000000 0.000000
vn 0.000000 1.000000 0.000000
vn 0.000000 1.000000 0.000000
vn 0.000000 1.000000 0.000000
vn -1.000000 0.000000 0.000000
vn -1.000000 0.000000 0.000000
vn -1.000000 0.000000 0.000000
vn -1.000000 0.000000 0.000000
vn -1.000000 0.000000 0.000000
vn -1.000000 0.000000 0.000000
vn -1.000000 0.000000 0.000000
vn -1.000000 0.000000 0.000000
vn 0.000000 -1.000000 0.000000
vn 0.000000 -1.000000 0.000000
vn 0.000000 -1.000000 0.000000
vn 0.000000 -1.000000 0.000000
vn 1.000000 0.000000 0.000000
vn 1.000000 0.000000 0.000000
vn 1.000000 0.000000 0.000000
vn 1.000000 0.000000 0.000000
s off
f 9/17/1 14/22/2 13/21/3 12/20/4 11/19/5 10/18/6
f 11/19/7 16/24/8 15/23/9 10/18/10
f 3/9/11 5/10/12 8/11/13 7/12/14 2/13/15 1/14/16
f 8/11/17 5/10/18 4/15/19 6/16/20
f 3/29/21 9/32/22 10/31/23 5/30/24
f 8/33/25 11/36/26 12/35/27 7/34/28
f 7/1/29 12/4/30 13/3/31 2/2/32
f 2/25/33 13/28/34 14/27/35 1/26/36
f 1/5/37 14/8/38 9/7/39 3/6/40
f 5/41/41 10/44/42 15/43/43 4/42/44
f 4/37/45 15/40/46 16/39/47 6/38/48
f 6/45/49 16/48/50 11/47/51 8/46/52
