# This file uses centimeters as units for non-parametric coordinates.

v 0.000000 0.000000 0.191242
v 0.000000 0.943113 0.191242
v 0.446631 0.943113 0.191242
v 0.446631 0.000000 0.191242
v 0.446631 0.760562 0.191242
v 0.446631 0.187580 0.191242
v 0.213546 0.187580 0.191242
v 0.213546 0.399795 0.191242
v 0.371529 0.399795 0.191242
v 0.371529 0.570747 0.191242
v 0.213546 0.570747 0.191242
v 0.213546 0.760562 0.191242
v 0.446631 0.000000 0.000000
v 0.000000 0.000000 0.000000
v 0.446631 0.187580 0.000000
v 0.213546 0.187580 0.000000
v 0.213546 0.760562 0.000000
v 0.000000 0.943113 0.000000
v 0.446631 0.760562 0.000000
v 0.446631 0.943113 0.000000
v 0.213546 0.399795 0.000000
v 0.213546 0.570747 0.000000
v 0.371529 0.399795 0.000000
v 0.371529 0.570747 0.000000
vt 0.135268 0.960323
vt 0.135268 0.960323
vt 0.380221 0.960343
vt 0.380221 0.960343
vt 0.609165 0.960322
vt 0.380221 0.960343
vt 0.380221 0.960343
vt 0.609165 0.960322
vt 0.135268 0.960323
vt 0.380221 0.960343
vt 0.380221 0.960343
vt 0.135268 0.960323
vt 0.592346 0.960338
vt 0.592346 0.960338
vt 0.592346 0.960338
vt 0.592346 0.960338
vt 0.592346 0.960338
vt 0.592346 0.960338
vt 0.592346 0.960338
vt 0.592346 0.960338
vt 0.592346 0.960338
vt 0.592346 0.960338
vt 0.592346 0.960338
vt 0.592346 0.960338
vt 0.592346 0.960338
vt 0.135268 0.960323
vt 0.135268 0.960323
vt 0.592346 0.960338
vt 0.592346 0.960338
vt 0.592346 0.960338
vt 0.592346 0.960338
vt 0.592346 0.960338
vt 0.592346 0.960338
vt 0.592346 0.960338
vt 0.592346 0.960338
vt 0.592346 0.960338
vt 0.885280 0.960323
vt 0.885280 0.960323
vt 0.885280 0.960323
vt 0.885280 0.960323
vt 0.885280 0.960323
vt 0.885280 0.960323
vt 0.885280 0.960323
vt 0.885280 0.960323
vt 0.885280 0.960323
vt 0.885280 0.960323
vt 0.885280 0.960323
vt 0.885280 0.960323
vt 0.380221 0.960343
vt 0.380221 0.960343
vt 0.380221 0.960343
vt 0.380221 0.960343
vt 0.380221 0.960343
vt 0.380221 0.960343
vt 0.380221 0.960343
vt 0.380221 0.960343
vt 0.380221 0.960343
vt 0.380221 0.960343
vt 0.380221 0.960343
vt 0.380221 0.960343
vt 0.380221 0.960343
vt 0.380221 0.960343
vt 0.380221 0.960343
vt 0.380221 0.960343
vt 0.380221 0.960343
vt 0.380221 0.960343
vt 0.135268 0.960323
vt 0.135268 0.960323
vt 0.135268 0.960323
vt 0.135268 0.960323
vt 0.135268 0.960323
vt 0.135268 0.960323
vt 0.609165 0.960322
vt 0.609165 0.960322
vn 0.000000 0.000000 -1.000000
vn 0.000000 0.000000 -1.000000
vn 0.000000 0.000000 -1.000000
vn 0.000000 0.000000 -1.000000
vn 0.000000 0.000000 -1.000000
vn 0.000000 0.000000 -1.000000
vn 0.000000 0.000000 -1.000000
vn 0.000000 0.000000 -1.000000
vn 0.000000 0.000000 -1.000000
vn 0.000000 0.000000 -1.000000
vn 0.000000 0.000000 -1.000000
vn 0.000000 0.000000 -1.000000
vn 0.000000 0.000000 -1.000000
vn 0.000000 0.000000 -1.000000
vn 0.000000 0.000000 -1.000000
vn 0.000000 0.000000 -1.000000
vn 0.000000 0.000000 -1.000000
vn 0.000000 0.000000 -1.000000
vn 0.000000 0.000000 1.000000
vn 0.000000 0.000000 1.000000
vn 0.000000 0.000000 1.000000
vn 0.000000 0.000000 1.000000
vn 0.000000 0.000000 1.000000
vn 0.000000 0.000000 1.000000
vn 0.000000 0.000000 1.000000
vn 0.000000 0.000000 1.000000
vn 0.000000 0.000000 1.000000
vn 0.000000 0.000000 1.000000
vn 0.000000 0.000000 1.000000
vn 0.000000 0.000000 1.000000
vn 0.000000 0.000000 1.000000
vn 0.000000 0.000000 1.000000
vn 0.000000 0.000000 1.000000
vn 0.000000 0.000000 1.000000
vn 0.000000 0.000000 1.000000
vn 0.000000 0.000000 1.000000
vn 0.000000 -1.000000 0.000000
vn 0.000000 -1.000000 0.000000
vn 0.000000 -1.000000 0.000000
vn 0.000000 -1.000000 0.000000
vn 1.000000 0.000000 0.000000
vn 1.000000 0.000000 0.000000
vn 1.000000 0.000000 0.000000
vn 1.000000 0.000000 0.000000
vn 0.000000 1.000000 0.000000
vn 0.000000 1.000000 0.000000
vn 0.000000 1.000000 0.000000
vn 0.000000 1.000000 0.000000
vn 0.000000 -1.000000 0.000000
vn 0.000000 -1.000000 0.000000
vn 0.000000 -1.000000 0.000000
vn 0.000000 -1.000000 0.000000
vn 1.000000 0.000000 0.000000
vn 1.000000 0.000000 0.000000
vn 1.000000 0.000000 0.000000
vn 1.000000 0.000000 0.000000
vn 0.000000 1.000000 0.000000
vn 0.000000 1.000000 0.000000
vn 0.000000 1.000000 0.000000
vn 0.000000 1.000000 0.000000
vn 1.000000 0.000000 0.000000
vn 1.000000 0.000000 0.000000
vn 1.000000 0.000000 0.000000
vn 1.000000 0.000000 0.000000
vn 1.000000 0.000000 0.000000
vn 1.000000 0.000000 0.000000
vn 1.000000 0.000000 0.000000
vn 1.000000 0.000000 0.000000
vn -1.000000 0.000000 0.000000
vn -1.000000 0.000000 0.000000
vn -1.000000 0.000000 0.000000
vn -1.000000 0.000000 0.000000
vn 0.000000 -1.000000 0.000000
vn 0.000000 -1.000000 0.000000
vn 0.000000 -1.000000 0.000000
vn 0.000000 -1.000000 0.000000
vn 1.000000 0.000000 0.000000
vn 1.000000 0.000000 0.000000
vn 1.000000 0.000000 0.000000
vn 1.000000 0.000000 0.000000
vn 0.000000 1.000000 0.000000
vn 0.000000 1.000000 0.000000
vn 0.000000 1.000000 0.000000
vn 0.000000 1.000000 0.000000
s off
f 14/5/1 16/74/2 15/73/3 13/8/4
f 18/32/5 20/31/6 19/30/7 17/29/8
f 14/25/9 18/32/10 17/29/11 22/34/12 21/33/13 16/28/14
f 22/34/15 24/36/16 23/35/17 21/33/18
f 1/13/19 4/14/20 6/15/21 7/16/22
f 2/17/23 12/18/24 5/19/25 3/20/26
f 1/13/27 7/16/28 8/21/29 11/22/30 12/18/31 2/17/32
f 11/22/33 8/21/34 9/23/35 10/24/36
f 1/9/37 14/1/38 13/2/39 4/12/40
f 4/3/41 13/7/42 15/6/43 6/4/44
f 6/37/45 15/40/46 16/39/47 7/38/48
f 12/26/49 17/68/50 19/67/51 5/27/52
f 5/10/53 19/50/54 20/49/55 3/11/56
f 3/41/57 20/44/58 18/43/59 2/42/60
f 7/51/61 16/54/62 21/53/63 8/52/64
f 11/55/65 22/58/66 17/57/67 12/56/68
f 2/59/69 18/62/70 14/61/71 1/60/72
f 8/69/73 21/72/74 23/71/75 9/70/76
f 9/63/77 23/66/78 24/65/79 10/64/80
f 10/45/81 24/48/82 22/47/83 11/46/84
