# This file uses centimeters as units for non-parametric coordinates.

v 0.000000 0.000000 0.191242
v 0.000000 0.951870 0.191242
v 0.430713 0.000000 0.191242
v 0.430713 0.183278 0.191242
v 0.203720 0.183278 0.191242
v 0.203720 0.951870 0.191242
v 0.430713 0.183278 0.000000
v 0.430713 0.000000 0.000000
v 0.000000 0.000000 0.000000
v 0.203720 0.183278 0.000000
v 0.203720 0.951870 0.000000
v 0.000000 0.951870 0.000000
vt 0.142844 0.960338
vt 0.142844 0.960338
vt 0.142844 0.960338
vt 0.142844 0.960338
vt 0.612548 0.960335
vt 0.612548 0.960335
vt 0.612548 0.960335
vt 0.612548 0.960335
vt 0.612548 0.960335
vt 0.612548 0.960335
vt 0.612548 0.960335
vt 0.612548 0.960335
vt 0.612548 0.960335
vt 0.612548 0.960335
vt 0.612548 0.960335
vt 0.612548 0.960335
vt 0.867603 0.960335
vt 0.867603 0.960335
vt 0.867603 0.960335
vt 0.867603 0.960335
vt 0.385272 0.960338
vt 0.385272 0.960338
vt 0.385272 0.960338
vt 0.385272 0.960338
vt 0.385272 0.960338
vt 0.385272 0.960338
vt 0.385272 0.960338
vt 0.385272 0.960338
vt 0.890330 0.960330
vt 0.890330 0.960330
vt 0.890330 0.960330
vt 0.890330 0.960330
vt 0.375171 0.960355
vt 0.375171 0.960355
vt 0.375171 0.960355
vt 0.375171 0.960355
vn 0.000000 0.000000 -1.000000
vn 0.000000 0.000000 -1.000000
vn 0.000000 0.000000 -1.000000
vn 0.000000 0.000000 -1.000000
vn 0.000000 0.000000 -1.000000
vn 0.000000 0.000000 -1.000000
vn 0.000000 0.000000 -1.000000
vn 0.000000 0.000000 -1.000000
vn 0.000000 0.000000 1.000000
vn 0.000000 0.000000 1.000000
vn 0.000000 0.000000 1.000000
vn 0.000000 0.000000 1.000000
vn 0.000000 0.000000 1.000000
vn 0.000000 0.000000 1.000000
vn 0.000000 0.000000 1.000000
vn 0.000000 0.000000 1.000000
vn 0.000000 -1.000000 0.000000
vn 0.000000 -1.000000 0.000000
vn 0.000000 -1.000000 0.000000
vn 0.000000 -1.000000 0.000000
vn 0.000000 1.000000 0.000000
vn 0.000000 1.000000 0.000000
vn 0.000000 1.000000 0.000000
vn 0.000000 1.000000 0.000000
vn 1.000000 0.000000 0.000000
vn 1.000000 0.000000 0.000000
vn 1.000000 0.000000 0.000000
vn 1.000000 0.000000 0.000000
vn -1.000000 0.000000 0.000000
vn -1.000000 0.000000 0.000000
vn -1.000000 0.000000 0.000000
vn -1.000000 0.000000 0.000000
vn 0.000000 1.000000 0.000000
vn 0.000000 1.000000 0.000000
vn 0.000000 1.000000 0.000000
vn 0.000000 1.000000 0.000000
vn 1.000000 0.000000 0.000000
vn 1.000000 0.000000 0.000000
vn 1.000000 0.000000 0.000000
vn 1.000000 0.000000 0.000000
s off
f 9/13/1 10/14/2 7/12/3 8/11/4
f 9/13/5 12/16/6 11/15/7 10/14/8
f 1/7/9 3/6/10 4/5/11 5/8/12
f 1/7/13 5/8/14 6/9/15 2/10/16
f 1/1/17 9/4/18 8/3/19 3/2/20
f 4/17/21 7/20/22 10/19/23 5/18/24
f 5/21/25 10/24/26 11/23/27 6/22/28
f 2/25/29 12/28/30 9/27/31 1/26/32
f 2/29/33 6/32/34 11/31/35 12/30/36
f 3/33/37 8/36/38 7/35/39 4/34/40
