# This file uses centimeters as units for non-parametric coordinates.

v -0.071735 0.078161 -0.100038
v -0.071735 0.078161 0.100038
v -0.071735 0.137513 -0.100038
v -0.071735 0.137513 0.100038
v 0.071735 0.137513 -0.100038
v 0.071735 0.137513 0.100038
v 0.071735 0.078161 -0.100038
v 0.071735 0.078161 0.100038
v 0.027159 0.078161 -0.100038
v 0.027159 0.078161 0.100038
v -0.027159 0.078161 0.100038
v -0.027159 0.078161 -0.100038
v 0.027159 -0.179356 -0.100038
v 0.027159 -0.179356 0.100038
v -0.027159 -0.179356 0.100038
v -0.027159 -0.179356 -0.100038
v -0.112892 -0.518336 -0.100038
v -0.112892 -0.518336 0.100038
v -0.112892 -0.424649 -0.100038
v -0.112892 -0.424649 0.100038
v 0.112892 -0.424649 -0.100038
v 0.112892 -0.424649 0.100038
v 0.112892 -0.518336 -0.100038
v 0.112892 -0.518336 0.100038
v -0.206141 -0.403877 -0.100038
v -0.206141 -0.403877 0.100038
v -0.206141 -0.310190 -0.100038
v -0.206141 -0.310190 0.100038
v 0.206141 -0.310190 -0.100038
v 0.206141 -0.310190 0.100038
v 0.206141 -0.403877 -0.100038
v 0.206141 -0.403877 0.100038
v -0.314692 -0.111047 -0.100038
v -0.314692 -0.111047 0.100038
v -0.314692 0.518336 -0.100038
v -0.314692 0.518336 0.100038
v 0.314692 0.518336 -0.100038
v 0.314692 0.518336 0.100038
v 0.314692 -0.111047 -0.100038
v 0.314692 -0.111047 0.100038
v 0.228615 -0.024972 0.100038
v -0.228615 -0.024972 0.100038
v 0.228615 0.432261 0.100038
v -0.228615 0.432261 0.100038
v 0.228615 -0.024972 -0.100038
v -0.228615 -0.024972 -0.100038
v -0.228615 0.432261 -0.100038
v 0.228615 0.432261 -0.100038
v -0.112892 -0.024972 -0.100038
v -0.112892 -0.024972 0.100038
v -0.206141 -0.111047 0.100038
v -0.206141 -0.111047 -0.100038
v 0.206141 -0.111047 0.100038
v 0.112892 -0.024972 0.100038
v 0.112892 -0.024972 -0.100038
v 0.206141 -0.111047 -0.100038
v -0.112892 -0.179356 -0.100038
v -0.112892 -0.179356 0.100038
v -0.206141 -0.274793 0.100038
v -0.206141 -0.274793 -0.100038
v 0.206141 -0.274793 0.100038
v 0.112892 -0.179356 0.100038
v 0.112892 -0.179356 -0.100038
v 0.206141 -0.274793 -0.100038
vt 0.369044 0.953552
vt 0.369044 0.953552
vt 0.369044 0.953552
vt 0.369044 0.953552
vt 0.865003 0.953552
vt 0.865003 0.953552
vt 0.865003 0.953552
vt 0.865003 0.953552
vt 0.369044 0.953552
vt 0.369044 0.953552
vt 0.369044 0.953552
vt 0.369044 0.953552
vt 0.620417 0.953552
vt 0.620417 0.953552
vt 0.620417 0.953552
vt 0.620417 0.953552
vt 0.620417 0.953552
vt 0.620417 0.953552
vt 0.620417 0.953552
vt 0.620417 0.953552
vt 0.126308 0.953552
vt 0.126308 0.953552
vt 0.126308 0.953552
vt 0.126308 0.953552
vt 0.126308 0.953552
vt 0.126308 0.953552
vt 0.126308 0.953552
vt 0.126308 0.953552
vt 0.369044 0.953552
vt 0.369044 0.953552
vt 0.369044 0.953552
vt 0.369044 0.953552
vt 0.620417 0.953552
vt 0.620417 0.953552
vt 0.620417 0.953552
vt 0.620417 0.953552
vt 0.369044 0.953552
vt 0.369044 0.953552
vt 0.369044 0.953552
vt 0.369044 0.953552
vt 0.620417 0.953552
vt 0.620417 0.953552
vt 0.620417 0.953552
vt 0.620417 0.953552
vt 0.369044 0.953552
vt 0.369044 0.953552
vt 0.369044 0.953552
vt 0.369044 0.953552
vt 0.865003 0.953552
vt 0.865003 0.953552
vt 0.865003 0.953552
vt 0.865003 0.953552
vt 0.369044 0.953552
vt 0.369044 0.953552
vt 0.369044 0.953552
vt 0.369044 0.953552
vt 0.126308 0.953552
vt 0.126308 0.953552
vt 0.126308 0.953552
vt 0.126308 0.953552
vt 0.620417 0.953552
vt 0.620417 0.953552
vt 0.620417 0.953552
vt 0.620417 0.953552
vt 0.620417 0.953552
vt 0.620417 0.953552
vt 0.620417 0.953552
vt 0.620417 0.953552
vt 0.369044 0.953552
vt 0.369044 0.953552
vt 0.369044 0.953552
vt 0.369044 0.953552
vt 0.865003 0.953552
vt 0.865003 0.953552
vt 0.865003 0.953552
vt 0.865003 0.953552
vt 0.369044 0.953552
vt 0.369044 0.953552
vt 0.369044 0.953552
vt 0.369044 0.953552
vt 0.126308 0.953552
vt 0.126308 0.953552
vt 0.126308 0.953552
vt 0.126308 0.953552
vt 0.620417 0.953552
vt 0.620417 0.953552
vt 0.620417 0.953552
vt 0.620417 0.953552
vt 0.620417 0.953552
vt 0.620417 0.953552
vt 0.620417 0.953552
vt 0.620417 0.953552
vt 0.369044 0.953552
vt 0.369044 0.953552
vt 0.369044 0.953552
vt 0.369044 0.953552
vt 0.865003 0.953552
vt 0.865003 0.953552
vt 0.865003 0.953552
vt 0.865003 0.953552
vt 0.369044 0.953552
vt 0.369044 0.953552
vt 0.369044 0.953552
vt 0.369044 0.953552
vt 0.620417 0.953552
vt 0.620417 0.953552
vt 0.620417 0.953552
vt 0.620417 0.953552
vt 0.620417 0.953552
vt 0.620417 0.953552
vt 0.620417 0.953552
vt 0.620417 0.953552
vt 0.620417 0.953552
vt 0.620417 0.953552
vt 0.620417 0.953552
vt 0.620417 0.953552
vt 0.620417 0.953552
vt 0.620417 0.953552
vt 0.620417 0.953552
vt 0.620417 0.953552
vt 0.369044 0.953552
vt 0.369044 0.953552
vt 0.369044 0.953552
vt 0.369044 0.953552
vt 0.126308 0.953552
vt 0.126308 0.953552
vt 0.126308 0.953552
vt 0.126308 0.953552
vt 0.369044 0.953552
vt 0.369044 0.953552
vt 0.369044 0.953552
vt 0.369044 0.953552
vt 0.865003 0.953552
vt 0.865003 0.953552
vt 0.865003 0.953552
vt 0.865003 0.953552
vt 0.620417 0.953552
vt 0.620417 0.953552
vt 0.126308 0.953552
vt 0.126308 0.953552
vt 0.126308 0.953552
vt 0.126308 0.953552
vt 0.620417 0.953552
vt 0.620417 0.953552
vt 0.620417 0.953552
vt 0.620417 0.953552
vt 0.865003 0.953552
vt 0.865003 0.953552
vt 0.865003 0.953552
vt 0.865003 0.953552
vt 0.620417 0.953552
vt 0.620417 0.953552
vt 0.126308 0.953552
vt 0.126308 0.953552
vt 0.126308 0.953552
vt 0.126308 0.953552
vt 0.369044 0.953552
vt 0.369044 0.953552
vt 0.369044 0.953552
vt 0.369044 0.953552
vt 0.620417 0.953552
vt 0.620417 0.953552
vt 0.620417 0.953552
vt 0.620417 0.953552
vt 0.369044 0.953552
vt 0.369044 0.953552
vt 0.369044 0.953552
vt 0.369044 0.953552
vt 0.620417 0.953552
vt 0.620417 0.953552
vt 0.620417 0.953552
vt 0.620417 0.953552
vt 0.620417 0.953552
vt 0.620417 0.953552
vt 0.620417 0.953552
vt 0.620417 0.953552
vt 0.369044 0.953552
vt 0.369044 0.953552
vt 0.369044 0.953552
vt 0.369044 0.953552
vt 0.620417 0.953552
vt 0.620417 0.953552
vt 0.620417 0.953552
vt 0.620417 0.953552
vt 0.369044 0.953552
vt 0.369044 0.953552
vt 0.369044 0.953552
vt 0.369044 0.953552
vt 0.126308 0.953552
vt 0.126308 0.953552
vt 0.126308 0.953552
vt 0.126308 0.953552
vt 0.620417 0.953552
vt 0.620417 0.953552
vt 0.620417 0.953552
vt 0.620417 0.953552
vt 0.865003 0.953552
vt 0.865003 0.953552
vt 0.865003 0.953552
vt 0.865003 0.953552
vt 0.620417 0.953552
vt 0.620417 0.953552
vt 0.620417 0.953552
vt 0.620417 0.953552
vn -1.000000 0.000000 0.000000
vn -1.000000 0.000000 0.000000
vn -1.000000 0.000000 0.000000
vn -1.000000 0.000000 0.000000
vn 0.000000 1.000000 -0.000000
vn 0.000000 1.000000 -0.000000
vn 0.000000 1.000000 -0.000000
vn 0.000000 1.000000 -0.000000
vn 1.000000 0.000000 0.000000
vn 1.000000 0.000000 0.000000
vn 1.000000 0.000000 0.000000
vn 1.000000 0.000000 0.000000
vn 0.000000 0.000000 1.000000
vn 0.000000 0.000000 1.000000
vn 0.000000 0.000000 1.000000
vn 0.000000 0.000000 1.000000
vn 0.000000 0.000000 -1.000000
vn 0.000000 0.000000 -1.000000
vn 0.000000 0.000000 -1.000000
vn 0.000000 0.000000 -1.000000
vn 0.000000 -1.000000 0.000000
vn 0.000000 -1.000000 0.000000
vn 0.000000 -1.000000 0.000000
vn 0.000000 -1.000000 0.000000
vn 0.000000 0.000000 0.000000
vn 0.000000 0.000000 0.000000
vn 0.000000 0.000000 1.000000
vn 0.000000 0.000000 1.000000
vn 0.000000 -1.000000 0.000000
vn 0.000000 -1.000000 0.000000
vn 0.000000 -1.000000 0.000000
vn 0.000000 -1.000000 0.000000
vn 0.000000 0.000000 -0.000000
vn 0.000000 0.000000 -0.000000
vn 0.000000 0.000000 -1.000000
vn 0.000000 0.000000 -1.000000
vn 1.000000 0.000000 0.000000
vn 1.000000 0.000000 0.000000
vn 1.000000 0.000000 0.000000
vn 1.000000 0.000000 0.000000
vn 0.000000 0.000000 1.000000
vn 0.000000 0.000000 1.000000
vn 0.000000 0.000000 1.000000
vn 0.000000 0.000000 1.000000
vn -1.000000 0.000000 0.000000
vn -1.000000 0.000000 0.000000
vn -1.000000 0.000000 0.000000
vn -1.000000 0.000000 0.000000
vn 0.000000 0.000000 -1.000000
vn 0.000000 0.000000 -1.000000
vn 0.000000 0.000000 -1.000000
vn 0.000000 0.000000 -1.000000
vn -1.000000 0.000000 0.000000
vn -1.000000 0.000000 0.000000
vn -1.000000 0.000000 0.000000
vn -1.000000 0.000000 0.000000
vn 0.000000 1.000000 0.000000
vn 0.000000 1.000000 0.000000
vn 0.000000 1.000000 0.000000
vn 0.000000 1.000000 0.000000
vn 1.000000 0.000000 0.000000
vn 1.000000 0.000000 0.000000
vn 1.000000 0.000000 0.000000
vn 1.000000 0.000000 0.000000
vn 0.000000 -1.000000 -0.000000
vn 0.000000 -1.000000 -0.000000
vn 0.000000 -1.000000 -0.000000
vn 0.000000 -1.000000 -0.000000
vn 0.000000 0.000000 1.000000
vn 0.000000 0.000000 1.000000
vn 0.000000 0.000000 1.000000
vn 0.000000 0.000000 1.000000
vn 0.000000 0.000000 -1.000000
vn 0.000000 0.000000 -1.000000
vn 0.000000 0.000000 -1.000000
vn 0.000000 0.000000 -1.000000
vn -1.000000 0.000000 0.000000
vn -1.000000 0.000000 0.000000
vn -1.000000 0.000000 0.000000
vn -1.000000 0.000000 0.000000
vn 0.000000 1.000000 0.000000
vn 0.000000 1.000000 0.000000
vn 0.000000 1.000000 0.000000
vn 0.000000 1.000000 0.000000
vn 1.000000 0.000000 0.000000
vn 1.000000 0.000000 0.000000
vn 1.000000 0.000000 0.000000
vn 1.000000 0.000000 0.000000
vn 0.000000 -1.000000 0.000000
vn 0.000000 -1.000000 0.000000
vn 0.000000 -1.000000 0.000000
vn 0.000000 -1.000000 0.000000
vn 0.000000 0.000000 1.000000
vn 0.000000 0.000000 1.000000
vn 0.000000 0.000000 1.000000
vn 0.000000 0.000000 1.000000
vn 0.000000 0.000000 -1.000000
vn 0.000000 0.000000 -1.000000
vn 0.000000 0.000000 -1.000000
vn 0.000000 0.000000 -1.000000
vn -1.000000 0.000000 0.000000
vn -1.000000 0.000000 0.000000
vn -1.000000 0.000000 0.000000
vn -1.000000 0.000000 0.000000
vn 0.000000 1.000000 0.000000
vn 0.000000 1.000000 0.000000
vn 0.000000 1.000000 0.000000
vn 0.000000 1.000000 0.000000
vn 1.000000 0.000000 0.000000
vn 1.000000 0.000000 0.000000
vn 1.000000 0.000000 0.000000
vn 1.000000 0.000000 0.000000
vn -0.000000 0.000000 1.000000
vn -0.000000 0.000000 1.000000
vn -0.000000 0.000000 1.000000
vn -0.000000 0.000000 1.000000
vn 0.000000 0.000000 1.000000
vn 0.000000 0.000000 1.000000
vn 0.000000 0.000000 1.000000
vn 0.000000 0.000000 1.000000
vn 0.000000 0.000000 1.000000
vn 0.000000 0.000000 1.000000
vn 0.000000 0.000000 1.000000
vn 0.000000 0.000000 1.000000
vn 0.000000 0.000000 -1.000000
vn 0.000000 0.000000 -1.000000
vn 0.000000 0.000000 -1.000000
vn 0.000000 0.000000 -1.000000
vn 0.000000 0.000000 -1.000000
vn 0.000000 0.000000 -1.000000
vn 0.000000 0.000000 -1.000000
vn 0.000000 0.000000 -1.000000
vn 0.000000 0.000000 -1.000000
vn 0.000000 0.000000 -1.000000
vn 0.000000 0.000000 -1.000000
vn 0.000000 0.000000 -1.000000
vn -1.000000 0.000000 0.000000
vn -1.000000 0.000000 0.000000
vn -1.000000 0.000000 0.000000
vn -1.000000 0.000000 0.000000
vn 0.000000 -1.000000 0.000000
vn 0.000000 -1.000000 0.000000
vn 0.000000 -1.000000 0.000000
vn 0.000000 -1.000000 0.000000
vn 1.000000 0.000000 0.000000
vn 1.000000 0.000000 0.000000
vn 1.000000 0.000000 0.000000
vn 1.000000 0.000000 0.000000
vn 0.000000 1.000000 0.000000
vn 0.000000 1.000000 0.000000
vn 0.000000 1.000000 0.000000
vn 0.000000 1.000000 0.000000
vn 0.000000 -0.000000 1.000000
vn 0.000000 -0.000000 1.000000
vn 0.000000 -0.000000 1.000000
vn 0.000000 -0.000000 1.000000
vn 0.000000 -1.000000 0.000000
vn 0.000000 -1.000000 0.000000
vn 0.000000 -1.000000 0.000000
vn 0.000000 -1.000000 0.000000
vn 0.000000 0.000000 -1.000000
vn 0.000000 0.000000 -1.000000
vn 0.000000 0.000000 -1.000000
vn 0.000000 0.000000 -1.000000
vn 0.000000 0.000000 1.000000
vn 0.000000 0.000000 1.000000
vn 0.000000 0.000000 1.000000
vn 0.000000 0.000000 1.000000
vn 0.000000 1.000000 0.000000
vn 0.000000 1.000000 0.000000
vn 0.000000 1.000000 0.000000
vn 0.000000 1.000000 0.000000
vn 0.000000 -0.000000 -1.000000
vn 0.000000 -0.000000 -1.000000
vn 0.000000 -0.000000 -1.000000
vn 0.000000 -0.000000 -1.000000
vn 0.000000 -1.000000 0.000000
vn 0.000000 -1.000000 0.000000
vn 0.000000 -1.000000 0.000000
vn 0.000000 -1.000000 0.000000
vn 1.000000 0.000000 -0.000000
vn 1.000000 0.000000 -0.000000
vn 1.000000 0.000000 -0.000000
vn 1.000000 0.000000 -0.000000
vn 0.000000 0.000000 1.000000
vn 0.000000 0.000000 1.000000
vn 0.000000 0.000000 1.000000
vn 0.000000 0.000000 1.000000
vn -1.000000 0.000000 0.000000
vn -1.000000 0.000000 0.000000
vn -1.000000 0.000000 0.000000
vn -1.000000 0.000000 0.000000
vn 0.000000 0.000000 -1.000000
vn 0.000000 0.000000 -1.000000
vn 0.000000 0.000000 -1.000000
vn 0.000000 0.000000 -1.000000
vn 0.000000 0.000000 1.000000
vn 0.000000 0.000000 1.000000
vn 0.000000 0.000000 1.000000
vn 0.000000 0.000000 1.000000
vn -1.000000 0.000000 0.000000
vn -1.000000 0.000000 0.000000
vn -1.000000 0.000000 0.000000
vn -1.000000 0.000000 0.000000
vn 0.000000 0.000000 -1.000000
vn 0.000000 0.000000 -1.000000
vn 0.000000 0.000000 -1.000000
vn 0.000000 0.000000 -1.000000
vn 1.000000 0.000000 0.000000
vn 1.000000 0.000000 0.000000
vn 1.000000 0.000000 0.000000
vn 1.000000 0.000000 0.000000
vn 0.000000 -1.000000 0.000000
vn 0.000000 -1.000000 0.000000
vn 0.000000 -1.000000 0.000000
vn 0.000000 -1.000000 0.000000
vn 0.000000 -0.000000 -1.000000
vn 0.000000 -0.000000 -1.000000
vn 0.000000 -0.000000 -1.000000
vn 0.000000 -0.000000 -1.000000
vn 0.000000 1.000000 0.000000
vn 0.000000 1.000000 0.000000
vn 0.000000 1.000000 0.000000
vn 0.000000 1.000000 0.000000
vn 0.000000 -0.000000 1.000000
vn 0.000000 -0.000000 1.000000
vn 0.000000 -0.000000 1.000000
vn 0.000000 -0.000000 1.000000
s off
f 1/1/1 2/2/2 4/3/3 3/4/4
f 3/5/5 4/6/6 6/7/7 5/8/8
f 5/9/9 6/10/10 8/11/11 7/12/12
f 2/13/13 8/14/14 6/15/15 4/16/16
f 7/17/17 1/18/18 3/19/19 5/20/20
f 7/21/21 8/22/22 10/23/23 9/24/24
f 8/22/25 2/25/26 11/26/27 10/23/28
f 2/25/29 1/27/30 12/28/31 11/26/32
f 1/27/33 7/21/34 9/24/35 12/28/36
f 9/29/37 10/30/38 14/31/39 13/32/40
f 10/33/41 11/34/42 15/35/43 14/36/44
f 11/37/45 12/38/46 16/39/47 15/40/48
f 12/41/49 9/42/50 13/43/51 16/44/52
f 17/45/53 18/46/54 20/47/55 19/48/56
f 19/49/57 20/50/58 22/51/59 21/52/60
f 21/53/61 22/54/62 24/55/63 23/56/64
f 23/57/65 24/58/66 18/59/67 17/60/68
f 18/61/69 24/62/70 22/63/71 20/64/72
f 23/65/73 17/66/74 19/67/75 21/68/76
f 25/69/77 26/70/78 28/71/79 27/72/80
f 27/73/81 28/74/82 30/75/83 29/76/84
f 29/77/85 30/78/86 32/79/87 31/80/88
f 31/81/89 32/82/90 26/83/91 25/84/92
f 26/85/93 32/86/94 30/87/95 28/88/96
f 31/89/97 25/90/98 27/91/99 29/92/100
f 33/93/101 34/94/102 36/95/103 35/96/104
f 35/97/105 36/98/106 38/99/107 37/100/108
f 37/101/109 38/102/110 40/103/111 39/104/112
f 40/105/113 38/106/114 43/107/115 41/108/116
f 38/106/117 36/109/118 44/110/119 43/107/120
f 36/109/121 34/111/122 42/112/123 44/110/124
f 33/113/125 35/114/126 47/115/127 46/116/128
f 35/114/129 37/117/130 48/118/131 47/115/132
f 37/117/133 39/119/134 45/120/135 48/118/136
f 41/121/137 43/122/138 48/123/139 45/124/140
f 43/125/141 44/126/142 47/127/143 48/128/144
f 44/129/145 42/130/146 46/131/147 47/132/148
f 42/133/149 50/134/150 49/135/151 46/136/152
f 34/111/153 51/137/154 50/138/155 42/112/156
f 52/139/157 51/140/158 34/141/159 33/142/160
f 49/143/161 52/144/162 33/113/163 46/116/164
f 54/145/165 53/146/166 40/105/167 41/108/168
f 55/147/169 54/148/170 41/149/171 45/150/172
f 39/119/173 56/151/174 55/152/175 45/120/176
f 39/153/177 40/154/178 53/155/179 56/156/180
f 49/157/181 50/158/182 58/159/183 57/160/184
f 50/161/185 51/162/186 59/163/187 58/164/188
f 51/165/189 52/166/190 60/167/191 59/168/192
f 52/169/193 49/170/194 57/171/195 60/172/196
f 53/173/197 54/174/198 62/175/199 61/176/200
f 54/177/201 55/178/202 63/179/203 62/180/204
f 55/181/205 56/182/206 64/183/207 63/184/208
f 56/185/209 53/186/210 61/187/211 64/188/212
f 59/189/213 60/190/214 64/191/215 61/192/216
f 60/193/217 57/194/218 63/195/219 64/196/220
f 58/197/221 62/198/222 63/199/223 57/200/224
f 59/201/225 61/202/226 62/203/227 58/204/228
