# This file uses centimeters as units for non-parametric coordinates.

v 0.000000 0.000000 0.191242
v 0.000000 0.971261 0.191242
v 0.605412 0.971261 0.191242
v 0.605412 0.000000 0.191242
v 0.605412 0.651509 0.191242
v 0.605412 0.526046 0.191242
v 0.392344 0.526046 0.191242
v 0.392344 0.183278 0.191242
v 0.235961 0.183278 0.191242
v 0.235961 0.790625 0.191242
v 0.392344 0.790625 0.191242
v 0.392344 0.651509 0.191242
v 0.392344 0.183278 0.000000
v 0.605412 0.000000 0.000000
v 0.605412 0.526046 0.000000
v 0.392344 0.526046 0.000000
v 0.000000 0.000000 0.000000
v 0.235961 0.183278 0.000000
v 0.235961 0.790625 0.000000
v 0.000000 0.971261 0.000000
v 0.392344 0.790625 0.000000
v 0.605412 0.971261 0.000000
v 0.392344 0.651509 0.000000
v 0.605412 0.651509 0.000000
v 0.392344 0.354680 0.000000
v 0.392344 0.354680 0.191242
v 0.307445 0.526045 0.191242
v 0.307445 0.354680 0.191242
v 0.307445 0.354680 0.000000
v 0.307445 0.526045 0.000000
vt 0.142844 0.960338
vt 0.142844 0.960338
vt 0.385272 0.960338
vt 0.385272 0.960338
vt 0.142844 0.960338
vt 0.385272 0.960338
vt 0.385272 0.960338
vt 0.872653 0.960343
vt 0.385272 0.960338
vt 0.142844 0.960338
vt 0.142844 0.960338
vt 0.142844 0.960338
vt 0.612548 0.960335
vt 0.612548 0.960335
vt 0.612548 0.960335
vt 0.612548 0.960335
vt 0.612548 0.960335
vt 0.612548 0.960335
vt 0.612548 0.960335
vt 0.612548 0.960335
vt 0.612548 0.960335
vt 0.612548 0.960335
vt 0.612548 0.960335
vt 0.612548 0.960335
vt 0.612548 0.960335
vt 0.612548 0.960335
vt 0.612548 0.960335
vt 0.612548 0.960335
vt 0.612548 0.960335
vt 0.612548 0.960335
vt 0.612548 0.960335
vt 0.612548 0.960335
vt 0.612548 0.960335
vt 0.612548 0.960335
vt 0.612548 0.960335
vt 0.612548 0.960335
vt 0.867603 0.960335
vt 0.867603 0.960335
vt 0.867603 0.960335
vt 0.867603 0.960335
vt 0.867603 0.960335
vt 0.867603 0.960335
vt 0.867603 0.960335
vt 0.867603 0.960335
vt 0.867603 0.960335
vt 0.867603 0.960335
vt 0.867603 0.960335
vt 0.867603 0.960335
vt 0.385272 0.960338
vt 0.872653 0.960343
vt 0.385272 0.960338
vt 0.385272 0.960338
vt 0.385272 0.960338
vt 0.385272 0.960338
vt 0.385272 0.960338
vt 0.385272 0.960338
vt 0.385272 0.960338
vt 0.385272 0.960338
vt 0.385272 0.960338
vt 0.385272 0.960338
vt 0.385272 0.960338
vt 0.385272 0.960338
vt 0.385272 0.960338
vt 0.385272 0.960338
vt 0.385272 0.960338
vt 0.385272 0.960338
vt 0.142844 0.960338
vt 0.142844 0.960338
vt 0.142844 0.960338
vt 0.142844 0.960338
vt 0.142844 0.960338
vt 0.142844 0.960338
vt 0.612548 0.960335
vt 0.385272 0.960338
vt 0.385272 0.960338
vt 0.612548 0.960335
vt 0.385272 0.960338
vt 0.385272 0.960338
vt 0.385272 0.960338
vt 0.385272 0.960338
vt 0.599922 0.960330
vt 0.599922 0.960330
vt 0.599922 0.960330
vt 0.599922 0.960330
vt 0.599922 0.960330
vt 0.599922 0.960330
vt 0.599922 0.960330
vt 0.599922 0.960330
vt 0.872653 0.960343
vt 0.872653 0.960343
vt 0.157995 0.960345
vt 0.157995 0.960345
vt 0.157995 0.960345
vt 0.157995 0.960345
vn 0.000000 0.000000 -1.000000
vn 0.000000 0.000000 -1.000000
vn 0.000000 0.000000 -1.000000
vn 0.000000 0.000000 -1.000000
vn 0.000000 0.000000 -1.000000
vn 0.000000 0.000000 -1.000000
vn 0.000000 0.000000 -1.000000
vn 0.000000 0.000000 -1.000000
vn 0.000000 0.000000 -1.000000
vn 0.000000 0.000000 -1.000000
vn 0.000000 0.000000 -1.000000
vn 0.000000 0.000000 -1.000000
vn 0.000000 0.000000 -1.000000
vn 0.000000 0.000000 -1.000000
vn 0.000000 0.000000 -1.000000
vn 0.000000 0.000000 -1.000000
vn 0.000000 0.000000 -1.000000
vn 0.000000 0.000000 -1.000000
vn 0.000000 0.000000 -1.000000
vn 0.000000 0.000000 -1.000000
vn 0.000000 0.000000 -1.000000
vn -0.000000 0.000000 1.000000
vn -0.000000 0.000000 1.000000
vn -0.000000 0.000000 1.000000
vn -0.000000 0.000000 1.000000
vn -0.000000 0.000000 1.000000
vn 0.000000 0.000000 1.000000
vn 0.000000 0.000000 1.000000
vn 0.000000 0.000000 1.000000
vn 0.000000 0.000000 1.000000
vn 0.000000 0.000000 1.000000
vn 0.000000 0.000000 1.000000
vn 0.000000 0.000000 1.000000
vn 0.000000 0.000000 1.000000
vn 0.000000 0.000000 1.000000
vn 0.000000 0.000000 1.000000
vn 0.000000 0.000000 1.000000
vn 0.000000 0.000000 1.000000
vn 0.000000 0.000000 1.000000
vn 0.000000 0.000000 1.000000
vn 0.000000 0.000000 1.000000
vn 0.000000 0.000000 1.000000
vn 1.000000 0.000000 0.000000
vn 1.000000 0.000000 0.000000
vn 1.000000 0.000000 0.000000
vn 1.000000 0.000000 0.000000
vn 0.000000 1.000000 0.000000
vn 0.000000 1.000000 0.000000
vn 0.000000 1.000000 0.000000
vn 0.000000 1.000000 0.000000
vn -1.000000 0.000000 0.000000
vn -1.000000 0.000000 0.000000
vn -1.000000 0.000000 0.000000
vn -1.000000 0.000000 0.000000
vn 0.000000 -1.000000 0.000000
vn 0.000000 -1.000000 0.000000
vn 0.000000 -1.000000 0.000000
vn 0.000000 -1.000000 0.000000
vn 0.000000 1.000000 0.000000
vn 0.000000 1.000000 0.000000
vn 0.000000 1.000000 0.000000
vn 0.000000 1.000000 0.000000
vn 1.000000 0.000000 0.000000
vn 1.000000 0.000000 0.000000
vn 1.000000 0.000000 0.000000
vn 1.000000 0.000000 0.000000
vn -1.000000 0.000000 0.000000
vn -1.000000 0.000000 0.000000
vn -1.000000 0.000000 0.000000
vn -1.000000 0.000000 0.000000
vn 0.000000 -1.000000 0.000000
vn 0.000000 -1.000000 0.000000
vn 0.000000 -1.000000 0.000000
vn 0.000000 -1.000000 0.000000
vn 0.000000 1.000000 0.000000
vn 0.000000 1.000000 0.000000
vn 0.000000 1.000000 0.000000
vn 0.000000 1.000000 0.000000
vn -1.000000 0.000000 0.000000
vn -1.000000 0.000000 0.000000
vn -1.000000 0.000000 0.000000
vn -1.000000 0.000000 0.000000
vn 0.000000 -1.000000 0.000000
vn 0.000000 -1.000000 0.000000
vn 0.000000 -1.000000 0.000000
vn 0.000000 -1.000000 0.000000
vn 1.000000 0.000000 0.000000
vn 1.000000 0.000000 0.000000
vn 1.000000 0.000000 0.000000
vn 1.000000 0.000000 0.000000
vn -1.000000 0.000000 0.000000
vn -1.000000 0.000000 0.000000
vn -1.000000 0.000000 0.000000
vn -1.000000 0.000000 0.000000
vn -0.000000 0.000000 1.000000
vn -0.000000 0.000000 1.000000
vn -0.000000 0.000000 1.000000
vn -0.000000 0.000000 1.000000
vn 0.000000 -1.000000 0.000000
vn 0.000000 -1.000000 0.000000
vn 0.000000 -1.000000 0.000000
vn 0.000000 -1.000000 0.000000
vn 0.000000 0.000000 -1.000000
vn 0.000000 0.000000 -1.000000
vn 0.000000 0.000000 -1.000000
vn 0.000000 0.000000 -1.000000
vn -0.000003 1.000000 0.000000
vn -0.000003 1.000000 0.000000
vn -0.000003 1.000000 0.000000
vn -0.000003 1.000000 0.000000
s off
f 13/28/1 25/73/2 16/27/3 15/26/4 14/25/5
f 17/29/6 18/30/7 13/28/8 14/25/9
f 17/29/10 20/32/11 19/31/12 18/30/13
f 20/32/14 22/34/15 21/33/16 19/31/17
f 22/34/18 24/36/19 23/35/20 21/33/21
f 8/13/22 4/14/23 6/15/24 7/16/25 26/76/26
f 1/17/27 4/14/28 8/13/29 9/18/30
f 1/17/31 9/18/32 10/19/33 2/20/34
f 2/20/35 10/19/36 11/21/37 3/22/38
f 3/22/39 11/21/40 12/23/41 5/24/42
f 4/3/43 14/7/44 15/6/45 6/4/46
f 6/37/47 15/40/48 16/39/49 7/38/50
f 25/74/51 13/49/52 8/9/53 26/75/54
f 1/1/55 17/10/56 14/5/57 4/2/58
f 8/41/59 13/44/60 18/43/61 9/42/62
f 9/51/63 18/54/64 19/53/65 10/52/66
f 2/55/67 20/58/68 17/57/69 1/56/70
f 10/11/71 19/68/72 21/67/73 11/12/74
f 3/45/75 22/48/76 20/47/77 2/46/78
f 11/59/79 21/62/80 23/61/81 12/60/82
f 12/69/83 23/72/84 24/71/85 5/70/86
f 5/63/87 24/66/88 22/65/89 3/64/90
f 27/77/91 30/80/92 29/79/93 28/78/94
f 7/81/95 27/84/96 28/83/97 26/82/98
f 26/91/99 28/94/100 29/93/101 25/92/102
f 25/85/103 29/88/104 30/87/105 16/86/106
f 16/8/107 30/90/108 27/89/109 7/50/110
