# This file uses centimeters as units for non-parametric coordinates.

v 0.000000 0.000000 0.191242
v 0.000000 0.955461 0.191242
v 0.607836 0.955461 0.191242
v 0.607836 0.000000 0.191242
v 0.381943 0.180278 0.191242
v 0.225893 0.180278 0.191242
v 0.381943 0.775182 0.191242
v 0.225893 0.775182 0.191242
v 0.607836 0.000000 0.000000
v 0.000000 0.000000 0.000000
v 0.381943 0.180278 0.000000
v 0.225893 0.180278 0.000000
v 0.607836 0.955461 0.000000
v 0.381943 0.775182 0.000000
v 0.000000 0.955461 0.000000
v 0.225893 0.775182 0.000000
v 0.225893 0.000000 0.191242
v 0.225893 0.000000 0.000000
v 0.381943 0.000000 0.191242
v 0.381943 0.000000 0.000000
v 0.225893 -0.111290 0.191242
v 0.225893 -0.111290 0.000000
v 0.381943 -0.111290 0.000000
v 0.381943 -0.111290 0.191242
vt 0.094863 0.960340
vt 0.094863 0.960340
vt 0.365069 0.960345
vt 0.365069 0.960345
vt 0.365069 0.960345
vt 0.365069 0.960345
vt 0.094863 0.960340
vt 0.094863 0.960340
vt 0.612548 0.960343
vt 0.612548 0.960343
vt 0.612548 0.960343
vt 0.612548 0.960343
vt 0.612548 0.960343
vt 0.612548 0.960343
vt 0.612548 0.960343
vt 0.612548 0.960343
vt 0.612548 0.960343
vt 0.612548 0.960343
vt 0.612548 0.960343
vt 0.612548 0.960343
vt 0.612548 0.960343
vt 0.612548 0.960343
vt 0.612548 0.960343
vt 0.612548 0.960343
vt 0.839824 0.960338
vt 0.839824 0.960338
vt 0.839824 0.960338
vt 0.839824 0.960338
vt 0.839824 0.960338
vt 0.839824 0.960338
vt 0.839824 0.960338
vt 0.839824 0.960338
vt 0.365069 0.960345
vt 0.365069 0.960345
vt 0.365069 0.960345
vt 0.365069 0.960345
vt 0.365069 0.960345
vt 0.365069 0.960345
vt 0.365069 0.960345
vt 0.365069 0.960345
vt 0.365069 0.960345
vt 0.365069 0.960345
vt 0.365069 0.960345
vt 0.365069 0.960345
vt 0.094863 0.960340
vt 0.094863 0.960340
vt 0.094863 0.960340
vt 0.094863 0.960340
vt 0.612548 0.960343
vt 0.094863 0.960340
vt 0.094863 0.960340
vt 0.612548 0.960343
vt 0.612548 0.960343
vt 0.094863 0.960340
vt 0.094863 0.960340
vt 0.612548 0.960343
vt 0.372645 0.960348
vt 0.372645 0.960348
vt 0.372645 0.960348
vt 0.372645 0.960348
vt 0.599922 0.960333
vt 0.599922 0.960333
vt 0.599922 0.960333
vt 0.599922 0.960333
vt 0.599922 0.960333
vt 0.599922 0.960333
vt 0.599922 0.960333
vt 0.599922 0.960333
vt 0.372645 0.960348
vt 0.372645 0.960348
vt 0.372645 0.960348
vt 0.372645 0.960348
vt 0.084316 0.960334
vt 0.084316 0.960334
vt 0.084316 0.960334
vt 0.084316 0.960334
vn 0.000000 0.000000 -1.000000
vn 0.000000 0.000000 -1.000000
vn 0.000000 0.000000 -1.000000
vn 0.000000 0.000000 -1.000000
vn 0.000000 0.000000 -1.000000
vn 0.000000 0.000000 -1.000000
vn 0.000000 0.000000 -1.000000
vn 0.000000 0.000000 -1.000000
vn 0.000000 0.000000 -1.000000
vn 0.000000 0.000000 -1.000000
vn 0.000000 0.000000 -1.000000
vn 0.000000 0.000000 -1.000000
vn 0.000000 0.000000 -1.000000
vn 0.000000 0.000000 -1.000000
vn 0.000000 0.000000 -1.000000
vn 0.000000 0.000000 -1.000000
vn 0.000000 0.000000 -1.000000
vn 0.000000 0.000000 -1.000000
vn 0.000000 0.000000 1.000000
vn 0.000000 0.000000 1.000000
vn 0.000000 0.000000 1.000000
vn 0.000000 0.000000 1.000000
vn 0.000000 0.000000 1.000000
vn 0.000000 0.000000 1.000000
vn 0.000000 0.000000 1.000000
vn 0.000000 0.000000 1.000000
vn 0.000000 0.000000 1.000000
vn 0.000000 0.000000 1.000000
vn 0.000000 0.000000 1.000000
vn 0.000000 0.000000 1.000000
vn 0.000000 0.000000 1.000000
vn 0.000000 0.000000 1.000000
vn 0.000000 0.000000 1.000000
vn 0.000000 0.000000 1.000000
vn 0.000000 0.000000 1.000000
vn 0.000000 0.000000 1.000000
vn 0.000000 -1.000000 0.000000
vn 0.000000 -1.000000 0.000000
vn 0.000000 -1.000000 0.000000
vn 0.000000 -1.000000 0.000000
vn 0.000000 1.000000 0.000000
vn 0.000000 1.000000 0.000000
vn 0.000000 1.000000 0.000000
vn 0.000000 1.000000 0.000000
vn 1.000000 0.000000 0.000000
vn 1.000000 0.000000 0.000000
vn 1.000000 0.000000 0.000000
vn 1.000000 0.000000 0.000000
vn -1.000000 0.000000 0.000000
vn -1.000000 0.000000 0.000000
vn -1.000000 0.000000 0.000000
vn -1.000000 0.000000 0.000000
vn 0.000000 1.000000 0.000000
vn 0.000000 1.000000 0.000000
vn 0.000000 1.000000 0.000000
vn 0.000000 1.000000 0.000000
vn 0.000000 -1.000000 0.000000
vn 0.000000 -1.000000 0.000000
vn 0.000000 -1.000000 0.000000
vn 0.000000 -1.000000 0.000000
vn -1.000000 0.000000 0.000000
vn -1.000000 0.000000 0.000000
vn -1.000000 0.000000 0.000000
vn -1.000000 0.000000 0.000000
vn 1.000000 0.000000 0.000000
vn 1.000000 0.000000 0.000000
vn 1.000000 0.000000 0.000000
vn 1.000000 0.000000 0.000000
vn 0.000000 -1.000000 0.000000
vn 0.000000 -1.000000 0.000000
vn 0.000000 -1.000000 0.000000
vn 0.000000 -1.000000 0.000000
vn -1.000000 0.000000 0.000000
vn -1.000000 0.000000 0.000000
vn -1.000000 0.000000 0.000000
vn -1.000000 0.000000 0.000000
vn 0.000000 0.000000 1.000000
vn 0.000000 0.000000 1.000000
vn 0.000000 0.000000 1.000000
vn 0.000000 0.000000 1.000000
vn 1.000000 0.000000 0.000000
vn 1.000000 0.000000 0.000000
vn 1.000000 0.000000 0.000000
vn 1.000000 0.000000 0.000000
vn 0.000000 0.000000 -1.000000
vn 0.000000 0.000000 -1.000000
vn 0.000000 0.000000 -1.000000
vn 0.000000 0.000000 -1.000000
vn 0.000000 -1.000000 0.000000
vn 0.000000 -1.000000 0.000000
vn 0.000000 -1.000000 0.000000
vn 0.000000 -1.000000 0.000000
s off
f 10/17/1 12/20/2 11/19/3 9/18/4 20/56/5 18/52/6
f 9/18/7 11/19/8 14/22/9 13/21/10
f 13/21/11 14/22/12 16/24/13 15/23/14
f 15/23/15 16/24/16 12/20/17 10/17/18
f 1/9/19 17/49/20 19/53/21 4/10/22 5/11/23 6/12/24
f 4/10/25 3/13/26 7/14/27 5/11/28
f 3/13/29 2/15/30 8/16/31 7/14/32
f 2/15/33 1/9/34 6/12/35 8/16/36
f 1/1/37 10/8/38 18/51/39 17/50/40
f 5/25/41 11/28/42 12/27/43 6/26/44
f 4/3/45 9/6/46 13/5/47 3/4/48
f 7/33/49 14/36/50 11/35/51 5/34/52
f 3/29/53 13/32/54 15/31/55 2/30/56
f 8/45/57 16/48/58 14/47/59 7/46/60
f 2/37/61 15/40/62 10/39/63 1/38/64
f 6/41/65 12/44/66 16/43/67 8/42/68
f 20/55/69 9/7/70 4/2/71 19/54/72
f 18/57/73 22/60/74 21/59/75 17/58/76
f 17/61/77 21/64/78 24/63/79 19/62/80
f 19/69/81 24/72/82 23/71/83 20/70/84
f 20/65/85 23/68/86 22/67/87 18/66/88
f 22/73/89 23/76/90 24/75/91 21/74/92
