# This file uses centimeters as units for non-parametric coordinates.

v 0.000000 0.000000 0.191242
v 0.000000 0.943113 0.191242
v 0.446631 0.943113 0.191242
v 0.213546 0.000000 0.191242
v 0.446631 0.760562 0.191242
v 0.213546 0.399795 0.191242
v 0.371530 0.399795 0.191242
v 0.371530 0.570747 0.191242
v 0.213546 0.570747 0.191242
v 0.213546 0.760562 0.191242
v 0.213546 0.000000 0.000000
v 0.000000 0.000000 0.000000
v 0.213546 0.760562 0.000000
v 0.000000 0.943113 0.000000
v 0.446631 0.760562 0.000000
v 0.446631 0.943113 0.000000
v 0.213546 0.399795 0.000000
v 0.213546 0.570747 0.000000
v 0.371530 0.399795 0.000000
v 0.371530 0.570747 0.000000
vt 0.125166 0.960343
vt 0.125166 0.960343
vt 0.395373 0.960335
vt 0.395373 0.960335
vt 0.125166 0.960343
vt 0.380221 0.960343
vt 0.380221 0.960343
vt 0.125166 0.960343
vt 0.625175 0.960338
vt 0.625175 0.960338
vt 0.592346 0.960338
vt 0.592346 0.960338
vt 0.592346 0.960338
vt 0.592346 0.960338
vt 0.592346 0.960338
vt 0.592346 0.960338
vt 0.592346 0.960338
vt 0.592346 0.960338
vt 0.135268 0.960323
vt 0.135268 0.960323
vt 0.592346 0.960338
vt 0.592346 0.960338
vt 0.592346 0.960338
vt 0.592346 0.960338
vt 0.592346 0.960338
vt 0.592346 0.960338
vt 0.592346 0.960338
vt 0.592346 0.960338
vt 0.885280 0.960323
vt 0.885280 0.960323
vt 0.885280 0.960323
vt 0.885280 0.960323
vt 0.885280 0.960323
vt 0.885280 0.960323
vt 0.885280 0.960323
vt 0.885280 0.960323
vt 0.380221 0.960343
vt 0.380221 0.960343
vt 0.395373 0.960335
vt 0.395373 0.960335
vt 0.380221 0.960343
vt 0.380221 0.960343
vt 0.380221 0.960343
vt 0.380221 0.960343
vt 0.365069 0.960323
vt 0.365069 0.960323
vt 0.365069 0.960323
vt 0.365069 0.960323
vt 0.380221 0.960343
vt 0.380221 0.960343
vt 0.380221 0.960343
vt 0.380221 0.960343
vt 0.135268 0.960323
vt 0.135268 0.960323
vt 0.135268 0.960323
vt 0.135268 0.960323
vt 0.135268 0.960323
vt 0.135268 0.960323
vt 0.625175 0.960338
vt 0.625175 0.960338
vt 0.625175 0.960338
vt 0.625175 0.960338
vt 0.625175 0.960338
vt 0.625175 0.960338
vt 0.625175 0.960338
vt 0.625175 0.960338
vt 0.625175 0.960338
vt 0.625175 0.960338
vn 0.000000 0.000000 -1.000000
vn 0.000000 0.000000 -1.000000
vn 0.000000 0.000000 -1.000000
vn 0.000000 0.000000 -1.000000
vn 0.000000 0.000000 -1.000000
vn 0.000000 0.000000 -1.000000
vn 0.000000 0.000000 -1.000000
vn 0.000000 0.000000 -1.000000
vn 0.000000 0.000000 -1.000000
vn 0.000000 0.000000 -1.000000
vn 0.000000 0.000000 -1.000000
vn 0.000000 0.000000 -1.000000
vn 0.000000 0.000000 -1.000000
vn 0.000000 0.000000 -1.000000
vn 0.000000 0.000000 1.000000
vn 0.000000 0.000000 1.000000
vn 0.000000 0.000000 1.000000
vn 0.000000 0.000000 1.000000
vn -0.000000 0.000000 1.000000
vn -0.000000 0.000000 1.000000
vn -0.000000 0.000000 1.000000
vn -0.000000 0.000000 1.000000
vn -0.000000 0.000000 1.000000
vn -0.000000 0.000000 1.000000
vn 0.000000 0.000000 1.000000
vn 0.000000 0.000000 1.000000
vn 0.000000 0.000000 1.000000
vn 0.000000 0.000000 1.000000
vn 0.000000 -1.000000 0.000000
vn 0.000000 -1.000000 0.000000
vn 0.000000 -1.000000 0.000000
vn 0.000000 -1.000000 0.000000
vn 1.000000 0.000000 0.000000
vn 1.000000 0.000000 0.000000
vn 1.000000 0.000000 0.000000
vn 1.000000 0.000000 0.000000
vn 0.000000 -1.000000 0.000000
vn 0.000000 -1.000000 0.000000
vn 0.000000 -1.000000 0.000000
vn 0.000000 -1.000000 0.000000
vn 1.000000 0.000000 0.000000
vn 1.000000 0.000000 0.000000
vn 1.000000 0.000000 0.000000
vn 1.000000 0.000000 0.000000
vn 0.000000 1.000000 0.000000
vn 0.000000 1.000000 0.000000
vn 0.000000 1.000000 0.000000
vn 0.000000 1.000000 0.000000
vn 1.000000 0.000000 0.000000
vn 1.000000 0.000000 0.000000
vn 1.000000 0.000000 0.000000
vn 1.000000 0.000000 0.000000
vn -1.000000 0.000000 0.000000
vn -1.000000 0.000000 0.000000
vn -1.000000 0.000000 0.000000
vn -1.000000 0.000000 0.000000
vn 0.000000 -1.000000 0.000000
vn 0.000000 -1.000000 0.000000
vn 0.000000 -1.000000 0.000000
vn 0.000000 -1.000000 0.000000
vn 1.000000 0.000000 0.000000
vn 1.000000 0.000000 0.000000
vn 1.000000 0.000000 0.000000
vn 1.000000 0.000000 0.000000
vn 0.000000 1.000000 0.000000
vn 0.000000 1.000000 0.000000
vn 0.000000 1.000000 0.000000
vn 0.000000 1.000000 0.000000
s off
f 12/9/1 14/62/2 13/61/3 18/60/4 17/59/5 11/10/6
f 14/24/7 16/23/8 15/22/9 13/21/10
f 18/26/11 20/28/12 19/27/13 17/25/14
f 2/11/15 10/12/16 5/13/17 3/14/18
f 1/63/19 4/68/20 6/67/21 9/66/22 10/65/23 2/64/24
f 9/16/25 6/15/26 7/17/27 8/18/28
f 1/1/29 12/8/30 11/5/31 4/2/32
f 11/3/33 17/40/34 6/39/35 4/4/36
f 10/19/37 13/54/38 15/53/39 5/20/40
f 5/6/41 15/38/42 16/37/43 3/7/44
f 3/29/45 16/32/46 14/31/47 2/30/48
f 9/41/49 18/44/50 13/43/51 10/42/52
f 2/45/53 14/48/54 12/47/55 1/46/56
f 6/55/57 17/58/58 19/57/59 7/56/60
f 7/49/61 19/52/62 20/51/63 8/50/64
f 8/33/65 20/36/66 18/35/67 9/34/68
