# This file uses centimeters as units for non-parametric coordinates.

v 0.000000 0.000000 0.191242
v 0.000000 0.955462 0.191242
v 0.561090 0.955462 0.191242
v 0.216314 0.000000 0.191242
v 0.216314 0.308723 0.191242
v 0.561090 0.308723 0.191242
v 0.216314 0.770983 0.191242
v 0.339194 0.770983 0.191242
v 0.339194 0.469985 0.191242
v 0.216314 0.469985 0.191242
v 0.000000 0.955462 0.000000
v 0.216314 0.770983 0.000000
v 0.339194 0.770983 0.000000
v 0.561090 0.955462 0.000000
v 0.216314 0.000000 0.000000
v 0.000000 0.000000 0.000000
v 0.216314 0.308723 0.000000
v 0.216314 0.469985 0.000000
v 0.339194 0.469985 0.000000
v 0.561090 0.308723 0.000000
v 0.494982 0.308723 0.191242
v 0.494982 0.308723 0.000000
v 0.325282 0.308723 0.191242
v 0.325282 0.308723 0.000000
v 0.367019 0.000000 0.191242
v 0.367019 0.000000 0.000000
v 0.577432 0.000000 0.191242
v 0.577432 0.000000 0.000000
vt 0.147894 0.960333
vt 0.362544 0.960323
vt 0.362544 0.960323
vt 0.147894 0.960333
vt 0.147894 0.960333
vt 0.147894 0.960333
vt 0.147894 0.960333
vt 0.147894 0.960333
vt 0.362544 0.960323
vt 0.362544 0.960323
vt 0.615073 0.960323
vt 0.615073 0.960323
vt 0.615073 0.960323
vt 0.615073 0.960323
vt 0.615073 0.960323
vt 0.615073 0.960323
vt 0.615073 0.960323
vt 0.615073 0.960323
vt 0.615073 0.960323
vt 0.615073 0.960323
vt 0.615073 0.960323
vt 0.615073 0.960323
vt 0.615073 0.960323
vt 0.615073 0.960323
vt 0.615073 0.960323
vt 0.615073 0.960323
vt 0.615073 0.960323
vt 0.615073 0.960323
vt 0.615073 0.960323
vt 0.615073 0.960323
vt 0.865077 0.960338
vt 0.865077 0.960338
vt 0.865077 0.960338
vt 0.865077 0.960338
vt 0.865077 0.960338
vt 0.865077 0.960338
vt 0.865077 0.960338
vt 0.865077 0.960338
vt 0.362544 0.960323
vt 0.362544 0.960323
vt 0.362544 0.960323
vt 0.362544 0.960323
vt 0.362544 0.960323
vt 0.362544 0.960323
vt 0.362544 0.960323
vt 0.362544 0.960323
vt 0.362544 0.960323
vt 0.362544 0.960323
vt 0.362544 0.960323
vt 0.362544 0.960323
vt 0.362544 0.960323
vt 0.362544 0.960323
vt 0.362544 0.960323
vt 0.362544 0.960323
vt 0.147894 0.960333
vt 0.147894 0.960333
vt 0.147894 0.960333
vt 0.147894 0.960333
vt 0.147894 0.960333
vt 0.147894 0.960333
vt 0.147894 0.960333
vt 0.615073 0.960323
vt 0.615073 0.960323
vt 0.147894 0.960333
vt 0.147894 0.960333
vt 0.615073 0.960323
vt 0.615073 0.960323
vt 0.147894 0.960333
vt 0.617773 0.960324
vt 0.617773 0.960324
vt 0.617773 0.960324
vt 0.617773 0.960324
vt 0.617773 0.960324
vt 0.617773 0.960324
vt 0.617773 0.960324
vt 0.617773 0.960324
vt 0.368581 0.960318
vt 0.368581 0.960318
vt 0.368581 0.960318
vt 0.368581 0.960318
vt 0.368581 0.960318
vt 0.368581 0.960318
vt 0.368581 0.960318
vt 0.368581 0.960318
vt 0.107800 0.960327
vt 0.107800 0.960327
vt 0.107800 0.960327
vt 0.107800 0.960327
vn 0.000000 0.000000 -1.000000
vn 0.000000 0.000000 -1.000000
vn 0.000000 0.000000 -1.000000
vn 0.000000 0.000000 -1.000000
vn 0.000000 0.000000 -1.000000
vn 0.000000 0.000000 -1.000000
vn 0.000000 0.000000 -1.000000
vn 0.000000 0.000000 -1.000000
vn 0.000000 0.000000 -1.000000
vn 0.000000 0.000000 -1.000000
vn 0.000000 0.000000 -1.000000
vn 0.000000 0.000000 -1.000000
vn 0.000000 0.000000 -1.000000
vn 0.000000 0.000000 -1.000000
vn 0.000000 0.000000 -1.000000
vn 0.000000 0.000000 -1.000000
vn 0.000000 0.000000 -1.000000
vn 0.000000 0.000000 -1.000000
vn 0.000000 0.000000 -1.000000
vn 0.000000 0.000000 -1.000000
vn 0.000000 0.000000 1.000000
vn 0.000000 0.000000 1.000000
vn 0.000000 0.000000 1.000000
vn 0.000000 0.000000 1.000000
vn 0.000000 0.000000 1.000000
vn 0.000000 0.000000 1.000000
vn 0.000000 0.000000 1.000000
vn 0.000000 0.000000 1.000000
vn 0.000000 0.000000 1.000000
vn 0.000000 0.000000 1.000000
vn 0.000000 0.000000 1.000000
vn 0.000000 0.000000 1.000000
vn 0.000000 0.000000 1.000000
vn 0.000000 0.000000 1.000000
vn 0.000000 0.000000 1.000000
vn 0.000000 0.000000 1.000000
vn 0.000000 0.000000 1.000000
vn 0.000000 0.000000 1.000000
vn 0.000000 0.000000 1.000000
vn 0.000000 0.000000 1.000000
vn 0.000000 -1.000000 0.000000
vn 0.000000 -1.000000 0.000000
vn 0.000000 -1.000000 0.000000
vn 0.000000 -1.000000 0.000000
vn 0.000000 1.000000 0.000000
vn 0.000000 1.000000 0.000000
vn 0.000000 1.000000 0.000000
vn 0.000000 1.000000 0.000000
vn 0.000000 -1.000000 0.000000
vn 0.000000 -1.000000 0.000000
vn 0.000000 -1.000000 0.000000
vn 0.000000 -1.000000 0.000000
vn 1.000000 0.000000 0.000000
vn 1.000000 0.000000 0.000000
vn 1.000000 0.000000 0.000000
vn 1.000000 0.000000 0.000000
vn 1.000000 0.000000 0.000000
vn 1.000000 0.000000 0.000000
vn 1.000000 0.000000 0.000000
vn 1.000000 0.000000 0.000000
vn -1.000000 0.000000 0.000000
vn -1.000000 0.000000 0.000000
vn -1.000000 0.000000 0.000000
vn -1.000000 0.000000 0.000000
vn -1.000000 0.000000 0.000000
vn -1.000000 0.000000 0.000000
vn -1.000000 0.000000 0.000000
vn -1.000000 0.000000 0.000000
vn 1.000000 0.000000 0.000000
vn 1.000000 0.000000 0.000000
vn 1.000000 0.000000 0.000000
vn 1.000000 0.000000 0.000000
vn 0.000000 1.000000 0.000000
vn 0.000000 1.000000 0.000000
vn 0.000000 1.000000 0.000000
vn 0.000000 1.000000 0.000000
vn 0.000000 -1.000000 0.000000
vn 0.000000 -1.000000 0.000000
vn 0.000000 -1.000000 0.000000
vn 0.000000 -1.000000 0.000000
vn 0.000000 -1.000000 0.000000
vn 0.000000 -1.000000 0.000000
vn 0.000000 -1.000000 0.000000
vn 0.000000 -1.000000 0.000000
vn 0.000000 -1.000000 0.000000
vn 0.000000 -1.000000 0.000000
vn 0.000000 -1.000000 0.000000
vn 0.000000 -1.000000 0.000000
vn -0.990985 -0.133973 -0.000001
vn -0.990985 -0.133973 -0.000001
vn -0.990985 -0.133973 -0.000001
vn -0.990985 -0.133973 -0.000001
vn 0.000000 0.000000 1.000000
vn 0.000000 0.000000 1.000000
vn 0.000000 0.000000 1.000000
vn 0.000000 0.000000 1.000000
vn 0.966138 0.258025 0.000000
vn 0.966138 0.258025 0.000000
vn 0.966138 0.258025 0.000000
vn 0.966138 0.258025 0.000000
vn 0.000000 0.000000 -1.000000
vn 0.000000 0.000000 -1.000000
vn 0.000000 0.000000 -1.000000
vn 0.000000 0.000000 -1.000000
s off
f 11/24/1 14/23/2 13/22/3 12/21/4
f 16/25/5 11/24/6 12/21/7 18/28/8 17/27/9 15/26/10
f 14/23/11 20/30/12 19/29/13 13/22/14
f 20/30/15 22/63/16 24/67/17 17/27/18 18/28/19 19/29/20
f 2/11/21 7/12/22 8/13/23 3/14/24
f 1/15/25 4/16/26 5/17/27 10/18/28 7/12/29 2/11/30
f 3/14/31 8/13/32 9/19/33 6/20/34
f 6/20/35 9/19/36 10/18/37 5/17/38 23/66/39 21/62/40
f 7/1/41 12/6/42 13/5/43 8/4/44
f 3/31/45 14/34/46 11/33/47 2/32/48
f 1/7/49 16/56/50 15/55/51 4/8/52
f 4/2/53 15/10/54 17/9/55 5/3/56
f 10/39/57 18/42/58 12/41/59 7/40/60
f 2/43/61 11/46/62 16/45/63 1/44/64
f 8/47/65 13/50/66 19/49/67 9/48/68
f 6/51/69 20/54/70 14/53/71 3/52/72
f 9/35/73 19/38/74 18/37/75 10/36/76
f 5/57/77 17/60/78 24/68/79 23/65/80
f 22/64/81 20/59/82 6/58/83 21/61/84
f 26/85/85 28/88/86 27/87/87 25/86/88
f 24/77/89 26/80/90 25/79/91 23/78/92
f 23/74/93 25/70/94 27/71/95 21/75/96
f 21/81/97 27/84/98 28/83/99 22/82/100
f 22/76/101 28/72/102 26/69/103 24/73/104
