# This file uses centimeters as units for non-parametric coordinates.

v 0.000000 0.000000 0.000000
v 0.000000 0.000000 0.191242
v 0.207631 0.940368 0.000000
v 0.207631 0.940368 0.191242
v 0.430049 0.940368 0.000000
v 0.430049 0.940368 0.191242
v 0.637681 0.000000 0.000000
v 0.637681 0.000000 0.191242
v 0.426202 -0.000000 0.191242
v 0.203936 0.000000 0.191242
v 0.320490 0.636883 0.191242
v 0.262213 0.318442 0.191242
v 0.373346 0.318442 0.191242
v 0.233075 0.159221 0.191242
v 0.399774 0.159221 0.191242
v 0.426202 0.000000 0.000000
v 0.203936 0.000000 0.000000
v 0.320490 0.636883 0.000000
v 0.262213 0.318442 0.000000
v 0.373346 0.318442 0.000000
v 0.233075 0.159221 0.000000
v 0.399774 0.159221 0.000000
vt 0.369044 0.960331
vt 0.369044 0.960331
vt 0.369044 0.960331
vt 0.369044 0.960331
vt 0.865003 0.960332
vt 0.865003 0.960332
vt 0.865003 0.960332
vt 0.865003 0.960332
vt 0.369044 0.960331
vt 0.369044 0.960331
vt 0.369044 0.960331
vt 0.369044 0.960331
vt 0.620417 0.960332
vt 0.620417 0.960332
vt 0.620417 0.960332
vt 0.620417 0.960332
vt 0.620417 0.960332
vt 0.620417 0.960332
vt 0.620417 0.960332
vt 0.620417 0.960332
vt 0.620417 0.960332
vt 0.620417 0.960332
vt 0.620417 0.960332
vt 0.620417 0.960332
vt 0.620417 0.960332
vt 0.620417 0.960332
vt 0.620417 0.960332
vt 0.620417 0.960332
vt 0.620417 0.960332
vt 0.620417 0.960332
vt 0.620417 0.960332
vt 0.620417 0.960332
vt 0.620417 0.960332
vt 0.620417 0.960332
vt 0.150409 0.960332
vt 0.150409 0.960332
vt 0.150409 0.960332
vt 0.150409 0.960332
vt 0.150409 0.960332
vt 0.150409 0.960332
vt 0.150409 0.960332
vt 0.150409 0.960332
vt 0.140818 0.960338
vt 0.140818 0.960338
vt 0.140818 0.960338
vt 0.140818 0.960338
vt 0.863935 0.960330
vt 0.863935 0.960330
vt 0.863935 0.960330
vt 0.863935 0.960330
vt 0.359479 0.960334
vt 0.359479 0.960334
vt 0.359479 0.960334
vt 0.359479 0.960334
vt 0.359479 0.960334
vt 0.359479 0.960334
vt 0.359479 0.960334
vt 0.359479 0.960334
vt 0.359479 0.960334
vt 0.359479 0.960334
vt 0.359479 0.960334
vt 0.359479 0.960334
vt 0.359479 0.960334
vt 0.359479 0.960334
vn -0.976481 0.215605 0.000000
vn -0.976481 0.215605 0.000000
vn -0.976481 0.215605 0.000000
vn -0.976481 0.215605 0.000000
vn 0.000000 1.000000 0.000000
vn 0.000000 1.000000 0.000000
vn 0.000000 1.000000 0.000000
vn 0.000000 1.000000 0.000000
vn 0.976481 0.215605 0.000000
vn 0.976481 0.215605 0.000000
vn 0.976481 0.215605 0.000000
vn 0.976481 0.215605 0.000000
vn 0.000000 0.000000 1.000000
vn 0.000000 0.000000 1.000000
vn 0.000000 0.000000 1.000000
vn 0.000000 0.000000 1.000000
vn 0.000000 0.000000 1.000000
vn 0.000000 0.000000 1.000000
vn -0.000001 0.000000 -1.000000
vn -0.000001 0.000000 -1.000000
vn -0.000001 0.000000 -1.000000
vn -0.000001 0.000000 -1.000000
vn -0.000001 0.000000 -1.000000
vn -0.000001 0.000000 -1.000000
vn 0.000000 0.000000 1.000000
vn 0.000000 0.000000 1.000000
vn 0.000000 0.000000 1.000000
vn 0.000000 0.000000 1.000000
vn 0.000000 0.000000 1.000000
vn 0.000000 0.000000 1.000000
vn 0.000000 0.000000 1.000000
vn 0.000000 0.000000 1.000000
vn 0.000000 0.000000 1.000000
vn 0.000000 0.000000 1.000000
vn 0.000000 0.000000 1.000000
vn 0.000000 0.000000 1.000000
vn 0.000000 0.000000 1.000000
vn 0.000001 0.000000 -1.000000
vn 0.000001 0.000000 -1.000000
vn 0.000001 0.000000 -1.000000
vn 0.000001 0.000000 -1.000000
vn 0.000001 0.000000 -1.000000
vn 0.000001 0.000000 -1.000000
vn 0.000000 -0.000002 -1.000000
vn 0.000000 -0.000002 -1.000000
vn 0.000000 -0.000002 -1.000000
vn 0.000000 0.000000 -1.000000
vn 0.000000 0.000000 -1.000000
vn 0.000000 0.000000 -1.000000
vn 0.000000 0.000000 -1.000000
vn -0.986503 -0.163743 0.000000
vn -0.986503 -0.163743 0.000000
vn -0.986503 -0.163743 0.000000
vn -0.986503 -0.163743 0.000000
vn 0.983663 -0.180018 0.000000
vn 0.983663 -0.180018 0.000000
vn 0.983663 -0.180018 0.000000
vn 0.983663 -0.180018 0.000000
vn -0.986503 -0.163742 -0.000000
vn -0.986503 -0.163742 -0.000000
vn -0.986503 -0.163742 -0.000000
vn -0.986503 -0.163742 -0.000000
vn -0.000000 -1.000000 -0.000000
vn -0.000000 -1.000000 -0.000000
vn -0.000000 -1.000000 -0.000000
vn -0.000000 -1.000000 -0.000000
vn 0.983663 -0.180020 0.000000
vn 0.983663 -0.180020 0.000000
vn 0.983663 -0.180020 0.000000
vn 0.983663 -0.180020 0.000000
vn 0.000000 1.000000 0.000000
vn 0.000000 1.000000 0.000000
vn 0.000000 1.000000 0.000000
vn 0.000000 1.000000 0.000000
vn 0.000000 -1.000000 0.000000
vn 0.000000 -1.000000 0.000000
vn 0.000000 -1.000000 0.000000
vn 0.000000 -1.000000 0.000000
vn 0.000000 -1.000000 -0.000000
vn 0.000000 -1.000000 -0.000000
vn 0.000000 -1.000000 -0.000000
vn 0.000000 -1.000000 -0.000000
s off
f 1/1/1 2/2/2 4/3/3 3/4/4
f 3/5/5 4/6/6 6/7/7 5/8/8
f 5/9/9 6/10/10 8/11/11 7/12/12
f 2/13/13 10/22/14 14/26/15 12/24/16 11/23/17 4/16/18
f 7/17/19 16/28/20 22/34/21 20/32/22 18/30/23 5/20/24
f 14/26/25 15/27/26 13/25/27 12/24/28
f 4/16/29 11/23/30 6/15/31
f 6/15/32 11/23/33 13/25/34 15/27/35 9/21/36 8/14/37
f 3/19/38 18/30/39 19/31/40 21/33/41 17/29/42 1/18/43
f 5/20/44 18/30/45 3/19/46
f 22/34/47 21/33/48 19/31/49 20/32/50
f 13/51/51 11/52/52 18/53/53 20/54/54
f 11/52/55 12/55/56 19/56/57 18/53/58
f 16/57/59 9/58/60 15/59/61 22/60/62
f 15/43/63 14/44/64 21/45/65 22/46/66
f 14/61/67 10/62/68 17/63/69 21/64/70
f 13/47/71 20/48/72 19/49/73 12/50/74
f 2/35/75 1/36/76 17/37/77 10/38/78
f 8/39/79 9/40/80 16/41/81 7/42/82
