# This file uses centimeters as units for non-parametric coordinates.

v 0.000000 0.000000 0.191242
v 0.000000 0.955462 0.191242
v 0.561087 0.955462 0.191242
v 0.561087 0.000000 0.191242
v 0.000000 0.187886 0.191242
v 0.000000 0.764443 0.191242
v 0.338118 0.764443 0.191242
v 0.561087 0.764443 0.191242
v 0.561087 0.187886 0.191242
v 0.219929 0.187886 0.191242
v 0.561087 0.000000 0.000000
v 0.000000 0.000000 0.000000
v 0.561087 0.187886 0.000000
v 0.219929 0.187886 0.000000
v 0.000000 0.187886 0.000000
v 0.338118 0.764443 0.000000
v 0.561087 0.764443 0.000000
v 0.561087 0.955462 0.000000
v 0.000000 0.955462 0.000000
v 0.000000 0.764443 0.000000
vt 0.119390 0.960339
vt 0.119390 0.960339
vt 0.351196 0.960344
vt 0.351196 0.960344
vt 0.351196 0.960344
vt 0.119390 0.960339
vt 0.119390 0.960339
vt 0.351196 0.960344
vt 0.351196 0.960344
vt 0.351196 0.960344
vt 0.620417 0.960332
vt 0.620417 0.960332
vt 0.620417 0.960332
vt 0.620417 0.960332
vt 0.620417 0.960332
vt 0.620417 0.960332
vt 0.620417 0.960332
vt 0.620417 0.960332
vt 0.620417 0.960332
vt 0.620417 0.960332
vt 0.620417 0.960332
vt 0.620417 0.960332
vt 0.620417 0.960332
vt 0.620417 0.960332
vt 0.620417 0.960332
vt 0.620417 0.960332
vt 0.620417 0.960332
vt 0.620417 0.960332
vt 0.620417 0.960332
vt 0.620417 0.960332
vt 0.823500 0.960327
vt 0.823501 0.960327
vt 0.823501 0.960327
vt 0.823500 0.960327
vt 0.823500 0.960327
vt 0.823500 0.960327
vt 0.823500 0.960327
vt 0.823500 0.960327
vt 0.351196 0.960344
vt 0.351196 0.960344
vt 0.351196 0.960344
vt 0.351196 0.960344
vt 0.351196 0.960344
vt 0.351196 0.960344
vt 0.351196 0.960344
vt 0.351196 0.960344
vt 0.351196 0.960344
vt 0.351196 0.960344
vt 0.351196 0.960344
vt 0.351196 0.960344
vt 0.351196 0.960344
vt 0.351196 0.960344
vt 0.119390 0.960339
vt 0.119390 0.960339
vt 0.119390 0.960339
vt 0.119390 0.960339
vn 0.000000 0.000000 -1.000000
vn 0.000000 0.000000 -1.000000
vn 0.000000 0.000000 -1.000000
vn 0.000000 0.000000 -1.000000
vn 0.000000 0.000000 -1.000000
vn 0.000000 0.000000 -1.000000
vn 0.000000 0.000000 -1.000000
vn 0.000000 0.000000 -1.000000
vn 0.000000 0.000000 -1.000000
vn 0.000000 0.000000 -1.000000
vn 0.000000 0.000000 -1.000000
vn 0.000000 0.000000 -1.000000
vn 0.000000 0.000000 -1.000000
vn 0.000000 0.000000 -1.000000
vn 0.000000 0.000000 1.000000
vn 0.000000 0.000000 1.000000
vn 0.000000 0.000000 1.000000
vn 0.000000 0.000000 1.000000
vn 0.000000 0.000000 1.000000
vn 0.000000 0.000000 1.000000
vn 0.000000 0.000000 1.000000
vn 0.000000 0.000000 1.000000
vn 0.000000 0.000000 1.000000
vn 0.000000 0.000000 1.000000
vn 0.000000 0.000000 1.000000
vn 0.000000 0.000000 1.000000
vn 0.000000 0.000000 1.000000
vn 0.000000 0.000000 1.000000
vn 0.000000 -1.000000 0.000000
vn 0.000000 -1.000000 0.000000
vn 0.000000 -1.000000 0.000000
vn 0.000000 -1.000000 0.000000
vn 1.000000 0.000000 0.000000
vn 1.000000 0.000000 0.000000
vn 1.000000 0.000000 0.000000
vn 1.000000 0.000000 0.000000
vn 0.000000 1.000000 0.000000
vn 0.000000 1.000000 0.000000
vn 0.000000 1.000000 0.000000
vn 0.000000 1.000000 0.000000
vn -1.000000 0.000000 0.000000
vn -1.000000 0.000000 0.000000
vn -1.000000 0.000000 0.000000
vn -1.000000 0.000000 0.000000
vn 1.000000 0.000000 0.000000
vn 1.000000 0.000000 0.000000
vn 1.000000 0.000000 0.000000
vn 1.000000 0.000000 0.000000
vn 0.000000 1.000000 0.000000
vn 0.000000 1.000000 0.000000
vn 0.000000 1.000000 0.000000
vn 0.000000 1.000000 0.000000
vn -1.000000 0.000000 0.000000
vn -1.000000 0.000000 0.000000
vn -1.000000 0.000000 0.000000
vn -1.000000 0.000000 0.000000
vn 0.000000 -1.000000 0.000000
vn 0.000000 -1.000000 0.000000
vn 0.000000 -1.000000 0.000000
vn 0.000000 -1.000000 0.000000
vn 0.860623 -0.509243 0.000000
vn 0.860623 -0.509243 0.000000
vn 0.860623 -0.509243 0.000000
vn 0.860623 -0.509243 0.000000
vn -0.862610 0.505870 0.000000
vn -0.862610 0.505870 0.000000
vn -0.862610 0.505870 0.000000
vn -0.862610 0.505870 0.000000
s off
f 12/21/1 15/25/2 14/24/3 13/23/4 11/22/5
f 16/30/6 20/29/7 19/28/8 18/27/9 17/26/10
f 15/25/11 16/30/12 17/26/13 14/24/14
f 1/11/15 4/12/16 9/13/17 10/14/18 5/15/19
f 7/16/20 8/17/21 3/18/22 2/19/23 6/20/24
f 5/15/25 10/14/26 8/17/27 7/16/28
f 1/1/29 12/7/30 11/6/31 4/2/32
f 4/3/33 11/8/34 13/5/35 9/4/36
f 9/31/37 13/34/38 14/33/39 10/32/40
f 5/9/41 15/40/42 12/39/43 1/10/44
f 8/41/45 17/44/46 18/43/47 3/42/48
f 3/35/49 18/38/50 19/37/51 2/36/52
f 2/45/53 19/48/54 20/47/55 6/46/56
f 6/53/57 20/56/58 16/55/59 7/54/60
f 10/49/61 14/50/62 17/44/63 8/41/64
f 7/51/65 16/52/66 15/40/67 5/9/68
