# This file uses centimeters as units for non-parametric coordinates.

v -0.284317 -0.276453 -0.100038
v -0.284317 -0.276453 0.100038
v -0.284317 0.185200 -0.100038
v -0.284317 0.185200 0.100038
v 0.284317 0.185200 -0.100038
v 0.284317 0.185200 0.100038
v 0.284317 -0.276453 -0.100038
v 0.284317 -0.276453 0.100038
v 0.183472 -0.186671 0.100038
v -0.183472 -0.186671 0.100038
v 0.183472 0.185200 0.100038
v -0.183472 0.185200 0.100038
v 0.183472 -0.186671 -0.100038
v -0.183472 -0.186671 -0.100038
v -0.183472 0.185200 -0.100038
v 0.183472 0.185200 -0.100038
v 0.067963 -0.276453 0.100038
v -0.067963 -0.276453 0.100038
v 0.067963 -0.276453 -0.100038
v -0.067963 -0.276453 -0.100038
v 0.067963 -0.535166 -0.100038
v 0.067963 -0.535166 0.100038
v -0.067963 -0.535166 0.100038
v -0.067963 -0.535166 -0.100038
v -0.131523 -0.128324 -0.100038
v -0.131523 -0.128324 0.100038
v -0.131523 0.535166 -0.100038
v -0.131523 0.535166 0.100038
v 0.131523 0.535166 -0.100038
v 0.131523 0.535166 0.100038
v 0.131523 -0.128324 -0.100038
v 0.131523 -0.128324 0.100038
v 0.049238 -0.038542 0.100038
v -0.049238 -0.038542 0.100038
v 0.049238 0.445384 0.100038
v -0.049238 0.445384 0.100038
v 0.049238 -0.038542 -0.100038
v -0.049238 -0.038542 -0.100038
v -0.049238 0.445384 -0.100038
v 0.049238 0.445384 -0.100038
vt 0.369044 0.953552
vt 0.369044 0.953552
vt 0.369044 0.953552
vt 0.369044 0.953552
vt 0.369044 0.953552
vt 0.369044 0.953552
vt 0.369044 0.953552
vt 0.369044 0.953552
vt 0.126308 0.953552
vt 0.126308 0.953552
vt 0.126308 0.953552
vt 0.126308 0.953552
vt 0.620417 0.953552
vt 0.620417 0.953552
vt 0.620417 0.953552
vt 0.620417 0.953552
vt 0.620417 0.953552
vt 0.620417 0.953552
vt 0.620417 0.953552
vt 0.620417 0.953552
vt 0.620417 0.953552
vt 0.620417 0.953552
vt 0.620417 0.953552
vt 0.620417 0.953552
vt 0.620417 0.953552
vt 0.620417 0.953552
vt 0.620417 0.953552
vt 0.620417 0.953552
vt 0.620417 0.953552
vt 0.620417 0.953552
vt 0.620417 0.953552
vt 0.620417 0.953552
vt 0.865003 0.953552
vt 0.865003 0.953552
vt 0.865003 0.953552
vt 0.865003 0.953552
vt 0.369044 0.953552
vt 0.369044 0.953552
vt 0.369044 0.953552
vt 0.369044 0.953552
vt 0.369044 0.953552
vt 0.369044 0.953552
vt 0.369044 0.953552
vt 0.369044 0.953552
vt 0.865003 0.953552
vt 0.865003 0.953552
vt 0.865003 0.953552
vt 0.865003 0.953552
vt 0.865003 0.953552
vt 0.865003 0.953552
vt 0.865003 0.953552
vt 0.865003 0.953552
vt 0.126308 0.953552
vt 0.126308 0.953552
vt 0.126308 0.953552
vt 0.126308 0.953552
vt 0.126308 0.953552
vt 0.126308 0.953552
vt 0.126308 0.953552
vt 0.126308 0.953552
vt 0.369044 0.953552
vt 0.369044 0.953552
vt 0.369044 0.953552
vt 0.369044 0.953552
vt 0.620417 0.953552
vt 0.620417 0.953552
vt 0.620417 0.953552
vt 0.620417 0.953552
vt 0.369044 0.953552
vt 0.369044 0.953552
vt 0.369044 0.953552
vt 0.369044 0.953552
vt 0.620417 0.953552
vt 0.620417 0.953552
vt 0.620417 0.953552
vt 0.620417 0.953552
vt 0.369044 0.953552
vt 0.369044 0.953552
vt 0.369044 0.953552
vt 0.369044 0.953552
vt 0.865003 0.953552
vt 0.865003 0.953552
vt 0.865003 0.953552
vt 0.865003 0.953552
vt 0.369044 0.953552
vt 0.369044 0.953552
vt 0.369044 0.953552
vt 0.369044 0.953552
vt 0.126308 0.953552
vt 0.126308 0.953552
vt 0.126308 0.953552
vt 0.126308 0.953552
vt 0.620417 0.953552
vt 0.620417 0.953552
vt 0.620417 0.953552
vt 0.620417 0.953552
vt 0.620417 0.953552
vt 0.620417 0.953552
vt 0.620417 0.953552
vt 0.620417 0.953552
vt 0.620417 0.953552
vt 0.620417 0.953552
vt 0.620417 0.953552
vt 0.620417 0.953552
vt 0.620417 0.953552
vt 0.620417 0.953552
vt 0.620417 0.953552
vt 0.620417 0.953552
vt 0.865003 0.953552
vt 0.865003 0.953552
vt 0.865003 0.953552
vt 0.865003 0.953552
vt 0.369044 0.953552
vt 0.369044 0.953552
vt 0.369044 0.953552
vt 0.369044 0.953552
vt 0.126308 0.953552
vt 0.126308 0.953552
vt 0.126308 0.953552
vt 0.126308 0.953552
vt 0.369044 0.953552
vt 0.369044 0.953552
vt 0.369044 0.953552
vt 0.369044 0.953552
vn -1.000000 0.000000 0.000000
vn -1.000000 0.000000 0.000000
vn -1.000000 0.000000 0.000000
vn -1.000000 0.000000 0.000000
vn 1.000000 0.000000 0.000000
vn 1.000000 0.000000 0.000000
vn 1.000000 0.000000 0.000000
vn 1.000000 0.000000 0.000000
vn 0.000002 -1.000000 -0.000000
vn 0.000002 -1.000000 -0.000000
vn 0.000002 -1.000000 -0.000000
vn 0.000002 -1.000000 -0.000000
vn 0.000000 0.000000 1.000000
vn 0.000000 0.000000 1.000000
vn 0.000000 0.000000 1.000000
vn 0.000000 0.000000 1.000000
vn 0.000000 0.000000 1.000000
vn 0.000000 0.000000 1.000000
vn 0.000000 0.000000 1.000000
vn 0.000000 0.000000 1.000000
vn 0.000000 0.000000 1.000000
vn 0.000000 0.000000 1.000000
vn 0.000000 0.000000 1.000000
vn 0.000000 0.000000 1.000000
vn 0.000000 0.000000 1.000000
vn 0.000000 0.000000 1.000000
vn 0.000000 0.000000 -1.000000
vn 0.000000 0.000000 -1.000000
vn 0.000000 0.000000 -1.000000
vn 0.000000 0.000000 -1.000000
vn 0.000000 0.000000 -1.000000
vn 0.000000 0.000000 -1.000000
vn -0.000000 0.000000 -1.000000
vn -0.000000 0.000000 -1.000000
vn -0.000000 0.000000 -1.000000
vn -0.000000 0.000000 -1.000000
vn 0.000000 0.000000 -1.000000
vn 0.000000 0.000000 -1.000000
vn 0.000000 0.000000 -1.000000
vn 0.000000 0.000000 -1.000000
vn 0.000000 1.000000 0.000000
vn 0.000000 1.000000 0.000000
vn 0.000000 1.000000 0.000000
vn 0.000000 1.000000 0.000000
vn -1.000000 0.000000 0.000000
vn -1.000000 0.000000 0.000000
vn -1.000000 0.000000 0.000000
vn -1.000000 0.000000 0.000000
vn 1.000000 0.000000 0.000000
vn 1.000000 0.000000 0.000000
vn 1.000000 0.000000 0.000000
vn 1.000000 0.000000 0.000000
vn 0.000000 1.000000 0.000000
vn 0.000000 1.000000 0.000000
vn 0.000000 1.000000 0.000000
vn 0.000000 1.000000 0.000000
vn 0.000000 1.000000 0.000000
vn 0.000000 1.000000 0.000000
vn 0.000000 1.000000 0.000000
vn 0.000000 1.000000 0.000000
vn 0.000000 -1.000000 0.000000
vn 0.000000 -1.000000 0.000000
vn 0.000000 -1.000000 0.000000
vn 0.000000 -1.000000 0.000000
vn -0.000001 -1.000000 0.000000
vn -0.000001 -1.000000 0.000000
vn -0.000001 -1.000000 0.000000
vn -0.000001 -1.000000 0.000000
vn 1.000000 0.000000 0.000000
vn 1.000000 0.000000 0.000000
vn 1.000000 0.000000 0.000000
vn 1.000000 0.000000 0.000000
vn 0.000000 0.000000 1.000000
vn 0.000000 0.000000 1.000000
vn 0.000000 0.000000 1.000000
vn 0.000000 0.000000 1.000000
vn -1.000000 0.000000 0.000000
vn -1.000000 0.000000 0.000000
vn -1.000000 0.000000 0.000000
vn -1.000000 0.000000 0.000000
vn -0.000000 0.000000 -1.000000
vn -0.000000 0.000000 -1.000000
vn -0.000000 0.000000 -1.000000
vn -0.000000 0.000000 -1.000000
vn -1.000000 0.000000 0.000000
vn -1.000000 0.000000 0.000000
vn -1.000000 0.000000 0.000000
vn -1.000000 0.000000 0.000000
vn 0.000000 1.000000 0.000000
vn 0.000000 1.000000 0.000000
vn 0.000000 1.000000 0.000000
vn 0.000000 1.000000 0.000000
vn 1.000000 0.000000 0.000000
vn 1.000000 0.000000 0.000000
vn 1.000000 0.000000 0.000000
vn 1.000000 0.000000 0.000000
vn 0.000000 -1.000000 0.000000
vn 0.000000 -1.000000 0.000000
vn 0.000000 -1.000000 0.000000
vn 0.000000 -1.000000 0.000000
vn 0.000000 -0.000000 1.000000
vn 0.000000 -0.000000 1.000000
vn 0.000000 -0.000000 1.000000
vn 0.000000 -0.000000 1.000000
vn 0.000000 0.000000 1.000000
vn 0.000000 0.000000 1.000000
vn 0.000000 0.000000 1.000000
vn 0.000000 0.000000 1.000000
vn 0.000000 0.000000 1.000000
vn 0.000000 0.000000 1.000000
vn 0.000000 0.000000 1.000000
vn 0.000000 0.000000 1.000000
vn 0.000000 0.000000 1.000000
vn 0.000000 0.000000 1.000000
vn 0.000000 0.000000 1.000000
vn 0.000000 0.000000 1.000000
vn 0.000000 0.000000 -1.000000
vn 0.000000 0.000000 -1.000000
vn 0.000000 0.000000 -1.000000
vn 0.000000 0.000000 -1.000000
vn -0.000000 0.000000 -1.000000
vn -0.000000 0.000000 -1.000000
vn -0.000000 0.000000 -1.000000
vn -0.000000 0.000000 -1.000000
vn 0.000000 0.000000 -1.000000
vn 0.000000 0.000000 -1.000000
vn 0.000000 0.000000 -1.000000
vn 0.000000 0.000000 -1.000000
vn 0.000000 0.000000 -1.000000
vn 0.000000 0.000000 -1.000000
vn 0.000000 0.000000 -1.000000
vn 0.000000 0.000000 -1.000000
vn 0.000000 1.000000 0.000000
vn 0.000000 1.000000 0.000000
vn 0.000000 1.000000 0.000000
vn 0.000000 1.000000 0.000000
vn -1.000000 0.000000 0.000000
vn -1.000000 0.000000 0.000000
vn -1.000000 0.000000 0.000000
vn -1.000000 0.000000 0.000000
vn 0.000000 -1.000000 0.000000
vn 0.000000 -1.000000 0.000000
vn 0.000000 -1.000000 0.000000
vn 0.000000 -1.000000 0.000000
vn 1.000000 0.000000 -0.000000
vn 1.000000 0.000000 -0.000000
vn 1.000000 0.000000 -0.000000
vn 1.000000 0.000000 -0.000000
s off
f 1/1/1 2/2/2 4/3/3 3/4/4
f 5/5/5 6/6/6 8/7/7 7/8/8
f 21/9/9 22/10/10 23/11/11 24/12/12
f 2/13/13 18/14/14 17/15/15 8/16/16 9/17/17 10/18/18
f 8/16/19 6/19/20 11/20/21 9/17/22
f 4/21/23 2/13/24 10/18/25 12/22/26
f 7/23/27 19/24/28 20/25/29 1/26/30 14/27/31 13/28/32
f 1/26/33 3/29/34 15/30/35 14/27/36
f 5/31/37 7/23/38 13/28/39 16/32/40
f 10/33/41 9/34/42 13/35/43 14/36/44
f 9/37/45 11/38/46 16/39/47 13/40/48
f 12/41/49 10/42/50 14/43/51 15/44/52
f 4/45/53 12/46/54 15/47/55 3/48/56
f 6/49/57 5/50/58 16/51/59 11/52/60
f 20/53/61 18/54/62 2/55/63 1/56/64
f 7/57/65 8/58/66 17/59/67 19/60/68
f 19/61/69 17/62/70 22/63/71 21/64/72
f 17/65/73 18/66/74 23/67/75 22/68/76
f 18/69/77 20/70/78 24/71/79 23/72/80
f 20/73/81 19/74/82 21/75/83 24/76/84
f 25/77/85 26/78/86 28/79/87 27/80/88
f 27/81/89 28/82/90 30/83/91 29/84/92
f 29/85/93 30/86/94 32/87/95 31/88/96
f 31/89/97 32/90/98 26/91/99 25/92/100
f 26/93/101 32/94/102 33/95/103 34/96/104
f 32/94/105 30/97/106 35/98/107 33/95/108
f 30/97/109 28/99/110 36/100/111 35/98/112
f 28/99/113 26/93/114 34/96/115 36/100/116
f 31/101/117 25/102/118 38/103/119 37/104/120
f 25/102/121 27/105/122 39/106/123 38/103/124
f 27/105/125 29/107/126 40/108/127 39/106/128
f 29/107/129 31/101/130 37/104/131 40/108/132
f 34/109/133 33/110/134 37/111/135 38/112/136
f 33/113/137 35/114/138 40/115/139 37/116/140
f 35/117/141 36/118/142 39/119/143 40/120/144
f 36/121/145 34/122/146 38/123/147 39/124/148
