# This file uses centimeters as units for non-parametric coordinates.

v -0.601551 -0.042497 -0.100038
v -0.601551 -0.042497 0.100038
v -0.601551 0.042496 -0.100038
v -0.601551 0.042496 0.100038
v -0.410404 0.103439 -0.100038
v -0.410404 0.103439 0.100038
v -0.410404 -0.103439 0.100038
v -0.410404 -0.103439 -0.100038
v 0.601551 0.047671 -0.100038
v 0.601551 0.047671 0.100038
v 0.601551 -0.047671 -0.100038
v 0.601551 -0.047671 0.100038
v -0.264160 0.150065 -0.100038
v -0.264160 0.150065 0.100038
v -0.264160 -0.150065 0.100038
v -0.264160 -0.150065 -0.100038
v 0.154217 -0.150065 0.100038
v 0.154217 0.150065 0.100038
v 0.154217 0.150065 -0.100038
v 0.154217 -0.150065 -0.100038
v 0.228233 -0.058102 0.100038
v 0.228233 0.058102 0.100038
v 0.228233 0.058102 -0.100038
v 0.228233 -0.058102 -0.100038
v 0.361294 -0.058102 0.100038
v 0.361294 0.058102 0.100038
v 0.361294 0.058102 -0.100038
v 0.361294 -0.058102 -0.100038
v 0.559536 -0.130559 0.100038
v 0.559536 0.130559 0.100038
v 0.559536 0.130559 -0.100038
v 0.559536 -0.130559 -0.100038
v 0.559536 -0.047671 0.100038
v 0.559536 0.047671 0.100038
v 0.559536 0.047671 -0.100038
v 0.559536 -0.047671 -0.100038
v 0.486622 0.150065 -0.100038
v 0.486622 0.150065 0.100038
v 0.486622 -0.150065 0.100038
v 0.486622 -0.150065 -0.100038
v -0.360493 0.119352 -0.100038
v -0.360493 0.119352 0.100038
v -0.360493 -0.119352 0.100038
v -0.360493 -0.119352 -0.100038
vt 0.369044 0.953551
vt 0.369044 0.953551
vt 0.369044 0.953551
vt 0.369044 0.953551
vt 0.865003 0.953551
vt 0.865003 0.953551
vt 0.865003 0.953551
vt 0.865003 0.953551
vt 0.620417 0.953551
vt 0.620417 0.953551
vt 0.620417 0.953551
vt 0.620417 0.953551
vt 0.126308 0.953551
vt 0.126308 0.953551
vt 0.126308 0.953551
vt 0.126308 0.953551
vt 0.620417 0.953551
vt 0.620417 0.953551
vt 0.620417 0.953551
vt 0.620417 0.953551
vt 0.126308 0.953551
vt 0.126308 0.953551
vt 0.126308 0.953551
vt 0.126308 0.953551
vt 0.865003 0.953551
vt 0.865003 0.953551
vt 0.865003 0.953551
vt 0.865003 0.953551
vt 0.369044 0.953551
vt 0.369044 0.953551
vt 0.369044 0.953551
vt 0.369044 0.953551
vt 0.126308 0.953551
vt 0.126308 0.953551
vt 0.126308 0.953551
vt 0.126308 0.953551
vt 0.620417 0.953551
vt 0.620417 0.953551
vt 0.620417 0.953551
vt 0.620417 0.953551
vt 0.620417 0.953551
vt 0.620417 0.953551
vt 0.620417 0.953551
vt 0.620417 0.953551
vt 0.865003 0.953551
vt 0.865003 0.953551
vt 0.620417 0.953551
vt 0.620417 0.953551
vt 0.126308 0.953551
vt 0.126308 0.953551
vt 0.620417 0.953551
vt 0.620417 0.953551
vt 0.620417 0.953551
vt 0.620417 0.953551
vt 0.865003 0.953551
vt 0.865003 0.953551
vt 0.620417 0.953551
vt 0.620417 0.953551
vt 0.126308 0.953551
vt 0.126308 0.953551
vt 0.620417 0.953551
vt 0.620417 0.953551
vt 0.865003 0.953551
vt 0.865003 0.953551
vt 0.620417 0.953551
vt 0.620417 0.953551
vt 0.126308 0.953551
vt 0.126308 0.953551
vt 0.620417 0.953551
vt 0.620417 0.953551
vt 0.620417 0.953551
vt 0.620417 0.953551
vt 0.865003 0.953551
vt 0.865003 0.953551
vt 0.865003 0.953551
vt 0.865003 0.953551
vt 0.620417 0.953551
vt 0.620417 0.953551
vt 0.620417 0.953551
vt 0.620417 0.953551
vt 0.126308 0.953551
vt 0.126308 0.953551
vt 0.126308 0.953551
vt 0.126308 0.953551
vt 0.620417 0.953551
vt 0.620417 0.953551
vt 0.865003 0.953551
vt 0.865003 0.953551
vt 0.620417 0.953551
vt 0.620417 0.953551
vt 0.126308 0.953551
vt 0.126308 0.953551
vt 0.620417 0.953551
vt 0.620417 0.953551
vt 0.865003 0.953551
vt 0.865003 0.953551
vt 0.620417 0.953551
vt 0.620417 0.953551
vt 0.126308 0.953551
vt 0.126308 0.953551
vt 0.126308 0.953551
vt 0.126308 0.953551
vt 0.126308 0.953551
vt 0.126308 0.953551
vn -1.000000 0.000000 0.000000
vn -1.000000 0.000000 0.000000
vn -1.000000 0.000000 0.000000
vn -1.000000 0.000000 0.000000
vn -0.303759 0.952749 -0.000000
vn -0.303759 0.952749 -0.000000
vn -0.303759 0.952749 -0.000000
vn -0.303759 0.952749 -0.000000
vn 0.000000 0.000000 1.000000
vn 0.000000 0.000000 1.000000
vn 0.000000 0.000000 1.000000
vn 0.000000 0.000000 1.000000
vn -0.303757 -0.952750 -0.000000
vn -0.303757 -0.952750 -0.000000
vn -0.303757 -0.952750 -0.000000
vn -0.303757 -0.952750 -0.000000
vn 0.000000 0.000000 -1.000000
vn 0.000000 0.000000 -1.000000
vn 0.000000 0.000000 -1.000000
vn 0.000000 0.000000 -1.000000
vn 1.000000 0.000000 0.000000
vn 1.000000 0.000000 0.000000
vn 1.000000 0.000000 0.000000
vn 1.000000 0.000000 0.000000
vn 0.000000 1.000000 0.000000
vn 0.000000 1.000000 0.000000
vn 0.000000 1.000000 0.000000
vn 0.000000 1.000000 0.000000
vn 1.000000 0.000000 0.000000
vn 1.000000 0.000000 0.000000
vn 1.000000 0.000000 0.000000
vn 1.000000 0.000000 0.000000
vn 0.000000 -1.000000 0.000000
vn 0.000000 -1.000000 0.000000
vn 0.000000 -1.000000 0.000000
vn 0.000000 -1.000000 0.000000
vn 0.000000 0.000000 1.000000
vn 0.000000 0.000000 1.000000
vn 0.000000 0.000000 1.000000
vn 0.000000 0.000000 1.000000
vn 0.000000 0.000000 -1.000000
vn 0.000000 0.000000 -1.000000
vn 0.000000 0.000000 -1.000000
vn 0.000000 0.000000 -1.000000
vn -0.303765 0.952747 0.000000
vn -0.303765 0.952747 0.000000
vn -0.303765 0.952747 0.000000
vn -0.303765 0.952747 0.000000
vn -0.000000 0.000000 1.000000
vn -0.000000 0.000000 1.000000
vn -0.000000 0.000000 1.000000
vn -0.000000 0.000000 1.000000
vn -0.303765 -0.952747 0.000000
vn -0.303765 -0.952747 0.000000
vn -0.303765 -0.952747 0.000000
vn -0.303765 -0.952747 0.000000
vn 0.000000 0.000000 -1.000000
vn 0.000000 0.000000 -1.000000
vn 0.000000 0.000000 -1.000000
vn 0.000000 0.000000 -1.000000
vn 0.000000 0.000000 1.000000
vn 0.000000 0.000000 1.000000
vn 0.000000 0.000000 1.000000
vn 0.000000 0.000000 1.000000
vn 0.779023 0.626995 0.000000
vn 0.779023 0.626995 0.000000
vn 0.779023 0.626995 0.000000
vn 0.779023 0.626995 0.000000
vn 0.000000 0.000000 -1.000000
vn 0.000000 0.000000 -1.000000
vn 0.000000 0.000000 -1.000000
vn 0.000000 0.000000 -1.000000
vn 0.779023 -0.626995 0.000000
vn 0.779023 -0.626995 0.000000
vn 0.779023 -0.626995 0.000000
vn 0.779023 -0.626995 0.000000
vn 0.000000 0.000000 1.000000
vn 0.000000 0.000000 1.000000
vn 0.000000 0.000000 1.000000
vn 0.000000 0.000000 1.000000
vn 0.000000 1.000000 0.000000
vn 0.000000 1.000000 0.000000
vn 0.000000 1.000000 0.000000
vn 0.000000 1.000000 0.000000
vn 0.000000 0.000000 -1.000000
vn 0.000000 0.000000 -1.000000
vn 0.000000 0.000000 -1.000000
vn 0.000000 0.000000 -1.000000
vn 0.000000 -1.000000 0.000000
vn 0.000000 -1.000000 0.000000
vn 0.000000 -1.000000 0.000000
vn 0.000000 -1.000000 0.000000
vn -0.000000 0.000000 1.000000
vn -0.000000 0.000000 1.000000
vn -0.000000 0.000000 1.000000
vn -0.000000 0.000000 1.000000
vn 0.258432 0.966029 -0.000000
vn 0.258432 0.966029 -0.000000
vn 0.258432 0.966029 -0.000000
vn 0.258432 0.966029 -0.000000
vn 0.000000 0.000000 -1.000000
vn 0.000000 0.000000 -1.000000
vn 0.000000 0.000000 -1.000000
vn 0.000000 0.000000 -1.000000
vn 0.258432 -0.966029 -0.000000
vn 0.258432 -0.966029 -0.000000
vn 0.258432 -0.966029 -0.000000
vn 0.258432 -0.966029 -0.000000
vn 0.000000 0.000000 0.000000
vn 0.000000 0.000000 0.000000
vn 0.000000 0.000000 0.000000
vn 0.000000 0.000000 0.000000
vn 1.000000 0.000000 0.000000
vn 1.000000 0.000000 0.000000
vn 1.000000 0.000000 0.000000
vn 1.000000 0.000000 0.000000
vn -1.000000 0.000000 0.000000
vn -1.000000 0.000000 0.000000
vn -0.000000 0.000000 0.000000
vn -0.000000 0.000000 0.000000
vn 1.000000 0.000000 0.000000
vn 1.000000 0.000000 0.000000
vn 1.000000 0.000000 0.000000
vn 1.000000 0.000000 0.000000
vn 0.000000 0.000000 1.000000
vn 0.000000 0.000000 1.000000
vn 0.000000 0.000000 1.000000
vn 0.000000 0.000000 1.000000
vn 0.000000 1.000000 0.000000
vn 0.000000 1.000000 0.000000
vn 0.000000 1.000000 0.000000
vn 0.000000 1.000000 0.000000
vn -0.000001 0.000000 -1.000000
vn -0.000001 0.000000 -1.000000
vn -0.000001 0.000000 -1.000000
vn -0.000001 0.000000 -1.000000
vn 0.000000 -1.000000 0.000000
vn 0.000000 -1.000000 0.000000
vn 0.000000 -1.000000 0.000000
vn 0.000000 -1.000000 0.000000
vn -0.591599 0.806232 0.000000
vn -0.591599 0.806232 0.000000
vn -0.591599 0.806232 0.000000
vn -0.591599 0.806232 0.000000
vn -0.000000 0.000000 1.000000
vn -0.000000 0.000000 1.000000
vn -0.000000 0.000000 1.000000
vn -0.000000 0.000000 1.000000
vn -0.591599 -0.806232 0.000000
vn -0.591599 -0.806232 0.000000
vn -0.591599 -0.806232 0.000000
vn -0.591599 -0.806232 0.000000
vn 0.000000 0.000000 -1.000000
vn 0.000000 0.000000 -1.000000
vn 0.000000 0.000000 -1.000000
vn 0.000000 0.000000 -1.000000
vn -1.000000 0.000000 0.000000
vn -1.000000 0.000000 0.000000
vn -1.000000 0.000000 0.000000
vn -1.000000 0.000000 0.000000
s off
f 1/1/1 2/2/2 4/3/3 3/4/4
f 3/5/5 4/6/6 6/7/7 5/8/8
f 2/9/9 7/10/10 6/11/11 4/12/12
f 8/13/13 7/14/14 2/15/15 1/16/16
f 5/17/17 8/18/18 1/19/19 3/20/20
f 6/21/21 7/22/22 8/23/23 5/24/24
f 13/25/25 14/26/26 18/27/27 19/28/28
f 9/29/29 10/30/30 12/31/31 11/32/32
f 20/33/33 17/34/34 15/35/35 16/36/36
f 14/37/37 15/38/38 17/39/39 18/40/40
f 19/41/41 20/42/42 16/43/43 13/44/44
f 41/45/45 42/46/46 14/26/47 13/25/48
f 42/47/49 43/48/50 15/38/51 14/37/52
f 16/36/53 15/35/54 43/49/55 44/50/56
f 13/44/57 16/43/58 44/51/59 41/52/60
f 18/40/61 17/39/62 21/53/63 22/54/64
f 19/28/65 18/27/66 22/55/67 23/56/68
f 23/57/69 24/58/70 20/42/71 19/41/72
f 24/59/73 21/60/74 17/34/75 20/33/76
f 22/54/77 21/53/78 25/61/79 26/62/80
f 23/56/81 22/55/82 26/63/83 27/64/84
f 27/65/85 28/66/86 24/58/87 23/57/88
f 28/67/89 25/68/90 21/60/91 24/59/92
f 38/69/93 39/70/94 29/71/95 30/72/96
f 37/73/97 38/74/98 30/75/99 31/76/100
f 31/77/101 32/78/102 40/79/103 37/80/104
f 32/81/105 29/82/106 39/83/107 40/84/108
f 30/72/109 29/71/110 33/85/111 34/86/112
f 31/76/113 30/75/114 34/87/115 35/88/116
f 35/89/117 36/90/118 32/78/119 31/77/120
f 36/91/121 33/92/122 29/82/123 32/81/124
f 34/86/125 33/85/126 12/93/127 10/94/128
f 35/88/129 34/87/130 10/95/131 9/96/132
f 11/97/133 36/90/134 35/89/135 9/98/136
f 11/99/137 12/100/138 33/92/139 36/91/140
f 27/64/141 26/63/142 38/74/143 37/73/144
f 26/62/145 25/61/146 39/70/147 38/69/148
f 40/84/149 39/83/150 25/68/151 28/67/152
f 37/80/153 40/79/154 28/66/155 27/65/156
f 42/101/157 41/102/158 44/103/159 43/104/160
