# This file uses centimeters as units for non-parametric coordinates.

v -0.302429 -0.488164 -0.095621
v -0.302429 -0.488164 0.095621
v 0.082326 0.507183 -0.095621
v 0.082326 0.507183 0.095621
v 0.302429 0.396907 -0.095621
v 0.302429 0.396907 0.095621
v -0.264470 -0.507183 -0.095621
v -0.264470 -0.507183 0.095621
v 0.207113 0.206663 -0.095621
v 0.207113 0.206663 0.095621
v -0.012990 0.316938 0.095621
v -0.012990 0.316938 -0.095621
v -0.035754 0.271502 0.095621
v 0.184349 0.161227 0.095621
v 0.184349 0.161227 -0.095621
v -0.035754 0.271502 -0.095621
v -0.267476 -0.191000 0.095621
v -0.047374 -0.301275 0.095621
v -0.047374 -0.301275 -0.095621
v -0.267476 -0.191000 -0.095621
v -0.285106 -0.226188 0.095621
v -0.065004 -0.336463 0.095621
v -0.065004 -0.336463 -0.095621
v -0.285106 -0.226188 -0.095621
vt 0.369044 0.958269
vt 0.369044 0.958269
vt 0.369044 0.958269
vt 0.369044 0.958269
vt 0.865003 0.958269
vt 0.865003 0.958269
vt 0.865003 0.958269
vt 0.865003 0.958269
vt 0.369044 0.958269
vt 0.369044 0.958269
vt 0.369044 0.958269
vt 0.369044 0.958269
vt 0.126308 0.958268
vt 0.126308 0.958268
vt 0.126308 0.958268
vt 0.126308 0.958268
vt 0.620417 0.958269
vt 0.620417 0.958269
vt 0.620417 0.958269
vt 0.620417 0.958269
vt 0.620417 0.958269
vt 0.620417 0.958269
vt 0.620417 0.958269
vt 0.620417 0.958269
vt 0.620417 0.958269
vt 0.369044 0.958269
vt 0.369044 0.958269
vt 0.620417 0.958269
vt 0.369044 0.958269
vt 0.620417 0.958269
vt 0.620417 0.958269
vt 0.369044 0.958269
vt 0.369044 0.958269
vt 0.620417 0.958269
vt 0.369044 0.958269
vt 0.620418 0.958269
vt 0.620418 0.958269
vt 0.369044 0.958269
vt 0.620417 0.958269
vt 0.369044 0.958269
vt 0.369044 0.958269
vt 0.620417 0.958269
vt 0.369044 0.958269
vt 0.620417 0.958269
vt 0.620417 0.958269
vt 0.369044 0.958269
vt 0.620417 0.958269
vt 0.369044 0.958269
vt 0.369044 0.958269
vt 0.620417 0.958269
vt 0.369044 0.958269
vt 0.620417 0.958269
vt 0.620417 0.958269
vt 0.369044 0.958269
vt 0.620417 0.958269
vt 0.369044 0.958269
vt 0.876176 0.958256
vt 0.876176 0.958256
vt 0.876176 0.958256
vt 0.876176 0.958256
vt 0.876176 0.958256
vt 0.876176 0.958256
vt 0.876176 0.958256
vt 0.876176 0.958256
vt 0.139093 0.958264
vt 0.139093 0.958264
vt 0.139093 0.958264
vt 0.139093 0.958264
vt 0.139093 0.958264
vt 0.139093 0.958264
vt 0.139093 0.958264
vt 0.139093 0.958264
vn 0.447942 0.894063 0.000000
vn 0.447942 0.894063 0.000000
vn 0.447942 0.894063 0.000000
vn 0.447942 0.894063 0.000000
vn -0.447946 -0.894061 0.000000
vn -0.447946 -0.894061 0.000000
vn -0.447946 -0.894061 0.000000
vn -0.447946 -0.894061 0.000000
vn 0.894063 -0.447942 0.000000
vn 0.894063 -0.447942 0.000000
vn 0.894063 -0.447942 0.000000
vn 0.894063 -0.447942 0.000000
vn 0.000000 0.000000 1.000000
vn 0.000000 0.000000 1.000000
vn 0.000000 0.000000 1.000000
vn 0.000000 0.000000 1.000000
vn -0.894063 0.447942 0.000000
vn -0.894063 0.447942 0.000000
vn -0.894063 0.447942 0.000000
vn -0.894063 0.447942 0.000000
vn 0.000000 0.000000 -1.000000
vn 0.000000 0.000000 -1.000000
vn 0.000000 0.000000 -1.000000
vn 0.000000 0.000000 -1.000000
vn 0.000001 -0.000000 1.000000
vn 0.000001 -0.000000 1.000000
vn 0.000001 -0.000000 1.000000
vn 0.000001 -0.000000 1.000000
vn 0.894062 -0.447943 0.000000
vn 0.894062 -0.447943 0.000000
vn 0.894062 -0.447943 0.000000
vn 0.894062 -0.447943 0.000000
vn 0.000000 0.000000 -1.000000
vn 0.000000 0.000000 -1.000000
vn 0.000000 0.000000 -1.000000
vn 0.000000 0.000000 -1.000000
vn -0.894062 0.447942 0.000000
vn -0.894062 0.447942 0.000000
vn -0.894062 0.447942 0.000000
vn -0.894062 0.447942 0.000000
vn 0.000000 0.000000 1.000000
vn 0.000000 0.000000 1.000000
vn 0.000000 0.000000 1.000000
vn 0.000000 0.000000 1.000000
vn 0.650239 -0.759730 0.000000
vn 0.650239 -0.759730 0.000000
vn 0.650239 -0.759730 0.000000
vn 0.650239 -0.759730 0.000000
vn 0.000000 0.000000 -1.000000
vn 0.000000 0.000000 -1.000000
vn 0.000000 0.000000 -1.000000
vn 0.000000 0.000000 -1.000000
vn -0.997821 0.065979 0.000000
vn -0.997821 0.065979 0.000000
vn -0.997821 0.065979 0.000000
vn -0.997821 0.065979 0.000000
vn -0.447942 -0.894063 0.000000
vn -0.447942 -0.894063 0.000000
vn -0.447942 -0.894063 0.000000
vn -0.447942 -0.894063 0.000000
vn 0.447942 0.894063 0.000000
vn 0.447942 0.894063 0.000000
vn 0.447942 0.894063 0.000000
vn 0.447942 0.894063 0.000000
vn -0.447943 -0.894062 0.000000
vn -0.447943 -0.894062 0.000000
vn -0.447943 -0.894062 0.000000
vn -0.447943 -0.894062 0.000000
vn 0.447943 0.894062 0.000000
vn 0.447943 0.894062 0.000000
vn 0.447943 0.894062 0.000000
vn 0.447943 0.894062 0.000000
s off
f 3/5/1 4/6/2 6/7/3 5/8/4
f 7/13/5 8/14/6 2/15/7 1/16/8
f 5/9/9 6/10/10 10/27/11 9/26/12
f 11/30/13 10/28/14 6/19/15 4/20/16
f 12/32/17 11/29/18 4/3/19 3/4/20
f 9/25/21 12/31/22 3/23/23 5/24/24
f 17/42/25 18/44/26 14/36/27 13/34/28
f 15/38/29 14/35/30 18/43/31 19/46/32
f 19/45/33 20/47/34 16/39/35 15/37/36
f 20/48/37 17/41/38 13/33/39 16/40/40
f 2/17/41 8/18/42 22/52/43 21/50/44
f 23/54/45 22/51/46 8/11/47 7/12/48
f 7/21/49 1/22/50 24/55/51 23/53/52
f 1/1/53 2/2/54 21/49/55 24/56/56
f 10/65/57 11/66/58 12/67/59 9/68/60
f 14/57/61 15/58/62 16/59/63 13/60/64
f 18/69/65 17/70/66 20/71/67 19/72/68
f 22/61/69 23/62/70 24/63/71 21/64/72
