# This file uses centimeters as units for non-parametric coordinates.

v -0.512629 -0.247079 -0.100038
v -0.512629 -0.247079 0.100038
v 0.530098 0.427445 -0.100038
v 0.530098 0.427445 0.100038
v 0.558687 0.383544 -0.100038
v 0.558687 0.383544 0.100038
v -0.479916 -0.297311 -0.100038
v -0.479916 -0.297311 0.100038
v -0.451229 -0.183622 -0.100038
v -0.451229 -0.183622 0.100038
v -0.397049 -0.266820 0.100038
v -0.397049 -0.266820 -0.100038
v -0.210655 -0.188382 0.100038
v -0.304110 -0.044874 0.100038
v -0.304110 -0.044874 -0.100038
v -0.210655 -0.188382 -0.100038
v 0.021832 -0.070582 0.100038
v -0.102350 0.120110 0.100038
v -0.102350 0.120110 -0.100038
v 0.021832 -0.070582 -0.100038
v 0.277075 0.095634 0.100038
v 0.152893 0.286327 0.100038
v 0.152893 0.286327 -0.100038
v 0.277075 0.095634 -0.100038
v 0.464457 0.279243 0.100038
v 0.396599 0.383445 0.100038
v 0.396599 0.383445 -0.100038
v 0.464457 0.279243 -0.100038
v -0.558687 -0.060272 -0.100038
v -0.558687 -0.060272 0.100038
v -0.538155 0.011831 0.100038
v -0.538155 0.011831 -0.100038
v -0.253448 -0.425366 -0.100038
v -0.253448 -0.425366 0.100038
v -0.327696 -0.414985 0.100038
v -0.327696 -0.414985 -0.100038
v -0.425856 0.435620 0.100038
v -0.425856 0.435620 -0.100038
v -0.336128 0.494051 0.100038
v -0.336128 0.494051 -0.100038
v 0.269279 -0.435620 -0.100038
v 0.269279 -0.435620 0.100038
v 0.179554 -0.494051 0.100038
v 0.179554 -0.494051 -0.100038
v 0.006187 0.348644 0.100038
v -0.091618 0.390189 0.100038
v 0.006187 0.348644 -0.100038
v -0.091618 0.390189 -0.100038
v 0.274736 -0.063742 -0.100038
v 0.273178 -0.169993 -0.100038
v 0.274736 -0.063742 0.100038
v 0.273178 -0.169993 0.100038
v 0.060963 0.384314 0.100038
v 0.060963 0.384314 -0.100038
v 0.012840 0.458212 -0.100038
v 0.012840 0.458212 0.100038
v 0.329512 -0.028072 -0.100038
v 0.329512 -0.028072 0.100038
v 0.377634 -0.101970 0.100038
v 0.377634 -0.101970 -0.100038
vt 0.865003 0.953552
vt 0.865003 0.953552
vt 0.865003 0.953552
vt 0.865003 0.953552
vt 0.865003 0.953552
vt 0.865003 0.953552
vt 0.865003 0.953552
vt 0.865003 0.953552
vt 0.126308 0.953552
vt 0.126308 0.953552
vt 0.126308 0.953552
vt 0.126308 0.953552
vt 0.126308 0.953552
vt 0.126308 0.953552
vt 0.126308 0.953552
vt 0.126308 0.953552
vt 0.620417 0.953552
vt 0.620417 0.953552
vt 0.620417 0.953552
vt 0.620417 0.953552
vt 0.620417 0.953552
vt 0.620417 0.953552
vt 0.620417 0.953552
vt 0.620417 0.953552
vt 0.369044 0.953552
vt 0.369044 0.953552
vt 0.369044 0.953552
vt 0.369044 0.953552
vt 0.620417 0.953552
vt 0.620417 0.953552
vt 0.126308 0.953552
vt 0.126308 0.953552
vt 0.126308 0.953552
vt 0.126308 0.953552
vt 0.620417 0.953552
vt 0.620417 0.953552
vt 0.620417 0.953552
vt 0.620417 0.953552
vt 0.865003 0.953552
vt 0.865003 0.953552
vt 0.865003 0.953552
vt 0.865003 0.953552
vt 0.620417 0.953552
vt 0.620417 0.953552
vt 0.126308 0.953552
vt 0.126308 0.953552
vt 0.126308 0.953552
vt 0.126308 0.953552
vt 0.620417 0.953552
vt 0.620417 0.953552
vt 0.865003 0.953552
vt 0.865003 0.953552
vt 0.865003 0.953552
vt 0.865003 0.953552
vt 0.620417 0.953552
vt 0.620417 0.953552
vt 0.126308 0.953552
vt 0.126308 0.953552
vt 0.126308 0.953552
vt 0.126308 0.953552
vt 0.620417 0.953552
vt 0.620417 0.953552
vt 0.865003 0.953552
vt 0.865003 0.953552
vt 0.865003 0.953552
vt 0.865003 0.953552
vt 0.620417 0.953552
vt 0.620417 0.953552
vt 0.126308 0.953552
vt 0.126308 0.953552
vt 0.126308 0.953552
vt 0.126308 0.953552
vt 0.620417 0.953552
vt 0.620417 0.953552
vt 0.865003 0.953552
vt 0.865003 0.953552
vt 0.865003 0.953552
vt 0.865003 0.953552
vt 0.620417 0.953552
vt 0.620417 0.953552
vt 0.126308 0.953552
vt 0.126308 0.953552
vt 0.126308 0.953552
vt 0.126308 0.953552
vt 0.369044 0.953552
vt 0.369044 0.953552
vt 0.620417 0.953552
vt 0.620417 0.953552
vt 0.620417 0.953552
vt 0.620417 0.953552
vt 0.369044 0.953552
vt 0.369044 0.953552
vt 0.369044 0.953552
vt 0.369044 0.953552
vt 0.620417 0.953552
vt 0.620417 0.953552
vt 0.620417 0.953552
vt 0.620417 0.953552
vt 0.369044 0.953552
vt 0.369044 0.953552
vt 0.369044 0.953552
vt 0.369044 0.953552
vt 0.620417 0.953552
vt 0.620417 0.953552
vt 0.620417 0.953552
vt 0.620417 0.953552
vt 0.369044 0.953552
vt 0.369044 0.953552
vt 0.369044 0.953552
vt 0.369044 0.953552
vt 0.620417 0.953552
vt 0.620417 0.953552
vt 0.620417 0.953552
vt 0.620417 0.953552
vt 0.369044 0.953552
vt 0.369044 0.953552
vt 0.369044 0.953552
vt 0.369044 0.953552
vt 0.620417 0.953552
vt 0.620417 0.953552
vt 0.620417 0.953552
vt 0.620417 0.953552
vt 0.620417 0.953552
vt 0.620417 0.953552
vt 0.369044 0.953552
vt 0.369044 0.953552
vt 0.369044 0.953552
vt 0.369044 0.953552
vt 0.620417 0.953552
vt 0.620417 0.953552
vt 0.620417 0.953552
vt 0.620417 0.953552
vt 0.620417 0.953552
vt 0.620417 0.953552
vt 0.369044 0.953552
vt 0.369044 0.953552
vt 0.369044 0.953552
vt 0.369044 0.953552
vt 0.620417 0.953552
vt 0.620417 0.953552
vt 0.620417 0.953552
vt 0.620417 0.953552
vt 0.620417 0.953552
vt 0.620417 0.953552
vt 0.369044 0.953552
vt 0.369044 0.953552
vt 0.369044 0.953552
vt 0.369044 0.953552
vt 0.620417 0.953552
vt 0.620417 0.953552
vt 0.620417 0.953552
vt 0.620417 0.953552
vt 0.620417 0.953552
vt 0.620417 0.953552
vt 0.369044 0.953552
vt 0.369044 0.953552
vt 0.369044 0.953552
vt 0.369044 0.953552
vt 0.369044 0.953552
vt 0.369044 0.953552
vt 0.369044 0.953552
vt 0.369044 0.953552
vt 0.369044 0.953552
vt 0.369044 0.953552
vt 0.369044 0.953552
vt 0.369044 0.953552
vt 0.369044 0.953552
vt 0.369044 0.953552
vt 0.369044 0.953552
vt 0.369044 0.953552
vt 0.126308 0.953552
vt 0.126308 0.953552
vt 0.126308 0.953552
vt 0.126308 0.953552
vt 0.620417 0.953552
vt 0.620417 0.953552
vt 0.620417 0.953552
vt 0.620417 0.953552
vt 0.865003 0.953552
vt 0.865003 0.953552
vt 0.865003 0.953552
vt 0.865003 0.953552
vt 0.620417 0.953552
vt 0.620417 0.953552
vt 0.620417 0.953552
vt 0.620417 0.953552
vt 0.620417 0.953552
vt 0.620417 0.953552
vt 0.620417 0.953552
vt 0.620417 0.953552
vt 0.126308 0.953552
vt 0.126308 0.953552
vt 0.126308 0.953552
vt 0.126308 0.953552
vt 0.620417 0.953552
vt 0.620417 0.953552
vt 0.620417 0.953552
vt 0.620417 0.953552
vn -0.961763 0.273882 0.000000
vn -0.961763 0.273882 0.000000
vn -0.961763 0.273882 0.000000
vn -0.961763 0.273882 0.000000
vn 0.837976 0.545708 0.000000
vn 0.837976 0.545708 0.000000
vn 0.837976 0.545708 0.000000
vn 0.837976 0.545708 0.000000
vn -0.138466 -0.990367 0.000000
vn -0.138466 -0.990367 0.000000
vn -0.138466 -0.990367 0.000000
vn -0.138466 -0.990367 0.000000
vn -0.837969 -0.545718 -0.000000
vn -0.837969 -0.545718 -0.000000
vn -0.837969 -0.545718 -0.000000
vn -0.837969 -0.545718 -0.000000
vn -0.000000 -0.000000 1.000000
vn -0.000000 -0.000000 1.000000
vn -0.000000 -0.000000 1.000000
vn -0.000000 -0.000000 1.000000
vn -0.000000 0.000000 -1.000000
vn -0.000000 0.000000 -1.000000
vn -0.000000 0.000000 -1.000000
vn -0.000000 0.000000 -1.000000
vn -0.718660 0.695361 -0.000000
vn -0.718660 0.695361 -0.000000
vn -0.718660 0.695361 -0.000000
vn -0.718661 0.695361 -0.000000
vn 0.000000 0.000000 1.000000
vn 0.000000 0.000000 1.000000
vn 0.000000 0.000000 1.000000
vn 0.000000 0.000000 1.000000
vn 0.345322 -0.938484 0.000000
vn 0.345322 -0.938484 0.000000
vn 0.345322 -0.938484 0.000000
vn 0.345322 -0.938484 0.000000
vn -0.000000 0.000000 -1.000000
vn -0.000000 0.000000 -1.000000
vn -0.000000 0.000000 -1.000000
vn -0.000000 0.000000 -1.000000
vn 0.000000 0.000000 1.000000
vn 0.000000 0.000000 1.000000
vn 0.000000 0.000000 1.000000
vn 0.000000 0.000000 1.000000
vn -0.633027 0.774130 0.000000
vn -0.633027 0.774129 0.000000
vn -0.633027 0.774130 0.000000
vn -0.633027 0.774130 0.000000
vn 0.000000 -0.000000 -1.000000
vn 0.000000 -0.000000 -1.000000
vn 0.000000 -0.000000 -1.000000
vn 0.000000 -0.000000 -1.000000
vn 0.451984 -0.892026 0.000000
vn 0.451984 -0.892026 0.000000
vn 0.451984 -0.892026 0.000000
vn 0.451984 -0.892026 0.000000
vn 0.000000 0.000000 1.000000
vn 0.000000 0.000000 1.000000
vn 0.000000 0.000000 1.000000
vn 0.000000 0.000000 1.000000
vn -0.545696 0.837983 -0.000000
vn -0.545696 0.837983 -0.000000
vn -0.545696 0.837983 -0.000000
vn -0.545696 0.837983 -0.000000
vn 0.000000 -0.000000 -1.000000
vn 0.000000 -0.000000 -1.000000
vn 0.000000 -0.000000 -1.000000
vn 0.000000 -0.000000 -1.000000
vn 0.545705 -0.837978 0.000000
vn 0.545705 -0.837978 0.000000
vn 0.545705 -0.837978 0.000000
vn 0.545705 -0.837978 0.000000
vn -0.000000 0.000000 1.000000
vn -0.000000 0.000000 1.000000
vn -0.000000 0.000000 1.000000
vn -0.000000 0.000000 1.000000
vn -0.370194 0.928955 0.000000
vn -0.370194 0.928955 0.000000
vn -0.370194 0.928955 0.000000
vn -0.370194 0.928955 0.000000
vn 0.000000 -0.000000 -1.000000
vn 0.000000 -0.000000 -1.000000
vn 0.000000 0.000000 -1.000000
vn 0.000000 0.000000 -1.000000
vn 0.699880 -0.714260 0.000000
vn 0.699880 -0.714260 0.000000
vn 0.699880 -0.714260 0.000000
vn 0.699880 -0.714260 0.000000
vn -0.000000 0.000000 1.000000
vn -0.000000 0.000000 1.000000
vn -0.000000 0.000000 1.000000
vn -0.000000 0.000000 1.000000
vn -0.313023 0.949746 0.000000
vn -0.313023 0.949746 0.000000
vn -0.313023 0.949746 0.000000
vn -0.313023 0.949746 0.000000
vn -0.000000 0.000000 -1.000000
vn -0.000000 0.000000 -1.000000
vn -0.000000 0.000000 -1.000000
vn -0.000000 0.000000 -1.000000
vn 0.742018 -0.670380 -0.000000
vn 0.742018 -0.670380 -0.000000
vn 0.742018 -0.670380 -0.000000
vn 0.742018 -0.670380 -0.000000
vn -0.754010 -0.656863 -0.000000
vn -0.754010 -0.656863 -0.000000
vn -0.754010 -0.656863 -0.000000
vn -0.754010 -0.656863 -0.000000
vn -0.000000 -0.000000 1.000000
vn -0.000000 -0.000000 1.000000
vn -0.000000 -0.000000 1.000000
vn -0.000000 -0.000000 1.000000
vn 0.235468 0.971882 0.000000
vn 0.235468 0.971882 0.000000
vn 0.235468 0.971882 0.000000
vn 0.235468 0.971882 0.000000
vn -0.000000 -0.000000 -1.000000
vn -0.000000 -0.000000 -1.000000
vn -0.000000 -0.000000 -1.000000
vn -0.000000 -0.000000 -1.000000
vn 0.984085 -0.177700 0.000000
vn 0.984085 -0.177700 0.000000
vn 0.984085 -0.177700 0.000000
vn 0.984085 -0.177700 0.000000
vn -0.000000 0.000000 1.000000
vn -0.000000 0.000000 1.000000
vn -0.000000 0.000000 1.000000
vn -0.000000 0.000000 1.000000
vn -0.905693 -0.423935 0.000000
vn -0.905693 -0.423935 0.000000
vn -0.905693 -0.423935 0.000000
vn -0.905693 -0.423935 0.000000
vn 0.000000 0.000000 -1.000000
vn 0.000000 0.000000 -1.000000
vn 0.000000 0.000000 -1.000000
vn 0.000000 0.000000 -1.000000
vn -0.698205 -0.715898 -0.000000
vn -0.698205 -0.715898 -0.000000
vn -0.698205 -0.715898 -0.000000
vn -0.698205 -0.715898 -0.000000
vn -0.000000 -0.000000 1.000000
vn -0.000000 -0.000000 1.000000
vn -0.000000 -0.000000 1.000000
vn -0.000000 -0.000000 1.000000
vn -0.000000 -0.000000 1.000000
vn -0.000000 -0.000000 1.000000
vn 0.837983 0.545696 0.000000
vn 0.837983 0.545696 0.000000
vn 0.837983 0.545696 0.000000
vn 0.837983 0.545696 0.000000
vn -0.000000 -0.000000 -1.000000
vn -0.000000 -0.000000 -1.000000
vn -0.000000 -0.000000 -1.000000
vn -0.000000 -0.000000 -1.000000
vn -0.000000 -0.000000 -1.000000
vn -0.000000 -0.000000 -1.000000
vn 0.837983 0.545696 0.000000
vn 0.837983 0.545696 0.000000
vn 0.837983 0.545696 0.000000
vn 0.837983 0.545696 0.000000
vn -0.000000 -0.000000 1.000000
vn -0.000000 -0.000000 1.000000
vn -0.000000 -0.000000 1.000000
vn -0.000000 -0.000000 1.000000
vn -0.000000 -0.000000 1.000000
vn -0.000000 -0.000000 1.000000
vn -0.937111 -0.349031 0.000000
vn -0.937111 -0.349031 0.000000
vn -0.937111 -0.349031 0.000000
vn -0.937111 -0.349031 0.000000
vn -0.000000 0.000000 -1.000000
vn -0.000000 0.000000 -1.000000
vn -0.000000 0.000000 -1.000000
vn -0.000000 0.000000 -1.000000
vn -0.000000 0.000000 -1.000000
vn -0.000000 0.000000 -1.000000
vn 0.390965 0.920405 0.000000
vn 0.390965 0.920405 0.000000
vn 0.390965 0.920405 0.000000
vn 0.390965 0.920405 0.000000
vn 0.390965 0.920405 0.000000
vn 0.390965 0.920405 0.000000
vn 0.390965 0.920405 0.000000
vn 0.390965 0.920405 0.000000
vn 0.999892 -0.014671 0.000000
vn 0.999892 -0.014671 0.000000
vn 0.999892 -0.014671 0.000000
vn 0.999892 -0.014671 0.000000
vn 0.999892 -0.014675 0.000000
vn 0.999892 -0.014675 0.000000
vn 0.999892 -0.014675 0.000000
vn 0.999892 -0.014675 0.000000
vn 0.545699 -0.837981 0.000000
vn 0.545699 -0.837981 0.000000
vn 0.545699 -0.837981 0.000000
vn 0.545699 -0.837981 0.000000
vn 0.000000 0.000000 -1.000000
vn 0.000000 0.000000 -1.000000
vn 0.000000 0.000000 -1.000000
vn 0.000000 0.000000 -1.000000
vn -0.545696 0.837983 0.000000
vn -0.545696 0.837983 0.000000
vn -0.545696 0.837983 0.000000
vn -0.545696 0.837983 0.000000
vn 0.000000 -0.000000 1.000000
vn 0.000000 -0.000000 1.000000
vn 0.000000 -0.000000 1.000000
vn 0.000000 -0.000000 1.000000
vn -0.545699 0.837981 0.000000
vn -0.545699 0.837981 0.000000
vn -0.545699 0.837981 0.000000
vn -0.545699 0.837981 0.000000
vn 0.000000 0.000000 1.000000
vn 0.000000 0.000000 1.000000
vn 0.000000 0.000000 1.000000
vn 0.000000 0.000000 1.000000
vn 0.545702 -0.837979 0.000000
vn 0.545702 -0.837979 0.000000
vn 0.545702 -0.837979 0.000000
vn 0.545702 -0.837979 0.000000
vn 0.000000 0.000000 -1.000000
vn 0.000000 0.000000 -1.000000
vn 0.000000 0.000000 -1.000000
vn 0.000000 0.000000 -1.000000
s off
f 29/1/1 30/2/2 31/3/3 32/4/4
f 3/5/5 4/6/6 6/7/7 5/8/8
f 33/9/9 34/10/10 35/11/11 36/12/12
f 7/13/13 8/14/14 2/15/15 1/16/16
f 10/17/17 11/18/18 13/19/19 14/20/20
f 12/21/21 9/22/22 15/23/23 16/24/24
f 1/25/25 2/26/26 10/27/27 9/28/28
f 2/29/29 8/30/30 11/18/31 10/17/32
f 12/31/33 11/32/34 8/33/35 7/34/36
f 7/35/37 1/36/38 9/22/39 12/21/40
f 14/20/41 13/19/42 17/37/43 18/38/44
f 15/39/45 14/40/46 18/41/47 19/42/48
f 16/24/49 15/23/50 19/43/51 20/44/52
f 20/45/53 17/46/54 13/47/55 16/48/56
f 18/38/57 17/37/58 21/49/59 22/50/60
f 38/51/61 37/52/62 39/53/63 40/54/64
f 20/44/65 19/43/66 23/55/67 24/56/68
f 41/57/69 42/58/70 43/59/71 44/60/72
f 22/50/73 21/49/74 25/61/75 26/62/76
f 23/63/77 22/64/78 26/65/79 27/66/80
f 24/56/81 23/55/82 27/67/83 28/68/84
f 28/69/85 25/70/86 21/71/87 24/72/88
f 26/62/89 25/61/90 6/73/91 4/74/92
f 27/75/93 26/76/94 4/77/95 3/78/96
f 28/68/97 27/67/98 3/79/99 5/80/100
f 5/81/101 6/82/102 25/83/103 28/84/104
f 9/28/105 10/27/106 30/85/107 29/86/108
f 10/87/109 14/88/110 31/89/111 30/90/112
f 14/91/113 15/92/114 32/93/115 31/94/116
f 15/95/117 9/96/118 29/97/119 32/98/120
f 16/99/121 13/100/122 34/101/123 33/102/124
f 13/103/125 11/104/126 35/105/127 34/106/128
f 11/107/129 12/108/130 36/109/131 35/110/132
f 12/111/133 16/112/134 33/113/135 36/114/136
f 19/115/137 18/116/138 37/117/139 38/118/140
f 18/119/141 22/120/142 45/121/143 46/122/144 39/123/145 37/124/146
f 53/125/147 54/126/148 55/127/149 56/128/150
f 23/129/151 19/130/152 38/131/153 40/132/154 48/133/155 47/134/156
f 57/135/157 58/136/158 59/137/159 60/138/160
f 21/139/161 17/140/162 43/141/163 42/142/164 52/143/165 51/144/166
f 17/145/167 20/146/168 44/147/169 43/148/170
f 20/149/171 24/150/172 49/151/173 50/152/174 41/153/175 44/154/176
f 22/155/177 23/156/178 47/157/179 45/158/180
f 46/159/181 48/160/182 40/161/183 39/162/184
f 24/163/185 21/164/186 51/165/187 49/166/188
f 50/167/189 52/168/190 42/169/191 41/170/192
f 45/171/193 47/172/194 54/173/195 53/174/196
f 47/175/197 48/176/198 55/177/199 54/178/200
f 48/179/201 46/180/202 56/181/203 55/182/204
f 46/183/205 45/184/206 53/185/207 56/186/208
f 49/166/209 51/165/210 58/136/211 57/135/212
f 51/187/213 52/188/214 59/189/215 58/190/216
f 52/191/217 50/192/218 60/193/219 59/194/220
f 50/195/221 49/196/222 57/197/223 60/198/224
