# This file uses centimeters as units for non-parametric coordinates.

v -0.259741 -0.508282 -0.095621
v -0.259741 -0.508282 0.095621
v -0.259741 0.508282 -0.095621
v -0.259741 0.508282 0.095621
v 0.259741 0.508282 -0.095621
v 0.259741 0.508282 0.095621
v 0.132329 -0.508282 0.095621
v 0.132329 -0.508282 -0.095621
v 0.167142 0.393970 -0.095621
v 0.167142 0.393970 0.095621
v -0.143339 0.393970 0.095621
v -0.143339 0.393970 -0.095621
v -0.143339 -0.384386 0.095621
v 0.029211 -0.384386 0.095621
v 0.132329 -0.400951 -0.095621
v 0.029211 -0.384386 -0.095621
v -0.143339 -0.384386 -0.095621
v 0.167142 -0.118448 0.095621
v 0.259741 -0.118448 0.095621
v 0.259741 -0.118448 -0.095621
v 0.167142 -0.118448 -0.095621
v 0.003179 -0.255427 0.095621
v -0.101639 -0.255427 0.095621
v -0.101639 -0.255427 -0.095621
v 0.003179 -0.255427 -0.095621
v 0.132329 0.312000 0.095621
v -0.101639 0.312000 0.095621
v 0.132329 0.312000 -0.095621
v -0.101639 0.312000 -0.095621
v 0.029211 0.184485 0.095621
v 0.003179 0.184485 0.095621
v 0.029211 0.184485 -0.095621
v 0.003179 0.184485 -0.095621
vt 0.370503 0.958256
vt 0.370503 0.958256
vt 0.370503 0.958256
vt 0.370503 0.958256
vt 0.867605 0.958264
vt 0.867605 0.958264
vt 0.867605 0.958264
vt 0.867605 0.958264
vt 0.370503 0.958256
vt 0.370503 0.958256
vt 0.079098 0.958267
vt 0.079098 0.958267
vt 0.614769 0.958270
vt 0.614769 0.958270
vt 0.614769 0.958270
vt 0.614769 0.958270
vt 0.614769 0.958270
vt 0.614769 0.958270
vt 0.370503 0.958256
vt 0.614769 0.958270
vt 0.370503 0.958256
vt 0.079098 0.958267
vt 0.370503 0.958256
vt 0.370503 0.958256
vt 0.370503 0.958256
vt 0.370503 0.958256
vt 0.370503 0.958256
vt 0.370503 0.958256
vt 0.370503 0.958256
vt 0.370503 0.958256
vt 0.370503 0.958256
vt 0.370503 0.958256
vt 0.370503 0.958256
vt 0.614769 0.958270
vt 0.614769 0.958270
vt 0.370503 0.958256
vt 0.370503 0.958256
vt 0.370503 0.958256
vt 0.370503 0.958256
vt 0.370503 0.958256
vt 0.370503 0.958256
vt 0.370503 0.958256
vt 0.370503 0.958256
vt 0.370503 0.958256
vt 0.370503 0.958256
vt 0.370503 0.958256
vt 0.370503 0.958256
vt 0.370503 0.958256
vt 0.370503 0.958256
vt 0.079098 0.958267
vt 0.614769 0.958270
vt 0.614769 0.958270
vt 0.614769 0.958270
vt 0.614769 0.958270
vt 0.079098 0.958267
vt 0.079098 0.958267
vt 0.079098 0.958267
vt 0.079098 0.958267
vt 0.614769 0.958270
vt 0.614769 0.958270
vt 0.614769 0.958270
vt 0.614769 0.958270
vt 0.079098 0.958267
vt 0.079098 0.958267
vt 0.079098 0.958267
vt 0.079098 0.958267
vt 0.867605 0.958264
vt 0.867605 0.958264
vt 0.867605 0.958264
vt 0.867605 0.958264
vt 0.867605 0.958264
vt 0.867605 0.958264
vt 0.867605 0.958264
vt 0.867605 0.958264
vt 0.614769 0.958270
vt 0.614769 0.958270
vt 0.614769 0.958270
vt 0.614769 0.958270
vt 0.614769 0.958270
vt 0.614769 0.958270
vt 0.614769 0.958270
vt 0.614769 0.958270
vt 0.614769 0.958270
vt 0.614769 0.958270
vt 0.614769 0.958270
vt 0.614769 0.958270
vt 0.614769 0.958270
vt 0.614769 0.958270
vt 0.614769 0.958270
vt 0.614769 0.958270
vt 0.109095 0.958273
vt 0.109095 0.958273
vt 0.109095 0.958273
vt 0.109095 0.958273
vt 0.109096 0.958273
vt 0.109096 0.958273
vt 0.109095 0.958273
vt 0.109095 0.958273
vn -1.000000 0.000000 0.000000
vn -1.000000 0.000000 0.000000
vn -1.000000 0.000000 0.000000
vn -1.000000 0.000000 0.000000
vn 1.000000 0.000000 0.000000
vn 1.000000 0.000000 0.000000
vn 1.000000 0.000000 0.000000
vn 1.000000 0.000000 0.000000
vn 0.000000 0.000000 1.000000
vn 0.000000 0.000000 1.000000
vn 0.000000 0.000000 1.000000
vn 0.000000 0.000000 1.000000
vn 0.000000 0.000000 -1.000000
vn 0.000000 0.000000 -1.000000
vn 0.000000 0.000000 -1.000000
vn 0.000000 0.000000 -1.000000
vn 0.000000 1.000000 0.000000
vn 0.000000 1.000000 0.000000
vn 0.000000 1.000000 0.000000
vn 0.000000 1.000000 0.000000
vn 0.000000 0.000000 1.000000
vn 0.000000 0.000000 1.000000
vn 0.000000 0.000000 1.000000
vn 0.000000 0.000000 1.000000
vn 0.000000 -1.000000 0.000000
vn 0.000000 -1.000000 0.000000
vn 0.000000 -1.000000 0.000000
vn 0.000000 -1.000000 0.000000
vn -0.000000 0.000000 1.000000
vn -0.000000 0.000000 1.000000
vn -0.000000 0.000000 1.000000
vn -0.000000 0.000000 1.000000
vn -0.000000 0.000000 -1.000000
vn -0.000000 0.000000 -1.000000
vn -0.000000 0.000000 -1.000000
vn -0.000000 0.000000 -1.000000
vn 0.000000 0.000000 -1.000000
vn 0.000000 0.000000 -1.000000
vn -0.000000 0.000000 -1.000000
vn -0.000000 0.000000 -1.000000
vn 0.000000 0.000000 1.000000
vn 0.000000 0.000000 1.000000
vn -0.000000 0.000000 1.000000
vn -0.000000 0.000000 1.000000
vn 0.000000 0.000000 1.000000
vn 0.000000 0.000000 1.000000
vn -0.000000 0.000000 1.000000
vn -0.000000 0.000000 1.000000
vn -0.000000 0.000000 -1.000000
vn -0.000000 0.000000 -1.000000
vn -0.000000 0.000000 -1.000000
vn -0.000000 0.000000 -1.000000
vn 0.000000 0.000000 1.000000
vn 0.000000 0.000000 1.000000
vn 0.000000 0.000000 1.000000
vn 0.000000 0.000000 1.000000
vn -0.000000 0.000000 -1.000000
vn -0.000000 0.000000 -1.000000
vn -0.000000 0.000000 -1.000000
vn -0.000000 0.000000 -1.000000
vn -0.000000 0.000000 -1.000000
vn 0.000000 0.000000 -1.000000
vn -0.000000 0.000000 -1.000000
vn -0.000000 0.000000 -1.000000
vn 0.000000 0.000000 -1.000000
vn 0.000000 0.000000 -1.000000
vn 0.000000 0.000000 -1.000000
vn 0.000000 0.000000 -1.000000
vn 0.000000 0.000000 -1.000000
vn 0.000000 0.000000 1.000000
vn 0.000000 0.000000 1.000000
vn 0.000000 0.000000 1.000000
vn 0.000000 0.000000 1.000000
vn -0.984061 -0.177831 0.000000
vn -0.984061 -0.177831 0.000000
vn 0.000000 -1.000000 0.000000
vn 0.000000 -1.000000 0.000000
vn -0.855254 -0.518210 0.000000
vn -0.855254 -0.518210 0.000000
vn -0.984061 -0.177831 0.000000
vn -0.984061 -0.177831 0.000000
vn 1.000000 0.000000 0.000000
vn 1.000000 0.000000 0.000000
vn 0.961647 0.274289 0.000000
vn 0.961647 0.274289 0.000000
vn 1.000000 0.000000 0.000000
vn -0.956948 0.290260 0.000000
vn -0.956948 0.290260 0.000000
vn 0.976298 0.216430 0.000000
vn 0.976298 0.216430 0.000000
vn 0.961647 0.274289 0.000000
vn 0.961647 0.274289 0.000000
vn -0.924494 0.381197 0.000000
vn -0.924494 0.381197 0.000000
vn 0.928831 -0.370504 0.000000
vn 0.928831 -0.370504 0.000000
vn -0.855254 -0.518210 0.000000
vn -0.855254 -0.518210 0.000000
vn -0.924494 0.381197 0.000000
vn -0.924494 0.381197 0.000000
vn -0.983363 -0.181651 0.000000
vn -0.983363 -0.181651 0.000000
vn 0.976298 0.216430 0.000000
vn 0.976298 0.216430 0.000000
vn 0.928831 -0.370504 0.000000
vn 0.928831 -0.370504 0.000000
vn 0.972768 -0.231780 0.000000
vn 0.972768 -0.231780 0.000000
vn 0.998254 -0.059072 0.000000
vn 0.998254 -0.059072 0.000000
vn -0.983363 -0.181651 0.000000
vn -0.983363 -0.181651 0.000000
vn 0.972768 -0.231780 0.000000
vn 0.972768 -0.231780 0.000000
vn 0.998254 -0.059072 0.000000
vn 0.998254 -0.059072 0.000000
vn -0.998955 -0.045713 0.000000
vn -0.998955 -0.045713 0.000000
vn -0.998955 -0.045713 0.000000
vn -0.998955 -0.045713 0.000000
vn -0.956948 0.290260 0.000000
vn -0.956948 0.290260 0.000000
s off
f 3/1/1 1/2/2 2/3/3 4/4/4
f 6/9/5 19/10/6 20/19/7 5/21/8
f 10/13/9 18/14/10 19/15/11 6/16/12
f 5/17/13 20/18/14 21/20/15 9/34/16
f 6/5/17 5/6/18 3/7/19 4/8/20
f 7/35/21 26/51/22 30/52/23 14/53/24
f 8/11/25 7/12/26 2/22/27 1/50/28
f 4/54/29 2/59/30 13/60/31 11/61/32
f 12/62/33 17/75/34 1/76/35 3/77/36
f 5/17/37 9/34/38 12/62/39 3/77/40
f 10/13/41 6/16/42 4/54/43 11/61/44
f 7/35/45 14/53/46 13/60/47 2/59/48
f 16/78/49 8/80/50 1/76/51 17/75/52
f 27/81/53 23/82/54 22/83/55 31/84/56
f 16/78/57 32/86/58 28/85/59 15/79/60 8/80/61
f 29/87/62 28/85/63 32/86/64 33/88/65
f 29/87/66 33/88/67 25/89/68 24/90/69
f 26/51/70 27/81/71 31/84/72 30/52/73
f 18/91/74 21/92/75 20/93/76 19/94/77
f 10/23/78 9/24/79 21/25/80 18/26/81
f 8/27/82 15/28/83 28/29/84 26/30/85 7/31/86
f 14/67/87 16/68/88 17/69/89 13/70/90
f 26/71/91 28/72/92 29/73/93 27/74/94
f 11/55/95 12/56/96 9/57/97 10/58/98
f 27/32/99 29/33/100 24/36/101 23/37/102
f 13/38/103 17/39/104 12/40/105 11/41/106
f 22/42/107 25/43/108 33/44/109 31/45/110
f 23/95/111 24/96/112 25/97/113 22/98/114
f 31/63/115 33/64/116 32/65/117 30/66/118
f 30/46/119 32/47/120 16/48/121 14/49/122
