# This file uses centimeters as units for non-parametric coordinates.

v -0.377586 -0.500000 -0.095621
v -0.377586 -0.500000 0.095621
v -0.377586 0.500000 -0.095621
v -0.377586 0.500000 0.095621
v 0.377586 -0.500000 -0.095621
v 0.377586 -0.500000 0.095621
v 0.030419 0.500000 0.095621
v 0.377586 0.156631 0.095621
v 0.377586 0.156631 -0.095621
v 0.030419 0.500000 -0.095621
v 0.279639 0.156631 0.095621
v 0.030419 0.156631 0.095621
v 0.030419 0.407335 0.095621
v 0.279639 0.156631 -0.095621
v 0.030419 0.156631 -0.095621
v 0.030419 0.407335 -0.095621
v -0.276617 -0.396494 0.095621
v -0.070512 0.063035 0.095621
v 0.279639 0.063035 0.095621
v -0.070512 0.407335 0.095621
v 0.279639 -0.396494 0.095621
v -0.276617 0.411241 0.095621
v -0.070512 0.407335 -0.095621
v -0.276617 -0.396494 -0.095621
v -0.070512 0.063035 -0.095621
v 0.279639 0.063035 -0.095621
v 0.279639 -0.396494 -0.095621
v -0.276617 0.411241 -0.095621
vt 0.369044 0.958269
vt 0.369044 0.958269
vt 0.369044 0.958269
vt 0.369044 0.958269
vt 0.880462 0.958267
vt 0.880462 0.958267
vt 0.369044 0.958269
vt 0.369044 0.958269
vt 0.126308 0.958268
vt 0.126308 0.958268
vt 0.126308 0.958268
vt 0.126308 0.958268
vt 0.620417 0.958269
vt 0.620417 0.958269
vt 0.620417 0.958269
vt 0.620417 0.958269
vt 0.620417 0.958269
vt 0.620417 0.958269
vt 0.880462 0.958267
vt 0.620417 0.958269
vt 0.369044 0.958269
vt 0.620417 0.958269
vt 0.620417 0.958269
vt 0.369044 0.958269
vt 0.620417 0.958269
vt 0.880462 0.958267
vt 0.880462 0.958267
vt 0.880462 0.958267
vt 0.620417 0.958269
vt 0.620417 0.958269
vt 0.620417 0.958269
vt 0.620417 0.958269
vt 0.620417 0.958269
vt 0.620417 0.958269
vt 0.880462 0.958267
vt 0.880462 0.958267
vt 0.880462 0.958267
vt 0.880462 0.958267
vt 0.126308 0.958268
vt 0.369044 0.958269
vt 0.369044 0.958269
vt 0.126308 0.958268
vt 0.369044 0.958269
vt 0.369044 0.958269
vt 0.126308 0.958268
vt 0.126308 0.958268
vt 0.620417 0.958269
vt 0.620417 0.958269
vt 0.620417 0.958269
vt 0.620417 0.958269
vt 0.620417 0.958269
vt 0.620417 0.958269
vt 0.620417 0.958269
vt 0.620417 0.958269
vt 0.620417 0.958269
vt 0.620417 0.958269
vt 0.620417 0.958269
vt 0.620418 0.958269
vn -1.000000 0.000000 0.000002
vn -1.000000 0.000000 0.000002
vn -1.000000 0.000000 0.000002
vn -1.000000 0.000000 0.000002
vn 0.000000 -1.000000 0.000000
vn 0.000000 -1.000000 0.000000
vn 0.000000 -1.000000 0.000000
vn 0.000000 -1.000000 0.000000
vn 1.000000 0.000000 0.000000
vn 1.000000 0.000000 0.000000
vn 1.000000 0.000000 0.000000
vn 1.000000 0.000000 0.000000
vn 0.000000 1.000000 0.000000
vn 0.000000 1.000000 0.000000
vn 0.000000 1.000000 0.000000
vn 0.000000 1.000000 0.000000
vn 0.703207 0.710985 0.000000
vn 0.703207 0.710985 0.000000
vn 0.703207 0.710985 0.000000
vn 0.703207 0.710985 0.000000
vn 0.000000 0.000000 1.000000
vn 0.000000 0.000000 1.000000
vn 0.000000 0.000000 1.000000
vn -0.000000 0.000000 1.000000
vn -0.000000 0.000000 1.000000
vn 0.000000 0.000000 1.000000
vn 0.000000 0.000000 1.000000
vn 0.000000 0.000000 1.000000
vn 0.000000 0.000000 1.000000
vn -0.000000 0.000000 1.000000
vn -0.000000 0.000000 1.000000
vn 0.000000 0.000000 1.000000
vn 0.000000 0.000000 1.000000
vn 0.000000 0.000000 1.000000
vn 0.000000 0.000000 1.000000
vn 0.000000 0.000000 1.000000
vn 0.000000 0.000000 1.000000
vn 0.000000 0.000000 -1.000000
vn 0.000000 0.000000 -1.000000
vn 0.000000 0.000000 -1.000000
vn 0.000000 0.000000 -1.000000
vn -0.000002 -0.000000 -1.000000
vn -0.000002 -0.000000 -1.000000
vn -0.000001 0.000001 -1.000000
vn -0.000001 0.000001 -1.000000
vn 0.000000 1.000000 0.000000
vn 0.000000 1.000000 0.000000
vn 0.000000 1.000000 0.000000
vn 0.000000 1.000000 0.000000
vn -0.709204 -0.705003 0.000000
vn -0.709204 -0.705003 0.000000
vn -0.709204 -0.705003 0.000000
vn -0.709204 -0.705003 0.000000
vn 1.000000 0.000000 0.000000
vn 1.000000 0.000000 0.000000
vn 1.000000 0.000000 0.000000
vn 1.000000 0.000000 0.000000
vn -0.000000 0.000000 1.000000
vn -0.000000 0.000000 1.000000
vn -0.000000 0.000000 1.000000
vn -0.000000 0.000000 1.000000
vn 0.000000 0.000000 -1.000000
vn 0.000000 0.000000 -1.000000
vn 0.000000 0.000000 -1.000000
vn -0.000000 -0.000001 -1.000000
vn -0.000000 -0.000001 -1.000000
vn -0.000001 0.000001 -1.000000
vn 0.000000 0.000002 -1.000000
vn 0.000000 0.000002 -1.000000
vn -0.000001 0.000001 -1.000000
vn -0.000000 -0.000001 -1.000000
vn 0.000001 -0.000000 -1.000000
vn 0.000001 -0.000000 -1.000000
vn -0.000000 -0.000001 -1.000000
vn 0.000002 0.000000 -1.000000
vn 0.000001 -0.000000 -1.000000
vn 0.000001 -0.000000 -1.000000
vn 0.000002 0.000000 -1.000000
vn 0.000000 0.000000 -1.000000
vn -0.000002 -0.000000 -1.000000
vn -0.000002 -0.000000 -1.000000
vn 0.000000 0.000000 -1.000000
vn 0.000000 0.000000 -1.000000
vn 0.000000 0.000000 1.000000
vn -0.000000 0.000000 1.000000
vn -0.000000 0.000000 1.000000
vn 0.000000 0.000000 1.000000
vn -0.000000 0.000000 1.000000
vn -0.000000 0.000000 1.000000
vn -0.000000 0.000000 1.000000
vn -0.000000 0.000000 1.000000
vn -0.000000 0.000000 1.000000
vn 0.000000 1.000000 0.000000
vn 0.000000 1.000000 0.000000
vn 0.000000 1.000000 0.000000
vn 0.000000 1.000000 0.000000
vn -1.000000 0.000001 0.000001
vn -1.000000 0.000001 0.000001
vn -1.000000 0.000001 0.000001
vn -1.000000 0.000001 0.000001
vn 0.000000 -1.000000 0.000000
vn 0.000000 -1.000000 0.000000
vn 0.000000 -1.000000 0.000000
vn 0.000000 -1.000000 0.000000
vn -0.018947 -0.999820 0.000000
vn -0.018947 -0.999821 0.000000
vn -0.018947 -0.999820 0.000000
vn -0.018947 -0.999821 0.000000
vn 1.000000 -0.000000 0.000001
vn 1.000000 -0.000000 0.000001
vn 1.000000 -0.000000 0.000001
vn 1.000000 -0.000000 0.000001
vn -1.000000 0.000000 0.000000
vn -1.000000 0.000000 0.000000
vn -1.000000 0.000000 0.000000
vn -1.000000 0.000000 0.000000
s off
f 1/1/1 2/2/2 4/3/3 3/4/4
f 5/9/5 6/10/6 2/11/7 1/12/8
f 9/24/9 8/21/10 6/7/11 5/8/12
f 3/5/13 4/6/14 7/19/15 10/26/16
f 8/27/17 9/28/18 10/26/19 7/19/20
f 11/30/21 12/29/22 18/48/23 19/49/24 8/22/25
f 8/22/26 7/20/27 13/31/28 11/30/29
f 20/50/30 7/20/31 4/15/32 22/52/33
f 4/15/34 2/13/35 17/47/36 22/52/37
f 10/25/38 9/23/39 14/32/40 16/34/41
f 26/56/42 9/23/43 5/16/44 27/57/45
f 12/35/46 11/36/47 14/37/48 15/38/49
f 11/39/50 13/42/51 16/45/52 14/46/53
f 13/40/54 12/43/55 15/44/56 16/41/57
f 19/49/58 21/51/59 6/14/60 8/22/61
f 16/34/62 15/33/63 25/55/64 23/53/65 10/25/66
f 5/16/67 1/17/68 24/54/69 27/57/70
f 23/53/71 28/58/72 3/18/73 10/25/74
f 1/17/75 3/18/76 28/58/77 24/54/78
f 14/32/79 9/23/80 26/56/81 25/55/82 15/33/83
f 2/13/84 6/14/85 21/51/86 17/47/87
f 13/31/88 7/20/89 20/50/90 18/48/91 12/29/92
f 24/54/93 17/47/94 21/51/95 27/57/96
f 27/57/97 21/51/98 19/49/99 26/56/100
f 26/56/101 19/49/102 18/48/103 25/55/104
f 23/53/105 20/50/106 22/52/107 28/58/108
f 28/58/109 22/52/110 17/47/111 24/54/112
f 25/55/113 18/48/114 20/50/115 23/53/116
