# This file uses centimeters as units for non-parametric coordinates.

v 0.160881 -0.519160 -0.100038
v 0.160881 -0.519160 0.100038
v -0.416451 0.299361 -0.100038
v -0.416451 0.299361 0.100038
v -0.063530 0.519160 -0.100038
v -0.063530 0.519160 0.100038
v 0.416449 -0.359993 -0.100038
v 0.416449 -0.359993 0.100038
v -0.147436 -0.024106 -0.100038
v -0.147436 -0.024106 0.100038
v 0.108130 0.135061 0.100038
v 0.108130 0.135061 -0.100038
v 0.178606 0.278762 0.100038
v -0.307489 -0.023978 0.100038
v -0.307489 -0.023978 -0.100038
v 0.178606 0.278762 -0.100038
v -0.345469 0.343569 0.100038
v -0.134510 0.474952 0.100038
v -0.345469 0.343569 -0.100038
v -0.134510 0.474952 -0.100038
v -0.016033 0.284719 0.100038
v -0.226992 0.153336 0.100038
v -0.226992 0.153336 -0.100038
v -0.016033 0.284719 -0.100038
v 0.279852 -0.140666 -0.100038
v 0.024284 -0.299833 -0.100038
v 0.279852 -0.140666 0.100038
v 0.024284 -0.299833 0.100038
v 0.234489 -0.218574 0.100038
v 0.114214 -0.293481 0.100038
v 0.182508 -0.403140 0.100038
v 0.302784 -0.328232 0.100038
v 0.234489 -0.218574 -0.100038
v 0.114214 -0.293481 -0.100038
v 0.302784 -0.328232 -0.100038
v 0.182508 -0.403140 -0.100038
vt 0.126308 0.953551
vt 0.126308 0.953551
vt 0.126308 0.953551
vt 0.126308 0.953551
vt 0.865003 0.953551
vt 0.865003 0.953551
vt 0.865003 0.953551
vt 0.865003 0.953551
vt 0.126308 0.953551
vt 0.126308 0.953551
vt 0.126308 0.953551
vt 0.126308 0.953551
vt 0.126308 0.953551
vt 0.126308 0.953551
vt 0.126308 0.953551
vt 0.126308 0.953551
vt 0.620417 0.953551
vt 0.620417 0.953551
vt 0.620417 0.953551
vt 0.620417 0.953551
vt 0.620417 0.953551
vt 0.620417 0.953551
vt 0.620417 0.953551
vt 0.620417 0.953551
vt 0.620417 0.953551
vt 0.620417 0.953551
vt 0.620417 0.953551
vt 0.620417 0.953551
vt 0.369044 0.953551
vt 0.369044 0.953551
vt 0.369044 0.953551
vt 0.369044 0.953551
vt 0.369044 0.953551
vt 0.369044 0.953551
vt 0.369044 0.953551
vt 0.369044 0.953551
vt 0.369044 0.953551
vt 0.369044 0.953551
vt 0.369044 0.953551
vt 0.369044 0.953551
vt 0.369044 0.953551
vt 0.369044 0.953551
vt 0.369044 0.953551
vt 0.369044 0.953551
vt 0.369044 0.953551
vt 0.369044 0.953551
vt 0.369044 0.953551
vt 0.369044 0.953551
vt 0.865003 0.953551
vt 0.865003 0.953551
vt 0.865003 0.953551
vt 0.865003 0.953551
vt 0.369044 0.953551
vt 0.369044 0.953551
vt 0.369044 0.953551
vt 0.369044 0.953551
vt 0.369044 0.953551
vt 0.369044 0.953551
vt 0.369044 0.953551
vt 0.369044 0.953551
vt 0.865003 0.953551
vt 0.865003 0.953551
vt 0.865003 0.953551
vt 0.865003 0.953551
vt 0.620417 0.953551
vt 0.620417 0.953551
vt 0.620417 0.953551
vt 0.620417 0.953551
vt 0.620417 0.953551
vt 0.620417 0.953551
vt 0.620417 0.953551
vt 0.620417 0.953551
vt 0.620417 0.953551
vt 0.620417 0.953551
vt 0.620417 0.953551
vt 0.620417 0.953551
vt 0.620417 0.953551
vt 0.620417 0.953551
vt 0.620417 0.953551
vt 0.620417 0.953551
vt 0.620417 0.953551
vt 0.620417 0.953551
vt 0.620417 0.953551
vt 0.620417 0.953551
vt 0.620417 0.953551
vt 0.620417 0.953551
vt 0.620417 0.953551
vt 0.620417 0.953551
vt 0.126308 0.953551
vt 0.126308 0.953551
vt 0.126308 0.953551
vt 0.126308 0.953551
vt 0.126308 0.953551
vt 0.126308 0.953551
vt 0.126308 0.953551
vt 0.126308 0.953551
vt 0.126308 0.953551
vt 0.126308 0.953551
vt 0.126308 0.953551
vt 0.126308 0.953551
vt 0.126308 0.953551
vt 0.126308 0.953551
vt 0.126308 0.953551
vt 0.126308 0.953551
vn -0.000801 -1.000000 0.000000
vn -0.000801 -1.000000 0.000000
vn -0.000801 -1.000000 0.000000
vn -0.000801 -1.000000 0.000000
vn -0.528653 0.848838 0.000000
vn -0.528653 0.848838 0.000000
vn -0.528653 0.848838 0.000000
vn -0.528653 0.848838 0.000000
vn 0.897836 -0.440331 0.000000
vn 0.897836 -0.440331 0.000000
vn 0.897836 -0.440331 0.000000
vn 0.897836 -0.440331 0.000000
vn 0.528654 -0.848838 -0.000000
vn 0.528654 -0.848838 -0.000000
vn 0.528654 -0.848838 -0.000000
vn 0.528654 -0.848838 -0.000000
vn -0.000000 -0.000000 -1.000000
vn -0.000000 -0.000000 -1.000000
vn -0.000000 -0.000000 -1.000000
vn -0.000000 -0.000000 -1.000000
vn -0.000000 -0.000000 -1.000000
vn -0.000000 -0.000000 -1.000000
vn -0.000000 -0.000000 -1.000000
vn -0.000000 -0.000000 -1.000000
vn -0.000000 -0.000000 -1.000000
vn -0.000000 -0.000000 -1.000000
vn -0.000000 -0.000000 -1.000000
vn -0.000000 -0.000000 -1.000000
vn -0.848838 -0.528653 -0.000000
vn -0.848838 -0.528653 -0.000000
vn -0.848838 -0.528653 -0.000000
vn -0.848838 -0.528653 -0.000000
vn -0.848838 -0.528653 -0.000000
vn -0.848838 -0.528653 -0.000000
vn 0.848837 0.528655 -0.000000
vn 0.848837 0.528655 -0.000000
vn 0.848837 0.528655 -0.000000
vn 0.848837 0.528655 -0.000000
vn 0.848837 0.528655 -0.000000
vn 0.848837 0.528655 -0.000000
vn -0.947639 -0.319342 -0.000000
vn -0.947639 -0.319342 -0.000000
vn -0.947639 -0.319342 -0.000000
vn -0.947639 -0.319342 -0.000000
vn 0.704555 0.709650 -0.000000
vn 0.704554 0.709650 -0.000000
vn 0.704554 0.709650 -0.000000
vn 0.704554 0.709650 -0.000000
vn -0.528664 0.848831 0.000000
vn -0.528664 0.848831 0.000000
vn -0.528664 0.848832 0.000000
vn -0.528664 0.848831 0.000000
vn -0.848837 -0.528655 0.000000
vn -0.848837 -0.528655 0.000000
vn -0.848837 -0.528655 0.000000
vn -0.848837 -0.528655 0.000000
vn 0.848837 0.528655 0.000000
vn 0.848837 0.528655 0.000000
vn 0.848837 0.528655 0.000000
vn 0.848837 0.528655 0.000000
vn -0.528652 0.848838 0.000000
vn -0.528652 0.848838 0.000000
vn -0.528652 0.848838 0.000000
vn -0.528652 0.848838 0.000000
vn 0.000000 -0.000000 1.000000
vn 0.000000 -0.000000 1.000000
vn 0.000000 -0.000000 1.000000
vn 0.000000 -0.000000 1.000000
vn 0.000000 -0.000000 1.000000
vn 0.000000 -0.000000 1.000000
vn 0.000000 -0.000000 1.000000
vn 0.000000 -0.000000 1.000000
vn 0.000000 -0.000000 1.000000
vn 0.000000 -0.000000 1.000000
vn 0.000000 -0.000000 1.000000
vn 0.000000 -0.000000 1.000000
vn 0.000000 -0.000000 1.000000
vn 0.000000 -0.000000 1.000000
vn 0.000000 -0.000000 1.000000
vn 0.000000 -0.000000 1.000000
vn -0.000000 0.000000 1.000000
vn -0.000000 0.000000 1.000000
vn -0.000000 0.000000 1.000000
vn -0.000000 0.000000 1.000000
vn -0.000000 0.000000 1.000000
vn -0.000000 0.000000 1.000000
vn -0.000000 0.000000 1.000000
vn -0.000000 0.000000 1.000000
vn -0.000000 -0.000000 1.000000
vn -0.000000 -0.000000 1.000000
vn -0.000000 -0.000000 1.000000
vn -0.000000 -0.000000 1.000000
vn -0.000000 0.000000 -1.000000
vn -0.000000 0.000000 -1.000000
vn -0.000000 0.000000 -1.000000
vn -0.000000 0.000000 -1.000000
vn -0.000000 0.000000 -1.000000
vn -0.000000 0.000000 -1.000000
vn -0.000000 0.000000 -1.000000
vn -0.000000 0.000000 -1.000000
vn -0.000000 0.000000 -1.000000
vn -0.000000 0.000000 -1.000000
vn -0.000000 0.000000 -1.000000
vn -0.000000 0.000000 -1.000000
vn 0.000000 0.000000 -1.000000
vn 0.000000 0.000000 -1.000000
vn 0.000000 0.000000 -1.000000
vn 0.000000 0.000000 -1.000000
vn 0.848839 0.528652 0.000000
vn 0.848839 0.528652 0.000000
vn 0.848839 0.528652 0.000000
vn 0.848839 0.528652 0.000000
vn -0.528654 0.848837 0.000000
vn -0.528654 0.848837 0.000000
vn -0.528654 0.848837 0.000000
vn -0.528654 0.848837 0.000000
vn -0.848839 -0.528652 0.000000
vn -0.848839 -0.528652 0.000000
vn -0.848839 -0.528652 0.000000
vn -0.848839 -0.528652 0.000000
vn 0.528654 -0.848837 0.000000
vn 0.528654 -0.848837 0.000000
vn 0.528654 -0.848837 0.000000
vn 0.528654 -0.848837 0.000000
s off
f 9/1/1 10/2/2 14/3/3 15/4/4
f 3/5/5 4/6/6 17/7/7 19/8/8
f 16/9/9 13/10/10 11/11/11 12/12/12
f 7/13/13 8/14/14 2/15/15 1/16/16
f 16/17/17 12/18/18 25/19/19 26/20/20 9/21/21 15/22/22 3/23/23 19/24/24 23/25/25 24/26/26 20/27/27 5/28/28
f 1/29/29 2/30/30 28/31/31 10/32/32 9/33/33 26/34/34
f 12/35/35 11/36/36 27/37/37 8/38/38 7/39/39 25/40/40
f 15/41/41 14/42/42 4/43/43 3/44/44
f 5/45/45 6/46/46 13/47/47 16/48/48
f 20/49/49 18/50/50 6/51/51 5/52/52
f 24/53/53 21/54/54 18/55/55 20/56/56
f 19/57/57 17/58/58 22/59/59 23/60/60
f 23/61/61 22/62/62 21/63/63 24/64/64
f 11/65/65 13/66/66 6/67/67 18/68/68 21/69/69 22/70/70 17/71/71 4/72/72 14/73/73 10/74/74 28/75/75 27/76/76
f 27/76/77 28/75/78 30/77/79 29/78/80
f 28/75/81 2/79/82 31/80/83 30/77/84
f 2/79/85 8/81/86 32/82/87 31/80/88
f 8/81/89 27/76/90 29/78/91 32/82/92
f 26/20/93 25/19/94 33/83/95 34/84/96
f 25/19/97 7/85/98 35/86/99 33/83/100
f 7/85/101 1/87/102 36/88/103 35/86/104
f 1/87/105 26/20/106 34/84/107 36/88/108
f 30/89/109 31/90/110 36/91/111 34/92/112
f 31/93/113 32/94/114 35/95/115 36/96/116
f 32/97/117 29/98/118 33/99/119 35/100/120
f 30/101/121 34/102/122 33/103/123 29/104/124
