# This file uses centimeters as units for non-parametric coordinates.

v 0.246082 -0.459194 -0.100038
v 0.426224 -0.279050 -0.100038
v 0.492161 -0.032969 -0.100038
v 0.246082 -0.459194 0.100038
v 0.426224 -0.279050 0.100038
v 0.492161 -0.032969 0.100038
v 0.072651 -0.158801 -0.100038
v 0.125832 -0.105618 -0.100038
v 0.145298 -0.032969 -0.100038
v 0.072651 -0.158801 0.100038
v 0.125832 -0.105618 0.100038
v 0.145298 -0.032969 0.100038
v 0.246082 0.393257 -0.100038
v 0.000000 0.459194 -0.100038
v -0.246082 0.393257 -0.100038
v 0.246082 0.393257 0.100038
v 0.000000 0.459194 0.100038
v -0.246082 0.393257 0.100038
v 0.072651 0.092864 -0.100038
v 0.000000 0.112331 -0.100038
v -0.072651 0.092864 -0.100038
v 0.072651 0.092864 0.100038
v 0.000000 0.112331 0.100038
v -0.072651 0.092864 0.100038
v -0.492161 -0.032969 -0.100038
v -0.426224 -0.279050 -0.100038
v -0.246082 -0.459194 -0.100038
v -0.492161 -0.032969 0.100038
v -0.426224 -0.279050 0.100038
v -0.246082 -0.459194 0.100038
v -0.145298 -0.032969 -0.100038
v -0.125832 -0.105618 -0.100038
v -0.072651 -0.158801 -0.100038
v -0.145298 -0.032969 0.100038
v -0.125832 -0.105618 0.100038
v -0.072651 -0.158801 0.100038
v 0.094635 -0.090234 -0.100038
v 0.094635 0.019040 -0.100038
v 0.000000 0.073677 -0.100038
v -0.094635 0.019040 -0.100038
v -0.094635 -0.090234 -0.100038
v 0.000000 -0.144871 -0.100038
v 0.094635 -0.090234 0.100038
v 0.094635 0.019040 0.100038
v 0.000000 0.073677 0.100038
v -0.094635 0.019040 0.100038
v -0.094635 -0.090234 0.100038
v 0.000000 -0.144871 0.100038
v 0.000000 -0.035597 -0.100038
v 0.000000 -0.035597 0.100038
vt 0.126308 0.953551
vt 0.126308 0.953551
vt 0.126308 0.953551
vt 0.126308 0.953551
vt 0.369044 0.953551
vt 0.369044 0.953551
vt 0.369044 0.953551
vt 0.369044 0.953551
vt 0.620417 0.953551
vt 0.620417 0.953551
vt 0.620417 0.953551
vt 0.620417 0.953551
vt 0.620417 0.953551
vt 0.620417 0.953551
vt 0.620417 0.953551
vt 0.620417 0.953551
vt 0.620417 0.953551
vt 0.620417 0.953551
vt 0.620417 0.953551
vt 0.620417 0.953551
vt 0.620417 0.953551
vt 0.620417 0.953551
vt 0.620417 0.953551
vt 0.620417 0.953551
vt 0.620417 0.953551
vt 0.620417 0.953551
vt 0.620417 0.953551
vt 0.620417 0.953551
vt 0.620417 0.953551
vt 0.620417 0.953551
vt 0.620417 0.953551
vt 0.620417 0.953551
vt 0.126308 0.953551
vt 0.126308 0.953551
vt 0.126308 0.953551
vt 0.126308 0.953551
vt 0.865003 0.953551
vt 0.865003 0.953551
vt 0.865003 0.953551
vt 0.865003 0.953551
vt 0.865003 0.953551
vt 0.865003 0.953551
vt 0.865003 0.953551
vt 0.865003 0.953551
vt 0.865003 0.953551
vt 0.865003 0.953551
vt 0.865003 0.953551
vt 0.865003 0.953551
vt 0.620417 0.953551
vt 0.620417 0.953551
vt 0.620417 0.953551
vt 0.620417 0.953551
vt 0.620417 0.953551
vt 0.620417 0.953551
vt 0.620417 0.953551
vt 0.620417 0.953551
vt 0.620417 0.953551
vt 0.620417 0.953551
vt 0.620417 0.953551
vt 0.620417 0.953551
vt 0.620417 0.953551
vt 0.620417 0.953551
vt 0.620417 0.953551
vt 0.620417 0.953551
vt 0.126308 0.953551
vt 0.126308 0.953551
vt 0.126308 0.953551
vt 0.126308 0.953551
vt 0.126308 0.953551
vt 0.126308 0.953551
vt 0.126308 0.953551
vt 0.126308 0.953551
vt 0.126308 0.953551
vt 0.126308 0.953551
vt 0.126308 0.953551
vt 0.126308 0.953551
vt 0.126308 0.953551
vt 0.126308 0.953551
vt 0.126308 0.953551
vt 0.126308 0.953551
vt 0.369044 0.953551
vt 0.369044 0.953551
vt 0.369044 0.953551
vt 0.369044 0.953551
vt 0.126308 0.953551
vt 0.126308 0.953551
vt 0.126308 0.953551
vt 0.126308 0.953551
vt 0.620417 0.953551
vt 0.620417 0.953551
vt 0.620417 0.953551
vt 0.620417 0.953551
vt 0.620417 0.953551
vt 0.620417 0.953551
vt 0.620417 0.953551
vt 0.620417 0.953551
vt 0.620417 0.953551
vt 0.620417 0.953551
vt 0.620417 0.953551
vt 0.620417 0.953551
vt 0.620417 0.953551
vt 0.620417 0.953551
vt 0.620417 0.953551
vt 0.620417 0.953551
vt 0.620417 0.953551
vt 0.620417 0.953551
vt 0.620417 0.953551
vt 0.620417 0.953551
vt 0.620417 0.953551
vt 0.620417 0.953551
vt 0.620417 0.953551
vt 0.620417 0.953551
vt 0.865003 0.953551
vt 0.865003 0.953551
vt 0.865003 0.953551
vt 0.865003 0.953551
vt 0.126308 0.953551
vt 0.126308 0.953551
vt 0.126308 0.953551
vt 0.126308 0.953551
vt 0.126308 0.953551
vt 0.126308 0.953551
vt 0.126308 0.953551
vt 0.126308 0.953551
vt 0.620417 0.953551
vt 0.620417 0.953551
vt 0.620417 0.953551
vt 0.620417 0.953551
vt 0.620417 0.953551
vt 0.620417 0.953551
vt 0.620417 0.953551
vt 0.620417 0.953551
vt 0.126308 0.953551
vt 0.126308 0.953551
vt 0.126308 0.953551
vt 0.126308 0.953551
vt 0.126308 0.953551
vt 0.126308 0.953551
vt 0.126308 0.953551
vt 0.126308 0.953551
vt 0.126308 0.953551
vt 0.126308 0.953551
vt 0.126308 0.953551
vt 0.126308 0.953551
vt 0.369044 0.953551
vt 0.369044 0.953551
vt 0.369044 0.953551
vt 0.369044 0.953551
vt 0.369044 0.953551
vt 0.369044 0.953551
vt 0.369044 0.953551
vt 0.369044 0.953551
vt 0.369044 0.953551
vt 0.369044 0.953551
vt 0.369044 0.953551
vt 0.369044 0.953551
vt 0.369044 0.953551
vt 0.369044 0.953551
vt 0.369044 0.953551
vt 0.369044 0.953551
vt 0.369044 0.953551
vt 0.369044 0.953551
vt 0.369044 0.953551
vt 0.369044 0.953551
vt 0.369044 0.953551
vt 0.369044 0.953551
vt 0.369044 0.953551
vt 0.369044 0.953551
vt 0.369044 0.953551
vt 0.369044 0.953551
vt 0.369044 0.953551
vt 0.369044 0.953551
vt 0.369044 0.953551
vt 0.369044 0.953551
vt 0.369044 0.953551
vt 0.369044 0.953551
vt 0.369044 0.953551
vt 0.369044 0.953551
vt 0.369044 0.953551
vt 0.369044 0.953551
vn 0.707111 -0.707102 -0.000000
vn 0.707111 -0.707102 -0.000000
vn 0.707111 -0.707102 -0.000000
vn 0.707111 -0.707102 -0.000000
vn 0.965926 -0.258818 -0.000000
vn 0.965926 -0.258818 -0.000000
vn 0.965926 -0.258818 -0.000000
vn 0.965926 -0.258818 -0.000000
vn 0.000000 0.000000 -1.000000
vn 0.000000 0.000000 -1.000000
vn 0.000000 0.000000 -1.000000
vn 0.000000 0.000000 -1.000000
vn -0.000000 0.000000 -1.000000
vn -0.000000 0.000000 -1.000000
vn -0.000000 0.000000 -1.000000
vn -0.000000 0.000000 -1.000000
vn -0.000000 -0.000000 1.000000
vn -0.000000 -0.000000 1.000000
vn -0.000000 -0.000000 1.000000
vn -0.000000 -0.000000 1.000000
vn -0.000000 0.000000 1.000000
vn -0.000000 0.000000 1.000000
vn -0.000000 0.000000 1.000000
vn -0.000000 0.000000 1.000000
vn -0.707123 0.707091 0.000000
vn -0.707123 0.707091 0.000000
vn -0.707123 0.707091 0.000000
vn -0.707123 0.707091 0.000000
vn -0.965926 0.258819 0.000000
vn -0.965926 0.258819 0.000000
vn -0.965926 0.258819 0.000000
vn -0.965926 0.258819 0.000000
vn -0.866026 -0.499999 0.000000
vn -0.866026 -0.499999 0.000000
vn -0.866026 -0.499999 0.000000
vn -0.866026 -0.499999 0.000000
vn 0.000000 1.000000 0.000000
vn 0.000000 1.000000 0.000000
vn 0.000000 1.000000 0.000000
vn 0.000000 1.000000 0.000000
vn 0.258818 0.965926 0.000000
vn 0.258818 0.965926 0.000000
vn 0.258818 0.965926 0.000000
vn 0.258818 0.965926 0.000000
vn -0.258818 0.965926 0.000000
vn -0.258818 0.965926 0.000000
vn -0.258818 0.965926 0.000000
vn -0.258818 0.965926 0.000000
vn 0.000000 0.000000 -1.000000
vn 0.000000 0.000000 -1.000000
vn 0.000000 0.000000 -1.000000
vn 0.000000 0.000000 -1.000000
vn -0.000000 0.000000 -1.000000
vn -0.000000 0.000000 -1.000000
vn -0.000000 0.000000 -1.000000
vn -0.000000 0.000000 -1.000000
vn 0.000000 -0.000000 1.000000
vn 0.000000 -0.000000 1.000000
vn 0.000000 -0.000000 1.000000
vn 0.000000 -0.000000 1.000000
vn 0.000000 -0.000000 1.000000
vn 0.000000 -0.000000 1.000000
vn 0.000000 -0.000000 1.000000
vn 0.000000 -0.000000 1.000000
vn -0.258815 -0.965927 0.000000
vn -0.258815 -0.965927 0.000000
vn -0.258815 -0.965927 0.000000
vn -0.258815 -0.965927 0.000000
vn 0.258815 -0.965927 0.000000
vn 0.258815 -0.965927 0.000000
vn 0.258815 -0.965927 0.000000
vn 0.258815 -0.965927 0.000000
vn 0.866026 -0.499999 0.000000
vn 0.866026 -0.499999 0.000000
vn 0.866026 -0.499999 0.000000
vn 0.866026 -0.499999 0.000000
vn -0.866026 -0.499999 0.000000
vn -0.866026 -0.500000 0.000000
vn -0.866026 -0.500000 0.000000
vn -0.866026 -0.500000 0.000000
vn -0.965926 -0.258818 -0.000000
vn -0.965926 -0.258818 -0.000000
vn -0.965926 -0.258818 -0.000000
vn -0.965926 -0.258818 -0.000000
vn -0.707112 -0.707102 0.000000
vn -0.707112 -0.707102 0.000000
vn -0.707112 -0.707102 0.000000
vn -0.707112 -0.707102 0.000000
vn -0.000000 -0.000000 -1.000000
vn -0.000000 -0.000000 -1.000000
vn -0.000000 -0.000000 -1.000000
vn -0.000000 -0.000000 -1.000000
vn -0.000000 0.000000 -1.000000
vn -0.000000 0.000000 -1.000000
vn -0.000000 0.000000 -1.000000
vn -0.000000 0.000000 -1.000000
vn -0.000000 -0.000000 1.000000
vn -0.000000 -0.000000 1.000000
vn -0.000000 -0.000000 1.000000
vn -0.000000 -0.000000 1.000000
vn -0.000000 0.000000 1.000000
vn -0.000000 0.000000 1.000000
vn -0.000000 0.000000 1.000000
vn -0.000000 0.000000 1.000000
vn 0.965926 0.258819 0.000000
vn 0.965926 0.258819 0.000000
vn 0.965926 0.258819 0.000000
vn 0.965926 0.258819 0.000000
vn 0.707123 0.707091 -0.000000
vn 0.707123 0.707091 -0.000000
vn 0.707123 0.707091 -0.000000
vn 0.707123 0.707091 -0.000000
vn 0.000000 1.000000 -0.000000
vn 0.000000 1.000000 -0.000000
vn 0.000000 1.000000 -0.000000
vn 0.000000 1.000000 -0.000000
vn 0.866026 -0.499999 0.000000
vn 0.866026 -0.499999 0.000000
vn 0.866026 -0.499999 0.000000
vn 0.866026 -0.499999 0.000000
vn 1.000000 0.000000 0.000000
vn 1.000000 0.000000 0.000000
vn 1.000000 0.000000 0.000000
vn 1.000000 0.000000 0.000000
vn 0.499998 0.866027 0.000000
vn 0.499998 0.866027 0.000000
vn 0.499998 0.866027 0.000000
vn 0.499998 0.866027 0.000000
vn -0.499998 0.866027 0.000000
vn -0.499998 0.866027 0.000000
vn -0.499998 0.866027 0.000000
vn -0.499998 0.866027 0.000000
vn -1.000000 0.000000 0.000000
vn -1.000000 0.000000 0.000000
vn -1.000000 0.000000 0.000000
vn -1.000000 0.000000 0.000000
vn -0.499998 -0.866027 0.000000
vn -0.499998 -0.866027 0.000000
vn -0.499998 -0.866027 0.000000
vn -0.499998 -0.866027 0.000000
vn 0.499996 -0.866028 0.000000
vn 0.499996 -0.866028 0.000000
vn 0.499996 -0.866028 0.000000
vn 0.499996 -0.866028 0.000000
vn -0.000000 0.000000 -1.000000
vn -0.000000 0.000000 -1.000000
vn -0.000000 0.000000 -1.000000
vn 0.000000 0.000000 -1.000000
vn 0.000000 0.000000 -1.000000
vn 0.000000 0.000000 -1.000000
vn -0.000000 0.000000 -1.000000
vn -0.000000 0.000000 -1.000000
vn -0.000000 0.000000 -1.000000
vn 0.000000 0.000000 -1.000000
vn 0.000000 0.000000 -1.000000
vn 0.000000 0.000000 -1.000000
vn -0.000000 0.000000 -1.000000
vn -0.000000 0.000000 -1.000000
vn -0.000000 0.000000 -1.000000
vn 0.000000 0.000000 -1.000000
vn 0.000000 0.000000 -1.000000
vn 0.000000 0.000000 -1.000000
vn -0.000000 0.000000 1.000000
vn -0.000000 0.000000 1.000000
vn -0.000000 0.000000 1.000000
vn 0.000000 0.000000 1.000000
vn 0.000000 0.000000 1.000000
vn 0.000000 0.000000 1.000000
vn 0.000000 0.000000 1.000000
vn 0.000000 0.000000 1.000000
vn 0.000000 0.000000 1.000000
vn 0.000000 0.000000 1.000000
vn 0.000000 0.000000 1.000000
vn 0.000000 0.000000 1.000000
vn 0.000000 0.000000 1.000000
vn 0.000000 0.000000 1.000000
vn 0.000000 0.000000 1.000000
vn 0.000000 0.000000 1.000000
vn 0.000000 0.000000 1.000000
vn 0.000000 0.000000 1.000000
s off
f 1/1/1 2/2/2 5/3/3 4/4/4
f 2/5/5 3/6/6 6/7/7 5/8/8
f 2/9/9 1/10/10 7/11/11 8/12/12
f 3/13/13 2/14/14 8/15/15 9/16/16
f 4/17/17 5/18/18 11/19/19 10/20/20
f 5/21/21 6/22/22 12/23/23 11/24/24
f 8/25/25 7/26/26 10/27/27 11/28/28
f 9/29/29 8/30/30 11/31/31 12/32/32
f 4/33/33 10/34/34 7/35/35 1/36/36
f 6/37/37 3/38/38 9/39/39 12/40/40
f 13/41/41 14/42/42 17/43/43 16/44/44
f 14/45/45 15/46/46 18/47/47 17/48/48
f 14/49/49 13/50/50 19/51/51 20/52/52
f 15/53/53 14/54/54 20/55/55 21/56/56
f 16/57/57 17/58/58 23/59/59 22/60/60
f 17/61/61 18/62/62 24/63/63 23/64/64
f 20/65/65 19/66/66 22/67/67 23/68/68
f 21/69/69 20/70/70 23/71/71 24/72/72
f 16/73/73 22/74/74 19/75/75 13/76/76
f 18/77/77 15/78/78 21/79/79 24/80/80
f 25/81/81 26/82/82 29/83/83 28/84/84
f 26/85/85 27/86/86 30/87/87 29/88/88
f 26/89/89 25/90/90 31/91/91 32/92/92
f 27/93/93 26/94/94 32/95/95 33/96/96
f 28/97/97 29/98/98 35/99/99 34/100/100
f 29/101/101 30/102/102 36/103/103 35/104/104
f 32/105/105 31/106/106 34/107/107 35/108/108
f 33/109/109 32/110/110 35/111/111 36/112/112
f 28/113/113 34/114/114 31/115/115 25/116/116
f 30/117/117 27/118/118 33/119/119 36/120/120
f 37/121/121 38/122/122 44/123/123 43/124/124
f 38/125/125 39/126/126 45/127/127 44/128/128
f 39/129/129 40/130/130 46/131/131 45/132/132
f 40/133/133 41/134/134 47/135/135 46/136/136
f 41/137/137 42/138/138 48/139/139 47/140/140
f 42/141/141 37/142/142 43/143/143 48/144/144
f 38/145/145 37/146/146 49/147/147
f 39/148/148 38/149/149 49/150/150
f 40/151/151 39/152/152 49/153/153
f 41/154/154 40/155/155 49/156/156
f 42/157/157 41/158/158 49/159/159
f 37/160/160 42/161/161 49/162/162
f 43/163/163 44/164/164 50/165/165
f 44/166/166 45/167/167 50/168/168
f 45/169/169 46/170/170 50/171/171
f 46/172/172 47/173/173 50/174/174
f 47/175/175 48/176/176 50/177/177
f 48/178/178 43/179/179 50/180/180
