# This file uses centimeters as units for non-parametric coordinates.

v -0.078339 0.356172 -0.100038
v -0.078339 0.356172 0.100038
v -0.022644 0.548641 -0.100038
v -0.022644 0.548641 0.100038
v 0.169823 0.492948 -0.100038
v 0.169823 0.492948 0.100038
v 0.114128 0.300479 -0.100038
v 0.114128 0.300479 0.100038
v -0.210457 -0.152969 -0.100038
v -0.210457 -0.152969 0.100038
v -0.079498 0.308421 -0.100038
v -0.079498 0.308421 0.100038
v 0.089592 0.260425 -0.100038
v 0.089592 0.260425 0.100038
v -0.013344 -0.115653 0.100038
v -0.013344 -0.115653 -0.100038
v -0.125916 -0.176967 0.100038
v -0.125916 -0.176967 -0.100038
v 0.061378 0.161013 0.100038
v 0.061378 0.161013 -0.100038
v -0.107712 0.209008 0.100038
v -0.107712 0.209008 -0.100038
v 0.151070 -0.271186 0.100038
v 0.151070 -0.271186 -0.100038
v 0.031845 -0.304941 0.100038
v 0.031845 -0.304941 -0.100038
v -0.144310 -0.423693 0.100038
v -0.144310 -0.423693 -0.100038
v -0.229507 -0.317116 0.100038
v -0.229507 -0.317116 -0.100038
v 0.271149 0.133648 -0.100038
v 0.271149 0.133648 0.100038
v 0.269585 0.019323 0.100038
v 0.269585 0.019323 -0.100038
v -0.299126 0.165926 0.100038
v -0.299126 0.165926 -0.100038
v -0.351280 0.265337 0.100038
v -0.351280 0.265337 -0.100038
v 0.437233 0.264948 -0.100038
v 0.437233 0.264948 0.100038
v 0.437233 0.136131 0.100038
v 0.437233 0.136131 -0.100038
v -0.347305 0.005898 0.100038
v -0.347305 0.005898 -0.100038
v -0.437241 0.005898 0.100038
v -0.437241 0.005898 -0.100038
v -0.437241 -0.423693 0.100038
v -0.437241 -0.423693 -0.100038
v -0.437241 -0.317116 0.100038
v -0.437241 -0.317116 -0.100038
v 0.151070 -0.548641 0.100038
v 0.151070 -0.548641 -0.100038
v 0.031845 -0.548641 0.100038
v 0.031845 -0.548641 -0.100038
vt 0.369044 0.953551
vt 0.369044 0.953551
vt 0.369044 0.953551
vt 0.369044 0.953551
vt 0.865003 0.953551
vt 0.865003 0.953551
vt 0.865003 0.953551
vt 0.865003 0.953551
vt 0.369044 0.953551
vt 0.369044 0.953551
vt 0.369044 0.953551
vt 0.369044 0.953551
vt 0.126308 0.953551
vt 0.126308 0.953551
vt 0.126308 0.953551
vt 0.126308 0.953551
vt 0.620417 0.953551
vt 0.620417 0.953551
vt 0.620417 0.953551
vt 0.620417 0.953551
vt 0.620417 0.953551
vt 0.620417 0.953551
vt 0.620417 0.953551
vt 0.620417 0.953551
vt 0.369044 0.953551
vt 0.369044 0.953551
vt 0.369044 0.953551
vt 0.369044 0.953551
vt 0.865003 0.953551
vt 0.865003 0.953551
vt 0.865003 0.953551
vt 0.865003 0.953551
vt 0.369044 0.953551
vt 0.369044 0.953551
vt 0.369044 0.953551
vt 0.369044 0.953551
vt 0.126308 0.953551
vt 0.126308 0.953551
vt 0.126308 0.953551
vt 0.126308 0.953551
vt 0.620417 0.953551
vt 0.620417 0.953551
vt 0.620417 0.953551
vt 0.620417 0.953551
vt 0.126308 0.953551
vt 0.126308 0.953551
vt 0.126308 0.953551
vt 0.126308 0.953551
vt 0.369044 0.953551
vt 0.369044 0.953551
vt 0.369044 0.953551
vt 0.369044 0.953551
vt 0.369044 0.953551
vt 0.369044 0.953551
vt 0.369044 0.953551
vt 0.369044 0.953551
vt 0.126308 0.953551
vt 0.126308 0.953551
vt 0.126308 0.953551
vt 0.126308 0.953551
vt 0.865003 0.953551
vt 0.865003 0.953551
vt 0.865003 0.953551
vt 0.865003 0.953551
vt 0.620417 0.953551
vt 0.620417 0.953551
vt 0.620417 0.953551
vt 0.620417 0.953551
vt 0.620417 0.953551
vt 0.620417 0.953551
vt 0.620417 0.953551
vt 0.369044 0.953551
vt 0.369044 0.953551
vt 0.369044 0.953551
vt 0.369044 0.953551
vt 0.620417 0.953551
vt 0.620417 0.953551
vt 0.620417 0.953551
vt 0.620417 0.953551
vt 0.369044 0.953551
vt 0.369044 0.953551
vt 0.369044 0.953551
vt 0.369044 0.953551
vt 0.620417 0.953551
vt 0.620417 0.953551
vt 0.620417 0.953551
vt 0.620417 0.953551
vt 0.865003 0.953551
vt 0.865003 0.953551
vt 0.865003 0.953551
vt 0.865003 0.953551
vt 0.620417 0.953551
vt 0.620417 0.953551
vt 0.620417 0.953551
vt 0.620417 0.953551
vt 0.126308 0.953551
vt 0.126308 0.953551
vt 0.126308 0.953551
vt 0.126308 0.953551
vt 0.620417 0.953551
vt 0.620417 0.953551
vt 0.620417 0.953551
vt 0.620417 0.953551
vt 0.126308 0.953551
vt 0.126308 0.953551
vt 0.126308 0.953551
vt 0.126308 0.953551
vt 0.620417 0.953551
vt 0.620417 0.953551
vt 0.620417 0.953551
vt 0.620417 0.953551
vt 0.865003 0.953551
vt 0.865003 0.953551
vt 0.865003 0.953551
vt 0.865003 0.953551
vt 0.620417 0.953551
vt 0.620417 0.953551
vt 0.620417 0.953551
vt 0.620417 0.953551
vt 0.620417 0.953551
vt 0.620417 0.953551
vt 0.620417 0.953551
vt 0.620417 0.953551
vt 0.620417 0.953551
vt 0.620417 0.953551
vt 0.620417 0.953551
vt 0.620417 0.953551
vt 0.620417 0.953551
vt 0.620417 0.953551
vt 0.620417 0.953551
vt 0.865003 0.953551
vt 0.865003 0.953551
vt 0.865003 0.953551
vt 0.865003 0.953551
vt 0.620417 0.953551
vt 0.620417 0.953551
vt 0.620417 0.953551
vt 0.620417 0.953551
vt 0.126308 0.953551
vt 0.126308 0.953551
vt 0.126308 0.953551
vt 0.126308 0.953551
vt 0.620417 0.953551
vt 0.620417 0.953551
vt 0.620417 0.953551
vt 0.620417 0.953551
vt 0.369044 0.953551
vt 0.369044 0.953551
vt 0.369044 0.953551
vt 0.369044 0.953551
vt 0.620417 0.953551
vt 0.620417 0.953551
vt 0.620417 0.953551
vt 0.620417 0.953551
vt 0.369044 0.953551
vt 0.369044 0.953551
vt 0.369044 0.953551
vt 0.369044 0.953551
vt 0.620417 0.953551
vt 0.620417 0.953551
vt 0.620417 0.953551
vt 0.620417 0.953551
vt 0.126308 0.953551
vt 0.126308 0.953551
vt 0.126308 0.953551
vt 0.126308 0.953551
vt 0.620417 0.953551
vt 0.620417 0.953551
vt 0.620417 0.953551
vt 0.620417 0.953551
vt 0.865003 0.953551
vt 0.865003 0.953551
vt 0.865003 0.953551
vt 0.865003 0.953551
vt 0.620417 0.953551
vt 0.620417 0.953551
vt 0.620417 0.953551
vt 0.620417 0.953551
vt 0.369044 0.953551
vt 0.369044 0.953551
vt 0.369044 0.953551
vt 0.369044 0.953551
vt 0.620417 0.953551
vt 0.620417 0.953551
vt 0.620417 0.953551
vt 0.620417 0.953551
vt 0.369044 0.953551
vt 0.369044 0.953551
vt 0.369044 0.953551
vt 0.369044 0.953551
vt 0.620417 0.953551
vt 0.620417 0.953551
vt 0.620417 0.953551
vt 0.620417 0.953551
vn -0.960591 0.277966 0.000000
vn -0.960591 0.277966 0.000000
vn -0.960591 0.277966 0.000000
vn -0.960591 0.277966 0.000000
vn 0.277962 0.960592 0.000000
vn 0.277962 0.960592 0.000000
vn 0.277962 0.960592 0.000000
vn 0.277962 0.960592 0.000000
vn 0.960591 -0.277966 0.000000
vn 0.960591 -0.277966 0.000000
vn 0.960591 -0.277966 0.000000
vn 0.960591 -0.277966 0.000000
vn -0.277962 -0.960592 0.000000
vn -0.277962 -0.960592 0.000000
vn -0.277962 -0.960592 0.000000
vn -0.277962 -0.960592 0.000000
vn 0.000000 -0.000000 1.000000
vn 0.000000 -0.000000 1.000000
vn 0.000000 -0.000000 1.000000
vn 0.000000 -0.000000 1.000000
vn 0.000000 -0.000000 -1.000000
vn 0.000000 -0.000000 -1.000000
vn 0.000000 -0.000000 -1.000000
vn 0.000000 -0.000000 -1.000000
vn -0.961998 0.273057 0.000000
vn -0.961998 0.273057 0.000000
vn -0.961998 0.273057 0.000000
vn -0.961998 0.273057 0.000000
vn 0.273059 0.961997 -0.000000
vn 0.273059 0.961997 -0.000000
vn 0.273059 0.961997 -0.000000
vn 0.273059 0.961997 -0.000000
vn 1.000000 0.000000 -0.000000
vn 1.000000 0.000000 -0.000000
vn 1.000000 0.000000 -0.000000
vn 1.000000 0.000000 -0.000000
vn -0.629980 -0.776612 0.000000
vn -0.629980 -0.776612 0.000000
vn -0.629980 -0.776612 0.000000
vn -0.629980 -0.776612 0.000000
vn 0.000000 0.000000 -1.000000
vn 0.000000 0.000000 -1.000000
vn 0.000000 0.000000 -1.000000
vn 0.000000 0.000000 -1.000000
vn 0.000000 -1.000000 0.000000
vn 0.000000 -1.000000 0.000000
vn 0.000000 -1.000000 0.000000
vn 0.000000 -1.000000 0.000000
vn -1.000000 0.000000 -0.000000
vn -1.000000 0.000000 -0.000000
vn -1.000000 0.000000 -0.000000
vn -1.000000 0.000000 -0.000000
vn 0.965410 -0.260738 0.000000
vn 0.965410 -0.260738 0.000000
vn 0.965410 -0.260738 0.000000
vn 0.965410 -0.260738 0.000000
vn 0.000000 -1.000000 0.000000
vn 0.000000 -1.000000 0.000000
vn 0.000000 -1.000000 0.000000
vn 0.000000 -1.000000 0.000000
vn 0.687216 0.726454 0.000000
vn 0.687216 0.726454 0.000000
vn 0.687216 0.726454 0.000000
vn 0.687216 0.726454 0.000000
vn 0.000000 0.000000 1.000000
vn 0.000000 0.000000 1.000000
vn 0.000000 0.000000 1.000000
vn 0.000000 0.000000 1.000000
vn 0.000000 0.000000 1.000000
vn 0.000000 0.000000 1.000000
vn 0.000000 0.000000 1.000000
vn 0.997232 -0.074348 0.000000
vn 0.997232 -0.074348 0.000000
vn 0.997232 -0.074348 0.000000
vn 0.997232 -0.074348 0.000000
vn 0.000000 0.000000 1.000000
vn 0.000000 0.000000 1.000000
vn 0.000000 0.000000 1.000000
vn 0.000000 0.000000 1.000000
vn -0.993333 0.115285 0.000000
vn -0.993333 0.115285 0.000000
vn -0.993333 0.115285 0.000000
vn -0.993333 0.115285 0.000000
vn 0.000000 0.000000 -1.000000
vn 0.000000 0.000000 -1.000000
vn 0.000000 0.000000 -1.000000
vn 0.000000 0.000000 -1.000000
vn 0.572516 0.819893 0.000000
vn 0.572516 0.819893 0.000000
vn 0.572516 0.819893 0.000000
vn 0.572516 0.819893 0.000000
vn 0.000000 0.000000 1.000000
vn 0.000000 0.000000 1.000000
vn 0.000000 0.000000 1.000000
vn 0.000000 0.000000 1.000000
vn -0.562610 -0.826722 0.000000
vn -0.562610 -0.826722 0.000000
vn -0.562610 -0.826722 0.000000
vn -0.562610 -0.826722 0.000000
vn 0.000000 0.000000 -1.000000
vn 0.000000 0.000000 -1.000000
vn 0.000000 0.000000 -1.000000
vn 0.000000 0.000000 -1.000000
vn 0.219583 -0.975594 0.000000
vn 0.219583 -0.975594 0.000000
vn 0.219583 -0.975594 0.000000
vn 0.219583 -0.975594 0.000000
vn -0.000000 0.000000 1.000000
vn -0.000000 0.000000 1.000000
vn -0.000000 0.000000 1.000000
vn -0.000000 0.000000 1.000000
vn -0.156568 0.987667 0.000000
vn -0.156568 0.987667 0.000000
vn -0.156568 0.987667 0.000000
vn -0.156568 0.987667 0.000000
vn -0.000000 0.000000 -1.000000
vn -0.000000 0.000000 -1.000000
vn -0.000000 0.000000 -1.000000
vn -0.000000 0.000000 -1.000000
vn 0.000000 -0.000000 1.000000
vn 0.000000 -0.000000 1.000000
vn 0.000000 -0.000000 1.000000
vn 0.000000 -0.000000 1.000000
vn 0.000000 0.000000 -1.000000
vn 0.000000 0.000000 -1.000000
vn 0.000000 0.000000 -1.000000
vn 0.000000 0.000000 -1.000000
vn 0.000000 0.000000 -1.000000
vn 0.000000 0.000000 -1.000000
vn 0.000000 0.000000 -1.000000
vn -0.620170 0.784467 0.000000
vn -0.620170 0.784467 0.000000
vn -0.620170 0.784467 0.000000
vn -0.620170 0.784467 0.000000
vn -0.000000 0.000000 1.000000
vn -0.000000 0.000000 1.000000
vn -0.000000 0.000000 1.000000
vn -0.000000 0.000000 1.000000
vn 0.571669 -0.820484 -0.000000
vn 0.571670 -0.820484 -0.000000
vn 0.571669 -0.820484 -0.000000
vn 0.571669 -0.820484 -0.000000
vn -0.000000 0.000000 -1.000000
vn -0.000000 0.000000 -1.000000
vn -0.000000 0.000000 -1.000000
vn -0.000000 0.000000 -1.000000
vn 0.957544 -0.288288 0.000000
vn 0.957544 -0.288288 0.000000
vn 0.957544 -0.288288 0.000000
vn 0.957544 -0.288288 0.000000
vn -0.000000 0.000000 1.000000
vn -0.000000 0.000000 1.000000
vn -0.000000 0.000000 1.000000
vn -0.000000 0.000000 1.000000
vn -0.949252 0.314517 -0.000000
vn -0.949252 0.314517 -0.000000
vn -0.949252 0.314517 -0.000000
vn -0.949252 0.314517 -0.000000
vn -0.000000 -0.000000 -1.000000
vn -0.000000 -0.000000 -1.000000
vn -0.000000 -0.000000 -1.000000
vn -0.000000 -0.000000 -1.000000
vn 0.000000 -1.000000 0.000000
vn 0.000000 -1.000000 0.000000
vn 0.000000 -1.000000 0.000000
vn 0.000000 -1.000000 0.000000
vn -0.000000 -0.000000 1.000000
vn -0.000000 -0.000000 1.000000
vn -0.000000 -0.000000 1.000000
vn -0.000000 -0.000000 1.000000
vn 0.000000 1.000000 0.000000
vn 0.000000 1.000000 0.000000
vn 0.000000 1.000000 0.000000
vn 0.000000 1.000000 0.000000
vn -0.000000 -0.000000 -1.000000
vn -0.000000 -0.000000 -1.000000
vn -0.000000 -0.000000 -1.000000
vn -0.000000 -0.000000 -1.000000
vn 1.000000 0.000000 0.000000
vn 1.000000 0.000000 0.000000
vn 1.000000 0.000000 0.000000
vn 1.000000 0.000000 0.000000
vn -0.000000 0.000000 1.000000
vn -0.000000 0.000000 1.000000
vn -0.000000 0.000000 1.000000
vn -0.000000 0.000000 1.000000
vn -1.000000 0.000000 0.000000
vn -1.000000 0.000000 0.000000
vn -1.000000 0.000000 0.000000
vn -1.000000 0.000000 0.000000
vn -0.000000 0.000000 -1.000000
vn -0.000000 0.000000 -1.000000
vn -0.000000 0.000000 -1.000000
vn -0.000000 0.000000 -1.000000
s off
f 1/1/1 2/2/2 4/3/3 3/4/4
f 3/5/5 4/6/6 6/7/7 5/8/8
f 5/9/9 6/10/10 8/11/11 7/12/12
f 7/13/13 8/14/14 2/15/15 1/16/16
f 2/17/17 8/18/18 6/19/19 4/20/20
f 7/21/21 1/22/22 3/23/23 5/24/24
f 9/25/25 10/26/26 21/27/27 22/28/28
f 11/29/29 12/30/30 14/31/31 13/32/32
f 39/33/33 40/34/34 41/35/35 42/36/36
f 17/37/37 18/38/38 26/39/39 25/40/40
f 18/41/41 16/42/42 24/43/43 26/44/44
f 52/45/45 51/46/46 53/47/47 54/48/48
f 48/49/49 47/50/50 49/51/51 50/52/52
f 20/53/53 19/54/54 15/55/55 16/56/56
f 44/57/57 43/58/58 45/59/59 46/60/60
f 16/61/61 15/62/62 23/63/63 24/64/64
f 17/65/65 15/66/66 19/67/67 14/68/68 12/69/69 21/70/70 10/71/71
f 18/72/72 17/73/73 27/74/74 28/75/75
f 17/76/76 10/77/77 29/78/78 27/79/79
f 10/80/80 9/81/81 30/82/82 29/83/83
f 9/84/84 18/85/85 28/86/86 30/87/87
f 13/88/88 14/89/89 32/90/90 31/91/91
f 14/92/92 19/93/93 33/94/94 32/95/95
f 19/96/96 20/97/97 34/98/98 33/99/99
f 20/100/100 13/101/101 31/102/102 34/103/103
f 22/104/104 21/105/105 35/106/106 36/107/107
f 21/108/108 12/109/109 37/110/110 35/111/111
f 12/112/112 11/113/113 38/114/114 37/115/115
f 11/116/116 22/117/117 36/118/118 38/119/119
f 17/120/120 25/121/121 23/122/122 15/123/123
f 18/124/124 9/125/125 22/126/126 11/127/127 13/128/128 20/129/129 16/130/130
f 31/131/131 32/132/132 40/133/133 39/134/134
f 32/135/135 33/136/136 41/137/137 40/138/138
f 33/139/139 34/140/140 42/141/141 41/142/142
f 34/143/143 31/144/144 39/145/145 42/146/146
f 36/147/147 35/148/148 43/149/149 44/150/150
f 35/151/151 37/152/152 45/153/153 43/154/154
f 37/155/155 38/156/156 46/157/157 45/158/158
f 38/159/159 36/160/160 44/161/161 46/162/162
f 28/163/163 27/164/164 47/165/165 48/166/166
f 27/167/167 29/168/168 49/169/169 47/170/170
f 29/171/171 30/172/172 50/173/173 49/174/174
f 30/175/175 28/176/176 48/177/177 50/178/178
f 24/179/179 23/180/180 51/181/181 52/182/182
f 23/183/183 25/184/184 53/185/185 51/186/186
f 25/187/187 26/188/188 54/189/189 53/190/190
f 26/191/191 24/192/192 52/193/193 54/194/194
