# This file uses centimeters as units for non-parametric coordinates.

v 0.000000 0.003765 0.191242
v 0.271698 0.959227 0.191242
v 0.482471 0.959227 0.191242
v 0.210773 0.003765 0.191242
v 0.210773 0.003765 0.000000
v 0.000000 0.003765 0.000000
v 0.482471 0.959227 0.000000
v 0.271698 0.959227 0.000000
vt 0.620124 0.960345
vt 0.620124 0.960345
vt 0.620124 0.960345
vt 0.620124 0.960345
vt 0.620124 0.960345
vt 0.620124 0.960345
vt 0.620124 0.960345
vt 0.620124 0.960345
vt 0.145369 0.960323
vt 0.145369 0.960323
vt 0.145369 0.960323
vt 0.145369 0.960323
vt 0.375171 0.960338
vt 0.375171 0.960338
vt 0.375171 0.960338
vt 0.375171 0.960338
vt 0.827198 0.960328
vt 0.827198 0.960328
vt 0.827198 0.960328
vt 0.827198 0.960328
vt 0.375171 0.960338
vt 0.375171 0.960338
vt 0.375171 0.960338
vt 0.375171 0.960338
vn 0.000000 0.000000 -1.000000
vn 0.000000 0.000000 -1.000000
vn 0.000000 0.000000 -1.000000
vn 0.000000 0.000000 -1.000000
vn 0.000000 0.000000 1.000000
vn 0.000000 0.000000 1.000000
vn 0.000000 0.000000 1.000000
vn 0.000000 0.000000 1.000000
vn 0.000000 -1.000000 0.000000
vn 0.000000 -1.000000 0.000000
vn 0.000000 -1.000000 0.000000
vn 0.000000 -1.000000 0.000000
vn 0.961866 -0.273519 0.000000
vn 0.961866 -0.273519 0.000000
vn 0.961866 -0.273519 0.000000
vn 0.961866 -0.273519 0.000000
vn 0.000000 1.000000 0.000000
vn 0.000000 1.000000 0.000000
vn 0.000000 1.000000 0.000000
vn 0.000000 1.000000 0.000000
vn -0.961866 0.273519 0.000000
vn -0.961866 0.273519 0.000000
vn -0.961866 0.273519 0.000000
vn -0.961866 0.273519 0.000000
s off
f 6/1/1 8/4/2 7/3/3 5/2/4
f 1/5/5 4/8/6 3/7/7 2/6/8
f 1/9/9 6/12/10 5/11/11 4/10/12
f 5/13/13 7/16/14 3/15/15 4/14/16
f 3/17/17 7/20/18 8/19/19 2/18/20
f 2/21/21 8/24/22 6/23/23 1/22/24
