# This file uses centimeters as units for non-parametric coordinates.

v 0.000000 0.377793 0.000000
v 0.000000 0.377793 0.106440
v 0.000000 0.555758 0.000000
v 0.000000 0.555758 0.106440
v 0.186201 0.555758 0.000000
v 0.186201 0.555758 0.106440
v 0.186201 0.377793 0.000000
v 0.186201 0.377793 0.106440
v -0.172882 0.555758 0.000000
v -0.172882 0.555758 0.106440
v 0.359117 0.555758 0.106440
v 0.359117 0.555758 0.000000
v -0.172882 0.377793 0.000000
v -0.172882 0.377793 0.106440
v 0.359117 0.377793 0.106440
v 0.359117 0.377793 0.000000
v 0.000000 0.728477 0.000000
v 0.000000 0.728477 0.106440
v 0.000000 0.196478 0.106440
v 0.000000 0.196478 0.000000
v 0.186201 0.196478 0.106440
v 0.186201 0.728477 0.106440
v 0.186201 0.728477 0.000000
v 0.186201 0.196478 0.000000
vt 0.865003 0.960332
vt 0.865003 0.960332
vt 0.865003 0.960332
vt 0.865003 0.960332
vt 0.865003 0.960332
vt 0.865003 0.960332
vt 0.865003 0.960332
vt 0.865003 0.960332
vt 0.865003 0.960332
vt 0.865003 0.960332
vt 0.865003 0.960332
vt 0.865003 0.960332
vt 0.126308 0.960332
vt 0.126308 0.960332
vt 0.126308 0.960332
vt 0.126308 0.960332
vt 0.620417 0.960332
vt 0.620417 0.960332
vt 0.620417 0.960332
vt 0.620417 0.960332
vt 0.620417 0.960332
vt 0.620417 0.960332
vt 0.620417 0.960332
vt 0.620417 0.960332
vt 0.369044 0.960332
vt 0.369044 0.960332
vt 0.369044 0.960332
vt 0.369044 0.960332
vt 0.620417 0.960332
vt 0.620417 0.960332
vt 0.369044 0.960332
vt 0.369044 0.960332
vt 0.369044 0.960332
vt 0.369044 0.960332
vt 0.620417 0.960332
vt 0.620417 0.960332
vt 0.126308 0.960332
vt 0.126308 0.960332
vt 0.126308 0.960332
vt 0.126308 0.960332
vt 0.620417 0.960332
vt 0.620417 0.960332
vt 0.126308 0.960332
vt 0.126308 0.960332
vt 0.126308 0.960332
vt 0.126308 0.960332
vt 0.620417 0.960332
vt 0.620417 0.960332
vt 0.620417 0.960332
vt 0.620417 0.960332
vt 0.369044 0.960332
vt 0.369044 0.960332
vt 0.369044 0.960332
vt 0.369044 0.960332
vt 0.620417 0.960332
vt 0.620417 0.960332
vt 0.369044 0.960332
vt 0.369044 0.960332
vt 0.369044 0.960332
vt 0.369044 0.960332
vt 0.620417 0.960332
vt 0.620417 0.960332
vt 0.369044 0.960332
vt 0.369044 0.960332
vt 0.369044 0.960332
vt 0.369044 0.960332
vt 0.620417 0.960332
vt 0.620417 0.960332
vt 0.369044 0.960332
vt 0.369044 0.960332
vt 0.369044 0.960332
vt 0.369044 0.960332
vn 0.000000 1.000000 0.000000
vn 0.000000 1.000000 0.000000
vn 0.000000 1.000000 0.000000
vn 0.000000 1.000000 0.000000
vn 0.000000 1.000000 0.000000
vn 0.000000 1.000000 0.000000
vn 0.000000 1.000000 0.000000
vn 0.000000 1.000000 0.000000
vn 0.000000 1.000000 0.000000
vn 0.000000 1.000000 0.000000
vn 0.000000 1.000000 0.000000
vn 0.000000 1.000000 0.000000
vn 0.000000 -1.000000 0.000000
vn 0.000000 -1.000000 0.000000
vn 0.000000 -1.000000 0.000000
vn 0.000000 -1.000000 0.000000
vn 0.000000 0.000000 1.000000
vn 0.000000 0.000000 1.000000
vn 0.000000 0.000000 1.000000
vn 0.000000 0.000000 1.000000
vn 0.000000 0.000000 -1.000000
vn 0.000000 0.000000 -1.000000
vn 0.000000 0.000000 -1.000000
vn 0.000000 0.000000 -1.000000
vn -1.000000 0.000000 0.000000
vn -1.000000 0.000000 0.000000
vn -1.000000 0.000000 0.000000
vn -1.000000 0.000000 0.000000
vn 0.000000 0.000000 1.000000
vn 0.000000 0.000000 1.000000
vn 0.000000 0.000000 1.000000
vn 0.000000 0.000000 1.000000
vn 1.000000 0.000000 -0.000000
vn 1.000000 0.000000 -0.000000
vn 1.000000 0.000000 -0.000000
vn 1.000000 0.000000 -0.000000
vn 0.000000 0.000000 -1.000000
vn 0.000000 0.000000 -1.000000
vn 0.000000 0.000000 -1.000000
vn 0.000000 0.000000 -1.000000
vn 0.000000 -1.000000 0.000000
vn 0.000000 -1.000000 0.000000
vn 0.000000 -1.000000 0.000000
vn 0.000000 -1.000000 0.000000
vn 0.000000 0.000000 1.000000
vn 0.000000 0.000000 1.000000
vn 0.000000 0.000000 1.000000
vn 0.000000 0.000000 1.000000
vn 0.000000 -1.000000 -0.000000
vn 0.000000 -1.000000 -0.000000
vn 0.000000 -1.000000 -0.000000
vn 0.000000 -1.000000 -0.000000
vn 0.000000 0.000000 -1.000000
vn 0.000000 0.000000 -1.000000
vn 0.000000 0.000000 -1.000000
vn 0.000000 0.000000 -1.000000
vn -0.000000 0.000000 -1.000000
vn -0.000000 0.000000 -1.000000
vn -0.000000 0.000000 -1.000000
vn -0.000000 0.000000 -1.000000
vn -1.000000 0.000000 0.000000
vn -1.000000 0.000000 0.000000
vn -1.000000 0.000000 0.000000
vn -1.000000 0.000000 0.000000
vn 0.000000 0.000000 1.000000
vn 0.000000 0.000000 1.000000
vn 0.000000 0.000000 1.000000
vn 0.000000 0.000000 1.000000
vn -1.000000 0.000000 0.000000
vn -1.000000 0.000000 0.000000
vn -1.000000 0.000000 0.000000
vn -1.000000 0.000000 0.000000
vn -0.000000 0.000000 1.000000
vn -0.000000 0.000000 1.000000
vn -0.000000 0.000000 1.000000
vn -0.000000 0.000000 1.000000
vn 1.000000 0.000000 0.000000
vn 1.000000 0.000000 0.000000
vn 1.000000 0.000000 0.000000
vn 1.000000 0.000000 0.000000
vn 0.000000 0.000000 -1.000000
vn 0.000000 0.000000 -1.000000
vn 0.000000 0.000000 -1.000000
vn 0.000000 0.000000 -1.000000
vn 1.000000 0.000000 0.000000
vn 1.000000 0.000000 0.000000
vn 1.000000 0.000000 0.000000
vn 1.000000 0.000000 0.000000
s off
f 9/1/1 10/2/2 4/3/3 3/4/4
f 17/5/5 18/6/6 22/7/7 23/8/8
f 5/9/9 6/10/10 11/11/11 12/12/12
f 24/13/13 21/14/14 19/15/15 20/16/16
f 18/17/17 4/18/18 6/19/19 22/20/20
f 23/21/21 5/22/22 3/23/23 17/24/24
f 13/25/25 14/26/26 10/27/27 9/28/28
f 4/18/29 2/29/30 8/30/31 6/19/32
f 12/31/33 11/32/34 15/33/35 16/34/36
f 5/22/37 7/35/38 1/36/39 3/23/40
f 1/37/41 2/38/42 14/39/43 13/40/44
f 2/29/45 19/41/46 21/42/47 8/30/48
f 16/43/49 15/44/50 8/45/51 7/46/52
f 7/35/53 24/47/54 20/48/55 1/36/56
f 3/23/57 1/36/58 13/49/59 9/50/60
f 3/51/61 4/52/62 18/53/63 17/54/64
f 14/55/65 2/29/66 4/18/67 10/56/68
f 20/57/69 19/58/70 2/59/71 1/60/72
f 6/19/73 8/30/74 15/61/75 11/62/76
f 23/63/77 22/64/78 6/65/79 5/66/80
f 16/67/81 7/35/82 5/22/83 12/68/84
f 7/69/85 8/70/86 21/71/87 24/72/88
