# This file uses centimeters as units for non-parametric coordinates.

v 0.428611 1.012755 0.191242
v -0.132477 1.012755 0.191242
v -0.000000 0.325016 0.191242
v 0.428611 0.448083 0.191242
v 0.227778 0.448084 0.191242
v 0.227778 0.325016 0.191242
v -0.132477 0.699165 0.191242
v -0.000000 0.624283 0.191242
v 0.200003 0.624283 0.191242
v 0.200003 0.839482 0.191242
v 0.087936 0.839482 0.191242
v 0.087936 0.699165 0.191242
v 0.227778 0.448084 0.000000
v -0.000000 0.624283 0.000000
v 0.200003 0.624283 -0.000000
v 0.428611 0.448083 0.000000
v -0.000000 0.325016 0.000000
v 0.227778 0.325016 0.000000
v 0.200003 0.839482 -0.000000
v 0.428611 1.012755 0.000000
v 0.087936 0.839482 0.000000
v -0.132477 1.012755 0.000000
v 0.087936 0.699165 0.000000
v -0.132477 0.699165 0.000000
v 0.000000 0.000000 0.191242
v 0.227778 0.000000 0.191242
v 0.227778 0.226657 0.191242
v 0.000000 0.226657 0.191242
v 0.227778 0.000000 0.000000
v 0.000000 0.000000 0.000000
v 0.227778 0.226657 0.000000
v 0.000000 0.226657 0.000000
vt 0.145468 0.960327
vt 0.145468 0.960327
vt 0.354094 0.960321
vt 0.354094 0.960321
vt 0.354094 0.960321
vt 0.145468 0.960327
vt 0.145468 0.960327
vt 0.354094 0.960321
vt 0.354094 0.960321
vt 0.354094 0.960321
vt 0.354094 0.960321
vt 0.354094 0.960321
vt 0.620417 0.960332
vt 0.620417 0.960332
vt 0.620417 0.960332
vt 0.620417 0.960332
vt 0.620417 0.960332
vt 0.620417 0.960332
vt 0.620417 0.960332
vt 0.620417 0.960332
vt 0.620417 0.960332
vt 0.620417 0.960332
vt 0.620417 0.960332
vt 0.620417 0.960332
vt 0.620417 0.960332
vt 0.620417 0.960332
vt 0.620417 0.960332
vt 0.620417 0.960332
vt 0.620417 0.960332
vt 0.620417 0.960332
vt 0.620417 0.960332
vt 0.620417 0.960332
vt 0.620417 0.960332
vt 0.620417 0.960332
vt 0.620417 0.960332
vt 0.620417 0.960332
vt 0.620417 0.960332
vt 0.620417 0.960332
vt 0.930710 0.960330
vt 0.930710 0.960330
vt 0.930710 0.960330
vt 0.930710 0.960330
vt 0.930710 0.960330
vt 0.930710 0.960330
vt 0.930710 0.960330
vt 0.930710 0.960330
vt 0.354094 0.960321
vt 0.354094 0.960321
vt 0.354094 0.960321
vt 0.354094 0.960321
vt 0.354094 0.960321
vt 0.354094 0.960321
vt 0.354094 0.960321
vt 0.354094 0.960321
vt 0.354094 0.960321
vt 0.354094 0.960321
vt 0.354094 0.960321
vt 0.354094 0.960321
vt 0.145468 0.960327
vt 0.145468 0.960327
vt 0.145468 0.960327
vt 0.145468 0.960327
vt 0.145468 0.960327
vt 0.145468 0.960327
vt 0.145468 0.960327
vt 0.145468 0.960327
vt 0.127913 0.960325
vt 0.127913 0.960325
vt 0.127913 0.960325
vt 0.127913 0.960325
vt 0.620417 0.960332
vt 0.620417 0.960332
vt 0.620417 0.960332
vt 0.620417 0.960332
vt 0.620417 0.960332
vt 0.620417 0.960332
vt 0.620417 0.960332
vt 0.620417 0.960332
vt 0.103743 0.960334
vt 0.103743 0.960334
vt 0.103743 0.960334
vt 0.103743 0.960334
vt 0.355111 0.960334
vt 0.355111 0.960334
vt 0.355111 0.960334
vt 0.355111 0.960334
vt 0.880623 0.960329
vt 0.880623 0.960329
vt 0.880623 0.960329
vt 0.880623 0.960329
vt 0.355111 0.960334
vt 0.355111 0.960334
vt 0.355111 0.960334
vt 0.355111 0.960334
vn -0.000000 -0.000000 -1.000000
vn -0.000000 -0.000000 -1.000000
vn -0.000000 -0.000000 -1.000000
vn -0.000000 -0.000000 -1.000000
vn 0.000000 0.000000 -1.000000
vn 0.000000 0.000000 -1.000000
vn 0.000000 0.000000 -1.000000
vn 0.000000 0.000000 -1.000000
vn 0.000000 0.000000 -1.000000
vn 0.000000 0.000000 -1.000000
vn 0.000000 0.000000 -1.000000
vn 0.000000 0.000000 -1.000000
vn -0.000000 0.000000 -1.000000
vn -0.000000 0.000000 -1.000000
vn -0.000000 0.000000 -1.000000
vn -0.000000 0.000000 -1.000000
vn 0.000000 0.000000 -1.000000
vn 0.000000 0.000000 -1.000000
vn 0.000000 0.000000 -1.000000
vn 0.000000 0.000000 -1.000000
vn -0.000000 0.000000 1.000000
vn -0.000000 0.000000 1.000000
vn -0.000000 0.000000 1.000000
vn -0.000000 0.000000 1.000000
vn 0.000000 0.000000 1.000000
vn 0.000000 0.000000 1.000000
vn 0.000000 0.000000 1.000000
vn 0.000000 0.000000 1.000000
vn 0.000000 0.000000 1.000000
vn 0.000000 0.000000 1.000000
vn 0.000000 0.000000 1.000000
vn 0.000000 0.000000 1.000000
vn 0.000000 0.000000 1.000000
vn 0.000000 0.000000 1.000000
vn 0.000000 0.000000 1.000000
vn 0.000000 0.000000 1.000000
vn 0.000000 0.000000 1.000000
vn 0.000000 0.000000 1.000000
vn 0.000000 0.000000 1.000000
vn 0.000000 0.000000 1.000000
vn 0.000000 1.000000 0.000000
vn 0.000000 1.000000 0.000000
vn 0.000000 1.000000 0.000000
vn 0.000000 1.000000 0.000000
vn -0.000002 -1.000000 0.000000
vn -0.000002 -1.000000 0.000000
vn -0.000002 -1.000000 0.000000
vn -0.000002 -1.000000 0.000000
vn -1.000000 0.000000 0.000000
vn -1.000000 0.000000 0.000000
vn -1.000000 0.000000 0.000000
vn -1.000000 0.000000 0.000000
vn 1.000000 0.000000 0.000000
vn 1.000000 0.000000 0.000000
vn 1.000000 0.000000 0.000000
vn 1.000000 0.000000 0.000000
vn -1.000000 0.000000 0.000000
vn -1.000000 0.000000 0.000000
vn -1.000000 0.000000 0.000000
vn -1.000000 0.000000 0.000000
vn 1.000000 0.000000 0.000000
vn 1.000000 0.000000 0.000000
vn 1.000000 0.000000 0.000000
vn 1.000000 0.000000 0.000000
vn 0.000000 -1.000000 0.000000
vn 0.000000 -1.000000 0.000000
vn 0.000000 -1.000000 0.000000
vn 0.000000 -1.000000 0.000000
vn 0.000000 1.000000 0.000000
vn 0.000000 1.000000 0.000000
vn 0.000000 1.000000 0.000000
vn 0.000000 1.000000 0.000000
vn 1.000000 0.000000 0.000000
vn 1.000000 0.000000 0.000000
vn 1.000000 0.000000 0.000000
vn 1.000000 0.000000 0.000000
vn 0.000000 -1.000000 0.000000
vn 0.000000 -1.000000 0.000000
vn 0.000000 -1.000000 0.000000
vn 0.000000 -1.000000 0.000000
vn -1.000000 0.000000 0.000000
vn -1.000000 0.000000 0.000000
vn -1.000000 0.000000 0.000000
vn -1.000000 0.000000 0.000000
vn 0.000000 -1.000000 0.000000
vn 0.000000 -1.000000 0.000000
vn 0.000000 -1.000000 0.000000
vn 0.000000 -1.000000 0.000000
vn 0.000000 0.000000 -1.000000
vn 0.000000 0.000000 -1.000000
vn 0.000000 0.000000 -1.000000
vn 0.000000 0.000000 -1.000000
vn 0.000000 0.000000 1.000000
vn 0.000000 0.000000 1.000000
vn 0.000000 0.000000 1.000000
vn 0.000000 0.000000 1.000000
vn 0.000000 -1.000000 0.000000
vn 0.000000 -1.000000 0.000000
vn 0.000000 -1.000000 0.000000
vn 0.000000 -1.000000 0.000000
vn 1.000000 0.000000 0.000000
vn 1.000000 0.000000 0.000000
vn 1.000000 0.000000 0.000000
vn 1.000000 0.000000 0.000000
vn 0.000000 1.000000 0.000000
vn 0.000000 1.000000 0.000000
vn 0.000000 1.000000 0.000000
vn 0.000000 1.000000 0.000000
vn -1.000000 0.000000 0.000000
vn -1.000000 0.000000 0.000000
vn -1.000000 0.000000 0.000000
vn -1.000000 0.000000 0.000000
s off
f 13/30/1 14/27/2 15/28/3 16/29/4
f 18/32/5 17/31/6 14/27/7 13/30/8
f 16/29/9 15/28/10 19/33/11 20/34/12
f 20/34/13 19/33/14 21/35/15 22/36/16
f 22/36/17 21/35/18 23/37/19 24/38/20
f 5/15/21 4/18/22 9/17/23 8/16/24
f 6/20/25 5/15/26 8/16/27 3/19/28
f 4/18/29 1/22/30 10/21/31 9/17/32
f 1/22/33 2/24/34 11/23/35 10/21/36
f 2/24/37 7/26/38 12/25/39 11/23/40
f 8/39/41 9/40/42 15/41/43 14/42/44
f 4/1/45 5/2/46 13/6/47 16/7/48
f 3/3/49 8/4/50 14/5/51 17/8/52
f 5/9/53 6/10/54 18/11/55 13/12/56
f 9/47/57 10/48/58 19/49/59 15/50/60
f 1/51/61 4/52/62 16/53/63 20/54/64
f 10/59/65 11/60/66 21/61/67 19/62/68
f 2/43/69 1/44/70 20/45/71 22/46/72
f 11/13/73 12/14/74 23/37/75 21/35/76
f 12/63/77 7/64/78 24/65/79 23/66/80
f 7/55/81 2/56/82 22/57/83 24/58/84
f 3/67/85 17/68/86 18/69/87 6/70/88
f 30/71/89 32/74/90 31/73/91 29/72/92
f 25/75/93 26/78/94 27/77/95 28/76/96
f 25/79/97 30/82/98 29/81/99 26/80/100
f 26/83/101 29/86/102 31/85/103 27/84/104
f 27/87/105 31/90/106 32/89/107 28/88/108
f 28/91/109 32/94/110 30/93/111 25/92/112
