# This file uses centimeters as units for non-parametric coordinates.

v -0.176318 0.098275 0.191242
v -0.176318 1.053737 0.191242
v 0.384770 1.053737 0.191242
v 0.384770 0.098275 0.191242
v -0.176318 0.382655 0.191242
v -0.176318 0.502676 0.191242
v 0.172794 0.502676 0.191242
v 0.172794 0.284811 0.191242
v 0.033509 0.284811 0.191242
v 0.033509 0.382655 0.191242
v 0.384770 0.774037 0.191242
v 0.384770 0.667822 0.191242
v 0.036162 0.667822 0.191242
v 0.036162 0.891735 0.191242
v 0.164356 0.891735 0.191242
v 0.164356 0.774037 0.191242
v 0.172794 0.502676 0.000000
v 0.384770 0.667822 0.000000
v 0.036162 0.667822 0.000000
v -0.176318 0.502676 0.000000
v 0.384770 0.098275 0.000000
v -0.176318 0.098275 0.000000
v 0.172794 0.284811 0.000000
v 0.033509 0.284811 0.000000
v 0.033509 0.382655 0.000000
v -0.176318 0.382655 0.000000
v 0.036162 0.891735 0.000000
v -0.176318 1.053737 0.000000
v 0.164356 0.891735 0.000000
v 0.384770 1.053737 0.000000
v 0.164356 0.774037 0.000000
v 0.384770 0.774037 0.000000
v 0.003556 1.053737 0.000000
v 0.003556 1.053737 0.191242
v 0.195261 1.053737 0.000000
v 0.195261 1.053737 0.191242
v 0.000000 0.098275 0.000000
v 0.000000 0.098275 0.191242
v 0.196428 0.098275 0.191242
v 0.196428 0.098275 0.000000
v 0.195261 1.164266 0.000000
v 0.195261 1.164266 0.191242
v 0.003556 1.164266 0.191242
v 0.003556 1.164266 0.000000
v 0.000000 0.000000 0.000000
v 0.000000 0.000000 0.191242
v 0.196428 0.000000 0.191242
v 0.196428 0.000000 0.000000
vt 0.145468 0.960327
vt 0.145468 0.960327
vt 0.354094 0.960321
vt 0.354094 0.960321
vt 0.354094 0.960321
vt 0.145468 0.960327
vt 0.145468 0.960327
vt 0.354094 0.960321
vt 0.354094 0.960321
vt 0.354094 0.960321
vt 0.145468 0.960327
vt 0.354094 0.960321
vt 0.354094 0.960321
vt 0.145468 0.960327
vt 0.620417 0.960332
vt 0.620417 0.960332
vt 0.620417 0.960332
vt 0.620417 0.960332
vt 0.620417 0.960332
vt 0.620417 0.960332
vt 0.620417 0.960332
vt 0.620417 0.960332
vt 0.620417 0.960332
vt 0.620417 0.960332
vt 0.620417 0.960332
vt 0.620417 0.960332
vt 0.620417 0.960332
vt 0.620417 0.960332
vt 0.620417 0.960332
vt 0.620417 0.960332
vt 0.620417 0.960332
vt 0.620417 0.960332
vt 0.620417 0.960332
vt 0.620417 0.960332
vt 0.620417 0.960332
vt 0.620417 0.960332
vt 0.620417 0.960332
vt 0.620417 0.960332
vt 0.620417 0.960332
vt 0.620417 0.960332
vt 0.620417 0.960332
vt 0.620417 0.960332
vt 0.620417 0.960332
vt 0.620417 0.960332
vt 0.620417 0.960332
vt 0.620417 0.960332
vt 0.620417 0.960332
vt 0.620417 0.960332
vt 0.930710 0.960330
vt 0.930710 0.960330
vt 0.930710 0.960330
vt 0.930710 0.960330
vt 0.930710 0.960330
vt 0.930710 0.960330
vt 0.930710 0.960330
vt 0.930710 0.960330
vt 0.930710 0.960330
vt 0.930710 0.960330
vt 0.930710 0.960330
vt 0.930710 0.960330
vt 0.930710 0.960330
vt 0.930710 0.960330
vt 0.930710 0.960330
vt 0.930710 0.960330
vt 0.354094 0.960321
vt 0.354094 0.960321
vt 0.354094 0.960321
vt 0.354094 0.960321
vt 0.354094 0.960321
vt 0.354094 0.960321
vt 0.354094 0.960321
vt 0.354094 0.960321
vt 0.354094 0.960321
vt 0.354094 0.960321
vt 0.354094 0.960321
vt 0.354094 0.960321
vt 0.354094 0.960321
vt 0.354094 0.960321
vt 0.354094 0.960321
vt 0.354094 0.960321
vt 0.354094 0.960321
vt 0.354094 0.960321
vt 0.354094 0.960321
vt 0.354094 0.960321
vt 0.145468 0.960327
vt 0.145468 0.960327
vt 0.145468 0.960327
vt 0.145468 0.960327
vt 0.145468 0.960327
vt 0.145468 0.960327
vt 0.145468 0.960327
vt 0.145468 0.960327
vt 0.145468 0.960327
vt 0.145468 0.960327
vt 0.930710 0.960330
vt 0.620417 0.960332
vt 0.620417 0.960332
vt 0.930710 0.960330
vt 0.930710 0.960330
vt 0.620417 0.960332
vt 0.620417 0.960332
vt 0.930710 0.960330
vt 0.145468 0.960327
vt 0.620417 0.960332
vt 0.620417 0.960332
vt 0.145468 0.960327
vt 0.620417 0.960332
vt 0.145468 0.960327
vt 0.145468 0.960327
vt 0.620417 0.960332
vt 0.930710 0.960330
vt 0.930710 0.960330
vt 0.930710 0.960330
vt 0.930710 0.960330
vt 0.145468 0.960327
vt 0.145468 0.960327
vt 0.145468 0.960327
vt 0.145468 0.960327
vt 0.606480 0.960334
vt 0.606480 0.960334
vt 0.606480 0.960334
vt 0.606480 0.960334
vt 0.606480 0.960334
vt 0.606480 0.960334
vt 0.606480 0.960334
vt 0.606480 0.960334
vt 0.606480 0.960334
vt 0.606480 0.960334
vt 0.606480 0.960334
vt 0.606480 0.960334
vt 0.606480 0.960334
vt 0.606480 0.960334
vt 0.606480 0.960334
vt 0.606480 0.960334
vt 0.359945 0.960339
vt 0.359945 0.960339
vt 0.359945 0.960339
vt 0.359945 0.960339
vt 0.359945 0.960339
vt 0.359945 0.960339
vt 0.359945 0.960339
vt 0.359945 0.960339
vt 0.359945 0.960339
vt 0.359945 0.960339
vt 0.359945 0.960339
vt 0.359945 0.960339
vt 0.359945 0.960339
vt 0.359945 0.960339
vt 0.359945 0.960339
vt 0.359945 0.960339
vn 0.000000 0.000000 -1.000000
vn 0.000000 0.000000 -1.000000
vn 0.000000 0.000000 -1.000000
vn 0.000000 0.000000 -1.000000
vn 0.000000 0.000000 -1.000000
vn 0.000000 0.000000 -1.000000
vn 0.000000 0.000000 -1.000000
vn 0.000000 0.000000 -1.000000
vn 0.000000 0.000000 -1.000000
vn 0.000000 0.000000 -1.000000
vn 0.000000 0.000000 -1.000000
vn 0.000000 0.000000 -1.000000
vn 0.000000 0.000000 -1.000000
vn 0.000000 0.000000 -1.000000
vn 0.000000 0.000000 -1.000000
vn 0.000000 0.000000 -1.000000
vn 0.000000 0.000000 -1.000000
vn 0.000000 0.000000 -1.000000
vn 0.000000 0.000000 -1.000000
vn 0.000000 0.000000 -1.000000
vn 0.000000 0.000000 -1.000000
vn 0.000000 0.000000 -1.000000
vn 0.000000 0.000000 -1.000000
vn 0.000000 0.000000 -1.000000
vn 0.000000 0.000000 -1.000000
vn 0.000000 0.000000 -1.000000
vn 0.000000 0.000000 -1.000000
vn 0.000000 0.000000 -1.000000
vn 0.000000 0.000000 -1.000000
vn 0.000000 0.000000 -1.000000
vn 0.000000 0.000000 -1.000000
vn 0.000000 0.000000 -1.000000
vn 0.000000 0.000000 1.000000
vn 0.000000 0.000000 1.000000
vn 0.000000 0.000000 1.000000
vn 0.000000 0.000000 1.000000
vn 0.000000 0.000000 1.000000
vn 0.000000 0.000000 1.000000
vn 0.000000 0.000000 1.000000
vn 0.000000 0.000000 1.000000
vn 0.000000 0.000000 1.000000
vn 0.000000 0.000000 1.000000
vn -0.000000 0.000000 1.000000
vn -0.000000 0.000000 1.000000
vn -0.000000 0.000000 1.000000
vn -0.000000 0.000000 1.000000
vn 0.000000 0.000000 1.000000
vn 0.000000 0.000000 1.000000
vn 0.000000 0.000000 1.000000
vn 0.000000 0.000000 1.000000
vn 0.000000 0.000000 1.000000
vn 0.000000 0.000000 1.000000
vn 0.000000 0.000000 1.000000
vn 0.000000 0.000000 1.000000
vn 0.000000 0.000000 1.000000
vn 0.000000 0.000000 1.000000
vn 0.000000 0.000000 1.000000
vn 0.000000 0.000000 1.000000
vn 0.000000 0.000000 1.000000
vn 0.000000 0.000000 1.000000
vn 0.000000 0.000000 1.000000
vn 0.000000 0.000000 1.000000
vn 0.000000 0.000000 1.000000
vn 0.000000 0.000000 1.000000
vn 0.000000 1.000000 0.000000
vn 0.000000 1.000000 0.000000
vn 0.000000 1.000000 0.000000
vn 0.000000 1.000000 0.000000
vn 0.000000 -1.000000 0.000000
vn 0.000000 -1.000000 0.000000
vn 0.000000 -1.000000 0.000000
vn 0.000000 -1.000000 0.000000
vn 0.000000 -1.000000 0.000000
vn 0.000000 -1.000000 0.000000
vn 0.000000 -1.000000 0.000000
vn 0.000000 -1.000000 0.000000
vn 0.000000 1.000000 0.000000
vn 0.000000 1.000000 0.000000
vn 0.000000 1.000000 0.000000
vn 0.000000 1.000000 0.000000
vn 1.000000 0.000000 0.000000
vn 1.000000 0.000000 0.000000
vn 1.000000 0.000000 0.000000
vn 1.000000 0.000000 0.000000
vn -1.000000 0.000000 0.000000
vn -1.000000 0.000000 0.000000
vn -1.000000 0.000000 0.000000
vn -1.000000 0.000000 0.000000
vn 1.000000 0.000000 0.000000
vn 1.000000 0.000000 0.000000
vn 1.000000 0.000000 0.000000
vn 1.000000 0.000000 0.000000
vn 0.000000 1.000000 0.000000
vn 0.000000 1.000000 0.000000
vn 0.000000 1.000000 0.000000
vn 0.000000 1.000000 0.000000
vn -1.000000 0.000000 0.000000
vn -1.000000 0.000000 0.000000
vn -1.000000 0.000000 0.000000
vn -1.000000 0.000000 0.000000
vn 1.000000 0.000000 0.000000
vn 1.000000 0.000000 0.000000
vn 1.000000 0.000000 0.000000
vn 1.000000 0.000000 0.000000
vn -1.000000 0.000000 0.000000
vn -1.000000 0.000000 0.000000
vn -1.000000 0.000000 0.000000
vn -1.000000 0.000000 0.000000
vn 0.000000 -1.000000 0.000000
vn 0.000000 -1.000000 0.000000
vn 0.000000 -1.000000 0.000000
vn 0.000000 -1.000000 0.000000
vn 0.000000 1.000000 0.000000
vn 0.000000 1.000000 0.000000
vn 0.000000 1.000000 0.000000
vn 0.000000 1.000000 0.000000
vn -1.000000 0.000000 0.000000
vn -1.000000 0.000000 0.000000
vn -1.000000 0.000000 0.000000
vn -1.000000 0.000000 0.000000
vn 0.000000 -1.000000 0.000000
vn 0.000000 -1.000000 0.000000
vn 0.000000 -1.000000 0.000000
vn 0.000000 -1.000000 0.000000
vn 1.000000 0.000000 0.000000
vn 1.000000 0.000000 0.000000
vn 1.000000 0.000000 0.000000
vn 1.000000 0.000000 0.000000
vn 0.000000 1.000000 0.000000
vn 0.000000 1.000000 0.000000
vn 0.000000 1.000000 0.000000
vn 0.000000 1.000000 0.000000
vn 0.000000 1.000000 0.000000
vn 0.000000 1.000000 0.000000
vn 0.000000 1.000000 0.000000
vn 0.000000 1.000000 0.000000
vn 0.000000 -1.000000 0.000000
vn 0.000000 -1.000000 0.000000
vn 0.000000 -1.000000 0.000000
vn 0.000000 -1.000000 0.000000
vn 0.000000 -1.000000 0.000000
vn 0.000000 -1.000000 0.000000
vn 0.000000 -1.000000 0.000000
vn 0.000000 -1.000000 0.000000
vn 1.000000 0.000000 0.000000
vn 1.000000 0.000000 0.000000
vn 1.000000 0.000000 0.000000
vn 1.000000 0.000000 0.000000
vn 0.000000 0.000000 1.000000
vn 0.000000 0.000000 1.000000
vn 0.000000 0.000000 1.000000
vn 0.000000 0.000000 1.000000
vn -1.000000 0.000000 0.000000
vn -1.000000 0.000000 0.000000
vn -1.000000 0.000000 0.000000
vn -1.000000 0.000000 0.000000
vn 0.000000 0.000000 -1.000000
vn 0.000000 0.000000 -1.000000
vn 0.000000 0.000000 -1.000000
vn 0.000000 0.000000 -1.000000
vn -1.000000 0.000000 0.000000
vn -1.000000 0.000000 0.000000
vn -1.000000 0.000000 0.000000
vn -1.000000 0.000000 0.000000
vn 0.000000 0.000000 1.000000
vn 0.000000 0.000000 1.000000
vn 0.000000 0.000000 1.000000
vn 0.000000 0.000000 1.000000
vn 1.000000 0.000000 0.000000
vn 1.000000 0.000000 0.000000
vn 1.000000 0.000000 0.000000
vn 1.000000 0.000000 0.000000
vn 0.000000 0.000000 -1.000000
vn 0.000000 0.000000 -1.000000
vn 0.000000 0.000000 -1.000000
vn 0.000000 0.000000 -1.000000
s off
f 17/36/1 20/35/2 19/34/3 18/33/4
f 22/37/5 24/40/6 23/39/7 21/38/8 40/110/9 37/104/10
f 23/39/11 17/36/12 18/33/13 21/38/14
f 22/37/15 26/42/16 25/41/17 24/40/18
f 20/35/19 28/44/20 27/43/21 19/34/22
f 28/44/23 33/96/24 35/100/25 30/46/26 29/45/27 27/43/28
f 30/46/29 32/48/30 31/47/31 29/45/32
f 7/17/33 12/18/34 13/19/35 6/20/36
f 1/21/37 38/105/38 39/107/39 4/22/40 8/23/41 9/24/42
f 8/23/43 4/22/44 12/18/45 7/17/46
f 1/21/47 9/24/48 10/25/49 5/26/50
f 6/20/51 13/19/52 14/27/53 2/28/54
f 2/28/55 14/27/56 15/29/57 3/30/58 36/101/59 34/97/60
f 3/30/61 15/29/62 16/31/63 11/32/64
f 12/49/65 18/52/66 19/51/67 13/50/68
f 6/1/69 20/7/70 17/6/71 7/2/72
f 45/115/73 48/118/74 47/117/75 46/116/76
f 8/53/77 23/56/78 24/55/79 9/54/80
f 4/3/81 21/8/82 18/5/83 12/4/84
f 7/9/85 17/13/86 23/12/87 8/10/88
f 9/65/89 24/68/90 25/67/91 10/66/92
f 10/57/93 25/60/94 26/59/95 5/58/96
f 5/69/97 26/72/98 22/71/99 1/70/100
f 13/73/101 19/76/102 27/75/103 14/74/104
f 2/77/105 28/80/106 20/79/107 6/78/108
f 14/87/109 27/90/110 29/89/111 15/88/112
f 33/95/113 28/63/114 2/62/115 34/98/116
f 15/15/117 29/45/118 31/47/119 16/16/120
f 16/91/121 31/94/122 32/93/123 11/92/124
f 11/81/125 32/84/126 30/83/127 3/82/128
f 41/111/129 44/114/130 43/113/131 42/112/132
f 3/61/133 30/64/134 35/99/135 36/102/136
f 1/11/137 22/86/138 37/103/139 38/106/140
f 40/109/141 21/85/142 4/14/143 39/108/144
f 35/135/145 41/138/146 42/137/147 36/136/148
f 36/119/149 42/122/150 43/121/151 34/120/152
f 34/139/153 43/142/154 44/141/155 33/140/156
f 33/123/157 44/126/158 41/125/159 35/124/160
f 37/143/161 45/146/162 46/145/163 38/144/164
f 38/127/165 46/130/166 47/129/167 39/128/168
f 39/147/169 47/150/170 48/149/171 40/148/172
f 40/131/173 48/134/174 45/133/175 37/132/176
