# This file uses centimeters as units for non-parametric coordinates.

v -0.375521 -0.676543 -0.100038
v -0.375521 -0.676543 0.100038
v -0.375521 0.323457 -0.100038
v -0.375521 0.323457 0.100038
v 0.163914 0.323457 -0.100038
v 0.163914 0.323457 0.100038
v 0.163914 -0.676543 -0.100038
v 0.163914 -0.676543 0.100038
v 0.084710 -0.445852 0.100038
v -0.101915 -0.445852 0.100038
v 0.084710 0.092767 0.100038
v -0.101915 0.092767 0.100038
v 0.084710 -0.445852 -0.100038
v -0.101915 -0.445852 -0.100038
v -0.101915 0.092767 -0.100038
v 0.084710 0.092767 -0.100038
v -0.206716 0.390467 -0.100038
v -0.206716 0.390467 0.100038
v -0.206716 0.542138 -0.100038
v -0.206716 0.542138 0.100038
v -0.004891 0.542138 -0.100038
v -0.004891 0.542138 0.100038
v -0.004891 0.390467 -0.100038
v -0.004891 0.390467 0.100038
v 0.034636 0.429293 -0.100038
v 0.034636 0.429293 0.100038
v 0.034636 0.506388 -0.100038
v 0.034636 0.506388 0.100038
v 0.375521 0.676543 -0.100038
v 0.375521 0.676543 0.100038
v 0.375521 0.265503 -0.100038
v 0.375521 0.265503 0.100038
vt 0.369044 0.953551
vt 0.369044 0.953551
vt 0.369044 0.953551
vt 0.369044 0.953551
vt 0.865003 0.953551
vt 0.865003 0.953551
vt 0.865003 0.953551
vt 0.865003 0.953551
vt 0.369044 0.953551
vt 0.369044 0.953551
vt 0.369044 0.953551
vt 0.369044 0.953551
vt 0.126308 0.953551
vt 0.126308 0.953551
vt 0.126308 0.953551
vt 0.126308 0.953551
vt 0.620417 0.953551
vt 0.620417 0.953551
vt 0.620417 0.953551
vt 0.620417 0.953551
vt 0.620417 0.953551
vt 0.620417 0.953551
vt 0.620417 0.953551
vt 0.620417 0.953551
vt 0.620417 0.953551
vt 0.620417 0.953551
vt 0.620417 0.953551
vt 0.620417 0.953551
vt 0.620417 0.953551
vt 0.620417 0.953551
vt 0.620417 0.953551
vt 0.620417 0.953551
vt 0.865003 0.953551
vt 0.865003 0.953551
vt 0.865003 0.953551
vt 0.865003 0.953551
vt 0.369044 0.953551
vt 0.369044 0.953551
vt 0.369044 0.953551
vt 0.369044 0.953551
vt 0.126308 0.953551
vt 0.126308 0.953551
vt 0.126308 0.953551
vt 0.126308 0.953551
vt 0.369044 0.953551
vt 0.369044 0.953551
vt 0.369044 0.953551
vt 0.369044 0.953551
vt 0.369044 0.953551
vt 0.369044 0.953551
vt 0.369044 0.953551
vt 0.369044 0.953551
vt 0.865003 0.953551
vt 0.865003 0.953551
vt 0.865003 0.953551
vt 0.865003 0.953551
vt 0.369044 0.953551
vt 0.369044 0.953551
vt 0.369044 0.953551
vt 0.369044 0.953551
vt 0.126308 0.953551
vt 0.126308 0.953551
vt 0.126308 0.953551
vt 0.126308 0.953551
vt 0.620417 0.953551
vt 0.620417 0.953551
vt 0.620417 0.953551
vt 0.620417 0.953551
vt 0.620417 0.953551
vt 0.620417 0.953551
vt 0.620417 0.953551
vt 0.620417 0.953551
vt 0.369044 0.953551
vt 0.369044 0.953551
vt 0.369044 0.953551
vt 0.369044 0.953551
vt 0.865003 0.953551
vt 0.865003 0.953551
vt 0.865003 0.953551
vt 0.865003 0.953551
vt 0.369044 0.953551
vt 0.369044 0.953551
vt 0.369044 0.953551
vt 0.369044 0.953551
vt 0.126308 0.953551
vt 0.126308 0.953551
vt 0.126308 0.953551
vt 0.126308 0.953551
vt 0.620417 0.953551
vt 0.620417 0.953551
vt 0.620417 0.953551
vt 0.620417 0.953551
vt 0.620417 0.953551
vt 0.620417 0.953551
vt 0.620417 0.953551
vt 0.620417 0.953551
vt 0.620417 0.953551
vt 0.620417 0.953551
vt 0.620417 0.953551
vt 0.620417 0.953551
vt 0.620417 0.953551
vt 0.620417 0.953551
vt 0.620417 0.953551
vt 0.620417 0.953551
vt 0.620417 0.953551
vt 0.620417 0.953551
vt 0.620417 0.953551
vt 0.620417 0.953551
vt 0.620417 0.953551
vt 0.620417 0.953551
vt 0.620417 0.953551
vt 0.620417 0.953551
vn -1.000000 0.000000 0.000000
vn -1.000000 0.000000 0.000000
vn -1.000000 0.000000 0.000000
vn -1.000000 0.000000 0.000000
vn 0.000000 1.000000 0.000000
vn 0.000000 1.000000 0.000000
vn 0.000000 1.000000 0.000000
vn 0.000000 1.000000 0.000000
vn 1.000000 0.000000 0.000000
vn 1.000000 0.000000 0.000000
vn 1.000000 0.000000 0.000000
vn 1.000000 0.000000 0.000000
vn 0.000000 -1.000000 0.000000
vn 0.000000 -1.000000 0.000000
vn 0.000000 -1.000000 0.000000
vn 0.000000 -1.000000 0.000000
vn 0.000000 -0.000000 1.000000
vn 0.000000 -0.000000 1.000000
vn 0.000000 -0.000000 1.000000
vn 0.000000 -0.000000 1.000000
vn 0.000000 0.000000 1.000000
vn 0.000000 0.000000 1.000000
vn 0.000000 0.000000 1.000000
vn 0.000000 0.000000 1.000000
vn 0.000000 0.000000 1.000000
vn 0.000000 0.000000 1.000000
vn 0.000000 0.000000 1.000000
vn 0.000000 0.000000 1.000000
vn -0.000000 0.000000 1.000000
vn -0.000000 0.000000 1.000000
vn -0.000000 0.000000 1.000000
vn -0.000000 0.000000 1.000000
vn 0.000000 0.000000 -1.000000
vn 0.000000 0.000000 -1.000000
vn 0.000000 0.000000 -1.000000
vn 0.000000 0.000000 -1.000000
vn 0.000000 0.000000 -1.000000
vn 0.000000 0.000000 -1.000000
vn 0.000000 0.000000 -1.000000
vn 0.000000 0.000000 -1.000000
vn 0.000000 -0.000000 -1.000000
vn 0.000000 -0.000000 -1.000000
vn 0.000000 -0.000000 -1.000000
vn 0.000000 -0.000000 -1.000000
vn 0.000000 0.000000 -1.000000
vn 0.000000 0.000000 -1.000000
vn 0.000000 0.000000 -1.000000
vn 0.000000 0.000000 -1.000000
vn 0.000000 1.000000 0.000000
vn 0.000000 1.000000 0.000000
vn 0.000000 1.000000 0.000000
vn 0.000000 1.000000 0.000000
vn -1.000000 0.000000 0.000000
vn -1.000000 0.000000 0.000000
vn -1.000000 0.000000 0.000000
vn -1.000000 0.000000 0.000000
vn 0.000000 -1.000000 0.000000
vn 0.000000 -1.000000 0.000000
vn 0.000000 -1.000000 0.000000
vn 0.000000 -1.000000 0.000000
vn 1.000000 0.000000 0.000000
vn 1.000000 0.000000 0.000000
vn 1.000000 0.000000 0.000000
vn 1.000000 0.000000 0.000000
vn -1.000000 0.000000 -0.000000
vn -1.000000 0.000000 -0.000000
vn -1.000000 0.000000 -0.000000
vn -1.000000 0.000000 -0.000000
vn 0.000000 1.000000 0.000000
vn 0.000000 1.000000 0.000000
vn 0.000000 1.000000 0.000000
vn 0.000000 1.000000 0.000000
vn 1.000000 0.000000 0.000000
vn 1.000000 0.000000 0.000000
vn 1.000000 0.000000 0.000000
vn 1.000000 0.000000 0.000000
vn 0.000000 -1.000000 -0.000000
vn 0.000000 -1.000000 -0.000000
vn 0.000000 -1.000000 -0.000000
vn 0.000000 -1.000000 -0.000000
vn 0.000000 0.000000 1.000000
vn 0.000000 0.000000 1.000000
vn 0.000000 0.000000 1.000000
vn 0.000000 0.000000 1.000000
vn -0.000000 0.000000 -1.000000
vn -0.000000 0.000000 -1.000000
vn -0.000000 0.000000 -1.000000
vn -0.000000 0.000000 -1.000000
vn -1.000000 0.000000 0.000000
vn -1.000000 0.000000 0.000000
vn -1.000000 0.000000 0.000000
vn -1.000000 0.000000 0.000000
vn -0.446610 0.894729 0.000000
vn -0.446610 0.894729 0.000000
vn -0.446610 0.894729 0.000000
vn -0.446610 0.894729 0.000000
vn 1.000000 0.000000 0.000000
vn 1.000000 0.000000 0.000000
vn 1.000000 0.000000 0.000000
vn 1.000000 0.000000 0.000000
vn -0.433088 -0.901352 0.000000
vn -0.433088 -0.901352 0.000000
vn -0.433088 -0.901352 0.000000
vn -0.433088 -0.901352 0.000000
vn 0.000000 0.000000 1.000000
vn 0.000000 0.000000 1.000000
vn 0.000000 0.000000 1.000000
vn 0.000000 0.000000 1.000000
vn 0.000000 0.000000 -1.000000
vn 0.000000 0.000000 -1.000000
vn 0.000000 0.000000 -1.000000
vn 0.000000 0.000000 -1.000000
s off
f 1/1/1 2/2/2 4/3/3 3/4/4
f 3/5/5 4/6/6 6/7/7 5/8/8
f 5/9/9 6/10/10 8/11/11 7/12/12
f 7/13/13 8/14/14 2/15/15 1/16/16
f 2/17/17 8/112/18 9/104/19 10/20/20
f 8/18/21 6/110/22 11/98/23 9/19/24
f 6/21/25 4/109/26 12/100/27 11/22/28
f 4/23/29 2/111/30 10/102/31 12/24/32
f 7/25/33 1/107/34 14/101/35 13/28/36
f 1/26/37 3/106/38 15/99/39 14/27/40
f 3/29/41 5/105/42 16/97/43 15/30/44
f 5/31/45 7/108/46 13/103/47 16/32/48
f 10/33/49 9/34/50 13/35/51 14/36/52
f 9/37/53 11/38/54 16/39/55 13/40/56
f 11/41/57 12/42/58 15/43/59 16/44/60
f 12/45/61 10/46/62 14/47/63 15/48/64
f 17/49/65 18/50/66 20/51/67 19/52/68
f 19/53/69 20/54/70 22/55/71 21/56/72
f 21/57/73 22/58/74 24/59/75 23/60/76
f 23/61/77 24/62/78 18/63/79 17/64/80
f 18/65/81 24/66/82 22/67/83 20/68/84
f 23/69/85 17/70/86 19/71/87 21/72/88
f 25/73/89 26/74/90 28/75/91 27/76/92
f 27/77/93 28/78/94 30/79/95 29/80/96
f 29/81/97 30/82/98 32/83/99 31/84/100
f 31/85/101 32/86/102 26/87/103 25/88/104
f 26/89/105 32/90/106 30/91/107 28/92/108
f 31/93/109 25/94/110 27/95/111 29/96/112
