# This file uses centimeters as units for non-parametric coordinates.

v -0.263336 -0.542057 -0.100038
v -0.263336 -0.542057 0.100038
v -0.263336 0.542058 -0.100038
v -0.263336 0.542058 0.100038
v 0.263336 0.542058 -0.100038
v 0.263336 0.542058 0.100038
v 0.263336 -0.542057 -0.100038
v 0.263336 -0.542057 0.100038
v -0.263336 0.004210 -0.100038
v -0.263336 0.004210 0.100038
v 0.263336 0.004210 0.100038
v 0.263336 0.004210 -0.100038
v -0.088642 -0.198768 -0.100038
v -0.088642 -0.198768 0.100038
v 0.088642 -0.198767 0.100038
v 0.088642 -0.198767 -0.100038
v -0.088642 -0.365485 -0.100038
v -0.088642 -0.365485 0.100038
v 0.088642 -0.365485 0.100038
v 0.088642 -0.365485 -0.100038
v -0.263336 -0.407028 -0.100038
v -0.263336 -0.407028 0.100038
v 0.263336 -0.407028 0.100038
v 0.263336 -0.407028 -0.100038
v -0.378815 -0.107591 -0.053746
v -0.378815 -0.107591 0.053746
v -0.378815 0.411542 -0.053746
v -0.378815 0.411542 0.053746
v 0.378815 0.411542 -0.053746
v 0.378815 0.411542 0.053746
v 0.378815 -0.107591 -0.053746
v 0.378815 -0.107591 0.053746
v 0.328381 -0.057871 0.053746
v -0.328381 -0.057871 0.053746
v 0.328381 0.361823 0.053746
v -0.328381 0.361823 0.053746
v 0.328381 -0.057871 -0.053746
v -0.328381 -0.057871 -0.053746
v -0.328381 0.361823 -0.053746
v 0.328381 0.361823 -0.053746
v 0.000000 -0.224646 0.053746
v 0.000000 -0.174926 0.053746
v 0.000000 -0.174926 -0.053746
v 0.000000 -0.224646 -0.053746
vt 0.369044 0.953551
vt 0.369044 0.953551
vt 0.369044 0.953551
vt 0.369044 0.953551
vt 0.865003 0.953551
vt 0.865003 0.953551
vt 0.865003 0.953551
vt 0.865003 0.953551
vt 0.369044 0.953551
vt 0.369044 0.953551
vt 0.369044 0.953551
vt 0.369044 0.953551
vt 0.126308 0.953551
vt 0.126308 0.953551
vt 0.126308 0.953551
vt 0.126308 0.953551
vt 0.620417 0.953551
vt 0.620417 0.953551
vt 0.620417 0.953551
vt 0.620417 0.953551
vt 0.620417 0.953551
vt 0.620417 0.953551
vt 0.620417 0.953551
vt 0.620417 0.953551
vt 0.369044 0.953551
vt 0.369044 0.953551
vt 0.620417 0.953551
vt 0.620417 0.953551
vt 0.369044 0.953551
vt 0.369044 0.953551
vt 0.620417 0.953551
vt 0.620417 0.953551
vt 0.369044 0.953551
vt 0.369044 0.953551
vt 0.620417 0.953551
vt 0.620417 0.953551
vt 0.369044 0.953551
vt 0.369044 0.953551
vt 0.620417 0.953551
vt 0.620417 0.953551
vt 0.369044 0.953551
vt 0.369044 0.953551
vt 0.620417 0.953551
vt 0.620417 0.953551
vt 0.369044 0.953551
vt 0.369044 0.953551
vt 0.620417 0.953551
vt 0.620417 0.953551
vt 0.369044 0.953551
vt 0.369044 0.953551
vt 0.620417 0.953551
vt 0.620417 0.953551
vt 0.369044 0.953551
vt 0.369044 0.953551
vt 0.620417 0.953551
vt 0.620417 0.953551
vt 0.369044 0.953551
vt 0.369044 0.953551
vt 0.369044 0.953551
vt 0.369044 0.953551
vt 0.865003 0.953551
vt 0.865003 0.953551
vt 0.865003 0.953551
vt 0.865003 0.953551
vt 0.369044 0.953551
vt 0.369044 0.953551
vt 0.369044 0.953551
vt 0.369044 0.953551
vt 0.126308 0.953551
vt 0.126308 0.953551
vt 0.126308 0.953551
vt 0.126308 0.953551
vt 0.620417 0.953551
vt 0.620417 0.953551
vt 0.620417 0.953551
vt 0.620417 0.953551
vt 0.620417 0.953551
vt 0.620417 0.953551
vt 0.620417 0.953551
vt 0.620417 0.953551
vt 0.620417 0.953551
vt 0.620417 0.953551
vt 0.620417 0.953551
vt 0.620417 0.953551
vt 0.620417 0.953551
vt 0.620417 0.953551
vt 0.620417 0.953551
vt 0.620417 0.953551
vt 0.620417 0.953551
vt 0.620417 0.953551
vt 0.620417 0.953551
vt 0.620417 0.953551
vt 0.369044 0.953551
vt 0.369044 0.953551
vt 0.369044 0.953551
vt 0.369044 0.953551
vt 0.126308 0.953551
vt 0.126308 0.953551
vt 0.126308 0.953551
vt 0.126308 0.953551
vt 0.126308 0.953551
vt 0.126308 0.953551
vt 0.126308 0.953551
vt 0.126308 0.953551
vt 0.126308 0.953551
vt 0.126308 0.953551
vt 0.126308 0.953551
vt 0.126308 0.953551
vt 0.369044 0.953551
vt 0.369044 0.953551
vt 0.126308 0.953551
vt 0.126308 0.953551
vn -1.000000 0.000000 0.000000
vn -1.000000 0.000000 0.000000
vn -1.000000 0.000000 0.000000
vn -1.000000 0.000000 0.000000
vn 0.000000 1.000000 0.000000
vn 0.000000 1.000000 0.000000
vn 0.000000 1.000000 0.000000
vn 0.000000 1.000000 0.000000
vn 1.000000 0.000000 0.000000
vn 1.000000 0.000000 0.000000
vn 1.000000 0.000000 0.000000
vn 1.000000 0.000000 0.000000
vn 0.000000 -1.000000 0.000000
vn 0.000000 -1.000000 0.000000
vn 0.000000 -1.000000 0.000000
vn 0.000000 -1.000000 0.000000
vn 0.000000 0.000000 1.000000
vn 0.000000 0.000000 1.000000
vn 0.000000 0.000000 1.000000
vn 0.000000 0.000000 1.000000
vn 0.000000 0.000000 -1.000000
vn 0.000000 0.000000 -1.000000
vn 0.000000 0.000000 -1.000000
vn 0.000000 0.000000 -1.000000
vn -0.757939 -0.652325 0.000000
vn -0.757939 -0.652325 0.000000
vn -0.757939 -0.652325 0.000000
vn -0.757939 -0.652325 0.000000
vn 0.000000 -0.000000 1.000000
vn 0.000000 -0.000000 1.000000
vn 0.000000 -0.000000 1.000000
vn 0.000000 -0.000000 1.000000
vn 0.757939 -0.652325 0.000000
vn 0.757939 -0.652325 0.000000
vn 0.757939 -0.652325 0.000000
vn 0.757939 -0.652325 0.000000
vn 0.000000 0.000000 -1.000000
vn 0.000000 0.000000 -1.000000
vn 0.000000 0.000000 -1.000000
vn 0.000000 0.000000 -1.000000
vn -1.000000 0.000000 0.000000
vn -1.000000 0.000000 0.000000
vn -1.000000 0.000000 0.000000
vn -1.000000 0.000000 0.000000
vn 0.000000 0.000000 1.000000
vn 0.000000 0.000000 1.000000
vn 0.000000 0.000000 1.000000
vn 0.000000 0.000000 1.000000
vn 1.000000 0.000000 0.000000
vn 1.000000 0.000000 0.000000
vn 1.000000 0.000000 0.000000
vn 1.000000 0.000000 0.000000
vn 0.000000 0.000000 -1.000000
vn 0.000000 0.000000 -1.000000
vn 0.000000 0.000000 -1.000000
vn 0.000000 0.000000 -1.000000
vn -0.231355 0.972870 0.000000
vn -0.231355 0.972870 0.000000
vn -0.231355 0.972870 0.000000
vn -0.231355 0.972870 0.000000
vn 0.000000 0.000000 1.000000
vn 0.000000 0.000000 1.000000
vn 0.000000 0.000000 1.000000
vn 0.000000 0.000000 1.000000
vn 0.231355 0.972870 0.000000
vn 0.231355 0.972870 0.000000
vn 0.231355 0.972870 0.000000
vn 0.231355 0.972870 0.000000
vn 0.000000 0.000000 -1.000000
vn 0.000000 0.000000 -1.000000
vn 0.000000 0.000000 -1.000000
vn 0.000000 0.000000 -1.000000
vn -1.000000 0.000000 0.000000
vn -1.000000 0.000000 0.000000
vn -1.000000 0.000000 0.000000
vn -1.000000 0.000000 0.000000
vn 0.000000 0.000000 1.000000
vn 0.000000 0.000000 1.000000
vn 0.000000 0.000000 1.000000
vn 0.000000 0.000000 1.000000
vn 1.000000 0.000000 0.000000
vn 1.000000 0.000000 0.000000
vn 1.000000 0.000000 0.000000
vn 1.000000 0.000000 0.000000
vn 0.000000 0.000000 -1.000000
vn 0.000000 0.000000 -1.000000
vn 0.000000 0.000000 -1.000000
vn 0.000000 0.000000 -1.000000
vn -1.000000 0.000000 0.000000
vn -1.000000 0.000000 0.000000
vn -1.000000 0.000000 0.000000
vn -1.000000 0.000000 0.000000
vn 0.000000 1.000000 0.000000
vn 0.000000 1.000000 0.000000
vn 0.000000 1.000000 0.000000
vn 0.000000 1.000000 0.000000
vn 1.000000 0.000000 0.000000
vn 1.000000 0.000000 0.000000
vn 1.000000 0.000000 0.000000
vn 1.000000 0.000000 0.000000
vn -0.295230 -0.955426 0.000000
vn -0.295230 -0.955426 0.000000
vn -0.295230 -0.955426 0.000000
vn -0.295230 -0.955426 0.000000
vn 0.000000 -0.000000 1.000000
vn 0.000000 -0.000000 1.000000
vn 0.000000 -0.000000 1.000000
vn 0.000000 -0.000000 1.000000
vn -0.000000 0.000000 1.000000
vn -0.000000 0.000000 1.000000
vn -0.000000 0.000000 1.000000
vn -0.000000 0.000000 1.000000
vn 0.000000 0.000000 1.000000
vn 0.000000 0.000000 1.000000
vn 0.000000 0.000000 1.000000
vn 0.000000 0.000000 1.000000
vn 0.000000 0.000000 1.000000
vn 0.000000 0.000000 1.000000
vn 0.000000 0.000000 1.000000
vn 0.000000 0.000000 1.000000
vn -0.000000 0.000000 -1.000000
vn -0.000000 0.000000 -1.000000
vn -0.000000 0.000000 -1.000000
vn -0.000000 0.000000 -1.000000
vn 0.000000 0.000000 -1.000000
vn 0.000000 0.000000 -1.000000
vn 0.000000 0.000000 -1.000000
vn 0.000000 0.000000 -1.000000
vn -0.000000 0.000000 -1.000000
vn -0.000000 0.000000 -1.000000
vn -0.000000 0.000000 -1.000000
vn -0.000000 0.000000 -1.000000
vn 0.000000 0.000000 -1.000000
vn 0.000000 0.000000 -1.000000
vn 0.000000 0.000000 -1.000000
vn 0.000000 0.000000 -1.000000
vn 0.335767 0.941945 0.000000
vn 0.335767 0.941945 0.000000
vn 0.335767 0.941945 0.000000
vn 0.335767 0.941945 0.000000
vn -1.000000 0.000000 0.000000
vn -1.000000 0.000000 0.000000
vn -1.000000 0.000000 0.000000
vn -1.000000 0.000000 0.000000
vn 0.000000 -1.000000 0.000000
vn 0.000000 -1.000000 0.000000
vn 0.000000 -1.000000 0.000000
vn 0.000000 -1.000000 0.000000
vn 1.000000 0.000000 0.000000
vn 1.000000 0.000000 0.000000
vn 1.000000 0.000000 0.000000
vn 1.000000 0.000000 0.000000
vn -0.000000 -0.000000 1.000000
vn -0.000000 -0.000000 1.000000
vn -0.000000 -0.000000 1.000000
vn -0.000000 -0.000000 1.000000
vn -0.335767 0.941945 0.000000
vn -0.335767 0.941945 0.000000
vn -0.335767 0.941945 0.000000
vn -0.335767 0.941945 0.000000
vn -0.000000 -0.000000 -1.000000
vn -0.000000 -0.000000 -1.000000
vn -0.000000 -0.000000 -1.000000
vn -0.000000 -0.000000 -1.000000
vn 0.295230 -0.955426 0.000000
vn 0.295230 -0.955426 0.000000
vn 0.295230 -0.955426 0.000000
vn 0.295230 -0.955426 0.000000
s off
f 9/1/1 10/2/2 4/3/3 3/4/4
f 3/5/5 4/6/6 6/7/7 5/8/8
f 5/9/9 6/10/10 11/11/11 12/12/12
f 7/13/13 8/14/14 2/15/15 1/16/16
f 10/17/17 11/18/18 6/19/19 4/20/20
f 12/21/21 9/22/22 3/23/23 5/24/24
f 13/25/25 14/26/26 10/2/27 9/1/28
f 14/27/29 15/28/30 11/18/31 10/17/32
f 12/12/33 11/11/34 15/29/35 16/30/36
f 16/31/37 13/32/38 9/22/39 12/21/40
f 17/33/41 18/34/42 14/26/43 13/25/44
f 18/35/45 19/36/46 15/28/47 14/27/48
f 16/30/49 15/29/50 19/37/51 20/38/52
f 20/39/53 17/40/54 13/32/55 16/31/56
f 21/41/57 22/42/58 18/34/59 17/33/60
f 22/43/61 23/44/62 19/36/63 18/35/64
f 20/38/65 19/37/66 23/45/67 24/46/68
f 24/47/69 21/48/70 17/40/71 20/39/72
f 1/49/73 2/50/74 22/42/75 21/41/76
f 2/51/77 8/52/78 23/44/79 22/43/80
f 24/46/81 23/45/82 8/53/83 7/54/84
f 7/55/85 1/56/86 21/48/87 24/47/88
f 25/57/89 26/58/90 28/59/91 27/60/92
f 27/61/93 28/62/94 30/63/95 29/64/96
f 29/65/97 30/66/98 32/67/99 31/68/100
f 44/69/101 41/70/102 26/71/103 25/72/104
f 26/73/105 41/74/106 42/75/107 34/76/108
f 32/77/109 30/78/110 35/79/111 33/80/112
f 30/78/113 28/81/114 36/82/115 35/79/116
f 28/81/117 26/73/118 34/76/119 36/82/120
f 43/83/121 44/84/122 25/85/123 38/86/124
f 25/85/125 27/87/126 39/88/127 38/86/128
f 27/87/129 29/89/130 40/90/131 39/88/132
f 29/89/133 31/91/134 37/92/135 40/90/136
f 34/93/137 42/94/138 43/95/139 38/96/140
f 33/97/141 35/98/142 40/99/143 37/100/144
f 35/101/145 36/102/146 39/103/147 40/104/148
f 36/105/149 34/106/150 38/107/151 39/108/152
f 42/75/153 41/74/154 32/77/155 33/80/156
f 43/95/157 42/94/158 33/109/159 37/110/160
f 31/91/161 44/84/162 43/83/163 37/92/164
f 31/111/165 32/112/166 41/70/167 44/69/168
