# This file uses centimeters as units for non-parametric coordinates.

v 0.375509 -0.216196 0.191242
v 0.375509 1.164256 0.191242
v 0.000001 1.164256 0.191242
v 0.000001 -0.216196 0.191242
v 0.000001 -0.067969 0.191242
v 0.200350 -0.067969 0.191242
v 0.200350 1.019783 0.191242
v 0.000001 1.019783 0.191242
v 0.000001 -0.067969 0.000000
v 0.000001 -0.216196 0.000000
v 0.375509 -0.216196 0.000000
v 0.200350 -0.067969 0.000000
v 0.200350 1.019783 0.000000
v 0.375509 1.164256 0.000000
v 0.000001 1.019783 0.000000
v 0.000001 1.164256 0.000000
vt 0.142844 0.960338
vt 0.142844 0.960338
vt 0.142844 0.960338
vt 0.142844 0.960338
vt 0.142844 0.960338
vt 0.142844 0.960338
vt 0.612548 0.960335
vt 0.612548 0.960335
vt 0.612548 0.960335
vt 0.612548 0.960335
vt 0.612548 0.960335
vt 0.612548 0.960335
vt 0.612548 0.960335
vt 0.612548 0.960335
vt 0.612548 0.960335
vt 0.612548 0.960335
vt 0.612548 0.960335
vt 0.612548 0.960335
vt 0.612548 0.960335
vt 0.612548 0.960335
vt 0.612548 0.960335
vt 0.612548 0.960335
vt 0.867603 0.960335
vt 0.867603 0.960335
vt 0.867603 0.960335
vt 0.867603 0.960335
vt 0.867603 0.960335
vt 0.867603 0.960335
vt 0.867603 0.960335
vt 0.867603 0.960335
vt 0.385272 0.960338
vt 0.385272 0.960338
vt 0.385272 0.960338
vt 0.385272 0.960338
vt 0.385272 0.960338
vt 0.385272 0.960338
vt 0.385272 0.960338
vt 0.385272 0.960338
vt 0.142844 0.960338
vt 0.142844 0.960338
vt 0.353142 0.960341
vt 0.353142 0.960341
vt 0.353142 0.960341
vt 0.353142 0.960341
vt 0.353142 0.960341
vt 0.353142 0.960341
vt 0.353142 0.960341
vt 0.353142 0.960341
vn 0.000000 0.000000 -1.000000
vn 0.000000 0.000000 -1.000000
vn 0.000000 0.000000 -1.000000
vn 0.000000 0.000000 -1.000000
vn 0.000000 0.000000 -1.000000
vn 0.000000 0.000000 -1.000000
vn 0.000000 0.000000 -1.000000
vn 0.000000 0.000000 -1.000000
vn 0.000000 0.000000 -1.000000
vn 0.000000 0.000000 -1.000000
vn 0.000000 0.000000 -1.000000
vn 0.000000 0.000000 -1.000000
vn -0.000000 0.000000 1.000000
vn -0.000000 0.000000 1.000000
vn 0.000000 0.000000 1.000000
vn 0.000000 0.000000 1.000000
vn -0.000000 0.000000 1.000000
vn -0.000000 0.000000 1.000000
vn -0.000000 0.000000 1.000000
vn -0.000000 0.000000 1.000000
vn -0.000000 0.000000 1.000000
vn 0.000000 0.000000 1.000000
vn 0.000000 0.000000 1.000000
vn -0.000000 0.000000 1.000000
vn 0.000000 -1.000000 0.000000
vn 0.000000 -1.000000 0.000000
vn 0.000000 -1.000000 0.000000
vn 0.000000 -1.000000 0.000000
vn 0.000000 1.000000 0.000000
vn 0.000000 1.000000 0.000000
vn 0.000000 1.000000 0.000000
vn 0.000000 1.000000 0.000000
vn -1.000000 0.000000 0.000000
vn -1.000000 0.000000 0.000000
vn -1.000000 0.000000 0.000000
vn -1.000000 0.000000 0.000000
vn 1.000000 0.000000 0.000000
vn 1.000000 0.000000 0.000000
vn 1.000000 0.000000 0.000000
vn 1.000000 0.000000 0.000000
vn 0.000000 -1.000000 0.000000
vn 0.000000 -1.000000 0.000000
vn 0.000000 -1.000000 0.000000
vn 0.000000 -1.000000 0.000000
vn 0.000000 1.000000 0.000000
vn 0.000000 1.000000 0.000000
vn 0.000000 1.000000 0.000000
vn 0.000000 1.000000 0.000000
vn -1.000000 0.000000 0.000000
vn -1.000000 0.000000 0.000000
vn -1.000000 0.000000 0.000000
vn -1.000000 0.000000 0.000000
vn -1.000000 0.000000 0.000000
vn -1.000000 0.000000 0.000000
vn -1.000000 0.000000 0.000000
vn -1.000000 0.000000 0.000000
s off
f 11/17/1 10/15/2 9/16/3 12/18/4
f 11/17/5 12/18/6 13/19/7 14/20/8
f 14/20/9 13/19/10 15/21/11 16/22/12
f 1/9/13 6/10/14 5/7/15 4/8/16
f 1/9/17 2/12/18 7/11/19 6/10/20
f 2/12/21 3/14/22 8/13/23 7/11/24
f 1/1/25 4/2/26 10/3/27 11/4/28
f 5/23/29 6/24/30 12/25/31 9/26/32
f 6/31/33 7/32/34 13/33/35 12/34/36
f 2/35/37 1/36/38 11/37/39 14/38/40
f 7/5/41 8/6/42 15/39/43 13/40/44
f 3/27/45 2/28/46 14/29/47 16/30/48
f 4/41/49 5/42/50 9/43/51 10/44/52
f 3/45/53 16/46/54 15/47/55 8/48/56
