# This file uses centimeters as units for non-parametric coordinates.

v 0.000000 0.000000 0.191242
v 0.000000 0.955462 0.191242
v 0.222630 0.955462 0.191242
v 0.222630 0.000000 0.191242
v 0.222630 0.226657 0.191242
v 0.000000 0.226657 0.191242
v 0.222630 0.315559 0.191242
v 0.000000 0.315559 0.191242
v 0.222630 0.000000 0.000000
v 0.000000 0.000000 0.000000
v 0.222630 0.226657 0.000000
v 0.000000 0.226657 0.000000
v 0.222630 0.315559 0.000000
v 0.000000 0.315559 0.000000
v 0.222630 0.955462 0.000000
v 0.000000 0.955462 0.000000
vt 0.103743 0.960334
vt 0.103743 0.960334
vt 0.355111 0.960334
vt 0.355111 0.960334
vt 0.355111 0.960334
vt 0.355111 0.960334
vt 0.103743 0.960334
vt 0.103743 0.960334
vt 0.620417 0.960332
vt 0.620417 0.960332
vt 0.620417 0.960332
vt 0.620417 0.960332
vt 0.620417 0.960332
vt 0.620417 0.960332
vt 0.620417 0.960332
vt 0.620417 0.960332
vt 0.620417 0.960332
vt 0.620417 0.960332
vt 0.620417 0.960332
vt 0.620417 0.960332
vt 0.620417 0.960332
vt 0.620417 0.960332
vt 0.620417 0.960332
vt 0.620417 0.960332
vt 0.880623 0.960329
vt 0.880623 0.960329
vt 0.880623 0.960329
vt 0.880623 0.960329
vt 0.880623 0.960329
vt 0.880623 0.960329
vt 0.880623 0.960329
vt 0.880623 0.960329
vt 0.355111 0.960334
vt 0.355111 0.960334
vt 0.355111 0.960334
vt 0.355111 0.960334
vt 0.355111 0.960334
vt 0.355111 0.960334
vt 0.355111 0.960334
vt 0.355111 0.960334
vt 0.355111 0.960334
vt 0.355111 0.960334
vt 0.355111 0.960334
vt 0.355111 0.960334
vt 0.103743 0.960334
vt 0.103743 0.960334
vt 0.103743 0.960334
vt 0.103743 0.960334
vn 0.000000 0.000000 -1.000000
vn 0.000000 0.000000 -1.000000
vn 0.000000 0.000000 -1.000000
vn 0.000000 0.000000 -1.000000
vn 0.000000 -0.000000 -1.000000
vn 0.000000 -0.000000 -1.000000
vn 0.000000 -0.000000 -1.000000
vn 0.000000 -0.000000 -1.000000
vn 0.000000 0.000000 1.000000
vn 0.000000 0.000000 1.000000
vn 0.000000 0.000000 1.000000
vn 0.000000 0.000000 1.000000
vn 0.000000 0.000000 1.000000
vn 0.000000 0.000000 1.000000
vn 0.000000 0.000000 1.000000
vn 0.000000 0.000000 1.000000
vn 0.000000 -1.000000 0.000000
vn 0.000000 -1.000000 0.000000
vn 0.000000 -1.000000 0.000000
vn 0.000000 -1.000000 0.000000
vn 1.000000 0.000000 0.000000
vn 1.000000 0.000000 0.000000
vn 1.000000 0.000000 0.000000
vn 1.000000 0.000000 0.000000
vn 0.000000 1.000000 0.000000
vn 0.000000 1.000000 0.000000
vn 0.000000 1.000000 0.000000
vn 0.000000 1.000000 0.000000
vn -1.000000 0.000000 0.000000
vn -1.000000 0.000000 0.000000
vn -1.000000 0.000000 0.000000
vn -1.000000 0.000000 0.000000
vn 0.000000 -1.000000 0.000000
vn 0.000000 -1.000000 0.000000
vn 0.000000 -1.000000 0.000000
vn 0.000000 -1.000000 0.000000
vn 1.000000 0.000000 0.000000
vn 1.000000 0.000000 0.000000
vn 1.000000 0.000000 0.000000
vn 1.000000 0.000000 0.000000
vn 0.000000 1.000000 0.000000
vn 0.000000 1.000000 0.000000
vn 0.000000 1.000000 0.000000
vn 0.000000 1.000000 0.000000
vn -1.000000 0.000000 0.000000
vn -1.000000 0.000000 0.000000
vn -1.000000 0.000000 0.000000
vn -1.000000 0.000000 0.000000
s off
f 10/17/1 12/20/2 11/19/3 9/18/4
f 14/21/5 16/24/6 15/23/7 13/22/8
f 1/9/9 4/10/10 5/11/11 6/12/12
f 8/13/13 7/14/14 3/15/15 2/16/16
f 1/1/17 10/8/18 9/7/19 4/2/20
f 4/3/21 9/6/22 11/5/23 5/4/24
f 5/25/25 11/28/26 12/27/27 6/26/28
f 6/33/29 12/36/30 10/35/31 1/34/32
f 8/45/33 14/48/34 13/47/35 7/46/36
f 7/37/37 13/40/38 15/39/39 3/38/40
f 3/29/41 15/32/42 16/31/43 2/30/44
f 2/41/45 16/44/46 14/43/47 8/42/48
