# This file uses centimeters as units for non-parametric coordinates.

v -0.439208 0.459853 0.191242
v 0.000000 0.814753 0.191242
v -0.439208 0.322111 0.191242
v 0.000000 -0.035707 0.191242
v 0.000000 0.169960 0.191242
v -0.262241 0.391150 0.191242
v 0.000000 0.613259 0.191242
v -0.262241 0.391150 0.000000
v -0.439208 0.322111 0.000000
v 0.000000 -0.035707 0.000000
v 0.000000 0.169960 0.000000
v -0.439208 0.459853 0.000000
v 0.000000 0.613259 0.000000
v 0.000000 0.814753 0.000000
vt 0.359542 0.960360
vt 0.359542 0.960360
vt 0.084317 0.960334
vt 0.084317 0.960334
vt 0.359542 0.960360
vt 0.084317 0.960334
vt 0.084317 0.960334
vt 0.865189 0.960334
vt 0.865189 0.960334
vt 0.359542 0.960360
vt 0.612548 0.960335
vt 0.612548 0.960335
vt 0.612548 0.960335
vt 0.612548 0.960335
vt 0.612548 0.960335
vt 0.612548 0.960335
vt 0.612548 0.960335
vt 0.612548 0.960335
vt 0.612548 0.960335
vt 0.612548 0.960335
vt 0.612548 0.960335
vt 0.612548 0.960335
vt 0.612548 0.960335
vt 0.612548 0.960335
vt 0.378744 0.960334
vt 0.378744 0.960334
vt 0.378744 0.960334
vt 0.378744 0.960334
vt 0.865189 0.960334
vt 0.865189 0.960334
vt 0.129121 0.960322
vt 0.129121 0.960322
vt 0.129121 0.960322
vt 0.129121 0.960322
vt 0.920690 0.960330
vt 0.920690 0.960330
vt 0.920690 0.960330
vt 0.920690 0.960330
vt 0.378744 0.960334
vt 0.378744 0.960334
vt 0.378744 0.960334
vt 0.378744 0.960334
vn 0.000000 0.000000 -1.000000
vn 0.000000 0.000000 -1.000000
vn 0.000000 0.000000 -1.000000
vn 0.000000 0.000000 -1.000000
vn 0.000000 0.000000 -1.000000
vn 0.000000 0.000000 -1.000000
vn 0.000000 0.000000 -1.000000
vn 0.000000 0.000000 -1.000000
vn 0.000000 0.000000 -1.000000
vn 0.000000 0.000000 -1.000000
vn 0.000000 0.000000 -1.000000
vn -0.000000 0.000000 1.000000
vn -0.000000 0.000000 1.000000
vn -0.000000 0.000000 1.000000
vn -0.000000 0.000000 1.000000
vn 0.000000 0.000000 1.000000
vn 0.000000 0.000000 1.000000
vn 0.000000 0.000000 1.000000
vn 0.000000 0.000000 1.000000
vn 0.000000 0.000000 1.000000
vn 0.000000 0.000000 1.000000
vn 0.000000 0.000000 1.000000
vn -0.631615 -0.775282 0.000000
vn -0.631615 -0.775282 0.000000
vn -0.631615 -0.775282 0.000000
vn -0.631615 -0.775282 0.000000
vn 1.000000 0.000000 0.000000
vn 1.000000 0.000000 0.000000
vn 1.000000 0.000000 0.000000
vn 1.000000 0.000000 0.000000
vn 0.644742 0.764400 0.000000
vn 0.644742 0.764400 0.000000
vn 0.644742 0.764400 0.000000
vn 0.644742 0.764400 0.000000
vn -1.000000 0.000000 0.000000
vn -1.000000 0.000000 0.000000
vn -1.000000 0.000000 0.000000
vn -1.000000 0.000000 0.000000
vn 0.646302 -0.763082 0.000000
vn 0.646302 -0.763082 0.000000
vn 0.646302 -0.763082 0.000000
vn 0.646302 -0.763082 0.000000
vn -0.628503 0.777807 0.000000
vn -0.628503 0.777807 0.000000
vn -0.628503 0.777807 0.000000
vn -0.628503 0.777807 0.000000
vn 1.000000 0.000000 0.000000
vn 1.000000 0.000000 0.000000
vn 1.000000 0.000000 0.000000
vn 1.000000 0.000000 0.000000
s off
f 8/21/1 11/20/2 10/19/3 9/18/4
f 12/22/5 8/21/6 9/18/7
f 12/22/8 14/24/9 13/23/10 8/21/11
f 6/11/12 3/12/13 4/13/14 5/14/15
f 1/15/16 3/12/17 6/11/18
f 1/15/19 6/11/20 7/16/21 2/17/22
f 3/3/23 9/4/24 10/6/25 4/7/26
f 4/25/27 10/26/28 11/27/29 5/28/30
f 5/8/31 11/9/32 8/29/33 6/30/34
f 1/1/35 12/2/36 9/5/37 3/10/38
f 6/31/39 8/32/40 13/33/41 7/34/42
f 2/35/43 14/38/44 12/37/45 1/36/46
f 2/39/47 7/40/48 13/41/49 14/42/50
