# This file uses centimeters as units for non-parametric coordinates.

v -0.353596 -0.094746 -0.048773
v -0.258850 -0.258851 -0.048773
v -0.094746 -0.353597 -0.048773
v 0.094746 -0.353597 -0.048773
v 0.258850 -0.258851 -0.048773
v 0.353596 -0.094746 -0.048773
v 0.353596 0.094746 -0.048773
v 0.258850 0.258851 -0.048773
v 0.094746 0.353597 -0.048773
v -0.094746 0.353597 -0.048773
v -0.258850 0.258851 -0.048773
v -0.353596 0.094746 -0.048773
v -0.353596 -0.094746 0.048773
v -0.258850 -0.258851 0.048773
v -0.094746 -0.353597 0.048773
v 0.094746 -0.353597 0.048773
v 0.258850 -0.258851 0.048773
v 0.353596 -0.094746 0.048773
v 0.353596 0.094746 0.048773
v 0.258850 0.258851 0.048773
v 0.094746 0.353597 0.048773
v -0.094746 0.353597 0.048773
v -0.258850 0.258851 0.048773
v -0.353596 0.094746 0.048773
v -0.048252 0.180081 -0.048773
v -0.131828 0.131829 -0.048773
v 0.048252 0.180081 -0.048773
v 0.131828 0.131829 -0.048773
v 0.180080 0.048253 -0.048773
v 0.180080 -0.048253 -0.048773
v 0.131828 -0.131829 -0.048773
v 0.048252 -0.180081 -0.048773
v -0.048252 -0.180081 -0.048773
v -0.131828 -0.131829 -0.048773
v -0.180080 -0.048253 -0.048773
v -0.180080 0.048253 -0.048773
v -0.180080 0.048253 0.048773
v -0.180080 -0.048253 0.048773
v -0.131828 -0.131829 0.048773
v -0.048252 -0.180081 0.048773
v 0.048252 -0.180081 0.048773
v 0.131828 -0.131829 0.048773
v 0.180080 -0.048253 0.048773
v 0.180080 0.048253 0.048773
v 0.131828 0.131829 0.048773
v 0.048252 0.180081 0.048773
v -0.048252 0.180081 0.048773
v -0.131828 0.131829 0.048773
v -0.487000 -0.171766 -0.076449
v -0.392254 -0.335871 -0.076449
v -0.392254 -0.335871 0.076449
v -0.487000 -0.171766 0.076449
v -0.094746 -0.507637 -0.076449
v 0.094746 -0.507638 -0.076449
v 0.094746 -0.507638 0.076449
v -0.094746 -0.507637 0.076449
v 0.392254 -0.335871 -0.076449
v 0.487000 -0.171766 -0.076449
v 0.487000 -0.171766 0.076449
v 0.392254 -0.335871 0.076449
v 0.487000 0.171766 -0.076449
v 0.392254 0.335871 -0.076449
v 0.392254 0.335871 0.076449
v 0.487000 0.171766 0.076449
v 0.094746 0.507637 -0.076449
v -0.094746 0.507638 -0.076449
v -0.094746 0.507638 0.076449
v 0.094746 0.507637 0.076449
v -0.392254 0.335871 -0.076449
v -0.487000 0.171766 -0.076449
v -0.487000 0.171766 0.076449
v -0.392254 0.335871 0.076449
vt 0.126308 0.953551
vt 0.126308 0.953551
vt 0.126308 0.953551
vt 0.126308 0.953551
vt 0.126308 0.953551
vt 0.126308 0.953551
vt 0.126308 0.953551
vt 0.126308 0.953551
vt 0.126308 0.953551
vt 0.126308 0.953551
vt 0.126308 0.953551
vt 0.126308 0.953551
vt 0.126308 0.953551
vt 0.126308 0.953551
vt 0.126308 0.953551
vt 0.126308 0.953551
vt 0.126308 0.953551
vt 0.126308 0.953551
vt 0.126308 0.953551
vt 0.126308 0.953551
vt 0.369044 0.953551
vt 0.369044 0.953551
vt 0.369044 0.953551
vt 0.369044 0.953551
vt 0.865003 0.953551
vt 0.865003 0.953551
vt 0.865003 0.953551
vt 0.865003 0.953551
vt 0.865003 0.953551
vt 0.865003 0.953551
vt 0.865003 0.953551
vt 0.865003 0.953551
vt 0.865003 0.953551
vt 0.865003 0.953551
vt 0.865003 0.953551
vt 0.865003 0.953551
vt 0.865003 0.953551
vt 0.865003 0.953551
vt 0.865003 0.953551
vt 0.865003 0.953551
vt 0.865003 0.953551
vt 0.865003 0.953551
vt 0.865003 0.953551
vt 0.865003 0.953551
vt 0.369044 0.953551
vt 0.369044 0.953551
vt 0.369044 0.953551
vt 0.369044 0.953551
vt 0.620417 0.953551
vt 0.620417 0.953551
vt 0.620417 0.953551
vt 0.620417 0.953551
vt 0.620417 0.953551
vt 0.620417 0.953551
vt 0.620417 0.953551
vt 0.620417 0.953551
vt 0.620417 0.953551
vt 0.620417 0.953551
vt 0.620417 0.953551
vt 0.620417 0.953551
vt 0.620417 0.953551
vt 0.620417 0.953551
vt 0.620417 0.953551
vt 0.620417 0.953551
vt 0.620417 0.953551
vt 0.620417 0.953551
vt 0.620417 0.953551
vt 0.620417 0.953551
vt 0.620417 0.953551
vt 0.620417 0.953551
vt 0.620417 0.953551
vt 0.620417 0.953551
vt 0.620417 0.953551
vt 0.620417 0.953551
vt 0.620417 0.953551
vt 0.620417 0.953551
vt 0.620417 0.953551
vt 0.620417 0.953551
vt 0.620417 0.953551
vt 0.620417 0.953551
vt 0.620417 0.953551
vt 0.620417 0.953551
vt 0.620417 0.953551
vt 0.620417 0.953551
vt 0.620417 0.953551
vt 0.620417 0.953551
vt 0.620417 0.953551
vt 0.620417 0.953551
vt 0.620417 0.953551
vt 0.620417 0.953551
vt 0.620417 0.953551
vt 0.620417 0.953551
vt 0.620417 0.953551
vt 0.620417 0.953551
vt 0.620417 0.953551
vt 0.620417 0.953551
vt 0.126308 0.953551
vt 0.126308 0.953551
vt 0.126308 0.953551
vt 0.126308 0.953551
vt 0.126308 0.953551
vt 0.126308 0.953551
vt 0.126308 0.953551
vt 0.126308 0.953551
vt 0.126308 0.953551
vt 0.126308 0.953551
vt 0.126308 0.953551
vt 0.126308 0.953551
vt 0.126308 0.953551
vt 0.126308 0.953551
vt 0.126308 0.953551
vt 0.126308 0.953551
vt 0.126308 0.953551
vt 0.126308 0.953551
vt 0.126308 0.953551
vt 0.126308 0.953551
vt 0.126308 0.953551
vt 0.126308 0.953551
vt 0.126308 0.953551
vt 0.126308 0.953551
vt 0.126308 0.953551
vt 0.126308 0.953551
vt 0.126308 0.953551
vt 0.126308 0.953551
vt 0.126308 0.953551
vt 0.126308 0.953551
vt 0.126308 0.953551
vt 0.126308 0.953551
vt 0.126308 0.953551
vt 0.126308 0.953551
vt 0.126308 0.953551
vt 0.126308 0.953551
vt 0.126308 0.953551
vt 0.126308 0.953551
vt 0.126308 0.953551
vt 0.126308 0.953551
vt 0.126308 0.953551
vt 0.126308 0.953551
vt 0.126308 0.953551
vt 0.126308 0.953551
vt 0.126308 0.953551
vt 0.126308 0.953551
vt 0.126308 0.953551
vt 0.126308 0.953551
vt 0.620417 0.953551
vt 0.620417 0.953551
vt 0.620417 0.953551
vt 0.620417 0.953551
vt 0.126308 0.953551
vt 0.126308 0.953551
vt 0.126308 0.953551
vt 0.126308 0.953551
vt 0.620417 0.953551
vt 0.620417 0.953551
vt 0.620417 0.953551
vt 0.620417 0.953551
vt 0.865003 0.953551
vt 0.865003 0.953551
vt 0.865003 0.953551
vt 0.865003 0.953551
vt 0.620417 0.953551
vt 0.620417 0.953551
vt 0.620417 0.953551
vt 0.620417 0.953551
vt 0.369044 0.953551
vt 0.369044 0.953551
vt 0.369044 0.953551
vt 0.369044 0.953551
vt 0.620417 0.953551
vt 0.620417 0.953551
vt 0.620417 0.953551
vt 0.620417 0.953551
vt 0.369044 0.953551
vt 0.369044 0.953551
vt 0.369044 0.953551
vt 0.369044 0.953551
vt 0.620417 0.953551
vt 0.620417 0.953551
vt 0.620417 0.953551
vt 0.620417 0.953551
vt 0.865003 0.953551
vt 0.865003 0.953551
vt 0.865003 0.953551
vt 0.865003 0.953551
vt 0.620417 0.953551
vt 0.620417 0.953551
vt 0.620417 0.953551
vt 0.620417 0.953551
vt 0.126308 0.953551
vt 0.126308 0.953551
vt 0.126308 0.953551
vt 0.126308 0.953551
vt 0.620417 0.953551
vt 0.620417 0.953551
vt 0.620417 0.953551
vt 0.620417 0.953551
vt 0.865003 0.953551
vt 0.865003 0.953551
vt 0.865003 0.953551
vt 0.865003 0.953551
vt 0.620417 0.953551
vt 0.620417 0.953551
vt 0.620417 0.953551
vt 0.620417 0.953551
vt 0.126308 0.953551
vt 0.126308 0.953551
vt 0.126308 0.953551
vt 0.126308 0.953551
vt 0.620417 0.953551
vt 0.620417 0.953551
vt 0.620417 0.953551
vt 0.620417 0.953551
vt 0.369044 0.953551
vt 0.369044 0.953551
vt 0.369044 0.953551
vt 0.369044 0.953551
vt 0.620417 0.953551
vt 0.620417 0.953551
vt 0.620417 0.953551
vt 0.620417 0.953551
vt 0.369044 0.953551
vt 0.369044 0.953551
vt 0.369044 0.953551
vt 0.369044 0.953551
vt 0.620417 0.953551
vt 0.620417 0.953551
vt 0.620417 0.953551
vt 0.620417 0.953551
vt 0.126308 0.953551
vt 0.126308 0.953551
vt 0.126308 0.953551
vt 0.126308 0.953551
vt 0.620417 0.953551
vt 0.620417 0.953551
vt 0.620417 0.953551
vt 0.620417 0.953551
vt 0.865003 0.953551
vt 0.865003 0.953551
vt 0.865003 0.953551
vt 0.865003 0.953551
vn -0.866027 -0.499998 0.000000
vn -0.866027 -0.499998 0.000000
vn -0.866027 -0.499998 0.000000
vn -0.866027 -0.499998 0.000000
vn -0.500001 -0.866025 0.000000
vn -0.500001 -0.866025 0.000000
vn -0.500001 -0.866025 0.000000
vn -0.500001 -0.866025 0.000000
vn -0.000002 -1.000000 0.000000
vn -0.000002 -1.000000 0.000000
vn -0.000002 -1.000000 0.000000
vn -0.000002 -1.000000 0.000000
vn 0.500001 -0.866025 0.000000
vn 0.500001 -0.866025 0.000000
vn 0.500001 -0.866025 0.000000
vn 0.500001 -0.866025 0.000000
vn 0.866027 -0.499998 0.000000
vn 0.866027 -0.499998 0.000000
vn 0.866027 -0.499998 0.000000
vn 0.866027 -0.499998 0.000000
vn 1.000000 0.000000 0.000000
vn 1.000000 0.000000 0.000000
vn 1.000000 0.000000 0.000000
vn 1.000000 0.000000 0.000000
vn 0.866026 0.499999 0.000000
vn 0.866026 0.499999 0.000000
vn 0.866026 0.499999 0.000000
vn 0.866026 0.499999 0.000000
vn 0.500001 0.866025 0.000000
vn 0.500001 0.866025 0.000000
vn 0.500001 0.866025 0.000000
vn 0.500001 0.866025 0.000000
vn 0.000001 1.000000 0.000000
vn 0.000001 1.000000 0.000000
vn 0.000001 1.000000 0.000000
vn 0.000001 1.000000 0.000000
vn -0.500001 0.866025 0.000000
vn -0.500000 0.866025 0.000000
vn -0.500000 0.866025 0.000000
vn -0.500000 0.866025 0.000000
vn -0.866026 0.499998 0.000000
vn -0.866026 0.499998 0.000000
vn -0.866026 0.499998 0.000000
vn -0.866026 0.499998 0.000000
vn -1.000000 0.000000 0.000000
vn -1.000000 0.000000 0.000000
vn -1.000000 0.000000 0.000000
vn -1.000000 0.000000 0.000000
vn -0.000000 0.000000 -1.000000
vn -0.000000 0.000000 -1.000000
vn -0.000000 0.000000 -1.000000
vn -0.000000 0.000000 -1.000000
vn 0.000000 0.000000 -1.000000
vn 0.000000 0.000000 -1.000000
vn 0.000000 0.000000 -1.000000
vn 0.000000 0.000000 -1.000000
vn 0.000000 0.000000 -1.000000
vn 0.000000 0.000000 -1.000000
vn 0.000000 0.000000 -1.000000
vn 0.000000 0.000000 -1.000000
vn -0.000000 0.000000 -1.000000
vn -0.000000 0.000000 -1.000000
vn -0.000000 0.000000 -1.000000
vn -0.000000 0.000000 -1.000000
vn -0.000000 0.000000 -1.000000
vn -0.000000 0.000000 -1.000000
vn -0.000000 0.000000 -1.000000
vn -0.000000 0.000000 -1.000000
vn -0.000000 -0.000000 -1.000000
vn -0.000000 -0.000000 -1.000000
vn -0.000000 -0.000000 -1.000000
vn -0.000000 -0.000000 -1.000000
vn 0.000000 0.000000 -1.000000
vn 0.000000 0.000000 -1.000000
vn 0.000000 0.000000 -1.000000
vn 0.000000 0.000000 -1.000000
vn 0.000000 0.000000 -1.000000
vn 0.000000 0.000000 -1.000000
vn 0.000000 0.000000 -1.000000
vn 0.000000 0.000000 -1.000000
vn -0.000000 -0.000000 -1.000000
vn -0.000000 -0.000000 -1.000000
vn -0.000000 -0.000000 -1.000000
vn -0.000000 -0.000000 -1.000000
vn -0.000000 -0.000000 -1.000000
vn -0.000000 -0.000000 -1.000000
vn -0.000000 -0.000000 -1.000000
vn -0.000000 -0.000000 -1.000000
vn -0.000000 0.000000 -1.000000
vn -0.000000 0.000000 -1.000000
vn -0.000000 0.000000 -1.000000
vn -0.000000 0.000000 -1.000000
vn -0.000000 0.000000 -1.000000
vn -0.000000 0.000000 -1.000000
vn -0.000000 0.000000 -1.000000
vn -0.000000 0.000000 -1.000000
vn 0.000000 0.000000 1.000000
vn 0.000000 0.000000 1.000000
vn 0.000000 0.000000 1.000000
vn 0.000000 0.000000 1.000000
vn 0.000000 -0.000000 1.000000
vn 0.000000 -0.000000 1.000000
vn 0.000000 -0.000000 1.000000
vn 0.000000 -0.000000 1.000000
vn 0.000000 0.000000 1.000000
vn 0.000000 0.000000 1.000000
vn 0.000000 0.000000 1.000000
vn 0.000000 0.000000 1.000000
vn 0.000000 0.000000 1.000000
vn 0.000000 0.000000 1.000000
vn 0.000000 0.000000 1.000000
vn 0.000000 0.000000 1.000000
vn 0.000000 -0.000000 1.000000
vn 0.000000 -0.000000 1.000000
vn 0.000000 -0.000000 1.000000
vn 0.000000 -0.000000 1.000000
vn 0.000000 -0.000000 1.000000
vn 0.000000 -0.000000 1.000000
vn 0.000000 -0.000000 1.000000
vn 0.000000 -0.000000 1.000000
vn 0.000000 0.000000 1.000000
vn 0.000000 0.000000 1.000000
vn 0.000000 0.000000 1.000000
vn 0.000000 0.000000 1.000000
vn 0.000000 0.000000 1.000000
vn 0.000000 0.000000 1.000000
vn 0.000000 0.000000 1.000000
vn 0.000000 0.000000 1.000000
vn 0.000000 0.000000 1.000000
vn 0.000000 0.000000 1.000000
vn 0.000000 0.000000 1.000000
vn 0.000000 0.000000 1.000000
vn 0.000000 0.000000 1.000000
vn 0.000000 0.000000 1.000000
vn 0.000000 0.000000 1.000000
vn 0.000000 0.000000 1.000000
vn 0.000000 0.000000 1.000000
vn 0.000000 0.000000 1.000000
vn 0.000000 0.000000 1.000000
vn 0.000000 0.000000 1.000000
vn 0.000000 0.000000 1.000000
vn 0.000000 0.000000 1.000000
vn 0.000000 0.000000 1.000000
vn 0.000000 0.000000 1.000000
vn 0.499999 -0.866026 0.000000
vn 0.499999 -0.866026 0.000000
vn 0.499999 -0.866026 0.000000
vn 0.499999 -0.866026 0.000000
vn 0.000002 -1.000000 0.000000
vn 0.000002 -1.000000 0.000000
vn 0.000002 -1.000000 0.000000
vn 0.000002 -1.000000 0.000000
vn -0.499999 -0.866026 0.000000
vn -0.499999 -0.866026 0.000000
vn -0.499999 -0.866026 0.000000
vn -0.499999 -0.866026 0.000000
vn -0.866028 -0.499996 0.000000
vn -0.866028 -0.499996 0.000000
vn -0.866028 -0.499996 0.000000
vn -0.866028 -0.499996 0.000000
vn -1.000000 0.000000 0.000000
vn -1.000000 0.000000 0.000000
vn -1.000000 0.000000 0.000000
vn -1.000000 0.000000 0.000000
vn -0.866028 0.499996 0.000000
vn -0.866028 0.499996 0.000000
vn -0.866028 0.499996 0.000000
vn -0.866028 0.499996 0.000000
vn -0.500001 0.866025 0.000000
vn -0.500001 0.866025 0.000000
vn -0.500001 0.866025 0.000000
vn -0.500001 0.866025 0.000000
vn 0.000000 1.000000 0.000000
vn 0.000000 1.000000 0.000000
vn 0.000000 1.000000 0.000000
vn 0.000000 1.000000 0.000000
vn 0.499999 0.866026 0.000000
vn 0.499999 0.866026 0.000000
vn 0.499999 0.866026 0.000000
vn 0.499999 0.866026 0.000000
vn 0.866028 0.499995 0.000000
vn 0.866028 0.499995 0.000000
vn 0.866028 0.499995 0.000000
vn 0.866028 0.499995 0.000000
vn 1.000000 0.000000 0.000000
vn 1.000000 0.000000 0.000000
vn 1.000000 0.000000 0.000000
vn 1.000000 0.000000 0.000000
vn 0.866027 -0.499997 0.000000
vn 0.866027 -0.499997 0.000000
vn 0.866027 -0.499997 0.000000
vn 0.866027 -0.499997 0.000000
vn 0.153141 0.088416 -0.984241
vn 0.153141 0.088416 -0.984241
vn 0.153141 0.088416 -0.984241
vn 0.153141 0.088416 -0.984241
vn 0.499997 -0.866027 0.000000
vn 0.499997 -0.866027 0.000000
vn 0.499997 -0.866027 0.000000
vn 0.499997 -0.866027 0.000000
vn 0.153141 0.088416 0.984241
vn 0.153141 0.088416 0.984241
vn 0.153141 0.088416 0.984241
vn 0.153141 0.088416 0.984241
vn -0.499997 0.866027 0.000000
vn -0.499997 0.866027 0.000000
vn -0.499997 0.866027 0.000000
vn -0.499997 0.866027 0.000000
vn 0.000000 0.176833 -0.984241
vn 0.000000 0.176833 -0.984241
vn 0.000000 0.176833 -0.984241
vn 0.000000 0.176833 -0.984241
vn 1.000000 -0.000000 0.000000
vn 1.000000 -0.000000 0.000000
vn 1.000000 -0.000000 0.000000
vn 1.000000 -0.000000 0.000000
vn 0.000000 0.176833 0.984241
vn 0.000000 0.176833 0.984241
vn 0.000000 0.176833 0.984241
vn 0.000000 0.176833 0.984241
vn -1.000000 -0.000000 0.000000
vn -1.000000 -0.000000 0.000000
vn -1.000000 -0.000000 0.000000
vn -1.000000 -0.000000 0.000000
vn -0.153141 0.088416 -0.984241
vn -0.153141 0.088416 -0.984241
vn -0.153141 0.088416 -0.984241
vn -0.153141 0.088416 -0.984241
vn 0.499996 0.866028 0.000000
vn 0.499996 0.866028 0.000000
vn 0.499996 0.866028 0.000000
vn 0.499996 0.866028 0.000000
vn -0.153141 0.088416 0.984241
vn -0.153141 0.088416 0.984241
vn -0.153141 0.088416 0.984241
vn -0.153141 0.088416 0.984241
vn -0.499998 -0.866027 0.000000
vn -0.499998 -0.866027 0.000000
vn -0.499998 -0.866027 0.000000
vn -0.499998 -0.866027 0.000000
vn -0.153141 -0.088416 -0.984241
vn -0.153141 -0.088416 -0.984241
vn -0.153141 -0.088416 -0.984241
vn -0.153141 -0.088416 -0.984241
vn -0.499996 0.866028 0.000000
vn -0.499996 0.866028 0.000000
vn -0.499996 0.866028 0.000000
vn -0.499996 0.866028 0.000000
vn -0.153141 -0.088416 0.984241
vn -0.153141 -0.088416 0.984241
vn -0.153141 -0.088416 0.984241
vn -0.153141 -0.088416 0.984241
vn 0.499999 -0.866026 0.000000
vn 0.499999 -0.866026 0.000000
vn 0.499999 -0.866026 0.000000
vn 0.499999 -0.866026 0.000000
vn 0.000000 -0.176833 -0.984241
vn 0.000000 -0.176833 -0.984241
vn 0.000000 -0.176833 -0.984241
vn 0.000000 -0.176833 -0.984241
vn -1.000000 0.000000 0.000000
vn -1.000000 0.000000 0.000000
vn -1.000000 0.000000 0.000000
vn -1.000000 0.000000 0.000000
vn 0.000000 -0.176833 0.984241
vn 0.000000 -0.176833 0.984241
vn 0.000000 -0.176833 0.984241
vn 0.000000 -0.176833 0.984241
vn 1.000000 0.000000 0.000000
vn 1.000000 0.000000 0.000000
vn 1.000000 0.000000 0.000000
vn 1.000000 0.000000 0.000000
vn 0.153141 -0.088416 -0.984241
vn 0.153141 -0.088416 -0.984241
vn 0.153141 -0.088416 -0.984241
vn 0.153141 -0.088416 -0.984241
vn -0.499997 -0.866027 0.000000
vn -0.499997 -0.866027 0.000000
vn -0.499997 -0.866027 0.000000
vn -0.499997 -0.866027 0.000000
vn 0.153141 -0.088416 0.984241
vn 0.153141 -0.088416 0.984241
vn 0.153141 -0.088416 0.984241
vn 0.153141 -0.088416 0.984241
vn 0.499997 0.866027 0.000000
vn 0.499997 0.866027 0.000000
vn 0.499997 0.866027 0.000000
vn 0.499997 0.866027 0.000000
s off
f 49/1/1 50/2/2 51/3/3 52/4/4
f 2/5/5 3/6/6 15/7/7 14/8/8
f 53/9/9 54/10/10 55/11/11 56/12/12
f 4/13/13 5/14/14 17/15/15 16/16/16
f 57/17/17 58/18/18 59/19/19 60/20/20
f 6/21/21 7/22/22 19/23/23 18/24/24
f 61/25/25 62/26/26 63/27/27 64/28/28
f 8/29/29 9/30/30 21/31/31 20/32/32
f 65/33/33 66/34/34 67/35/35 68/36/36
f 10/37/37 11/38/38 23/39/39 22/40/40
f 69/41/41 70/42/42 71/43/43 72/44/44
f 12/45/45 1/46/46 13/47/47 24/48/48
f 11/49/49 10/50/50 25/51/51 26/52/52
f 10/50/53 9/53/54 27/54/55 25/51/56
f 9/53/57 8/55/58 28/56/59 27/54/60
f 8/55/61 7/57/62 29/58/63 28/56/64
f 7/57/65 6/59/66 30/60/67 29/58/68
f 6/59/69 5/61/70 31/62/71 30/60/72
f 5/61/73 4/63/74 32/64/75 31/62/76
f 4/63/77 3/65/78 33/66/79 32/64/80
f 3/65/81 2/67/82 34/68/83 33/66/84
f 2/67/85 1/69/86 35/70/87 34/68/88
f 1/69/89 12/71/90 36/72/91 35/70/92
f 12/71/93 11/49/94 26/52/95 36/72/96
f 24/73/97 13/74/98 38/75/99 37/76/100
f 13/74/101 14/77/102 39/78/103 38/75/104
f 14/77/105 15/79/106 40/80/107 39/78/108
f 15/79/109 16/81/110 41/82/111 40/80/112
f 16/81/113 17/83/114 42/84/115 41/82/116
f 17/83/117 18/85/118 43/86/119 42/84/120
f 18/85/121 19/87/122 44/88/123 43/86/124
f 19/87/125 20/89/126 45/90/127 44/88/128
f 20/89/129 21/91/130 46/92/131 45/90/132
f 21/91/133 22/93/134 47/94/135 46/92/136
f 22/93/137 23/95/138 48/96/139 47/94/140
f 23/95/141 24/73/142 37/76/143 48/96/144
f 26/97/145 25/98/146 47/99/147 48/100/148
f 25/101/149 27/102/150 46/103/151 47/104/152
f 27/105/153 28/106/154 45/107/155 46/108/156
f 28/109/157 29/110/158 44/111/159 45/112/160
f 29/113/161 30/114/162 43/115/163 44/116/164
f 30/117/165 31/118/166 42/119/167 43/120/168
f 31/121/169 32/122/170 41/123/171 42/124/172
f 32/125/173 33/126/174 40/127/175 41/128/176
f 33/129/177 34/130/178 39/131/179 40/132/180
f 34/133/181 35/134/182 38/135/183 39/136/184
f 35/137/185 36/138/186 37/139/187 38/140/188
f 36/141/189 26/142/190 48/143/191 37/144/192
f 1/145/193 2/146/194 50/147/195 49/148/196
f 2/149/197 14/150/198 51/151/199 50/152/200
f 14/153/201 13/154/202 52/155/203 51/156/204
f 13/157/205 1/158/206 49/159/207 52/160/208
f 3/161/209 4/162/210 54/163/211 53/164/212
f 4/165/213 16/166/214 55/167/215 54/168/216
f 16/169/217 15/170/218 56/171/219 55/172/220
f 15/173/221 3/174/222 53/175/223 56/176/224
f 5/177/225 6/178/226 58/179/227 57/180/228
f 6/181/229 18/182/230 59/183/231 58/184/232
f 18/185/233 17/186/234 60/187/235 59/188/236
f 17/189/237 5/190/238 57/191/239 60/192/240
f 7/193/241 8/194/242 62/195/243 61/196/244
f 8/197/245 20/198/246 63/199/247 62/200/248
f 20/201/249 19/202/250 64/203/251 63/204/252
f 19/205/253 7/206/254 61/207/255 64/208/256
f 9/209/257 10/210/258 66/211/259 65/212/260
f 10/213/261 22/214/262 67/215/263 66/216/264
f 22/217/265 21/218/266 68/219/267 67/220/268
f 21/221/269 9/222/270 65/223/271 68/224/272
f 11/225/273 12/226/274 70/227/275 69/228/276
f 12/229/277 24/230/278 71/231/279 70/232/280
f 24/233/281 23/234/282 72/235/283 71/236/284
f 23/237/285 11/238/286 69/239/287 72/240/288
