# This file uses centimeters as units for non-parametric coordinates.

v -0.500000 -0.500000 -0.095621
v -0.500000 -0.500000 0.095621
v -0.500000 0.500000 -0.095621
v -0.500000 0.500000 0.095621
v 0.500000 0.500000 -0.095621
v 0.500000 0.500000 0.095621
v 0.500000 -0.500000 -0.095621
v 0.500000 -0.500000 0.095621
v 0.391704 -0.391704 0.095621
v -0.391704 -0.391704 0.095621
v 0.391704 0.391704 0.095621
v -0.391704 0.391704 0.095621
v 0.391704 -0.391704 -0.095621
v -0.391704 -0.391704 -0.095621
v -0.391704 0.391704 -0.095621
v 0.391704 0.391704 -0.095621
v 0.077281 0.038819 -0.095621
v 0.077281 0.038819 0.095621
v 0.077281 0.286219 -0.095621
v 0.077281 0.286219 0.095621
v 0.193075 0.286219 -0.095621
v 0.193075 0.286219 0.095621
v 0.193075 0.038819 -0.095621
v 0.193075 0.038819 0.095621
v -0.304849 -0.290853 -0.095621
v -0.304849 -0.290853 0.095621
v -0.304849 -0.045629 -0.095621
v -0.304849 -0.045629 0.095621
v 0.301054 -0.045629 -0.095621
v 0.301054 -0.045629 0.095621
v 0.301054 -0.290853 -0.095621
v 0.301054 -0.290853 0.095621
v 0.193075 -0.206436 0.095621
v -0.196870 -0.206436 0.095621
v 0.193075 -0.045629 0.095621
v -0.196870 -0.045629 0.095621
v 0.193075 -0.206436 -0.095621
v -0.196870 -0.206436 -0.095621
v -0.196870 -0.045629 -0.095621
v 0.193075 -0.045629 -0.095621
v -0.196870 0.038819 -0.095621
v -0.196870 0.038819 0.095621
v -0.196870 0.286219 -0.095621
v -0.196870 0.286219 0.095621
v -0.081076 0.286219 -0.095621
v -0.081076 0.286219 0.095621
v -0.081076 0.038819 -0.095621
v -0.081076 0.038819 0.095621
vt 0.369044 0.958269
vt 0.369044 0.958269
vt 0.369044 0.958269
vt 0.369044 0.958269
vt 0.865003 0.958269
vt 0.865003 0.958269
vt 0.865003 0.958269
vt 0.865003 0.958269
vt 0.369044 0.958269
vt 0.369044 0.958269
vt 0.369044 0.958269
vt 0.369044 0.958269
vt 0.126308 0.958268
vt 0.126308 0.958268
vt 0.126308 0.958268
vt 0.126308 0.958268
vt 0.620417 0.958269
vt 0.620417 0.958269
vt 0.620417 0.958269
vt 0.620417 0.958269
vt 0.620417 0.958269
vt 0.620417 0.958269
vt 0.620417 0.958269
vt 0.620417 0.958269
vt 0.620417 0.958269
vt 0.620417 0.958269
vt 0.620417 0.958269
vt 0.620417 0.958269
vt 0.620417 0.958269
vt 0.620417 0.958269
vt 0.620417 0.958269
vt 0.620417 0.958269
vt 0.865003 0.958269
vt 0.865003 0.958269
vt 0.865003 0.958269
vt 0.865003 0.958269
vt 0.369044 0.958269
vt 0.369044 0.958269
vt 0.369044 0.958269
vt 0.369044 0.958269
vt 0.126308 0.958268
vt 0.126308 0.958268
vt 0.126308 0.958268
vt 0.126308 0.958268
vt 0.369044 0.958269
vt 0.369044 0.958269
vt 0.369044 0.958269
vt 0.369044 0.958269
vt 0.369044 0.958269
vt 0.369044 0.958269
vt 0.369044 0.958269
vt 0.369044 0.958269
vt 0.865003 0.958269
vt 0.865003 0.958269
vt 0.865003 0.958269
vt 0.865003 0.958269
vt 0.369044 0.958269
vt 0.369044 0.958269
vt 0.369044 0.958269
vt 0.369044 0.958269
vt 0.126308 0.958268
vt 0.126308 0.958268
vt 0.126308 0.958268
vt 0.126308 0.958268
vt 0.620417 0.958269
vt 0.620417 0.958269
vt 0.620417 0.958269
vt 0.620417 0.958269
vt 0.620417 0.958269
vt 0.620417 0.958269
vt 0.620417 0.958269
vt 0.620417 0.958269
vt 0.369044 0.958269
vt 0.369044 0.958269
vt 0.369044 0.958269
vt 0.369044 0.958269
vt 0.369044 0.958269
vt 0.369044 0.958269
vt 0.369044 0.958269
vt 0.369044 0.958269
vt 0.126308 0.958268
vt 0.126308 0.958268
vt 0.126308 0.958268
vt 0.126308 0.958268
vt 0.620417 0.958269
vt 0.620417 0.958269
vt 0.620417 0.958269
vt 0.620417 0.958269
vt 0.620417 0.958269
vt 0.620417 0.958269
vt 0.620417 0.958269
vt 0.620417 0.958269
vt 0.620417 0.958269
vt 0.620417 0.958269
vt 0.620417 0.958269
vt 0.620417 0.958269
vt 0.620417 0.958269
vt 0.620417 0.958269
vt 0.620417 0.958269
vt 0.620417 0.958269
vt 0.865003 0.958269
vt 0.865003 0.958269
vt 0.865003 0.958269
vt 0.865003 0.958269
vt 0.369044 0.958269
vt 0.369044 0.958269
vt 0.369044 0.958269
vt 0.369044 0.958269
vt 0.369044 0.958269
vt 0.369044 0.958269
vt 0.369044 0.958269
vt 0.369044 0.958269
vt 0.884747 0.958261
vt 0.884747 0.958261
vt 0.884747 0.958261
vt 0.884747 0.958261
vt 0.884747 0.958261
vt 0.884747 0.958261
vt 0.884747 0.958261
vt 0.884747 0.958261
vt 0.369044 0.958269
vt 0.369044 0.958269
vt 0.369044 0.958269
vt 0.369044 0.958269
vt 0.865003 0.958269
vt 0.865003 0.958269
vt 0.865003 0.958269
vt 0.865003 0.958269
vt 0.369044 0.958269
vt 0.369044 0.958269
vt 0.369044 0.958269
vt 0.369044 0.958269
vt 0.126308 0.958268
vt 0.126308 0.958268
vt 0.126308 0.958268
vt 0.126308 0.958268
vt 0.620417 0.958269
vt 0.620417 0.958269
vt 0.620417 0.958269
vt 0.620417 0.958269
vt 0.620417 0.958269
vt 0.620417 0.958269
vt 0.620417 0.958269
vt 0.620417 0.958269
vn -1.000000 0.000000 0.000000
vn -1.000000 0.000000 0.000000
vn -1.000000 0.000000 0.000000
vn -1.000000 0.000000 0.000000
vn 0.000000 1.000000 0.000000
vn 0.000000 1.000000 0.000000
vn 0.000000 1.000000 0.000000
vn 0.000000 1.000000 0.000000
vn 1.000000 0.000000 0.000000
vn 1.000000 0.000000 0.000000
vn 1.000000 0.000000 0.000000
vn 1.000000 0.000000 0.000000
vn 0.000000 -1.000000 0.000000
vn 0.000000 -1.000000 0.000000
vn 0.000000 -1.000000 0.000000
vn 0.000000 -1.000000 0.000000
vn 0.000000 0.000000 1.000000
vn 0.000000 0.000000 1.000000
vn 0.000000 0.000000 1.000000
vn 0.000000 0.000000 1.000000
vn 0.000000 0.000000 1.000000
vn 0.000000 0.000000 1.000000
vn 0.000000 0.000000 1.000000
vn 0.000000 0.000000 1.000000
vn 0.000000 0.000000 1.000000
vn 0.000000 0.000000 1.000000
vn 0.000000 0.000000 1.000000
vn 0.000000 0.000000 1.000000
vn 0.000000 0.000000 1.000000
vn 0.000000 0.000000 1.000000
vn 0.000000 0.000000 1.000000
vn 0.000000 0.000000 1.000000
vn 0.000000 0.000000 -1.000000
vn 0.000000 0.000000 -1.000000
vn 0.000000 0.000000 -1.000000
vn 0.000000 0.000000 -1.000000
vn 0.000000 0.000000 -1.000000
vn 0.000000 0.000000 -1.000000
vn 0.000000 0.000000 -1.000000
vn 0.000000 0.000000 -1.000000
vn 0.000000 0.000000 -1.000000
vn 0.000000 0.000000 -1.000000
vn 0.000000 0.000000 -1.000000
vn 0.000000 0.000000 -1.000000
vn 0.000000 0.000000 -1.000000
vn 0.000000 0.000000 -1.000000
vn 0.000000 0.000000 -1.000000
vn 0.000000 0.000000 -1.000000
vn 0.000000 1.000000 0.000000
vn 0.000000 1.000000 0.000000
vn 0.000000 1.000000 0.000000
vn 0.000000 1.000000 0.000000
vn -1.000000 0.000000 0.000000
vn -1.000000 0.000000 0.000000
vn -1.000000 0.000000 0.000000
vn -1.000000 0.000000 0.000000
vn 0.000000 -1.000000 0.000000
vn 0.000000 -1.000000 0.000000
vn 0.000000 -1.000000 0.000000
vn 0.000000 -1.000000 0.000000
vn 1.000000 0.000000 0.000000
vn 1.000000 0.000000 0.000000
vn 1.000000 0.000000 0.000000
vn 1.000000 0.000000 0.000000
vn -1.000000 0.000000 0.000000
vn -1.000000 0.000000 0.000000
vn -1.000000 0.000000 0.000000
vn -1.000000 0.000000 0.000000
vn 0.000000 1.000000 0.000000
vn 0.000000 1.000000 0.000000
vn 0.000000 1.000000 0.000000
vn 0.000000 1.000000 0.000000
vn 1.000000 0.000000 0.000000
vn 1.000000 0.000000 0.000000
vn 1.000000 0.000000 0.000000
vn 1.000000 0.000000 0.000000
vn 0.000000 -1.000000 0.000000
vn 0.000000 -1.000000 0.000000
vn 0.000000 -1.000000 0.000000
vn 0.000000 -1.000000 0.000000
vn 0.000000 0.000000 1.000000
vn 0.000000 0.000000 1.000000
vn 0.000000 0.000000 1.000000
vn 0.000000 0.000000 1.000000
vn 0.000000 0.000000 -1.000000
vn 0.000000 0.000000 -1.000000
vn 0.000000 0.000000 -1.000000
vn 0.000000 0.000000 -1.000000
vn -1.000000 0.000000 0.000000
vn -1.000000 0.000000 0.000000
vn -1.000000 0.000000 0.000000
vn -1.000000 0.000000 0.000000
vn 1.000000 0.000000 0.000000
vn 1.000000 0.000000 0.000000
vn 1.000000 0.000000 0.000000
vn 1.000000 0.000000 0.000000
vn 0.000000 -1.000000 0.000000
vn 0.000000 -1.000000 0.000000
vn 0.000000 -1.000000 0.000000
vn 0.000000 -1.000000 0.000000
vn 0.000000 0.000000 1.000000
vn 0.000000 0.000000 1.000000
vn 0.000000 0.000000 1.000000
vn 0.000000 0.000000 1.000000
vn 0.000000 0.000000 1.000000
vn 0.000000 0.000000 1.000000
vn 0.000000 0.000000 1.000000
vn 0.000000 0.000000 1.000000
vn 0.000000 0.000000 1.000000
vn 0.000000 0.000000 1.000000
vn 0.000000 0.000000 1.000000
vn 0.000000 0.000000 1.000000
vn 0.000000 0.000000 -1.000000
vn 0.000000 0.000000 -1.000000
vn 0.000000 0.000000 -1.000000
vn 0.000000 0.000000 -1.000000
vn 0.000000 0.000000 -1.000000
vn 0.000000 0.000000 -1.000000
vn 0.000000 0.000000 -1.000000
vn 0.000000 0.000000 -1.000000
vn -0.000000 0.000000 -1.000000
vn -0.000000 0.000000 -1.000000
vn -0.000000 0.000000 -1.000000
vn -0.000000 0.000000 -1.000000
vn 0.000000 1.000000 0.000000
vn 0.000000 1.000000 0.000000
vn 0.000000 1.000000 0.000000
vn 0.000000 1.000000 0.000000
vn -1.000000 0.000000 0.000000
vn -1.000000 0.000000 0.000000
vn -1.000000 0.000000 0.000000
vn -1.000000 0.000000 0.000000
vn 1.000000 0.000000 0.000000
vn 1.000000 0.000000 0.000000
vn 1.000000 0.000000 0.000000
vn 1.000000 0.000000 0.000000
vn 0.000000 1.000000 0.000000
vn 0.000000 1.000000 0.000000
vn 0.000000 1.000000 0.000000
vn 0.000000 1.000000 0.000000
vn 0.000000 1.000000 0.000000
vn 0.000000 1.000000 0.000000
vn 0.000000 1.000000 0.000000
vn 0.000000 1.000000 0.000000
vn -1.000000 0.000000 0.000000
vn -1.000000 0.000000 0.000000
vn -1.000000 0.000000 0.000000
vn -1.000000 0.000000 0.000000
vn 0.000000 1.000000 0.000000
vn 0.000000 1.000000 0.000000
vn 0.000000 1.000000 0.000000
vn 0.000000 1.000000 0.000000
vn 1.000000 0.000000 0.000000
vn 1.000000 0.000000 0.000000
vn 1.000000 0.000000 0.000000
vn 1.000000 0.000000 0.000000
vn 0.000000 -1.000000 0.000000
vn 0.000000 -1.000000 0.000000
vn 0.000000 -1.000000 0.000000
vn 0.000000 -1.000000 0.000000
vn 0.000000 0.000000 1.000000
vn 0.000000 0.000000 1.000000
vn 0.000000 0.000000 1.000000
vn 0.000000 0.000000 1.000000
vn 0.000000 0.000000 -1.000000
vn 0.000000 0.000000 -1.000000
vn 0.000000 0.000000 -1.000000
vn 0.000000 0.000000 -1.000000
s off
f 1/1/1 2/2/2 4/3/3 3/4/4
f 3/5/5 4/6/6 6/7/7 5/8/8
f 5/9/9 6/10/10 8/11/11 7/12/12
f 7/13/13 8/14/14 2/15/15 1/16/16
f 2/17/17 8/18/18 9/19/19 10/20/20
f 8/18/21 6/21/22 11/22/23 9/19/24
f 6/21/25 4/23/26 12/24/27 11/22/28
f 4/23/29 2/17/30 10/20/31 12/24/32
f 7/25/33 1/26/34 14/27/35 13/28/36
f 1/26/37 3/29/38 15/30/39 14/27/40
f 3/29/41 5/31/42 16/32/43 15/30/44
f 5/31/45 7/25/46 13/28/47 16/32/48
f 10/33/49 9/34/50 13/35/51 14/36/52
f 9/37/53 11/38/54 16/39/55 13/40/56
f 11/41/57 12/42/58 15/43/59 16/44/60
f 12/45/61 10/46/62 14/47/63 15/48/64
f 17/49/65 18/50/66 20/51/67 19/52/68
f 19/53/69 20/54/70 22/55/71 21/56/72
f 21/57/73 22/58/74 24/59/75 23/60/76
f 23/61/77 24/62/78 18/63/79 17/64/80
f 18/65/81 24/66/82 22/67/83 20/68/84
f 23/69/85 17/70/86 19/71/87 21/72/88
f 25/73/89 26/74/90 28/75/91 27/76/92
f 29/77/93 30/78/94 32/79/95 31/80/96
f 31/81/97 32/82/98 26/83/99 25/84/100
f 26/85/101 32/86/102 33/87/103 34/88/104
f 32/86/105 30/89/106 35/90/107 33/87/108
f 28/91/109 26/85/110 34/88/111 36/92/112
f 31/93/113 25/94/114 38/95/115 37/96/116
f 25/94/117 27/97/118 39/98/119 38/95/120
f 29/99/121 31/93/122 37/96/123 40/100/124
f 34/101/125 33/102/126 37/103/127 38/104/128
f 33/105/129 35/106/130 40/107/131 37/108/132
f 36/109/133 34/110/134 38/111/135 39/112/136
f 28/113/137 36/114/138 39/115/139 27/116/140
f 30/117/141 29/118/142 40/119/143 35/120/144
f 41/121/145 42/122/146 44/123/147 43/124/148
f 43/125/149 44/126/150 46/127/151 45/128/152
f 45/129/153 46/130/154 48/131/155 47/132/156
f 47/133/157 48/134/158 42/135/159 41/136/160
f 42/137/161 48/138/162 46/139/163 44/140/164
f 47/141/165 41/142/166 43/143/167 45/144/168
