# This file uses centimeters as units for non-parametric coordinates.

v -0.320910 -0.574661 -0.095620
v -0.320910 -0.574661 0.095622
v -0.320910 -0.076243 -0.095623
v -0.320910 -0.076243 0.095619
v 0.320907 -0.076243 -0.095623
v 0.320907 -0.076243 0.095619
v 0.320907 -0.574661 -0.095620
v 0.320907 -0.574661 0.095622
v 0.212280 -0.505198 0.095622
v -0.212282 -0.505198 0.095622
v 0.212280 -0.145706 0.095618
v -0.212282 -0.145706 0.095618
v 0.212280 -0.505198 -0.095620
v -0.212282 -0.505198 -0.095620
v -0.212282 -0.145706 -0.095623
v 0.212280 -0.145706 -0.095623
v 0.172845 -0.076243 -0.095623
v 0.172845 -0.076243 0.095618
v -0.172849 -0.076243 -0.095623
v -0.172849 -0.076243 0.095618
v -0.172849 0.574661 -0.095626
v -0.172849 0.574661 0.095615
v 0.172845 0.574661 0.095615
v 0.172845 0.574661 -0.095626
v 0.076472 -0.145706 0.095618
v 0.076472 -0.145706 -0.095623
v -0.078155 -0.145706 0.095618
v -0.078155 -0.145706 -0.095623
v 0.076471 0.523598 0.095615
v -0.078155 0.523598 0.095615
v -0.078155 0.523598 -0.095626
v 0.076471 0.523598 -0.095626
v 0.076472 0.011808 0.095618
v 0.172845 0.011808 0.095618
v 0.172845 0.011808 -0.095623
v 0.076472 0.011808 -0.095623
v 0.172845 0.037935 -0.095623
v 0.172845 0.037935 0.095618
v 0.076472 0.037935 0.095618
v 0.076472 0.037935 -0.095623
v 0.172845 0.196626 -0.095623
v 0.172845 0.196626 0.095618
v 0.076472 0.196626 0.095618
v 0.076472 0.196626 -0.095623
v 0.172845 0.231055 -0.095624
v 0.172845 0.231055 0.095617
v 0.076472 0.231055 0.095617
v 0.076472 0.231055 -0.095624
v 0.172845 0.380814 -0.095624
v 0.172845 0.380814 0.095617
v 0.076472 0.380814 0.095617
v 0.076472 0.380814 -0.095624
v 0.172845 0.411848 -0.095625
v 0.172845 0.411848 0.095616
v 0.076472 0.411848 0.095616
v 0.076472 0.411848 -0.095625
v -0.162408 -0.476833 -0.095617
v -0.162408 -0.476833 0.095625
v -0.162408 -0.178821 -0.095617
v -0.162408 -0.178821 0.095625
v 0.164809 -0.178821 -0.095616
v 0.164809 -0.178821 0.095626
v 0.164809 -0.476833 -0.095616
v 0.164809 -0.476833 0.095626
v 0.038338 -0.178821 -0.095616
v 0.038338 -0.178821 0.095626
v -0.041290 -0.178821 -0.095616
v -0.041290 -0.178821 0.095626
v -0.041290 0.308391 -0.095616
v -0.041290 0.308391 0.095626
v 0.038338 0.308391 0.095626
v 0.038338 0.308391 -0.095616
vt 0.369044 0.958269
vt 0.369044 0.958269
vt 0.369044 0.958269
vt 0.369044 0.958269
vt 0.865003 0.958269
vt 0.865003 0.958269
vt 0.865003 0.958269
vt 0.865003 0.958269
vt 0.369044 0.958269
vt 0.369044 0.958269
vt 0.369044 0.958269
vt 0.369044 0.958269
vt 0.126308 0.958268
vt 0.126308 0.958268
vt 0.126308 0.958268
vt 0.126308 0.958268
vt 0.620417 0.958269
vt 0.620417 0.958269
vt 0.620417 0.958269
vt 0.620417 0.958269
vt 0.620417 0.958269
vt 0.620417 0.958269
vt 0.620417 0.958269
vt 0.620417 0.958269
vt 0.620417 0.958269
vt 0.620417 0.958269
vt 0.620417 0.958269
vt 0.620417 0.958269
vt 0.620417 0.958269
vt 0.620417 0.958269
vt 0.620417 0.958269
vt 0.620417 0.958269
vt 0.865003 0.958269
vt 0.865003 0.958269
vt 0.865003 0.958269
vt 0.865003 0.958269
vt 0.369044 0.958269
vt 0.369044 0.958269
vt 0.369044 0.958269
vt 0.369044 0.958269
vt 0.126308 0.958268
vt 0.126308 0.958268
vt 0.126308 0.958268
vt 0.126308 0.958268
vt 0.369044 0.958269
vt 0.369044 0.958269
vt 0.369044 0.958269
vt 0.369044 0.958269
vt 0.620417 0.958269
vt 0.865003 0.958269
vt 0.865003 0.958269
vt 0.620417 0.958269
vt 0.620417 0.958269
vt 0.865003 0.958269
vt 0.865003 0.958269
vt 0.620417 0.958269
vt 0.865003 0.958269
vt 0.865003 0.958269
vt 0.865003 0.958269
vt 0.865003 0.958269
vt 0.617133 0.958290
vt 0.620417 0.958269
vt 0.126308 0.958268
vt 0.126308 0.958268
vt 0.620417 0.958269
vt 0.617133 0.958290
vt 0.617133 0.958290
vt 0.620417 0.958269
vt 0.126308 0.958268
vt 0.126308 0.958268
vt 0.620417 0.958269
vt 0.617133 0.958290
vt 0.617133 0.958290
vt 0.617133 0.958290
vt 0.617133 0.958290
vt 0.617133 0.958290
vt 0.373110 0.958274
vt 0.373110 0.958274
vt 0.373110 0.958274
vt 0.373110 0.958274
vt 0.373110 0.958274
vt 0.373110 0.958274
vt 0.373110 0.958274
vt 0.373110 0.958274
vt 0.134172 0.958271
vt 0.134172 0.958271
vt 0.134172 0.958271
vt 0.134172 0.958271
vt 0.617133 0.958290
vt 0.617133 0.958290
vt 0.617133 0.958290
vt 0.617133 0.958290
vt 0.617133 0.958290
vt 0.617133 0.958290
vt 0.617133 0.958290
vt 0.617133 0.958290
vt 0.378194 0.958271
vt 0.378194 0.958271
vt 0.378194 0.958271
vt 0.378194 0.958271
vt 0.378194 0.958271
vt 0.378194 0.958271
vt 0.378194 0.958271
vt 0.378194 0.958271
vt 0.617133 0.958290
vt 0.373110 0.958274
vt 0.617133 0.958290
vt 0.378194 0.958271
vt 0.378194 0.958271
vt 0.617133 0.958290
vt 0.617133 0.958290
vt 0.373110 0.958274
vt 0.378194 0.958271
vt 0.617133 0.958290
vt 0.617133 0.958290
vt 0.378194 0.958271
vt 0.617133 0.958290
vt 0.373110 0.958274
vt 0.617133 0.958290
vt 0.373110 0.958274
vt 0.378194 0.958271
vt 0.617133 0.958290
vt 0.617133 0.958290
vt 0.378194 0.958271
vt 0.617133 0.958290
vt 0.373110 0.958274
vt 0.617133 0.958290
vt 0.373110 0.958274
vt 0.378194 0.958271
vt 0.617133 0.958290
vt 0.617133 0.958290
vt 0.378194 0.958271
vt 0.617133 0.958290
vt 0.373110 0.958274
vt 0.617133 0.958290
vt 0.373110 0.958274
vt 0.378194 0.958271
vt 0.617133 0.958290
vt 0.617133 0.958290
vt 0.378194 0.958271
vt 0.617133 0.958290
vt 0.373110 0.958274
vt 0.617133 0.958290
vt 0.373110 0.958274
vt 0.378194 0.958271
vt 0.617133 0.958290
vt 0.617133 0.958290
vt 0.378194 0.958271
vt 0.617133 0.958290
vt 0.373110 0.958274
vt 0.617133 0.958290
vt 0.373110 0.958274
vt 0.118920 0.958277
vt 0.118920 0.958277
vt 0.118920 0.958277
vt 0.118920 0.958277
vt 0.118920 0.958277
vt 0.118920 0.958277
vt 0.118920 0.958277
vt 0.118920 0.958277
vt 0.118920 0.958277
vt 0.118920 0.958277
vt 0.118920 0.958277
vt 0.118920 0.958277
vt 0.840820 0.958274
vt 0.840820 0.958274
vt 0.840820 0.958274
vt 0.840820 0.958274
vt 0.840820 0.958274
vt 0.840820 0.958274
vt 0.840820 0.958274
vt 0.840820 0.958274
vt 0.840820 0.958274
vt 0.840820 0.958274
vt 0.840820 0.958274
vt 0.840820 0.958274
vt 0.369044 0.958269
vt 0.369044 0.958269
vt 0.369044 0.958269
vt 0.369044 0.958269
vt 0.865003 0.958269
vt 0.865003 0.958269
vt 0.865003 0.958269
vt 0.865003 0.958269
vt 0.369044 0.958269
vt 0.369044 0.958269
vt 0.369044 0.958269
vt 0.369044 0.958269
vt 0.126308 0.958268
vt 0.126308 0.958268
vt 0.126308 0.958268
vt 0.126308 0.958268
vt 0.620417 0.958269
vt 0.620417 0.958269
vt 0.620417 0.958269
vt 0.620417 0.958269
vt 0.620417 0.958269
vt 0.620417 0.958269
vt 0.620417 0.958269
vt 0.620417 0.958269
vt 0.620417 0.958269
vt 0.620417 0.958269
vt 0.620417 0.958269
vt 0.620417 0.958269
vt 0.865003 0.958269
vt 0.865003 0.958269
vt 0.865003 0.958269
vt 0.865003 0.958269
vt 0.865003 0.958269
vt 0.865003 0.958269
vt 0.865003 0.958269
vt 0.865003 0.958269
vt 0.352775 0.958267
vt 0.352775 0.958267
vt 0.352775 0.958267
vt 0.352775 0.958267
vt 0.632384 0.958267
vt 0.632384 0.958267
vt 0.632384 0.958267
vt 0.632384 0.958267
vt 0.352775 0.958267
vt 0.352775 0.958267
vt 0.352775 0.958267
vt 0.352775 0.958267
vt 0.632384 0.958267
vt 0.632384 0.958267
vt 0.632384 0.958267
vt 0.632384 0.958267
vn -1.000000 0.000000 0.000000
vn -1.000000 0.000000 0.000000
vn -1.000000 0.000000 0.000000
vn -1.000000 0.000000 0.000000
vn 0.000000 1.000000 0.000000
vn 0.000000 1.000000 0.000000
vn 0.000000 1.000000 0.000000
vn 0.000000 1.000000 0.000000
vn 1.000000 0.000000 0.000000
vn 1.000000 0.000000 0.000000
vn 1.000000 0.000000 0.000000
vn 1.000000 0.000000 0.000000
vn 0.000000 -1.000000 0.000000
vn 0.000000 -1.000000 0.000000
vn 0.000000 -1.000000 0.000000
vn 0.000000 -1.000000 0.000000
vn 0.000000 0.000000 1.000000
vn 0.000000 0.000000 1.000000
vn 0.000000 0.000000 1.000000
vn 0.000000 0.000000 1.000000
vn -0.000002 0.000007 1.000000
vn -0.000002 0.000007 1.000000
vn -0.000002 0.000007 1.000000
vn -0.000002 0.000007 1.000000
vn -0.000002 -0.000001 1.000000
vn -0.000002 -0.000001 1.000000
vn -0.000002 -0.000001 1.000000
vn -0.000002 -0.000001 1.000000
vn 0.000002 0.000007 1.000000
vn 0.000002 0.000007 1.000000
vn 0.000002 0.000007 1.000000
vn 0.000002 0.000007 1.000000
vn 0.000000 0.000000 -1.000000
vn 0.000000 0.000000 -1.000000
vn 0.000000 0.000000 -1.000000
vn 0.000000 0.000000 -1.000000
vn -0.000000 -0.000007 -1.000000
vn -0.000000 -0.000007 -1.000000
vn -0.000000 -0.000007 -1.000000
vn -0.000000 -0.000007 -1.000000
vn 0.000000 0.000000 -1.000000
vn 0.000000 0.000000 -1.000000
vn 0.000000 0.000000 -1.000000
vn 0.000000 0.000000 -1.000000
vn 0.000000 -0.000007 -1.000000
vn 0.000000 -0.000007 -1.000000
vn 0.000000 -0.000007 -1.000000
vn 0.000000 -0.000007 -1.000000
vn 0.000000 1.000000 0.000000
vn 0.000000 1.000000 0.000000
vn 0.000000 1.000000 0.000000
vn 0.000000 1.000000 0.000000
vn -1.000000 -0.000000 0.000000
vn -1.000000 -0.000000 0.000000
vn -1.000000 -0.000000 0.000000
vn -1.000000 -0.000000 0.000000
vn 1.000000 0.000000 0.000000
vn 1.000000 0.000000 0.000000
vn 1.000000 0.000000 0.000000
vn 1.000000 0.000000 0.000000
vn 0.000000 -1.000000 0.000000
vn 0.000000 -1.000000 0.000000
vn -0.745482 -0.642757 0.176411
vn -0.745482 -0.642756 -0.176411
vn 0.000000 1.000000 0.000000
vn 0.000000 1.000000 0.000000
vn 0.000000 1.000000 0.000000
vn 0.000000 1.000000 0.000000
vn -1.000000 -0.000000 0.000000
vn -1.000000 -0.000000 0.000000
vn -1.000000 -0.000000 0.000000
vn -1.000000 -0.000000 0.000000
vn 0.000000 1.000000 0.000000
vn 0.000000 1.000000 0.000000
vn 0.000000 1.000000 0.000000
vn 0.000000 1.000000 0.000000
vn 0.000003 0.000004 1.000000
vn 0.942733 -0.188921 0.274890
vn 0.764740 -0.176672 0.619645
vn 0.000003 0.000004 1.000000
vn 0.000002 -0.000001 1.000000
vn 0.000002 -0.000001 1.000000
vn 0.000002 -0.000001 1.000000
vn 0.000002 -0.000001 1.000000
vn 0.942733 -0.188923 -0.274889
vn 0.942733 -0.188921 0.274890
vn 0.000000 -1.000000 0.000000
vn 0.000000 -1.000000 0.000000
vn 0.000000 0.000000 -1.000000
vn 0.000000 0.000000 -1.000000
vn 0.000000 0.000000 -1.000000
vn 0.000000 0.000000 -1.000000
vn -0.000003 -0.000004 -1.000000
vn 0.764737 -0.176677 -0.619648
vn 0.942733 -0.188923 -0.274889
vn -0.000003 -0.000004 -1.000000
vn 0.000003 0.000004 1.000000
vn 0.764740 -0.176672 0.619645
vn -0.400611 -0.554312 0.729554
vn -0.000001 0.000005 1.000000
vn 0.000001 -0.000002 -1.000000
vn -0.400607 -0.554315 -0.729554
vn 0.764737 -0.176677 -0.619648
vn -0.000003 -0.000004 -1.000000
vn 0.942733 -0.188923 -0.274889
vn 0.764737 -0.176677 -0.619648
vn 0.764740 -0.176672 0.619645
vn 0.942733 -0.188921 0.274890
vn 0.764737 -0.176677 -0.619648
vn -0.400607 -0.554315 -0.729554
vn -0.400611 -0.554312 0.729554
vn 0.764740 -0.176672 0.619645
vn -0.000001 0.000004 1.000000
vn -0.930764 0.000001 0.365622
vn -0.745482 -0.642757 0.176411
vn -0.000001 0.000004 1.000000
vn 1.000000 0.000000 0.000000
vn 1.000000 0.000000 0.000000
vn 1.000000 0.000000 0.000000
vn 1.000000 0.000000 0.000000
vn 0.000000 0.000000 -1.000000
vn -0.745482 -0.642756 -0.176411
vn -0.930763 -0.000000 -0.365622
vn 0.000000 0.000000 -1.000000
vn -0.930764 0.000001 0.365622
vn -0.930763 -0.000000 -0.365622
vn -0.745482 -0.642756 -0.176411
vn -0.745482 -0.642757 0.176411
vn 1.000000 -0.000000 0.000000
vn 1.000000 -0.000000 0.000000
vn 1.000000 -0.000000 0.000000
vn 1.000000 -0.000000 0.000000
vn -0.000002 0.000002 1.000000
vn -0.893017 0.000001 0.450023
vn -0.893017 0.000001 0.450023
vn -0.000002 0.000002 1.000000
vn -0.893017 0.000001 0.450023
vn -0.893016 -0.000001 -0.450025
vn -0.893017 -0.000001 -0.450023
vn -0.893017 0.000001 0.450023
vn 0.000000 -0.000003 -1.000000
vn -0.893017 -0.000001 -0.450023
vn -0.893016 -0.000001 -0.450025
vn 0.000000 -0.000003 -1.000000
vn 1.000000 0.000000 0.000000
vn 1.000000 0.000000 0.000000
vn 1.000000 0.000000 0.000000
vn 1.000000 0.000000 0.000000
vn 0.000000 0.000000 1.000000
vn -0.893017 0.000000 0.450023
vn -0.893017 0.000000 0.450023
vn 0.000000 0.000000 1.000000
vn -0.893017 0.000000 0.450023
vn -0.893017 -0.000001 -0.450024
vn -0.893017 -0.000001 -0.450022
vn -0.893017 0.000000 0.450023
vn 0.000000 -0.000003 -1.000000
vn -0.893017 -0.000001 -0.450022
vn -0.893017 -0.000001 -0.450024
vn 0.000000 -0.000003 -1.000000
vn 1.000000 -0.000000 0.000000
vn 1.000000 -0.000000 0.000000
vn 1.000000 -0.000000 0.000000
vn 1.000000 -0.000000 0.000000
vn -0.000001 0.000005 1.000000
vn -0.400611 -0.554312 0.729554
vn -0.850256 0.000003 0.526369
vn -0.000002 0.000007 1.000000
vn -0.400607 -0.554315 -0.729554
vn -0.850258 -0.000002 -0.526367
vn -0.850256 0.000003 0.526369
vn -0.400611 -0.554312 0.729554
vn 0.000001 -0.000003 -1.000000
vn -0.850258 -0.000002 -0.526367
vn -0.400607 -0.554315 -0.729554
vn 0.000001 -0.000002 -1.000000
vn 0.000000 1.000000 0.000000
vn 0.000000 1.000000 0.000000
vn 0.000000 1.000000 0.000000
vn 0.000000 1.000000 0.000000
vn 0.000000 -1.000000 0.000000
vn 0.000000 -1.000000 0.000000
vn 0.000000 -1.000000 0.000000
vn 0.000000 -1.000000 0.000000
vn 0.000000 1.000000 0.000000
vn 0.000000 1.000000 0.000000
vn 0.000000 1.000000 0.000000
vn 0.000000 1.000000 0.000000
vn 0.000000 -1.000000 0.000000
vn 0.000000 -1.000000 0.000000
vn 0.000000 -1.000000 0.000000
vn 0.000000 -1.000000 0.000000
vn 0.000000 1.000000 0.000000
vn 0.000000 1.000000 0.000000
vn 0.000000 1.000000 0.000000
vn 0.000000 1.000000 0.000000
vn 0.000000 -1.000000 0.000000
vn 0.000000 -1.000000 0.000000
vn 0.000000 -1.000000 0.000000
vn 0.000000 -1.000000 0.000000
vn -1.000000 0.000000 0.000000
vn -1.000000 0.000000 0.000000
vn -1.000000 0.000000 0.000000
vn -1.000000 0.000000 0.000000
vn 0.000000 1.000000 0.000000
vn 0.000000 1.000000 0.000000
vn 0.000000 1.000000 0.000000
vn 0.000000 1.000000 0.000000
vn 1.000000 0.000000 0.000000
vn 1.000000 0.000000 0.000000
vn 1.000000 0.000000 0.000000
vn 1.000000 0.000000 0.000000
vn 0.000000 -1.000000 0.000000
vn 0.000000 -1.000000 0.000000
vn 0.000000 -1.000000 0.000000
vn 0.000000 -1.000000 0.000000
vn -0.000003 -0.000001 1.000000
vn -0.000003 -0.000001 1.000000
vn -0.000003 -0.000001 1.000000
vn -0.000003 -0.000001 1.000000
vn -0.000003 -0.000001 1.000000
vn -0.000003 -0.000001 1.000000
vn 0.000003 0.000001 -1.000000
vn 0.000003 0.000001 -1.000000
vn 0.000003 0.000001 -1.000000
vn 0.000003 0.000001 -1.000000
vn 0.000003 0.000001 -1.000000
vn 0.000003 0.000001 -1.000000
vn 0.000000 1.000000 0.000000
vn 0.000000 1.000000 0.000000
vn 0.000000 1.000000 0.000000
vn 0.000000 1.000000 0.000000
vn 0.000000 1.000000 0.000000
vn 0.000000 1.000000 0.000000
vn 0.000000 1.000000 0.000000
vn 0.000000 1.000000 0.000000
vn -1.000000 0.000000 0.000000
vn -1.000000 0.000000 0.000000
vn -1.000000 0.000000 0.000000
vn -1.000000 0.000000 0.000000
vn 0.000000 0.000000 1.000000
vn 0.000000 0.000000 1.000000
vn 0.000000 0.000000 1.000000
vn 0.000000 0.000000 1.000000
vn 1.000000 0.000000 0.000000
vn 1.000000 0.000000 0.000000
vn 1.000000 0.000000 0.000000
vn 1.000000 0.000000 0.000000
vn 0.000000 0.000000 -1.000000
vn 0.000000 0.000000 -1.000000
vn 0.000000 0.000000 -1.000000
vn 0.000000 0.000000 -1.000000
s off
f 1/1/1 2/2/2 4/3/3 3/4/4
f 17/50/5 18/51/6 6/7/7 5/8/8
f 5/9/9 6/10/10 8/11/11 7/12/12
f 7/13/13 8/14/14 2/15/15 1/16/16
f 2/17/17 8/18/18 9/19/19 10/20/20
f 8/18/21 6/21/22 11/22/23 9/19/24
f 11/22/25 6/21/26 18/52/27 25/62/28
f 4/23/29 2/17/30 10/20/31 12/24/32
f 7/25/33 1/26/34 14/27/35 13/28/36
f 1/26/37 3/29/38 15/30/39 14/27/40
f 17/49/41 5/31/42 16/32/43 26/65/44
f 5/31/45 7/25/46 13/28/47 16/32/48
f 10/33/49 9/34/50 13/35/51 14/36/52
f 9/37/53 11/38/54 16/39/55 13/40/56
f 12/45/57 10/46/58 14/47/59 15/48/60
f 16/44/61 11/41/62 25/63/63 26/64/64
f 3/5/65 4/6/66 20/55/67 19/54/68
f 19/97/69 20/98/70 22/99/71 21/100/72
f 21/57/73 22/58/74 23/59/75 24/60/76
f 20/89/77 27/90/78 30/91/79 22/92/80
f 12/24/81 27/68/82 20/56/83 4/23/84
f 28/70/85 27/69/86 12/42/87 15/43/88
f 19/53/89 28/71/90 15/30/91 3/29/92
f 21/93/93 31/94/94 28/95/95 19/96/96
f 22/92/97 30/91/98 29/66/99 23/61/100
f 24/76/101 32/75/102 31/94/103 21/93/104
f 28/81/105 31/82/106 30/83/107 27/84/108
f 31/85/109 32/86/110 29/87/111 30/88/112
f 34/107/113 33/105/114 25/67/115 18/72/116
f 18/101/117 17/102/118 35/109/119 34/108/120
f 17/73/121 26/74/122 36/111/123 35/110/124
f 33/106/125 36/112/126 26/78/127 25/79/128
f 38/116/129 37/113/130 41/121/131 42/124/132
f 42/123/133 43/125/134 39/117/135 38/115/136
f 43/126/137 44/128/138 40/120/139 39/118/140
f 37/114/141 40/119/142 44/127/143 41/122/144
f 46/132/145 45/129/146 49/137/147 50/140/148
f 50/139/149 51/141/150 47/133/151 46/131/152
f 51/142/153 52/144/154 48/136/155 47/134/156
f 45/130/157 48/135/158 52/143/159 49/138/160
f 54/148/161 53/145/162 24/103/163 23/104/164
f 23/61/165 29/66/166 55/149/167 54/147/168
f 32/77/169 56/152/170 55/150/171 29/80/172
f 53/146/173 56/151/174 32/75/175 24/76/176
f 34/165/177 35/166/178 36/167/179 33/168/180
f 38/153/181 39/154/182 40/155/183 37/156/184
f 42/169/185 41/170/186 44/171/187 43/172/188
f 46/157/189 47/158/190 48/159/191 45/160/192
f 50/173/193 49/174/194 52/175/195 51/176/196
f 54/161/197 55/162/198 56/163/199 53/164/200
f 57/177/201 58/178/202 60/179/203 59/180/204
f 65/181/205 66/182/206 62/183/207 61/184/208
f 61/185/209 62/186/210 64/187/211 63/188/212
f 63/189/213 64/190/214 58/191/215 57/192/216
f 58/193/217 64/194/218 62/195/219 66/196/220 68/197/221 60/198/222
f 63/199/223 57/200/224 59/201/225 67/202/226 65/203/227 61/204/228
f 69/205/229 70/206/230 71/207/231 72/208/232
f 59/209/233 60/210/234 68/211/235 67/212/236
f 67/213/237 68/214/238 70/215/239 69/216/240
f 68/217/241 66/218/242 71/219/243 70/220/244
f 66/221/245 65/222/246 72/223/247 71/224/248
f 65/225/249 67/226/250 69/227/251 72/228/252
