# This file uses centimeters as units for non-parametric coordinates.

v -0.206539 -0.234978 -0.100038
v -0.206539 -0.234978 0.100038
v 0.389492 0.543895 -0.100038
v 0.389492 0.543895 0.100038
v 0.563377 0.406456 -0.100038
v 0.563377 0.406456 0.100038
v -0.206480 -0.543895 -0.100038
v -0.206480 -0.543895 0.100038
v -0.563377 -0.215621 -0.100038
v -0.563377 -0.215621 0.100038
v -0.420990 -0.041979 0.100038
v -0.420990 -0.041979 -0.100038
vt 0.369044 0.953552
vt 0.369044 0.953552
vt 0.369044 0.953552
vt 0.369044 0.953552
vt 0.865003 0.953552
vt 0.865003 0.953552
vt 0.865003 0.953552
vt 0.865003 0.953552
vt 0.369044 0.953552
vt 0.369044 0.953552
vt 0.369044 0.953552
vt 0.369044 0.953552
vt 0.369044 0.953552
vt 0.369044 0.953552
vt 0.369044 0.953552
vt 0.369044 0.953552
vt 0.620417 0.953552
vt 0.620417 0.953552
vt 0.620417 0.953552
vt 0.620417 0.953552
vt 0.620417 0.953552
vt 0.620417 0.953552
vt 0.620417 0.953552
vt 0.620417 0.953552
vt 0.126308 0.953552
vt 0.126308 0.953552
vt 0.126308 0.953552
vt 0.126308 0.953552
vt 0.620417 0.953552
vt 0.620417 0.953552
vt 0.620417 0.953552
vt 0.620417 0.953552
vt 0.865003 0.953552
vt 0.865003 0.953552
vt 0.865003 0.953552
vt 0.865003 0.953552
vt 0.620417 0.953552
vt 0.620417 0.953552
vt 0.620417 0.953552
vt 0.620417 0.953552
vn -0.794150 0.607722 0.000000
vn -0.794150 0.607722 0.000000
vn -0.794150 0.607722 0.000000
vn -0.794150 0.607722 0.000000
vn 0.620093 0.784528 0.000000
vn 0.620093 0.784528 0.000000
vn 0.620093 0.784528 0.000000
vn 0.620093 0.784528 0.000000
vn 0.777035 -0.629458 0.000000
vn 0.777035 -0.629458 0.000000
vn 0.777035 -0.629458 0.000000
vn 0.777035 -0.629458 0.000000
vn -0.773266 0.634082 -0.000000
vn -0.773266 0.634082 -0.000000
vn -0.773266 0.634082 -0.000000
vn -0.773266 0.634082 -0.000000
vn -0.000000 0.000000 1.000000
vn -0.000000 0.000000 1.000000
vn -0.000000 0.000000 1.000000
vn -0.000000 0.000000 1.000000
vn -0.000000 0.000000 -1.000000
vn -0.000000 0.000000 -1.000000
vn -0.000000 0.000000 -1.000000
vn -0.000000 0.000000 -1.000000
vn -0.676977 -0.736004 0.000000
vn -0.676977 -0.736004 0.000000
vn -0.676977 -0.736004 0.000000
vn -0.676977 -0.736004 0.000000
vn -0.000000 -0.000000 1.000000
vn -0.000000 -0.000000 1.000000
vn -0.000000 -0.000000 1.000000
vn -0.000000 -0.000000 1.000000
vn 0.668953 0.743305 0.000000
vn 0.668953 0.743305 0.000000
vn 0.668953 0.743305 0.000000
vn 0.668953 0.743305 0.000000
vn -0.000000 0.000000 -1.000000
vn -0.000000 0.000000 -1.000000
vn -0.000000 0.000000 -1.000000
vn -0.000000 0.000000 -1.000000
s off
f 1/1/1 2/2/2 4/3/3 3/4/4
f 3/5/5 4/6/6 6/7/7 5/8/8
f 5/9/9 6/10/10 8/11/11 7/12/12
f 9/13/13 10/14/14 11/15/15 12/16/16
f 2/17/17 8/18/18 6/19/19 4/20/20
f 7/21/21 1/22/22 3/23/23 5/24/24
f 7/25/25 8/26/26 10/27/27 9/28/28
f 8/29/29 2/30/30 11/31/31 10/32/32
f 2/33/33 1/34/34 12/35/35 11/36/36
f 1/37/37 7/38/38 9/39/39 12/40/40
