# This file uses centimeters as units for non-parametric coordinates.

v -0.340582 -0.502671 -0.100038
v -0.340582 -0.502671 0.100038
v -0.340582 0.118502 -0.100038
v -0.340582 0.118502 0.100038
v 0.340582 0.118502 -0.100038
v 0.340582 0.118502 0.100038
v 0.340582 -0.502671 -0.100038
v 0.340582 -0.502671 0.100038
v -0.255201 0.106451 -0.066619
v -0.255201 0.106451 0.066619
v -0.255201 0.502671 -0.066619
v -0.255201 0.502671 0.066619
v 0.255201 0.502671 -0.066619
v 0.255201 0.502671 0.066619
v 0.255201 0.272483 -0.066619
v 0.255201 0.272483 0.066619
v 0.171804 0.272483 0.066619
v -0.171804 0.106451 0.066619
v 0.171804 0.397930 0.066619
v -0.171804 0.397930 0.066619
v 0.171804 0.272483 -0.066619
v -0.171804 0.106451 -0.066619
v -0.171804 0.397930 -0.066619
v 0.171804 0.397930 -0.066619
vt 0.369044 0.953551
vt 0.369044 0.953551
vt 0.369044 0.953551
vt 0.369044 0.953551
vt 0.865003 0.953551
vt 0.865003 0.953551
vt 0.865003 0.953551
vt 0.865003 0.953551
vt 0.369044 0.953551
vt 0.369044 0.953551
vt 0.369044 0.953551
vt 0.369044 0.953551
vt 0.126308 0.953551
vt 0.126308 0.953551
vt 0.126308 0.953551
vt 0.126308 0.953551
vt 0.620417 0.953551
vt 0.620417 0.953551
vt 0.620417 0.953551
vt 0.620417 0.953551
vt 0.620417 0.953551
vt 0.620417 0.953551
vt 0.620417 0.953551
vt 0.620417 0.953551
vt 0.369044 0.953551
vt 0.369044 0.953551
vt 0.369044 0.953551
vt 0.369044 0.953551
vt 0.865003 0.953551
vt 0.865003 0.953551
vt 0.865003 0.953551
vt 0.865003 0.953551
vt 0.369044 0.953551
vt 0.369044 0.953551
vt 0.369044 0.953551
vt 0.369044 0.953551
vt 0.620417 0.953551
vt 0.620417 0.953551
vt 0.620417 0.953551
vt 0.620417 0.953551
vt 0.620417 0.953551
vt 0.620417 0.953551
vt 0.620417 0.953551
vt 0.620417 0.953551
vt 0.620417 0.953551
vt 0.620417 0.953551
vt 0.620417 0.953551
vt 0.620417 0.953551
vt 0.620417 0.953551
vt 0.620417 0.953551
vt 0.620417 0.953551
vt 0.620417 0.953551
vt 0.126308 0.953551
vt 0.126308 0.953551
vt 0.126308 0.953551
vt 0.126308 0.953551
vt 0.126308 0.953551
vt 0.126308 0.953551
vt 0.126308 0.953551
vt 0.126308 0.953551
vt 0.126308 0.953551
vt 0.126308 0.953551
vt 0.126308 0.953551
vt 0.126308 0.953551
vn -1.000000 0.000000 0.000000
vn -1.000000 0.000000 0.000000
vn -1.000000 0.000000 0.000000
vn -1.000000 0.000000 0.000000
vn 0.000000 1.000000 0.000000
vn 0.000000 1.000000 0.000000
vn 0.000000 1.000000 0.000000
vn 0.000000 1.000000 0.000000
vn 1.000000 0.000000 0.000000
vn 1.000000 0.000000 0.000000
vn 1.000000 0.000000 0.000000
vn 1.000000 0.000000 0.000000
vn 0.000000 -1.000000 0.000000
vn 0.000000 -1.000000 0.000000
vn 0.000000 -1.000000 0.000000
vn 0.000000 -1.000000 0.000000
vn 0.000000 0.000000 1.000000
vn 0.000000 0.000000 1.000000
vn 0.000000 0.000000 1.000000
vn 0.000000 0.000000 1.000000
vn 0.000000 0.000000 -1.000000
vn 0.000000 0.000000 -1.000000
vn 0.000000 0.000000 -1.000000
vn 0.000000 0.000000 -1.000000
vn -1.000000 0.000000 0.000000
vn -1.000000 0.000000 0.000000
vn -1.000000 0.000000 0.000000
vn -1.000000 0.000000 0.000000
vn 0.000000 1.000000 0.000000
vn 0.000000 1.000000 0.000000
vn 0.000000 1.000000 0.000000
vn 0.000000 1.000000 0.000000
vn 1.000000 0.000000 0.000000
vn 1.000000 0.000000 0.000000
vn 1.000000 0.000000 0.000000
vn 1.000000 0.000000 0.000000
vn -0.000000 0.000000 1.000000
vn -0.000000 0.000000 1.000000
vn -0.000000 0.000000 1.000000
vn -0.000000 0.000000 1.000000
vn 0.000000 -0.000000 1.000000
vn 0.000000 -0.000000 1.000000
vn 0.000000 -0.000000 1.000000
vn 0.000000 -0.000000 1.000000
vn 0.000000 0.000000 1.000000
vn 0.000000 0.000000 1.000000
vn 0.000000 0.000000 1.000000
vn 0.000000 0.000000 1.000000
vn -0.000000 -0.000000 -1.000000
vn -0.000000 -0.000000 -1.000000
vn -0.000000 -0.000000 -1.000000
vn -0.000000 -0.000000 -1.000000
vn 0.000000 0.000000 -1.000000
vn 0.000000 0.000000 -1.000000
vn 0.000000 0.000000 -1.000000
vn 0.000000 0.000000 -1.000000
vn 0.000000 -0.000000 -1.000000
vn 0.000000 -0.000000 -1.000000
vn 0.000000 -0.000000 -1.000000
vn 0.000000 -0.000000 -1.000000
vn -1.000000 0.000000 0.000000
vn -1.000000 0.000000 0.000000
vn -1.000000 0.000000 0.000000
vn -1.000000 0.000000 0.000000
vn 0.000000 -1.000000 0.000000
vn 0.000000 -1.000000 0.000000
vn 0.000000 -1.000000 0.000000
vn 0.000000 -1.000000 0.000000
vn 1.000000 0.000000 0.000000
vn 1.000000 0.000000 0.000000
vn 1.000000 0.000000 0.000000
vn 1.000000 0.000000 0.000000
s off
f 1/1/1 2/2/2 4/3/3 3/4/4
f 3/5/5 4/6/6 6/7/7 5/8/8
f 5/9/9 6/10/10 8/11/11 7/12/12
f 7/13/13 8/14/14 2/15/15 1/16/16
f 2/17/17 8/18/18 6/19/19 4/20/20
f 7/21/21 1/22/22 3/23/23 5/24/24
f 9/25/25 10/26/26 12/27/27 11/28/28
f 11/29/29 12/30/30 14/31/31 13/32/32
f 13/33/33 14/34/34 16/35/35 15/36/36
f 16/37/37 14/38/38 19/39/39 17/40/40
f 14/38/41 12/41/42 20/42/43 19/39/44
f 12/41/45 10/43/46 18/44/47 20/42/48
f 9/45/49 11/46/50 23/47/51 22/48/52
f 11/46/53 13/49/54 24/50/55 23/47/56
f 13/49/57 15/51/58 21/52/59 24/50/60
f 17/53/61 19/54/62 24/55/63 21/56/64
f 19/57/65 20/58/66 23/59/67 24/60/68
f 20/61/69 18/62/70 22/63/71 23/64/72
