# This file uses centimeters as units for non-parametric coordinates.

v -0.489456 -0.185992 -0.094373
v -0.489456 -0.185992 0.100038
v -0.489456 0.185992 -0.094373
v -0.489456 0.185992 0.100038
v -0.057198 0.346256 -0.094373
v -0.057198 0.346256 0.100038
v -0.057198 -0.346256 -0.094373
v -0.057198 -0.346256 0.100038
v -0.301659 0.185992 -0.094373
v -0.301659 0.185992 0.100038
v -0.301659 -0.185992 0.100038
v -0.301659 -0.185992 -0.094373
v -0.164200 -0.346256 0.100038
v -0.164200 0.346256 0.100038
v -0.164200 0.346256 -0.094373
v -0.164200 -0.346256 -0.094373
v -0.038734 -0.109448 -0.100038
v -0.038734 -0.109448 0.099956
v -0.038734 0.109447 -0.100038
v -0.038734 0.109447 0.099956
v 0.114998 0.109447 -0.100038
v 0.114998 0.109447 0.099956
v 0.114998 -0.109448 -0.100038
v 0.114998 -0.109448 0.099956
v 0.139595 -0.220412 -0.100038
v 0.139595 -0.220412 0.099956
v 0.139595 0.220412 -0.100038
v 0.139595 0.220412 0.099956
v 0.293320 0.220412 -0.100038
v 0.293320 0.220412 0.099956
v 0.293320 -0.220412 -0.100038
v 0.293320 -0.220412 0.099956
v 0.335732 -0.346256 -0.100038
v 0.335732 -0.346256 0.099956
v 0.335732 0.346255 -0.100038
v 0.335732 0.346255 0.099956
v 0.489456 0.346255 -0.100038
v 0.489456 0.346255 0.099956
v 0.489456 -0.346256 -0.100038
v 0.489456 -0.346256 0.099956
vt 0.369044 0.953551
vt 0.369044 0.953551
vt 0.369044 0.953551
vt 0.369044 0.953551
vt 0.865003 0.953551
vt 0.865003 0.953551
vt 0.865003 0.953551
vt 0.865003 0.953551
vt 0.369044 0.953551
vt 0.369044 0.953551
vt 0.369044 0.953551
vt 0.369044 0.953551
vt 0.126308 0.953551
vt 0.126308 0.953551
vt 0.126308 0.953551
vt 0.126308 0.953551
vt 0.620417 0.953551
vt 0.620417 0.953551
vt 0.620417 0.953551
vt 0.620417 0.953551
vt 0.620417 0.953551
vt 0.620417 0.953551
vt 0.620417 0.953551
vt 0.620417 0.953551
vt 0.865003 0.953551
vt 0.865003 0.953551
vt 0.620417 0.953551
vt 0.620417 0.953551
vt 0.126308 0.953551
vt 0.126308 0.953551
vt 0.620417 0.953551
vt 0.620417 0.953551
vt 0.620417 0.953551
vt 0.620417 0.953551
vt 0.865003 0.953551
vt 0.865003 0.953551
vt 0.620417 0.953551
vt 0.620417 0.953551
vt 0.126308 0.953551
vt 0.126308 0.953551
vt 0.369044 0.953551
vt 0.369044 0.953551
vt 0.369044 0.953551
vt 0.369044 0.953551
vt 0.865003 0.953551
vt 0.865003 0.953551
vt 0.865003 0.953551
vt 0.865003 0.953551
vt 0.369044 0.953551
vt 0.369044 0.953551
vt 0.369044 0.953551
vt 0.369044 0.953551
vt 0.126308 0.953551
vt 0.126308 0.953551
vt 0.126308 0.953551
vt 0.126308 0.953551
vt 0.620417 0.953551
vt 0.620417 0.953551
vt 0.620417 0.953551
vt 0.620417 0.953551
vt 0.620417 0.953551
vt 0.620417 0.953551
vt 0.620417 0.953551
vt 0.620417 0.953551
vt 0.369044 0.953551
vt 0.369044 0.953551
vt 0.369044 0.953551
vt 0.369044 0.953551
vt 0.865003 0.953551
vt 0.865003 0.953551
vt 0.865003 0.953551
vt 0.865003 0.953551
vt 0.369044 0.953551
vt 0.369044 0.953551
vt 0.369044 0.953551
vt 0.369044 0.953551
vt 0.126308 0.953551
vt 0.126308 0.953551
vt 0.126308 0.953551
vt 0.126308 0.953551
vt 0.620417 0.953551
vt 0.620417 0.953551
vt 0.620417 0.953551
vt 0.620417 0.953551
vt 0.620417 0.953551
vt 0.620417 0.953551
vt 0.620417 0.953551
vt 0.620417 0.953551
vt 0.369044 0.953551
vt 0.369044 0.953551
vt 0.369044 0.953551
vt 0.369044 0.953551
vt 0.865003 0.953551
vt 0.865003 0.953551
vt 0.865003 0.953551
vt 0.865003 0.953551
vt 0.369044 0.953551
vt 0.369044 0.953551
vt 0.369044 0.953551
vt 0.369044 0.953551
vt 0.126308 0.953551
vt 0.126308 0.953551
vt 0.126308 0.953551
vt 0.126308 0.953551
vt 0.620417 0.953551
vt 0.620417 0.953551
vt 0.620417 0.953551
vt 0.620417 0.953551
vt 0.620417 0.953551
vt 0.620417 0.953551
vt 0.620417 0.953551
vt 0.620417 0.953551
vn -1.000000 0.000000 -0.000000
vn -1.000000 0.000000 -0.000000
vn -1.000000 0.000000 -0.000000
vn -1.000000 0.000000 -0.000000
vn -0.759046 0.651037 0.000000
vn -0.759046 0.651037 0.000000
vn -0.759046 0.651037 0.000000
vn -0.759046 0.651037 0.000000
vn 1.000000 0.000000 -0.000000
vn 1.000000 0.000000 -0.000000
vn 1.000000 0.000000 -0.000000
vn 1.000000 0.000000 -0.000000
vn -0.759046 -0.651037 0.000000
vn -0.759046 -0.651037 0.000000
vn -0.759046 -0.651037 0.000000
vn -0.759046 -0.651037 0.000000
vn 0.000000 0.000000 1.000000
vn 0.000000 0.000000 1.000000
vn 0.000000 0.000000 1.000000
vn 0.000000 0.000000 1.000000
vn 0.000000 0.000000 -1.000000
vn 0.000000 0.000000 -1.000000
vn 0.000000 0.000000 -1.000000
vn 0.000000 0.000000 -1.000000
vn 0.000000 1.000000 0.000000
vn 0.000000 1.000000 0.000000
vn 0.000000 1.000000 0.000000
vn 0.000000 1.000000 0.000000
vn -0.000000 0.000000 1.000000
vn -0.000000 0.000000 1.000000
vn -0.000000 0.000000 1.000000
vn -0.000000 0.000000 1.000000
vn 0.000000 -1.000000 0.000000
vn 0.000000 -1.000000 0.000000
vn 0.000000 -1.000000 0.000000
vn 0.000000 -1.000000 0.000000
vn 0.000000 0.000000 -1.000000
vn 0.000000 0.000000 -1.000000
vn 0.000000 0.000000 -1.000000
vn 0.000000 0.000000 -1.000000
vn 0.000000 0.000000 1.000000
vn 0.000000 0.000000 1.000000
vn 0.000000 0.000000 1.000000
vn 0.000000 0.000000 1.000000
vn 0.000000 1.000000 0.000000
vn 0.000000 1.000000 0.000000
vn 0.000000 1.000000 0.000000
vn 0.000000 1.000000 0.000000
vn 0.000000 0.000000 -1.000000
vn 0.000000 0.000000 -1.000000
vn 0.000000 0.000000 -1.000000
vn 0.000000 0.000000 -1.000000
vn 0.000000 -1.000000 0.000000
vn 0.000000 -1.000000 0.000000
vn 0.000000 -1.000000 0.000000
vn 0.000000 -1.000000 0.000000
vn -1.000000 0.000000 0.000000
vn -1.000000 0.000000 0.000000
vn -1.000000 0.000000 0.000000
vn -1.000000 0.000000 0.000000
vn 0.000000 1.000000 0.000000
vn 0.000000 1.000000 0.000000
vn 0.000000 1.000000 0.000000
vn 0.000000 1.000000 0.000000
vn 1.000000 0.000000 0.000000
vn 1.000000 0.000000 0.000000
vn 1.000000 0.000000 0.000000
vn 1.000000 0.000000 0.000000
vn 0.000000 -1.000000 0.000000
vn 0.000000 -1.000000 0.000000
vn 0.000000 -1.000000 0.000000
vn 0.000000 -1.000000 0.000000
vn 0.000000 0.000000 1.000000
vn 0.000000 0.000000 1.000000
vn 0.000000 0.000000 1.000000
vn 0.000000 0.000000 1.000000
vn 0.000000 0.000000 -1.000000
vn 0.000000 0.000000 -1.000000
vn 0.000000 0.000000 -1.000000
vn 0.000000 0.000000 -1.000000
vn -1.000000 0.000000 0.000000
vn -1.000000 0.000000 0.000000
vn -1.000000 0.000000 0.000000
vn -1.000000 0.000000 0.000000
vn 0.000000 1.000000 0.000000
vn 0.000000 1.000000 0.000000
vn 0.000000 1.000000 0.000000
vn 0.000000 1.000000 0.000000
vn 1.000000 0.000000 0.000000
vn 1.000000 0.000000 0.000000
vn 1.000000 0.000000 0.000000
vn 1.000000 0.000000 0.000000
vn 0.000000 -1.000000 0.000000
vn 0.000000 -1.000000 0.000000
vn 0.000000 -1.000000 0.000000
vn 0.000000 -1.000000 0.000000
vn -0.000000 0.000000 1.000000
vn -0.000000 0.000000 1.000000
vn -0.000000 0.000000 1.000000
vn -0.000000 0.000000 1.000000
vn 0.000000 0.000000 -1.000000
vn 0.000000 0.000000 -1.000000
vn 0.000000 0.000000 -1.000000
vn 0.000000 0.000000 -1.000000
vn -1.000000 0.000000 0.000000
vn -1.000000 0.000000 0.000000
vn -1.000000 0.000000 0.000000
vn -1.000000 0.000000 0.000000
vn 0.000000 1.000000 0.000000
vn 0.000000 1.000000 0.000000
vn 0.000000 1.000000 0.000000
vn 0.000000 1.000000 0.000000
vn 1.000000 0.000000 -0.000000
vn 1.000000 0.000000 -0.000000
vn 1.000000 0.000000 -0.000000
vn 1.000000 0.000000 -0.000000
vn 0.000000 -1.000000 0.000000
vn 0.000000 -1.000000 0.000000
vn 0.000000 -1.000000 0.000000
vn 0.000000 -1.000000 0.000000
vn 0.000000 0.000000 1.000000
vn 0.000000 0.000000 1.000000
vn 0.000000 0.000000 1.000000
vn 0.000000 0.000000 1.000000
vn 0.000000 0.000000 -1.000000
vn 0.000000 0.000000 -1.000000
vn 0.000000 0.000000 -1.000000
vn 0.000000 0.000000 -1.000000
s off
f 1/1/1 2/2/2 4/3/3 3/4/4
f 9/5/5 10/6/6 14/7/7 15/8/8
f 5/9/9 6/10/10 8/11/11 7/12/12
f 16/13/13 13/14/14 11/15/15 12/16/16
f 10/17/17 11/18/18 13/19/19 14/20/20
f 15/21/21 16/22/22 12/23/23 9/24/24
f 3/25/25 4/26/26 10/6/27 9/5/28
f 2/27/29 11/18/30 10/17/31 4/28/32
f 12/16/33 11/15/34 2/29/35 1/30/36
f 9/24/37 12/23/38 1/31/39 3/32/40
f 14/20/41 13/19/42 8/33/43 6/34/44
f 15/8/45 14/7/46 6/35/47 5/36/48
f 7/37/49 16/22/50 15/21/51 5/38/52
f 7/39/53 8/40/54 13/14/55 16/13/56
f 17/41/57 18/42/58 20/43/59 19/44/60
f 19/45/61 20/46/62 22/47/63 21/48/64
f 21/49/65 22/50/66 24/51/67 23/52/68
f 23/53/69 24/54/70 18/55/71 17/56/72
f 18/57/73 24/58/74 22/59/75 20/60/76
f 23/61/77 17/62/78 19/63/79 21/64/80
f 25/65/81 26/66/82 28/67/83 27/68/84
f 27/69/85 28/70/86 30/71/87 29/72/88
f 29/73/89 30/74/90 32/75/91 31/76/92
f 31/77/93 32/78/94 26/79/95 25/80/96
f 26/81/97 32/82/98 30/83/99 28/84/100
f 31/85/101 25/86/102 27/87/103 29/88/104
f 33/89/105 34/90/106 36/91/107 35/92/108
f 35/93/109 36/94/110 38/95/111 37/96/112
f 37/97/113 38/98/114 40/99/115 39/100/116
f 39/101/117 40/102/118 34/103/119 33/104/120
f 34/105/121 40/106/122 38/107/123 36/108/124
f 39/109/125 33/110/126 35/111/127 37/112/128
