# This file uses centimeters as units for non-parametric coordinates.

v -0.222207 -0.501720 -0.095621
v -0.222207 -0.501720 0.095621
v -0.433233 0.501720 -0.095621
v -0.433233 0.501720 0.095621
v 0.433234 0.501720 -0.095621
v 0.433234 0.501720 0.095621
v 0.222208 -0.501720 -0.095621
v 0.222208 -0.501720 0.095621
v -0.074406 0.057838 -0.095621
v -0.074406 0.057838 0.095621
v 0.074407 0.057838 0.095621
v 0.074407 0.057838 -0.095621
v -0.222207 -0.377918 -0.095621
v -0.222207 -0.377918 0.095621
v 0.222208 -0.377918 0.095621
v 0.222208 -0.377918 -0.095621
v 0.074407 -0.377918 0.095621
v -0.074406 -0.377918 0.095621
v -0.074406 -0.377918 -0.095621
v 0.074407 -0.377918 -0.095621
v -0.041984 0.159195 0.095621
v 0.041985 0.159195 0.095621
v 0.244454 0.409656 0.095621
v -0.244453 0.409656 0.095621
v 0.041985 0.159195 -0.095621
v -0.041984 0.159195 -0.095621
v -0.244453 0.409656 -0.095621
v 0.244454 0.409656 -0.095621
vt 0.369044 0.958269
vt 0.369044 0.958269
vt 0.109095 0.958261
vt 0.109095 0.958261
vt 0.865003 0.958269
vt 0.865003 0.958269
vt 0.865003 0.958269
vt 0.865003 0.958269
vt 0.109096 0.958261
vt 0.109096 0.958261
vt 0.369044 0.958269
vt 0.369044 0.958269
vt 0.126308 0.958268
vt 0.126308 0.958268
vt 0.126308 0.958268
vt 0.126308 0.958268
vt 0.620417 0.958269
vt 0.620417 0.958269
vt 0.620417 0.958269
vt 0.620417 0.958269
vt 0.620417 0.958269
vt 0.620417 0.958269
vt 0.620417 0.958269
vt 0.620417 0.958269
vt 0.620417 0.958269
vt 0.369044 0.958269
vt 0.369044 0.958269
vt 0.620417 0.958269
vt 0.369044 0.958269
vt 0.620417 0.958269
vt 0.620417 0.958269
vt 0.369044 0.958269
vt 0.620417 0.958269
vt 0.369044 0.958269
vt 0.369044 0.958269
vt 0.620417 0.958269
vt 0.369044 0.958269
vt 0.620417 0.958269
vt 0.620417 0.958269
vt 0.369044 0.958269
vt 0.369044 0.958269
vt 0.620417 0.958269
vt 0.369044 0.958269
vt 0.620417 0.958269
vt 0.369044 0.958269
vt 0.369044 0.958269
vt 0.620417 0.958269
vt 0.620417 0.958269
vt 0.620417 0.958269
vt 0.620417 0.958269
vt 0.620417 0.958269
vt 0.620417 0.958269
vt 0.620417 0.958269
vt 0.620417 0.958269
vt 0.620417 0.958269
vt 0.620417 0.958269
vt 0.876176 0.958264
vt 0.876176 0.958264
vt 0.876176 0.958264
vt 0.876176 0.958264
vt 0.876176 0.958264
vt 0.876176 0.958264
vt 0.876176 0.958264
vt 0.876176 0.958264
vt 0.096239 0.958275
vt 0.096239 0.958275
vt 0.096239 0.958275
vt 0.096239 0.958275
vt 0.109095 0.958261
vt 0.109095 0.958261
vt 0.109095 0.958261
vt 0.109095 0.958261
vt 0.884747 0.958270
vt 0.884747 0.958270
vt 0.884747 0.958270
vt 0.884747 0.958270
vt 0.884747 0.958270
vt 0.884747 0.958270
vt 0.884747 0.958270
vt 0.884747 0.958270
vt 0.620417 0.958269
vt 0.620417 0.958269
vn -0.925924 -0.377709 0.000000
vn -0.925924 -0.377709 0.000000
vn -0.777678 -0.628663 0.000000
vn -0.777678 -0.628663 0.000000
vn 0.000000 1.000000 0.000000
vn 0.000000 1.000000 0.000000
vn 0.000000 1.000000 0.000000
vn 0.000000 1.000000 0.000000
vn 0.777678 -0.628663 0.000000
vn 0.777678 -0.628663 0.000000
vn 0.925924 -0.377709 0.000000
vn 0.925924 -0.377709 0.000000
vn 0.000000 -1.000000 0.000000
vn 0.000000 -1.000000 0.000000
vn 0.000000 -1.000000 0.000000
vn 0.000000 -1.000000 0.000000
vn -0.642126 0.766599 0.000000
vn -0.642126 0.766599 0.000000
vn -0.947008 0.321209 0.000000
vn -0.947008 0.321209 0.000000
vn 0.947008 0.321209 0.000000
vn 0.947008 0.321209 0.000000
vn 0.642126 0.766599 0.000000
vn 0.642126 0.766599 0.000000
vn -1.000000 0.000000 0.000000
vn -1.000000 0.000000 0.000000
vn -0.642126 0.766599 0.000000
vn -0.642126 0.766599 0.000000
vn 0.000000 0.000000 1.000000
vn 0.000000 0.000000 1.000000
vn 0.000000 0.000000 1.000000
vn 0.000000 0.000000 1.000000
vn 0.000000 0.000000 1.000000
vn 0.000000 0.000000 1.000000
vn 0.642126 0.766599 0.000000
vn 0.642126 0.766599 0.000000
vn 1.000000 0.000000 0.000000
vn 1.000000 0.000000 0.000000
vn 0.000000 0.000000 -1.000000
vn 0.000000 0.000000 -1.000000
vn 0.000000 0.000000 -1.000000
vn 0.000000 0.000000 -1.000000
vn 0.000000 0.000000 -1.000000
vn 0.000000 0.000000 -1.000000
vn 0.000000 0.000000 1.000000
vn 0.000000 0.000000 1.000000
vn 0.000000 0.000000 1.000000
vn 0.000000 0.000000 1.000000
vn -0.947008 0.321209 0.000000
vn -0.947008 0.321209 0.000000
vn -0.925924 -0.377709 0.000000
vn -0.925924 -0.377709 0.000000
vn 0.000000 0.000000 -1.000000
vn 0.000000 0.000000 -1.000000
vn 0.000000 0.000000 -1.000000
vn 0.000000 0.000000 -1.000000
vn 0.925924 -0.377709 0.000000
vn 0.925924 -0.377709 0.000000
vn 0.947008 0.321209 0.000000
vn 0.947008 0.321209 0.000000
vn 0.000000 0.000000 1.000000
vn 0.000000 0.000000 1.000000
vn 0.000000 0.000000 1.000000
vn 0.000000 0.000000 1.000000
vn 0.000000 0.000000 1.000000
vn 0.000000 0.000000 1.000000
vn 0.000000 0.000000 1.000000
vn 0.000000 0.000000 1.000000
vn 0.000000 0.000000 1.000000
vn 0.000000 0.000000 1.000000
vn 0.000000 0.000000 1.000000
vn 0.000000 0.000000 1.000000
vn -0.000000 0.000000 1.000000
vn -0.000000 0.000000 1.000000
vn -0.000000 0.000000 1.000000
vn -0.000000 0.000000 1.000000
vn 0.000000 0.000000 -1.000000
vn 0.000000 0.000000 -1.000000
vn 0.000000 0.000000 -1.000000
vn 0.000000 0.000000 -1.000000
vn -0.000000 0.000000 -1.000000
vn -0.000000 0.000000 -1.000000
vn -0.000000 0.000000 -1.000000
vn -0.000000 0.000000 -1.000000
vn 0.000000 0.000000 -1.000000
vn 0.000000 0.000000 -1.000000
vn 0.000000 0.000000 -1.000000
vn 0.000000 0.000000 -1.000000
vn 0.000000 0.000000 -1.000000
vn 0.000000 0.000000 -1.000000
vn 0.000000 0.000000 -1.000000
vn 0.000000 0.000000 -1.000000
vn -0.777678 0.628663 0.000000
vn -0.777678 0.628663 0.000000
vn -0.777678 0.628663 0.000000
vn -0.777678 0.628663 0.000000
vn 0.000000 -1.000000 0.000000
vn 0.000000 -1.000000 0.000000
vn 0.000000 -1.000000 0.000000
vn 0.000000 -1.000000 0.000000
vn 0.777678 0.628663 0.000000
vn 0.777678 0.628663 0.000000
vn 0.777678 0.628663 0.000000
vn 0.777678 0.628663 0.000000
vn 0.000000 1.000000 0.000000
vn 0.000000 1.000000 0.000000
vn 0.000000 1.000000 0.000000
vn 0.000000 1.000000 0.000000
s off
f 9/3/1 10/4/2 4/9/3 3/10/4
f 3/5/5 4/6/6 6/7/7 5/8/8
f 5/69/9 6/70/10 11/71/11 12/72/12
f 7/13/13 8/14/14 2/15/15 1/16/16
f 13/73/17 14/74/18 18/75/19 19/76/20
f 20/77/21 17/78/22 15/79/23 16/80/24
f 1/1/25 2/2/26 14/35/27 13/34/28
f 2/17/29 8/18/30 15/38/31 17/42/32 18/47/33 14/36/34
f 16/40/35 15/37/36 8/11/37 7/12/38
f 7/21/39 1/22/40 13/33/41 19/44/42 20/48/43 16/39/44
f 18/81/45 17/42/46 11/30/47 10/28/48
f 19/45/49 18/43/50 10/27/51 9/26/52
f 20/82/53 19/44/54 9/25/55 12/31/56
f 12/32/57 11/29/58 17/41/59 20/46/60
f 10/28/61 11/30/62 22/50/63 21/49/64
f 11/30/65 6/19/66 23/51/67 22/50/68
f 6/19/69 4/20/70 24/52/71 23/51/72
f 4/20/73 10/28/74 21/49/75 24/52/76
f 12/31/77 9/25/78 26/54/79 25/53/80
f 9/25/81 3/23/82 27/55/83 26/54/84
f 3/23/85 5/24/86 28/56/87 27/55/88
f 5/24/89 12/31/90 25/53/91 28/56/92
f 22/57/93 23/58/94 28/59/95 25/60/96
f 23/65/97 24/66/98 27/67/99 28/68/100
f 24/61/101 21/62/102 26/63/103 27/64/104
f 22/57/105 25/60/106 26/63/107 21/62/108
