# This file uses centimeters as units for non-parametric coordinates.

v 1.100502 0.649324 -0.205390
v -1.100502 0.649324 -0.205390
v 1.100502 3.585703 -0.205390
v -1.100502 3.585703 -0.205390
v 1.100502 3.585703 0.205392
v -1.100494 3.585703 0.205377
v 1.100502 0.649324 0.205392
v -1.100494 0.649324 0.205377
v 0.983757 0.075499 -0.106864
v -0.983757 0.075499 -0.106864
v 0.983757 0.649324 -0.106864
v -0.983757 0.649324 -0.106864
v 0.983757 0.649324 0.106866
v -0.983749 0.649324 0.106858
v 0.983757 0.075499 0.106866
v -0.983749 0.075499 0.106858
v 1.099731 0.075499 -0.218772
v 1.099731 0.075499 0.218774
v -1.099731 0.075499 -0.218772
v -1.099731 0.075499 0.218759
v 1.099731 0.000000 -0.218772
v 1.099731 0.000000 0.218774
v -1.099731 0.000000 -0.218772
v -1.099731 0.000000 0.218759
v -0.748337 3.568007 -0.085868
v -0.901283 3.568007 -0.085868
v -0.748337 3.759300 -0.085868
v -0.901283 3.759300 -0.085868
v -0.748337 3.759300 0.085877
v -0.901283 3.759300 0.085870
v -0.748337 3.568007 0.085877
v -0.901283 3.568007 0.085870
v 0.908020 3.568007 -0.085868
v 0.755081 3.568007 -0.085868
v 0.908020 3.759300 -0.085868
v 0.755081 3.759300 -0.085868
v 0.908028 3.759300 0.085877
v 0.755081 3.759300 0.085870
v 0.908028 3.568007 0.085877
v 0.755081 3.568007 0.085870
v 1.100502 3.700912 -0.163825
v -1.100502 3.700912 -0.163825
v 1.100502 3.892206 -0.163825
v -1.100502 3.892206 -0.163825
v 1.100502 3.892206 0.163827
v -1.100494 3.892206 0.163812
v 1.100502 3.700912 0.163827
v -1.100494 3.700912 0.163812
v 1.032150 0.740513 0.205392
v 1.032150 3.494515 0.205392
v -1.032150 3.494515 0.205377
v -1.032150 0.740513 0.205377
v 1.032150 3.494515 -0.205390
v 1.032150 0.740513 -0.205390
v -1.032150 0.740513 -0.205390
v -1.032150 3.494515 -0.205390
vt 0.327217 0.088118
vt 0.327217 0.088118
vt 0.327217 0.088118
vt 0.327217 0.088118
vt 0.230869 0.088118
vt 0.230869 0.088118
vt 0.230869 0.088118
vt 0.230869 0.088118
vt 0.267424 0.086891
vt 0.267424 0.086891
vt 0.267424 0.086891
vt 0.267424 0.086891
vt 0.267424 0.086891
vt 0.267424 0.086891
vt 0.267424 0.086891
vt 0.267424 0.086891
vt 0.295580 0.088118
vt 0.295580 0.088118
vt 0.295580 0.088118
vt 0.295580 0.088118
vt 0.295580 0.088118
vt 0.295580 0.088118
vt 0.295580 0.088118
vt 0.295580 0.088118
vt 0.267424 0.086891
vt 0.267424 0.086891
vt 0.267424 0.086891
vt 0.267424 0.086891
vt 0.267424 0.086891
vt 0.267424 0.086891
vt 0.267424 0.086891
vt 0.267424 0.086891
vt 0.327217 0.088118
vt 0.327217 0.088118
vt 0.327217 0.088118
vt 0.327217 0.088118
vt 0.327217 0.088118
vt 0.327217 0.088118
vt 0.327217 0.088118
vt 0.327217 0.088118
vt 0.327217 0.088118
vt 0.327217 0.088118
vt 0.327217 0.088118
vt 0.327217 0.088118
vt 0.327217 0.088118
vt 0.327217 0.088118
vt 0.327217 0.088118
vt 0.327217 0.088118
vt 0.267424 0.086891
vt 0.267424 0.086891
vt 0.267424 0.086891
vt 0.267424 0.086891
vt 0.267424 0.086891
vt 0.267424 0.086891
vt 0.267424 0.086891
vt 0.267424 0.086891
vt 0.295580 0.088118
vt 0.295580 0.088118
vt 0.295580 0.088118
vt 0.295580 0.088118
vt 0.295580 0.088118
vt 0.295580 0.088118
vt 0.295580 0.088118
vt 0.295580 0.088118
vt 0.295580 0.088118
vt 0.295580 0.088118
vt 0.295580 0.088118
vt 0.295580 0.088118
vt 0.295580 0.088118
vt 0.295580 0.088118
vt 0.295580 0.088118
vt 0.295580 0.088118
vt 0.267424 0.086891
vt 0.267424 0.086891
vt 0.267424 0.086891
vt 0.267424 0.086891
vt 0.263944 0.088118
vt 0.263944 0.088118
vt 0.263944 0.088118
vt 0.263944 0.088118
vt 0.295580 0.088118
vt 0.295580 0.088118
vt 0.295580 0.088118
vt 0.295580 0.088118
vt 0.295580 0.088118
vt 0.295580 0.088118
vt 0.295580 0.088118
vt 0.295580 0.088118
vt 0.263944 0.088118
vt 0.263944 0.088118
vt 0.263944 0.088118
vt 0.263944 0.088118
vt 0.267424 0.086891
vt 0.267424 0.086891
vt 0.267424 0.086891
vt 0.267424 0.086891
vt 0.295580 0.088118
vt 0.295580 0.088118
vt 0.295580 0.088118
vt 0.295580 0.088118
vt 0.327217 0.088118
vt 0.327217 0.088118
vt 0.327217 0.088118
vt 0.327217 0.088118
vt 0.295580 0.088118
vt 0.295580 0.088118
vt 0.295580 0.088118
vt 0.295580 0.088118
vt 0.232307 0.088118
vt 0.232307 0.088118
vt 0.232307 0.088118
vt 0.232307 0.088118
vt 0.267424 0.086891
vt 0.267424 0.086891
vt 0.267424 0.086891
vt 0.267424 0.086891
vt 0.267424 0.086891
vt 0.267424 0.086891
vt 0.267424 0.086891
vt 0.267424 0.086891
vt 0.117841 0.810950
vt 0.118256 0.956934
vt 0.002881 0.956541
vt 0.003442 0.810680
vt 0.295580 0.088118
vt 0.295580 0.088118
vt 0.295580 0.088118
vt 0.295580 0.088118
vt 0.295580 0.088118
vt 0.295580 0.088118
vt 0.295580 0.088118
vt 0.295580 0.088118
vt 0.002881 0.956541
vt 0.003442 0.810680
vt 0.117841 0.810950
vt 0.118256 0.956934
vt 0.295580 0.088118
vt 0.295580 0.088118
vt 0.295580 0.088118
vt 0.295580 0.088118
vt 0.295580 0.088118
vt 0.295580 0.088118
vt 0.295580 0.088118
vt 0.295580 0.088118
vn 0.000000 0.000000 -1.000000
vn 0.000000 0.000000 -1.000000
vn 0.000000 0.000000 -1.000000
vn 0.000000 0.000000 -1.000000
vn 0.000000 0.000000 -1.000000
vn 0.000000 0.000000 -1.000000
vn 0.000000 1.000000 0.000000
vn 0.000000 1.000000 0.000000
vn 0.000000 1.000000 0.000000
vn 0.000000 1.000000 -0.000000
vn 0.000000 1.000000 -0.000000
vn 0.000000 1.000000 -0.000000
vn -0.000007 0.000000 1.000000
vn -0.000007 0.000000 1.000000
vn -0.000007 0.000000 1.000000
vn -0.000007 0.000000 1.000000
vn -0.000007 0.000000 1.000000
vn -0.000007 0.000000 1.000000
vn 0.000000 -1.000000 0.000000
vn 0.000000 -1.000000 0.000000
vn 0.000000 -1.000000 0.000000
vn 0.000000 -1.000000 -0.000000
vn 0.000000 -1.000000 -0.000000
vn 0.000000 -1.000000 -0.000000
vn -1.000000 0.000000 0.000019
vn -1.000000 0.000000 0.000019
vn -1.000000 0.000000 0.000019
vn -1.000000 0.000000 0.000019
vn -1.000000 0.000000 0.000019
vn -1.000000 0.000000 0.000019
vn 1.000000 0.000000 0.000000
vn 1.000000 0.000000 0.000000
vn 1.000000 0.000000 0.000000
vn 1.000000 0.000000 0.000000
vn 1.000000 0.000000 0.000000
vn 1.000000 0.000000 0.000000
vn 0.000000 0.000000 -1.000000
vn 0.000000 0.000000 -1.000000
vn 0.000000 0.000000 -1.000000
vn 0.000000 0.000000 -1.000000
vn 0.000000 0.000000 -1.000000
vn 0.000000 0.000000 -1.000000
vn -0.000004 0.000000 1.000000
vn -0.000004 0.000000 1.000000
vn -0.000004 0.000000 1.000000
vn -0.000004 0.000000 1.000000
vn -0.000004 0.000000 1.000000
vn -0.000004 0.000000 1.000000
vn -1.000000 0.000000 0.000036
vn -1.000000 0.000000 0.000036
vn -1.000000 0.000000 0.000036
vn -1.000000 0.000000 0.000036
vn -1.000000 0.000000 0.000036
vn -1.000000 0.000000 0.000036
vn 1.000000 0.000000 0.000000
vn 1.000000 0.000000 0.000000
vn 1.000000 0.000000 0.000000
vn 1.000000 0.000000 0.000000
vn 1.000000 0.000000 0.000000
vn 1.000000 0.000000 0.000000
vn 0.000000 1.000000 0.000000
vn 0.000000 1.000000 0.000000
vn 0.000000 1.000000 0.000000
vn 0.000000 1.000000 0.000000
vn 0.000000 1.000000 0.000000
vn 0.000000 1.000000 0.000000
vn 0.000000 1.000000 0.000000
vn 0.000000 1.000000 0.000000
vn 0.000000 1.000000 0.000000
vn 0.000000 1.000000 0.000000
vn 0.000000 1.000000 0.000000
vn 0.000000 1.000000 0.000000
vn 0.000000 1.000000 -0.000000
vn 0.000000 1.000000 -0.000000
vn 0.000000 1.000000 -0.000000
vn 0.000000 1.000000 0.000000
vn 0.000000 1.000000 0.000000
vn 0.000000 1.000000 0.000000
vn 0.000000 1.000000 0.000000
vn 0.000000 1.000000 0.000000
vn 0.000000 1.000000 0.000000
vn 0.000000 1.000000 -0.000000
vn 0.000000 1.000000 -0.000000
vn 0.000000 1.000000 -0.000000
vn 1.000000 0.000000 0.000000
vn 1.000000 0.000000 0.000000
vn 1.000000 0.000000 0.000000
vn 1.000000 0.000000 0.000000
vn 1.000000 0.000000 0.000000
vn 1.000000 0.000000 0.000000
vn -1.000000 0.000000 0.000000
vn -1.000000 0.000000 0.000000
vn -1.000000 0.000000 0.000000
vn -1.000000 0.000000 0.000000
vn -1.000000 0.000000 0.000000
vn -1.000000 0.000000 0.000000
vn -0.000007 0.000000 1.000000
vn -0.000007 0.000000 1.000000
vn -0.000007 0.000000 1.000000
vn -0.000007 0.000000 1.000000
vn -0.000007 0.000000 1.000000
vn -0.000007 0.000000 1.000000
vn 0.000000 0.000000 -1.000000
vn 0.000000 0.000000 -1.000000
vn 0.000000 0.000000 -1.000000
vn 0.000000 0.000000 -1.000000
vn 0.000000 0.000000 -1.000000
vn 0.000000 0.000000 -1.000000
vn 0.000000 0.000000 -1.000000
vn 0.000000 0.000000 -1.000000
vn 0.000000 0.000000 -1.000000
vn 0.000000 0.000000 -1.000000
vn 0.000000 0.000000 -1.000000
vn 0.000000 0.000000 -1.000000
vn -0.000050 0.000000 1.000000
vn -0.000050 0.000000 1.000000
vn -0.000050 0.000000 1.000000
vn -0.000050 0.000000 1.000000
vn -0.000050 0.000000 1.000000
vn -0.000050 0.000000 1.000000
vn -1.000000 0.000000 0.000000
vn -1.000000 0.000000 0.000000
vn -1.000000 0.000000 0.000000
vn -1.000000 0.000000 0.000000
vn -1.000000 0.000000 0.000000
vn -1.000000 0.000000 0.000000
vn 1.000000 0.000000 0.000000
vn 1.000000 0.000000 0.000000
vn 1.000000 0.000000 0.000000
vn 1.000000 0.000000 0.000000
vn 1.000000 0.000000 0.000000
vn 1.000000 0.000000 0.000000
vn 0.000000 0.000000 -1.000000
vn 0.000000 0.000000 -1.000000
vn 0.000000 0.000000 -1.000000
vn 0.000000 0.000000 -1.000000
vn 0.000000 0.000000 -1.000000
vn 0.000000 0.000000 -1.000000
vn -0.000050 0.000000 1.000000
vn -0.000050 0.000000 1.000000
vn -0.000050 0.000000 1.000000
vn -0.000050 0.000000 1.000000
vn -0.000050 0.000000 1.000000
vn -0.000050 0.000000 1.000000
vn -1.000000 0.000000 0.000000
vn -1.000000 0.000000 0.000000
vn -1.000000 0.000000 0.000000
vn -1.000000 0.000000 0.000000
vn -1.000000 0.000000 0.000000
vn -1.000000 0.000000 0.000000
vn 1.000000 0.000000 -0.000044
vn 1.000000 0.000000 -0.000044
vn 1.000000 0.000000 -0.000044
vn 1.000000 0.000000 -0.000044
vn 1.000000 0.000000 -0.000044
vn 1.000000 0.000000 -0.000044
vn 0.000000 0.000000 -1.000000
vn 0.000000 0.000000 -1.000000
vn 0.000000 0.000000 -1.000000
vn 0.000000 0.000000 -1.000000
vn 0.000000 0.000000 -1.000000
vn 0.000000 0.000000 -1.000000
vn 0.000000 1.000000 0.000000
vn 0.000000 1.000000 0.000000
vn 0.000000 1.000000 0.000000
vn 0.000000 1.000000 -0.000000
vn 0.000000 1.000000 -0.000000
vn 0.000000 1.000000 -0.000000
vn -0.000007 0.000000 1.000000
vn -0.000007 0.000000 1.000000
vn -0.000007 0.000000 1.000000
vn -0.000007 0.000000 1.000000
vn -0.000007 0.000000 1.000000
vn -0.000007 0.000000 1.000000
vn 0.000000 -1.000000 0.000000
vn 0.000000 -1.000000 0.000000
vn 0.000000 -1.000000 0.000000
vn 0.000000 -1.000000 0.000002
vn 0.000000 -1.000000 0.000002
vn 0.000000 -1.000000 0.000002
vn -1.000000 0.000000 0.000023
vn -1.000000 0.000000 0.000023
vn -1.000000 0.000000 0.000023
vn -1.000000 0.000000 0.000023
vn -1.000000 0.000000 0.000023
vn -1.000000 0.000000 0.000023
vn 1.000000 0.000000 0.000000
vn 1.000000 0.000000 0.000000
vn 1.000000 0.000000 0.000000
vn 1.000000 0.000000 0.000000
vn 1.000000 0.000000 0.000000
vn 1.000000 0.000000 0.000000
vn -0.000000 0.000000 1.000000
vn -0.000000 0.000000 1.000000
vn -0.000000 0.000000 1.000000
vn 0.000000 0.000000 1.000000
vn 0.000000 0.000000 1.000000
vn 0.000000 0.000000 1.000000
vn -0.000007 0.000005 1.000000
vn -0.000007 0.000005 1.000000
vn -0.000007 0.000005 1.000000
vn -0.000007 -0.000006 1.000000
vn -0.000007 -0.000006 1.000000
vn -0.000007 -0.000006 1.000000
vn -0.000000 0.000000 1.000000
vn -0.000000 0.000000 1.000000
vn -0.000000 0.000000 1.000000
vn 0.000000 0.000000 1.000000
vn 0.000000 0.000000 1.000000
vn 0.000000 0.000000 1.000000
vn -0.000007 0.000005 1.000000
vn -0.000007 0.000005 1.000000
vn -0.000007 0.000005 1.000000
vn -0.000007 -0.000006 1.000000
vn -0.000007 -0.000006 1.000000
vn -0.000007 -0.000006 1.000000
vn -0.000000 0.000000 -1.000000
vn -0.000000 0.000000 -1.000000
vn -0.000000 0.000000 -1.000000
vn 0.000001 0.000000 -1.000000
vn 0.000001 0.000000 -1.000000
vn 0.000001 0.000000 -1.000000
vn 0.000000 0.000000 -1.000000
vn 0.000000 0.000000 -1.000000
vn 0.000000 0.000000 -1.000000
vn -0.000000 0.000000 -1.000000
vn -0.000000 0.000000 -1.000000
vn -0.000000 0.000000 -1.000000
vn 0.000000 0.000000 -1.000000
vn 0.000000 0.000000 -1.000000
vn 0.000000 0.000000 -1.000000
vn 0.000000 0.000000 -1.000000
vn 0.000000 0.000000 -1.000000
vn 0.000000 0.000000 -1.000000
vn 0.000000 0.000000 -1.000000
vn 0.000000 0.000000 -1.000000
vn 0.000000 0.000000 -1.000000
vn 0.000000 0.000000 -1.000000
vn 0.000000 0.000000 -1.000000
vn 0.000000 0.000000 -1.000000
s off
f 53/133/1 54/134/2 56/136/3
f 56/136/4 54/134/5 55/135/6
f 5/4/7 3/1/8 6/3/9
f 6/3/10 3/1/11 4/2/12
f 49/121/13 50/122/14 52/124/15
f 52/124/16 50/122/17 51/123/18
f 1/8/19 7/5/20 2/7/21
f 2/7/22 7/5/23 8/6/24
f 2/9/25 8/10/26 4/12/27
f 4/12/28 8/10/29 6/11/30
f 7/13/31 1/14/32 5/16/33
f 5/16/34 1/14/35 3/15/36
f 11/17/37 9/18/38 12/20/39
f 12/20/40 9/18/41 10/19/42
f 15/21/43 13/22/44 16/24/45
f 16/24/46 13/22/47 14/23/48
f 10/25/49 16/26/50 12/28/51
f 12/28/52 16/26/53 14/27/54
f 15/29/55 9/30/56 13/32/57
f 13/32/58 9/30/59 11/31/60
f 9/33/61 15/34/62 17/36/63
f 17/36/64 15/34/65 18/35/66
f 16/37/67 10/38/68 20/40/69
f 20/40/70 10/38/71 19/39/72
f 15/41/73 16/42/74 18/44/75
f 18/44/76 16/42/77 20/43/78
f 10/45/79 9/46/80 19/48/81
f 19/48/82 9/46/83 17/47/84
f 17/49/85 18/50/86 21/52/87
f 21/52/88 18/50/89 22/51/90
f 20/53/91 19/54/92 24/56/93
f 24/56/94 19/54/95 23/55/96
f 18/57/97 20/58/98 22/60/99
f 22/60/100 20/58/101 24/59/102
f 19/61/103 17/62/104 23/64/105
f 23/64/106 17/62/107 21/63/108
f 27/65/109 25/66/110 28/68/111
f 28/68/112 25/66/113 26/67/114
f 31/69/115 29/70/116 32/72/117
f 32/72/118 29/70/119 30/71/120
f 26/73/121 32/74/122 28/76/123
f 28/76/124 32/74/125 30/75/126
f 31/77/127 25/78/128 29/80/129
f 29/80/130 25/78/131 27/79/132
f 35/81/133 33/82/134 36/84/135
f 36/84/136 33/82/137 34/83/138
f 39/85/139 37/86/140 40/88/141
f 40/88/142 37/86/143 38/87/144
f 34/89/145 40/90/146 36/92/147
f 36/92/148 40/90/149 38/91/150
f 39/93/151 33/94/152 37/96/153
f 37/96/154 33/94/155 35/95/156
f 43/97/157 41/98/158 44/100/159
f 44/100/160 41/98/161 42/99/162
f 45/101/163 43/102/164 46/104/165
f 46/104/166 43/102/167 44/103/168
f 47/105/169 45/106/170 48/108/171
f 48/108/172 45/106/173 46/107/174
f 41/109/175 47/110/176 42/112/177
f 42/112/178 47/110/179 48/111/180
f 42/113/181 48/114/182 44/116/183
f 44/116/184 48/114/185 46/115/186
f 47/117/187 41/118/188 45/120/189
f 45/120/190 41/118/191 43/119/192
f 7/125/193 5/126/194 49/128/195
f 49/128/196 5/126/197 50/127/198
f 5/126/199 6/129/200 50/127/201
f 50/127/202 6/129/203 51/130/204
f 6/129/205 8/131/206 51/130/207
f 51/130/208 8/131/209 52/132/210
f 8/131/211 7/125/212 52/132/213
f 52/132/214 7/125/215 49/128/216
f 3/137/217 1/138/218 53/140/219
f 53/140/220 1/138/221 54/139/222
f 1/138/223 2/141/224 54/139/225
f 54/139/226 2/141/227 55/142/228
f 2/141/229 4/143/230 55/142/231
f 55/142/232 4/143/233 56/144/234
f 4/143/235 3/137/236 56/144/237
f 56/144/238 3/137/239 53/140/240
