# This file uses centimeters as units for non-parametric coordinates.

v 1.100502 0.649324 -0.205390
v -1.100502 0.649324 -0.205390
v 1.100502 3.585703 -0.205390
v -1.100502 3.585703 -0.205390
v 1.100502 3.585703 0.205392
v -1.100494 3.585703 0.205377
v 1.100502 0.649324 0.205392
v -1.100494 0.649324 0.205377
v 0.983757 0.075499 -0.106864
v -0.983757 0.075499 -0.106864
v 0.983757 0.649324 -0.106864
v -0.983757 0.649324 -0.106864
v 0.983757 0.649324 0.106866
v -0.983749 0.649324 0.106858
v 0.983757 0.075499 0.106866
v -0.983749 0.075499 0.106858
v 1.099731 0.075499 -0.218772
v 1.099731 0.075499 0.218774
v -1.099731 0.075499 -0.218772
v -1.099731 0.075499 0.218759
v 1.099731 0.000000 -0.218772
v 1.099731 0.000000 0.218774
v -1.099731 0.000000 -0.218772
v -1.099731 0.000000 0.218759
v -0.748337 3.568007 -0.085868
v -0.901283 3.568007 -0.085868
v -0.748337 3.759300 -0.085868
v -0.901283 3.759300 -0.085868
v -0.748337 3.759300 0.085877
v -0.901283 3.759300 0.085870
v -0.748337 3.568007 0.085877
v -0.901283 3.568007 0.085870
v 0.908020 3.568007 -0.085868
v 0.755081 3.568007 -0.085868
v 0.908020 3.759300 -0.085868
v 0.755081 3.759300 -0.085868
v 0.908028 3.759300 0.085877
v 0.755081 3.759300 0.085870
v 0.908028 3.568007 0.085877
v 0.755081 3.568007 0.085870
v 1.100502 3.700912 -0.163825
v -1.100502 3.700912 -0.163825
v 1.100502 3.892206 -0.163825
v -1.100502 3.892206 -0.163825
v 1.100502 3.892206 0.163827
v -1.100494 3.892206 0.163812
v 1.100502 3.700912 0.163827
v -1.100494 3.700912 0.163812
v 1.032150 0.740513 0.205392
v 1.032150 3.494515 0.205392
v -1.032150 3.494515 0.205377
v -1.032150 0.740513 0.205377
v 1.032150 3.494515 -0.205390
v 1.032150 0.740513 -0.205390
v -1.032150 0.740513 -0.205390
v -1.032150 3.494515 -0.205390
vt 0.327217 0.088118
vt 0.327217 0.088118
vt 0.327217 0.088118
vt 0.327217 0.088118
vt 0.230869 0.088118
vt 0.230869 0.088118
vt 0.230869 0.088118
vt 0.230869 0.088118
vt 0.267424 0.086891
vt 0.267424 0.086891
vt 0.267424 0.086891
vt 0.267424 0.086891
vt 0.267424 0.086891
vt 0.267424 0.086891
vt 0.267424 0.086891
vt 0.267424 0.086891
vt 0.295580 0.088118
vt 0.295580 0.088118
vt 0.295580 0.088118
vt 0.295580 0.088118
vt 0.295580 0.088118
vt 0.295580 0.088118
vt 0.295580 0.088118
vt 0.295580 0.088118
vt 0.267424 0.086891
vt 0.267424 0.086891
vt 0.267424 0.086891
vt 0.267424 0.086891
vt 0.267424 0.086891
vt 0.267424 0.086891
vt 0.267424 0.086891
vt 0.267424 0.086891
vt 0.327217 0.088118
vt 0.327217 0.088118
vt 0.327217 0.088118
vt 0.327217 0.088118
vt 0.327217 0.088118
vt 0.327217 0.088118
vt 0.327217 0.088118
vt 0.327217 0.088118
vt 0.327217 0.088118
vt 0.327217 0.088118
vt 0.327217 0.088118
vt 0.327217 0.088118
vt 0.327217 0.088118
vt 0.327217 0.088118
vt 0.327217 0.088118
vt 0.327217 0.088118
vt 0.267424 0.086891
vt 0.267424 0.086891
vt 0.267424 0.086891
vt 0.267424 0.086891
vt 0.267424 0.086891
vt 0.267424 0.086891
vt 0.267424 0.086891
vt 0.267424 0.086891
vt 0.295580 0.088118
vt 0.295580 0.088118
vt 0.295580 0.088118
vt 0.295580 0.088118
vt 0.295580 0.088118
vt 0.295580 0.088118
vt 0.295580 0.088118
vt 0.295580 0.088118
vt 0.295580 0.088118
vt 0.295580 0.088118
vt 0.295580 0.088118
vt 0.295580 0.088118
vt 0.295580 0.088118
vt 0.295580 0.088118
vt 0.295580 0.088118
vt 0.295580 0.088118
vt 0.267424 0.086891
vt 0.267424 0.086891
vt 0.267424 0.086891
vt 0.267424 0.086891
vt 0.263944 0.088118
vt 0.263944 0.088118
vt 0.263944 0.088118
vt 0.263944 0.088118
vt 0.295580 0.088118
vt 0.295580 0.088118
vt 0.295580 0.088118
vt 0.295580 0.088118
vt 0.295580 0.088118
vt 0.295580 0.088118
vt 0.295580 0.088118
vt 0.295580 0.088118
vt 0.263944 0.088118
vt 0.263944 0.088118
vt 0.263944 0.088118
vt 0.263944 0.088118
vt 0.267424 0.086891
vt 0.267424 0.086891
vt 0.267424 0.086891
vt 0.267424 0.086891
vt 0.295580 0.088118
vt 0.295580 0.088118
vt 0.295580 0.088118
vt 0.295580 0.088118
vt 0.327217 0.088118
vt 0.327217 0.088118
vt 0.327217 0.088118
vt 0.327217 0.088118
vt 0.295580 0.088118
vt 0.295580 0.088118
vt 0.295580 0.088118
vt 0.295580 0.088118
vt 0.232307 0.088118
vt 0.232307 0.088118
vt 0.232307 0.088118
vt 0.232307 0.088118
vt 0.267424 0.086891
vt 0.267424 0.086891
vt 0.267424 0.086891
vt 0.267424 0.086891
vt 0.267424 0.086891
vt 0.267424 0.086891
vt 0.267424 0.086891
vt 0.267424 0.086891
vt 0.365245 0.560879
vt 0.365660 0.706864
vt 0.250285 0.706471
vt 0.250846 0.560609
vt 0.295580 0.088118
vt 0.295580 0.088118
vt 0.295580 0.088118
vt 0.295580 0.088118
vt 0.295580 0.088118
vt 0.295580 0.088118
vt 0.295580 0.088118
vt 0.295580 0.088118
vt 0.383812 0.706471
vt 0.384373 0.560609
vt 0.498772 0.560879
vt 0.499187 0.706864
vt 0.295580 0.088118
vt 0.295580 0.088118
vt 0.295580 0.088118
vt 0.295580 0.088118
vt 0.295580 0.088118
vt 0.295580 0.088118
vt 0.295580 0.088118
vt 0.295580 0.088118
vn 0.000000 0.000000 -1.000000
vn 0.000000 0.000000 -1.000000
vn 0.000000 0.000000 -1.000000
vn 0.000000 0.000000 -1.000000
vn 0.000000 1.000000 0.000000
vn 0.000000 1.000000 0.000000
vn 0.000000 1.000000 0.000000
vn 0.000000 1.000000 0.000000
vn -0.000007 0.000000 1.000000
vn -0.000007 0.000000 1.000000
vn -0.000007 0.000000 1.000000
vn -0.000007 0.000000 1.000000
vn 0.000000 -1.000000 0.000000
vn 0.000000 -1.000000 0.000000
vn 0.000000 -1.000000 0.000000
vn 0.000000 -1.000000 0.000000
vn -1.000000 0.000000 0.000019
vn -1.000000 0.000000 0.000019
vn -1.000000 0.000000 0.000019
vn -1.000000 0.000000 0.000019
vn 1.000000 0.000000 0.000000
vn 1.000000 0.000000 0.000000
vn 1.000000 0.000000 0.000000
vn 1.000000 0.000000 0.000000
vn 0.000000 0.000000 -1.000000
vn 0.000000 0.000000 -1.000000
vn 0.000000 0.000000 -1.000000
vn 0.000000 0.000000 -1.000000
vn -0.000004 0.000000 1.000000
vn -0.000004 0.000000 1.000000
vn -0.000004 0.000000 1.000000
vn -0.000004 0.000000 1.000000
vn -1.000000 0.000000 0.000036
vn -1.000000 0.000000 0.000036
vn -1.000000 0.000000 0.000036
vn -1.000000 0.000000 0.000036
vn 1.000000 0.000000 0.000000
vn 1.000000 0.000000 0.000000
vn 1.000000 0.000000 0.000000
vn 1.000000 0.000000 0.000000
vn 0.000000 1.000000 0.000000
vn 0.000000 1.000000 0.000000
vn 0.000000 1.000000 0.000000
vn 0.000000 1.000000 0.000000
vn 0.000000 1.000000 0.000000
vn 0.000000 1.000000 0.000000
vn 0.000000 1.000000 0.000000
vn 0.000000 1.000000 0.000000
vn 0.000000 1.000000 -0.000000
vn 0.000000 1.000000 -0.000000
vn 0.000000 1.000000 -0.000000
vn 0.000000 1.000000 -0.000000
vn 0.000000 1.000000 -0.000000
vn 0.000000 1.000000 -0.000000
vn 0.000000 1.000000 -0.000000
vn 0.000000 1.000000 -0.000000
vn 1.000000 0.000000 0.000000
vn 1.000000 0.000000 0.000000
vn 1.000000 0.000000 0.000000
vn 1.000000 0.000000 0.000000
vn -1.000000 0.000000 0.000000
vn -1.000000 0.000000 0.000000
vn -1.000000 0.000000 0.000000
vn -1.000000 0.000000 0.000000
vn -0.000007 0.000000 1.000000
vn -0.000007 0.000000 1.000000
vn -0.000007 0.000000 1.000000
vn -0.000007 0.000000 1.000000
vn 0.000000 0.000000 -1.000000
vn 0.000000 0.000000 -1.000000
vn 0.000000 0.000000 -1.000000
vn 0.000000 0.000000 -1.000000
vn 0.000000 0.000000 -1.000000
vn 0.000000 0.000000 -1.000000
vn 0.000000 0.000000 -1.000000
vn 0.000000 0.000000 -1.000000
vn -0.000050 0.000000 1.000000
vn -0.000050 0.000000 1.000000
vn -0.000050 0.000000 1.000000
vn -0.000050 0.000000 1.000000
vn -1.000000 0.000000 0.000000
vn -1.000000 0.000000 0.000000
vn -1.000000 0.000000 0.000000
vn -1.000000 0.000000 0.000000
vn 1.000000 0.000000 0.000000
vn 1.000000 0.000000 0.000000
vn 1.000000 0.000000 0.000000
vn 1.000000 0.000000 0.000000
vn 0.000000 0.000000 -1.000000
vn 0.000000 0.000000 -1.000000
vn 0.000000 0.000000 -1.000000
vn 0.000000 0.000000 -1.000000
vn -0.000050 0.000000 1.000000
vn -0.000050 0.000000 1.000000
vn -0.000050 0.000000 1.000000
vn -0.000050 0.000000 1.000000
vn -1.000000 0.000000 0.000000
vn -1.000000 0.000000 0.000000
vn -1.000000 0.000000 0.000000
vn -1.000000 0.000000 0.000000
vn 1.000000 0.000000 -0.000044
vn 1.000000 0.000000 -0.000044
vn 1.000000 0.000000 -0.000044
vn 1.000000 0.000000 -0.000044
vn 0.000000 0.000000 -1.000000
vn 0.000000 0.000000 -1.000000
vn 0.000000 0.000000 -1.000000
vn 0.000000 0.000000 -1.000000
vn 0.000000 1.000000 0.000000
vn 0.000000 1.000000 0.000000
vn 0.000000 1.000000 0.000000
vn 0.000000 1.000000 0.000000
vn -0.000007 0.000000 1.000000
vn -0.000007 0.000000 1.000000
vn -0.000007 0.000000 1.000000
vn -0.000007 0.000000 1.000000
vn 0.000000 -1.000000 0.000001
vn 0.000000 -1.000000 0.000001
vn 0.000000 -1.000000 0.000001
vn 0.000000 -1.000000 0.000001
vn -1.000000 0.000000 0.000023
vn -1.000000 0.000000 0.000023
vn -1.000000 0.000000 0.000023
vn -1.000000 0.000000 0.000023
vn 1.000000 0.000000 0.000000
vn 1.000000 0.000000 0.000000
vn 1.000000 0.000000 0.000000
vn 1.000000 0.000000 0.000000
vn -0.000000 0.000000 1.000000
vn -0.000000 0.000000 1.000000
vn -0.000000 0.000000 1.000000
vn -0.000000 0.000000 1.000000
vn -0.000007 0.000000 1.000000
vn -0.000007 0.000000 1.000000
vn -0.000007 0.000000 1.000000
vn -0.000007 0.000000 1.000000
vn -0.000000 0.000000 1.000000
vn -0.000000 0.000000 1.000000
vn -0.000000 0.000000 1.000000
vn -0.000000 0.000000 1.000000
vn -0.000007 -0.000000 1.000000
vn -0.000007 -0.000000 1.000000
vn -0.000007 -0.000000 1.000000
vn -0.000007 -0.000000 1.000000
vn 0.000000 0.000000 -1.000000
vn 0.000000 0.000000 -1.000000
vn 0.000000 0.000000 -1.000000
vn 0.000000 0.000000 -1.000000
vn 0.000000 0.000000 -1.000000
vn 0.000000 0.000000 -1.000000
vn 0.000000 0.000000 -1.000000
vn 0.000000 0.000000 -1.000000
vn 0.000000 0.000000 -1.000000
vn 0.000000 0.000000 -1.000000
vn 0.000000 0.000000 -1.000000
vn 0.000000 0.000000 -1.000000
vn 0.000000 0.000000 -1.000000
vn 0.000000 0.000000 -1.000000
vn 0.000000 0.000000 -1.000000
vn 0.000000 0.000000 -1.000000
s off
f 53/133/1 54/134/2 55/135/3 56/136/4
f 5/4/5 3/1/6 4/2/7 6/3/8
f 49/121/9 50/122/10 51/123/11 52/124/12
f 1/8/13 7/5/14 8/6/15 2/7/16
f 2/9/17 8/10/18 6/11/19 4/12/20
f 7/13/21 1/14/22 3/15/23 5/16/24
f 11/17/25 9/18/26 10/19/27 12/20/28
f 15/21/29 13/22/30 14/23/31 16/24/32
f 10/25/33 16/26/34 14/27/35 12/28/36
f 15/29/37 9/30/38 11/31/39 13/32/40
f 9/33/41 15/34/42 18/35/43 17/36/44
f 16/37/45 10/38/46 19/39/47 20/40/48
f 15/41/49 16/42/50 20/43/51 18/44/52
f 10/45/53 9/46/54 17/47/55 19/48/56
f 17/49/57 18/50/58 22/51/59 21/52/60
f 20/53/61 19/54/62 23/55/63 24/56/64
f 18/57/65 20/58/66 24/59/67 22/60/68
f 19/61/69 17/62/70 21/63/71 23/64/72
f 27/65/73 25/66/74 26/67/75 28/68/76
f 31/69/77 29/70/78 30/71/79 32/72/80
f 26/73/81 32/74/82 30/75/83 28/76/84
f 31/77/85 25/78/86 27/79/87 29/80/88
f 35/81/89 33/82/90 34/83/91 36/84/92
f 39/85/93 37/86/94 38/87/95 40/88/96
f 34/89/97 40/90/98 38/91/99 36/92/100
f 39/93/101 33/94/102 35/95/103 37/96/104
f 43/97/105 41/98/106 42/99/107 44/100/108
f 45/101/109 43/102/110 44/103/111 46/104/112
f 47/105/113 45/106/114 46/107/115 48/108/116
f 41/109/117 47/110/118 48/111/119 42/112/120
f 42/113/121 48/114/122 46/115/123 44/116/124
f 47/117/125 41/118/126 43/119/127 45/120/128
f 7/125/129 5/126/130 50/127/131 49/128/132
f 5/126/133 6/129/134 51/130/135 50/127/136
f 6/129/137 8/131/138 52/132/139 51/130/140
f 8/131/141 7/125/142 49/128/143 52/132/144
f 3/137/145 1/138/146 54/139/147 53/140/148
f 1/138/149 2/141/150 55/142/151 54/139/152
f 2/141/153 4/143/154 56/144/155 55/142/156
f 4/143/157 3/137/158 53/140/159 56/144/160
