# This file uses centimeters as units for non-parametric coordinates.

v 0.612690 0.000000 -0.454479
v -0.612690 0.000000 -0.454479
v 0.612690 0.672089 -0.454479
v -0.612690 0.672089 -0.454479
v 0.612690 0.672089 0.454481
v -0.612690 0.672089 0.454481
v 0.612690 0.000000 0.454481
v -0.612690 0.000000 0.454481
v 0.612690 0.000000 0.227243
v 0.612690 0.672089 0.227243
v -0.612690 0.672089 0.227243
v -0.612690 0.000000 0.227243
v 0.612690 0.000000 -0.227239
v 0.612690 0.672089 -0.227239
v -0.612690 0.672089 -0.227239
v -0.612690 0.000000 -0.227239
vt 0.735372 0.204961
vt 0.734186 0.174427
vt 0.689373 0.206025
vt 0.748775 0.234263
vt 0.734186 0.206025
vt 0.734186 0.234263
vt 0.736386 0.203620
vt 0.735372 0.204961
vt 0.748868 0.203620
vt 0.748868 0.174996
vt 0.735372 0.234263
vt 0.735372 0.234263
vt 0.734186 0.206025
vt 0.689373 0.206025
vt 0.689373 0.234263
vt 0.689373 0.174427
vt 0.734186 0.174427
vt 0.736386 0.174996
vt 0.689373 0.206025
vt 0.689373 0.174427
vt 0.748775 0.234263
vt 0.748775 0.204961
vt 0.748775 0.204961
vt 0.734186 0.206025
vt 0.748775 0.204961
vt 0.736386 0.203620
vt 0.748775 0.234263
vt 0.689373 0.234263
vt 0.734186 0.234263
vt 0.735372 0.234263
vt 0.736386 0.174996
vt 0.735372 0.204961
vt 0.735372 0.204961
vt 0.748868 0.203620
vt 0.735372 0.234263
vt 0.689373 0.206025
vt 0.734186 0.206025
vt 0.748775 0.234263
vt 0.748868 0.174996
vt 0.748775 0.204961
vn 0.000000 0.000000 -1.000000
vn 0.000000 0.000000 -1.000000
vn 0.000000 0.000000 -1.000000
vn 0.000000 0.000000 -1.000000
vn 0.000000 0.000000 -1.000000
vn 0.000000 0.000000 -1.000000
vn 0.000000 1.000000 0.000000
vn 0.000000 1.000000 0.000000
vn 0.000000 1.000000 0.000000
vn 0.000000 1.000000 0.000000
vn 0.000000 1.000000 0.000000
vn 0.000000 1.000000 0.000000
vn 0.000000 0.000000 1.000000
vn 0.000000 0.000000 1.000000
vn 0.000000 0.000000 1.000000
vn 0.000000 0.000000 1.000000
vn 0.000000 0.000000 1.000000
vn 0.000000 0.000000 1.000000
vn 0.000000 -1.000000 0.000000
vn 0.000000 -1.000000 0.000000
vn 0.000000 -1.000000 0.000000
vn 0.000000 -1.000000 0.000000
vn 0.000000 -1.000000 0.000000
vn 0.000000 -1.000000 0.000000
vn -1.000000 0.000000 0.000000
vn -1.000000 0.000000 0.000000
vn -1.000000 0.000000 0.000000
vn -1.000000 0.000000 0.000000
vn -1.000000 0.000000 0.000000
vn -1.000000 0.000000 0.000000
vn 1.000000 0.000000 0.000000
vn 1.000000 0.000000 0.000000
vn 1.000000 0.000000 0.000000
vn 1.000000 0.000000 0.000000
vn 1.000000 0.000000 0.000000
vn 1.000000 0.000000 0.000000
vn 1.000000 0.000000 0.000000
vn 1.000000 0.000000 0.000000
vn 1.000000 0.000000 0.000000
vn 1.000000 0.000000 0.000000
vn 1.000000 0.000000 0.000000
vn 1.000000 0.000000 0.000000
vn 0.000000 1.000000 0.000000
vn 0.000000 1.000000 0.000000
vn 0.000000 1.000000 0.000000
vn 0.000000 1.000000 0.000000
vn 0.000000 1.000000 0.000000
vn 0.000000 1.000000 0.000000
vn -1.000000 0.000000 0.000000
vn -1.000000 0.000000 0.000000
vn -1.000000 0.000000 0.000000
vn -1.000000 0.000000 0.000000
vn -1.000000 0.000000 0.000000
vn -1.000000 0.000000 0.000000
vn 0.000000 -1.000000 0.000000
vn 0.000000 -1.000000 0.000000
vn 0.000000 -1.000000 0.000000
vn 0.000000 -1.000000 0.000000
vn 0.000000 -1.000000 0.000000
vn 0.000000 -1.000000 0.000000
vn 1.000000 0.000000 0.000000
vn 1.000000 0.000000 0.000000
vn 1.000000 0.000000 0.000000
vn 1.000000 0.000000 0.000000
vn 1.000000 0.000000 0.000000
vn 1.000000 0.000000 0.000000
vn 0.000000 1.000000 0.000000
vn 0.000000 1.000000 0.000000
vn 0.000000 1.000000 0.000000
vn 0.000000 1.000000 0.000000
vn 0.000000 1.000000 0.000000
vn 0.000000 1.000000 0.000000
vn -1.000000 0.000000 0.000000
vn -1.000000 0.000000 0.000000
vn -1.000000 0.000000 0.000000
vn -1.000000 0.000000 0.000000
vn -1.000000 0.000000 0.000000
vn -1.000000 0.000000 0.000000
vn 0.000000 -1.000000 0.000000
vn 0.000000 -1.000000 0.000000
vn 0.000000 -1.000000 0.000000
vn 0.000000 -1.000000 0.000000
vn 0.000000 -1.000000 0.000000
vn 0.000000 -1.000000 0.000000
s off
f 1/16/1 2/2/2 3/14/3
f 3/14/4 2/2/5 4/24/6
f 10/28/7 11/29/8 5/15/9
f 5/15/10 11/29/11 6/6/12
f 5/5/13 6/19/14 7/17/15
f 7/17/16 6/19/17 8/20/18
f 7/7/19 8/18/20 9/26/21
f 9/26/22 8/18/23 12/31/24
f 12/32/25 8/8/26 11/30/27
f 11/30/28 8/8/29 6/12/30
f 7/22/31 9/25/32 5/21/33
f 5/21/34 9/25/35 10/27/36
f 10/27/37 9/25/38 14/35/39
f 14/35/40 9/25/41 13/33/42
f 11/29/43 10/28/44 15/37/45
f 15/37/46 10/28/47 14/36/48
f 16/40/49 12/32/50 15/38/51
f 15/38/52 12/32/53 11/30/54
f 13/34/55 9/26/56 16/39/57
f 16/39/58 9/26/59 12/31/60
f 13/33/61 1/1/62 14/35/63
f 14/35/64 1/1/65 3/11/66
f 3/3/67 4/13/68 14/36/69
f 14/36/70 4/13/71 15/37/72
f 2/23/73 16/40/74 4/4/75
f 4/4/76 16/40/77 15/38/78
f 13/34/79 16/39/80 1/9/81
f 1/9/82 16/39/83 2/10/84
