# This file uses centimeters as units for non-parametric coordinates.

v 0.373943 0.000000 -0.236195
v -0.373955 0.000000 -0.236195
v 0.373943 0.608086 -0.236195
v -0.373955 0.608086 -0.236195
v 0.373943 0.608086 0.236197
v -0.373955 0.608086 0.236197
v 0.373943 0.000000 0.236197
v -0.373955 0.000000 0.236197
vt 0.734765 0.204961
vt 0.734186 0.174427
vt 0.689373 0.204961
vt 0.749617 0.234263
vt 0.734186 0.204961
vt 0.734186 0.234263
vt 0.736386 0.203620
vt 0.734765 0.204961
vt 0.748868 0.203620
vt 0.748868 0.174996
vt 0.734765 0.234263
vt 0.734765 0.234263
vt 0.734186 0.204961
vt 0.689373 0.204961
vt 0.689373 0.234263
vt 0.689373 0.174427
vt 0.734186 0.174427
vt 0.736386 0.174996
vt 0.689373 0.204961
vt 0.689373 0.174427
vt 0.749617 0.234263
vt 0.749617 0.204961
vt 0.749617 0.204961
vt 0.734186 0.204961
vn 0.000000 0.000000 -1.000000
vn 0.000000 0.000000 -1.000000
vn 0.000000 0.000000 -1.000000
vn 0.000000 0.000000 -1.000000
vn 0.000000 0.000000 -1.000000
vn 0.000000 0.000000 -1.000000
vn 0.000000 1.000000 0.000000
vn 0.000000 1.000000 0.000000
vn 0.000000 1.000000 0.000000
vn 0.000000 1.000000 0.000000
vn 0.000000 1.000000 0.000000
vn 0.000000 1.000000 0.000000
vn 0.000000 0.000000 1.000000
vn 0.000000 0.000000 1.000000
vn 0.000000 0.000000 1.000000
vn 0.000000 0.000000 1.000000
vn 0.000000 0.000000 1.000000
vn 0.000000 0.000000 1.000000
vn 0.000000 -1.000000 0.000000
vn 0.000000 -1.000000 0.000000
vn 0.000000 -1.000000 0.000000
vn 0.000000 -1.000000 0.000000
vn 0.000000 -1.000000 0.000000
vn 0.000000 -1.000000 0.000000
vn -1.000000 0.000000 0.000000
vn -1.000000 0.000000 0.000000
vn -1.000000 0.000000 0.000000
vn -1.000000 0.000000 0.000000
vn -1.000000 0.000000 0.000000
vn -1.000000 0.000000 0.000000
vn 1.000000 0.000000 0.000000
vn 1.000000 0.000000 0.000000
vn 1.000000 0.000000 0.000000
vn 1.000000 0.000000 0.000000
vn 1.000000 0.000000 0.000000
vn 1.000000 0.000000 0.000000
s off
f 1/16/1 2/2/2 3/14/3
f 3/14/4 2/2/5 4/24/6
f 3/3/7 4/13/8 5/15/9
f 5/15/10 4/13/11 6/6/12
f 5/5/13 6/19/14 7/17/15
f 7/17/16 6/19/17 8/20/18
f 7/7/19 8/18/20 1/9/21
f 1/9/22 8/18/23 2/10/24
f 2/23/25 8/8/26 4/4/27
f 4/4/28 8/8/29 6/12/30
f 7/22/31 1/1/32 5/21/33
f 5/21/34 1/1/35 3/11/36
