# This file uses centimeters as units for non-parametric coordinates.

v 0.079230 0.816017 -0.079232
v -0.079230 0.816017 -0.079232
v 0.079230 4.188145 -0.079232
v -0.079230 4.188145 -0.079232
v 0.079230 4.188145 0.079224
v -0.079230 4.188145 0.079224
v 0.079230 0.816017 0.079224
v -0.079230 0.816017 0.079224
v 0.188802 0.680530 0.188795
v -0.188802 0.680530 0.188795
v -0.188802 0.680530 -0.188802
v 0.188802 0.680530 -0.188802
v 0.188802 0.000000 0.188795
v -0.188802 0.000000 0.188795
v -0.188802 0.000000 -0.188802
v 0.188802 0.000000 -0.188802
v -0.079230 1.378039 0.079224
v 0.079230 1.378039 0.079224
v 0.079230 1.378039 -0.079232
v -0.079230 1.378039 -0.079232
v -0.079230 1.940059 0.079224
v 0.079230 1.940059 0.079224
v 0.079230 1.940059 -0.079232
v -0.079230 1.940059 -0.079232
v -0.079230 2.502081 0.079224
v 0.079230 2.502081 0.079224
v 0.079230 2.502081 -0.079232
v -0.079230 2.502081 -0.079232
v -0.079230 3.064102 0.079224
v 0.079230 3.064102 0.079224
v 0.079230 3.064102 -0.079232
v -0.079230 3.064102 -0.079232
v -0.079230 3.626125 0.079224
v 0.079230 3.626125 0.079224
v 0.079230 3.626125 -0.079232
v -0.079230 3.626125 -0.079232
v 0.213696 4.188145 -0.213687
v -0.213696 4.188145 -0.213687
v -0.213696 4.188145 0.213692
v 0.213696 4.188145 0.213692
v 0.213696 4.286802 -0.213687
v -0.213696 4.286802 -0.213687
v -0.213696 4.286802 0.213692
v 0.213696 4.286802 0.213692
v 0.343863 4.286802 -0.343851
v -0.343863 4.286802 -0.343851
v -0.343863 4.286802 0.343851
v 0.343863 4.286802 0.343851
v 0.343863 4.953486 -0.343851
v -0.343863 4.953486 -0.343851
v -0.343863 4.953486 0.343851
v 0.343863 4.953486 0.343851
vt 0.974559 0.020202
vt 0.974853 0.020202
vt 0.832290 0.016525
vt 0.831997 0.016525
vt 0.831997 0.014444
vt 0.832290 0.014444
vt 0.974559 0.018121
vt 0.974853 0.018121
vt 0.831997 0.012363
vt 0.832290 0.012363
vt 0.974559 0.016040
vt 0.974853 0.016040
vt 0.974559 0.015000
vt 0.849005 0.011724
vt 0.848509 0.011473
vt 0.832493 0.010032
vt 0.831794 0.008151
vt 0.832493 0.008151
vt 0.831057 0.130711
vt 0.831057 0.129438
vt 0.832330 0.129438
vt 0.832330 0.130711
vt 0.832764 0.008151
vt 0.833057 0.008151
vt 0.833057 0.009192
vt 0.975326 0.013909
vt 0.975620 0.014949
vt 0.832764 0.010232
vt 0.833057 0.011273
vt 0.975326 0.015990
vt 0.975620 0.017030
vt 0.832764 0.012313
vt 0.833057 0.013353
vt 0.975326 0.018071
vt 0.975620 0.019111
vt 0.849479 0.015835
vt 0.849975 0.016086
vt 0.832561 0.014645
vt 0.833260 0.016525
vt 0.832561 0.016525
vt 0.835241 0.010158
vt 0.835241 0.009459
vt 0.835940 0.009459
vt 0.835940 0.010158
vt 0.945168 0.015485
vt 0.816527 0.018629
vt 0.816527 0.019670
vt 0.816233 0.019670
vt 0.816233 0.017589
vt 0.816527 0.017589
vt 0.945168 0.013404
vt 0.945461 0.013404
vt 0.816233 0.015508
vt 0.816527 0.015508
vt 0.945168 0.011323
vt 0.945461 0.011323
vt 0.945168 0.010283
vt 0.833823 0.010283
vt 0.833327 0.010032
vt 0.817778 0.014749
vt 0.817079 0.012868
vt 0.817778 0.012868
vt 0.945933 0.015485
vt 0.946227 0.015485
vt 0.817292 0.019670
vt 0.816999 0.019670
vt 0.945933 0.014444
vt 0.817292 0.017589
vt 0.816999 0.016549
vt 0.946227 0.013404
vt 0.945933 0.012363
vt 0.817292 0.015508
vt 0.816999 0.014468
vt 0.946227 0.011323
vt 0.945933 0.010283
vt 0.834588 0.010283
vt 0.834092 0.010032
vt 0.818543 0.014749
vt 0.817844 0.012868
vt 0.818543 0.012868
vt 0.805775 0.014612
vt 0.806023 0.014861
vt 0.836698 0.010250
vt 0.836698 0.009459
vt 0.836880 0.009459
vt 0.836880 0.010250
vt 0.820089 0.015437
vt 0.820089 0.014646
vt 0.820272 0.014646
vt 0.820272 0.015437
vt 0.836645 0.009459
vt 0.836645 0.010250
vt 0.836463 0.010250
vt 0.836463 0.009459
vt 0.819854 0.015437
vt 0.819854 0.014646
vt 0.820037 0.014646
vt 0.820037 0.015437
vt 0.833420 0.160730
vt 0.833661 0.160971
vt 0.831188 0.145456
vt 0.830947 0.145697
vt 0.832278 0.144424
vt 0.833512 0.144424
vt 0.833512 0.145697
vt 0.831094 0.159564
vt 0.831094 0.160837
vt 0.832328 0.160837
vt 0.832328 0.159564
vt 0.834810 0.144424
vt 0.834810 0.145697
vt 0.833576 0.145697
vt 0.833576 0.144424
vt 0.832381 0.159564
vt 0.832381 0.160837
vt 0.833615 0.160837
vt 0.833615 0.159564
vt 0.834791 0.010032
vt 0.817079 0.014749
vt 0.834026 0.010032
vt 0.817844 0.014749
vt 0.832290 0.015485
vt 0.816233 0.018629
vt 0.975620 0.013909
vt 0.945461 0.015485
vt 0.817292 0.018629
vt 0.831997 0.015485
vt 0.832764 0.009192
vt 0.816999 0.018629
vt 0.816999 0.017589
vt 0.975326 0.014949
vt 0.833057 0.010232
vt 0.945461 0.014444
vt 0.974853 0.019161
vt 0.945168 0.014444
vt 0.946227 0.014444
vt 0.974559 0.019161
vt 0.832290 0.013404
vt 0.816233 0.016549
vt 0.975620 0.015990
vt 0.816527 0.016549
vt 0.817292 0.016549
vt 0.831997 0.013404
vt 0.945933 0.013404
vt 0.832764 0.011273
vt 0.816999 0.015508
vt 0.975326 0.017030
vt 0.833057 0.012313
vt 0.945461 0.012363
vt 0.974853 0.017081
vt 0.945168 0.012363
vt 0.946227 0.012363
vt 0.974559 0.017081
vt 0.832290 0.011323
vt 0.816233 0.014468
vt 0.975620 0.018071
vt 0.816527 0.014468
vt 0.817292 0.014468
vt 0.831997 0.011323
vt 0.945933 0.011323
vt 0.832764 0.013353
vt 0.834295 0.010283
vt 0.975326 0.019111
vt 0.849772 0.015835
vt 0.945461 0.010283
vt 0.974853 0.015000
vt 0.833529 0.010283
vt 0.946227 0.010283
vt 0.848712 0.011724
vt 0.832388 0.160971
vt 0.832388 0.159698
vt 0.833661 0.159698
vt 0.832249 0.145697
vt 0.832629 0.160730
vt 0.832629 0.159939
vt 0.833420 0.159939
vt 0.831979 0.145456
vt 0.805232 0.014861
vt 0.805232 0.014070
vt 0.805481 0.014612
vt 0.806023 0.014070
vt 0.805481 0.014318
vt 0.805775 0.014318
vt 0.831794 0.010032
vt 0.849208 0.011473
vt 0.849276 0.016086
vt 0.833260 0.014645
vn 0.000000 0.000000 -1.000000
vn 0.000000 0.000000 -1.000000
vn 0.000000 0.000000 -1.000000
vn 0.000000 0.000000 -1.000000
vn 0.000000 0.000000 -1.000000
vn 0.000000 0.000000 -1.000000
vn 0.000000 1.000000 0.000000
vn 0.000000 1.000000 0.000000
vn 0.000000 1.000000 0.000000
vn 0.000000 1.000000 0.000000
vn 0.000000 1.000000 0.000000
vn 0.000000 1.000000 0.000000
vn 0.000000 0.000000 1.000000
vn 0.000000 0.000000 1.000000
vn 0.000000 0.000000 1.000000
vn 0.000000 0.000000 1.000000
vn 0.000000 0.000000 1.000000
vn 0.000000 0.000000 1.000000
vn 0.000000 -1.000000 0.000000
vn 0.000000 -1.000000 0.000000
vn 0.000000 -1.000000 0.000000
vn 0.000000 -1.000000 0.000000
vn 0.000000 -1.000000 0.000000
vn 0.000000 -1.000000 0.000000
vn -1.000000 0.000000 0.000000
vn -1.000000 0.000000 0.000000
vn -1.000000 0.000000 0.000000
vn -1.000000 0.000000 0.000000
vn -1.000000 0.000000 0.000000
vn -1.000000 0.000000 0.000000
vn 1.000000 0.000000 0.000000
vn 1.000000 0.000000 0.000000
vn 1.000000 0.000000 0.000000
vn 1.000000 0.000000 0.000000
vn 1.000000 0.000000 0.000000
vn 1.000000 0.000000 0.000000
vn 0.000000 0.628817 0.777553
vn 0.000000 0.628817 0.777553
vn 0.000000 0.628817 0.777553
vn 0.000000 0.628819 0.777552
vn 0.000000 0.628819 0.777552
vn 0.000000 0.628819 0.777552
vn -0.777550 0.628822 0.000000
vn -0.777550 0.628822 0.000000
vn -0.777550 0.628822 0.000000
vn -0.777549 0.628822 0.000000
vn -0.777550 0.628822 0.000000
vn -0.777550 0.628822 0.000000
vn 0.000000 0.628817 -0.777553
vn 0.000000 0.628817 -0.777553
vn 0.000000 0.628817 -0.777553
vn 0.000000 0.628819 -0.777552
vn 0.000000 0.628819 -0.777552
vn 0.000000 0.628819 -0.777552
vn 0.777550 0.628822 0.000000
vn 0.777550 0.628822 0.000000
vn 0.777550 0.628822 0.000000
vn 0.777549 0.628822 0.000000
vn 0.777549 0.628822 0.000000
vn 0.777549 0.628822 0.000000
vn 0.000000 0.000000 1.000000
vn 0.000000 0.000000 1.000000
vn 0.000000 0.000000 1.000000
vn 0.000000 0.000000 1.000000
vn 0.000000 0.000000 1.000000
vn 0.000000 0.000000 1.000000
vn -1.000000 0.000000 0.000000
vn -1.000000 0.000000 0.000000
vn -1.000000 0.000000 0.000000
vn -1.000000 0.000000 0.000000
vn -1.000000 0.000000 0.000000
vn -1.000000 0.000000 0.000000
vn 0.000000 0.000000 -1.000000
vn 0.000000 0.000000 -1.000000
vn 0.000000 0.000000 -1.000000
vn 0.000000 0.000000 -1.000000
vn 0.000000 0.000000 -1.000000
vn 0.000000 0.000000 -1.000000
vn 1.000000 0.000000 0.000000
vn 1.000000 0.000000 0.000000
vn 1.000000 0.000000 0.000000
vn 1.000000 0.000000 0.000000
vn 1.000000 0.000000 0.000000
vn 1.000000 0.000000 0.000000
vn 0.000000 0.000000 1.000000
vn 0.000000 0.000000 1.000000
vn 0.000000 0.000000 1.000000
vn 0.000000 0.000000 1.000000
vn 0.000000 0.000000 1.000000
vn 0.000000 0.000000 1.000000
vn 1.000000 0.000000 0.000000
vn 1.000000 0.000000 0.000000
vn 1.000000 0.000000 0.000000
vn 1.000000 0.000000 0.000000
vn 1.000000 0.000000 0.000000
vn 1.000000 0.000000 0.000000
vn 0.000000 0.000000 -1.000000
vn 0.000000 0.000000 -1.000000
vn 0.000000 0.000000 -1.000000
vn 0.000000 0.000000 -1.000000
vn 0.000000 0.000000 -1.000000
vn 0.000000 0.000000 -1.000000
vn -1.000000 0.000000 0.000000
vn -1.000000 0.000000 0.000000
vn -1.000000 0.000000 0.000000
vn -1.000000 0.000000 0.000000
vn -1.000000 0.000000 0.000000
vn -1.000000 0.000000 0.000000
vn 0.000000 0.000000 1.000000
vn 0.000000 0.000000 1.000000
vn 0.000000 0.000000 1.000000
vn 0.000000 0.000000 1.000000
vn 0.000000 0.000000 1.000000
vn 0.000000 0.000000 1.000000
vn 1.000000 0.000000 0.000000
vn 1.000000 0.000000 0.000000
vn 1.000000 0.000000 0.000000
vn 1.000000 0.000000 0.000000
vn 1.000000 0.000000 0.000000
vn 1.000000 0.000000 0.000000
vn 0.000000 0.000000 -1.000000
vn 0.000000 0.000000 -1.000000
vn 0.000000 0.000000 -1.000000
vn 0.000000 0.000000 -1.000000
vn 0.000000 0.000000 -1.000000
vn 0.000000 0.000000 -1.000000
vn -1.000000 0.000000 0.000000
vn -1.000000 0.000000 0.000000
vn -1.000000 0.000000 0.000000
vn -1.000000 0.000000 0.000000
vn -1.000000 0.000000 0.000000
vn -1.000000 0.000000 0.000000
vn 0.000000 0.000000 1.000000
vn 0.000000 0.000000 1.000000
vn 0.000000 0.000000 1.000000
vn 0.000000 0.000000 1.000000
vn 0.000000 0.000000 1.000000
vn 0.000000 0.000000 1.000000
vn 1.000000 0.000000 0.000000
vn 1.000000 0.000000 0.000000
vn 1.000000 0.000000 0.000000
vn 1.000000 0.000000 0.000000
vn 1.000000 0.000000 0.000000
vn 1.000000 0.000000 0.000000
vn 0.000000 0.000000 -1.000000
vn 0.000000 0.000000 -1.000000
vn 0.000000 0.000000 -1.000000
vn 0.000000 0.000000 -1.000000
vn 0.000000 0.000000 -1.000000
vn 0.000000 0.000000 -1.000000
vn -1.000000 0.000000 0.000000
vn -1.000000 0.000000 0.000000
vn -1.000000 0.000000 0.000000
vn -1.000000 0.000000 0.000000
vn -1.000000 0.000000 0.000000
vn -1.000000 0.000000 0.000000
vn 0.000000 0.000000 1.000000
vn 0.000000 0.000000 1.000000
vn 0.000000 0.000000 1.000000
vn 0.000000 0.000000 1.000000
vn 0.000000 0.000000 1.000000
vn 0.000000 0.000000 1.000000
vn 1.000000 0.000000 0.000000
vn 1.000000 0.000000 0.000000
vn 1.000000 0.000000 0.000000
vn 1.000000 0.000000 0.000000
vn 1.000000 0.000000 0.000000
vn 1.000000 0.000000 0.000000
vn 0.000000 0.000000 -1.000000
vn 0.000000 0.000000 -1.000000
vn 0.000000 0.000000 -1.000000
vn 0.000000 0.000000 -1.000000
vn 0.000000 0.000000 -1.000000
vn 0.000000 0.000000 -1.000000
vn -1.000000 0.000000 0.000000
vn -1.000000 0.000000 0.000000
vn -1.000000 0.000000 0.000000
vn -1.000000 0.000000 0.000000
vn -1.000000 0.000000 0.000000
vn -1.000000 0.000000 0.000000
vn 0.000000 0.000000 1.000000
vn 0.000000 0.000000 1.000000
vn 0.000000 0.000000 1.000000
vn 0.000000 0.000000 1.000000
vn 0.000000 0.000000 1.000000
vn 0.000000 0.000000 1.000000
vn 1.000000 0.000000 0.000000
vn 1.000000 0.000000 0.000000
vn 1.000000 0.000000 0.000000
vn 1.000000 0.000000 0.000000
vn 1.000000 0.000000 0.000000
vn 1.000000 0.000000 0.000000
vn 0.000000 0.000000 -1.000000
vn 0.000000 0.000000 -1.000000
vn 0.000000 0.000000 -1.000000
vn 0.000000 0.000000 -1.000000
vn 0.000000 0.000000 -1.000000
vn 0.000000 0.000000 -1.000000
vn -1.000000 0.000000 0.000000
vn -1.000000 0.000000 0.000000
vn -1.000000 0.000000 0.000000
vn -1.000000 0.000000 0.000000
vn -1.000000 0.000000 0.000000
vn -1.000000 0.000000 0.000000
vn 0.000000 -1.000000 0.000011
vn 0.000000 -1.000000 0.000011
vn 0.000000 -1.000000 0.000011
vn 0.000000 -1.000000 -0.000004
vn 0.000000 -1.000000 -0.000004
vn 0.000000 -1.000000 -0.000004
vn 0.000000 -1.000000 0.000000
vn 0.000000 -1.000000 0.000000
vn 0.000000 -1.000000 0.000000
vn 0.000000 -1.000000 0.000000
vn 0.000000 -1.000000 0.000000
vn 0.000000 -1.000000 0.000000
vn 0.000000 -1.000000 -0.000011
vn 0.000000 -1.000000 -0.000011
vn 0.000000 -1.000000 -0.000011
vn 0.000000 -1.000000 0.000004
vn 0.000000 -1.000000 0.000004
vn 0.000000 -1.000000 0.000004
vn 0.000000 -1.000000 0.000000
vn 0.000000 -1.000000 0.000000
vn 0.000000 -1.000000 0.000000
vn 0.000000 -1.000000 0.000000
vn 0.000000 -1.000000 0.000000
vn 0.000000 -1.000000 0.000000
vn 0.000000 0.000000 -1.000000
vn 0.000000 0.000000 -1.000000
vn 0.000000 0.000000 -1.000000
vn 0.000000 0.000000 -1.000000
vn 0.000000 0.000000 -1.000000
vn 0.000000 0.000000 -1.000000
vn -1.000000 0.000000 0.000000
vn -1.000000 0.000000 0.000000
vn -1.000000 0.000000 0.000000
vn -1.000000 0.000000 0.000000
vn -1.000000 0.000000 0.000000
vn -1.000000 0.000000 0.000000
vn 0.000000 0.000000 1.000000
vn 0.000000 0.000000 1.000000
vn 0.000000 0.000000 1.000000
vn 0.000000 0.000000 1.000000
vn 0.000000 0.000000 1.000000
vn 0.000000 0.000000 1.000000
vn 1.000000 0.000000 0.000000
vn 1.000000 0.000000 0.000000
vn 1.000000 0.000000 0.000000
vn 1.000000 0.000000 0.000000
vn 1.000000 0.000000 0.000000
vn 1.000000 0.000000 0.000000
vn 0.000000 -1.000000 -0.000002
vn 0.000000 -1.000000 -0.000002
vn 0.000000 -1.000000 -0.000002
vn 0.000000 -1.000000 0.000005
vn 0.000000 -1.000000 0.000005
vn 0.000000 -1.000000 0.000005
vn 0.000000 -1.000000 0.000000
vn 0.000000 -1.000000 0.000000
vn 0.000000 -1.000000 0.000000
vn 0.000000 -1.000000 0.000000
vn 0.000000 -1.000000 0.000000
vn 0.000000 -1.000000 0.000000
vn 0.000000 -1.000000 0.000002
vn 0.000000 -1.000000 0.000002
vn 0.000000 -1.000000 0.000002
vn 0.000000 -1.000000 -0.000005
vn 0.000000 -1.000000 -0.000005
vn 0.000000 -1.000000 -0.000005
vn 0.000000 -1.000000 0.000000
vn 0.000000 -1.000000 0.000000
vn 0.000000 -1.000000 0.000000
vn 0.000000 -1.000000 0.000000
vn 0.000000 -1.000000 0.000000
vn 0.000000 -1.000000 0.000000
vn 0.000000 0.000000 -1.000000
vn 0.000000 0.000000 -1.000000
vn 0.000000 0.000000 -1.000000
vn 0.000000 0.000000 -1.000000
vn 0.000000 0.000000 -1.000000
vn 0.000000 0.000000 -1.000000
vn -1.000000 0.000000 0.000000
vn -1.000000 0.000000 0.000000
vn -1.000000 0.000000 0.000000
vn -1.000000 0.000000 0.000000
vn -1.000000 0.000000 0.000000
vn -1.000000 0.000000 0.000000
vn 0.000000 0.000000 1.000000
vn 0.000000 0.000000 1.000000
vn 0.000000 0.000000 1.000000
vn 0.000000 0.000000 1.000000
vn 0.000000 0.000000 1.000000
vn 0.000000 0.000000 1.000000
vn 1.000000 0.000000 0.000000
vn 1.000000 0.000000 0.000000
vn 1.000000 0.000000 0.000000
vn 1.000000 0.000000 0.000000
vn 1.000000 0.000000 0.000000
vn 1.000000 0.000000 0.000000
s off
f 35/127/1 36/122/2 3/4/3
f 3/4/4 36/122/5 4/3/6
f 49/19/7 50/20/8 52/22/9
f 52/22/10 50/20/11 51/21/12
f 5/23/13 6/24/14 34/128/15
f 34/128/16 6/24/17 33/25/18
f 13/41/19 14/42/20 16/44/21
f 16/44/22 14/42/23 15/43/24
f 36/123/25 33/46/26 4/48/27
f 4/48/28 33/46/29 6/47/30
f 34/129/31 35/126/32 5/66/33
f 5/66/34 35/126/35 3/65/36
f 7/36/37 8/164/38 9/186/39
f 9/186/40 8/164/41 10/37/42
f 8/58/43 2/167/44 10/120/45
f 10/120/46 2/167/47 11/59/48
f 2/14/49 1/169/50 11/185/51
f 11/185/52 1/169/53 12/15/54
f 1/76/55 7/162/56 12/118/57
f 12/118/58 7/162/59 9/77/60
f 9/38/61 10/187/62 13/40/63
f 13/40/64 10/187/65 14/39/66
f 10/60/67 11/119/68 14/62/69
f 14/62/70 11/119/71 15/61/72
f 11/16/73 12/184/74 15/18/75
f 15/18/76 12/184/77 16/17/78
f 12/78/79 9/121/80 16/80/81
f 16/80/82 9/121/83 13/79/84
f 18/34/85 17/156/86 7/163/87
f 7/163/88 17/156/89 8/35/90
f 7/75/91 1/168/92 18/160/93
f 18/160/94 1/168/95 19/74/96
f 1/13/97 2/166/98 19/11/99
f 19/11/100 2/166/101 20/12/102
f 2/57/103 8/165/104 20/55/105
f 20/55/106 8/165/107 17/56/108
f 22/32/109 21/148/110 18/161/111
f 18/161/112 21/148/113 17/33/114
f 18/73/115 19/158/116 22/146/117
f 22/146/118 19/158/119 23/72/120
f 19/159/121 20/154/122 23/9/123
f 23/9/124 20/154/125 24/10/126
f 20/155/127 17/157/128 24/53/129
f 24/53/130 17/157/131 21/54/132
f 26/30/133 25/140/134 22/147/135
f 22/147/136 25/140/137 21/31/138
f 22/71/139 23/152/140 26/144/141
f 26/144/142 23/152/143 27/70/144
f 23/153/145 24/150/146 27/7/147
f 27/7/148 24/150/149 28/8/150
f 24/151/151 21/149/152 28/51/153
f 28/51/154 21/149/155 25/52/156
f 30/28/157 29/132/158 26/145/159
f 26/145/160 29/132/161 25/29/162
f 26/69/163 27/142/164 30/130/165
f 30/130/166 27/142/167 31/68/168
f 27/143/169 28/138/170 31/5/171
f 31/5/172 28/138/173 32/6/174
f 28/139/175 25/141/176 32/49/177
f 32/49/178 25/141/179 29/50/180
f 34/26/181 33/124/182 30/131/183
f 30/131/184 33/124/185 29/27/186
f 30/67/187 31/136/188 34/63/189
f 34/63/190 31/136/191 35/64/192
f 31/137/193 32/134/194 35/1/195
f 35/1/196 32/134/197 36/2/198
f 32/135/199 29/133/200 36/45/201
f 36/45/202 29/133/203 33/125/204
f 3/81/205 4/183/206 37/82/207
f 37/82/208 4/183/209 38/181/210
f 4/183/211 6/182/212 38/181/213
f 38/181/214 6/182/215 39/179/216
f 6/182/217 5/180/218 39/179/219
f 39/179/220 5/180/221 40/178/222
f 5/180/223 3/81/224 40/178/225
f 40/178/226 3/81/227 37/82/228
f 37/83/229 38/84/230 41/86/231
f 41/86/232 38/84/233 42/85/234
f 38/87/235 39/88/236 42/90/237
f 42/90/238 39/88/239 43/89/240
f 39/91/241 40/92/242 43/94/243
f 43/94/244 40/92/245 44/93/246
f 40/95/247 37/96/248 44/98/249
f 44/98/250 37/96/251 41/97/252
f 41/99/253 42/176/254 45/100/255
f 45/100/256 42/176/257 46/172/258
f 42/176/259 43/175/260 46/172/261
f 46/172/262 43/175/263 47/171/264
f 43/175/265 44/174/266 47/171/267
f 47/171/268 44/174/269 48/170/270
f 44/101/271 41/177/272 48/102/273
f 48/102/274 41/177/275 45/173/276
f 45/173/277 46/103/278 49/105/279
f 49/105/280 46/103/281 50/104/282
f 46/106/283 47/107/284 50/109/285
f 50/109/286 47/107/287 51/108/288
f 47/110/289 48/111/290 51/113/291
f 51/113/292 48/111/293 52/112/294
f 48/114/295 45/115/296 52/117/297
f 52/117/298 45/115/299 49/116/300
