# This file uses centimeters as units for non-parametric coordinates.

v -1.180809 2.640839 0.333618
v -1.181541 2.700348 0.455688
v -0.995216 2.640839 0.333374
v -0.995964 2.700348 0.455963
v -0.995033 1.171677 1.034256
v -0.993843 1.231171 1.156860
v -1.180634 1.171677 1.034470
v -1.179474 1.231171 1.158554
v 1.452988 2.054718 -1.191071
v -1.454086 2.054718 -1.187042
v 1.456070 3.171753 0.808029
v -1.451035 3.171753 0.814011
v -1.452271 3.001038 0.994186
v 1.454788 3.001038 0.990662
v -1.453537 1.874954 -0.998016
v 1.453537 1.874954 -1.002075
v 1.453537 0.000000 -1.002075
v -1.453537 0.000000 -0.998016
v 1.453537 1.874954 -1.002075
v -1.453537 1.874954 -0.998016
v 1.454056 1.203644 1.185516
v -1.451065 1.203644 1.191063
v 1.454056 0.000000 1.185516
v -1.451065 0.000000 1.191063
v -1.454453 0.660507 -0.890106
v -1.645905 0.660507 -0.890289
v -1.454453 1.027634 -0.890106
v -1.645905 1.027634 -0.890289
v -1.450699 1.027634 1.083618
v -1.642151 1.027634 1.083435
v -1.450699 0.660507 1.083618
v -1.642151 0.660507 1.083435
v 1.452621 0.660507 -0.894135
v 1.644073 0.660507 -0.894440
v 1.452621 1.027634 -0.894135
v 1.644073 1.027634 -0.894440
v 1.454453 1.027634 1.077591
v 1.645905 1.027634 1.077774
v 1.454453 0.660507 1.077591
v 1.645905 0.660507 1.077774
v -1.331467 1.847381 -0.905518
v 1.329391 1.847381 -0.908508
v -1.328903 1.231216 1.097473
v 1.333969 1.231216 1.092575
v 0.000235 1.674820 0.094742
v -1.331467 1.696243 -0.905518
v 1.329391 1.696243 -0.908508
v -1.451853 0.178616 -0.292840
v -1.452093 0.477790 -0.292840
v -1.452585 0.178616 -0.799880
v -1.452826 0.477790 -0.799880
v 1.453891 0.178616 -0.292840
v 1.453737 0.178616 -0.799880
v 1.453840 0.477790 -0.292840
v 1.453686 0.477790 -0.799880
v -0.651729 0.477790 1.187429
v -1.203090 0.477790 1.189150
v -0.651729 0.178616 1.187429
v -1.203090 0.178616 1.189150
v -1.452546 0.706602 -0.890106
v -1.620134 0.706602 -0.890289
v -1.452546 0.981539 -0.890106
v -1.620134 0.981539 -0.890289
v -1.616439 0.981539 1.083435
v -1.448851 0.981539 1.083618
v -1.448851 0.706602 1.083618
v -1.616439 0.706602 1.083435
v 1.453551 0.706602 -0.894135
v 1.453551 0.981539 -0.894135
v 1.618332 0.706602 -0.894440
v 1.618332 0.981539 -0.894440
v 1.455354 0.981539 1.077591
v 1.455354 0.706602 1.077591
v 1.620134 0.981539 1.077774
v 1.620134 0.706602 1.077774
vt 0.262642 0.401442
vt 0.262642 0.401441
vt 0.238414 0.401442
vt 0.238414 0.401441
vt 0.262642 0.401441
vt 0.262642 0.401441
vt 0.291716 0.401442
vt 0.262642 0.401442
vt 0.145509 0.062429
vt 0.145509 0.062429
vt 0.168684 0.062429
vt 0.168684 0.062429
vt 0.145509 0.062429
vt 0.168684 0.062429
vt 0.145509 0.062429
vt 0.168684 0.062429
vt 0.145509 0.062429
vt 0.145509 0.062429
vt 0.145509 0.062429
vt 0.168684 0.062429
vt 0.636959 0.306449
vt 0.503653 0.306449
vt 0.503653 0.405838
vt 0.636960 0.405838
vt 0.145509 0.062429
vt 0.145509 0.062429
vt 0.168684 0.062429
vt 0.145509 0.062429
vt 0.145509 0.062429
vt 0.168684 0.062429
vt 0.168684 0.062429
vt 0.145509 0.062429
vt 0.502768 0.410424
vt 0.621787 0.410429
vt 0.137538 0.181203
vt 0.169617 0.181203
vt 0.203765 0.181203
vt 0.203765 0.181203
vt 0.203765 0.181203
vt 0.143747 0.181203
vt 0.116541 0.060980
vt 0.116541 0.060980
vt 0.116541 0.060980
vt 0.116541 0.060980
vt 0.203765 0.181203
vt 0.137538 0.181203
vt 0.203765 0.181203
vt 0.203765 0.181203
vt 0.169617 0.181203
vt 0.143747 0.181203
vt 0.203765 0.181203
vt 0.111668 0.181203
vt 0.238414 0.401441
vt 0.262642 0.401442
vt 0.238414 0.401441
vt 0.169484 0.182438
vt 0.169484 0.182438
vt 0.205702 0.182438
vt 0.136371 0.182438
vt 0.169484 0.182438
vt 0.169484 0.182438
vt 0.110501 0.182438
vt 0.110501 0.182438
vt 0.110501 0.182438
vt 0.110501 0.182438
vt 0.136371 0.182438
vt 0.205702 0.182438
vt 0.169484 0.182438
vt 0.136371 0.182438
vt 0.169617 0.181203
vt 0.137538 0.181203
vt 0.137538 0.181203
vt 0.137538 0.181203
vt 0.137538 0.181203
vt 0.137538 0.181203
vt 0.137538 0.181203
vt 0.137538 0.181203
vt 0.169617 0.181203
vt 0.137538 0.181203
vt 0.137538 0.181203
vt 0.137538 0.181203
vt 0.137538 0.181203
vt 0.137538 0.181203
vt 0.169617 0.181203
vt 0.137538 0.181203
vt 0.137538 0.181203
vt 0.137538 0.181203
vt 0.137538 0.181203
vt 0.137538 0.181203
vt 0.169617 0.181203
vt 0.137538 0.181203
vt 0.137538 0.181203
vt 0.137538 0.181203
vt 0.262642 0.401441
vt 0.238414 0.401442
vt 0.238414 0.401442
vt 0.291716 0.401441
vt 0.262642 0.401442
vt 0.291716 0.401442
vt 0.291716 0.401442
vt 0.291716 0.401441
vt 0.291716 0.401441
vt 0.502761 0.496618
vt 0.562278 0.450918
vt 0.621790 0.496620
vt 0.203765 0.181203
vt 0.137538 0.181203
vt 0.203765 0.181203
vt 0.203765 0.181203
vt 0.111668 0.181203
vt 0.203765 0.181203
vt 0.203765 0.181203
vt 0.169617 0.181203
vt 0.203765 0.181203
vt 0.203765 0.181203
vt 0.111668 0.181203
vt 0.203765 0.181203
vt 0.203765 0.181203
vt 0.169617 0.181203
vt 0.203765 0.181203
vt 0.203765 0.181203
vt 0.203765 0.181203
vt 0.203765 0.181203
vt 0.203765 0.181203
vt 0.137538 0.181203
vt 0.203765 0.181203
vt 0.203765 0.181203
vt 0.111668 0.181203
vt 0.203765 0.181203
vt 0.111668 0.181203
vt 0.143747 0.181203
vt 0.111668 0.181203
vt 0.143747 0.181203
vt 0.143747 0.181203
vt 0.143747 0.181203
vt 0.137538 0.181203
vt 0.137538 0.181203
vt 0.137538 0.181203
vt 0.137538 0.181203
vt 0.137538 0.181203
vt 0.137538 0.181203
vt 0.137538 0.181203
vt 0.137538 0.181203
vt 0.298833 0.447329
vt 0.298833 0.447329
vt 0.298833 0.447329
vt 0.298833 0.447329
vt 0.298833 0.447329
vt 0.298833 0.447329
vt 0.298833 0.447329
vt 0.298833 0.447329
vt 0.169617 0.181203
vt 0.169617 0.181203
vt 0.169617 0.181203
vt 0.169617 0.181203
vt 0.297798 0.444225
vt 0.297798 0.444225
vt 0.297798 0.444225
vt 0.297798 0.444225
vt 0.205702 0.182438
vt 0.169484 0.182438
vt 0.205702 0.182438
vt 0.205702 0.182438
vt 0.205702 0.182438
vt 0.205702 0.182438
vt 0.205702 0.182438
vt 0.169484 0.182438
vt 0.205702 0.182438
vt 0.205702 0.182438
vt 0.205702 0.182438
vt 0.205702 0.182438
vt 0.169484 0.182438
vt 0.110501 0.182438
vt 0.136371 0.182438
vt 0.169484 0.182438
vt 0.169484 0.182438
vt 0.169484 0.182438
vt 0.169484 0.182438
vt 0.136371 0.182438
vt 0.169484 0.182438
vt 0.169484 0.182438
vt 0.136371 0.182438
vt 0.169484 0.182438
vt 0.169484 0.182438
vt 0.169484 0.182438
vt 0.169484 0.182438
vt 0.169484 0.182438
vt 0.110501 0.182438
vt 0.169484 0.182438
vt 0.110501 0.182438
vt 0.136371 0.182438
vt 0.110501 0.182438
vt 0.110501 0.182438
vt 0.136371 0.182438
vt 0.110501 0.182438
vt 0.110501 0.182438
vt 0.110501 0.182438
vt 0.169484 0.182438
vt 0.169484 0.182438
vt 0.169484 0.182438
vt 0.169484 0.182438
vt 0.169484 0.182438
vt 0.169484 0.182438
vt 0.169484 0.182438
vt 0.169484 0.182438
vt 0.169484 0.182438
vt 0.169484 0.182438
vt 0.169484 0.182438
vt 0.169484 0.182438
vt 0.169484 0.182438
vt 0.169484 0.182438
vt 0.169484 0.182438
vt 0.169484 0.182438
vt 0.169484 0.182438
vt 0.169484 0.182438
vt 0.169484 0.182438
vt 0.169484 0.182438
vt 0.048329 0.180806
vt 0.048329 0.180806
vt 0.048329 0.180806
vt 0.048329 0.180806
vt 0.048329 0.180806
vt 0.048329 0.180806
vt 0.048329 0.180806
vt 0.048329 0.180806
vt 0.048329 0.180806
vt 0.048329 0.180806
vt 0.048329 0.180806
vt 0.048329 0.180806
vt 0.048329 0.180806
vt 0.048329 0.180806
vt 0.048329 0.180806
vt 0.048329 0.180806
vn 0.999984 0.003534 0.004383
vn 0.999984 0.003534 0.004383
vn 0.999984 0.003534 0.004383
vn 0.999962 -0.003659 -0.007932
vn 0.999962 -0.003659 -0.007932
vn 0.999962 -0.003659 -0.007932
vn 0.003983 -0.899679 0.436533
vn 0.003983 -0.899680 0.436533
vn 0.003983 -0.899679 0.436533
vn 0.000498 -0.901713 0.432334
vn 0.000498 -0.901713 0.432334
vn 0.000498 -0.901713 0.432334
vn -0.001335 0.431561 0.902083
vn -0.001335 0.431561 0.902083
vn -0.001335 0.431561 0.902083
vn 0.008235 0.430574 0.902517
vn 0.008235 0.430574 0.902518
vn 0.008235 0.430574 0.902517
vn -0.999985 -0.003468 -0.004309
vn -0.999985 -0.003468 -0.004309
vn -0.999985 -0.003468 -0.004309
vn -0.999964 0.003531 0.007652
vn -0.999965 0.003531 0.007652
vn -0.999965 0.003531 0.007652
vn -0.001039 -0.430560 -0.902561
vn -0.001039 -0.430560 -0.902562
vn -0.001039 -0.430560 -0.902562
vn -0.001188 -0.430575 -0.902554
vn -0.001188 -0.430575 -0.902554
vn -0.001188 -0.430575 -0.902554
vn -0.000676 0.872964 -0.487784
vn -0.000676 0.872964 -0.487784
vn -0.000676 0.872964 -0.487784
vn -0.001003 0.873167 -0.487421
vn -0.001003 0.873167 -0.487421
vn -0.001003 0.873167 -0.487421
vn 0.001405 0.730533 0.682876
vn 0.001405 0.730533 0.682876
vn 0.001405 0.730533 0.682876
vn 0.000834 0.725905 0.687795
vn 0.000834 0.725905 0.687795
vn 0.000834 0.725905 0.687795
vn 0.999985 -0.005098 0.002253
vn 0.999985 -0.005098 0.002253
vn 0.999985 -0.005098 0.002253
vn 0.999998 0.000904 -0.002047
vn 0.999997 0.000904 -0.002047
vn 0.999998 0.000904 -0.002047
vn -0.999985 0.004955 -0.002165
vn -0.999985 0.004955 -0.002165
vn -0.999985 0.004955 -0.002165
vn -0.999997 -0.000915 0.002036
vn -0.999998 -0.000915 0.002036
vn -0.999997 -0.000915 0.002036
vn -0.000962 -0.724583 -0.689187
vn -0.000962 -0.724583 -0.689187
vn -0.000962 -0.724583 -0.689187
vn -0.000955 -0.724638 -0.689130
vn -0.000955 -0.724638 -0.689130
vn -0.000955 -0.724638 -0.689130
vn 0.000687 -0.870609 0.491975
vn 0.000687 -0.870609 0.491975
vn 0.000687 -0.870609 0.491975
vn 0.000597 -0.870552 0.492075
vn 0.000597 -0.870552 0.492075
vn 0.000597 -0.870552 0.492075
vn -0.001396 0.000000 -0.999999
vn -0.001396 0.000000 -0.999999
vn -0.001396 0.000000 -0.999999
vn -0.001396 0.000000 -0.999999
vn -0.001396 0.000000 -0.999999
vn -0.001396 0.000000 -0.999999
vn -0.999997 0.000000 0.002288
vn -0.999997 0.000000 0.002288
vn -0.999997 0.000000 0.002288
vn -0.999999 0.001116 0.000822
vn -1.000000 -0.000390 0.000931
vn -0.999995 0.002172 0.002322
vn -0.999995 0.002172 0.002322
vn -1.000000 -0.000390 0.000931
vn -0.999999 -0.000437 0.001581
vn 0.001092 0.000000 -0.999999
vn 0.001092 0.000000 -0.999999
vn 0.001092 0.000000 -0.999999
vn 0.001092 0.000000 -0.999999
vn 0.001092 0.000000 -0.999999
vn 0.001092 0.000000 -0.999999
vn 0.000000 1.000000 0.000000
vn 0.000000 1.000000 0.000000
vn 0.000000 1.000000 0.000000
vn 0.000000 1.000000 0.000000
vn 0.000000 1.000000 0.000000
vn 0.000000 1.000000 0.000000
vn -0.001093 0.000000 0.999999
vn -0.001093 0.000000 0.999999
vn -0.001093 0.000000 0.999999
vn -0.001093 0.000000 0.999999
vn -0.001093 0.000000 0.999999
vn -0.001093 0.000000 0.999999
vn -0.999998 0.000000 0.001902
vn -0.999998 0.000000 0.001902
vn -0.999998 0.000000 0.001902
vn -0.999998 0.000000 0.001902
vn -0.999998 0.000000 0.001902
vn -0.999998 0.000000 0.001902
vn 0.000000 -1.000000 -0.000000
vn 0.000000 -1.000000 -0.000000
vn 0.000000 -1.000000 -0.000000
vn 0.000000 -1.000000 0.000000
vn 0.000000 -1.000000 0.000000
vn 0.000000 -1.000000 0.000000
vn -0.001852 0.000000 -0.999998
vn -0.001852 0.000000 -0.999998
vn -0.001852 0.000000 -0.999998
vn -0.001852 0.000000 -0.999998
vn -0.001852 0.000000 -0.999998
vn -0.001852 0.000000 -0.999998
vn 0.000000 1.000000 0.000000
vn 0.000000 1.000000 0.000000
vn 0.000000 1.000000 0.000000
vn 0.000000 1.000000 -0.000000
vn 0.000000 1.000000 -0.000000
vn 0.000000 1.000000 -0.000000
vn -0.001110 0.000000 0.999999
vn -0.001110 0.000000 0.999999
vn -0.001110 0.000000 0.999999
vn -0.001112 0.000000 0.999999
vn -0.001112 0.000000 0.999999
vn -0.001112 0.000000 0.999999
vn 1.000000 0.000000 -0.000928
vn 1.000000 0.000000 -0.000928
vn 1.000000 0.000000 -0.000928
vn 1.000000 0.000000 -0.000928
vn 1.000000 0.000000 -0.000928
vn 1.000000 0.000000 -0.000928
vn 0.000000 -1.000000 -0.000000
vn 0.000000 -1.000000 -0.000000
vn 0.000000 -1.000000 -0.000000
vn 0.000000 -1.000000 0.000000
vn 0.000000 -1.000000 0.000000
vn 0.000000 -1.000000 0.000000
vn 0.003121 0.000000 0.999995
vn 0.003121 0.000000 0.999995
vn 0.003121 0.000000 0.999995
vn 0.003120 0.000000 0.999995
vn 0.003120 0.000000 0.999995
vn 0.003120 0.000000 0.999995
vn 1.000000 -0.000233 -0.000173
vn 1.000000 -0.000451 -0.000482
vn 1.000000 0.000081 -0.000196
vn 1.000000 0.000081 -0.000196
vn 1.000000 -0.000451 -0.000482
vn 1.000000 0.000091 -0.000331
vn 0.000395 0.959076 0.283148
vn 0.000395 0.959076 0.283148
vn 0.000395 0.959076 0.283148
vn 0.000321 0.958445 0.285277
vn 0.000321 0.958445 0.285277
vn 0.000321 0.958445 0.285277
vn -0.006219 0.956035 0.293188
vn -0.006219 0.956035 0.293188
vn -0.006219 0.956035 0.293188
vn 0.009518 0.955758 0.294001
vn 0.009518 0.955758 0.294001
vn 0.009518 0.955758 0.294001
vn 0.000541 0.959045 0.283252
vn 0.000541 0.959045 0.283252
vn 0.000541 0.959045 0.283252
vn 0.000522 0.958885 0.283795
vn 0.000522 0.958885 0.283795
vn 0.000522 0.958885 0.283795
vn -0.007552 0.955971 0.293363
vn -0.007552 0.955971 0.293363
vn -0.007552 0.955971 0.293363
vn 0.009515 0.955682 0.294247
vn 0.009515 0.955682 0.294247
vn 0.009515 0.955682 0.294247
vn 0.000746 0.914139 0.405399
vn 0.000746 0.914139 0.405399
vn 0.000746 0.914139 0.405399
vn 0.001124 0.000000 0.999999
vn 0.001124 0.000000 0.999999
vn 0.001124 0.000000 0.999999
vn 0.001124 0.000000 0.999999
vn 0.001124 0.000000 0.999999
vn 0.001124 0.000000 0.999999
vn 0.999999 0.000000 -0.001280
vn 0.999999 0.000000 -0.001280
vn 0.999999 0.000000 -0.001280
vn 0.000024 0.999771 0.021381
vn 0.000024 0.999771 0.021381
vn 0.000024 0.999771 0.021381
vn 0.153074 0.962642 0.223356
vn 0.153074 0.962643 0.223356
vn 0.153074 0.962642 0.223356
vn -0.152531 0.962651 0.223690
vn -0.152531 0.962651 0.223690
vn -0.152531 0.962651 0.223690
vn -1.000000 -0.000074 0.000651
vn -1.000000 -0.000328 0.000853
vn -1.000000 -0.000390 0.000931
vn -0.999999 0.001116 0.000822
vn -0.999994 0.002289 0.002537
vn -1.000000 -0.000074 0.000651
vn -0.999999 0.001116 0.000822
vn -0.999995 0.002172 0.002322
vn -1.000000 -0.000328 0.000853
vn -0.999999 -0.000490 0.001110
vn -0.999999 -0.000437 0.001581
vn -1.000000 -0.000390 0.000931
vn -0.999999 -0.000490 0.001110
vn -0.999994 0.002289 0.002537
vn -0.999995 0.002172 0.002322
vn -0.999999 -0.000437 0.001581
vn 1.000000 0.000016 -0.000137
vn 1.000000 -0.000466 -0.000530
vn 1.000000 -0.000451 -0.000482
vn 1.000000 -0.000233 -0.000173
vn 1.000000 0.000069 -0.000180
vn 1.000000 0.000016 -0.000137
vn 1.000000 -0.000233 -0.000173
vn 1.000000 0.000081 -0.000196
vn 1.000000 -0.000466 -0.000530
vn 1.000000 0.000102 -0.000233
vn 1.000000 0.000091 -0.000331
vn 1.000000 -0.000451 -0.000482
vn 1.000000 0.000102 -0.000233
vn 1.000000 0.000069 -0.000180
vn 1.000000 0.000081 -0.000196
vn 1.000000 0.000091 -0.000331
vn 0.002102 -0.002691 0.999994
vn 0.002102 -0.002691 0.999994
vn 0.002102 -0.002691 0.999994
vn 0.002102 -0.002691 0.999994
vn 0.000908 0.000000 1.000000
vn 0.000908 0.000000 1.000000
vn 0.000908 0.000000 1.000000
vn 0.000908 0.000000 1.000000
vn 0.007714 0.000000 0.999970
vn 0.007714 0.000000 0.999970
vn 0.007714 0.000000 0.999970
vn 0.007714 0.000000 0.999970
vn 0.002102 0.010933 0.999938
vn 0.002102 0.010933 0.999938
vn 0.002102 0.010933 0.999938
vn 0.002102 0.010933 0.999938
vn 0.001020 -0.000306 -0.999999
vn 0.001020 -0.000306 -0.999999
vn 0.001020 -0.000306 -0.999999
vn 0.001020 -0.000306 -0.999999
vn -0.000000 0.000000 -1.000000
vn -0.000000 0.000000 -1.000000
vn -0.000000 0.000000 -1.000000
vn -0.000000 0.000000 -1.000000
vn 0.001020 0.000306 -0.999999
vn 0.001020 0.000306 -0.999999
vn 0.001020 0.000306 -0.999999
vn 0.001020 0.000306 -0.999999
vn -0.001020 -0.000306 0.999999
vn -0.001020 -0.000306 0.999999
vn -0.001020 -0.000306 0.999999
vn -0.001020 -0.000306 0.999999
vn 0.000003 0.000000 1.000000
vn 0.000003 0.000000 1.000000
vn 0.000003 0.000000 1.000000
vn 0.000003 0.000000 1.000000
vn -0.001020 0.000306 0.999999
vn -0.001020 0.000306 0.999999
vn -0.001020 0.000306 0.999999
vn -0.001020 0.000306 0.999999
vn -0.001713 -0.000461 -0.999999
vn -0.001713 -0.000461 -0.999999
vn -0.001713 -0.000461 -0.999998
vn -0.001713 -0.000461 -0.999999
vn -0.001713 0.000461 -0.999999
vn -0.001713 0.000461 -0.999999
vn -0.001713 0.000461 -0.999998
vn -0.001713 0.000461 -0.999998
vn 0.000001 0.000000 -1.000000
vn 0.000001 0.000000 -1.000000
vn 0.000001 0.000000 -1.000000
vn 0.000001 0.000000 -1.000000
vn -0.001028 0.000277 0.999999
vn -0.001028 0.000277 0.999999
vn -0.001028 0.000277 0.999999
vn -0.001028 0.000277 0.999999
vn -0.001028 -0.000277 0.999999
vn -0.001028 -0.000277 0.999999
vn -0.001028 -0.000277 0.999999
vn -0.001028 -0.000277 1.000000
vn -0.000002 0.000000 1.000000
vn -0.000002 0.000000 1.000000
vn -0.000002 0.000000 1.000000
vn -0.000002 0.000000 1.000000
s off
f 4/1/1 6/2/2 3/54/3
f 3/54/4 6/2/5 5/94/6
f 6/2/7 8/5/8 5/94/9
f 5/94/10 8/5/11 7/6/12
f 2/7/13 8/102/14 4/99/15
f 4/100/16 8/101/17 6/97/18
f 2/98/19 1/8/20 8/5/21
f 8/5/22 1/8/23 7/6/24
f 7/53/25 1/96/26 5/4/27
f 5/55/28 1/95/29 3/3/30
f 9/21/31 10/22/32 11/24/33
f 11/24/34 10/22/35 12/23/36
f 11/14/37 12/20/38 14/27/39
f 14/27/40 12/20/41 13/11/42
f 14/9/43 16/15/44 11/25/45
f 11/13/46 16/29/47 9/10/48
f 13/28/49 12/19/50 15/17/51
f 15/18/52 12/26/53 10/32/54
f 16/16/55 15/31/56 9/30/57
f 9/30/58 15/31/59 10/12/60
f 16/41/61 14/42/62 15/43/63
f 15/43/64 14/42/65 13/44/66
f 17/84/67 18/36/68 19/90/69
f 19/90/70 18/36/71 20/78/72
f 42/128/73 47/132/74 44/110/75
f 48/144/76 49/145/77 50/146/78
f 50/146/79 49/145/80 51/147/81
f 60/218/82 61/219/83 62/220/84
f 62/220/85 61/219/86 63/221/87
f 28/171/88 30/164/89 27/166/90
f 27/58/91 30/165/92 29/170/93
f 65/222/94 64/223/95 66/224/96
f 66/224/97 64/223/98 67/225/99
f 26/182/100 32/194/101 28/59/102
f 28/59/103 32/194/104 30/179/105
f 26/197/106 25/188/107 32/63/108
f 32/195/109 25/193/110 31/62/111
f 68/226/112 69/227/113 70/228/114
f 70/228/115 69/227/116 71/229/117
f 35/169/118 37/67/119 36/163/120
f 36/162/121 37/160/122 38/168/123
f 72/230/124 73/231/125 74/232/126
f 74/232/127 73/231/128 75/233/129
f 34/191/130 36/66/131 40/69/132
f 40/69/133 36/66/134 38/174/135
f 40/196/136 39/173/137 34/65/138
f 34/192/139 39/190/140 33/64/141
f 56/156/142 57/157/143 58/158/144
f 58/158/145 57/157/146 59/159/147
f 52/148/148 53/149/149 54/150/150
f 54/150/151 53/149/152 55/151/153
f 19/106/154 20/126/155 42/39/156
f 42/129/157 20/38/158 41/123/159
f 20/124/160 22/120/161 41/122/162
f 41/121/163 22/47/164 43/115/165
f 22/118/166 21/114/167 43/51/168
f 43/117/169 21/48/170 44/109/171
f 21/112/172 19/108/173 44/45/174
f 44/111/175 19/37/176 42/127/177
f 44/105/178 45/104/179 43/103/180
f 42/135/181 41/131/182 47/40/183
f 47/133/184 41/50/185 46/134/186
f 43/116/187 46/52/188 41/130/189
f 47/34/190 46/33/191 45/104/192
f 44/105/193 47/34/194 45/104/195
f 43/103/196 45/104/197 46/33/198
f 24/71/199 22/73/200 49/79/201 48/136/202
f 18/74/203 24/46/204 48/76/205 50/138/206
f 22/72/207 20/77/208 51/80/209 49/137/210
f 20/125/211 18/75/212 50/81/213 51/139/214
f 23/82/215 17/35/216 53/91/217 52/140/218
f 21/86/219 23/83/220 52/88/221 54/142/222
f 17/85/223 19/89/224 55/93/225 53/141/226
f 19/107/227 21/87/228 54/92/229 55/143/230
f 21/113/231 22/119/232 57/153/233 56/152/234
f 23/49/235 21/113/236 56/152/237 58/154/238
f 22/119/239 24/70/240 59/155/241 57/153/242
f 24/70/243 23/49/244 58/154/245 59/155/246
f 25/56/247 26/183/248 61/199/249 60/198/250
f 26/57/251 28/189/252 63/201/253 61/200/254
f 28/189/255 27/167/256 62/202/257 63/201/258
f 29/61/259 30/180/260 64/204/261 65/203/262
f 30/60/263 32/187/264 67/206/265 64/205/266
f 32/187/267 31/181/268 66/207/269 67/206/270
f 34/178/271 33/185/272 68/208/273 70/209/274
f 35/176/275 36/186/276 71/211/277 69/210/278
f 36/186/279 34/177/280 70/212/281 71/211/282
f 38/68/283 37/161/284 72/213/285 74/214/286
f 39/172/287 40/184/288 75/216/289 73/215/290
f 40/184/291 38/175/292 74/217/293 75/216/294
