# This file uses centimeters as units for non-parametric coordinates.

v -0.207268 0.213740 0.199011
v 0.207260 0.213745 0.199011
v -0.207268 -0.000008 0.197977
v 0.207260 0.000000 0.197977
v 0.207260 0.213747 -0.199011
v 0.207260 0.000000 -0.199011
v -0.207268 0.213743 -0.199011
v -0.207268 -0.000008 -0.199011
vt 0.918416 0.590851
vt 0.918505 0.590851
vt 0.918505 0.590604
vt 0.918416 0.590604
vt 0.891495 0.591113
vt 0.891384 0.591113
vt 0.891384 0.591361
vt 0.891495 0.591361
vt 0.891528 0.591609
vt 0.891639 0.591609
vt 0.891639 0.591361
vt 0.891528 0.591361
vt 0.921785 0.670166
vt 0.887800 0.670166
vt 0.887800 0.637534
vt 0.921785 0.637534
vn 0.000000 -0.004836 0.999988
vn 0.000000 -0.004836 0.999988
vn 0.000000 -0.004836 0.999988
vn 0.000000 -0.004836 0.999988
vn 0.000000 -0.004836 0.999988
vn 0.000000 -0.004836 0.999988
vn 1.000000 0.000000 0.000000
vn 1.000000 0.000000 0.000000
vn 1.000000 0.000000 0.000000
vn 1.000000 0.000000 0.000000
vn 1.000000 0.000000 0.000000
vn 1.000000 0.000000 0.000000
vn -1.000000 -0.000000 0.000000
vn -1.000000 -0.000000 0.000000
vn -1.000000 -0.000000 0.000000
vn -1.000000 0.000000 0.000000
vn -1.000000 0.000000 0.000000
vn -1.000000 0.000000 0.000000
vn -0.000010 1.000000 0.000005
vn -0.000010 1.000000 0.000005
vn -0.000010 1.000000 0.000005
vn -0.000010 1.000000 0.000005
vn -0.000010 1.000000 0.000005
vn -0.000010 1.000000 0.000005
s off
f 2/1/1 1/2/2 4/4/3
f 4/4/4 1/2/5 3/3/6
f 2/6/7 4/7/8 5/5/9
f 5/5/10 4/7/11 6/8/12
f 1/9/13 7/10/14 3/12/15
f 3/12/16 7/10/17 8/11/18
f 5/13/19 7/14/20 2/16/21
f 2/16/22 7/14/23 1/15/24
