# This file uses centimeters as units for non-parametric coordinates.

v 0.280529 0.022423 -0.352814
v -0.280525 0.022423 -0.352814
v 0.280529 0.022423 0.352814
v -0.280525 0.022423 0.352814
vt 0.688451 0.460553
vt 0.716627 0.460553
vt 0.688451 0.502860
vt 0.716627 0.502860
vn 0.000000 1.000000 0.000000
vn 0.000000 1.000000 0.000000
vn 0.000000 1.000000 0.000000
vn 0.000000 1.000000 0.000000
vn 0.000000 1.000000 0.000000
vn 0.000000 1.000000 0.000000
s off
f 1/1/1 2/2/2 3/3/3
f 3/3/4 2/2/5 4/4/6
