# This file uses centimeters as units for non-parametric coordinates.

v 0.397560 0.022423 -0.500000
v -0.397552 0.022423 -0.500000
v 0.397560 0.022423 0.500000
v -0.397552 0.022423 0.500000
vt 0.626367 0.505179
vt 0.687036 0.505179
vt 0.626367 0.565069
vt 0.687036 0.565069
vn 0.000000 1.000000 0.000000
vn 0.000000 1.000000 0.000000
vn 0.000000 1.000000 0.000000
vn 0.000000 1.000000 0.000000
vn 0.000000 1.000000 0.000000
vn 0.000000 1.000000 0.000000
s off
f 1/1/1 2/2/2 3/3/3
f 3/3/4 2/2/5 4/4/6
