# This file uses centimeters as units for non-parametric coordinates.

v 0.397568 0.022423 -0.500000
v -0.397560 0.022423 -0.500000
v 0.397568 0.022423 0.500000
v -0.397560 0.022423 0.500000
vt 0.656006 0.441058
vt 0.686057 0.441058
vt 0.656006 0.501783
vt 0.686057 0.501783
vn 0.000000 1.000000 0.000000
vn 0.000000 1.000000 0.000000
vn 0.000000 1.000000 0.000000
vn 0.000000 1.000000 0.000000
vn 0.000000 1.000000 0.000000
vn 0.000000 1.000000 0.000000
s off
f 1/1/1 2/2/2 3/3/3
f 3/3/4 2/2/5 4/4/6
