# This file uses centimeters as units for non-parametric coordinates.

v -0.221539 0.022423 -0.302877
v -0.221535 0.022423 0.302877
v 0.221535 0.022423 -0.302877
v 0.221535 0.022423 0.302877
vt 0.688001 0.441650
vt 0.716177 0.441650
vt 0.688001 0.458679
vt 0.716177 0.458679
vn 0.000000 1.000000 -0.000000
vn 0.000000 1.000000 -0.000000
vn 0.000000 1.000000 -0.000000
vn 0.000000 1.000000 0.000000
vn 0.000000 1.000000 0.000000
vn 0.000000 1.000000 0.000000
s off
f 1/1/1 2/2/2 3/3/3
f 3/3/4 2/2/5 4/4/6
