# This file uses centimeters as units for non-parametric coordinates.

v 0.928996 0.239355 -0.929005
v -0.928996 0.239355 -0.929005
v 0.928996 0.239355 0.928986
v -0.928996 0.239355 0.928986
v 0.928996 4.337426 -0.929005
v -0.928996 4.337426 -0.929005
v -0.928996 4.337426 0.928986
v 0.928996 4.337426 0.928986
v 0.993589 4.337426 -0.993599
v -0.993589 4.337426 -0.993599
v -0.993589 4.337426 0.993578
v 0.993589 4.337426 0.993578
v 0.993589 4.478685 -0.993599
v -0.993589 4.478685 -0.993599
v -0.993589 4.478685 0.993578
v 0.993589 4.478685 0.993578
v 0.818671 4.478685 -0.818680
v -0.818671 4.478685 -0.818680
v -0.818671 4.478685 0.818659
v 0.818671 4.478685 0.818659
v 0.715628 4.714411 -0.715637
v -0.715628 4.714411 -0.715637
v -0.715628 4.714411 0.715616
v 0.715628 4.714411 0.715616
v 0.995012 -0.002766 -0.995010
v -0.995012 -0.002766 -0.995010
v 0.995012 0.246133 -0.995010
v -0.995012 0.246133 -0.995010
v 0.995012 0.246133 0.995010
v -0.995012 0.246133 0.995010
v 0.995012 -0.002766 0.995010
v -0.995012 -0.002766 0.995010
v -0.928996 3.900197 0.928986
v 0.928996 3.900197 0.928986
v 0.928996 3.900197 -0.929005
v -0.928996 3.900197 -0.929005
v -0.928996 3.687550 0.928986
v 0.928996 3.687550 0.928986
v 0.928996 3.687550 -0.929005
v -0.928996 3.687550 -0.929005
vt 0.486871 0.868451
vt 0.486927 0.868451
vt 0.486927 0.868507
vt 0.486871 0.868507
vt 0.468598 0.763936
vt 0.471571 0.853468
vt 0.471571 0.763181
vt 0.354056 0.763936
vt 0.493548 0.879347
vt 0.493903 0.879347
vt 0.493903 0.879703
vt 0.493548 0.879703
vt 0.473120 0.997577
vt 0.473120 0.910213
vt 0.257663 0.764055
vt 0.348882 0.764055
vt 0.348667 0.763936
vt 0.473093 0.997696
vt 0.473093 0.910592
vt 0.257879 0.763936
vt 0.348667 0.763936
vt 0.472969 0.997363
vt 0.472970 0.910427
vt 0.257879 0.763936
vt 0.485922 0.883105
vt 0.485924 0.883173
vt 0.485989 0.883108
vt 0.485989 0.883173
vt 0.466331 0.877604
vt 0.466336 0.877604
vt 0.466336 0.877674
vt 0.466331 0.877674
vt 0.481489 0.881314
vt 0.481489 0.881384
vt 0.481484 0.881384
vt 0.481484 0.881314
vt 0.466338 0.877604
vt 0.466343 0.877604
vt 0.466343 0.877674
vt 0.466338 0.877674
vt 0.481482 0.881314
vt 0.481482 0.881384
vt 0.481477 0.881384
vt 0.481477 0.881314
vt 0.487093 0.868450
vt 0.487099 0.868513
vt 0.485984 0.888621
vt 0.485987 0.888621
vt 0.485989 0.888621
vt 0.485987 0.888621
vt 0.485985 0.888650
vt 0.485985 0.888649
vt 0.485983 0.888593
vt 0.485983 0.888593
vt 0.488514 0.885715
vt 0.488514 0.886127
vt 0.488476 0.886127
vt 0.488476 0.885715
vt 0.487364 0.897499
vt 0.487364 0.897911
vt 0.486952 0.897911
vt 0.486952 0.897499
vt 0.488465 0.885715
vt 0.488465 0.886127
vt 0.488428 0.886127
vt 0.488428 0.885715
vt 0.484150 0.881836
vt 0.484150 0.882248
vt 0.483738 0.882248
vt 0.483738 0.881836
vt 0.479091 0.900281
vt 0.479091 0.900693
vt 0.479053 0.900693
vt 0.479053 0.900281
vt 0.479139 0.900281
vt 0.479139 0.900693
vt 0.479101 0.900693
vt 0.479101 0.900281
vt 0.496875 0.763181
vt 0.498273 0.997363
vt 0.468598 0.999604
vt 0.257663 0.999578
vt 0.348882 0.999578
vt 0.257879 0.999604
vt 0.348667 0.999604
vt 0.257879 0.999604
vt 0.498150 0.997696
vt 0.498273 0.910427
vt 0.354056 0.999604
vt 0.348667 0.999604
vt 0.498407 0.997577
vt 0.498150 0.910592
vt 0.496875 0.853467
vt 0.498407 0.910213
vt 0.487036 0.868450
vt 0.487036 0.868507
vt 0.487093 0.868507
vt 0.487099 0.868444
vt 0.485922 0.883175
vt 0.485924 0.883108
vt 0.485991 0.883105
vt 0.485991 0.883175
vt 0.487030 0.868444
vt 0.487030 0.868513
vt 0.354056 0.998914
vt 0.348667 0.998914
vt 0.468598 0.998914
vt 0.257663 0.998889
vt 0.348882 0.998889
vt 0.257879 0.998914
vt 0.348667 0.998914
vt 0.257879 0.998914
vn 0.000000 1.000000 0.000000
vn 0.000000 1.000000 0.000000
vn 0.000000 1.000000 0.000000
vn 0.000000 1.000000 0.000000
vn 0.000000 1.000000 0.000000
vn 0.000000 1.000000 0.000000
vn 0.000000 0.000000 1.000000
vn 0.000000 0.000000 1.000000
vn 0.000000 0.000000 1.000000
vn 0.000000 0.000000 1.000000
vn 0.000000 0.000000 1.000000
vn 0.000000 0.000000 1.000000
vn 0.000000 -1.000000 0.000000
vn 0.000000 -1.000000 0.000000
vn 0.000000 -1.000000 0.000000
vn 0.000000 -1.000000 0.000000
vn 0.000000 -1.000000 0.000000
vn 0.000000 -1.000000 0.000000
vn 1.000000 0.000000 0.000000
vn 1.000000 0.000000 0.000000
vn 1.000000 0.000000 0.000000
vn 1.000000 0.000000 0.000000
vn 1.000000 0.000000 0.000000
vn 1.000000 0.000000 0.000000
vn 0.000000 0.000000 -1.000000
vn 0.000000 0.000000 -1.000000
vn 0.000000 0.000000 -1.000000
vn 0.000000 0.000000 -1.000000
vn 0.000000 0.000000 -1.000000
vn 0.000000 0.000000 -1.000000
vn -1.000000 0.000000 0.000000
vn -1.000000 0.000000 0.000000
vn -1.000000 0.000000 0.000000
vn -1.000000 0.000000 0.000000
vn -1.000000 0.000000 0.000000
vn -1.000000 0.000000 0.000000
vn 0.000000 -1.000000 -0.000015
vn 0.000000 -1.000000 -0.000015
vn 0.000000 -1.000000 -0.000015
vn 0.000000 -1.000000 0.000007
vn 0.000000 -1.000000 0.000007
vn 0.000000 -1.000000 0.000007
vn 0.000000 -1.000000 0.000000
vn 0.000000 -1.000000 0.000000
vn 0.000000 -1.000000 0.000000
vn 0.000000 -1.000000 0.000000
vn 0.000000 -1.000000 0.000000
vn 0.000000 -1.000000 0.000000
vn 0.000000 -1.000000 0.000000
vn 0.000000 -1.000000 0.000000
vn 0.000000 -1.000000 0.000000
vn 0.000000 -1.000000 0.000008
vn 0.000000 -1.000000 0.000008
vn 0.000000 -1.000000 0.000008
vn 0.000000 -1.000000 0.000000
vn 0.000000 -1.000000 0.000000
vn 0.000000 -1.000000 0.000000
vn 0.000000 -1.000000 0.000000
vn 0.000000 -1.000000 0.000000
vn 0.000000 -1.000000 0.000000
vn 0.000000 0.000000 -1.000000
vn 0.000000 0.000000 -1.000000
vn 0.000000 0.000000 -1.000000
vn 0.000000 0.000000 -1.000000
vn 0.000000 0.000000 -1.000000
vn 0.000000 0.000000 -1.000000
vn -1.000000 0.000000 0.000000
vn -1.000000 0.000000 0.000000
vn -1.000000 0.000000 0.000000
vn -1.000000 0.000000 0.000000
vn -1.000000 0.000000 0.000000
vn -1.000000 0.000000 0.000000
vn 0.000000 0.000000 1.000000
vn 0.000000 0.000000 1.000000
vn 0.000000 0.000000 1.000000
vn 0.000000 0.000000 1.000000
vn 0.000000 0.000000 1.000000
vn 0.000000 0.000000 1.000000
vn 1.000000 0.000000 0.000000
vn 1.000000 0.000000 0.000000
vn 1.000000 0.000000 0.000000
vn 1.000000 0.000000 0.000000
vn 1.000000 0.000000 0.000000
vn 1.000000 0.000000 0.000000
vn 0.000000 1.000000 0.000003
vn 0.000000 1.000000 0.000003
vn 0.000000 1.000000 0.000003
vn 0.000000 1.000000 -0.000001
vn 0.000000 1.000000 -0.000001
vn 0.000000 1.000000 -0.000001
vn 0.000000 1.000000 0.000000
vn 0.000000 1.000000 0.000000
vn 0.000000 1.000000 0.000000
vn 0.000000 1.000000 0.000000
vn 0.000000 1.000000 0.000000
vn 0.000000 1.000000 0.000000
vn 0.000000 1.000000 0.000001
vn 0.000000 1.000000 0.000001
vn 0.000000 1.000000 0.000001
vn 0.000000 1.000000 -0.000003
vn 0.000000 1.000000 -0.000003
vn 0.000000 1.000000 -0.000003
vn 0.000000 1.000000 0.000000
vn 0.000000 1.000000 0.000000
vn 0.000000 1.000000 0.000000
vn 0.000000 1.000000 0.000000
vn 0.000000 1.000000 0.000000
vn 0.000000 1.000000 0.000000
vn 0.000000 0.400532 -0.916283
vn 0.000000 0.400532 -0.916283
vn 0.000000 0.400532 -0.916283
vn 0.000000 0.400533 -0.916282
vn 0.000000 0.400533 -0.916282
vn 0.000000 0.400533 -0.916282
vn -0.916282 0.400533 0.000000
vn -0.916282 0.400533 0.000000
vn -0.916282 0.400533 0.000000
vn -0.916282 0.400533 0.000000
vn -0.916283 0.400533 0.000000
vn -0.916283 0.400533 0.000000
vn 0.000000 0.400533 0.916282
vn 0.000000 0.400533 0.916282
vn 0.000000 0.400533 0.916282
vn 0.000000 0.400533 0.916283
vn 0.000000 0.400533 0.916283
vn 0.000000 0.400533 0.916283
vn 0.916282 0.400533 0.000000
vn 0.916282 0.400533 0.000000
vn 0.916282 0.400533 0.000000
vn 0.916282 0.400533 0.000000
vn 0.916283 0.400533 0.000000
vn 0.916283 0.400533 0.000000
vn 0.000000 0.000000 -1.000000
vn 0.000000 0.000000 -1.000000
vn 0.000000 0.000000 -1.000000
vn 0.000000 0.000000 -1.000000
vn 0.000000 0.000000 -1.000000
vn 0.000000 0.000000 -1.000000
vn 0.000000 1.000000 0.000000
vn 0.000000 1.000000 0.000000
vn 0.000000 1.000000 0.000000
vn 0.000000 1.000000 0.000000
vn 0.000000 1.000000 0.000000
vn 0.000000 1.000000 0.000000
vn 0.000000 0.000000 1.000000
vn 0.000000 0.000000 1.000000
vn 0.000000 0.000000 1.000000
vn 0.000000 0.000000 1.000000
vn 0.000000 0.000000 1.000000
vn 0.000000 0.000000 1.000000
vn 0.000000 -1.000000 0.000000
vn 0.000000 -1.000000 0.000000
vn 0.000000 -1.000000 0.000000
vn 0.000000 -1.000000 0.000000
vn 0.000000 -1.000000 0.000000
vn 0.000000 -1.000000 0.000000
vn -1.000000 0.000000 0.000000
vn -1.000000 0.000000 0.000000
vn -1.000000 0.000000 0.000000
vn -1.000000 0.000000 0.000000
vn -1.000000 0.000000 0.000000
vn -1.000000 0.000000 0.000000
vn 1.000000 0.000000 0.000000
vn 1.000000 0.000000 0.000000
vn 1.000000 0.000000 0.000000
vn 1.000000 0.000000 0.000000
vn 1.000000 0.000000 0.000000
vn 1.000000 0.000000 0.000000
vn 0.000000 0.000000 1.000000
vn 0.000000 0.000000 1.000000
vn 0.000000 0.000000 1.000000
vn 0.000000 0.000000 1.000000
vn 0.000000 0.000000 1.000000
vn 0.000000 0.000000 1.000000
vn 1.000000 0.000000 0.000000
vn 1.000000 0.000000 0.000000
vn 1.000000 0.000000 0.000000
vn 1.000000 0.000000 0.000000
vn 1.000000 0.000000 0.000000
vn 1.000000 0.000000 0.000000
vn 0.000000 0.000000 -1.000000
vn 0.000000 0.000000 -1.000000
vn 0.000000 0.000000 -1.000000
vn 0.000000 0.000000 -1.000000
vn 0.000000 0.000000 -1.000000
vn 0.000000 0.000000 -1.000000
vn -1.000000 0.000000 0.000000
vn -1.000000 0.000000 0.000000
vn -1.000000 0.000000 0.000000
vn -1.000000 0.000000 0.000000
vn -1.000000 0.000000 0.000000
vn -1.000000 0.000000 0.000000
vn 0.000000 0.000000 1.000000
vn 0.000000 0.000000 1.000000
vn 0.000000 0.000000 1.000000
vn 0.000000 0.000000 1.000000
vn 0.000000 0.000000 1.000000
vn 0.000000 0.000000 1.000000
vn 1.000000 0.000000 0.000000
vn 1.000000 0.000000 0.000000
vn 1.000000 0.000000 0.000000
vn 1.000000 0.000000 0.000000
vn 1.000000 0.000000 0.000000
vn 1.000000 0.000000 0.000000
vn 0.000000 0.000000 -1.000000
vn 0.000000 0.000000 -1.000000
vn 0.000000 0.000000 -1.000000
vn 0.000000 0.000000 -1.000000
vn 0.000000 0.000000 -1.000000
vn 0.000000 0.000000 -1.000000
vn -1.000000 0.000000 0.000000
vn -1.000000 0.000000 0.000000
vn -1.000000 0.000000 0.000000
vn -1.000000 0.000000 0.000000
vn -1.000000 0.000000 0.000000
vn -1.000000 0.000000 0.000000
s off
f 24/1/1 21/2/2 23/4/3
f 23/4/4 21/2/5 22/3/6
f 34/93/7 8/6/8 33/79/9
f 33/79/10 8/6/11 7/7/12
f 1/9/13 3/10/14 2/12/15
f 2/12/16 3/10/17 4/11/18
f 5/13/19 8/14/20 35/91/21
f 35/91/22 8/14/23 34/94/24
f 36/87/25 6/18/26 35/92/27
f 35/92/28 6/18/29 5/19/30
f 36/88/31 33/80/32 6/23/33
f 6/23/34 33/80/35 7/22/36
f 9/25/37 5/100/38 10/99/39
f 10/99/40 5/100/41 6/26/42
f 6/26/43 7/28/44 10/99/45
f 10/99/46 7/28/47 11/102/48
f 8/27/49 12/101/50 7/28/51
f 7/28/52 12/101/53 11/102/54
f 8/27/55 5/100/56 12/101/57
f 12/101/58 5/100/59 9/25/60
f 13/29/61 9/30/62 14/32/63
f 14/32/64 9/30/65 10/31/66
f 10/33/67 11/34/68 14/36/69
f 14/36/70 11/34/71 15/35/72
f 12/37/73 16/38/74 11/40/75
f 11/40/76 16/38/77 15/39/78
f 12/41/79 9/42/80 16/44/81
f 16/44/82 9/42/83 13/43/84
f 17/45/85 13/98/86 18/97/87
f 18/97/88 13/98/89 14/46/90
f 14/46/91 15/104/92 18/97/93
f 18/97/94 15/104/95 19/96/96
f 15/104/97 16/103/98 19/96/99
f 19/96/100 16/103/101 20/95/102
f 16/103/103 13/98/104 20/95/105
f 20/95/106 13/98/107 17/45/108
f 21/47/109 17/48/110 22/50/111
f 22/50/112 17/48/113 18/49/114
f 18/49/115 19/51/116 22/50/117
f 22/50/118 19/51/119 23/52/120
f 20/53/121 24/54/122 19/51/123
f 19/51/124 24/54/125 23/52/126
f 20/53/127 17/48/128 24/54/129
f 24/54/130 17/48/131 21/47/132
f 25/55/133 26/56/134 27/58/135
f 27/58/136 26/56/137 28/57/138
f 27/59/139 28/60/140 29/62/141
f 29/62/142 28/60/143 30/61/144
f 29/63/145 30/64/146 31/66/147
f 31/66/148 30/64/149 32/65/150
f 31/67/151 32/68/152 25/70/153
f 25/70/154 32/68/155 26/69/156
f 26/71/157 32/72/158 28/74/159
f 28/74/160 32/72/161 30/73/162
f 31/75/163 25/76/164 29/78/165
f 29/78/166 25/76/167 27/77/168
f 38/107/169 34/81/170 37/105/171
f 37/105/172 34/81/173 33/89/174
f 35/83/175 34/82/176 39/109/177
f 39/109/178 34/82/179 38/108/180
f 40/111/181 36/85/182 39/110/183
f 39/110/184 36/85/185 35/84/186
f 40/112/187 37/106/188 36/86/189
f 36/86/190 37/106/191 33/90/192
f 3/5/193 38/107/194 4/8/195
f 4/8/196 38/107/197 37/105/198
f 39/109/199 38/108/200 1/16/201
f 1/16/202 38/108/203 3/15/204
f 2/17/205 40/111/206 1/20/207
f 1/20/208 40/111/209 39/110/210
f 4/21/211 37/106/212 2/24/213
f 2/24/214 37/106/215 40/112/216
