# This file uses centimeters as units for non-parametric coordinates.

v 0.612007 0.000000 0.010750
v -0.360756 0.000000 0.010750
v 0.612007 1.265079 0.010750
v -0.360756 1.265079 0.010750
v 0.612007 1.265079 0.490088
v -0.360756 1.265079 0.490088
v 0.612007 0.000000 0.490088
v -0.360756 0.000000 0.490088
v 0.421295 1.377652 0.218201
v 0.531021 1.377652 0.218201
v 0.531021 1.485211 0.326347
v 0.421295 1.485211 0.326347
v 0.421295 1.377652 -0.139635
v 0.531021 1.377652 -0.139627
v 0.531021 1.485211 -0.139627
v 0.421295 1.485211 -0.139635
v 0.421295 1.126468 0.325760
v 0.531021 1.126475 0.325760
v 0.531021 1.126475 0.218201
v 0.421295 1.126468 0.218201
v -0.504448 0.941843 0.109726
v -0.504448 0.941843 0.000000
v -0.612007 1.049990 0.000000
v -0.612007 1.049990 0.109726
v -0.504448 -0.054003 0.109726
v -0.504448 -0.053996 0.000000
v -0.612007 -0.053996 0.000000
v -0.612007 -0.054003 0.109726
v -0.253265 1.049403 0.109726
v -0.253273 1.049403 0.000000
v -0.253273 0.941843 0.000000
v -0.253265 0.941843 0.109726
vt 0.833914 0.663591
vt 0.833914 0.732233
vt 0.754525 0.732233
vt 0.754525 0.663591
vt 0.832465 0.742394
vt 0.832465 0.745924
vt 0.759143 0.745924
vt 0.759143 0.742394
vt 0.833914 0.732233
vt 0.754525 0.732233
vt 0.754525 0.663591
vt 0.833914 0.663591
vt 0.832465 0.742198
vt 0.832465 0.745729
vt 0.759143 0.745729
vt 0.759143 0.742198
vt 0.882087 0.663694
vt 0.882087 0.732336
vt 0.841381 0.732336
vt 0.841381 0.663694
vt 0.841225 0.734498
vt 0.841225 0.665856
vt 0.881931 0.665856
vt 0.881931 0.734498
vt 0.856194 0.505010
vt 0.856194 0.504514
vt 0.856105 0.504514
vt 0.856105 0.505010
vt 0.854977 0.508822
vt 0.854977 0.509317
vt 0.855088 0.509317
vt 0.855088 0.508822
vt 0.855800 0.508398
vt 0.855800 0.508893
vt 0.855913 0.508893
vt 0.855913 0.508398
vt 0.855232 0.509813
vt 0.855232 0.509317
vt 0.855121 0.509317
vt 0.855121 0.509813
vt 0.856194 0.505010
vt 0.856194 0.504514
vt 0.856105 0.504514
vt 0.856105 0.505010
vt 0.854977 0.508822
vt 0.854977 0.509317
vt 0.855088 0.509317
vt 0.855088 0.508822
vt 0.855800 0.508398
vt 0.855800 0.508893
vt 0.855913 0.508893
vt 0.855913 0.508398
vt 0.855232 0.509813
vt 0.855232 0.509317
vt 0.855121 0.509317
vt 0.855121 0.509813
vt 0.856194 0.505010
vt 0.856194 0.504514
vt 0.856105 0.504514
vt 0.856105 0.505010
vt 0.854977 0.508822
vt 0.854977 0.509317
vt 0.855088 0.509317
vt 0.855088 0.508822
vt 0.855800 0.508398
vt 0.855800 0.508893
vt 0.855913 0.508893
vt 0.855913 0.508398
vt 0.855232 0.509813
vt 0.855232 0.509317
vt 0.855121 0.509317
vt 0.855121 0.509813
vt 0.856194 0.505010
vt 0.856194 0.504514
vt 0.856105 0.504514
vt 0.856105 0.505010
vt 0.854977 0.508822
vt 0.854977 0.509317
vt 0.855088 0.509317
vt 0.855088 0.508822
vt 0.855800 0.508398
vt 0.855800 0.508893
vt 0.855913 0.508893
vt 0.855913 0.508398
vt 0.855232 0.509813
vt 0.855232 0.509317
vt 0.855121 0.509317
vt 0.855121 0.509813
vn 0.000000 0.000000 -1.000000
vn 0.000000 0.000000 -1.000000
vn 0.000000 0.000000 -1.000000
vn 0.000000 0.000000 -1.000000
vn 0.000000 0.000000 -1.000000
vn 0.000000 0.000000 -1.000000
vn 0.000000 1.000000 0.000000
vn 0.000000 1.000000 0.000000
vn 0.000000 1.000000 0.000000
vn 0.000000 1.000000 0.000000
vn 0.000000 1.000000 0.000000
vn 0.000000 1.000000 0.000000
vn 0.000000 0.000000 1.000000
vn 0.000000 0.000000 1.000000
vn 0.000000 0.000000 1.000000
vn 0.000000 0.000000 1.000000
vn 0.000000 0.000000 1.000000
vn 0.000000 0.000000 1.000000
vn 0.000000 -1.000000 0.000000
vn 0.000000 -1.000000 0.000000
vn 0.000000 -1.000000 0.000000
vn 0.000000 -1.000000 0.000000
vn 0.000000 -1.000000 0.000000
vn 0.000000 -1.000000 0.000000
vn -1.000000 0.000000 0.000000
vn -1.000000 0.000000 0.000000
vn -1.000000 0.000000 0.000000
vn -1.000000 0.000000 0.000000
vn -1.000000 0.000000 0.000000
vn -1.000000 0.000000 0.000000
vn 1.000000 0.000000 0.000000
vn 1.000000 0.000000 0.000000
vn 1.000000 0.000000 0.000000
vn 1.000000 0.000000 0.000000
vn 1.000000 0.000000 0.000000
vn 1.000000 0.000000 0.000000
vn 0.000000 -1.000000 0.000000
vn 0.000000 -1.000000 0.000000
vn 0.000000 -1.000000 0.000000
vn 0.000000 -1.000000 0.000000
vn 0.000000 -1.000000 0.000000
vn 0.000000 -1.000000 0.000000
vn 1.000000 0.000000 0.000000
vn 1.000000 0.000000 0.000000
vn 1.000000 0.000000 0.000000
vn 1.000000 -0.000000 0.000000
vn 1.000000 -0.000000 0.000000
vn 1.000000 -0.000000 0.000000
vn 0.000000 1.000000 0.000000
vn 0.000000 1.000000 0.000000
vn 0.000000 1.000000 0.000000
vn 0.000000 1.000000 0.000000
vn 0.000000 1.000000 0.000000
vn 0.000000 1.000000 0.000000
vn -1.000000 0.000000 0.000000
vn -1.000000 0.000000 0.000000
vn -1.000000 0.000000 0.000000
vn -1.000000 0.000000 0.000000
vn -1.000000 0.000000 0.000000
vn -1.000000 0.000000 0.000000
vn 0.000000 -0.001638 0.999999
vn 0.000000 -0.001638 0.999999
vn 0.000000 -0.001638 0.999999
vn 0.000000 -0.001638 0.999999
vn 0.000000 -0.001638 0.999999
vn 0.000000 -0.001638 0.999999
vn 1.000000 0.000000 0.000000
vn 1.000000 0.000000 0.000000
vn 1.000000 0.000000 0.000000
vn 1.000000 0.000000 0.000000
vn 1.000000 0.000000 0.000000
vn 1.000000 0.000000 0.000000
vn 0.000000 0.000000 -1.000000
vn 0.000000 0.000000 -1.000000
vn 0.000000 0.000000 -1.000000
vn 0.000000 0.000000 -1.000000
vn 0.000000 0.000000 -1.000000
vn 0.000000 0.000000 -1.000000
vn -1.000000 0.000000 0.000000
vn -1.000000 0.000000 0.000000
vn -1.000000 0.000000 0.000000
vn -1.000000 -0.000000 0.000000
vn -1.000000 -0.000000 0.000000
vn -1.000000 -0.000000 0.000000
vn 1.000000 0.000000 0.000000
vn 1.000000 0.000000 0.000000
vn 1.000000 0.000000 0.000000
vn 1.000000 0.000000 0.000000
vn 1.000000 0.000000 0.000000
vn 1.000000 0.000000 0.000000
vn -0.000000 0.000000 -1.000000
vn -0.000000 0.000000 -1.000000
vn -0.000000 0.000000 -1.000000
vn -0.000000 0.000000 -1.000000
vn -0.000000 0.000000 -1.000000
vn -0.000000 0.000000 -1.000000
vn -1.000000 0.000000 0.000000
vn -1.000000 0.000000 0.000000
vn -1.000000 0.000000 0.000000
vn -1.000000 0.000000 0.000000
vn -1.000000 0.000000 0.000000
vn -1.000000 0.000000 0.000000
vn 0.000000 0.000000 1.000000
vn 0.000000 0.000000 1.000000
vn 0.000000 0.000000 1.000000
vn 0.000000 0.000000 1.000000
vn 0.000000 0.000000 1.000000
vn 0.000000 0.000000 1.000000
vn 0.001638 0.999999 0.000000
vn 0.001638 0.999999 0.000000
vn 0.001638 0.999999 0.000000
vn 0.001638 0.999999 0.000000
vn 0.001638 0.999999 0.000000
vn 0.001638 0.999999 0.000000
vn -0.000000 -0.000000 -1.000000
vn -0.000000 -0.000000 -1.000000
vn -0.000000 -0.000000 -1.000000
vn -0.000000 0.000000 -1.000000
vn -0.000000 0.000000 -1.000000
vn -0.000000 0.000000 -1.000000
vn 0.000000 -1.000000 0.000000
vn 0.000000 -1.000000 0.000000
vn 0.000000 -1.000000 0.000000
vn 0.000000 -1.000000 0.000001
vn 0.000000 -1.000000 0.000001
vn 0.000000 -1.000000 0.000001
vn 0.000000 0.000000 1.000000
vn 0.000000 0.000000 1.000000
vn 0.000000 0.000000 1.000000
vn 0.000000 0.000000 1.000000
vn 0.000000 0.000000 1.000000
vn 0.000000 0.000000 1.000000
s off
f 2/1/1 4/2/2 1/4/3
f 1/4/4 4/2/5 3/3/6
f 4/5/7 6/6/8 3/8/9
f 3/8/10 6/6/11 5/7/12
f 5/9/13 6/10/14 7/12/15
f 7/12/16 6/10/17 8/11/18
f 8/13/19 2/14/20 7/16/21
f 7/16/22 2/14/23 1/15/24
f 8/17/25 6/18/26 2/20/27
f 2/20/28 6/18/29 4/19/30
f 5/21/31 7/22/32 3/24/33
f 3/24/34 7/22/35 1/23/36
f 9/25/37 13/26/38 10/28/39
f 10/28/40 13/26/41 14/27/42
f 14/30/43 15/31/44 10/29/45
f 10/29/46 15/31/47 11/32/48
f 11/33/49 15/34/50 12/36/51
f 12/36/52 15/34/53 16/35/54
f 12/37/55 16/38/56 9/40/57
f 9/40/58 16/38/59 13/39/60
f 12/41/61 17/42/62 11/44/63
f 11/44/64 17/42/65 18/43/66
f 11/45/67 18/46/68 10/48/69
f 10/48/70 18/46/71 19/47/72
f 10/49/73 19/50/74 9/52/75
f 9/52/76 19/50/77 20/51/78
f 20/54/79 17/55/80 9/53/81
f 9/53/82 17/55/83 12/56/84
f 21/57/85 25/58/86 22/60/87
f 22/60/88 25/58/89 26/59/90
f 26/62/91 27/63/92 22/61/93
f 22/61/94 27/63/95 23/64/96
f 23/65/97 27/66/98 24/68/99
f 24/68/100 27/66/101 28/67/102
f 24/69/103 28/70/104 21/72/105
f 21/72/106 28/70/107 25/71/108
f 24/73/109 29/74/110 23/76/111
f 23/76/112 29/74/113 30/75/114
f 23/77/115 30/78/116 22/80/117
f 22/80/118 30/78/119 31/79/120
f 22/81/121 31/82/122 21/84/123
f 21/84/124 31/82/125 32/83/126
f 32/86/127 29/87/128 21/85/129
f 21/85/130 29/87/131 24/88/132
