# This file uses centimeters as units for non-parametric coordinates.

v -0.096817 1.267700 0.021313
v 0.096825 1.267700 0.021313
v 0.096825 1.463588 0.198723
v -0.096817 1.463588 0.198723
v -0.096817 1.267700 -0.318422
v 0.096825 1.267700 -0.318409
v 0.096825 1.463588 -0.318409
v -0.096817 1.463588 -0.318422
v -0.096817 0.206945 0.198242
v 0.096825 0.206949 0.198242
v 0.096825 0.206951 0.021313
v -0.096817 0.206947 0.021313
v -0.207260 0.213740 0.318422
v 0.207268 0.213745 0.318422
v -0.207260 -0.000008 0.317389
v 0.207268 0.000000 0.317389
v 0.207268 0.213747 -0.079599
v 0.207268 0.000000 -0.079599
v -0.207260 0.213743 -0.079599
v -0.207260 -0.000008 -0.079599
vt 0.230942 0.064326
vt 0.230942 0.064326
vt 0.230942 0.064326
vt 0.230942 0.064326
vt 0.259920 0.063299
vt 0.259920 0.063299
vt 0.259920 0.063299
vt 0.259920 0.063299
vt 0.323670 0.063299
vt 0.323670 0.063299
vt 0.323670 0.063299
vt 0.323670 0.063299
vt 0.259920 0.063299
vt 0.259920 0.063299
vt 0.259920 0.063299
vt 0.259920 0.063299
vt 0.294693 0.063299
vt 0.294693 0.063299
vt 0.259920 0.063299
vt 0.259920 0.063299
vt 0.294693 0.063299
vt 0.294693 0.063299
vt 0.259920 0.063299
vt 0.259920 0.063299
vt 0.294693 0.063299
vt 0.259920 0.063299
vt 0.294693 0.063299
vt 0.259920 0.063299
vt 0.259920 0.063299
vt 0.294693 0.063299
vt 0.294693 0.063299
vt 0.259920 0.063299
vt 0.204862 0.062364
vt 0.204862 0.062364
vt 0.204862 0.062364
vt 0.204862 0.062364
vt 0.170090 0.062364
vt 0.170090 0.062364
vt 0.170090 0.062364
vt 0.170090 0.062364
vt 0.170090 0.062364
vt 0.170090 0.062364
vt 0.170090 0.062364
vt 0.170090 0.062364
vt 0.226596 0.062364
vt 0.226596 0.062364
vt 0.226596 0.062364
vt 0.226596 0.062364
vt 0.226596 0.062364
vt 0.226596 0.062364
vt 0.226596 0.062364
vt 0.226596 0.062364
vt 0.226596 0.062364
vt 0.226596 0.062364
vt 0.226596 0.062364
vt 0.226596 0.062364
vt 0.226596 0.062364
vt 0.226596 0.062364
vt 0.226596 0.062364
vt 0.226596 0.062364
vn 0.000000 -1.000000 0.000000
vn 0.000000 -1.000000 0.000000
vn 0.000000 -1.000000 0.000000
vn 0.000000 -1.000000 0.000000
vn 0.000000 -1.000000 0.000000
vn 0.000000 -1.000000 0.000000
vn 1.000000 0.000000 0.000000
vn 1.000000 0.000000 0.000000
vn 1.000000 0.000000 0.000000
vn 1.000000 -0.000000 0.000000
vn 1.000000 -0.000000 0.000000
vn 1.000000 -0.000000 0.000000
vn 0.000000 1.000000 0.000000
vn 0.000000 1.000000 0.000000
vn 0.000000 1.000000 0.000000
vn 0.000000 1.000000 0.000000
vn 0.000000 1.000000 0.000000
vn 0.000000 1.000000 0.000000
vn -1.000000 -0.000000 0.000000
vn -1.000000 -0.000000 0.000000
vn -1.000000 -0.000000 0.000000
vn -1.000000 0.000000 0.000000
vn -1.000000 0.000000 0.000000
vn -1.000000 0.000000 0.000000
vn 0.000000 -0.000382 1.000000
vn 0.000000 -0.000382 1.000000
vn 0.000000 -0.000382 1.000000
vn 0.000000 -0.000382 1.000000
vn 0.000000 -0.000382 1.000000
vn 0.000000 -0.000382 1.000000
vn 1.000000 -0.000000 0.000000
vn 1.000000 -0.000000 0.000000
vn 1.000000 -0.000000 0.000000
vn 1.000000 0.000000 0.000000
vn 1.000000 0.000000 0.000000
vn 1.000000 0.000000 0.000000
vn 0.000000 0.000000 -1.000000
vn 0.000000 0.000000 -1.000000
vn 0.000000 0.000000 -1.000000
vn 0.000000 0.000000 -1.000000
vn 0.000000 0.000000 -1.000000
vn 0.000000 0.000000 -1.000000
vn -1.000000 0.000000 0.000000
vn -1.000000 0.000000 0.000000
vn -1.000000 0.000000 0.000000
vn -1.000000 0.000000 0.000000
vn -1.000000 0.000000 0.000000
vn -1.000000 0.000000 0.000000
vn 0.000000 -0.004836 0.999988
vn 0.000000 -0.004836 0.999988
vn 0.000000 -0.004836 0.999988
vn 0.000000 -0.004836 0.999988
vn 0.000000 -0.004836 0.999988
vn 0.000000 -0.004836 0.999988
vn 1.000000 0.000000 0.000000
vn 1.000000 0.000000 0.000000
vn 1.000000 0.000000 0.000000
vn 1.000000 0.000000 0.000000
vn 1.000000 0.000000 0.000000
vn 1.000000 0.000000 0.000000
vn -1.000000 -0.000000 0.000000
vn -1.000000 -0.000000 0.000000
vn -1.000000 -0.000000 0.000000
vn -1.000000 0.000000 0.000000
vn -1.000000 0.000000 0.000000
vn -1.000000 0.000000 0.000000
vn -0.000020 0.998406 -0.056437
vn -0.000020 0.998406 -0.056437
vn -0.000020 0.998406 -0.056437
vn -0.000010 0.998405 -0.056462
vn -0.000010 0.998405 -0.056462
vn -0.000010 0.998405 -0.056462
vn -0.061405 0.998113 0.000011
vn -0.061405 0.998113 0.000011
vn -0.061405 0.998113 0.000011
vn -0.061420 0.998112 0.000005
vn -0.061420 0.998112 0.000005
vn -0.061420 0.998112 0.000005
vn -0.000020 0.997739 0.067210
vn -0.000020 0.997739 0.067210
vn -0.000020 0.997739 0.067210
vn -0.000010 0.997741 0.067180
vn -0.000010 0.997741 0.067180
vn -0.000010 0.997741 0.067180
vn 0.061403 0.998113 0.000011
vn 0.061403 0.998113 0.000011
vn 0.061403 0.998113 0.000011
vn 0.061418 0.998112 0.000005
vn 0.061418 0.998112 0.000005
vn 0.061418 0.998112 0.000005
s off
f 1/1/1 5/2/2 2/4/3
f 2/4/4 5/2/5 6/3/6
f 6/6/7 7/7/8 2/5/9
f 2/5/10 7/7/11 3/8/12
f 3/9/13 7/10/14 4/12/15
f 4/12/16 7/10/17 8/11/18
f 4/13/19 8/14/20 1/16/21
f 1/16/22 8/14/23 5/15/24
f 4/17/25 9/25/26 3/18/27
f 3/18/28 9/25/29 10/27/30
f 3/19/31 10/28/32 2/20/33
f 2/20/34 10/28/35 11/29/36
f 2/21/37 11/30/38 1/22/39
f 1/22/40 11/30/41 12/31/42
f 12/32/43 9/26/44 1/23/45
f 1/23/46 9/26/47 4/24/48
f 14/33/49 13/34/50 16/36/51
f 16/36/52 13/34/53 15/35/54
f 14/38/55 16/39/56 17/37/57
f 17/37/58 16/39/59 18/40/60
f 13/41/61 19/42/62 15/44/63
f 15/44/64 19/42/65 20/43/66
f 10/45/67 9/59/68 14/57/69
f 14/57/70 9/59/71 13/47/72
f 11/51/73 10/58/74 17/52/75
f 17/52/76 10/58/77 14/48/78
f 12/49/79 11/56/80 19/50/81
f 19/50/82 11/56/83 17/55/84
f 12/54/85 19/53/86 9/46/87
f 9/46/88 19/53/89 13/60/90
