# This file uses centimeters as units for non-parametric coordinates.

v 1.083366 0.000000 -0.454479
v -1.083374 0.000000 -0.454479
v 1.083366 0.497113 -0.454479
v -1.083374 0.497113 -0.454479
v 1.083366 0.497113 0.454479
v -1.083374 0.497113 0.454479
v 1.083366 0.000000 0.454479
v -1.083374 0.000000 0.454479
v -0.989975 0.497113 0.374615
v 0.989967 0.497113 0.374615
v 0.989967 0.497113 -0.374619
v -0.989975 0.497113 -0.374619
v -0.989975 1.072035 0.374615
v 0.989967 1.072035 0.374615
v 0.989967 1.072035 -0.374619
v -0.989975 1.072035 -0.374619
vt 0.268065 0.475186
vt 0.268065 0.475186
vt 0.268065 0.475186
vt 0.268065 0.475186
vt 0.263961 0.153366
vt 0.263961 0.153366
vt 0.263961 0.153366
vt 0.263961 0.153366
vt 0.268065 0.475186
vt 0.268065 0.475186
vt 0.268065 0.475186
vt 0.268065 0.475186
vt 0.237414 0.475186
vt 0.237414 0.475186
vt 0.237414 0.475186
vt 0.237414 0.475186
vt 0.237414 0.475186
vt 0.237414 0.475186
vt 0.237414 0.475186
vt 0.237414 0.475186
vt 0.298049 0.475186
vt 0.298049 0.475186
vt 0.298049 0.475186
vt 0.298049 0.475186
vt 0.298049 0.475186
vt 0.298049 0.475186
vt 0.298049 0.475186
vt 0.298049 0.475186
vt 0.236641 0.153366
vt 0.236641 0.153366
vt 0.236641 0.153366
vt 0.236641 0.153366
vt 0.203991 0.153366
vt 0.203991 0.153366
vt 0.203991 0.153366
vt 0.203991 0.153366
vt 0.236641 0.153366
vt 0.236641 0.153366
vt 0.236641 0.153366
vt 0.236641 0.153366
vt 0.203991 0.153366
vt 0.203991 0.153366
vt 0.203991 0.153366
vt 0.203991 0.153366
vt 0.298049 0.475186
vt 0.298049 0.475186
vt 0.298049 0.475186
vt 0.298049 0.475186
vt 0.298049 0.475186
vt 0.298049 0.475186
vt 0.298049 0.475186
vt 0.298049 0.475186
vn 0.000000 0.000000 -1.000000
vn 0.000000 0.000000 -1.000000
vn 0.000000 0.000000 -1.000000
vn 0.000000 0.000000 -1.000000
vn 0.000000 0.000000 -1.000000
vn 0.000000 0.000000 -1.000000
vn 0.000000 1.000000 0.000000
vn 0.000000 1.000000 0.000000
vn 0.000000 1.000000 0.000000
vn 0.000000 1.000000 0.000000
vn 0.000000 1.000000 0.000000
vn 0.000000 1.000000 0.000000
vn 0.000000 0.000000 1.000000
vn 0.000000 0.000000 1.000000
vn 0.000000 0.000000 1.000000
vn 0.000000 0.000000 1.000000
vn 0.000000 0.000000 1.000000
vn 0.000000 0.000000 1.000000
vn -1.000000 0.000000 0.000000
vn -1.000000 0.000000 0.000000
vn -1.000000 0.000000 0.000000
vn -1.000000 0.000000 0.000000
vn -1.000000 0.000000 0.000000
vn -1.000000 0.000000 0.000000
vn 1.000000 0.000000 0.000000
vn 1.000000 0.000000 0.000000
vn 1.000000 0.000000 0.000000
vn 1.000000 0.000000 0.000000
vn 1.000000 0.000000 0.000000
vn 1.000000 0.000000 0.000000
vn 0.000000 1.000000 0.000001
vn 0.000000 1.000000 0.000001
vn 0.000000 1.000000 0.000001
vn 0.000000 1.000000 -0.000001
vn 0.000000 1.000000 -0.000001
vn 0.000000 1.000000 -0.000001
vn 0.000000 1.000000 0.000000
vn 0.000000 1.000000 0.000000
vn 0.000000 1.000000 0.000000
vn 0.000000 1.000000 0.000000
vn 0.000000 1.000000 0.000000
vn 0.000000 1.000000 0.000000
vn 0.000000 1.000000 -0.000001
vn 0.000000 1.000000 -0.000001
vn 0.000000 1.000000 -0.000001
vn 0.000000 1.000000 0.000001
vn 0.000000 1.000000 0.000001
vn 0.000000 1.000000 0.000001
vn 0.000000 1.000000 0.000000
vn 0.000000 1.000000 0.000000
vn 0.000000 1.000000 0.000000
vn 0.000000 1.000000 0.000000
vn 0.000000 1.000000 0.000000
vn 0.000000 1.000000 0.000000
vn 0.000000 0.000000 1.000000
vn 0.000000 0.000000 1.000000
vn 0.000000 0.000000 1.000000
vn 0.000000 0.000000 1.000000
vn 0.000000 0.000000 1.000000
vn 0.000000 0.000000 1.000000
vn 1.000000 0.000000 0.000000
vn 1.000000 0.000000 0.000000
vn 1.000000 0.000000 0.000000
vn 1.000000 0.000000 0.000000
vn 1.000000 0.000000 0.000000
vn 1.000000 0.000000 0.000000
vn 0.000000 0.000000 -1.000000
vn 0.000000 0.000000 -1.000000
vn 0.000000 0.000000 -1.000000
vn 0.000000 0.000000 -1.000000
vn 0.000000 0.000000 -1.000000
vn 0.000000 0.000000 -1.000000
vn -1.000000 0.000000 0.000000
vn -1.000000 0.000000 0.000000
vn -1.000000 0.000000 0.000000
vn -1.000000 0.000000 0.000000
vn -1.000000 0.000000 0.000000
vn -1.000000 0.000000 0.000000
s off
f 1/1/1 2/2/2 3/4/3
f 3/4/4 2/2/5 4/3/6
f 13/5/7 14/6/8 16/8/9
f 16/8/10 14/6/11 15/7/12
f 5/9/13 6/10/14 7/12/15
f 7/12/16 6/10/17 8/11/18
f 2/13/19 8/14/20 4/16/21
f 4/16/22 8/14/23 6/15/24
f 5/17/25 7/18/26 3/20/27
f 3/20/28 7/18/29 1/19/30
f 6/21/31 5/52/32 9/24/33
f 9/24/34 5/52/35 10/49/36
f 5/22/37 3/50/38 10/23/39
f 10/23/40 3/50/41 11/47/42
f 3/25/43 4/48/44 11/26/45
f 11/26/46 4/48/47 12/46/48
f 4/27/49 6/51/50 12/28/51
f 12/28/52 6/51/53 9/45/54
f 9/29/55 10/30/56 13/32/57
f 13/32/58 10/30/59 14/31/60
f 10/33/61 11/34/62 14/36/63
f 14/36/64 11/34/65 15/35/66
f 11/37/67 12/38/68 15/40/69
f 15/40/70 12/38/71 16/39/72
f 12/41/73 9/42/74 16/44/75
f 16/44/76 9/42/77 13/43/78
