# This file uses centimeters as units for non-parametric coordinates.

v 0.144968 -0.000000 -0.229966
v -0.144968 -0.000000 -0.229966
v 0.144968 2.042886 -0.229966
v -0.144968 2.042886 -0.229966
v 0.144968 2.042886 -0.142557
v -0.144968 2.042886 -0.142557
v 0.144968 -0.000000 -0.142557
v -0.144968 -0.000000 -0.142557
v 0.329340 1.029686 -0.145166
v -0.329340 1.029686 -0.145166
v 0.329340 2.209848 -0.145166
v -0.329340 2.209848 -0.145166
v -0.263882 1.913373 -0.085231
v 0.263883 1.913373 -0.085231
v 0.329340 2.031372 -0.145166
v -0.329340 2.031372 -0.145166
v -0.263882 1.084929 -0.085231
v 0.263883 1.084929 -0.085231
v 0.329340 1.084929 -0.145166
v -0.329340 1.084929 -0.145166
v 0.329340 2.209848 0.229967
v 0.263883 1.913373 0.229967
v 0.329340 2.031372 0.229967
v -0.329340 2.209848 0.229967
v -0.329340 2.031372 0.229967
v -0.263882 1.913373 0.229967
v -0.329340 1.084929 0.151508
v -0.263882 1.084929 0.151508
v 0.263883 1.084929 0.151508
v 0.329340 1.084929 0.151508
v -0.329340 1.029686 0.151508
v 0.329340 1.029686 0.151508
v 0.329340 1.166188 0.229967
v 0.329340 1.166188 -0.145166
v -0.329340 1.166188 -0.145166
v -0.329340 1.166188 0.229967
v -0.263882 1.166188 0.229967
v -0.263882 1.166188 -0.085231
v 0.263883 1.166188 -0.085231
v 0.263883 1.166188 0.229967
v 0.199349 1.304092 -0.087939
v -0.199349 1.304092 -0.087939
v 0.199349 1.856165 -0.087939
v -0.199349 1.856165 -0.087939
v 0.199349 1.856165 0.112357
v -0.199349 1.856165 0.112357
v 0.199349 1.304092 0.112357
v -0.199349 1.304092 0.112357
v -0.065518 1.476719 0.142786
v -0.108683 1.476719 0.142786
v -0.065518 1.668883 0.142786
v -0.108683 1.668883 0.142786
v -0.065518 1.668883 0.185952
v -0.108683 1.668883 0.185952
v -0.065518 1.476719 0.185952
v -0.108683 1.476719 0.185952
v -0.047834 1.668883 0.110744
v -0.126367 1.668883 0.110744
v -0.126367 1.668883 0.196982
v -0.047834 1.668883 0.196982
v -0.047834 1.476719 0.196982
v -0.126367 1.476719 0.196982
v -0.126367 1.476719 0.110744
v -0.047834 1.476719 0.110744
v -0.047834 1.755424 0.110744
v -0.126367 1.755424 0.110744
v -0.126367 1.755424 0.196982
v -0.047834 1.755424 0.196982
v -0.047834 1.390178 0.196982
v -0.126367 1.390178 0.196982
v -0.126367 1.390178 0.110744
v -0.047834 1.390178 0.110744
vt 0.881220 0.761081
vt 0.881305 0.761081
vt 0.881305 0.761679
vt 0.881220 0.761679
vt 0.915127 0.758651
vt 0.915127 0.758566
vt 0.915153 0.758566
vt 0.915153 0.758651
vt 0.881130 0.761081
vt 0.881215 0.761081
vt 0.881215 0.761679
vt 0.881130 0.761679
vt 0.881531 0.761708
vt 0.881531 0.761624
vt 0.881556 0.761624
vt 0.881556 0.761708
vt 0.853762 0.761501
vt 0.853787 0.761501
vt 0.853787 0.762100
vt 0.853762 0.762100
vt 0.853794 0.761501
vt 0.853819 0.761501
vt 0.853819 0.762100
vt 0.853794 0.762100
vt 0.895811 0.760475
vt 0.895811 0.760527
vt 0.895811 0.760223
vt 0.895811 0.760199
vt 0.896003 0.760475
vt 0.896003 0.760527
vt 0.895811 0.760183
vt 0.896003 0.760223
vt 0.896003 0.760199
vt 0.896003 0.760183
vt 0.931835 0.762051
vt 0.931944 0.762051
vt 0.931835 0.761859
vt 0.931944 0.761859
vt 0.993507 0.812118
vt 0.982899 0.776536
vt 0.896413 0.760269
vt 0.883420 0.756060
vt 0.896240 0.760487
vt 0.896260 0.760511
vt 0.896240 0.760511
vt 0.883593 0.756060
vt 0.883574 0.756060
vt 0.896240 0.760527
vt 0.896433 0.760511
vt 0.896413 0.760511
vt 0.896433 0.760527
vt 0.895968 0.760722
vt 0.895881 0.760722
vt 0.895968 0.760530
vt 0.895881 0.760530
vt 0.864575 0.755162
vt 0.864575 0.755214
vt 0.864575 0.754910
vt 0.892463 0.926111
vt 0.864684 0.755214
vt 0.864575 0.754886
vt 0.864684 0.754910
vt 0.864575 0.754870
vt 0.864661 0.754886
vt 0.864661 0.754870
vt 0.861309 0.926111
vt 0.864800 0.755214
vt 0.864800 0.754910
vt 0.864690 0.755214
vt 0.864690 0.755162
vt 0.864800 0.754886
vt 0.892463 0.824316
vt 0.864800 0.754870
vt 0.864713 0.754870
vt 0.896282 0.760530
vt 0.896436 0.760530
vt 0.896436 0.760748
vt 0.896282 0.760748
vt 0.896436 0.760772
vt 0.896282 0.760772
vt 0.895722 0.760949
vt 0.895722 0.761103
vt 0.895631 0.761103
vt 0.895631 0.760949
vt 0.868095 0.760772
vt 0.868003 0.760772
vt 0.868095 0.760530
vt 0.868026 0.760530
vt 0.867906 0.760772
vt 0.867998 0.760772
vt 0.867906 0.760530
vt 0.867975 0.760530
vt 0.880268 0.756852
vt 0.880268 0.756698
vt 0.880337 0.756698
vt 0.880337 0.756852
vt 0.885171 0.755488
vt 0.885381 0.755488
vt 0.885319 0.755568
vt 0.885208 0.755661
vt 0.885227 0.755568
vt 0.885342 0.755686
vt 0.972739 0.920527
vt 0.898798 0.920527
vt 0.898798 0.826646
vt 0.972739 0.826646
vt 0.885348 0.755686
vt 0.885348 0.755570
vt 0.885407 0.755686
vt 0.885053 0.755405
vt 0.885112 0.755405
vt 0.885053 0.755566
vt 0.885045 0.755570
vt 0.885045 0.755731
vt 0.805127 0.757717
vt 0.805096 0.757717
vt 0.805096 0.761471
vt 0.805127 0.761471
vt 0.849189 0.760796
vt 0.849264 0.760796
vt 0.849264 0.762481
vt 0.849189 0.762481
vt 0.833765 0.755583
vt 0.833806 0.755583
vt 0.833806 0.759337
vt 0.833765 0.759337
vt 0.806034 0.761033
vt 0.806206 0.761033
vt 0.806206 0.762718
vt 0.806132 0.762718
vt 0.805178 0.757717
vt 0.805178 0.761471
vt 0.805198 0.757717
vt 0.805198 0.761471
vt 0.806243 0.762092
vt 0.806226 0.762718
vt 0.850912 0.756812
vt 0.850895 0.757027
vt 0.805259 0.761033
vt 0.805344 0.761033
vt 0.805344 0.762724
vt 0.805259 0.762724
vt 0.805436 0.761033
vt 0.805436 0.762724
vt 0.834217 0.760590
vt 0.834143 0.760590
vt 0.834143 0.758899
vt 0.834217 0.758899
vt 0.805548 0.761033
vt 0.805630 0.761033
vt 0.805630 0.762724
vt 0.805548 0.762724
vt 0.834337 0.758899
vt 0.834412 0.758899
vt 0.834412 0.760590
vt 0.834337 0.760590
vt 0.805825 0.762724
vt 0.805830 0.762724
vt 0.805830 0.761033
vt 0.805825 0.761033
vt 0.805931 0.762724
vt 0.805931 0.761033
vt 0.805937 0.762724
vt 0.850895 0.755343
vt 0.850970 0.755343
vt 0.850970 0.757027
vt 0.806226 0.761033
vt 0.806301 0.761033
vt 0.806301 0.762718
vt 0.850912 0.755969
vt 0.850953 0.755969
vt 0.850953 0.756812
vt 0.806243 0.761249
vt 0.806284 0.761249
vt 0.806284 0.762092
vt 0.867906 0.760554
vt 0.867998 0.760554
vt 0.868003 0.760554
vt 0.868095 0.760554
vt 0.861309 0.824316
vt 0.892463 0.824316
vt 0.861309 0.926111
vt 0.864690 0.754910
vt 0.861309 0.824316
vt 0.864800 0.755162
vt 0.864713 0.754886
vt 0.892463 0.926111
vt 0.864684 0.755162
vt 0.896260 0.760487
vt 0.883401 0.756060
vt 0.883420 0.756083
vt 0.896433 0.760487
vt 0.896413 0.760487
vt 0.883574 0.756083
vt 0.883593 0.756083
vt 0.883401 0.756083
vt 0.896433 0.760235
vt 0.886877 0.790699
vt 0.896260 0.760269
vt 0.993507 0.790699
vt 0.896240 0.760235
vt 0.886877 0.812118
vt 0.897477 0.776536
vn 0.000000 0.000000 -1.000000
vn 0.000000 0.000000 -1.000000
vn 0.000000 0.000000 -1.000000
vn 0.000000 0.000000 -1.000000
vn 0.000000 0.000000 -1.000000
vn 0.000000 0.000000 -1.000000
vn 0.000000 1.000000 0.000000
vn 0.000000 1.000000 0.000000
vn 0.000000 1.000000 0.000000
vn 0.000000 1.000000 0.000000
vn 0.000000 1.000000 0.000000
vn 0.000000 1.000000 0.000000
vn 0.000000 0.000000 1.000000
vn 0.000000 0.000000 1.000000
vn 0.000000 0.000000 1.000000
vn 0.000000 0.000000 1.000000
vn 0.000000 0.000000 1.000000
vn 0.000000 0.000000 1.000000
vn 0.000000 -1.000000 0.000000
vn 0.000000 -1.000000 0.000000
vn 0.000000 -1.000000 0.000000
vn 0.000000 -1.000000 0.000000
vn 0.000000 -1.000000 0.000000
vn 0.000000 -1.000000 0.000000
vn -1.000000 0.000000 0.000000
vn -1.000000 0.000000 0.000000
vn -1.000000 0.000000 0.000000
vn -1.000000 0.000000 0.000000
vn -1.000000 0.000000 0.000000
vn -1.000000 0.000000 0.000000
vn 1.000000 0.000000 0.000000
vn 1.000000 0.000000 0.000000
vn 1.000000 0.000000 0.000000
vn 1.000000 0.000000 0.000000
vn 1.000000 0.000000 0.000000
vn 1.000000 0.000000 0.000000
vn 0.000000 0.000000 -1.000000
vn 0.000000 0.000000 -1.000000
vn 0.000000 0.000000 -1.000000
vn 0.000000 0.000000 -1.000000
vn 0.000000 0.000000 -1.000000
vn 0.000000 0.000000 -1.000000
vn 0.000000 0.000000 1.000000
vn 0.000000 0.000000 1.000000
vn 0.000000 0.000000 1.000000
vn 0.000000 0.000000 1.000000
vn 0.000000 0.000000 1.000000
vn 0.000000 0.000000 1.000000
vn 0.000000 0.000000 1.000000
vn 0.000000 0.000000 1.000000
vn 0.000000 0.000000 1.000000
vn 0.000000 0.000000 1.000000
vn 0.000000 0.000000 1.000000
vn 0.000000 0.000000 1.000000
vn 1.000000 0.000000 0.000000
vn 1.000000 0.000000 0.000000
vn 1.000000 0.000000 0.000000
vn 1.000000 0.000000 0.000000
vn 1.000000 0.000000 0.000000
vn 1.000000 0.000000 0.000000
vn 0.000000 -1.000000 0.000000
vn 0.000000 -1.000000 0.000000
vn 0.000000 -1.000000 0.000000
vn 0.000000 -1.000000 0.000000
vn 0.000000 -1.000000 0.000000
vn 0.000000 -1.000000 0.000000
vn -0.000000 0.000000 1.000000
vn -0.000000 0.000000 1.000000
vn -0.000000 0.000000 1.000000
vn 0.000000 0.000000 1.000000
vn 0.000000 0.000000 1.000000
vn 0.000000 0.000000 1.000000
vn 0.000000 0.000000 1.000000
vn 0.000000 0.000000 1.000000
vn 0.000000 0.000000 1.000000
vn 0.000000 0.000000 1.000000
vn 0.000000 0.000000 1.000000
vn 0.000000 0.000000 1.000000
vn 0.000000 0.000000 1.000000
vn 0.000000 0.000000 1.000000
vn 0.000000 0.000000 1.000000
vn 0.000000 0.000000 1.000000
vn 0.000000 0.000000 1.000000
vn 0.000000 0.000000 1.000000
vn 1.000000 0.000000 0.000000
vn 1.000000 0.000000 0.000000
vn 1.000000 0.000000 0.000000
vn 1.000000 0.000000 0.000000
vn 1.000000 0.000000 0.000000
vn 1.000000 0.000000 0.000000
vn 0.000000 0.000000 -1.000000
vn 0.000000 0.000000 -1.000000
vn 0.000000 0.000000 -1.000000
vn 0.000000 0.000000 -1.000000
vn 0.000000 0.000000 -1.000000
vn 0.000000 0.000000 -1.000000
vn 0.000000 0.000000 1.000000
vn 0.000000 0.000000 1.000000
vn 0.000000 0.000000 1.000000
vn 0.000000 0.000000 1.000000
vn 0.000000 0.000000 1.000000
vn 0.000000 0.000000 1.000000
vn 0.000000 0.000000 1.000000
vn 0.000000 0.000000 1.000000
vn 0.000000 0.000000 1.000000
vn 0.000000 0.000000 1.000000
vn 0.000000 0.000000 1.000000
vn 0.000000 0.000000 1.000000
vn 1.000000 0.000000 0.000000
vn 1.000000 0.000000 0.000000
vn 1.000000 0.000000 0.000000
vn 1.000000 0.000000 0.000000
vn 1.000000 0.000000 0.000000
vn 1.000000 0.000000 0.000000
vn 0.000000 0.000000 -1.000000
vn 0.000000 0.000000 -1.000000
vn 0.000000 0.000000 -1.000000
vn 0.000000 0.000000 -1.000000
vn 0.000000 0.000000 -1.000000
vn 0.000000 0.000000 -1.000000
vn 0.000000 1.000000 0.000000
vn 0.000000 1.000000 0.000000
vn 0.000000 1.000000 0.000000
vn 0.000000 1.000000 0.000000
vn 0.000000 1.000000 0.000000
vn 0.000000 1.000000 0.000000
vn -1.000000 0.000000 0.000000
vn -1.000000 0.000000 0.000000
vn -1.000000 0.000000 0.000000
vn -1.000000 0.000000 0.000000
vn -1.000000 0.000000 0.000000
vn -1.000000 0.000000 0.000000
vn 0.000000 -1.000000 0.000000
vn 0.000000 -1.000000 0.000000
vn 0.000000 -1.000000 0.000000
vn 0.000000 -1.000000 0.000000
vn 0.000000 -1.000000 0.000000
vn 0.000000 -1.000000 0.000000
vn -1.000000 0.000000 0.000000
vn -1.000000 0.000000 0.000000
vn -1.000000 0.000000 0.000000
vn -1.000000 0.000000 0.000000
vn -1.000000 0.000000 0.000000
vn -1.000000 0.000000 0.000000
vn 1.000000 0.000000 0.000000
vn 1.000000 0.000000 0.000000
vn 1.000000 0.000000 0.000000
vn 1.000000 0.000000 0.000000
vn 1.000000 0.000000 0.000000
vn 1.000000 0.000000 0.000000
vn -1.000000 0.000000 0.000000
vn -1.000000 0.000000 0.000000
vn -1.000000 0.000000 0.000000
vn -1.000000 0.000000 0.000000
vn -1.000000 0.000000 0.000000
vn -1.000000 0.000000 0.000000
vn -1.000000 0.000000 0.000000
vn -1.000000 0.000000 0.000000
vn -1.000000 0.000000 0.000000
vn -1.000000 0.000000 0.000000
vn -1.000000 0.000000 0.000000
vn -1.000000 0.000000 0.000000
vn 0.000000 1.000000 0.000000
vn 0.000000 1.000000 0.000000
vn 0.000000 1.000000 0.000000
vn 0.000000 1.000000 0.000000
vn 0.000000 1.000000 0.000000
vn 0.000000 1.000000 0.000000
vn 1.000000 0.000000 0.000000
vn 1.000000 0.000000 0.000000
vn 1.000000 0.000000 0.000000
vn 1.000000 -0.000000 0.000000
vn 1.000000 -0.000000 0.000000
vn 1.000000 -0.000000 0.000000
vn 0.000000 0.000000 -1.000000
vn 0.000000 0.000000 -1.000000
vn 0.000000 0.000000 -1.000000
vn 0.000000 0.000000 -1.000000
vn 0.000000 0.000000 -1.000000
vn 0.000000 0.000000 -1.000000
vn -1.000000 0.000000 0.000000
vn -1.000000 0.000000 0.000000
vn -1.000000 0.000000 0.000000
vn -1.000000 0.000000 0.000000
vn -1.000000 0.000000 0.000000
vn -1.000000 0.000000 0.000000
vn 0.000000 -0.694600 0.719396
vn 0.000000 -0.694600 0.719396
vn 0.000000 -0.694600 0.719396
vn 0.000000 -0.694600 0.719396
vn 0.000000 -0.694600 0.719396
vn 0.000000 -0.694600 0.719396
vn 1.000000 0.000000 0.000000
vn 1.000000 0.000000 0.000000
vn 1.000000 0.000000 0.000000
vn 1.000000 0.000000 0.000000
vn 1.000000 0.000000 0.000000
vn 1.000000 0.000000 0.000000
vn 0.000000 0.000000 1.000000
vn 0.000000 0.000000 1.000000
vn 0.000000 0.000000 1.000000
vn 0.000000 0.000000 1.000000
vn 0.000000 0.000000 1.000000
vn 0.000000 0.000000 1.000000
vn -1.000000 -0.000000 0.000000
vn -1.000000 -0.000000 0.000000
vn -1.000000 -0.000000 0.000000
vn -1.000000 0.000000 0.000000
vn -1.000000 0.000000 0.000000
vn -1.000000 0.000000 0.000000
vn 0.000000 -0.694601 0.719396
vn 0.000000 -0.694601 0.719396
vn 0.000000 -0.694601 0.719396
vn 0.000000 -0.694600 0.719396
vn 0.000000 -0.694600 0.719396
vn 0.000000 -0.694600 0.719396
vn 0.000000 0.000000 -1.000000
vn 0.000000 0.000000 -1.000000
vn 0.000000 0.000000 -1.000000
vn 0.000000 0.000000 -1.000000
vn 0.000000 0.000000 -1.000000
vn 0.000000 0.000000 -1.000000
vn 0.000000 1.000000 0.000000
vn 0.000000 1.000000 0.000000
vn 0.000000 1.000000 0.000000
vn 0.000000 1.000000 0.000000
vn 0.000000 1.000000 0.000000
vn 0.000000 1.000000 0.000000
vn 0.000000 0.000000 1.000000
vn 0.000000 0.000000 1.000000
vn 0.000000 0.000000 1.000000
vn 0.000000 0.000000 1.000000
vn 0.000000 0.000000 1.000000
vn 0.000000 0.000000 1.000000
vn 0.000000 -1.000000 0.000000
vn 0.000000 -1.000000 0.000000
vn 0.000000 -1.000000 0.000000
vn 0.000000 -1.000000 0.000000
vn 0.000000 -1.000000 0.000000
vn 0.000000 -1.000000 0.000000
vn -1.000000 0.000000 0.000000
vn -1.000000 0.000000 0.000000
vn -1.000000 0.000000 0.000000
vn -1.000000 0.000000 0.000000
vn -1.000000 0.000000 0.000000
vn -1.000000 0.000000 0.000000
vn 1.000000 0.000000 0.000000
vn 1.000000 0.000000 0.000000
vn 1.000000 0.000000 0.000000
vn 1.000000 0.000000 0.000000
vn 1.000000 0.000000 0.000000
vn 1.000000 0.000000 0.000000
vn 0.000000 0.000000 -1.000000
vn 0.000000 0.000000 -1.000000
vn 0.000000 0.000000 -1.000000
vn 0.000000 0.000000 -1.000000
vn 0.000000 0.000000 -1.000000
vn 0.000000 0.000000 -1.000000
vn 0.000000 1.000000 0.000000
vn 0.000000 1.000000 0.000000
vn 0.000000 1.000000 0.000000
vn 0.000000 1.000000 0.000000
vn 0.000000 1.000000 0.000000
vn 0.000000 1.000000 0.000000
vn 0.000000 0.000000 1.000000
vn 0.000000 0.000000 1.000000
vn 0.000000 0.000000 1.000000
vn 0.000000 0.000000 1.000000
vn 0.000000 0.000000 1.000000
vn 0.000000 0.000000 1.000000
vn 0.000000 -1.000000 0.000000
vn 0.000000 -1.000000 0.000000
vn 0.000000 -1.000000 0.000000
vn 0.000000 -1.000000 0.000000
vn 0.000000 -1.000000 0.000000
vn 0.000000 -1.000000 0.000000
vn -1.000000 0.000000 0.000000
vn -1.000000 0.000000 0.000000
vn -1.000000 0.000000 0.000000
vn -1.000000 0.000000 0.000000
vn -1.000000 0.000000 0.000000
vn -1.000000 0.000000 0.000000
vn 1.000000 0.000000 0.000000
vn 1.000000 0.000000 0.000000
vn 1.000000 0.000000 0.000000
vn 1.000000 0.000000 0.000000
vn 1.000000 0.000000 0.000000
vn 1.000000 0.000000 0.000000
vn 0.000000 -1.000000 0.000003
vn 0.000000 -1.000000 0.000003
vn 0.000000 -1.000000 0.000003
vn 0.000000 -1.000000 0.000000
vn 0.000000 -1.000000 0.000000
vn 0.000000 -1.000000 0.000000
vn 0.000000 -1.000000 0.000000
vn 0.000000 -1.000000 0.000000
vn 0.000000 -1.000000 0.000000
vn 0.000000 -1.000000 0.000000
vn 0.000000 -1.000000 0.000000
vn 0.000000 -1.000000 0.000000
vn 0.000000 -1.000000 -0.000008
vn 0.000000 -1.000000 -0.000008
vn 0.000000 -1.000000 -0.000008
vn 0.000000 -1.000000 0.000000
vn 0.000000 -1.000000 0.000000
vn 0.000000 -1.000000 0.000000
vn 0.000000 -1.000000 0.000000
vn 0.000000 -1.000000 0.000000
vn 0.000000 -1.000000 0.000000
vn 0.000000 -1.000000 0.000000
vn 0.000000 -1.000000 0.000000
vn 0.000000 -1.000000 0.000000
vn 0.000000 1.000000 -0.000023
vn 0.000000 1.000000 -0.000023
vn 0.000000 1.000000 -0.000023
vn 0.000000 1.000000 0.000000
vn 0.000000 1.000000 0.000000
vn 0.000000 1.000000 0.000000
vn 0.000000 1.000000 0.000000
vn 0.000000 1.000000 0.000000
vn 0.000000 1.000000 0.000000
vn 0.000000 1.000000 0.000000
vn 0.000000 1.000000 0.000000
vn 0.000000 1.000000 0.000000
vn 0.000000 1.000000 0.000008
vn 0.000000 1.000000 0.000008
vn 0.000000 1.000000 0.000008
vn 0.000000 1.000000 0.000000
vn 0.000000 1.000000 0.000000
vn 0.000000 1.000000 0.000000
vn 0.000000 1.000000 0.000000
vn 0.000000 1.000000 0.000000
vn 0.000000 1.000000 0.000000
vn 0.000000 1.000000 0.000000
vn 0.000000 1.000000 0.000000
vn 0.000000 1.000000 0.000000
vn 0.000000 0.000000 -1.000000
vn 0.000000 0.000000 -1.000000
vn 0.000000 0.000000 -1.000000
vn 0.000000 0.000000 -1.000000
vn 0.000000 0.000000 -1.000000
vn 0.000000 0.000000 -1.000000
vn -1.000000 0.000000 0.000000
vn -1.000000 0.000000 0.000000
vn -1.000000 0.000000 0.000000
vn -1.000000 0.000000 0.000000
vn -1.000000 0.000000 0.000000
vn -1.000000 0.000000 0.000000
vn 0.000000 0.000000 1.000000
vn 0.000000 0.000000 1.000000
vn 0.000000 0.000000 1.000000
vn 0.000000 0.000000 1.000000
vn 0.000000 0.000000 1.000000
vn 0.000000 0.000000 1.000000
vn 1.000000 0.000000 0.000000
vn 1.000000 0.000000 0.000000
vn 1.000000 0.000000 0.000000
vn 1.000000 0.000000 0.000000
vn 1.000000 0.000000 0.000000
vn 1.000000 0.000000 0.000000
vn 0.000000 0.000000 1.000000
vn 0.000000 0.000000 1.000000
vn 0.000000 0.000000 1.000000
vn 0.000000 0.000000 1.000000
vn 0.000000 0.000000 1.000000
vn 0.000000 0.000000 1.000000
vn -1.000000 0.000000 0.000000
vn -1.000000 0.000000 0.000000
vn -1.000000 0.000000 0.000000
vn -1.000000 0.000000 0.000000
vn -1.000000 0.000000 0.000000
vn -1.000000 0.000000 0.000000
vn 0.000000 0.000000 -1.000000
vn 0.000000 0.000000 -1.000000
vn 0.000000 0.000000 -1.000000
vn 0.000000 0.000000 -1.000000
vn 0.000000 0.000000 -1.000000
vn 0.000000 0.000000 -1.000000
vn 1.000000 0.000000 0.000000
vn 1.000000 0.000000 0.000000
vn 1.000000 0.000000 0.000000
vn 1.000000 0.000000 0.000000
vn 1.000000 0.000000 0.000000
vn 1.000000 0.000000 0.000000
s off
f 1/1/1 2/2/2 3/4/3
f 3/4/4 2/2/5 4/3/6
f 3/5/7 4/6/8 5/8/9
f 5/8/10 4/6/11 6/7/12
f 5/9/13 6/10/14 7/12/15
f 7/12/16 6/10/17 8/11/18
f 7/13/19 8/14/20 1/16/21
f 1/16/22 8/14/23 2/15/24
f 2/17/25 8/18/26 4/20/27
f 4/20/28 8/18/29 6/19/30
f 7/21/31 1/22/32 5/24/33
f 5/24/34 1/22/35 3/23/36
f 11/26/37 15/25/38 12/30/39
f 12/30/40 15/25/41 16/29/42
f 21/39/43 24/202/44 23/200/45
f 24/202/46 25/198/47 23/200/48
f 23/200/49 25/198/50 22/40/51
f 26/203/52 22/40/53 25/198/54
f 15/185/55 11/67/56 23/70/57
f 23/70/58 11/67/59 21/69/60
f 31/55/61 10/54/62 32/53/63
f 32/53/64 10/54/65 9/52/66
f 25/197/67 36/192/68 26/41/69
f 26/41/70 36/192/71 37/193/72
f 14/75/73 13/76/74 39/78/75
f 39/78/76 13/76/77 38/77/78
f 23/201/79 22/199/80 33/43/81
f 33/43/82 22/199/83 40/189/84
f 33/72/85 34/184/86 23/187/87
f 23/187/88 34/184/89 15/66/90
f 16/29/91 15/25/92 35/32/93
f 35/32/94 15/25/95 34/27/96
f 31/51/97 32/48/98 27/49/99
f 27/49/100 32/48/101 28/50/102
f 30/45/103 29/44/104 32/48/105
f 32/48/106 29/44/107 28/50/108
f 9/73/109 19/71/110 32/74/111
f 32/74/112 19/71/113 30/186/114
f 19/28/115 9/31/116 20/33/117
f 20/33/118 9/31/119 10/34/120
f 24/38/121 21/36/122 12/37/123
f 12/37/124 21/36/125 11/35/126
f 16/56/127 25/188/128 12/57/129
f 12/57/130 25/188/131 24/60/132
f 13/81/133 14/82/134 26/84/135
f 26/84/136 14/82/137 22/83/138
f 35/180/139 36/181/140 16/182/141
f 16/182/142 36/181/143 25/59/144
f 38/179/145 13/85/146 37/178/147
f 37/178/148 13/85/149 26/86/150
f 14/89/151 39/176/152 22/90/153
f 22/90/154 39/176/155 40/177/156
f 10/63/157 31/65/158 20/61/159
f 20/61/160 31/65/161 27/64/162
f 18/93/163 17/94/164 29/96/165
f 29/96/166 17/94/167 28/95/168
f 19/71/169 34/68/170 30/186/171
f 30/186/172 34/68/173 33/183/174
f 34/27/175 19/28/176 35/32/177
f 35/32/178 19/28/179 20/33/180
f 20/61/181 27/64/182 35/58/183
f 35/58/184 27/64/185 36/62/186
f 37/47/187 36/46/188 28/194/189
f 28/194/190 36/46/191 27/195/192
f 17/87/193 38/179/194 28/88/195
f 28/88/196 38/179/197 37/178/198
f 39/78/199 38/77/200 18/80/201
f 18/80/202 38/77/203 17/79/204
f 40/177/205 39/176/206 29/92/207
f 29/92/208 39/176/209 18/91/210
f 33/190/211 40/42/212 30/196/213
f 30/196/214 40/42/215 29/191/216
f 41/97/217 42/98/218 43/100/219
f 43/100/220 42/98/221 44/99/222
f 43/100/223 44/99/224 45/102/225
f 45/102/226 44/99/227 46/101/228
f 45/103/229 46/104/230 47/106/231
f 47/106/232 46/104/233 48/105/234
f 47/107/235 48/108/236 41/109/237
f 41/109/238 48/108/239 42/98/240
f 42/110/241 48/111/242 44/112/243
f 44/112/244 48/111/245 46/101/246
f 47/113/247 41/97/248 45/114/249
f 45/114/250 41/97/251 43/100/252
f 49/115/253 50/116/254 51/118/255
f 51/118/256 50/116/257 52/117/258
f 65/119/259 66/120/260 68/122/261
f 68/122/262 66/120/263 67/121/264
f 53/123/265 54/124/266 55/126/267
f 55/126/268 54/124/269 56/125/270
f 69/127/271 70/128/272 72/130/273
f 72/130/274 70/128/275 71/129/276
f 50/116/277 56/131/278 52/117/279
f 52/117/280 56/131/281 54/132/282
f 55/133/283 49/115/284 53/134/285
f 53/134/286 49/115/287 51/118/288
f 51/135/289 52/175/290 57/136/291
f 57/136/292 52/175/293 58/169/294
f 54/174/295 59/168/296 52/175/297
f 52/175/298 59/168/299 58/169/300
f 54/174/301 53/173/302 59/168/303
f 59/168/304 53/173/305 60/167/306
f 53/173/307 51/135/308 60/167/309
f 60/167/310 51/135/311 57/136/312
f 55/137/313 56/172/314 61/138/315
f 61/138/316 56/172/317 62/166/318
f 56/172/319 50/171/320 62/166/321
f 62/166/322 50/171/323 63/165/324
f 50/171/325 49/170/326 63/165/327
f 63/165/328 49/170/329 64/164/330
f 55/137/331 61/138/332 49/170/333
f 49/170/334 61/138/335 64/164/336
f 57/139/337 58/140/338 65/142/339
f 65/142/340 58/140/341 66/141/342
f 58/140/343 59/143/344 66/141/345
f 66/141/346 59/143/347 67/144/348
f 59/145/349 60/146/350 67/148/351
f 67/148/352 60/146/353 68/147/354
f 60/149/355 57/150/356 68/152/357
f 68/152/358 57/150/359 65/151/360
f 61/153/361 62/154/362 69/156/363
f 69/156/364 62/154/365 70/155/366
f 62/157/367 63/158/368 70/160/369
f 70/160/370 63/158/371 71/159/372
f 63/158/373 64/161/374 71/159/375
f 71/159/376 64/161/377 72/162/378
f 64/161/379 61/163/380 72/162/381
f 72/162/382 61/163/383 69/127/384
