# This file uses centimeters as units for non-parametric coordinates.

v 0.739052 -0.274343 -0.000000
v 0.381752 -0.274343 -0.000000
v 0.739052 0.274343 -0.000000
v 0.381752 0.274343 -0.000000
v 0.739052 0.274343 0.351461
v 0.381752 0.274343 0.351461
v 0.739052 -0.274343 0.351461
v 0.381752 -0.274343 0.351461
v -0.631500 -0.088133 0.093588
v -0.631500 0.021593 0.093588
v -0.739059 0.021593 0.201735
v -0.739059 -0.088133 0.201735
v -0.631500 -0.088133 -0.113510
v -0.631500 0.021593 -0.113503
v -0.739059 0.021593 -0.113503
v -0.739059 -0.088133 -0.113510
v 0.394920 -0.088133 0.201147
v 0.394913 0.021593 0.201147
v 0.394913 0.021593 0.093588
v 0.394920 -0.088133 0.093588
vt 0.996606 0.580145
vt 0.996606 0.583676
vt 0.969410 0.583676
vt 0.969410 0.580145
vt 0.998935 0.570744
vt 0.964332 0.570744
vt 0.964332 0.517062
vt 0.998935 0.517062
vt 0.996606 0.579950
vt 0.996606 0.583480
vt 0.969410 0.583480
vt 0.969410 0.579950
vt 0.953907 0.517758
vt 0.953907 0.567855
vt 0.937349 0.567855
vt 0.937349 0.517758
vt 0.937286 0.568735
vt 0.937286 0.518637
vt 0.953844 0.518637
vt 0.953844 0.568735
vt 0.760880 0.503344
vt 0.760880 0.502849
vt 0.760791 0.502849
vt 0.760791 0.503344
vt 0.759932 0.511193
vt 0.759932 0.511689
vt 0.760042 0.511689
vt 0.760042 0.511193
vt 0.760755 0.510769
vt 0.760755 0.511265
vt 0.760868 0.511265
vt 0.760868 0.510769
vt 0.760187 0.512184
vt 0.760187 0.511689
vt 0.760076 0.511689
vt 0.760076 0.512184
vt 0.760880 0.503344
vt 0.760880 0.502849
vt 0.760791 0.502849
vt 0.760791 0.503344
vt 0.759932 0.511193
vt 0.759932 0.511689
vt 0.760042 0.511689
vt 0.760042 0.511193
vt 0.760755 0.510769
vt 0.760755 0.511265
vt 0.760868 0.511265
vt 0.760868 0.510769
vt 0.760187 0.512184
vt 0.760187 0.511689
vt 0.760076 0.511689
vt 0.760076 0.512184
vn 0.000000 1.000000 0.000000
vn 0.000000 1.000000 0.000000
vn 0.000000 1.000000 0.000000
vn 0.000000 1.000000 0.000000
vn 0.000000 1.000000 0.000000
vn 0.000000 1.000000 0.000000
vn 0.000000 0.000000 1.000000
vn 0.000000 0.000000 1.000000
vn 0.000000 0.000000 1.000000
vn 0.000000 0.000000 1.000000
vn 0.000000 0.000000 1.000000
vn 0.000000 0.000000 1.000000
vn 0.000000 -1.000000 0.000000
vn 0.000000 -1.000000 0.000000
vn 0.000000 -1.000000 0.000000
vn 0.000000 -1.000000 0.000000
vn 0.000000 -1.000000 0.000000
vn 0.000000 -1.000000 0.000000
vn -1.000000 0.000000 0.000000
vn -1.000000 0.000000 0.000000
vn -1.000000 0.000000 0.000000
vn -1.000000 0.000000 0.000000
vn -1.000000 0.000000 0.000000
vn -1.000000 0.000000 0.000000
vn 1.000000 0.000000 0.000000
vn 1.000000 0.000000 0.000000
vn 1.000000 0.000000 0.000000
vn 1.000000 0.000000 0.000000
vn 1.000000 0.000000 0.000000
vn 1.000000 0.000000 0.000000
vn 1.000000 0.000000 0.000000
vn 1.000000 0.000000 0.000000
vn 1.000000 0.000000 0.000000
vn 1.000000 0.000000 0.000000
vn 1.000000 0.000000 0.000000
vn 1.000000 0.000000 0.000000
vn 0.000000 1.000000 0.000000
vn 0.000000 1.000000 0.000000
vn 0.000000 1.000000 0.000000
vn 0.000000 1.000000 0.000000
vn 0.000000 1.000000 0.000000
vn 0.000000 1.000000 0.000000
vn -1.000000 0.000000 0.000000
vn -1.000000 0.000000 0.000000
vn -1.000000 0.000000 0.000000
vn -1.000000 0.000001 0.000000
vn -1.000000 0.000001 0.000000
vn -1.000000 0.000001 0.000000
vn 0.000000 -1.000000 0.000000
vn 0.000000 -1.000000 0.000000
vn 0.000000 -1.000000 0.000000
vn 0.000000 -1.000000 0.000000
vn 0.000000 -1.000000 0.000000
vn 0.000000 -1.000000 0.000000
vn 0.000518 0.000000 1.000000
vn 0.000518 0.000000 1.000000
vn 0.000518 0.000000 1.000000
vn 0.000518 0.000000 1.000000
vn 0.000518 0.000000 1.000000
vn 0.000518 0.000000 1.000000
vn 0.000000 1.000000 -0.000000
vn 0.000000 1.000000 -0.000000
vn 0.000000 1.000000 -0.000000
vn 0.000000 1.000000 0.000000
vn 0.000000 1.000000 0.000000
vn 0.000000 1.000000 0.000000
vn 0.000000 0.000000 -1.000000
vn 0.000000 0.000000 -1.000000
vn 0.000000 0.000000 -1.000000
vn 0.000000 0.000000 -1.000000
vn 0.000000 0.000000 -1.000000
vn 0.000000 0.000000 -1.000000
vn 0.000000 -1.000000 0.000000
vn 0.000000 -1.000000 0.000000
vn 0.000000 -1.000000 0.000000
vn 0.000000 -1.000000 0.000000
vn 0.000000 -1.000000 0.000000
vn 0.000000 -1.000000 0.000000
s off
f 4/1/1 6/2/2 3/4/3
f 3/4/4 6/2/5 5/3/6
f 5/5/7 6/6/8 7/8/9
f 7/8/10 6/6/11 8/7/12
f 8/9/13 2/10/14 7/12/15
f 7/12/16 2/10/17 1/11/18
f 8/13/19 6/14/20 2/16/21
f 2/16/22 6/14/23 4/15/24
f 5/17/25 7/18/26 3/20/27
f 3/20/28 7/18/29 1/19/30
f 9/21/31 13/22/32 10/24/33
f 10/24/34 13/22/35 14/23/36
f 14/26/37 15/27/38 10/25/39
f 10/25/40 15/27/41 11/28/42
f 11/29/43 15/30/44 12/32/45
f 12/32/46 15/30/47 16/31/48
f 12/33/49 16/34/50 9/36/51
f 9/36/52 16/34/53 13/35/54
f 12/37/55 17/38/56 11/40/57
f 11/40/58 17/38/59 18/39/60
f 11/41/61 18/42/62 10/44/63
f 10/44/64 18/42/65 19/43/66
f 10/45/67 19/46/68 9/48/69
f 9/48/70 19/46/71 20/47/72
f 20/50/73 17/51/74 9/49/75
f 9/49/76 17/51/77 12/52/78
