# This file uses centimeters as units for non-parametric coordinates.

v 0.500000 -0.000000 -0.397272
v -0.500000 -0.000000 -0.397272
v 0.500000 0.959385 -0.397272
v -0.500000 0.959385 -0.397272
v 0.500000 0.959385 0.332651
v -0.500000 0.959385 0.332651
v 0.500000 -0.000000 0.332651
v -0.500000 -0.000000 0.332651
v 0.500000 1.695203 -0.397272
v -0.500000 1.695203 -0.397272
v -0.500000 1.695203 0.332651
v 0.500000 1.695203 0.332651
v 0.386788 1.042688 0.332651
v -0.386788 1.042688 0.332651
v 0.386788 1.611900 0.332651
v -0.386788 1.611900 0.332651
v 0.380277 0.855796 0.332651
v -0.380277 0.855796 0.332651
v -0.380277 0.325728 0.332651
v 0.380277 0.325728 0.332651
v 0.380277 0.855796 0.287410
v -0.380277 0.855796 0.287410
v -0.380277 0.325728 0.287410
v 0.380277 0.325728 0.287410
v 0.231899 1.693992 0.124016
v -0.231899 1.693992 0.124016
v 0.231899 2.295899 0.124016
v -0.231899 2.295899 0.124016
v 0.231899 2.295899 0.348635
v -0.231899 2.295899 0.348635
v 0.231899 1.693992 0.348635
v -0.231899 1.693992 0.348635
v 0.069663 1.548841 0.344484
v -0.069663 1.548841 0.344484
v 0.069663 1.930821 0.344484
v -0.069663 1.930821 0.344484
v 0.069663 1.930821 0.397272
v -0.069663 1.930821 0.397272
v 0.069663 1.548841 0.397272
v -0.069663 1.548841 0.397272
v 0.023124 2.033467 0.342706
v -0.023124 2.033467 0.342706
v 0.023124 2.078205 0.342706
v -0.023124 2.078205 0.342706
v 0.023124 2.078205 0.371215
v -0.023124 2.078205 0.371215
v 0.023124 2.033467 0.371215
v -0.023124 2.033467 0.371215
v -0.500000 1.695203 0.097199
v 0.500000 1.695203 0.097199
v 0.500000 0.959385 0.097199
v 0.500000 -0.000000 0.097199
v -0.500000 -0.000000 0.097199
v -0.500000 0.959385 0.097199
vt 0.257575 0.660857
vt 0.259774 0.660857
vt 0.259774 0.662961
vt 0.257575 0.662961
vt 0.259774 0.664579
vt 0.257575 0.664579
vt 0.491048 0.669060
vt 0.491048 0.668854
vt 0.491391 0.668854
vt 0.491391 0.669060
vt 0.418129 0.744231
vt 0.345691 0.744231
vt 0.345691 0.680697
vt 0.418129 0.680697
vt 0.259788 0.666809
vt 0.259788 0.664610
vt 0.261394 0.664610
vt 0.261394 0.666809
vt 0.483187 0.736621
vt 0.493920 0.747342
vt 0.435421 0.736648
vt 0.483187 0.739516
vt 0.493920 0.721251
vt 0.485727 0.736621
vt 0.485727 0.738258
vt 0.485727 0.739516
vt 0.435421 0.730883
vt 0.256590 0.679190
vt 0.263343 0.666045
vt 0.263343 0.664793
vt 0.265044 0.664793
vt 0.265293 0.666228
vt 0.263094 0.666228
vt 0.263094 0.664610
vt 0.265293 0.664610
vt 0.266091 0.666456
vt 0.264419 0.666456
vt 0.265293 0.668332
vt 0.265030 0.667622
vt 0.263094 0.668332
vt 0.264419 0.667622
vt 0.441085 0.689787
vt 0.441085 0.688114
vt 0.441184 0.688114
vt 0.441184 0.689787
vt 0.443465 0.691510
vt 0.442403 0.690344
vt 0.443564 0.690344
vt 0.443564 0.691510
vt 0.439975 0.688114
vt 0.441037 0.689787
vt 0.440938 0.689787
vt 0.440938 0.688114
vt 0.443715 0.690344
vt 0.443715 0.691510
vt 0.443616 0.691510
vt 0.443616 0.690344
vt 0.257575 0.666314
vt 0.258594 0.666314
vt 0.258594 0.667637
vt 0.257575 0.667637
vt 0.490978 0.669158
vt 0.490978 0.669063
vt 0.491083 0.669063
vt 0.491083 0.669158
vt 0.334803 0.667541
vt 0.262961 0.667541
vt 0.262961 0.586537
vt 0.334803 0.586537
vt 0.261654 0.667860
vt 0.261654 0.666840
vt 0.262148 0.666840
vt 0.262148 0.667860
vt 0.482399 0.689162
vt 0.483662 0.689162
vt 0.483662 0.692544
vt 0.482399 0.692544
vt 0.478294 0.686549
vt 0.478788 0.686549
vt 0.478788 0.687873
vt 0.478294 0.687873
vt 0.476862 0.718561
vt 0.477168 0.718561
vt 0.477168 0.719404
vt 0.476862 0.719404
vt 0.480807 0.670519
vt 0.480807 0.669668
vt 0.481542 0.669668
vt 0.481542 0.670519
vt 0.262560 0.666840
vt 0.262866 0.666840
vt 0.262866 0.667683
vt 0.262560 0.667683
vt 0.480399 0.721070
vt 0.480399 0.711980
vt 0.483843 0.711980
vt 0.483843 0.721070
vt 0.477587 0.718561
vt 0.477703 0.718561
vt 0.477703 0.719404
vt 0.477587 0.719404
vt 0.470541 0.711980
vt 0.473985 0.711980
vt 0.473985 0.736985
vt 0.470541 0.736985
vt 0.376484 0.509809
vt 0.376484 0.506792
vt 0.377588 0.506792
vt 0.377588 0.509809
vt 0.398922 0.510528
vt 0.398922 0.507511
vt 0.399625 0.507511
vt 0.399625 0.510528
vt 0.378179 0.509809
vt 0.378179 0.506792
vt 0.379283 0.506792
vt 0.379283 0.509809
vt 0.348525 0.511606
vt 0.348525 0.508589
vt 0.349229 0.508589
vt 0.349229 0.511606
vt 0.349881 0.508589
vt 0.350585 0.508589
vt 0.350585 0.511508
vt 0.349881 0.511508
vt 0.351237 0.508589
vt 0.351941 0.508589
vt 0.351941 0.511508
vt 0.351237 0.511508
vt 0.265044 0.666045
vt 0.256590 0.743736
vt 0.336618 0.743736
vt 0.336618 0.679190
vt 0.491220 0.668854
vt 0.483811 0.739516
vt 0.435421 0.736738
vt 0.493920 0.747749
vt 0.260591 0.666809
vt 0.260591 0.664610
vt 0.493920 0.720844
vt 0.449923 0.730793
vt 0.483811 0.738258
vt 0.435421 0.730793
vt 0.483811 0.736621
vt 0.449923 0.736648
vt 0.427172 0.747749
vt 0.485103 0.736621
vt 0.485103 0.739516
vt 0.427172 0.721252
vt 0.485103 0.738258
vt 0.483187 0.738258
vt 0.491220 0.669060
vt 0.427172 0.720844
vt 0.427172 0.747342
vt 0.449923 0.736738
vt 0.449923 0.730883
vn 0.000000 0.000000 -1.000000
vn 0.000000 0.000000 -1.000000
vn 0.000000 0.000000 -1.000000
vn 0.000000 0.000000 -1.000000
vn 0.000000 0.000000 -1.000000
vn 0.000000 0.000000 -1.000000
vn 0.000000 1.000000 0.000000
vn 0.000000 1.000000 0.000000
vn 0.000000 1.000000 0.000000
vn 0.000000 1.000000 0.000000
vn 0.000000 1.000000 0.000000
vn 0.000000 1.000000 0.000000
vn 0.000000 0.000000 1.000000
vn 0.000000 0.000000 1.000000
vn 0.000000 0.000000 1.000000
vn 0.000000 0.000000 1.000000
vn 0.000000 0.000000 1.000000
vn 0.000000 0.000000 1.000000
vn 0.000000 -1.000000 0.000000
vn 0.000000 -1.000000 0.000000
vn 0.000000 -1.000000 0.000000
vn 0.000000 -1.000000 0.000000
vn 0.000000 -1.000000 0.000000
vn 0.000000 -1.000000 0.000000
vn -1.000000 0.000000 0.000000
vn -1.000000 0.000000 0.000000
vn -1.000000 0.000000 0.000000
vn -1.000000 0.000000 0.000000
vn -1.000000 0.000000 0.000000
vn -1.000000 0.000000 0.000000
vn 1.000000 0.000000 0.000000
vn 1.000000 0.000000 0.000000
vn 1.000000 0.000000 0.000000
vn 1.000000 0.000000 0.000000
vn 1.000000 0.000000 0.000000
vn 1.000000 0.000000 0.000000
vn 0.000000 0.000000 -1.000000
vn 0.000000 0.000000 -1.000000
vn 0.000000 0.000000 -1.000000
vn 0.000000 0.000000 -1.000000
vn 0.000000 0.000000 -1.000000
vn 0.000000 0.000000 -1.000000
vn -1.000000 0.000000 0.000000
vn -1.000000 0.000000 0.000000
vn -1.000000 0.000000 0.000000
vn -1.000000 0.000000 0.000000
vn -1.000000 0.000000 0.000000
vn -1.000000 0.000000 0.000000
vn 0.000000 0.000000 1.000000
vn 0.000000 0.000000 1.000000
vn 0.000000 0.000000 1.000000
vn 0.000000 0.000000 1.000000
vn 0.000000 0.000000 1.000000
vn 0.000000 0.000000 1.000000
vn 1.000000 0.000000 0.000000
vn 1.000000 0.000000 0.000000
vn 1.000000 0.000000 0.000000
vn 1.000000 0.000000 0.000000
vn 1.000000 0.000000 0.000000
vn 1.000000 0.000000 0.000000
vn 0.000000 0.000000 1.000000
vn 0.000000 0.000000 1.000000
vn 0.000000 0.000000 1.000000
vn 0.000000 0.000000 1.000000
vn 0.000000 0.000000 1.000000
vn 0.000000 0.000000 1.000000
vn -0.000000 0.000000 1.000000
vn -0.000000 0.000000 1.000000
vn -0.000000 0.000000 1.000000
vn 0.000000 0.000000 1.000000
vn 0.000000 0.000000 1.000000
vn 0.000000 0.000000 1.000000
vn 0.000000 0.000000 1.000000
vn 0.000000 0.000000 1.000000
vn 0.000000 0.000000 1.000000
vn 0.000000 0.000000 1.000000
vn 0.000000 0.000000 1.000000
vn 0.000000 0.000000 1.000000
vn 0.000000 0.000000 1.000000
vn 0.000000 0.000000 1.000000
vn 0.000000 0.000000 1.000000
vn 0.000000 0.000000 1.000000
vn 0.000000 0.000000 1.000000
vn 0.000000 0.000000 1.000000
vn 0.000000 0.000000 1.000000
vn 0.000000 0.000000 1.000000
vn 0.000000 0.000000 1.000000
vn 0.000000 0.000000 1.000000
vn 0.000000 0.000000 1.000000
vn 0.000000 0.000000 1.000000
vn -0.000001 0.000000 1.000000
vn -0.000001 0.000000 1.000000
vn -0.000001 0.000000 1.000000
vn 0.000000 0.000000 1.000000
vn 0.000000 0.000000 1.000000
vn 0.000000 0.000000 1.000000
vn 0.000000 0.000000 1.000000
vn 0.000000 0.000000 1.000000
vn 0.000000 0.000000 1.000000
vn 0.000000 0.000000 1.000000
vn 0.000000 0.000000 1.000000
vn 0.000000 0.000000 1.000000
vn 0.000000 0.000000 1.000000
vn 0.000000 0.000000 1.000000
vn 0.000000 0.000000 1.000000
vn 0.000000 0.000000 1.000000
vn 0.000000 0.000000 1.000000
vn 0.000000 0.000000 1.000000
vn 0.000000 -1.000000 0.000000
vn 0.000000 -1.000000 0.000000
vn 0.000000 -1.000000 0.000000
vn 0.000000 -1.000000 0.000000
vn 0.000000 -1.000000 0.000000
vn 0.000000 -1.000000 0.000000
vn 1.000000 0.000000 0.000000
vn 1.000000 0.000000 0.000000
vn 1.000000 0.000000 0.000000
vn 1.000000 0.000000 0.000000
vn 1.000000 0.000000 0.000000
vn 1.000000 0.000000 0.000000
vn 0.000000 1.000000 0.000000
vn 0.000000 1.000000 0.000000
vn 0.000000 1.000000 0.000000
vn 0.000000 1.000000 0.000000
vn 0.000000 1.000000 0.000000
vn 0.000000 1.000000 0.000000
vn -1.000000 0.000000 0.000000
vn -1.000000 0.000000 0.000000
vn -1.000000 0.000000 0.000000
vn -1.000000 0.000000 0.000000
vn -1.000000 0.000000 0.000000
vn -1.000000 0.000000 0.000000
vn 0.000000 0.000000 -1.000000
vn 0.000000 0.000000 -1.000000
vn 0.000000 0.000000 -1.000000
vn 0.000000 0.000000 -1.000000
vn 0.000000 0.000000 -1.000000
vn 0.000000 0.000000 -1.000000
vn 0.000000 1.000000 0.000000
vn 0.000000 1.000000 0.000000
vn 0.000000 1.000000 0.000000
vn 0.000000 1.000000 0.000000
vn 0.000000 1.000000 0.000000
vn 0.000000 1.000000 0.000000
vn 0.000000 0.000000 1.000000
vn 0.000000 0.000000 1.000000
vn 0.000000 0.000000 1.000000
vn 0.000000 0.000000 1.000000
vn 0.000000 0.000000 1.000000
vn 0.000000 0.000000 1.000000
vn 0.000000 -1.000000 0.000000
vn 0.000000 -1.000000 0.000000
vn 0.000000 -1.000000 0.000000
vn 0.000000 -1.000000 0.000000
vn 0.000000 -1.000000 0.000000
vn 0.000000 -1.000000 0.000000
vn -1.000000 0.000000 0.000000
vn -1.000000 0.000000 0.000000
vn -1.000000 0.000000 0.000000
vn -1.000000 0.000000 0.000000
vn -1.000000 0.000000 0.000000
vn -1.000000 0.000000 0.000000
vn 1.000000 0.000000 0.000000
vn 1.000000 0.000000 0.000000
vn 1.000000 0.000000 0.000000
vn 1.000000 0.000000 0.000000
vn 1.000000 0.000000 0.000000
vn 1.000000 0.000000 0.000000
vn 0.000000 0.000000 -1.000000
vn 0.000000 0.000000 -1.000000
vn 0.000000 0.000000 -1.000000
vn 0.000000 0.000000 -1.000000
vn 0.000000 0.000000 -1.000000
vn 0.000000 0.000000 -1.000000
vn 0.000000 1.000000 0.000000
vn 0.000000 1.000000 0.000000
vn 0.000000 1.000000 0.000000
vn 0.000000 1.000000 0.000000
vn 0.000000 1.000000 0.000000
vn 0.000000 1.000000 0.000000
vn 0.000000 0.000000 1.000000
vn 0.000000 0.000000 1.000000
vn 0.000000 0.000000 1.000000
vn 0.000000 0.000000 1.000000
vn 0.000000 0.000000 1.000000
vn 0.000000 0.000000 1.000000
vn 0.000000 -1.000000 0.000000
vn 0.000000 -1.000000 0.000000
vn 0.000000 -1.000000 0.000000
vn 0.000000 -1.000000 0.000000
vn 0.000000 -1.000000 0.000000
vn 0.000000 -1.000000 0.000000
vn -1.000000 0.000000 0.000000
vn -1.000000 0.000000 0.000000
vn -1.000000 0.000000 0.000000
vn -1.000000 0.000000 0.000000
vn -1.000000 0.000000 0.000000
vn -1.000000 0.000000 0.000000
vn 1.000000 0.000000 0.000000
vn 1.000000 0.000000 0.000000
vn 1.000000 0.000000 0.000000
vn 1.000000 0.000000 0.000000
vn 1.000000 0.000000 0.000000
vn 1.000000 0.000000 0.000000
vn 0.000000 0.000000 -1.000000
vn 0.000000 0.000000 -1.000000
vn 0.000000 0.000000 -1.000000
vn 0.000000 0.000000 -1.000000
vn 0.000000 0.000000 -1.000000
vn 0.000000 0.000000 -1.000000
vn 0.000000 1.000000 0.000000
vn 0.000000 1.000000 0.000000
vn 0.000000 1.000000 0.000000
vn 0.000000 1.000000 0.000000
vn 0.000000 1.000000 0.000000
vn 0.000000 1.000000 0.000000
vn 0.000000 0.000000 1.000000
vn 0.000000 0.000000 1.000000
vn 0.000000 0.000000 1.000000
vn 0.000000 0.000000 1.000000
vn 0.000000 0.000000 1.000000
vn 0.000000 0.000000 1.000000
vn 0.000000 -1.000000 0.000000
vn 0.000000 -1.000000 0.000000
vn 0.000000 -1.000000 0.000000
vn 0.000000 -1.000000 0.000000
vn 0.000000 -1.000000 0.000000
vn 0.000000 -1.000000 0.000000
vn -1.000000 0.000000 0.000000
vn -1.000000 0.000000 0.000000
vn -1.000000 0.000000 0.000000
vn -1.000000 0.000000 0.000000
vn -1.000000 0.000000 0.000000
vn -1.000000 0.000000 0.000000
vn 1.000000 0.000000 0.000000
vn 1.000000 0.000000 0.000000
vn 1.000000 0.000000 0.000000
vn 1.000000 0.000000 0.000000
vn 1.000000 0.000000 0.000000
vn 1.000000 0.000000 0.000000
vn 0.000000 1.000000 0.000000
vn 0.000000 1.000000 0.000000
vn 0.000000 1.000000 0.000000
vn 0.000000 1.000000 0.000000
vn 0.000000 1.000000 0.000000
vn 0.000000 1.000000 0.000000
vn 1.000000 0.000000 0.000000
vn 1.000000 0.000000 0.000000
vn 1.000000 0.000000 0.000000
vn 1.000000 0.000000 0.000000
vn 1.000000 0.000000 0.000000
vn 1.000000 0.000000 0.000000
vn 1.000000 0.000000 0.000000
vn 1.000000 0.000000 0.000000
vn 1.000000 0.000000 0.000000
vn 1.000000 0.000000 0.000000
vn 1.000000 0.000000 0.000000
vn 1.000000 0.000000 0.000000
vn 0.000000 -1.000000 0.000000
vn 0.000000 -1.000000 0.000000
vn 0.000000 -1.000000 0.000000
vn 0.000000 -1.000000 0.000000
vn 0.000000 -1.000000 0.000000
vn 0.000000 -1.000000 0.000000
vn -1.000000 0.000000 0.000000
vn -1.000000 0.000000 0.000000
vn -1.000000 0.000000 0.000000
vn -1.000000 0.000000 0.000000
vn -1.000000 0.000000 0.000000
vn -1.000000 0.000000 0.000000
vn -1.000000 0.000000 0.000000
vn -1.000000 0.000000 0.000000
vn -1.000000 0.000000 0.000000
vn -1.000000 0.000000 0.000000
vn -1.000000 0.000000 0.000000
vn -1.000000 0.000000 0.000000
s off
f 1/1/1 2/2/2 3/4/3
f 3/4/4 2/2/5 4/3/6
f 9/7/7 10/8/8 50/152/9
f 50/152/10 10/8/11 49/134/12
f 21/11/13 22/12/14 24/14/15
f 24/14/16 22/12/17 23/13/18
f 52/138/19 53/139/20 1/18/21
f 1/18/22 53/139/23 2/17/24
f 2/19/25 53/144/26 4/151/27
f 4/151/28 53/144/29 54/142/30
f 52/147/31 1/24/32 51/150/33
f 51/150/34 1/24/35 3/25/36
f 3/4/37 4/3/38 9/6/39
f 9/6/40 4/3/41 10/5/42
f 4/151/43 54/142/44 10/22/45
f 10/22/46 54/142/47 49/135/48
f 14/28/49 13/133/50 16/131/51
f 16/131/52 13/133/53 15/132/54
f 51/150/55 3/25/56 50/148/57
f 50/148/58 3/25/59 9/26/60
f 6/32/61 5/33/62 14/130/63
f 14/130/64 5/33/65 13/29/66
f 5/33/67 12/34/68 13/29/69
f 13/29/70 12/34/71 15/30/72
f 12/34/73 11/35/74 15/30/75
f 15/30/76 11/35/77 16/31/78
f 11/35/79 6/32/80 16/31/81
f 16/31/82 6/32/83 14/130/84
f 5/33/85 6/32/86 17/37/87
f 17/37/88 6/32/89 18/36/90
f 8/38/91 19/39/92 6/32/93
f 6/32/94 19/39/95 18/36/96
f 8/38/97 7/40/98 19/39/99
f 19/39/100 7/40/101 20/41/102
f 7/40/103 5/33/104 20/41/105
f 20/41/106 5/33/107 17/37/108
f 17/42/109 18/43/110 21/45/111
f 21/45/112 18/43/113 22/44/114
f 18/46/115 19/47/116 22/49/117
f 22/49/118 19/47/119 23/48/120
f 19/50/121 20/51/122 23/53/123
f 23/53/124 20/51/125 24/52/126
f 20/54/127 17/55/128 24/57/129
f 24/57/130 17/55/131 21/56/132
f 25/58/133 26/59/134 27/61/135
f 27/61/136 26/59/137 28/60/138
f 27/62/139 28/63/140 29/65/141
f 29/65/142 28/63/143 30/64/144
f 29/66/145 30/67/146 31/69/147
f 31/69/148 30/67/149 32/68/150
f 31/70/151 32/71/152 25/73/153
f 25/73/154 32/71/155 26/72/156
f 26/74/157 32/75/158 28/77/159
f 28/77/160 32/75/161 30/76/162
f 31/78/163 25/79/164 29/81/165
f 29/81/166 25/79/167 27/80/168
f 33/82/169 34/83/170 35/85/171
f 35/85/172 34/83/173 36/84/174
f 35/86/175 36/87/176 37/89/177
f 37/89/178 36/87/179 38/88/180
f 37/90/181 38/91/182 39/93/183
f 39/93/184 38/91/185 40/92/186
f 39/94/187 40/95/188 33/97/189
f 33/97/190 40/95/191 34/96/192
f 34/98/193 40/99/194 36/101/195
f 36/101/196 40/99/197 38/100/198
f 39/102/199 33/103/200 37/105/201
f 37/105/202 33/103/203 35/104/204
f 41/106/205 42/107/206 43/109/207
f 43/109/208 42/107/209 44/108/210
f 43/110/211 44/111/212 45/113/213
f 45/113/214 44/111/215 46/112/216
f 45/114/217 46/115/218 47/117/219
f 47/117/220 46/115/221 48/116/222
f 47/118/223 48/119/224 41/121/225
f 41/121/226 48/119/227 42/120/228
f 42/122/229 48/123/230 44/125/231
f 44/125/232 48/123/233 46/124/234
f 47/126/235 41/127/236 45/129/237
f 45/129/238 41/127/239 43/128/240
f 50/152/241 49/134/242 12/10/243
f 12/10/244 49/134/245 11/9/246
f 5/156/247 51/155/248 12/27/249
f 12/27/250 51/155/251 50/136/252
f 7/23/253 52/137/254 5/149/255
f 5/149/256 52/137/257 51/146/258
f 7/15/259 8/16/260 52/138/261
f 52/138/262 8/16/263 53/139/264
f 54/153/265 53/140/266 6/154/267
f 6/154/268 53/140/269 8/20/270
f 49/143/271 54/141/272 11/21/273
f 11/21/274 54/141/275 6/145/276
