# This file uses centimeters as units for non-parametric coordinates.

v 1.006432 0.000000 -1.059401
v -1.006435 0.000000 -1.059401
v 1.006432 0.350976 -1.059401
v -1.006435 0.350976 -1.059401
v 1.006432 0.350976 1.059399
v -1.006435 0.350976 1.059399
v 1.006432 0.000000 1.059399
v -1.006435 0.000000 1.059399
v -1.006435 0.253848 1.059399
v 1.006432 0.253848 1.059399
v 1.006432 0.253848 -1.059401
v -1.006435 0.253848 -1.059401
v -1.006435 0.350976 0.000000
v 1.006432 0.350976 -0.000000
v 1.006432 0.253848 -0.000000
v 1.006432 0.000000 -0.000000
v -1.006435 0.000000 0.000000
v -1.006435 0.253848 0.000000
v -1.006435 0.350976 0.444605
v 1.006432 0.350976 0.444605
v 1.006432 0.253848 0.444605
v 1.006432 0.000000 0.444605
v -1.006435 0.000000 0.444605
v -1.006435 0.253848 0.444605
v -1.006435 0.350976 -0.444609
v 1.006432 0.350976 -0.444609
v 1.006432 0.253848 -0.444609
v 1.006432 0.000000 -0.444609
v -1.006435 0.000000 -0.444609
v -1.006435 0.253848 -0.444609
v -0.776226 0.068462 1.059399
v -0.776226 0.253848 1.059399
v -0.776226 0.253848 -1.059401
v -0.776226 0.068462 -1.059401
v 0.776222 0.068462 1.059399
v 0.776222 0.253848 1.059399
v 0.776222 0.253848 -1.059401
v 0.776222 0.068462 -1.059401
vt 0.735460 0.178517
vt 0.688645 0.208953
vt 0.699525 0.229780
vt 0.733853 0.204418
vt 0.733853 0.229780
vt 0.734311 0.202526
vt 0.735460 0.178517
vt 0.749675 0.202526
vt 0.749675 0.175312
vt 0.699525 0.208953
vt 0.699525 0.208953
vt 0.733853 0.208953
vt 0.688645 0.204418
vt 0.688645 0.229780
vt 0.734311 0.175312
vt 0.688645 0.204418
vt 0.699525 0.229780
vt 0.735460 0.196714
vt 0.735460 0.196714
vt 0.733853 0.204418
vt 0.688645 0.189178
vt 0.711538 0.208953
vt 0.733853 0.189178
vt 0.739828 0.196714
vt 0.688645 0.189178
vt 0.711538 0.208953
vt 0.733853 0.189178
vt 0.739828 0.196714
vt 0.733854 0.225267
vt 0.699461 0.225267
vt 0.699461 0.225267
vt 0.688645 0.213466
vt 0.711601 0.213466
vt 0.735460 0.187416
vt 0.737827 0.202527
vt 0.735460 0.187416
vt 0.737827 0.175312
vt 0.711601 0.213466
vt 0.733854 0.225267
vt 0.699461 0.213466
vt 0.699461 0.213466
vt 0.688645 0.213466
vt 0.739828 0.192048
vt 0.735460 0.192048
vt 0.746159 0.202527
vt 0.735460 0.182784
vt 0.737827 0.175312
vt 0.711601 0.225267
vt 0.733854 0.225267
vt 0.699461 0.213466
vt 0.699461 0.213466
vt 0.688645 0.213466
vt 0.739828 0.182784
vt 0.735460 0.182784
vt 0.746159 0.202527
vt 0.735460 0.191998
vt 0.737827 0.175312
vt 0.711601 0.225267
vt 0.733854 0.213466
vt 0.688645 0.225267
vt 0.733854 0.213466
vt 0.688645 0.225267
vt 0.733854 0.213466
vt 0.688645 0.225267
vt 0.739828 0.191998
vt 0.739828 0.187416
vt 0.711601 0.213466
vt 0.739828 0.178517
vt 0.739828 0.182784
vt 0.739828 0.178517
vt 0.711601 0.213466
vt 0.739828 0.187416
vt 0.711538 0.229780
vt 0.711538 0.229780
vt 0.699461 0.225267
vt 0.711601 0.225267
vt 0.711601 0.213466
vt 0.699461 0.225267
vt 0.711601 0.225267
vt 0.699461 0.213466
vt 0.699461 0.213466
vt 0.711601 0.225267
vt 0.711601 0.213466
vt 0.699461 0.225267
vt 0.699461 0.225267
vt 0.711601 0.225267
vt 0.743306 0.227443
vt 0.743306 0.230317
vt 0.742945 0.230317
vt 0.743288 0.230317
vt 0.743288 0.227443
vt 0.742945 0.227443
vt 0.741900 0.214204
vt 0.744491 0.214204
vt 0.743649 0.230317
vt 0.743649 0.227443
vt 0.693816 0.189218
vt 0.740943 0.214204
vt 0.740941 0.213093
vt 0.744494 0.213093
vt 0.740941 0.213093
vt 0.744494 0.213093
vt 0.740941 0.213093
vt 0.744494 0.213093
vt 0.740941 0.213093
vt 0.744494 0.213093
vt 0.746159 0.175312
vt 0.746159 0.175312
vt 0.746159 0.175312
vt 0.737827 0.202527
vt 0.737827 0.202527
vt 0.746159 0.202527
vt 0.743534 0.214204
vt 0.693816 0.189218
vt 0.740943 0.214204
vt 0.728682 0.189218
vt 0.744491 0.214204
vt 0.741900 0.214204
vt 0.743534 0.214204
vt 0.728682 0.189218
vn 0.000000 0.000000 -1.000000
vn 0.000000 0.000000 -1.000000
vn 0.000000 0.000000 -1.000000
vn 0.000000 0.000000 -1.000000
vn 0.000000 0.000000 -1.000000
vn 0.000000 0.000000 -1.000000
vn 0.000000 1.000000 0.000000
vn 0.000000 1.000000 0.000000
vn 0.000000 1.000000 0.000000
vn 0.000000 1.000000 0.000000
vn 0.000000 1.000000 0.000000
vn 0.000000 1.000000 0.000000
vn 0.000000 0.000000 1.000000
vn 0.000000 0.000000 1.000000
vn 0.000000 0.000000 1.000000
vn 0.000000 0.000000 1.000000
vn 0.000000 0.000000 1.000000
vn 0.000000 0.000000 1.000000
vn 0.000000 -1.000000 0.000000
vn 0.000000 -1.000000 0.000000
vn 0.000000 -1.000000 0.000000
vn 0.000000 -1.000000 0.000000
vn 0.000000 -1.000000 0.000000
vn 0.000000 -1.000000 0.000000
vn -1.000000 0.000000 0.000000
vn -1.000000 0.000000 0.000000
vn -1.000000 0.000000 0.000000
vn -1.000000 0.000000 0.000000
vn -1.000000 0.000000 0.000000
vn -1.000000 0.000000 0.000000
vn 1.000000 0.000000 0.000000
vn 1.000000 0.000000 0.000000
vn 1.000000 0.000000 0.000000
vn 1.000000 0.000000 0.000000
vn 1.000000 0.000000 0.000000
vn 1.000000 0.000000 0.000000
vn 0.000000 0.000000 1.000000
vn 0.000000 0.000000 1.000000
vn 0.000000 0.000000 1.000000
vn 0.000000 0.000000 1.000000
vn 0.000000 0.000000 1.000000
vn 0.000000 0.000000 1.000000
vn 1.000000 0.000000 0.000000
vn 1.000000 0.000000 0.000000
vn 1.000000 0.000000 0.000000
vn 1.000000 0.000000 0.000000
vn 1.000000 0.000000 0.000000
vn 1.000000 0.000000 0.000000
vn 0.000000 0.000000 -1.000000
vn 0.000000 0.000000 -1.000000
vn 0.000000 0.000000 -1.000000
vn 0.000000 0.000000 -1.000000
vn 0.000000 0.000000 -1.000000
vn 0.000000 0.000000 -1.000000
vn -1.000000 0.000000 0.000000
vn -1.000000 0.000000 0.000000
vn -1.000000 0.000000 0.000000
vn -1.000000 0.000000 0.000000
vn -1.000000 0.000000 0.000000
vn -1.000000 0.000000 0.000000
vn 0.000000 1.000000 0.000000
vn 0.000000 1.000000 0.000000
vn 0.000000 1.000000 0.000000
vn 0.000000 1.000000 0.000000
vn 0.000000 1.000000 0.000000
vn 0.000000 1.000000 0.000000
vn 1.000000 0.000000 0.000000
vn 1.000000 0.000000 0.000000
vn 1.000000 0.000000 0.000000
vn 1.000000 0.000000 0.000000
vn 1.000000 0.000000 0.000000
vn 1.000000 0.000000 0.000000
vn 1.000000 0.000000 0.000000
vn 1.000000 0.000000 0.000000
vn 1.000000 0.000000 0.000000
vn 1.000000 0.000000 0.000000
vn 1.000000 0.000000 0.000000
vn 1.000000 0.000000 0.000000
vn 0.000000 -1.000000 0.000000
vn 0.000000 -1.000000 0.000000
vn 0.000000 -1.000000 0.000000
vn 0.000000 -1.000000 0.000000
vn 0.000000 -1.000000 0.000000
vn 0.000000 -1.000000 0.000000
vn -1.000000 0.000000 0.000000
vn -1.000000 0.000000 0.000000
vn -1.000000 0.000000 0.000000
vn -1.000000 0.000000 0.000000
vn -1.000000 0.000000 0.000000
vn -1.000000 0.000000 0.000000
vn -1.000000 0.000000 0.000000
vn -1.000000 0.000000 0.000000
vn -1.000000 0.000000 0.000000
vn -1.000000 0.000000 0.000000
vn -1.000000 0.000000 0.000000
vn -1.000000 0.000000 0.000000
vn 0.000000 1.000000 0.000000
vn 0.000000 1.000000 0.000000
vn 0.000000 1.000000 0.000000
vn 0.000000 1.000000 0.000000
vn 0.000000 1.000000 0.000000
vn 0.000000 1.000000 0.000000
vn 1.000000 0.000000 0.000000
vn 1.000000 0.000000 0.000000
vn 1.000000 0.000000 0.000000
vn 1.000000 0.000000 0.000000
vn 1.000000 0.000000 0.000000
vn 1.000000 0.000000 0.000000
vn 1.000000 0.000000 0.000000
vn 1.000000 0.000000 0.000000
vn 1.000000 0.000000 0.000000
vn 1.000000 0.000000 0.000000
vn 1.000000 0.000000 0.000000
vn 1.000000 0.000000 0.000000
vn 0.000000 -1.000000 0.000000
vn 0.000000 -1.000000 0.000000
vn 0.000000 -1.000000 0.000000
vn 0.000000 -1.000000 0.000000
vn 0.000000 -1.000000 0.000000
vn 0.000000 -1.000000 0.000000
vn -1.000000 0.000000 0.000000
vn -1.000000 0.000000 0.000000
vn -1.000000 0.000000 0.000000
vn -1.000000 0.000000 0.000000
vn -1.000000 0.000000 0.000000
vn -1.000000 0.000000 0.000000
vn -1.000000 0.000000 0.000000
vn -1.000000 0.000000 0.000000
vn -1.000000 0.000000 0.000000
vn -1.000000 0.000000 0.000000
vn -1.000000 0.000000 0.000000
vn -1.000000 0.000000 0.000000
vn 0.000000 1.000000 0.000000
vn 0.000000 1.000000 0.000000
vn 0.000000 1.000000 0.000000
vn 0.000000 1.000000 0.000000
vn 0.000000 1.000000 0.000000
vn 0.000000 1.000000 0.000000
vn 1.000000 0.000000 0.000000
vn 1.000000 0.000000 0.000000
vn 1.000000 0.000000 0.000000
vn 1.000000 0.000000 0.000000
vn 1.000000 0.000000 0.000000
vn 1.000000 0.000000 0.000000
vn 1.000000 0.000000 0.000000
vn 1.000000 0.000000 0.000000
vn 1.000000 0.000000 0.000000
vn 1.000000 0.000000 0.000000
vn 1.000000 0.000000 0.000000
vn 1.000000 0.000000 0.000000
vn 0.000000 -1.000000 0.000000
vn 0.000000 -1.000000 0.000000
vn 0.000000 -1.000000 0.000000
vn 0.000000 -1.000000 0.000000
vn 0.000000 -1.000000 0.000000
vn 0.000000 -1.000000 0.000000
vn -1.000000 0.000000 0.000000
vn -1.000000 0.000000 0.000000
vn -1.000000 0.000000 0.000000
vn -1.000000 0.000000 0.000000
vn -1.000000 0.000000 0.000000
vn -1.000000 0.000000 0.000000
vn -1.000000 0.000000 0.000000
vn -1.000000 0.000000 0.000000
vn -1.000000 0.000000 0.000000
vn -1.000000 0.000000 0.000000
vn -1.000000 0.000000 0.000000
vn -1.000000 0.000000 0.000000
vn 0.000000 0.000000 1.000000
vn 0.000000 0.000000 1.000000
vn 0.000000 0.000000 1.000000
vn 0.000001 0.000000 1.000000
vn 0.000001 0.000000 1.000000
vn 0.000001 0.000000 1.000000
vn 0.000000 0.000000 -1.000000
vn 0.000000 0.000000 -1.000000
vn 0.000000 0.000000 -1.000000
vn 0.000000 0.000000 -1.000000
vn 0.000000 0.000000 -1.000000
vn 0.000000 0.000000 -1.000000
vn 0.000000 0.000000 1.000000
vn 0.000000 0.000000 1.000000
vn 0.000000 0.000000 1.000000
vn 0.000000 0.000000 1.000000
vn 0.000000 0.000000 1.000000
vn 0.000000 0.000000 1.000000
vn 0.000000 0.000000 -1.000000
vn 0.000000 0.000000 -1.000000
vn 0.000000 0.000000 -1.000000
vn 0.000000 0.000000 -1.000000
vn 0.000000 0.000000 -1.000000
vn 0.000000 0.000000 -1.000000
vn -0.000001 0.000000 1.000000
vn -0.000001 0.000000 1.000000
vn -0.000001 0.000000 1.000000
vn 0.000000 0.000000 1.000000
vn 0.000000 0.000000 1.000000
vn 0.000000 0.000000 1.000000
vn 0.000000 0.000000 -1.000000
vn 0.000000 0.000000 -1.000000
vn 0.000000 0.000000 -1.000000
vn 0.000000 0.000000 -1.000000
vn 0.000000 0.000000 -1.000000
vn 0.000000 0.000000 -1.000000
vn 0.000000 0.000000 1.000000
vn 0.000000 0.000000 1.000000
vn 0.000000 0.000000 1.000000
vn 0.000000 0.000000 1.000000
vn 0.000000 0.000000 1.000000
vn 0.000000 0.000000 1.000000
vn 0.000000 0.000000 -1.000000
vn 0.000000 0.000000 -1.000000
vn 0.000000 0.000000 -1.000000
vn 0.000000 0.000000 -1.000000
vn 0.000000 0.000000 -1.000000
vn 0.000000 0.000000 -1.000000
s off
f 4/20/1 3/13/2 33/116/3
f 33/116/4 3/13/5 37/97/6
f 25/49/7 26/60/8 4/12/9
f 4/12/10 26/60/11 3/2/12
f 36/120/13 5/4/14 32/114/15
f 32/114/16 5/4/17 6/16/18
f 1/8/19 28/110/20 2/9/21
f 2/9/22 28/110/23 29/57/24
f 12/73/25 30/83/26 4/3/27
f 4/3/28 30/83/29 25/50/30
f 26/75/31 27/76/32 3/10/33
f 3/10/34 27/76/35 11/26/36
f 35/90/37 36/89/38 31/91/39
f 31/91/40 36/89/41 32/92/42
f 11/68/43 27/53/44 1/1/45
f 1/1/46 27/53/47 28/54/48
f 33/96/49 37/95/50 34/87/51
f 34/87/52 37/95/53 38/88/54
f 30/65/55 12/28/56 29/56/57
f 29/56/58 12/28/59 2/19/60
f 19/39/61 20/64/62 13/61/63
f 13/61/64 20/64/65 14/32/66
f 20/85/67 21/86/68 14/81/69
f 14/81/70 21/86/71 15/33/72
f 15/72/73 21/43/74 16/34/75
f 16/34/76 21/43/77 22/44/78
f 16/112/79 22/111/80 17/108/81
f 17/108/82 22/111/83 23/47/84
f 24/69/85 18/66/86 23/46/87
f 23/46/88 18/66/89 17/36/90
f 13/30/91 18/79/92 19/40/93
f 19/40/94 18/79/95 24/77/96
f 6/5/97 5/14/98 19/63/99
f 19/63/100 5/14/101 20/42/102
f 5/17/103 10/74/104 20/41/105
f 20/41/106 10/74/107 21/71/108
f 21/43/109 10/24/110 22/44/111
f 22/44/112 10/24/113 7/18/114
f 22/45/115 7/6/116 23/109/117
f 23/109/118 7/6/119 8/15/120
f 9/70/121 24/69/122 8/7/123
f 8/7/124 24/69/125 23/46/126
f 19/78/127 24/48/128 6/11/129
f 6/11/130 24/48/131 9/22/132
f 13/29/133 14/62/134 25/59/135
f 25/59/136 14/62/137 26/52/138
f 14/31/139 15/82/140 26/51/141
f 26/51/142 15/82/143 27/67/144
f 27/53/145 15/72/146 28/54/147
f 28/54/148 15/72/149 16/34/150
f 28/55/151 16/35/152 29/107/153
f 29/107/154 16/35/155 17/37/156
f 18/66/157 30/65/158 17/36/159
f 17/36/160 30/65/161 29/56/162
f 25/84/163 30/58/164 13/80/165
f 13/80/166 30/58/167 18/38/168
f 32/115/169 9/101/170 31/113/171
f 31/113/172 9/101/173 8/102/174
f 2/105/175 12/106/176 34/118/177
f 34/118/178 12/106/179 33/117/180
f 8/102/181 7/100/182 31/113/183
f 31/113/184 7/100/185 35/119/186
f 34/118/187 38/93/188 2/105/189
f 2/105/190 38/93/191 1/103/192
f 7/100/193 10/99/194 35/119/195
f 35/119/196 10/99/197 36/98/198
f 37/94/199 11/104/200 38/93/201
f 38/93/202 11/104/203 1/103/204
f 32/114/205 6/16/206 9/21/207
f 5/4/208 36/120/209 10/23/210
f 11/25/211 37/97/212 3/13/213
f 4/20/214 33/116/215 12/27/216
