# This file uses centimeters as units for non-parametric coordinates.

v -0.245106 0.610812 0.424534
v 0.245106 0.610812 0.424534
v 0.490212 0.610812 -0.000000
v 0.245106 0.610812 -0.424534
v -0.245106 0.610812 -0.424534
v -0.490212 0.610812 0.000000
v -0.245188 1.695009 0.424675
v 0.245188 1.695009 0.424675
v 0.490375 1.695009 -0.000000
v 0.245188 1.695009 -0.424679
v -0.245188 1.695009 -0.424679
v -0.490375 1.695009 0.000000
v 0.000000 0.610812 0.000000
v -0.199590 1.695009 0.345695
v 0.199590 1.695009 0.345695
v 0.399180 1.695009 -0.000000
v 0.199590 1.695009 -0.345699
v -0.199590 1.695009 -0.345699
v -0.399180 1.695009 0.000000
v -0.121516 1.110289 0.210468
v 0.121515 1.110289 0.210468
v 0.000000 1.110289 0.000000
v 0.243031 1.110289 -0.000000
v 0.121516 1.110289 -0.210472
v -0.121515 1.110289 -0.210472
v -0.243031 1.110289 0.000000
v 0.099608 0.000000 -0.099606
v -0.099608 0.000000 -0.099606
v 0.099608 0.618422 -0.099606
v -0.099608 0.618422 -0.099606
v 0.099608 0.618422 0.099606
v -0.099608 0.618422 0.099606
v 0.099608 0.000000 0.099606
v -0.099608 0.000000 0.099606
vt 0.848023 0.015428
vt 0.848970 0.013788
vt 0.848970 0.015975
vt 0.849917 0.014334
vt 0.849917 0.015428
vt 0.881935 0.014254
vt 0.881276 0.014635
vt 0.881276 0.013113
vt 0.880617 0.014254
vt 0.880617 0.013493
vt 0.915204 0.010218
vt 0.914957 0.010361
vt 0.866661 0.017839
vt 0.865411 0.017839
vt 0.865655 0.016008
vt 0.866416 0.016008
vt 0.847971 0.013788
vt 0.836634 0.014870
vt 0.834803 0.014870
vt 0.846140 0.014211
vt 0.836634 0.015953
vt 0.834803 0.015529
vt 0.866715 0.016892
vt 0.867965 0.016892
vt 0.867721 0.018723
vt 0.866960 0.018723
vt 0.836375 0.015986
vt 0.847713 0.017069
vt 0.845881 0.017069
vt 0.834544 0.016409
vt 0.847713 0.018151
vt 0.845881 0.017728
vt 0.834544 0.017069
vt 0.881935 0.013493
vt 0.881276 0.013874
vt 0.913874 0.009736
vt 0.836375 0.017069
vt 0.912792 0.010361
vt 0.846140 0.014870
vt 0.912792 0.011611
vt 0.913874 0.012236
vt 0.847971 0.014870
vt 0.914957 0.011611
vt 0.913874 0.009451
vt 0.912545 0.010218
vt 0.912545 0.011754
vt 0.913874 0.012522
vt 0.915204 0.011754
vt 0.848970 0.014881
vt 0.848023 0.014334
vt 0.798776 0.172184
vt 0.824810 0.227366
vt 0.779183 0.227366
vt 0.805217 0.172184
vt 0.798776 0.172184
vt 0.779183 0.172184
vt 0.798776 0.227366
vt 0.779183 0.227366
vt 0.753604 0.227366
vt 0.805253 0.172184
vt 0.773196 0.172184
vt 0.824845 0.227366
vt 0.753604 0.227366
vt 0.773196 0.227366
vt 0.753604 0.172184
vt 0.773196 0.172184
vt 0.753604 0.172184
vt 0.824845 0.172184
vt 0.805253 0.227366
vt 0.773196 0.227366
vt 0.798776 0.227366
vt 0.805217 0.227366
vt 0.824810 0.172184
vt 0.779183 0.172184
vt 0.853717 0.014842
vt 0.853954 0.014842
vt 0.853954 0.015080
vt 0.853717 0.015080
vt 0.853717 0.015318
vt 0.853954 0.015318
vt 0.853954 0.015556
vt 0.853717 0.015556
vt 0.837158 0.015262
vt 0.837396 0.015262
vt 0.837396 0.015500
vt 0.837158 0.015500
vt 0.836682 0.015262
vt 0.836920 0.015262
vt 0.836920 0.015500
vt 0.836682 0.015500
vn 0.000000 -0.000130 1.000000
vn 0.000000 -0.000130 1.000000
vn 0.000000 -0.000130 1.000000
vn 0.000000 -0.000130 1.000000
vn 0.000000 -0.000130 1.000000
vn 0.000000 -0.000130 1.000000
vn 0.866024 -0.000130 0.500002
vn 0.866024 -0.000130 0.500002
vn 0.866024 -0.000130 0.500002
vn 0.866024 -0.000131 0.500002
vn 0.866024 -0.000131 0.500002
vn 0.866024 -0.000131 0.500002
vn 0.866024 -0.000131 -0.500001
vn 0.866024 -0.000131 -0.500002
vn 0.866025 -0.000131 -0.500001
vn 0.866026 -0.000132 -0.499999
vn 0.866026 -0.000132 -0.499999
vn 0.866026 -0.000132 -0.499999
vn 0.000000 -0.000134 -1.000000
vn 0.000000 -0.000134 -1.000000
vn 0.000000 -0.000134 -1.000000
vn 0.000000 -0.000134 -1.000000
vn 0.000000 -0.000134 -1.000000
vn 0.000000 -0.000134 -1.000000
vn -0.866024 -0.000132 -0.500002
vn -0.866024 -0.000132 -0.500002
vn -0.866024 -0.000132 -0.500002
vn -0.866026 -0.000131 -0.499999
vn -0.866026 -0.000131 -0.499999
vn -0.866026 -0.000131 -0.499999
vn -0.866024 -0.000131 0.500001
vn -0.866024 -0.000131 0.500002
vn -0.866025 -0.000131 0.500001
vn -0.866024 -0.000131 0.500002
vn -0.866024 -0.000131 0.500002
vn -0.866024 -0.000131 0.500002
vn 0.000000 -1.000000 0.000000
vn 0.000000 -1.000000 0.000000
vn 0.000000 -1.000000 0.000000
vn 0.000000 -1.000000 0.000000
vn 0.000000 -1.000000 0.000000
vn 0.000000 -1.000000 0.000000
vn 0.000000 -1.000000 -0.000000
vn 0.000000 -1.000000 -0.000000
vn 0.000000 -1.000000 -0.000000
vn 0.000000 -1.000000 0.000000
vn 0.000000 -1.000000 0.000000
vn 0.000000 -1.000000 0.000000
vn 0.000000 -1.000000 0.000000
vn 0.000000 -1.000000 0.000000
vn 0.000000 -1.000000 0.000000
vn 0.000000 -1.000000 0.000000
vn 0.000000 -1.000000 0.000000
vn 0.000000 -1.000000 0.000000
vn 0.000000 1.000000 0.000000
vn 0.000000 1.000000 0.000000
vn 0.000000 1.000000 0.000000
vn 0.000000 1.000000 -0.000001
vn 0.000000 1.000000 -0.000001
vn 0.000000 1.000000 -0.000001
vn 0.000000 1.000000 0.000000
vn 0.000000 1.000000 0.000000
vn 0.000000 1.000000 0.000000
vn 0.000000 1.000000 -0.000001
vn 0.000000 1.000000 -0.000001
vn 0.000000 1.000000 -0.000001
vn 0.000000 1.000000 0.000001
vn 0.000000 1.000000 0.000001
vn 0.000000 1.000000 0.000001
vn 0.000000 1.000000 0.000000
vn 0.000000 1.000000 0.000000
vn 0.000000 1.000000 0.000000
vn 0.000000 1.000000 0.000002
vn 0.000000 1.000000 0.000002
vn 0.000000 1.000000 0.000002
vn 0.000000 1.000000 0.000000
vn 0.000000 1.000000 0.000000
vn 0.000000 1.000000 0.000000
vn 0.000000 1.000000 0.000000
vn 0.000000 1.000000 0.000000
vn 0.000000 1.000000 0.000000
vn 0.000000 1.000000 -0.000002
vn 0.000000 1.000000 -0.000002
vn 0.000000 1.000000 -0.000002
vn 0.000000 1.000000 0.000000
vn 0.000000 1.000000 0.000000
vn 0.000000 1.000000 0.000000
vn 0.000000 1.000000 0.000000
vn 0.000000 1.000000 0.000000
vn 0.000000 1.000000 0.000000
vn 0.000000 1.000000 -0.000003
vn 0.000000 1.000000 -0.000003
vn 0.000000 1.000000 -0.000003
vn 0.000000 1.000000 0.000004
vn 0.000000 1.000000 0.000004
vn 0.000000 1.000000 0.000004
vn 0.000000 1.000000 -0.000001
vn 0.000000 1.000000 -0.000001
vn 0.000000 1.000000 -0.000001
vn 0.000000 1.000000 0.000002
vn 0.000000 1.000000 0.000002
vn 0.000000 1.000000 0.000002
vn 0.000000 1.000000 -0.000002
vn 0.000000 1.000000 -0.000002
vn 0.000000 1.000000 -0.000002
vn 0.000000 1.000000 0.000000
vn 0.000000 1.000000 0.000000
vn 0.000000 1.000000 0.000000
vn 0.000000 0.225321 -0.974285
vn 0.000000 0.225321 -0.974285
vn 0.000000 0.225321 -0.974285
vn 0.000000 0.225321 -0.974285
vn 0.000000 0.225321 -0.974285
vn 0.000000 0.225321 -0.974285
vn -0.843752 0.225323 -0.487147
vn -0.843752 0.225323 -0.487147
vn -0.843752 0.225323 -0.487147
vn -0.843752 0.225323 -0.487147
vn -0.843752 0.225323 -0.487147
vn -0.843752 0.225323 -0.487147
vn -0.843754 0.225323 0.487142
vn -0.843754 0.225323 0.487142
vn -0.843754 0.225323 0.487142
vn -0.843756 0.225322 0.487140
vn -0.843756 0.225322 0.487140
vn -0.843756 0.225322 0.487140
vn 0.000000 0.225321 0.974285
vn 0.000000 0.225321 0.974285
vn 0.000000 0.225321 0.974285
vn 0.000000 0.225321 0.974285
vn 0.000000 0.225321 0.974285
vn 0.000000 0.225321 0.974285
vn 0.843755 0.225322 0.487143
vn 0.843755 0.225322 0.487143
vn 0.843755 0.225322 0.487143
vn 0.843756 0.225324 0.487140
vn 0.843756 0.225324 0.487140
vn 0.843756 0.225324 0.487140
vn 0.843752 0.225323 -0.487146
vn 0.843752 0.225323 -0.487146
vn 0.843752 0.225323 -0.487146
vn 0.843752 0.225323 -0.487147
vn 0.843752 0.225323 -0.487147
vn 0.843752 0.225323 -0.487147
vn 0.000000 0.000000 -1.000000
vn 0.000000 0.000000 -1.000000
vn 0.000000 0.000000 -1.000000
vn 0.000000 0.000000 -1.000000
vn 0.000000 0.000000 -1.000000
vn 0.000000 0.000000 -1.000000
vn 0.000000 0.000000 1.000000
vn 0.000000 0.000000 1.000000
vn 0.000000 0.000000 1.000000
vn 0.000000 0.000000 1.000000
vn 0.000000 0.000000 1.000000
vn 0.000000 0.000000 1.000000
vn -1.000000 0.000000 0.000000
vn -1.000000 0.000000 0.000000
vn -1.000000 0.000000 0.000000
vn -1.000000 0.000000 0.000000
vn -1.000000 0.000000 0.000000
vn -1.000000 0.000000 0.000000
vn 1.000000 0.000000 0.000000
vn 1.000000 0.000000 0.000000
vn 1.000000 0.000000 0.000000
vn 1.000000 0.000000 0.000000
vn 1.000000 0.000000 0.000000
vn 1.000000 0.000000 0.000000
s off
f 1/73/1 2/52/2 7/54/3
f 7/54/4 2/52/5 8/72/6
f 2/71/7 3/55/8 8/53/9
f 8/53/10 3/55/11 9/56/12
f 3/65/13 4/59/14 9/66/15
f 9/66/16 4/59/17 10/70/18
f 4/69/19 5/60/20 10/62/21
f 10/62/22 5/60/23 11/68/24
f 5/67/25 6/63/26 11/61/27
f 11/61/28 6/63/29 12/64/30
f 6/57/31 1/51/32 12/58/33
f 12/58/34 1/51/35 7/74/36
f 2/1/37 1/50/38 13/49/39
f 3/3/40 2/1/41 13/49/42
f 4/5/43 3/3/44 13/49/45
f 5/4/46 4/5/47 13/49/48
f 6/2/49 5/4/50 13/49/51
f 1/50/52 6/2/53 13/49/54
f 20/34/55 21/6/56 22/35/57
f 21/6/58 23/7/59 22/35/60
f 23/7/61 24/9/62 22/35/63
f 24/9/64 25/10/65 22/35/66
f 25/10/67 26/8/68 22/35/69
f 26/8/70 20/34/71 22/35/72
f 7/11/73 8/48/74 14/12/75
f 14/12/76 8/48/77 15/43/78
f 8/48/79 9/47/80 15/43/81
f 15/43/82 9/47/83 16/41/84
f 9/47/85 10/46/86 16/41/87
f 16/41/88 10/46/89 17/40/90
f 10/46/91 11/45/92 17/40/93
f 17/40/94 11/45/95 18/38/96
f 11/45/97 12/44/98 18/38/99
f 18/38/100 12/44/101 19/36/102
f 12/44/103 7/11/104 19/36/105
f 19/36/106 7/11/107 14/12/108
f 14/13/109 15/14/110 20/16/111
f 20/16/112 15/14/113 21/15/114
f 15/17/115 16/42/116 21/20/117
f 21/20/118 16/42/119 23/39/120
f 16/18/121 17/21/122 23/19/123
f 23/19/124 17/21/125 24/22/126
f 17/23/127 18/24/128 24/26/129
f 24/26/130 18/24/131 25/25/132
f 18/27/133 19/37/134 25/30/135
f 25/30/136 19/37/137 26/33/138
f 19/28/139 14/31/140 26/29/141
f 26/29/142 14/31/143 20/32/144
f 27/75/145 28/76/146 29/78/147
f 29/78/148 28/76/149 30/77/150
f 31/79/151 32/80/152 33/82/153
f 33/82/154 32/80/155 34/81/156
f 28/83/157 34/84/158 30/86/159
f 30/86/160 34/84/161 32/85/162
f 33/87/163 27/88/164 31/90/165
f 31/90/166 27/88/167 29/89/168
