# This file uses centimeters as units for non-parametric coordinates.

v 0.329735 0.000000 -0.325259
v -0.329735 0.000000 -0.325259
v 0.443731 1.104099 -0.397294
v -0.443731 1.104099 -0.397294
v 0.443731 1.104099 0.397294
v -0.443731 1.104099 0.397294
v 0.329735 0.000000 0.325259
v -0.329735 0.000000 0.325259
v 0.511464 1.104099 -0.457938
v -0.511464 1.104099 -0.457938
v -0.511464 1.104099 0.457938
v 0.511464 1.104099 0.457938
v 0.511464 1.173523 -0.457938
v -0.511464 1.173523 -0.457938
v -0.511464 1.173523 0.457938
v 0.511464 1.173523 0.457938
v 0.438080 1.173523 -0.392229
v -0.438080 1.173523 -0.392229
v -0.438080 1.173523 0.392232
v 0.438080 1.173523 0.392232
v 0.279389 1.656090 -0.312717
v -0.279389 1.656090 -0.312717
v -0.279389 1.656090 0.312714
v 0.279389 1.656090 0.312714
v 0.226294 1.308796 0.370179
v -0.226294 1.308796 0.370179
v 0.226294 1.520818 0.334767
v -0.226294 1.520818 0.334767
vt 0.875054 0.115870
vt 0.874106 0.115870
vt 0.873880 0.114469
vt 0.875281 0.114469
vt 0.873236 0.094159
vt 0.873236 0.095262
vt 0.872133 0.095262
vt 0.872133 0.094159
vt 0.873849 0.115870
vt 0.872448 0.115870
vt 0.872675 0.114469
vt 0.873622 0.114469
vt 0.871132 0.132448
vt 0.870185 0.132448
vt 0.870185 0.131300
vt 0.871132 0.131300
vt 0.874322 0.135272
vt 0.873175 0.135272
vt 0.873048 0.133871
vt 0.874449 0.133871
vt 0.875019 0.133851
vt 0.873872 0.133851
vt 0.873744 0.132450
vt 0.875146 0.132450
vt 0.873638 0.135399
vt 0.873531 0.135292
vt 0.874141 0.139172
vt 0.874141 0.140787
vt 0.874053 0.140787
vt 0.874053 0.139172
vt 0.872562 0.157603
vt 0.872562 0.159218
vt 0.872473 0.159218
vt 0.872473 0.157603
vt 0.873927 0.146931
vt 0.873927 0.145316
vt 0.874015 0.145316
vt 0.874015 0.146931
vt 0.872436 0.157603
vt 0.872436 0.159218
vt 0.872347 0.159218
vt 0.872347 0.157603
vt 0.874212 0.098106
vt 0.874096 0.098222
vt 0.875321 0.113066
vt 0.875321 0.114449
vt 0.874707 0.114309
vt 0.874707 0.113206
vt 0.872407 0.132467
vt 0.872407 0.133851
vt 0.871793 0.133711
vt 0.871793 0.132608
vt 0.817762 0.012635
vt 0.875357 0.114449
vt 0.871757 0.132467
vt 0.871757 0.133851
vt 0.871142 0.133711
vt 0.871142 0.132608
vt 0.875443 0.114205
vt 0.816625 0.012635
vt 0.816625 0.014935
vt 0.817762 0.014935
vt 0.875885 0.114205
vt 0.875885 0.113311
vt 0.875971 0.114309
vt 0.875443 0.113311
vt 0.875971 0.113206
vt 0.872713 0.099605
vt 0.872713 0.098222
vt 0.875357 0.113066
vt 0.874096 0.099605
vt 0.872597 0.098106
vt 0.872597 0.099721
vt 0.874212 0.099721
vt 0.875146 0.135292
vt 0.875146 0.136907
vt 0.873531 0.136907
vt 0.875039 0.135399
vt 0.875039 0.136800
vt 0.873638 0.136800
vn 0.000000 -0.065105 -0.997878
vn 0.000000 -0.065105 -0.997878
vn 0.000000 -0.065105 -0.997878
vn 0.000000 -0.065105 -0.997878
vn 0.000000 -0.065105 -0.997878
vn 0.000000 -0.065105 -0.997878
vn 0.000000 1.000000 0.000000
vn 0.000000 1.000000 0.000000
vn 0.000000 1.000000 0.000000
vn 0.000000 1.000000 0.000000
vn 0.000000 1.000000 0.000000
vn 0.000000 1.000000 0.000000
vn 0.000000 -0.065105 0.997878
vn 0.000000 -0.065105 0.997878
vn 0.000000 -0.065105 0.997878
vn 0.000000 -0.065105 0.997878
vn 0.000000 -0.065105 0.997878
vn 0.000000 -0.065105 0.997878
vn 0.000000 -1.000000 0.000000
vn 0.000000 -1.000000 0.000000
vn 0.000000 -1.000000 0.000000
vn 0.000000 -1.000000 0.000000
vn 0.000000 -1.000000 0.000000
vn 0.000000 -1.000000 0.000000
vn -0.994712 -0.102702 0.000000
vn -0.994712 -0.102702 0.000000
vn -0.994712 -0.102702 0.000000
vn -0.994712 -0.102702 0.000000
vn -0.994712 -0.102702 0.000000
vn -0.994712 -0.102702 0.000000
vn 0.994712 -0.102702 0.000000
vn 0.994712 -0.102702 0.000000
vn 0.994712 -0.102702 0.000000
vn 0.994712 -0.102702 0.000000
vn 0.994712 -0.102702 0.000000
vn 0.994712 -0.102702 0.000000
vn 0.000000 -1.000000 0.000001
vn 0.000000 -1.000000 0.000001
vn 0.000000 -1.000000 0.000001
vn 0.000000 -1.000000 0.000000
vn 0.000000 -1.000000 0.000000
vn 0.000000 -1.000000 0.000000
vn 0.000000 -1.000000 0.000000
vn 0.000000 -1.000000 0.000000
vn 0.000000 -1.000000 0.000000
vn 0.000000 -1.000000 0.000000
vn 0.000000 -1.000000 0.000000
vn 0.000000 -1.000000 0.000000
vn 0.000000 -1.000000 -0.000001
vn 0.000000 -1.000000 -0.000001
vn 0.000000 -1.000000 -0.000001
vn 0.000000 -1.000000 0.000000
vn 0.000000 -1.000000 0.000000
vn 0.000000 -1.000000 0.000000
vn 0.000000 -1.000000 0.000000
vn 0.000000 -1.000000 0.000000
vn 0.000000 -1.000000 0.000000
vn 0.000000 -1.000000 0.000000
vn 0.000000 -1.000000 0.000000
vn 0.000000 -1.000000 0.000000
vn 0.000000 0.000000 -1.000000
vn 0.000000 0.000000 -1.000000
vn 0.000000 0.000000 -1.000000
vn 0.000000 0.000000 -1.000000
vn 0.000000 0.000000 -1.000000
vn 0.000000 0.000000 -1.000000
vn -1.000000 0.000000 0.000000
vn -1.000000 0.000000 0.000000
vn -1.000000 0.000000 0.000000
vn -1.000000 0.000000 0.000000
vn -1.000000 0.000000 0.000000
vn -1.000000 0.000000 0.000000
vn 0.000000 0.000000 1.000000
vn 0.000000 0.000000 1.000000
vn 0.000000 0.000000 1.000000
vn 0.000000 0.000000 1.000000
vn 0.000000 0.000000 1.000000
vn 0.000000 0.000000 1.000000
vn 1.000000 0.000000 0.000000
vn 1.000000 0.000000 0.000000
vn 1.000000 0.000000 0.000000
vn 1.000000 0.000000 0.000000
vn 1.000000 0.000000 0.000000
vn 1.000000 0.000000 0.000000
vn 0.000000 1.000000 -0.000000
vn 0.000000 1.000000 -0.000000
vn 0.000000 1.000000 -0.000000
vn 0.000000 1.000000 0.000004
vn 0.000000 1.000000 0.000004
vn 0.000000 1.000000 0.000004
vn 0.000000 1.000000 0.000000
vn 0.000000 1.000000 0.000000
vn 0.000000 1.000000 0.000000
vn 0.000000 1.000000 0.000000
vn 0.000000 1.000000 0.000000
vn 0.000000 1.000000 0.000000
vn 0.000000 1.000000 0.000000
vn 0.000000 1.000000 0.000000
vn 0.000000 1.000000 0.000000
vn 0.000000 1.000000 -0.000004
vn 0.000000 1.000000 -0.000004
vn 0.000000 1.000000 -0.000004
vn 0.000000 1.000000 0.000000
vn 0.000000 1.000000 0.000000
vn 0.000000 1.000000 0.000000
vn 0.000000 1.000000 0.000000
vn 0.000000 1.000000 0.000000
vn 0.000000 1.000000 0.000000
vn 0.000000 0.162578 -0.986696
vn 0.000000 0.162578 -0.986696
vn 0.000000 0.162578 -0.986696
vn 0.000000 0.162578 -0.986696
vn 0.000000 0.162578 -0.986696
vn 0.000000 0.162578 -0.986696
vn -0.949954 0.312390 0.000000
vn -0.949954 0.312390 0.000000
vn -0.949954 0.312389 0.000000
vn -0.949954 0.312389 0.000000
vn -0.949954 0.312389 0.000000
vn -0.949954 0.312389 0.000000
vn 0.000000 0.164740 0.986337
vn 0.000000 0.164740 0.986337
vn 0.000000 0.164740 0.986337
vn 0.000000 0.164740 0.986337
vn 0.000000 0.164740 0.986337
vn 0.000000 0.164740 0.986337
vn 0.949954 0.312390 0.000000
vn 0.949954 0.312390 0.000000
vn 0.949954 0.312390 0.000000
vn 0.949954 0.312390 0.000000
vn 0.949954 0.312390 0.000000
vn 0.949954 0.312390 0.000000
vn 0.000000 0.160903 0.986970
vn 0.000000 0.160903 0.986970
vn 0.000000 0.160903 0.986970
vn 0.000000 0.160903 0.986970
vn 0.000000 0.160903 0.986970
vn 0.000000 0.160903 0.986970
vn -0.002401 0.161821 0.986817
vn -0.002401 0.161821 0.986817
vn -0.002401 0.161821 0.986817
vn 0.002517 0.164739 0.986334
vn 0.002517 0.164739 0.986334
vn 0.002517 0.164739 0.986334
vn 0.000000 0.160903 0.986970
vn 0.000000 0.160903 0.986970
vn 0.000000 0.160903 0.986970
vn 0.000000 0.160904 0.986970
vn 0.000000 0.160904 0.986970
vn 0.000000 0.160904 0.986970
vn 0.002401 0.161821 0.986817
vn 0.002401 0.161821 0.986817
vn 0.002401 0.161821 0.986817
vn -0.002517 0.164739 0.986334
vn -0.002517 0.164739 0.986334
vn -0.002517 0.164739 0.986334
s off
f 1/1/1 2/2/2 3/4/3
f 3/4/4 2/2/5 4/3/6
f 21/5/7 22/6/8 24/8/9
f 24/8/10 22/6/11 23/7/12
f 5/9/13 6/10/14 7/12/15
f 7/12/16 6/10/17 8/11/18
f 7/13/19 8/14/20 1/16/21
f 1/16/22 8/14/23 2/15/24
f 2/17/25 8/18/26 4/20/27
f 4/20/28 8/18/29 6/19/30
f 7/21/31 1/22/32 5/24/33
f 5/24/34 1/22/35 3/23/36
f 3/25/37 4/80/38 9/26/39
f 9/26/40 4/80/41 10/77/42
f 4/80/43 6/79/44 10/77/45
f 10/77/46 6/79/47 11/76/48
f 6/79/49 5/78/50 11/76/51
f 11/76/52 5/78/53 12/75/54
f 5/78/55 3/25/56 12/75/57
f 12/75/58 3/25/59 9/26/60
f 9/27/61 10/28/62 13/30/63
f 13/30/64 10/28/65 14/29/66
f 10/31/67 11/32/68 14/34/69
f 14/34/70 11/32/71 15/33/72
f 11/35/73 12/36/74 15/38/75
f 15/38/76 12/36/77 16/37/78
f 12/39/79 9/40/80 16/42/81
f 16/42/82 9/40/83 13/41/84
f 13/43/85 14/74/86 17/44/87
f 17/44/88 14/74/89 18/71/90
f 14/74/91 15/73/92 18/71/93
f 18/71/94 15/73/95 19/68/96
f 15/73/97 16/72/98 19/68/99
f 19/68/100 16/72/101 20/69/102
f 16/72/103 13/43/104 20/69/105
f 20/69/106 13/43/107 17/44/108
f 17/45/109 18/46/110 21/48/111
f 21/48/112 18/46/113 22/47/114
f 18/49/115 19/50/116 22/52/117
f 22/52/118 19/50/119 23/51/120
f 26/53/121 25/62/122 28/60/123
f 28/60/124 25/62/125 27/61/126
f 20/55/127 17/56/128 24/58/129
f 24/58/130 17/56/131 21/57/132
f 19/54/133 20/70/134 26/59/135
f 26/59/136 20/70/137 25/66/138
f 24/67/139 27/64/140 20/70/141
f 20/70/142 27/64/143 25/66/144
f 24/67/145 23/65/146 27/64/147
f 27/64/148 23/65/149 28/63/150
f 23/65/151 19/54/152 28/63/153
f 19/54/154 26/59/155 28/63/156
