# This file uses centimeters as units for non-parametric coordinates.

v 0.691338 0.000000 -0.239670
v -0.530685 0.000000 -0.239670
v 0.691338 0.874307 -0.239670
v -0.530685 0.874307 -0.239670
v 0.691338 0.874307 0.239670
v -0.530685 0.874307 0.239670
v 0.691338 0.000000 0.239670
v -0.530685 0.000000 0.239670
v -0.615807 0.535260 -0.010721
v -0.615807 0.535260 -0.120447
v -0.691338 0.596722 -0.120447
v -0.691338 0.596722 -0.010721
v -0.615807 -0.000002 -0.010721
v -0.615807 0.000003 -0.120447
v -0.691338 0.000003 -0.120447
v -0.691338 -0.000002 -0.010721
v -0.423195 0.596388 -0.010721
v -0.423203 0.596388 -0.120447
v -0.423203 0.535260 -0.120447
v -0.423195 0.535260 -0.010721
vt 0.895552 0.673109
vt 0.899083 0.673109
vt 0.899083 0.746431
vt 0.895552 0.746431
vt 0.998764 0.672210
vt 0.998764 0.748316
vt 0.941796 0.748316
vt 0.941796 0.672210
vt 0.939206 0.672210
vt 0.939206 0.748316
vt 0.908349 0.748316
vt 0.908349 0.672210
vt 0.908349 0.748316
vt 0.908349 0.672210
vt 0.939206 0.672210
vt 0.939206 0.748316
vt 0.856194 0.505010
vt 0.856194 0.504514
vt 0.856105 0.504514
vt 0.856105 0.505010
vt 0.854977 0.508822
vt 0.854977 0.509317
vt 0.855088 0.509317
vt 0.855088 0.508822
vt 0.855800 0.508398
vt 0.855800 0.508893
vt 0.855913 0.508893
vt 0.855913 0.508398
vt 0.855232 0.509813
vt 0.855232 0.509317
vt 0.855121 0.509317
vt 0.855121 0.509813
vt 0.856194 0.505010
vt 0.856194 0.504514
vt 0.856105 0.504514
vt 0.856105 0.505010
vt 0.854977 0.508822
vt 0.854977 0.509317
vt 0.855088 0.509317
vt 0.855088 0.508822
vt 0.855800 0.508398
vt 0.855800 0.508893
vt 0.855913 0.508893
vt 0.855913 0.508398
vt 0.855232 0.509813
vt 0.855232 0.509317
vt 0.855121 0.509317
vt 0.855121 0.509813
vt 0.909192 0.672210
vt 0.939206 0.672210
vt 0.939206 0.701511
vt 0.909192 0.701511
vn 0.000000 1.000000 0.000000
vn 0.000000 1.000000 0.000000
vn 0.000000 1.000000 0.000000
vn 0.000000 1.000000 0.000000
vn 0.000000 1.000000 0.000000
vn 0.000000 1.000000 0.000000
vn 0.000000 0.000000 1.000000
vn 0.000000 0.000000 1.000000
vn 0.000000 0.000000 1.000000
vn 0.000000 0.000000 1.000000
vn 0.000000 0.000000 1.000000
vn 0.000000 0.000000 1.000000
vn -1.000000 0.000000 0.000000
vn -1.000000 0.000000 0.000000
vn -1.000000 0.000000 0.000000
vn -1.000000 0.000000 0.000000
vn -1.000000 0.000000 0.000000
vn -1.000000 0.000000 0.000000
vn 1.000000 0.000000 0.000000
vn 1.000000 0.000000 0.000000
vn 1.000000 0.000000 0.000000
vn 1.000000 0.000000 0.000000
vn 1.000000 0.000000 0.000000
vn 1.000000 0.000000 0.000000
vn 1.000000 0.000000 0.000000
vn 1.000000 0.000000 0.000000
vn 1.000000 0.000000 0.000000
vn 1.000000 0.000000 0.000000
vn 1.000000 0.000000 0.000000
vn 1.000000 0.000000 0.000000
vn 0.000000 0.000000 -1.000000
vn 0.000000 0.000000 -1.000000
vn 0.000000 0.000000 -1.000000
vn 0.000000 0.000000 -1.000000
vn 0.000000 0.000000 -1.000000
vn 0.000000 0.000000 -1.000000
vn -1.000000 0.000000 0.000000
vn -1.000000 0.000000 0.000000
vn -1.000000 0.000000 0.000000
vn -1.000000 0.000000 0.000000
vn -1.000000 0.000000 0.000000
vn -1.000000 0.000000 0.000000
vn -0.000000 0.000000 1.000000
vn -0.000000 0.000000 1.000000
vn -0.000000 0.000000 1.000000
vn 0.000000 0.000000 1.000000
vn 0.000000 0.000000 1.000000
vn 0.000000 0.000000 1.000000
vn 0.001245 0.999999 0.000000
vn 0.001245 0.999999 0.000000
vn 0.001245 0.999999 0.000000
vn 0.001245 0.999999 -0.000001
vn 0.001245 0.999999 -0.000001
vn 0.001245 0.999999 -0.000001
vn -0.000000 0.000000 -1.000000
vn -0.000000 0.000000 -1.000000
vn -0.000000 0.000000 -1.000000
vn 0.000000 0.000000 -1.000000
vn 0.000000 0.000000 -1.000000
vn 0.000000 0.000000 -1.000000
vn 0.000000 -1.000000 0.000000
vn 0.000000 -1.000000 0.000000
vn 0.000000 -1.000000 0.000000
vn 0.000000 -1.000000 0.000000
vn 0.000000 -1.000000 0.000000
vn 0.000000 -1.000000 0.000000
vn 0.000000 0.000000 1.000000
vn 0.000000 0.000000 1.000000
vn 0.000000 0.000000 1.000000
vn 0.000000 0.000000 1.000000
vn 0.000000 0.000000 1.000000
vn 0.000000 0.000000 1.000000
vn 0.000000 0.000000 -1.000000
vn 0.000000 0.000000 -1.000000
vn 0.000000 0.000000 -1.000000
vn 0.000000 0.000000 -1.000000
vn 0.000000 0.000000 -1.000000
vn 0.000000 0.000000 -1.000000
s off
f 4/1/1 6/2/2 3/4/3
f 3/4/4 6/2/5 5/3/6
f 5/5/7 6/6/8 7/8/9
f 7/8/10 6/6/11 8/7/12
f 8/9/13 6/10/14 2/12/15
f 2/12/16 6/10/17 4/11/18
f 5/13/19 7/14/20 3/16/21
f 3/16/22 7/14/23 1/15/24
f 9/17/25 13/18/26 10/20/27
f 10/20/28 13/18/29 14/19/30
f 14/22/31 15/23/32 10/21/33
f 10/21/34 15/23/35 11/24/36
f 11/25/37 15/26/38 12/28/39
f 12/28/40 15/26/41 16/27/42
f 12/29/43 16/30/44 9/32/45
f 9/32/46 16/30/47 13/31/48
f 12/33/49 17/34/50 11/36/51
f 11/36/52 17/34/53 18/35/54
f 11/37/55 18/38/56 10/40/57
f 10/40/58 18/38/59 19/39/60
f 10/41/61 19/42/62 9/44/63
f 9/44/64 19/42/65 20/43/66
f 20/46/67 17/47/68 9/45/69
f 9/45/70 17/47/71 12/48/72
f 4/49/73 3/50/74 2/52/75
f 2/52/76 3/50/77 1/51/78
