# This file uses centimeters as units for non-parametric coordinates.

v -1.114594 0.000000 0.591408
v -1.116432 0.000000 -0.329380
v 1.041885 0.000000 0.591106
v 1.417007 0.000000 -0.508791
v 0.553528 0.243597 0.070396
v -1.611588 0.000000 0.179123
v 0.373566 0.000000 -0.815926
v 0.698669 0.000000 -0.435503
v -0.566002 0.000000 -0.699938
v 1.207634 0.000000 0.105116
v 1.559631 0.000000 0.004789
v 1.611595 0.000000 -0.278467
v 1.325569 0.142584 -0.134970
v 1.376442 0.142584 -0.284142
v 0.557533 0.000000 0.815926
v 0.869240 0.000000 0.766169
v 0.204712 0.000000 0.591225
v 0.774567 0.106546 0.538248
v 0.587250 0.093413 0.562296
v -1.034599 0.112216 0.501081
v 0.257942 0.090656 0.488993
v -1.423721 0.031840 0.176495
v -0.955399 0.053419 -0.294352
v -0.407478 0.066008 -0.617895
v 0.372955 0.088610 -0.700754
v 0.701073 0.082436 -0.353226
v 1.320869 0.070361 -0.427311
v -0.364990 0.269095 -0.132225
v -0.374626 0.284711 0.127977
v 0.084297 0.212871 0.098219
v 0.084618 0.205343 -0.030222
v 0.117104 0.114767 -0.232155
vt 0.604019 0.447645
vt 0.583133 0.449290
vt 0.584209 0.425981
vt 0.590191 0.427120
vt 0.598727 0.424616
vt 0.609409 0.466090
vt 0.607635 0.472874
vt 0.607785 0.459021
vt 0.573694 0.429454
vt 0.593214 0.416320
vt 0.583260 0.413962
vt 0.610705 0.476735
vt 0.587844 0.469364
vt 0.615259 0.452399
vt 0.616918 0.465821
vt 0.571994 0.424610
vt 0.532422 0.428882
vt 0.587767 0.473262
vt 0.577367 0.485831
vt 0.529867 0.424602
vt 0.568150 0.447972
vt 0.553496 0.446561
vt 0.519997 0.444263
vt 0.577386 0.491289
vt 0.552447 0.481905
vt 0.569197 0.463626
vt 0.513998 0.444138
vt 0.568160 0.454058
vt 0.553803 0.458891
vt 0.534951 0.466574
vt 0.547385 0.485793
vt 0.529809 0.468234
vt 0.583133 0.449290
vt 0.583133 0.449290
vt 0.583133 0.449290
vt 0.583133 0.449290
vt 0.583133 0.449290
vt 0.583133 0.449290
vt 0.583133 0.449290
vt 0.583133 0.449290
vt 0.583133 0.449290
vt 0.568160 0.454058
vt 0.568160 0.454058
vt 0.568160 0.454058
vt 0.607635 0.472874
vt 0.607635 0.472874
vt 0.607635 0.472874
vt 0.587844 0.469364
vt 0.587844 0.469364
vt 0.587844 0.469364
vt 0.577367 0.485831
vt 0.577367 0.485831
vt 0.577367 0.485831
vt 0.569197 0.463626
vt 0.569197 0.463626
vt 0.552447 0.481905
vt 0.552447 0.481905
vt 0.552447 0.481905
vt 0.534951 0.466574
vt 0.534951 0.466574
vt 0.534951 0.466574
vt 0.553803 0.458891
vt 0.553803 0.458891
vt 0.568150 0.447972
vt 0.568150 0.447972
vt 0.553496 0.446561
vt 0.553496 0.446561
vt 0.519997 0.444263
vt 0.519997 0.444263
vt 0.519997 0.444263
vt 0.571994 0.424610
vt 0.583260 0.413962
vt 0.529867 0.424602
vt 0.573694 0.429454
vt 0.573694 0.429454
vt 0.573694 0.429454
vt 0.584209 0.425981
vt 0.584209 0.425981
vt 0.584209 0.425981
vt 0.593214 0.416320
vt 0.598727 0.424616
vt 0.590191 0.427120
vt 0.590191 0.427120
vt 0.616918 0.465821
vt 0.610705 0.476735
vt 0.610705 0.476735
vt 0.615259 0.452399
vt 0.609409 0.466090
vt 0.609409 0.466090
vt 0.609409 0.466090
vt 0.607785 0.459021
vt 0.607785 0.459021
vt 0.604019 0.447645
vt 0.604019 0.447645
vt 0.547385 0.485793
vt 0.529809 0.468234
vt 0.587767 0.473262
vt 0.577386 0.491289
vt 0.532422 0.428882
vt 0.532422 0.428882
vt 0.532422 0.428882
vt 0.513998 0.444138
vn -0.067098 0.836704 -0.543529
vn -0.067098 0.836704 -0.543529
vn -0.067098 0.836704 -0.543530
vn -0.087384 0.789313 -0.607742
vn -0.087384 0.789313 -0.607741
vn -0.087384 0.789313 -0.607742
vn 0.341195 0.932762 0.116366
vn 0.341195 0.932762 0.116366
vn 0.341195 0.932762 0.116366
vn 0.349704 0.930682 0.107412
vn 0.349704 0.930682 0.107412
vn 0.349704 0.930682 0.107412
vn -0.029279 0.955444 0.293718
vn -0.029279 0.955444 0.293718
vn -0.029279 0.955444 0.293718
vn -0.167083 0.972426 -0.162697
vn -0.167083 0.972426 -0.162697
vn -0.167083 0.972426 -0.162697
vn -0.263860 0.939278 -0.219398
vn -0.263860 0.939278 -0.219398
vn -0.263860 0.939278 -0.219398
vn 0.018910 0.934724 0.354871
vn 0.018910 0.934724 0.354871
vn 0.018910 0.934724 0.354871
vn -0.521021 0.728901 0.444117
vn -0.521021 0.728901 0.444117
vn -0.521021 0.728901 0.444117
vn -0.161265 0.967575 0.194399
vn -0.161265 0.967576 0.194399
vn -0.161265 0.967576 0.194399
vn -0.070521 0.705695 -0.704998
vn -0.070521 0.705695 -0.704998
vn -0.070521 0.705695 -0.704998
vn -0.071292 0.711784 -0.698771
vn -0.071292 0.711784 -0.698771
vn -0.071292 0.711784 -0.698771
vn 0.579340 0.647492 -0.495095
vn 0.579340 0.647492 -0.495095
vn 0.579340 0.647492 -0.495095
vn 0.612375 0.549462 -0.568409
vn 0.612375 0.549462 -0.568409
vn 0.612375 0.549462 -0.568409
vn -0.228725 0.912280 -0.339751
vn -0.228725 0.912280 -0.339751
vn -0.228725 0.912280 -0.339751
vn -0.214141 0.920502 -0.326832
vn -0.214141 0.920502 -0.326832
vn -0.214141 0.920502 -0.326832
vn 0.193230 0.843800 -0.500664
vn 0.193230 0.843800 -0.500664
vn 0.193230 0.843800 -0.500664
vn 0.159878 0.812275 0.560936
vn 0.159878 0.812275 0.560936
vn 0.159878 0.812275 0.560936
vn 0.507595 0.844027 0.173107
vn 0.507595 0.844027 0.173107
vn 0.507595 0.844027 0.173107
vn 0.479402 0.873178 0.087947
vn 0.479402 0.873178 0.087947
vn 0.479402 0.873178 0.087947
vn 0.480906 0.776954 -0.406291
vn 0.480906 0.776954 -0.406291
vn 0.480906 0.776954 -0.406291
vn 0.302035 0.905567 0.297865
vn 0.302035 0.905567 0.297865
vn 0.302035 0.905567 0.297865
vn -0.008670 0.904484 0.426419
vn -0.008670 0.904484 0.426419
vn -0.008670 0.904484 0.426419
vn 0.056003 0.934760 0.350837
vn 0.056003 0.934760 0.350837
vn 0.056003 0.934760 0.350837
vn -0.073826 0.952381 0.295837
vn -0.073826 0.952381 0.295837
vn -0.073826 0.952381 0.295837
vn 0.018652 0.743227 0.668779
vn 0.018652 0.743227 0.668779
vn 0.018652 0.743227 0.668779
vn 0.000108 0.626990 0.779027
vn 0.000108 0.626990 0.779027
vn 0.000108 0.626990 0.779028
vn -0.202217 0.926440 0.317518
vn -0.202217 0.926440 0.317518
vn -0.202218 0.926440 0.317518
vn -0.143147 0.776315 0.613876
vn -0.143147 0.776316 0.613876
vn -0.143147 0.776316 0.613876
vn -0.060344 0.994888 0.080976
vn -0.060344 0.994888 0.080976
vn -0.060344 0.994888 0.080976
vn 0.159646 0.757746 0.632719
vn 0.159646 0.757746 0.632719
vn 0.159646 0.757746 0.632719
vn -0.232493 0.971853 0.038063
vn -0.232493 0.971853 0.038063
vn -0.232493 0.971853 0.038063
vn 0.152098 0.986911 -0.053598
vn 0.152098 0.986911 -0.053598
vn 0.152098 0.986911 -0.053598
vn 0.150763 0.986898 -0.057468
vn 0.150763 0.986898 -0.057468
vn 0.150763 0.986898 -0.057468
vn -0.232116 0.904451 -0.357897
vn -0.232116 0.904451 -0.357897
vn -0.232116 0.904451 -0.357897
vn 0.205524 0.896363 -0.392802
vn 0.205524 0.896363 -0.392802
vn 0.205524 0.896363 -0.392802
vn 0.212400 0.903903 -0.371275
vn 0.212400 0.903903 -0.371275
vn 0.212400 0.903903 -0.371275
vn -0.036902 0.996442 -0.075768
vn -0.036902 0.996442 -0.075768
vn -0.036902 0.996442 -0.075768
vn -0.180778 0.971561 -0.152934
vn -0.180778 0.971561 -0.152934
vn -0.180778 0.971561 -0.152934
vn 0.284897 0.924689 -0.252556
vn 0.284897 0.924689 -0.252556
vn 0.284897 0.924689 -0.252556
vn -0.025261 0.931395 -0.363134
vn -0.025261 0.931395 -0.363134
vn -0.025261 0.931395 -0.363134
vn -0.073057 0.901561 -0.426440
vn -0.073057 0.901561 -0.426440
vn -0.073057 0.901561 -0.426440
vn 0.142258 0.988640 0.048515
vn 0.142258 0.988640 0.048515
vn 0.142258 0.988640 0.048515
vn 0.256048 0.770702 0.583487
vn 0.256048 0.770702 0.583487
vn 0.256048 0.770702 0.583487
vn -0.238347 0.951718 -0.193450
vn -0.238347 0.951718 -0.193450
vn -0.238347 0.951718 -0.193450
vn -0.325626 0.943003 -0.068654
vn -0.325626 0.943003 -0.068654
vn -0.325626 0.943003 -0.068654
vn -0.068685 0.995919 -0.058544
vn -0.068685 0.995919 -0.058544
vn -0.068685 0.995919 -0.058544
vn 0.012948 0.913116 -0.407494
vn 0.012948 0.913116 -0.407494
vn 0.012948 0.913116 -0.407494
s off
f 9/31/1 24/57/2 7/98/3
f 7/98/4 24/57/5 25/51/6
f 10/1/7 5/37/8 3/81/9
f 3/81/10 5/37/11 18/82/12
f 5/37/13 19/77/14 18/82/15
f 6/27/16 22/69/17 2/96/18
f 2/96/19 22/69/20 23/59/21
f 20/100/22 21/74/23 5/39/24
f 20/17/25 22/68/26 1/20/27
f 1/20/28 22/68/29 6/102/30
f 26/49/31 27/45/32 8/18/33
f 8/18/34 27/45/35 4/86/36
f 7/24/37 25/52/38 8/97/39
f 8/97/40 25/52/41 26/48/42
f 2/32/43 23/60/44 9/95/45
f 9/95/46 23/60/47 24/56/48
f 4/85/49 27/46/50 14/88/51
f 11/14/52 13/91/53 10/94/54
f 14/90/55 13/8/56 12/15/57
f 12/15/58 13/8/59 11/87/60
f 4/12/61 14/89/62 12/84/63
f 3/5/64 18/83/65 16/80/66
f 18/4/67 19/78/68 16/10/69
f 16/10/70 19/78/71 15/72/72
f 21/75/73 19/3/74 5/38/75
f 21/9/76 20/101/77 17/16/78
f 17/16/79 20/101/80 1/73/81
f 15/11/82 19/79/83 17/71/84
f 17/71/85 19/79/86 21/76/87
f 5/40/88 30/64/89 20/99/90
f 30/64/91 29/66/92 20/99/93
f 29/66/94 22/23/95 20/99/96
f 28/62/97 29/22/98 31/42/99
f 31/42/100 29/22/101 30/65/102
f 23/61/103 28/29/104 24/25/105
f 24/25/106 28/29/107 32/54/108
f 28/29/109 31/43/110 32/54/111
f 24/58/112 32/55/113 25/19/114
f 25/19/115 32/55/116 5/33/117
f 26/13/118 25/53/119 5/34/120
f 27/7/121 26/50/122 5/35/123
f 27/47/124 5/36/125 14/6/126
f 14/6/127 5/36/128 13/92/129
f 5/36/130 10/93/131 13/92/132
f 22/70/133 29/67/134 23/30/135
f 23/30/136 29/67/137 28/63/138
f 31/28/139 30/21/140 5/41/141
f 32/26/142 31/44/143 5/2/144
