# This file uses centimeters as units for non-parametric coordinates.

v 0.128803 -0.120061 -0.261081
v -0.128803 -0.120061 -0.261081
v 0.128803 0.120061 -0.261081
v -0.128803 0.120061 -0.261081
v 0.128803 -0.120061 0.381384
v -0.128803 -0.120061 0.381384
v -0.128803 0.120061 0.474734
v 0.128803 0.120061 0.474734
v -0.128803 0.082399 0.474734
v 0.128803 0.082399 0.474734
v 0.088943 0.082399 0.381384
v 0.088943 0.082399 0.474734
v -0.088943 0.082399 0.381384
v -0.088943 0.082399 0.474734
v -0.088947 -0.010924 0.381384
v -0.128803 -0.010924 0.381384
v 0.088947 -0.010924 0.381382
v 0.128803 -0.010924 0.381382
v 0.128803 -0.010924 -0.261081
v -0.128803 -0.010924 -0.261081
vt 0.888664 0.544428
vt 0.891863 0.544428
vt 0.891863 0.547860
vt 0.888664 0.547860
vt 0.900528 0.560519
vt 0.910036 0.560519
vt 0.910036 0.609702
vt 0.900528 0.609702
vt 0.892302 0.543313
vt 0.886595 0.548320
vt 0.886595 0.543313
vt 0.923479 0.548320
vt 0.917772 0.543313
vt 0.892302 0.530906
vt 0.886595 0.530906
vt 0.923479 0.543313
vt 0.886595 0.516397
vt 0.917772 0.530906
vt 0.923479 0.530906
vt 0.923479 0.516397
vt 0.917772 0.543313
vt 0.892302 0.543313
vt 0.892793 0.619484
vt 0.890823 0.619484
vt 0.890823 0.559360
vt 0.892793 0.559360
vt 0.908355 0.612468
vt 0.920668 0.612468
vt 0.920668 0.564950
vt 0.910209 0.564950
vt 0.908888 0.558046
vt 0.908355 0.558046
vt 0.908355 0.612468
vt 0.919123 0.564950
vt 0.920668 0.564950
vt 0.920668 0.612468
vt 0.908888 0.558046
vt 0.908355 0.558046
vt 0.889474 0.607931
vt 0.889474 0.564374
vt 0.894384 0.564374
vt 0.894384 0.607931
vt 0.889309 0.594063
vt 0.889309 0.584768
vt 0.894605 0.584768
vt 0.889309 0.584270
vt 0.889309 0.574976
vt 0.894605 0.584270
vt 0.890002 0.547860
vt 0.910332 0.612468
vt 0.889997 0.544428
vt 0.919251 0.612468
vt 0.919123 0.564950
vt 0.910337 0.612468
vt 0.910209 0.564950
vt 0.919246 0.612468
vn -0.000000 0.000000 -1.000000
vn -0.000000 0.000000 -1.000000
vn -0.000000 0.000000 -1.000000
vn -0.000000 0.000000 -1.000000
vn -0.000000 0.000000 -1.000000
vn -0.000000 0.000000 -1.000000
vn 0.000000 1.000000 0.000000
vn 0.000000 1.000000 0.000000
vn 0.000000 1.000000 0.000000
vn 0.000000 1.000000 0.000000
vn 0.000000 0.000000 1.000000
vn 0.000000 0.000000 1.000000
vn 0.000000 0.000000 1.000000
vn 0.000000 -1.000000 0.000000
vn 0.000000 -1.000000 0.000000
vn 0.000000 -1.000000 0.000000
vn 0.000000 -1.000000 0.000000
vn 0.000000 -0.707206 0.707007
vn 0.000000 -0.707206 0.707007
vn 0.000000 -0.707206 0.707007
vn 0.000000 -0.707206 0.707007
vn -1.000000 0.000000 0.000000
vn -1.000000 0.000000 0.000000
vn -1.000000 0.000000 0.000000
vn -1.000000 0.000000 0.000000
vn 0.000000 -0.707213 0.707000
vn 0.000000 -0.707213 0.707000
vn 0.000000 -0.707213 0.707000
vn 0.000000 -0.707213 0.707000
vn 0.000000 -1.000000 0.000000
vn 0.000000 -1.000000 0.000000
vn 0.000000 -1.000000 0.000000
vn 0.000000 -1.000000 0.000000
vn 0.000000 0.000000 1.000000
vn 0.000000 0.000000 1.000000
vn 0.000000 0.000000 1.000000
vn 0.000000 0.000017 1.000000
vn 0.000000 0.000017 1.000000
vn 0.000000 0.000017 1.000000
vn 1.000000 0.000000 0.000000
vn 1.000000 0.000000 0.000000
vn 1.000000 0.000000 0.000000
vn 1.000000 0.000000 0.000000
vn 1.000000 0.000000 0.000000
vn 0.000000 0.000000 1.000000
vn 0.000000 0.000000 1.000000
vn 0.000000 0.000000 1.000000
vn 0.000000 0.000000 1.000000
vn 0.000000 0.000000 1.000000
vn 0.000000 0.000000 1.000000
vn 0.000000 0.000000 1.000000
vn 1.000000 -0.000041 0.000000
vn 1.000000 -0.000041 0.000000
vn 1.000000 -0.000041 0.000000
vn 0.000005 0.000001 1.000000
vn 0.000005 0.000001 1.000000
vn 0.000005 0.000001 1.000000
vn 0.000005 0.000001 1.000000
vn 0.000005 0.000001 1.000000
vn 0.000005 0.000001 1.000000
vn -1.000000 -0.000041 0.000000
vn -1.000000 -0.000041 0.000000
vn -1.000000 -0.000041 0.000000
vn 1.000000 0.000000 0.000000
vn 1.000000 0.000000 0.000000
vn 1.000000 0.000000 0.000000
vn 1.000000 0.000000 0.000000
vn -1.000000 0.000000 0.000000
vn -1.000000 0.000000 0.000000
vn -1.000000 0.000000 0.000000
vn -1.000000 0.000000 0.000000
vn -1.000000 0.000000 0.000000
s off
f 2/1/1 20/51/2 4/2/3 3/3/4 19/49/5 1/4/6
f 3/5/7 4/6/8 7/7/9 8/8/10
f 14/9/11 7/10/12 9/11/13
f 5/23/14 6/24/15 2/25/16 1/26/17
f 15/14/18 14/9/19 9/11/20 16/15/21
f 16/53/22 20/52/23 2/28/24 6/29/25
f 10/16/26 12/13/27 17/18/28 18/19/29
f 12/39/30 14/40/31 13/41/32 11/42/33
f 6/17/34 15/14/35 16/15/36
f 5/20/37 18/19/38 17/18/39
f 3/33/40 8/38/41 10/37/42 18/55/43 19/50/44
f 8/12/45 7/10/46 14/9/47 12/13/48
f 8/12/49 12/13/50 10/16/51
f 15/43/52 13/44/53 14/45/54
f 5/20/55 17/18/56 11/21/57 13/22/58 15/14/59 6/17/60
f 11/46/61 17/47/62 12/48/63
f 19/56/64 18/34/65 5/35/66 1/36/67
f 16/30/68 9/31/69 7/32/70 4/27/71 20/54/72
