# This file uses centimeters as units for non-parametric coordinates.

v 0.446203 1.538150 0.059258
v -0.446203 1.538150 0.059258
v 0.446203 0.347840 0.378201
v -0.446203 0.347840 0.378201
v 0.450055 1.592469 0.016273
v 0.450055 1.527966 0.033557
v -0.450055 1.592469 0.016273
v -0.450055 1.527966 0.033557
v -0.450055 1.606684 0.069325
v -0.450055 1.542181 0.086608
v 0.450055 1.606684 0.069325
v 0.450055 1.542181 0.086608
v -0.445079 0.000000 0.430560
v -0.511858 0.000000 0.430560
v -0.445079 1.600423 0.001728
v -0.511858 1.600423 0.001728
v -0.445079 1.620846 0.077945
v -0.511858 1.620846 0.077945
v -0.445079 0.020422 0.506777
v -0.511858 0.020422 0.506777
v 0.445079 0.000000 0.430560
v 0.511858 0.000000 0.430560
v 0.445079 1.600423 0.001728
v 0.511858 1.600423 0.001728
v 0.445079 1.620846 0.077945
v 0.511858 1.620846 0.077945
v 0.445079 0.020422 0.506777
v 0.511858 0.020422 0.506777
v 0.450055 0.344357 0.350705
v 0.450055 0.279854 0.367988
v -0.450055 0.344357 0.350705
v -0.450055 0.279854 0.367988
v -0.450055 0.358572 0.403756
v -0.450055 0.294068 0.421040
v 0.450055 0.358572 0.403756
v 0.450055 0.294068 0.421040
v 0.448089 1.533470 0.047286
v -0.444318 1.533470 0.047286
v 0.448089 0.343159 0.366229
v -0.444318 0.343159 0.366229
v -0.446203 1.538150 -0.059258
v 0.446203 1.538150 -0.059258
v -0.446203 0.347840 -0.378201
v 0.446203 0.347840 -0.378201
v -0.450055 1.592469 -0.016273
v -0.450055 1.527966 -0.033557
v 0.450055 1.592469 -0.016273
v 0.450055 1.527966 -0.033557
v 0.450055 1.606684 -0.069325
v 0.450055 1.542181 -0.086608
v -0.450055 1.606684 -0.069325
v -0.450055 1.542181 -0.086608
v 0.445079 0.000000 -0.430560
v 0.511858 0.000000 -0.430560
v 0.445079 1.600423 -0.001728
v 0.511858 1.600423 -0.001728
v 0.445079 1.620846 -0.077945
v 0.511858 1.620846 -0.077945
v 0.445079 0.020422 -0.506777
v 0.511858 0.020422 -0.506777
v -0.445079 0.000000 -0.430560
v -0.511858 0.000000 -0.430560
v -0.445079 1.600423 -0.001728
v -0.511858 1.600423 -0.001728
v -0.445079 1.620846 -0.077945
v -0.511858 1.620846 -0.077945
v -0.445079 0.020422 -0.506777
v -0.511858 0.020422 -0.506777
v -0.450055 0.344357 -0.350705
v -0.450055 0.279854 -0.367988
v 0.450055 0.344357 -0.350705
v 0.450055 0.279854 -0.367988
v 0.450055 0.358572 -0.403756
v 0.450055 0.294068 -0.421040
v -0.450055 0.358572 -0.403756
v -0.450055 0.294068 -0.421040
v -0.448089 1.533470 -0.047286
v 0.444318 1.533470 -0.047286
v -0.448089 0.343159 -0.366229
v 0.444318 0.343159 -0.366229
v -0.508831 1.085860 0.171758
v -0.532350 1.085860 0.171758
v -0.508831 1.085860 -0.184709
v -0.532350 1.085860 -0.184709
v -0.508831 1.144246 -0.184709
v -0.532350 1.144246 -0.184709
v -0.508831 1.144246 0.171758
v -0.532350 1.144246 0.171758
v 0.508831 1.085860 0.171758
v 0.532350 1.085860 0.171758
v 0.508831 1.085860 -0.184709
v 0.532350 1.085860 -0.184709
v 0.508831 1.144246 -0.184709
v 0.532350 1.144246 -0.184709
v 0.508831 1.144246 0.171758
v 0.532350 1.144246 0.171758
vt 0.745639 0.168986
vt 0.630171 0.168986
vt 0.630171 0.001955
vt 0.745639 0.001955
vt 0.232767 0.399252
vt 0.232767 0.399250
vt 0.233034 0.399250
vt 0.233034 0.399252
vt 0.331513 0.398849
vt 0.331513 0.398854
vt 0.331343 0.398854
vt 0.331343 0.398849
vt 0.260690 0.399266
vt 0.260690 0.399265
vt 0.260584 0.399265
vt 0.260584 0.399266
vt 0.295253 0.398920
vt 0.295253 0.398916
vt 0.295598 0.398916
vt 0.295598 0.398920
vt 0.233529 0.399221
vt 0.233529 0.399223
vt 0.233038 0.399223
vt 0.233038 0.399221
vt 0.295222 0.398881
vt 0.295248 0.398881
vt 0.295248 0.398887
vt 0.295222 0.398887
vt 0.331651 0.399006
vt 0.331651 0.399010
vt 0.331363 0.399010
vt 0.331363 0.399006
vt 0.260590 0.399043
vt 0.260559 0.399043
vt 0.260559 0.399049
vt 0.260590 0.399049
vt 0.295508 0.399018
vt 0.295508 0.399024
vt 0.294873 0.399024
vt 0.294873 0.399018
vt 0.260386 0.399238
vt 0.260386 0.399240
vt 0.260582 0.399240
vt 0.260582 0.399238
vt 0.233529 0.399229
vt 0.233038 0.399229
vt 0.233038 0.399227
vt 0.233529 0.399227
vt 0.295248 0.398908
vt 0.295248 0.398914
vt 0.295222 0.398914
vt 0.295222 0.398908
vt 0.331651 0.399015
vt 0.331363 0.399015
vt 0.331363 0.399011
vt 0.331651 0.399011
vt 0.260559 0.399052
vt 0.260559 0.399058
vt 0.260590 0.399058
vt 0.260590 0.399052
vt 0.295508 0.399054
vt 0.294873 0.399054
vt 0.294873 0.399048
vt 0.295508 0.399048
vt 0.260386 0.399247
vt 0.260582 0.399247
vt 0.260582 0.399246
vt 0.260386 0.399246
vt 0.232748 0.399240
vt 0.232748 0.399233
vt 0.233711 0.399233
vt 0.233711 0.399240
vt 0.331513 0.398867
vt 0.331513 0.398872
vt 0.331343 0.398872
vt 0.331343 0.398867
vt 0.260690 0.399275
vt 0.260690 0.399274
vt 0.260584 0.399274
vt 0.260584 0.399275
vt 0.295016 0.399230
vt 0.295016 0.399228
vt 0.295188 0.399228
vt 0.295188 0.399230
vt 0.642457 0.075949
vt 0.642457 0.075949
vt 0.642457 0.075949
vt 0.642457 0.075949
vt 0.745639 0.168986
vt 0.630171 0.168986
vt 0.630171 0.001955
vt 0.745639 0.001955
vt 0.232767 0.399252
vt 0.232767 0.399250
vt 0.233034 0.399250
vt 0.233034 0.399252
vt 0.331513 0.398849
vt 0.331513 0.398854
vt 0.331343 0.398854
vt 0.331343 0.398849
vt 0.260690 0.399266
vt 0.260690 0.399265
vt 0.260584 0.399265
vt 0.260584 0.399266
vt 0.295253 0.398920
vt 0.295253 0.398916
vt 0.295598 0.398916
vt 0.295598 0.398920
vt 0.233529 0.399221
vt 0.233529 0.399223
vt 0.233038 0.399223
vt 0.233038 0.399221
vt 0.295222 0.398881
vt 0.295248 0.398881
vt 0.295248 0.398887
vt 0.295222 0.398887
vt 0.331651 0.399006
vt 0.331651 0.399010
vt 0.331363 0.399010
vt 0.331363 0.399006
vt 0.260590 0.399043
vt 0.260559 0.399043
vt 0.260559 0.399049
vt 0.260590 0.399049
vt 0.295508 0.399018
vt 0.295508 0.399024
vt 0.294873 0.399024
vt 0.294873 0.399018
vt 0.260386 0.399238
vt 0.260386 0.399240
vt 0.260582 0.399240
vt 0.260582 0.399238
vt 0.233529 0.399229
vt 0.233038 0.399229
vt 0.233038 0.399227
vt 0.233529 0.399227
vt 0.295248 0.398908
vt 0.295248 0.398914
vt 0.295222 0.398914
vt 0.295222 0.398908
vt 0.331651 0.399015
vt 0.331363 0.399015
vt 0.331363 0.399011
vt 0.331651 0.399011
vt 0.260559 0.399052
vt 0.260559 0.399058
vt 0.260590 0.399058
vt 0.260590 0.399052
vt 0.295508 0.399054
vt 0.294873 0.399054
vt 0.294873 0.399048
vt 0.295508 0.399048
vt 0.260386 0.399247
vt 0.260582 0.399247
vt 0.260582 0.399246
vt 0.260386 0.399246
vt 0.232748 0.399240
vt 0.232748 0.399233
vt 0.233711 0.399233
vt 0.233711 0.399240
vt 0.331513 0.398867
vt 0.331513 0.398872
vt 0.331343 0.398872
vt 0.331343 0.398867
vt 0.260690 0.399275
vt 0.260690 0.399274
vt 0.260584 0.399274
vt 0.260584 0.399275
vt 0.295016 0.399230
vt 0.295016 0.399228
vt 0.295188 0.399228
vt 0.295188 0.399230
vt 0.642457 0.075949
vt 0.642457 0.075949
vt 0.642457 0.075949
vt 0.642457 0.075949
vt 0.233529 0.399221
vt 0.233529 0.399223
vt 0.233038 0.399223
vt 0.233038 0.399221
vt 0.260657 0.399032
vt 0.260626 0.399032
vt 0.260626 0.399038
vt 0.260657 0.399038
vt 0.331651 0.399006
vt 0.331651 0.399010
vt 0.331363 0.399010
vt 0.331363 0.399006
vt 0.260590 0.399043
vt 0.260559 0.399043
vt 0.260559 0.399049
vt 0.260590 0.399049
vt 0.295508 0.399018
vt 0.295508 0.399024
vt 0.294873 0.399024
vt 0.294873 0.399018
vt 0.260386 0.399238
vt 0.260386 0.399240
vt 0.260582 0.399240
vt 0.260582 0.399238
vt 0.233529 0.399221
vt 0.233529 0.399223
vt 0.233038 0.399223
vt 0.233038 0.399221
vt 0.260657 0.399032
vt 0.260626 0.399032
vt 0.260626 0.399038
vt 0.260657 0.399038
vt 0.331651 0.399006
vt 0.331651 0.399010
vt 0.331363 0.399010
vt 0.331363 0.399006
vt 0.260590 0.399043
vt 0.260559 0.399043
vt 0.260559 0.399049
vt 0.260590 0.399049
vt 0.295508 0.399018
vt 0.295508 0.399024
vt 0.294873 0.399024
vt 0.294873 0.399018
vt 0.260386 0.399238
vt 0.260386 0.399240
vt 0.260582 0.399240
vt 0.260582 0.399238
vn 0.000000 0.258819 0.965926
vn 0.000000 0.258819 0.965926
vn 0.000000 0.258819 0.965926
vn 0.000000 0.258819 0.965926
vn 0.000000 0.258819 0.965926
vn 0.000000 0.258819 0.965926
vn 0.000000 -0.258822 -0.965925
vn 0.000000 -0.258822 -0.965925
vn 0.000000 -0.258822 -0.965925
vn 0.000000 -0.258822 -0.965925
vn 0.000000 -0.258822 -0.965925
vn 0.000000 -0.258822 -0.965925
vn 0.000000 0.258817 0.965927
vn 0.000000 0.258817 0.965927
vn 0.000000 0.258817 0.965927
vn 0.000000 0.258814 0.965927
vn 0.000000 0.258815 0.965927
vn 0.000000 0.258815 0.965927
vn 0.000000 -0.965926 0.258818
vn 0.000000 -0.965926 0.258818
vn 0.000000 -0.965926 0.258818
vn 0.000000 -0.965926 0.258818
vn 0.000000 -0.965926 0.258818
vn 0.000000 -0.965926 0.258818
vn 0.000000 0.965927 -0.258815
vn 0.000000 0.965927 -0.258815
vn 0.000000 0.965927 -0.258815
vn 0.000000 0.965927 -0.258815
vn 0.000000 0.965927 -0.258815
vn 0.000000 0.965927 -0.258815
vn 0.000000 -0.258819 -0.965926
vn 0.000000 -0.258819 -0.965926
vn 0.000000 -0.258819 -0.965926
vn 0.000000 -0.258819 -0.965926
vn 0.000000 -0.258819 -0.965926
vn 0.000000 -0.258819 -0.965926
vn 0.000000 0.965926 -0.258818
vn 0.000000 0.965926 -0.258818
vn 0.000000 0.965926 -0.258818
vn 0.000000 0.965925 -0.258821
vn 0.000000 0.965925 -0.258821
vn 0.000000 0.965925 -0.258821
vn 0.000000 0.258819 0.965926
vn 0.000000 0.258819 0.965926
vn 0.000000 0.258819 0.965926
vn 0.000000 0.258819 0.965926
vn 0.000000 0.258819 0.965926
vn 0.000000 0.258819 0.965926
vn 0.000000 -0.965926 0.258819
vn 0.000000 -0.965926 0.258819
vn 0.000000 -0.965926 0.258819
vn 0.000000 -0.965926 0.258819
vn 0.000000 -0.965926 0.258819
vn 0.000000 -0.965926 0.258819
vn -1.000000 0.000000 0.000000
vn -1.000000 0.000000 0.000000
vn -1.000000 0.000000 0.000000
vn -1.000000 0.000000 0.000000
vn -1.000000 0.000000 0.000000
vn -1.000000 0.000000 0.000000
vn 1.000000 0.000000 0.000000
vn 1.000000 0.000000 0.000000
vn 1.000000 0.000000 0.000000
vn 1.000000 -0.000000 0.000000
vn 1.000000 -0.000000 0.000000
vn 1.000000 -0.000000 0.000000
vn 0.000000 -0.258819 -0.965926
vn 0.000000 -0.258819 -0.965926
vn 0.000000 -0.258819 -0.965926
vn 0.000000 -0.258819 -0.965926
vn 0.000000 -0.258819 -0.965926
vn 0.000000 -0.258819 -0.965926
vn 0.000000 0.965926 -0.258818
vn 0.000000 0.965926 -0.258818
vn 0.000000 0.965926 -0.258818
vn 0.000000 0.965925 -0.258821
vn 0.000000 0.965925 -0.258821
vn 0.000000 0.965925 -0.258821
vn 0.000000 0.258819 0.965926
vn 0.000000 0.258819 0.965926
vn 0.000000 0.258819 0.965926
vn 0.000000 0.258819 0.965926
vn 0.000000 0.258819 0.965926
vn 0.000000 0.258819 0.965926
vn 0.000000 -0.965926 0.258819
vn 0.000000 -0.965926 0.258819
vn 0.000000 -0.965926 0.258819
vn 0.000000 -0.965926 0.258819
vn 0.000000 -0.965926 0.258819
vn 0.000000 -0.965926 0.258819
vn 1.000000 -0.000000 0.000000
vn 1.000000 -0.000000 0.000000
vn 1.000000 -0.000000 0.000000
vn 1.000000 0.000000 0.000000
vn 1.000000 0.000000 0.000000
vn 1.000000 0.000000 0.000000
vn -1.000000 0.000000 0.000000
vn -1.000000 0.000000 0.000000
vn -1.000000 0.000000 0.000000
vn -1.000000 -0.000000 0.000000
vn -1.000000 -0.000000 0.000000
vn -1.000000 -0.000000 0.000000
vn 0.000000 -0.258816 -0.965927
vn 0.000000 -0.258816 -0.965927
vn 0.000000 -0.258816 -0.965927
vn 0.000000 -0.258816 -0.965927
vn 0.000000 -0.258816 -0.965927
vn 0.000000 -0.258816 -0.965927
vn 0.000000 0.258822 0.965925
vn 0.000000 0.258822 0.965925
vn 0.000000 0.258822 0.965925
vn 0.000000 0.258822 0.965925
vn 0.000000 0.258822 0.965925
vn 0.000000 0.258822 0.965925
vn 0.000000 -0.965927 0.258813
vn 0.000000 -0.965927 0.258813
vn 0.000000 -0.965927 0.258813
vn 0.000000 -0.965927 0.258815
vn 0.000000 -0.965927 0.258815
vn 0.000000 -0.965927 0.258815
vn 0.000000 0.965926 -0.258820
vn 0.000000 0.965926 -0.258820
vn 0.000000 0.965926 -0.258820
vn 0.000000 0.965926 -0.258820
vn 0.000000 0.965926 -0.258820
vn 0.000000 0.965926 -0.258820
vn 0.000000 0.258819 0.965926
vn 0.000000 0.258819 0.965926
vn 0.000000 0.258819 0.965926
vn 0.000000 0.258819 0.965926
vn 0.000000 0.258819 0.965926
vn 0.000000 0.258819 0.965926
vn 0.000000 0.258819 -0.965926
vn 0.000000 0.258819 -0.965926
vn 0.000000 0.258819 -0.965926
vn 0.000000 0.258819 -0.965926
vn 0.000000 0.258819 -0.965926
vn 0.000000 0.258819 -0.965926
vn 0.000000 -0.258822 0.965925
vn 0.000000 -0.258822 0.965925
vn 0.000000 -0.258822 0.965925
vn 0.000000 -0.258822 0.965925
vn 0.000000 -0.258822 0.965925
vn 0.000000 -0.258822 0.965925
vn 0.000000 0.258817 -0.965927
vn 0.000000 0.258817 -0.965927
vn 0.000000 0.258817 -0.965927
vn 0.000000 0.258814 -0.965927
vn 0.000000 0.258815 -0.965927
vn 0.000000 0.258815 -0.965927
vn 0.000000 -0.965926 -0.258818
vn 0.000000 -0.965926 -0.258818
vn 0.000000 -0.965926 -0.258818
vn 0.000000 -0.965926 -0.258818
vn 0.000000 -0.965926 -0.258818
vn 0.000000 -0.965926 -0.258818
vn 0.000000 0.965927 0.258815
vn 0.000000 0.965927 0.258815
vn 0.000000 0.965927 0.258815
vn 0.000000 0.965927 0.258815
vn 0.000000 0.965927 0.258815
vn 0.000000 0.965927 0.258815
vn 0.000000 -0.258819 0.965926
vn 0.000000 -0.258819 0.965926
vn 0.000000 -0.258819 0.965926
vn 0.000000 -0.258819 0.965926
vn 0.000000 -0.258819 0.965926
vn 0.000000 -0.258819 0.965926
vn 0.000000 0.965926 0.258818
vn 0.000000 0.965926 0.258818
vn 0.000000 0.965926 0.258818
vn 0.000000 0.965925 0.258821
vn 0.000000 0.965925 0.258821
vn 0.000000 0.965925 0.258821
vn 0.000000 0.258819 -0.965926
vn 0.000000 0.258819 -0.965926
vn 0.000000 0.258819 -0.965926
vn 0.000000 0.258819 -0.965926
vn 0.000000 0.258819 -0.965926
vn 0.000000 0.258819 -0.965926
vn 0.000000 -0.965926 -0.258819
vn 0.000000 -0.965926 -0.258819
vn 0.000000 -0.965926 -0.258819
vn 0.000000 -0.965926 -0.258819
vn 0.000000 -0.965926 -0.258819
vn 0.000000 -0.965926 -0.258819
vn 1.000000 0.000000 0.000000
vn 1.000000 0.000000 0.000000
vn 1.000000 0.000000 0.000000
vn 1.000000 0.000000 0.000000
vn 1.000000 0.000000 0.000000
vn 1.000000 0.000000 0.000000
vn -1.000000 0.000000 0.000000
vn -1.000000 0.000000 0.000000
vn -1.000000 0.000000 0.000000
vn -1.000000 -0.000000 0.000000
vn -1.000000 -0.000000 0.000000
vn -1.000000 -0.000000 0.000000
vn 0.000000 -0.258819 0.965926
vn 0.000000 -0.258819 0.965926
vn 0.000000 -0.258819 0.965926
vn 0.000000 -0.258819 0.965926
vn 0.000000 -0.258819 0.965926
vn 0.000000 -0.258819 0.965926
vn 0.000000 0.965926 0.258818
vn 0.000000 0.965926 0.258818
vn 0.000000 0.965926 0.258818
vn 0.000000 0.965925 0.258821
vn 0.000000 0.965925 0.258821
vn 0.000000 0.965925 0.258821
vn 0.000000 0.258819 -0.965926
vn 0.000000 0.258819 -0.965926
vn 0.000000 0.258819 -0.965926
vn 0.000000 0.258819 -0.965926
vn 0.000000 0.258819 -0.965926
vn 0.000000 0.258819 -0.965926
vn 0.000000 -0.965926 -0.258819
vn 0.000000 -0.965926 -0.258819
vn 0.000000 -0.965926 -0.258819
vn 0.000000 -0.965926 -0.258819
vn 0.000000 -0.965926 -0.258819
vn 0.000000 -0.965926 -0.258819
vn -1.000000 -0.000000 0.000000
vn -1.000000 -0.000000 0.000000
vn -1.000000 -0.000000 0.000000
vn -1.000000 0.000000 0.000000
vn -1.000000 0.000000 0.000000
vn -1.000000 0.000000 0.000000
vn 1.000000 0.000000 0.000000
vn 1.000000 0.000000 0.000000
vn 1.000000 0.000000 0.000000
vn 1.000000 -0.000000 0.000000
vn 1.000000 -0.000000 0.000000
vn 1.000000 -0.000000 0.000000
vn 0.000000 -0.258816 0.965927
vn 0.000000 -0.258816 0.965927
vn 0.000000 -0.258816 0.965927
vn 0.000000 -0.258816 0.965927
vn 0.000000 -0.258816 0.965927
vn 0.000000 -0.258816 0.965927
vn 0.000000 0.258822 -0.965925
vn 0.000000 0.258822 -0.965925
vn 0.000000 0.258822 -0.965925
vn 0.000000 0.258822 -0.965925
vn 0.000000 0.258822 -0.965925
vn 0.000000 0.258822 -0.965925
vn 0.000000 -0.965927 -0.258813
vn 0.000000 -0.965927 -0.258813
vn 0.000000 -0.965927 -0.258813
vn 0.000000 -0.965927 -0.258815
vn 0.000000 -0.965927 -0.258815
vn 0.000000 -0.965927 -0.258815
vn 0.000000 0.965926 0.258820
vn 0.000000 0.965926 0.258820
vn 0.000000 0.965926 0.258820
vn 0.000000 0.965926 0.258820
vn 0.000000 0.965926 0.258820
vn 0.000000 0.965926 0.258820
vn 0.000000 0.258819 -0.965926
vn 0.000000 0.258819 -0.965926
vn 0.000000 0.258819 -0.965926
vn 0.000000 0.258819 -0.965926
vn 0.000000 0.258819 -0.965926
vn 0.000000 0.258819 -0.965926
vn 0.000000 -1.000000 0.000000
vn 0.000000 -1.000000 0.000000
vn 0.000000 -1.000000 0.000000
vn 0.000000 -1.000000 -0.000001
vn 0.000000 -1.000000 -0.000001
vn 0.000000 -1.000000 -0.000001
vn 0.000000 0.000000 -1.000000
vn 0.000000 0.000000 -1.000000
vn 0.000000 0.000000 -1.000000
vn 0.000000 0.000000 -1.000000
vn 0.000000 0.000000 -1.000000
vn 0.000000 0.000000 -1.000000
vn 0.000000 1.000000 0.000000
vn 0.000000 1.000000 0.000000
vn 0.000000 1.000000 0.000000
vn 0.000000 1.000000 0.000000
vn 0.000000 1.000000 0.000000
vn 0.000000 1.000000 0.000000
vn 0.000000 0.000000 1.000000
vn 0.000000 0.000000 1.000000
vn 0.000000 0.000000 1.000000
vn 0.000000 0.000000 1.000000
vn 0.000000 0.000000 1.000000
vn 0.000000 0.000000 1.000000
vn -1.000000 0.000000 0.000000
vn -1.000000 0.000000 0.000000
vn -1.000000 0.000000 0.000000
vn -1.000000 0.000000 0.000000
vn -1.000000 0.000000 0.000000
vn -1.000000 0.000000 0.000000
vn 1.000000 0.000000 0.000000
vn 1.000000 0.000000 0.000000
vn 1.000000 0.000000 0.000000
vn 1.000000 0.000000 0.000000
vn 1.000000 0.000000 0.000000
vn 1.000000 0.000000 0.000000
vn 0.000000 -1.000000 0.000000
vn 0.000000 -1.000000 0.000000
vn 0.000000 -1.000000 0.000000
vn 0.000000 -1.000000 -0.000001
vn 0.000000 -1.000000 -0.000001
vn 0.000000 -1.000000 -0.000001
vn 0.000000 0.000000 -1.000000
vn 0.000000 0.000000 -1.000000
vn 0.000000 0.000000 -1.000000
vn 0.000000 0.000000 -1.000000
vn 0.000000 0.000000 -1.000000
vn 0.000000 0.000000 -1.000000
vn 0.000000 1.000000 0.000000
vn 0.000000 1.000000 0.000000
vn 0.000000 1.000000 0.000000
vn 0.000000 1.000000 0.000000
vn 0.000000 1.000000 0.000000
vn 0.000000 1.000000 0.000000
vn 0.000000 0.000000 1.000000
vn 0.000000 0.000000 1.000000
vn 0.000000 0.000000 1.000000
vn 0.000000 0.000000 1.000000
vn 0.000000 0.000000 1.000000
vn 0.000000 0.000000 1.000000
vn 1.000000 0.000000 0.000000
vn 1.000000 0.000000 0.000000
vn 1.000000 0.000000 0.000000
vn 1.000000 0.000000 0.000000
vn 1.000000 0.000000 0.000000
vn 1.000000 0.000000 0.000000
vn -1.000000 0.000000 0.000000
vn -1.000000 0.000000 0.000000
vn -1.000000 0.000000 0.000000
vn -1.000000 0.000000 0.000000
vn -1.000000 0.000000 0.000000
vn -1.000000 0.000000 0.000000
s off
f 1/1/1 2/2/2 3/4/3
f 3/4/4 2/2/5 4/3/6
f 5/5/7 6/6/8 7/8/9
f 7/8/10 6/6/11 8/7/12
f 9/9/13 10/10/14 11/12/15
f 11/12/16 10/10/17 12/11/18
f 6/13/19 12/14/20 8/16/21
f 8/16/22 12/14/23 10/15/24
f 11/17/25 5/18/26 9/20/27
f 9/20/28 5/18/29 7/19/30
f 13/21/31 14/22/32 15/24/33
f 15/24/34 14/22/35 16/23/36
f 15/25/37 16/26/38 17/28/39
f 17/28/40 16/26/41 18/27/42
f 17/29/43 18/30/44 19/32/45
f 19/32/46 18/30/47 20/31/48
f 19/33/49 20/34/50 13/36/51
f 13/36/52 20/34/53 14/35/54
f 14/37/55 20/38/56 16/40/57
f 16/40/58 20/38/59 18/39/60
f 19/41/61 13/42/62 17/44/63
f 17/44/64 13/42/65 15/43/66
f 21/45/67 23/46/68 22/48/69
f 22/48/70 23/46/71 24/47/72
f 23/49/73 25/50/74 24/52/75
f 24/52/76 25/50/77 26/51/78
f 25/53/79 27/54/80 26/56/81
f 26/56/82 27/54/83 28/55/84
f 27/57/85 21/58/86 28/60/87
f 28/60/88 21/58/89 22/59/90
f 22/61/91 24/62/92 28/64/93
f 28/64/94 24/62/95 26/63/96
f 27/65/97 25/66/98 21/68/99
f 21/68/100 25/66/101 23/67/102
f 29/69/103 30/70/104 31/72/105
f 31/72/106 30/70/107 32/71/108
f 33/73/109 34/74/110 35/76/111
f 35/76/112 34/74/113 36/75/114
f 30/77/115 36/78/116 32/80/117
f 32/80/118 36/78/119 34/79/120
f 35/81/121 29/82/122 33/84/123
f 33/84/124 29/82/125 31/83/126
f 37/85/127 38/86/128 39/88/129
f 39/88/130 38/86/131 40/87/132
f 41/89/133 42/90/134 43/92/135
f 43/92/136 42/90/137 44/91/138
f 45/93/139 46/94/140 47/96/141
f 47/96/142 46/94/143 48/95/144
f 49/97/145 50/98/146 51/100/147
f 51/100/148 50/98/149 52/99/150
f 46/101/151 52/102/152 48/104/153
f 48/104/154 52/102/155 50/103/156
f 51/105/157 45/106/158 49/108/159
f 49/108/160 45/106/161 47/107/162
f 53/109/163 54/110/164 55/112/165
f 55/112/166 54/110/167 56/111/168
f 55/113/169 56/114/170 57/116/171
f 57/116/172 56/114/173 58/115/174
f 57/117/175 58/118/176 59/120/177
f 59/120/178 58/118/179 60/119/180
f 59/121/181 60/122/182 53/124/183
f 53/124/184 60/122/185 54/123/186
f 54/125/187 60/126/188 56/128/189
f 56/128/190 60/126/191 58/127/192
f 59/129/193 53/130/194 57/132/195
f 57/132/196 53/130/197 55/131/198
f 61/133/199 63/134/200 62/136/201
f 62/136/202 63/134/203 64/135/204
f 63/137/205 65/138/206 64/140/207
f 64/140/208 65/138/209 66/139/210
f 65/141/211 67/142/212 66/144/213
f 66/144/214 67/142/215 68/143/216
f 67/145/217 61/146/218 68/148/219
f 68/148/220 61/146/221 62/147/222
f 62/149/223 64/150/224 68/152/225
f 68/152/226 64/150/227 66/151/228
f 67/153/229 65/154/230 61/156/231
f 61/156/232 65/154/233 63/155/234
f 69/157/235 70/158/236 71/160/237
f 71/160/238 70/158/239 72/159/240
f 73/161/241 74/162/242 75/164/243
f 75/164/244 74/162/245 76/163/246
f 70/165/247 76/166/248 72/168/249
f 72/168/250 76/166/251 74/167/252
f 75/169/253 69/170/254 73/172/255
f 73/172/256 69/170/257 71/171/258
f 77/173/259 78/174/260 79/176/261
f 79/176/262 78/174/263 80/175/264
f 81/177/265 82/178/266 83/180/267
f 83/180/268 82/178/269 84/179/270
f 83/181/271 84/182/272 85/184/273
f 85/184/274 84/182/275 86/183/276
f 85/185/277 86/186/278 87/188/279
f 87/188/280 86/186/281 88/187/282
f 87/189/283 88/190/284 81/192/285
f 81/192/286 88/190/287 82/191/288
f 82/193/289 88/194/290 84/196/291
f 84/196/292 88/194/293 86/195/294
f 87/197/295 81/198/296 85/200/297
f 85/200/298 81/198/299 83/199/300
f 89/201/301 91/204/302 90/202/303
f 90/202/304 91/204/305 92/203/306
f 91/205/307 93/208/308 92/206/309
f 92/206/310 93/208/311 94/207/312
f 93/209/313 95/212/314 94/210/315
f 94/210/316 95/212/317 96/211/318
f 95/213/319 89/216/320 96/214/321
f 96/214/322 89/216/323 90/215/324
f 90/217/325 92/220/326 96/218/327
f 96/218/328 92/220/329 94/219/330
f 95/221/331 93/224/332 89/222/333
f 89/222/334 93/224/335 91/223/336
