# This file uses centimeters as units for non-parametric coordinates.

v 0.611346 -0.000000 1.218838
v -0.611346 -0.000000 1.218838
v 0.611346 0.372944 1.218838
v -0.611346 0.372944 1.218838
v 0.611346 0.372944 1.917236
v -0.611346 0.372944 1.917236
v 0.611346 -0.000000 1.917236
v -0.611346 -0.000000 1.917236
v -0.611346 0.372944 1.568035
v 0.611346 0.372944 1.568035
v 0.611346 -0.000000 1.568035
v -0.611346 -0.000000 1.568035
v 0.611346 0.677844 1.218838
v -0.611346 0.677844 1.218838
v -0.611346 0.677844 1.568035
v 0.611346 0.677844 1.568035
v 1.572114 -0.000000 -1.917233
v -1.572114 -0.000000 -1.917233
v 1.572114 1.230473 -1.917233
v -1.572114 1.230473 -1.917233
v 1.572114 1.230473 1.226994
v -1.572114 1.230473 1.226994
v 1.572114 -0.000000 1.226994
v -1.572114 -0.000000 1.226994
v 1.469329 1.230473 -1.814453
v -1.469329 1.230473 -1.814453
v -1.469329 1.230473 1.124210
v 1.469329 1.230473 1.124210
v 1.469329 1.362195 -1.814453
v -1.469329 1.362195 -1.814453
v -1.469329 1.362195 1.124210
v 1.469329 1.362195 1.124210
v 1.269734 1.362195 -1.614857
v -1.269734 1.362195 -1.614857
v -1.269734 1.362195 0.924614
v 1.269734 1.362195 0.924614
v 1.269734 1.283245 -1.614857
v -1.269734 1.283245 -1.614857
v -1.269734 1.283245 0.924614
v 1.269734 1.283245 0.924614
v 0.000000 1.230473 1.226994
v 0.000000 -0.000000 1.226994
v -0.000000 -0.000000 -1.917233
v -0.000000 1.230473 -1.917233
v -0.000000 1.230473 -1.814453
v -0.000000 1.362195 -1.814453
v -0.000000 1.362195 -1.614857
v -0.000000 1.283245 -1.614857
v 0.000000 1.283245 0.924614
v 0.000000 1.362195 0.924614
v 0.000000 1.362195 1.124210
v 0.000000 1.230473 1.124210
v 1.572114 1.230473 -0.345119
v 1.572114 -0.000000 -0.345119
v -0.000000 -0.000000 -0.345119
v -1.572114 -0.000000 -0.345119
v -1.572114 1.230473 -0.345119
v -1.469329 1.230473 -0.345119
v -1.469329 1.362195 -0.345119
v -1.269734 1.362195 -0.345119
v -1.269734 1.283245 -0.345119
v -0.000000 1.283245 -0.345119
v 1.269734 1.283245 -0.345119
v 1.269734 1.362195 -0.345119
v 1.469329 1.362195 -0.345119
v 1.469329 1.230473 -0.345119
vt 0.760488 0.225532
vt 0.765686 0.226881
vt 0.765491 0.226837
vt 0.786809 0.226726
vt 0.815905 0.229029
vt 0.765491 0.226925
vt 0.787811 0.228037
vt 0.764651 0.225532
vt 0.764651 0.225688
vt 0.758406 0.225532
vt 0.758406 0.225688
vt 0.787811 0.226071
vt 0.759447 0.225688
vt 0.760488 0.225767
vt 0.765491 0.226947
vt 0.765686 0.226947
vt 0.817062 0.224538
vt 0.762569 0.225688
vt 0.787811 0.226071
vt 0.760488 0.225767
vt 0.810359 0.226910
vt 0.811455 0.226910
vt 0.993710 0.037756
vt 0.926202 0.017553
vt 0.940899 0.011305
vt 0.932908 0.010846
vt 0.810359 0.229054
vt 0.764112 0.189059
vt 0.763016 0.176339
vt 0.764112 0.176339
vt 0.925283 0.016175
vt 0.948983 0.018012
vt 0.942277 0.011305
vt 0.931990 0.009468
vt 0.969833 0.017093
vt 0.976540 0.017093
vt 0.969833 0.010387
vt 0.926202 0.017553
vt 0.947605 0.018012
vt 0.940899 0.011305
vt 0.932908 0.010846
vt 0.947605 0.018012
vt 0.993710 0.031446
vt 0.987400 0.031446
vt 0.987400 0.037756
vt 0.932908 0.017553
vt 0.947605 0.011305
vt 0.926202 0.010846
vt 0.976540 0.010387
vt 0.947605 0.011305
vt 0.940899 0.018012
vt 0.969833 0.010387
vt 0.926202 0.010846
vt 0.969833 0.017093
vt 0.940899 0.018012
vt 0.976540 0.017093
vt 0.932908 0.017553
vt 0.931990 0.009468
vt 0.948983 0.011305
vt 0.976540 0.010387
vt 0.942277 0.011305
vt 0.925283 0.009468
vt 0.925283 0.016175
vt 0.942277 0.018012
vt 0.948983 0.018012
vt 0.931990 0.016175
vt 0.948983 0.011305
vt 0.810359 0.229054
vt 0.925283 0.009468
vt 0.810359 0.226910
vt 0.942277 0.018012
vt 0.811455 0.226910
vt 0.931990 0.016175
vt 0.811455 0.229054
vt 0.811455 0.229054
vt 0.763016 0.189059
vt 0.765491 0.226837
vt 0.817062 0.226784
vt 0.815905 0.226784
vt 0.815905 0.224538
vt 0.815905 0.226784
vt 0.817062 0.226784
vt 0.817062 0.229029
vt 0.787811 0.226726
vt 0.762569 0.225767
vt 0.786809 0.226071
vt 0.786809 0.226071
vt 0.762569 0.225767
vt 0.765686 0.226925
vt 0.786809 0.228037
vt 0.760488 0.225688
vt 0.765686 0.226837
vt 0.763610 0.225688
vt 0.762569 0.225688
vt 0.765686 0.226837
vt 0.760488 0.225688
vt 0.763610 0.225532
vt 0.762569 0.225532
vt 0.759447 0.225532
vt 0.765491 0.226881
vt 0.781742 0.244043
vt 0.781736 0.151732
vt 0.784920 0.151732
vt 0.784914 0.244043
vt 0.781742 0.244043
vt 0.781742 0.151812
vt 0.784914 0.151812
vt 0.784914 0.244043
vt 0.761469 0.244043
vt 0.761464 0.151732
vt 0.764648 0.151732
vt 0.764642 0.244043
vt 0.761469 0.244043
vt 0.761469 0.151812
vt 0.764642 0.151812
vt 0.764642 0.244043
vt 0.781742 0.244043
vt 0.810907 0.229054
vt 0.763564 0.189059
vt 0.784914 0.244043
vt 0.781736 0.244122
vt 0.763564 0.176339
vt 0.810907 0.226910
vt 0.784920 0.244123
vt 0.945630 0.018012
vt 0.810907 0.226910
vt 0.973187 0.017093
vt 0.945630 0.018012
vt 0.944252 0.018012
vt 0.973187 0.017093
vt 0.990555 0.037756
vt 0.944252 0.018012
vt 0.944252 0.011305
vt 0.990555 0.031446
vt 0.973187 0.010387
vt 0.944252 0.011305
vt 0.945630 0.011305
vt 0.973187 0.010387
vt 0.810907 0.229054
vt 0.945630 0.011305
vt 0.764642 0.151812
vt 0.811455 0.227982
vt 0.761469 0.151812
vt 0.764112 0.182699
vt 0.763564 0.182699
vt 0.763016 0.182699
vt 0.761464 0.244122
vt 0.810359 0.227982
vt 0.764648 0.244123
vt 0.925283 0.012821
vt 0.810359 0.227982
vt 0.969833 0.013740
vt 0.925283 0.012821
vt 0.926202 0.014199
vt 0.969833 0.013740
vt 0.987400 0.034601
vt 0.926202 0.014199
vt 0.990555 0.034601
vt 0.932908 0.014199
vt 0.993710 0.034601
vt 0.976540 0.013740
vt 0.932908 0.014199
vt 0.931990 0.012821
vt 0.976540 0.013740
vt 0.811455 0.227982
vt 0.931990 0.012821
vt 0.781742 0.151812
vt 0.784914 0.151812
vt 0.781742 0.151812
vt 0.784914 0.151812
vt 0.761469 0.151812
vt 0.764642 0.151812
vt 0.761469 0.244043
vt 0.764642 0.244043
vn 0.000000 0.000000 -1.000000
vn 0.000000 0.000000 -1.000000
vn 0.000000 0.000000 -1.000000
vn 0.000000 0.000000 -1.000000
vn 0.000000 0.000000 -1.000000
vn 0.000000 0.000000 -1.000000
vn 0.000000 1.000000 0.000000
vn 0.000000 1.000000 0.000000
vn 0.000000 1.000000 0.000000
vn 0.000000 1.000000 0.000000
vn 0.000000 1.000000 0.000000
vn 0.000000 1.000000 0.000000
vn 0.000000 0.000000 1.000000
vn 0.000000 0.000000 1.000000
vn 0.000000 0.000000 1.000000
vn 0.000000 0.000000 1.000000
vn 0.000000 0.000000 1.000000
vn 0.000000 0.000000 1.000000
vn 0.000000 -1.000000 0.000000
vn 0.000000 -1.000000 0.000000
vn 0.000000 -1.000000 0.000000
vn 0.000000 -1.000000 0.000000
vn 0.000000 -1.000000 0.000000
vn 0.000000 -1.000000 0.000000
vn -1.000000 0.000000 0.000000
vn -1.000000 0.000000 0.000000
vn -1.000000 0.000000 0.000000
vn -1.000000 0.000000 0.000000
vn -1.000000 0.000000 0.000000
vn -1.000000 0.000000 0.000000
vn 1.000000 0.000000 0.000000
vn 1.000000 0.000000 0.000000
vn 1.000000 0.000000 0.000000
vn 1.000000 0.000000 0.000000
vn 1.000000 0.000000 0.000000
vn 1.000000 0.000000 0.000000
vn 0.000000 1.000000 0.000000
vn 0.000000 1.000000 0.000000
vn 0.000000 1.000000 0.000000
vn 0.000000 1.000000 0.000000
vn 0.000000 1.000000 0.000000
vn 0.000000 1.000000 0.000000
vn 1.000000 0.000000 0.000000
vn 1.000000 0.000000 0.000000
vn 1.000000 0.000000 0.000000
vn 1.000000 0.000000 0.000000
vn 1.000000 0.000000 0.000000
vn 1.000000 0.000000 0.000000
vn 0.000000 -1.000000 0.000000
vn 0.000000 -1.000000 0.000000
vn 0.000000 -1.000000 0.000000
vn 0.000000 -1.000000 0.000000
vn 0.000000 -1.000000 0.000000
vn 0.000000 -1.000000 0.000000
vn -1.000000 0.000000 0.000000
vn -1.000000 0.000000 0.000000
vn -1.000000 0.000000 0.000000
vn -1.000000 0.000000 0.000000
vn -1.000000 0.000000 0.000000
vn -1.000000 0.000000 0.000000
vn 0.000000 0.000000 -1.000000
vn 0.000000 0.000000 -1.000000
vn 0.000000 0.000000 -1.000000
vn 0.000000 0.000000 -1.000000
vn 0.000000 0.000000 -1.000000
vn 0.000000 0.000000 -1.000000
vn -1.000000 0.000000 0.000000
vn -1.000000 0.000000 0.000000
vn -1.000000 0.000000 0.000000
vn -1.000000 0.000000 0.000000
vn -1.000000 0.000000 0.000000
vn -1.000000 0.000000 0.000000
vn 0.000000 0.000000 1.000000
vn 0.000000 0.000000 1.000000
vn 0.000000 0.000000 1.000000
vn 0.000000 0.000000 1.000000
vn 0.000000 0.000000 1.000000
vn 0.000000 0.000000 1.000000
vn 1.000000 0.000000 0.000000
vn 1.000000 0.000000 0.000000
vn 1.000000 0.000000 0.000000
vn 1.000000 0.000000 0.000000
vn 1.000000 0.000000 0.000000
vn 1.000000 0.000000 0.000000
vn 0.000000 0.000000 -1.000000
vn 0.000000 0.000000 -1.000000
vn 0.000000 0.000000 -1.000000
vn 0.000000 0.000000 -1.000000
vn 0.000000 0.000000 -1.000000
vn 0.000000 0.000000 -1.000000
vn 0.000000 1.000000 0.000000
vn 0.000000 1.000000 0.000000
vn 0.000000 1.000000 0.000000
vn 0.000000 1.000000 0.000000
vn 0.000000 1.000000 0.000000
vn 0.000000 1.000000 0.000000
vn 0.000000 0.000000 1.000000
vn 0.000000 0.000000 1.000000
vn 0.000000 0.000000 1.000000
vn 0.000000 0.000000 1.000000
vn 0.000000 0.000000 1.000000
vn 0.000000 0.000000 1.000000
vn 0.000000 -1.000000 0.000000
vn 0.000000 -1.000000 0.000000
vn 0.000000 -1.000000 0.000000
vn 0.000000 -1.000000 0.000000
vn 0.000000 -1.000000 0.000000
vn 0.000000 -1.000000 0.000000
vn -1.000000 0.000000 0.000000
vn -1.000000 0.000000 0.000000
vn -1.000000 0.000000 0.000000
vn -1.000000 0.000000 0.000000
vn -1.000000 0.000000 0.000000
vn -1.000000 0.000000 0.000000
vn 1.000000 0.000000 0.000000
vn 1.000000 0.000000 0.000000
vn 1.000000 0.000000 0.000000
vn 1.000000 0.000000 0.000000
vn 1.000000 0.000000 0.000000
vn 1.000000 0.000000 0.000000
vn 0.000000 1.000000 -0.000001
vn 0.000000 1.000000 -0.000001
vn 0.000000 1.000000 -0.000001
vn 0.000000 1.000000 0.000000
vn 0.000000 1.000000 0.000000
vn 0.000000 1.000000 0.000000
vn 0.000000 1.000000 0.000000
vn 0.000000 1.000000 0.000000
vn 0.000000 1.000000 0.000000
vn 0.000000 1.000000 0.000000
vn 0.000000 1.000000 0.000000
vn 0.000000 1.000000 0.000000
vn 0.000000 1.000000 0.000000
vn 0.000000 1.000000 0.000000
vn 0.000000 1.000000 0.000000
vn 0.000000 1.000000 0.000001
vn 0.000000 1.000000 0.000001
vn 0.000000 1.000000 0.000001
vn 0.000000 1.000000 0.000000
vn 0.000000 1.000000 0.000000
vn 0.000000 1.000000 0.000000
vn 0.000000 1.000000 0.000000
vn 0.000000 1.000000 0.000000
vn 0.000000 1.000000 0.000000
vn 0.000000 0.000000 -1.000000
vn 0.000000 0.000000 -1.000000
vn 0.000000 0.000000 -1.000000
vn 0.000000 0.000000 -1.000000
vn 0.000000 0.000000 -1.000000
vn 0.000000 0.000000 -1.000000
vn -1.000000 0.000000 0.000000
vn -1.000000 0.000000 0.000000
vn -1.000000 0.000000 0.000000
vn -1.000000 0.000000 0.000000
vn -1.000000 0.000000 0.000000
vn -1.000000 0.000000 0.000000
vn 0.000000 0.000000 1.000000
vn 0.000000 0.000000 1.000000
vn 0.000000 0.000000 1.000000
vn 0.000000 0.000000 1.000000
vn 0.000000 0.000000 1.000000
vn 0.000000 0.000000 1.000000
vn 1.000000 0.000000 0.000000
vn 1.000000 0.000000 0.000000
vn 1.000000 0.000000 0.000000
vn 1.000000 0.000000 0.000000
vn 1.000000 0.000000 0.000000
vn 1.000000 0.000000 0.000000
vn 0.000000 1.000000 0.000000
vn 0.000000 1.000000 0.000000
vn 0.000000 1.000000 0.000000
vn 0.000000 1.000000 0.000000
vn 0.000000 1.000000 0.000000
vn 0.000000 1.000000 0.000000
vn 0.000000 1.000000 0.000000
vn 0.000000 1.000000 0.000000
vn 0.000000 1.000000 0.000000
vn 0.000000 1.000000 0.000000
vn 0.000000 1.000000 0.000000
vn 0.000000 1.000000 0.000000
vn 0.000000 1.000000 0.000000
vn 0.000000 1.000000 0.000000
vn 0.000000 1.000000 0.000000
vn 0.000000 1.000000 -0.000000
vn 0.000000 1.000000 -0.000000
vn 0.000000 1.000000 -0.000000
vn 0.000000 1.000000 0.000000
vn 0.000000 1.000000 0.000000
vn 0.000000 1.000000 0.000000
vn 0.000000 1.000000 0.000000
vn 0.000000 1.000000 0.000000
vn 0.000000 1.000000 0.000000
vn 0.000000 0.000000 1.000000
vn 0.000000 0.000000 1.000000
vn 0.000000 0.000000 1.000000
vn 0.000000 0.000000 1.000000
vn 0.000000 0.000000 1.000000
vn 0.000000 0.000000 1.000000
vn 1.000000 0.000000 0.000000
vn 1.000000 0.000000 0.000000
vn 1.000000 0.000000 0.000000
vn 1.000000 0.000000 0.000000
vn 1.000000 0.000000 0.000000
vn 1.000000 0.000000 0.000000
vn 0.000000 0.000000 -1.000000
vn 0.000000 0.000000 -1.000000
vn 0.000000 0.000000 -1.000000
vn 0.000000 0.000000 -1.000000
vn 0.000000 0.000000 -1.000000
vn 0.000000 0.000000 -1.000000
vn -1.000000 0.000000 0.000000
vn -1.000000 0.000000 0.000000
vn -1.000000 0.000000 0.000000
vn -1.000000 0.000000 0.000000
vn -1.000000 0.000000 0.000000
vn -1.000000 0.000000 0.000000
vn 0.000000 0.000000 1.000000
vn 0.000000 0.000000 1.000000
vn 0.000000 0.000000 1.000000
vn 0.000000 0.000000 1.000000
vn 0.000000 0.000000 1.000000
vn 0.000000 0.000000 1.000000
vn 0.000000 -1.000000 0.000000
vn 0.000000 -1.000000 0.000000
vn 0.000000 -1.000000 0.000000
vn 0.000000 -1.000000 0.000000
vn 0.000000 -1.000000 0.000000
vn 0.000000 -1.000000 0.000000
vn 0.000000 0.000000 -1.000000
vn 0.000000 0.000000 -1.000000
vn 0.000000 0.000000 -1.000000
vn 0.000000 0.000000 -1.000000
vn 0.000000 0.000000 -1.000000
vn 0.000000 0.000000 -1.000000
vn 0.000000 1.000000 0.000000
vn 0.000000 1.000000 0.000000
vn 0.000000 1.000000 0.000000
vn 0.000000 1.000000 -0.000001
vn 0.000000 1.000000 -0.000001
vn 0.000000 1.000000 -0.000001
vn 0.000000 0.000000 -1.000000
vn 0.000000 0.000000 -1.000000
vn 0.000000 0.000000 -1.000000
vn 0.000000 0.000000 -1.000000
vn 0.000000 0.000000 -1.000000
vn 0.000000 0.000000 -1.000000
vn 0.000000 1.000000 0.000000
vn 0.000000 1.000000 0.000000
vn 0.000000 1.000000 0.000000
vn 0.000000 1.000000 0.000000
vn 0.000000 1.000000 0.000000
vn 0.000000 1.000000 0.000000
vn 0.000000 0.000000 1.000000
vn 0.000000 0.000000 1.000000
vn 0.000000 0.000000 1.000000
vn 0.000000 0.000000 1.000000
vn 0.000000 0.000000 1.000000
vn 0.000000 0.000000 1.000000
vn 0.000000 1.000000 0.000000
vn 0.000000 1.000000 0.000000
vn 0.000000 1.000000 0.000000
vn 0.000000 1.000000 0.000000
vn 0.000000 1.000000 0.000000
vn 0.000000 1.000000 0.000000
vn 0.000000 0.000000 -1.000000
vn 0.000000 0.000000 -1.000000
vn 0.000000 0.000000 -1.000000
vn 0.000000 0.000000 -1.000000
vn 0.000000 0.000000 -1.000000
vn 0.000000 0.000000 -1.000000
vn 0.000000 1.000000 0.000000
vn 0.000000 1.000000 0.000000
vn 0.000000 1.000000 0.000000
vn 0.000000 1.000000 0.000000
vn 0.000000 1.000000 0.000000
vn 0.000000 1.000000 0.000000
vn 0.000000 0.000000 1.000000
vn 0.000000 0.000000 1.000000
vn 0.000000 0.000000 1.000000
vn 0.000000 0.000000 1.000000
vn 0.000000 0.000000 1.000000
vn 0.000000 0.000000 1.000000
vn 0.000000 1.000000 0.000001
vn 0.000000 1.000000 0.000001
vn 0.000000 1.000000 0.000001
vn 0.000000 1.000000 0.000000
vn 0.000000 1.000000 0.000000
vn 0.000000 1.000000 0.000000
vn 1.000000 0.000000 0.000000
vn 1.000000 0.000000 0.000000
vn 1.000000 0.000000 0.000000
vn 1.000000 0.000000 0.000000
vn 1.000000 0.000000 0.000000
vn 1.000000 0.000000 0.000000
vn 0.000000 -1.000000 0.000000
vn 0.000000 -1.000000 0.000000
vn 0.000000 -1.000000 0.000000
vn 0.000000 -1.000000 0.000000
vn 0.000000 -1.000000 0.000000
vn 0.000000 -1.000000 0.000000
vn 0.000000 -1.000000 0.000000
vn 0.000000 -1.000000 0.000000
vn 0.000000 -1.000000 0.000000
vn 0.000000 -1.000000 0.000000
vn 0.000000 -1.000000 0.000000
vn 0.000000 -1.000000 0.000000
vn -1.000000 0.000000 0.000000
vn -1.000000 0.000000 0.000000
vn -1.000000 0.000000 0.000000
vn -1.000000 0.000000 0.000000
vn -1.000000 0.000000 0.000000
vn -1.000000 0.000000 0.000000
vn 0.000000 1.000000 0.000000
vn 0.000000 1.000000 0.000000
vn 0.000000 1.000000 0.000000
vn 0.000000 1.000000 0.000000
vn 0.000000 1.000000 0.000000
vn 0.000000 1.000000 0.000000
vn -1.000000 0.000000 0.000000
vn -1.000000 0.000000 0.000000
vn -1.000000 0.000000 0.000000
vn -1.000000 0.000000 0.000000
vn -1.000000 0.000000 0.000000
vn -1.000000 0.000000 0.000000
vn 0.000000 1.000000 0.000000
vn 0.000000 1.000000 0.000000
vn 0.000000 1.000000 0.000000
vn 0.000000 1.000000 0.000000
vn 0.000000 1.000000 0.000000
vn 0.000000 1.000000 0.000000
vn 1.000000 0.000000 0.000000
vn 1.000000 0.000000 0.000000
vn 1.000000 0.000000 0.000000
vn 1.000000 0.000000 0.000000
vn 1.000000 0.000000 0.000000
vn 1.000000 0.000000 0.000000
vn 0.000000 1.000000 0.000000
vn 0.000000 1.000000 0.000000
vn 0.000000 1.000000 0.000000
vn 0.000000 1.000000 0.000000
vn 0.000000 1.000000 0.000000
vn 0.000000 1.000000 0.000000
vn 0.000000 1.000000 0.000000
vn 0.000000 1.000000 0.000000
vn 0.000000 1.000000 0.000000
vn 0.000000 1.000000 0.000000
vn 0.000000 1.000000 0.000000
vn 0.000000 1.000000 0.000000
vn -1.000000 0.000000 0.000000
vn -1.000000 0.000000 0.000000
vn -1.000000 0.000000 0.000000
vn -1.000000 0.000000 0.000000
vn -1.000000 0.000000 0.000000
vn -1.000000 0.000000 0.000000
vn 0.000000 1.000000 0.000000
vn 0.000000 1.000000 0.000000
vn 0.000000 1.000000 0.000000
vn 0.000000 1.000000 0.000000
vn 0.000000 1.000000 0.000000
vn 0.000000 1.000000 0.000000
vn 1.000000 0.000000 0.000000
vn 1.000000 0.000000 0.000000
vn 1.000000 0.000000 0.000000
vn 1.000000 0.000000 0.000000
vn 1.000000 0.000000 0.000000
vn 1.000000 0.000000 0.000000
vn 0.000000 1.000000 0.000000
vn 0.000000 1.000000 0.000000
vn 0.000000 1.000000 0.000000
vn 0.000000 1.000000 0.000000
vn 0.000000 1.000000 0.000000
vn 0.000000 1.000000 0.000000
s off
f 1/100/1 2/2/2 3/3/3
f 3/3/4 2/2/5 4/95/6
f 13/17/7 14/80/8 16/78/9
f 16/78/10 14/80/11 15/79/12
f 5/4/13 6/84/14 7/90/15
f 7/90/16 6/84/17 8/7/18
f 11/15/19 12/16/20 1/100/21
f 1/100/22 12/16/23 2/2/24
f 2/98/25 12/97/26 4/94/27
f 4/94/28 12/97/29 9/93/30
f 11/99/31 1/1/32 10/13/33
f 10/13/34 1/1/35 3/96/36
f 10/82/37 9/81/38 5/83/39
f 5/83/40 9/81/41 6/5/42
f 7/10/43 11/99/44 5/11/45
f 5/11/46 11/99/47 10/13/48
f 7/6/49 8/89/50 11/15/51
f 11/15/52 8/89/53 12/16/54
f 9/93/55 12/97/56 6/9/57
f 6/9/58 12/97/59 8/8/60
f 3/3/61 4/95/62 13/77/63
f 13/77/64 4/95/65 14/92/66
f 4/94/67 9/88/68 14/18/69
f 14/18/70 9/88/71 15/85/72
f 9/12/73 10/87/74 15/19/75
f 15/19/76 10/87/77 16/86/78
f 10/14/79 3/96/80 16/20/81
f 16/20/82 3/96/83 13/91/84
f 17/101/85 43/167/86 19/104/87
f 19/104/88 43/167/89 44/168/90
f 37/23/91 48/131/92 63/160/93
f 63/160/94 48/131/95 62/158/96
f 21/105/97 41/169/98 23/108/99
f 23/108/100 41/169/101 42/170/102
f 54/144/103 55/145/104 17/30/105
f 17/30/106 55/145/107 43/122/108
f 18/109/109 56/171/110 20/112/111
f 20/112/112 56/171/113 57/172/114
f 54/173/115 17/114/116 53/174/117
f 53/174/118 17/114/119 19/115/120
f 19/22/121 44/123/122 25/72/123
f 25/72/124 44/123/125 45/126/126
f 20/21/127 57/148/128 26/70/129
f 26/70/130 57/148/131 58/151/132
f 52/139/133 41/118/134 28/74/135
f 28/74/136 41/118/137 21/75/138
f 66/165/139 53/142/140 25/72/141
f 25/72/142 53/142/143 19/22/144
f 25/32/145 45/125/146 29/65/147
f 29/65/148 45/125/149 46/128/150
f 26/31/151 58/150/152 30/63/153
f 30/63/154 58/150/155 59/153/156
f 52/140/157 28/67/158 51/137/159
f 51/137/160 28/67/161 32/59/162
f 66/166/163 25/73/164 65/163/165
f 65/163/166 25/73/167 29/66/168
f 29/36/169 46/127/170 33/56/171
f 33/56/172 46/127/173 47/130/174
f 30/35/175 59/152/176 34/54/177
f 34/54/178 59/152/179 60/155/180
f 32/60/181 36/49/182 51/138/183
f 51/138/184 36/49/185 50/135/186
f 29/36/187 33/56/188 65/164/189
f 65/164/190 33/56/191 64/161/192
f 33/39/193 47/129/194 37/42/195
f 37/42/196 47/129/197 48/132/198
f 34/38/199 60/154/200 38/24/201
f 38/24/202 60/154/203 61/157/204
f 50/136/205 36/50/206 49/133/207
f 49/133/208 36/50/209 40/47/210
f 64/162/211 33/57/212 63/159/213
f 63/159/214 33/57/215 37/46/216
f 41/117/217 22/106/218 42/120/219
f 42/120/220 22/106/221 24/107/222
f 43/122/223 55/145/224 18/29/225
f 18/29/226 55/145/227 56/146/228
f 44/124/229 43/121/230 20/103/231
f 20/103/232 43/121/233 18/102/234
f 45/126/235 44/123/236 26/70/237
f 26/70/238 44/123/239 20/21/240
f 46/128/241 45/125/242 30/64/243
f 30/64/244 45/125/245 26/71/246
f 47/130/247 46/127/248 34/54/249
f 34/54/250 46/127/251 30/35/252
f 48/132/253 47/129/254 38/51/255
f 38/51/256 47/129/257 34/55/258
f 62/158/259 48/131/260 61/156/261
f 61/156/262 48/131/263 38/45/264
f 35/40/265 50/136/266 39/25/267
f 39/25/268 50/136/269 49/133/270
f 31/37/271 51/138/272 35/52/273
f 35/52/274 51/138/275 50/135/276
f 27/33/277 52/140/278 31/61/279
f 31/61/280 52/140/281 51/137/282
f 22/27/283 41/118/284 27/68/285
f 27/68/286 41/118/287 52/139/288
f 23/113/289 54/143/290 21/116/291
f 21/116/292 54/143/293 53/141/294
f 23/28/295 42/119/296 54/144/297
f 54/144/298 42/119/299 55/145/300
f 56/146/301 55/145/302 24/76/303
f 24/76/304 55/145/305 42/119/306
f 57/149/307 56/147/308 22/111/309
f 22/111/310 56/147/311 24/110/312
f 58/151/313 57/148/314 27/68/315
f 27/68/316 57/148/317 22/27/318
f 59/153/319 58/150/320 31/62/321
f 31/62/322 58/150/323 27/69/324
f 60/155/325 59/152/326 35/52/327
f 35/52/328 59/152/329 31/37/330
f 61/157/331 60/154/332 39/48/333
f 39/48/334 60/154/335 35/53/336
f 49/134/337 62/158/338 39/44/339
f 39/44/340 62/158/341 61/156/342
f 63/160/343 62/158/344 40/43/345
f 40/43/346 62/158/347 49/134/348
f 36/41/349 64/162/350 40/26/351
f 40/26/352 64/162/353 63/159/354
f 32/60/355 65/164/356 36/49/357
f 36/49/358 65/164/359 64/161/360
f 28/34/361 66/166/362 32/58/363
f 32/58/364 66/166/365 65/163/366
f 21/75/367 53/142/368 28/74/369
f 28/74/370 53/142/371 66/165/372
