# This file uses centimeters as units for non-parametric coordinates.

v -0.997196 2.348004 2.332695
v -0.268478 2.348004 2.332695
v -0.268482 2.348004 1.603973
v -0.997196 2.348004 1.603973
v -1.118053 2.348004 2.453548
v -0.147625 2.348004 2.453548
v -0.147625 2.348004 1.483120
v -1.118053 2.348004 1.483120
v -1.118053 2.624806 2.453548
v -0.147625 2.624806 2.453548
v -0.147625 2.624806 1.483120
v -1.118053 2.624806 1.483120
v -0.941242 2.624806 2.276737
v -0.324436 2.624806 2.276737
v -0.324436 2.624806 1.659931
v -0.941242 2.624806 1.659931
v -0.941242 2.767958 2.276737
v -0.324436 2.767958 2.276737
v -0.324436 2.767958 1.659931
v -0.941242 2.767958 1.659931
v -0.997196 -1.700857 2.332691
v -0.268482 -1.700857 2.332691
v -0.268482 -1.700857 1.603973
v -0.997196 -1.700857 1.603973
v -0.763210 -2.195587 1.603973
v -0.763210 -2.195586 2.332695
v 0.246399 -2.429569 1.603977
v -0.268482 -2.429569 1.603977
v 0.246399 -1.700855 1.603977
v -0.268482 -1.700855 1.603977
v 0.246399 -1.700855 2.332695
v -0.268482 -1.700855 2.332695
v 0.246399 -2.429569 2.332695
v -0.268482 -2.429569 2.332695
v -0.234028 1.620184 1.442841
v 0.000000 1.620186 2.493824
v 0.000000 1.332758 2.493824
v -0.234028 1.332758 2.493824
v -0.234028 1.620186 2.493824
v -0.234028 1.556666 2.454269
v -0.234028 1.396281 2.454269
v -1.121677 1.556666 2.454269
v -1.121677 1.396281 2.454269
v 0.000000 1.620184 1.442841
v 0.000000 1.332758 1.442841
v -0.234028 1.332758 1.442841
v -0.234028 1.556666 1.482395
v -0.234028 1.396281 1.482395
v -1.121677 1.556666 1.482395
v -1.121677 1.396281 1.482399
v -0.234028 -1.188091 1.442841
v 0.246399 -1.188089 2.493824
v 0.246399 -1.475515 2.493824
v -0.234028 -1.475515 2.493824
v -0.234028 -1.188089 2.493824
v -0.234028 -1.251610 2.454269
v -0.234028 -1.411995 2.454269
v -1.121677 -1.251610 2.454269
v -1.121677 -1.411995 2.454269
v 0.246399 -1.188091 1.442841
v 0.246399 -1.475515 1.442841
v -0.234028 -1.475515 1.442841
v -0.234028 -1.251610 1.482395
v -0.234028 -1.411995 1.482395
v -1.121677 -1.251610 1.482395
v -1.121677 -1.411995 1.482399
vt 0.053073 0.729366
vt 0.053073 0.729366
vt 0.075402 0.503819
vt 0.074994 0.503819
vt 0.074927 0.503751
vt 0.075470 0.503751
vt 0.074994 0.504227
vt 0.074927 0.504294
vt 0.075402 0.504227
vt 0.075470 0.504294
vt 0.073276 0.529916
vt 0.073276 0.530991
vt 0.072451 0.530991
vt 0.072451 0.529916
vt 0.074940 0.512819
vt 0.074940 0.513499
vt 0.074418 0.513499
vt 0.074418 0.512819
vt 0.074193 0.530991
vt 0.074193 0.529916
vt 0.075018 0.529916
vt 0.075018 0.530991
vt 0.075520 0.513499
vt 0.075520 0.512819
vt 0.076041 0.512819
vt 0.076041 0.513499
vt 0.075992 0.523178
vt 0.073697 0.523178
vt 0.074115 0.522947
vt 0.075573 0.522947
vt 0.073697 0.521911
vt 0.074115 0.522142
vt 0.075992 0.521911
vt 0.075573 0.522142
vt 0.074661 0.529950
vt 0.074661 0.530757
vt 0.074252 0.530757
vt 0.074252 0.529950
vt 0.074663 0.512874
vt 0.074663 0.513384
vt 0.074404 0.513384
vt 0.074404 0.512874
vt 0.074676 0.530775
vt 0.074676 0.529969
vt 0.075086 0.529969
vt 0.075086 0.530775
vt 0.074688 0.513384
vt 0.074688 0.512874
vt 0.074947 0.512874
vt 0.074947 0.513384
vt 0.075560 0.522134
vt 0.075560 0.522939
vt 0.074101 0.522939
vt 0.074101 0.522134
vt 0.053068 0.919131
vt 0.053068 0.542284
vt 0.053068 0.542284
vt 0.053068 0.919131
vt 0.059755 0.919131
vt 0.059755 0.542284
vt 0.059755 0.542284
vt 0.059755 0.919131
vt 0.053068 0.919131
vt 0.053068 0.542284
vt 0.053068 0.542284
vt 0.053068 0.919131
vt 0.059755 0.919131
vt 0.059755 0.542284
vt 0.059755 0.542284
vt 0.059755 0.919131
vt 0.053008 0.643564
vt 0.053008 0.643564
vt 0.053008 0.643564
vt 0.053008 0.643564
vt 0.053008 0.643564
vt 0.053008 0.643564
vt 0.053008 0.643564
vt 0.053008 0.643564
vt 0.053008 0.643564
vt 0.053008 0.643564
vt 0.053008 0.643564
vt 0.053008 0.643564
vt 0.053008 0.643564
vt 0.053008 0.643564
vt 0.053008 0.643564
vt 0.053008 0.643564
vt 0.053073 0.729366
vt 0.053073 0.729366
vt 0.059750 0.726422
vt 0.059750 0.726422
vt 0.059750 0.726422
vt 0.059750 0.726422
vt 0.059750 0.726422
vt 0.059750 0.726422
vt 0.059750 0.726422
vt 0.059750 0.726422
vt 0.059750 0.726422
vt 0.059750 0.726422
vt 0.074932 0.523175
vt 0.076107 0.523175
vt 0.076107 0.522168
vt 0.074932 0.522168
vt 0.075671 0.529042
vt 0.075497 0.529042
vt 0.075497 0.529042
vt 0.075671 0.529042
vt 0.075471 0.530551
vt 0.075471 0.529042
vt 0.075298 0.529042
vt 0.075298 0.529042
vt 0.076214 0.504828
vt 0.077102 0.504828
vt 0.076410 0.504795
vt 0.076906 0.504814
vt 0.077102 0.503030
vt 0.076990 0.504055
vt 0.075568 0.522745
vt 0.075568 0.522434
vt 0.075511 0.522434
vt 0.075511 0.522745
vt 0.074932 0.523175
vt 0.074932 0.522168
vt 0.076107 0.522168
vt 0.076107 0.523175
vt 0.076410 0.504776
vt 0.076410 0.504814
vt 0.076214 0.504828
vt 0.076320 0.504800
vt 0.077102 0.503929
vt 0.076906 0.504814
vt 0.075568 0.522745
vt 0.075511 0.522745
vt 0.075511 0.522434
vt 0.075568 0.522434
vt 0.074485 0.531298
vt 0.074435 0.531298
vt 0.074435 0.530850
vt 0.074435 0.530850
vt 0.075568 0.522745
vt 0.075568 0.522434
vt 0.075511 0.522434
vt 0.075511 0.522745
vt 0.074305 0.530402
vt 0.074305 0.530850
vt 0.074305 0.530402
vt 0.074355 0.530402
vt 0.074932 0.523175
vt 0.076107 0.523175
vt 0.076107 0.522168
vt 0.074932 0.522168
vt 0.075671 0.529042
vt 0.075497 0.529042
vt 0.075497 0.529042
vt 0.075671 0.529042
vt 0.075471 0.530551
vt 0.075471 0.529042
vt 0.075298 0.529042
vt 0.075298 0.529042
vt 0.076214 0.504828
vt 0.077102 0.504828
vt 0.076410 0.504795
vt 0.076906 0.504814
vt 0.077102 0.503030
vt 0.076990 0.504055
vt 0.075568 0.522745
vt 0.075568 0.522434
vt 0.075511 0.522434
vt 0.075511 0.522745
vt 0.074932 0.523175
vt 0.074932 0.522168
vt 0.076107 0.522168
vt 0.076107 0.523175
vt 0.076410 0.504776
vt 0.076410 0.504814
vt 0.076214 0.504828
vt 0.076320 0.504800
vt 0.077102 0.503929
vt 0.076906 0.504814
vt 0.075568 0.522745
vt 0.075511 0.522745
vt 0.075511 0.522434
vt 0.075568 0.522434
vt 0.074485 0.531298
vt 0.074435 0.531298
vt 0.074435 0.530850
vt 0.074435 0.530850
vt 0.075568 0.522745
vt 0.075568 0.522434
vt 0.075511 0.522434
vt 0.075511 0.522745
vt 0.074305 0.530402
vt 0.074305 0.530850
vt 0.074305 0.530402
vt 0.074355 0.530402
vn 0.000000 -1.000000 0.000001
vn 0.000000 -1.000000 0.000001
vn 0.000000 -1.000000 0.000001
vn 0.000000 -1.000000 -0.000004
vn 0.000000 -1.000000 -0.000004
vn 0.000000 -1.000000 -0.000004
vn 0.000000 -1.000000 0.000000
vn 0.000000 -1.000000 0.000000
vn 0.000000 -1.000000 0.000000
vn 0.000000 -1.000000 0.000000
vn 0.000000 -1.000000 0.000000
vn 0.000000 -1.000000 0.000000
vn 0.000000 -1.000000 0.000001
vn 0.000000 -1.000000 0.000001
vn 0.000000 -1.000000 0.000001
vn 0.000000 -1.000000 0.000000
vn 0.000000 -1.000000 0.000000
vn 0.000000 -1.000000 0.000000
vn 0.000000 -1.000000 0.000000
vn 0.000000 -1.000000 0.000000
vn 0.000000 -1.000000 0.000000
vn 0.000000 -1.000000 0.000000
vn 0.000000 -1.000000 0.000000
vn 0.000000 -1.000000 0.000000
vn 0.000000 0.000000 1.000000
vn 0.000000 0.000000 1.000000
vn 0.000000 0.000000 1.000000
vn 0.000000 0.000000 1.000000
vn 0.000000 0.000000 1.000000
vn 0.000000 0.000000 1.000000
vn 1.000000 0.000000 0.000000
vn 1.000000 0.000000 0.000000
vn 1.000000 0.000000 0.000000
vn 1.000000 0.000000 0.000000
vn 1.000000 0.000000 0.000000
vn 1.000000 0.000000 0.000000
vn 0.000000 0.000000 -1.000000
vn 0.000000 0.000000 -1.000000
vn 0.000000 0.000000 -1.000000
vn 0.000000 0.000000 -1.000000
vn 0.000000 0.000000 -1.000000
vn 0.000000 0.000000 -1.000000
vn -1.000000 0.000000 0.000000
vn -1.000000 0.000000 0.000000
vn -1.000000 0.000000 0.000000
vn -1.000000 0.000000 0.000000
vn -1.000000 0.000000 0.000000
vn -1.000000 0.000000 0.000000
vn 0.000000 1.000000 -0.000000
vn 0.000000 1.000000 -0.000000
vn 0.000000 1.000000 -0.000000
vn 0.000000 1.000000 0.000002
vn 0.000000 1.000000 0.000002
vn 0.000000 1.000000 0.000002
vn 0.000000 1.000000 0.000000
vn 0.000000 1.000000 0.000000
vn 0.000000 1.000000 0.000000
vn 0.000000 1.000000 0.000000
vn 0.000000 1.000000 0.000000
vn 0.000000 1.000000 0.000000
vn 0.000000 1.000000 0.000000
vn 0.000000 1.000000 0.000000
vn 0.000000 1.000000 0.000000
vn 0.000000 1.000000 -0.000002
vn 0.000000 1.000000 -0.000002
vn 0.000000 1.000000 -0.000002
vn 0.000000 1.000000 0.000000
vn 0.000000 1.000000 0.000000
vn 0.000000 1.000000 0.000000
vn 0.000000 1.000000 0.000000
vn 0.000000 1.000000 0.000000
vn 0.000000 1.000000 0.000000
vn 0.000000 0.000000 1.000000
vn 0.000000 0.000000 1.000000
vn 0.000000 0.000000 1.000000
vn 0.000000 0.000000 1.000000
vn 0.000000 0.000000 1.000000
vn 0.000000 0.000000 1.000000
vn 1.000000 0.000000 0.000000
vn 1.000000 0.000000 0.000000
vn 1.000000 0.000000 0.000000
vn 1.000000 0.000000 0.000000
vn 1.000000 0.000000 0.000000
vn 1.000000 0.000000 0.000000
vn 0.000000 0.000000 -1.000000
vn 0.000000 0.000000 -1.000000
vn 0.000000 0.000000 -1.000000
vn 0.000000 0.000000 -1.000000
vn 0.000000 0.000000 -1.000000
vn 0.000000 0.000000 -1.000000
vn -1.000000 0.000000 0.000000
vn -1.000000 0.000000 0.000000
vn -1.000000 0.000000 0.000000
vn -1.000000 0.000000 0.000000
vn -1.000000 0.000000 0.000000
vn -1.000000 0.000000 0.000000
vn 0.000000 1.000000 0.000000
vn 0.000000 1.000000 0.000000
vn 0.000000 1.000000 0.000000
vn 0.000000 1.000000 0.000000
vn 0.000000 1.000000 0.000000
vn 0.000000 1.000000 0.000000
vn 0.000000 -0.000001 1.000000
vn 0.000000 -0.000001 1.000000
vn 0.000000 -0.000001 1.000000
vn 0.000000 -0.000001 1.000000
vn 0.000000 -0.000001 1.000000
vn 0.000000 -0.000001 1.000000
vn 1.000000 -0.000001 -0.000005
vn 1.000000 -0.000001 -0.000005
vn 1.000000 -0.000001 -0.000005
vn 1.000000 0.000000 0.000000
vn 1.000000 0.000000 0.000000
vn 1.000000 0.000000 0.000000
vn 0.000000 0.000000 -1.000000
vn 0.000000 0.000000 -1.000000
vn 0.000000 0.000000 -1.000000
vn 0.000000 0.000000 -1.000000
vn 0.000000 0.000000 -1.000000
vn 0.000000 0.000000 -1.000000
vn -1.000000 0.000000 0.000000
vn -1.000000 0.000000 0.000000
vn -1.000000 0.000000 0.000000
vn -1.000000 0.000000 0.000000
vn -1.000000 0.000000 0.000000
vn -1.000000 0.000000 0.000000
vn -0.903992 -0.427550 0.000001
vn -0.903992 -0.427550 0.000001
vn -0.903992 -0.427550 0.000001
vn -0.903992 -0.427549 0.000000
vn -0.903992 -0.427549 0.000000
vn -0.903992 -0.427549 0.000000
vn 0.000000 0.000000 -1.000000
vn 0.000000 0.000000 -1.000000
vn 0.000000 0.000000 -1.000000
vn 0.000000 0.000008 1.000000
vn 0.000000 0.000008 1.000000
vn 0.000000 0.000008 1.000000
vn 0.000000 0.000000 -1.000000
vn 0.000000 0.000000 -1.000000
vn 0.000000 0.000000 -1.000000
vn 0.000000 0.000000 -1.000000
vn 0.000000 0.000000 -1.000000
vn 0.000000 0.000000 -1.000000
vn 0.000000 1.000000 0.000000
vn 0.000000 1.000000 0.000000
vn 0.000000 1.000000 0.000000
vn 0.000000 1.000000 0.000000
vn 0.000000 1.000000 0.000000
vn 0.000000 1.000000 0.000000
vn 0.000000 0.000000 1.000000
vn 0.000000 0.000000 1.000000
vn 0.000000 0.000000 1.000000
vn 0.000000 0.000000 1.000000
vn 0.000000 0.000000 1.000000
vn 0.000000 0.000000 1.000000
vn 0.000000 -1.000000 0.000000
vn 0.000000 -1.000000 0.000000
vn 0.000000 -1.000000 0.000000
vn 0.000000 -1.000000 0.000000
vn 0.000000 -1.000000 0.000000
vn 0.000000 -1.000000 0.000000
vn -0.427546 -0.903993 0.000000
vn -0.427546 -0.903994 0.000000
vn -0.427546 -0.903994 0.000000
vn -0.427545 -0.903994 0.000001
vn -0.427545 -0.903994 0.000001
vn -0.427545 -0.903994 0.000001
vn 0.000000 0.000000 1.000000
vn 0.000000 0.000000 1.000000
vn 0.000000 0.000000 1.000000
vn 0.000008 0.000000 -1.000000
vn 0.000008 0.000000 -1.000000
vn 0.000008 0.000000 -1.000000
vn 0.000000 0.000000 1.000000
vn 0.000000 0.000000 1.000000
vn 0.000000 0.000000 1.000000
vn 0.000000 0.000000 1.000000
vn 0.000000 0.000000 1.000000
vn 0.000000 0.000000 1.000000
vn 0.000000 -1.000000 -0.000000
vn 0.000000 -1.000000 -0.000000
vn 0.000000 -1.000000 -0.000000
vn 0.000000 -1.000000 0.000000
vn 0.000000 -1.000000 0.000000
vn 0.000000 -1.000000 0.000000
vn 0.000000 1.000000 -0.000002
vn 0.000000 1.000000 -0.000002
vn 0.000000 1.000000 -0.000002
vn 0.000000 1.000000 -0.000002
vn 0.000000 1.000000 -0.000002
vn 0.000000 1.000000 -0.000002
vn -1.000000 0.000000 0.000000
vn -1.000000 0.000000 0.000000
vn -1.000000 0.000000 0.000000
vn -1.000000 0.000000 0.000000
vn -1.000000 0.000000 0.000000
vn -1.000000 0.000000 0.000000
vn -1.000000 0.000000 0.000000
vn -1.000000 0.000000 0.000000
vn -1.000000 0.000000 0.000000
vn -1.000000 0.000000 0.000000
vn -1.000000 0.000000 0.000000
vn -1.000000 0.000000 0.000000
vn 0.000000 0.000000 1.000000
vn 0.000000 0.000000 1.000000
vn 0.000000 0.000000 1.000000
vn 0.000000 0.000000 1.000000
vn 0.000000 0.000000 1.000000
vn 0.000000 0.000000 1.000000
vn 0.000000 0.000000 -1.000000
vn 0.000000 0.000000 -1.000000
vn 0.000000 0.000000 -1.000000
vn 0.000000 0.000000 -1.000000
vn 0.000000 0.000000 -1.000000
vn 0.000000 0.000000 -1.000000
vn -1.000000 0.000000 0.000000
vn -1.000000 0.000000 0.000000
vn -1.000000 0.000000 0.000000
vn -1.000000 -0.000000 0.000000
vn -1.000000 -0.000000 0.000000
vn -1.000000 -0.000000 0.000000
vn -1.000000 0.000000 0.000000
vn -1.000000 0.000000 0.000000
vn -1.000000 0.000000 0.000000
vn -1.000000 0.000000 0.000000
vn -1.000000 0.000000 0.000000
vn -1.000000 0.000000 0.000000
vn 0.000000 0.000000 -1.000000
vn 0.000000 0.000000 -1.000000
vn 0.000000 0.000000 -1.000000
vn -0.000004 -0.000024 -1.000000
vn -0.000004 -0.000024 -1.000000
vn -0.000004 -0.000024 -1.000000
vn 0.000000 1.000000 0.000000
vn 0.000000 1.000000 0.000000
vn 0.000000 1.000000 0.000000
vn 0.000000 1.000000 0.000000
vn 0.000000 1.000000 0.000000
vn 0.000000 1.000000 0.000000
vn -1.000000 0.000000 0.000000
vn -1.000000 0.000000 0.000000
vn -1.000000 0.000000 0.000000
vn -1.000000 0.000000 0.000000
vn -1.000000 0.000000 0.000000
vn -1.000000 0.000000 0.000000
vn 0.000000 -1.000000 0.000000
vn 0.000000 -1.000000 0.000000
vn 0.000000 -1.000000 0.000000
vn 0.000000 -1.000000 0.000000
vn 0.000000 -1.000000 0.000000
vn 0.000000 -1.000000 0.000000
vn 0.000000 0.000000 1.000000
vn 0.000000 0.000000 1.000000
vn 0.000000 0.000000 1.000000
vn 0.000000 0.000000 1.000000
vn 0.000000 0.000000 1.000000
vn 0.000000 0.000000 1.000000
vn 0.000000 -1.000000 0.000000
vn 0.000000 -1.000000 0.000000
vn 0.000000 -1.000000 0.000000
vn 0.000000 -1.000000 0.000000
vn 0.000000 -1.000000 0.000000
vn 0.000000 -1.000000 0.000000
vn 0.000000 1.000000 -0.000002
vn 0.000000 1.000000 -0.000002
vn 0.000000 1.000000 -0.000002
vn 0.000000 1.000000 -0.000002
vn 0.000000 1.000000 -0.000002
vn 0.000000 1.000000 -0.000002
vn -1.000000 0.000000 0.000000
vn -1.000000 0.000000 0.000000
vn -1.000000 0.000000 0.000000
vn -1.000000 0.000000 0.000000
vn -1.000000 0.000000 0.000000
vn -1.000000 0.000000 0.000000
vn -1.000000 0.000000 0.000000
vn -1.000000 0.000000 0.000000
vn -1.000000 0.000000 0.000000
vn -1.000000 0.000000 0.000000
vn -1.000000 0.000000 0.000000
vn -1.000000 0.000000 0.000000
vn 0.000000 0.000000 1.000000
vn 0.000000 0.000000 1.000000
vn 0.000000 0.000000 1.000000
vn 0.000000 0.000000 1.000000
vn 0.000000 0.000000 1.000000
vn 0.000000 0.000000 1.000000
vn 0.000000 0.000000 -1.000000
vn 0.000000 0.000000 -1.000000
vn 0.000000 0.000000 -1.000000
vn 0.000000 0.000000 -1.000000
vn 0.000000 0.000000 -1.000000
vn 0.000000 0.000000 -1.000000
vn -1.000000 0.000000 0.000000
vn -1.000000 0.000000 0.000000
vn -1.000000 0.000000 0.000000
vn -1.000000 -0.000000 0.000000
vn -1.000000 -0.000000 0.000000
vn -1.000000 -0.000000 0.000000
vn -1.000000 0.000000 0.000000
vn -1.000000 0.000000 0.000000
vn -1.000000 0.000000 0.000000
vn -1.000000 0.000000 0.000000
vn -1.000000 0.000000 0.000000
vn -1.000000 0.000000 0.000000
vn 0.000000 0.000000 -1.000000
vn 0.000000 0.000000 -1.000000
vn 0.000000 0.000000 -1.000000
vn -0.000004 -0.000024 -1.000000
vn -0.000004 -0.000024 -1.000000
vn -0.000004 -0.000024 -1.000000
vn 0.000000 1.000000 0.000000
vn 0.000000 1.000000 0.000000
vn 0.000000 1.000000 0.000000
vn 0.000000 1.000000 0.000000
vn 0.000000 1.000000 0.000000
vn 0.000000 1.000000 0.000000
vn -1.000000 0.000000 0.000000
vn -1.000000 0.000000 0.000000
vn -1.000000 0.000000 0.000000
vn -1.000000 0.000000 0.000000
vn -1.000000 0.000000 0.000000
vn -1.000000 0.000000 0.000000
vn 0.000000 -1.000000 0.000000
vn 0.000000 -1.000000 0.000000
vn 0.000000 -1.000000 0.000000
vn 0.000000 -1.000000 0.000000
vn 0.000000 -1.000000 0.000000
vn 0.000000 -1.000000 0.000000
s off
f 1/3/1 2/4/2 5/6/3
f 5/6/4 2/4/5 6/5/6
f 2/4/7 3/7/8 6/5/9
f 6/5/10 3/7/11 7/8/12
f 3/7/13 4/9/14 7/8/15
f 7/8/16 4/9/17 8/10/18
f 4/9/19 1/3/20 8/10/21
f 8/10/22 1/3/23 5/6/24
f 5/11/25 6/12/26 9/14/27
f 9/14/28 6/12/29 10/13/30
f 6/15/31 7/16/32 10/18/33
f 10/18/34 7/16/35 11/17/36
f 7/19/37 8/20/38 11/22/39
f 11/22/40 8/20/41 12/21/42
f 8/23/43 5/24/44 12/26/45
f 12/26/46 5/24/47 9/25/48
f 9/27/49 10/28/50 13/30/51
f 13/30/52 10/28/53 14/29/54
f 10/28/55 11/31/56 14/29/57
f 14/29/58 11/31/59 15/32/60
f 11/31/61 12/33/62 15/32/63
f 15/32/64 12/33/65 16/34/66
f 12/33/67 9/27/68 16/34/69
f 16/34/70 9/27/71 13/30/72
f 13/35/73 14/36/74 17/38/75
f 17/38/76 14/36/77 18/37/78
f 14/39/79 15/40/80 18/42/81
f 18/42/82 15/40/83 19/41/84
f 15/43/85 16/44/86 19/46/87
f 19/46/88 16/44/89 20/45/90
f 16/47/91 13/48/92 20/50/93
f 20/50/94 13/48/95 17/49/96
f 20/51/97 17/52/98 19/54/99
f 19/54/100 17/52/101 18/53/102
f 1/55/103 21/56/104 2/58/105
f 2/58/106 21/56/107 22/57/108
f 2/59/109 22/60/110 3/62/111
f 3/62/112 22/60/113 23/61/114
f 3/63/115 23/64/116 4/66/117
f 4/66/118 23/64/119 24/65/120
f 21/69/121 1/70/122 24/68/123
f 24/68/124 1/70/125 4/67/126
f 26/92/127 21/89/128 25/91/129
f 25/91/130 21/89/131 24/90/132
f 24/71/133 23/72/134 25/73/135
f 22/74/136 21/75/137 26/76/138
f 27/77/139 28/78/140 29/80/141
f 29/80/142 28/78/143 30/79/144
f 29/87/145 30/88/146 31/1/147
f 31/1/148 30/88/149 32/2/150
f 31/82/151 32/83/152 33/85/153
f 33/85/154 32/83/155 34/84/156
f 27/96/157 33/93/158 28/95/159
f 28/95/160 33/93/161 34/94/162
f 34/94/163 26/97/164 28/95/165
f 28/95/166 26/97/167 25/98/168
f 34/84/169 32/83/170 26/86/171
f 30/79/172 28/78/173 25/81/174
f 36/99/175 39/100/176 37/102/177
f 37/102/178 39/100/179 38/101/180
f 37/103/181 38/104/182 45/106/183
f 45/106/184 38/104/185 46/105/186
f 35/107/187 39/108/188 44/110/189
f 44/110/190 39/108/191 36/109/192
f 38/111/193 39/112/194 41/113/195
f 41/113/196 39/112/197 40/114/198
f 39/112/199 35/115/200 40/114/201
f 40/114/202 35/115/203 47/116/204
f 40/117/205 42/118/206 41/120/207
f 41/120/208 42/118/209 43/119/210
f 44/121/211 45/122/212 35/124/213
f 35/124/214 45/122/215 46/123/216
f 41/125/217 48/126/218 38/128/219
f 38/128/220 48/126/221 46/127/222
f 46/127/223 48/126/224 35/129/225
f 48/126/226 47/130/227 35/129/228
f 47/131/229 48/132/230 49/134/231
f 49/134/232 48/132/233 50/133/234
f 40/135/235 47/136/236 42/138/237
f 42/138/238 47/136/239 49/137/240
f 42/139/241 49/140/242 43/142/243
f 43/142/244 49/140/245 50/141/246
f 43/143/247 50/144/248 41/146/249
f 41/146/250 50/144/251 48/145/252
f 52/147/253 55/148/254 53/150/255
f 53/150/256 55/148/257 54/149/258
f 53/151/259 54/152/260 61/154/261
f 61/154/262 54/152/263 62/153/264
f 51/155/265 55/156/266 60/158/267
f 60/158/268 55/156/269 52/157/270
f 54/159/271 55/160/272 57/161/273
f 57/161/274 55/160/275 56/162/276
f 55/160/277 51/163/278 56/162/279
f 56/162/280 51/163/281 63/164/282
f 56/165/283 58/166/284 57/168/285
f 57/168/286 58/166/287 59/167/288
f 60/169/289 61/170/290 51/172/291
f 51/172/292 61/170/293 62/171/294
f 57/173/295 64/174/296 54/176/297
f 54/176/298 64/174/299 62/175/300
f 62/175/301 64/174/302 51/177/303
f 64/174/304 63/178/305 51/177/306
f 63/179/307 64/180/308 65/182/309
f 65/182/310 64/180/311 66/181/312
f 56/183/313 63/184/314 58/186/315
f 58/186/316 63/184/317 65/185/318
f 58/187/319 65/188/320 59/190/321
f 59/190/322 65/188/323 66/189/324
f 59/191/325 66/192/326 57/194/327
f 57/194/328 66/192/329 64/193/330
