# This file uses centimeters as units for non-parametric coordinates.

v 0.761436 0.116613 0.515100
v 0.761436 0.116613 -0.515100
v 0.761436 2.090073 0.515100
v 0.761436 2.090073 -0.515100
v -0.761436 2.090073 0.515100
v -0.761421 2.090073 -0.515095
v -0.761436 0.116613 0.515100
v -0.761421 0.116613 -0.515095
v 0.720757 0.000000 0.398352
v 0.720757 0.000000 -0.398352
v 0.720757 0.116613 0.398352
v 0.720757 0.116613 -0.398352
v -0.720749 0.116613 0.398352
v -0.720741 0.116613 -0.398348
v -0.720749 0.000000 0.398352
v -0.720741 0.000000 -0.398348
v 0.761436 2.090073 0.515100
v 0.761436 2.090073 -0.515100
v -0.761421 2.090073 -0.515095
v -0.761436 2.090073 0.515100
vt 0.568317 0.814282
vt 0.570964 0.814282
vt 0.570964 0.814940
vt 0.568317 0.814940
vt 0.544169 0.765357
vt 0.544169 0.765907
vt 0.542630 0.765907
vt 0.542630 0.765357
vt 0.502691 0.752330
vt 0.580361 0.752330
vt 0.580361 0.844381
vt 0.502691 0.844381
vt 0.580361 0.844381
vt 0.580361 0.752330
vt 0.631032 0.752330
vt 0.631032 0.844381
vt 0.631032 0.752330
vt 0.631032 0.844381
vt 0.580361 0.844381
vt 0.580361 0.752330
vt 0.638987 0.778883
vt 0.638987 0.816455
vt 0.635196 0.816455
vt 0.635196 0.778883
vt 0.569320 0.814858
vt 0.570824 0.814858
vt 0.570824 0.816350
vt 0.569320 0.816350
vt 0.570940 0.814858
vt 0.572444 0.814858
vt 0.572444 0.816350
vt 0.570940 0.816350
vt 0.567660 0.817021
vt 0.567660 0.814853
vt 0.569164 0.814853
vt 0.569164 0.817021
vt 0.567544 0.814853
vt 0.567544 0.817021
vt 0.566040 0.817021
vt 0.566040 0.814853
vt 0.638987 0.778883
vt 0.638987 0.816455
vt 0.635196 0.816455
vt 0.635196 0.778883
vn 0.000000 1.000000 0.000000
vn 0.000000 1.000000 0.000000
vn 0.000000 1.000000 0.000000
vn 0.000000 1.000000 -0.000000
vn 0.000000 1.000000 -0.000000
vn 0.000000 1.000000 -0.000000
vn 0.000000 -1.000000 0.000000
vn 0.000000 -1.000000 0.000000
vn 0.000000 -1.000000 0.000000
vn 0.000000 -1.000000 -0.000000
vn 0.000000 -1.000000 -0.000000
vn 0.000000 -1.000000 -0.000000
vn -0.000004 0.000000 -1.000000
vn -0.000004 0.000000 -1.000000
vn -0.000004 0.000000 -1.000000
vn -0.000004 0.000000 -1.000000
vn -0.000004 0.000000 -1.000000
vn -0.000004 0.000000 -1.000000
vn 0.000000 0.000000 1.000000
vn 0.000000 0.000000 1.000000
vn 0.000000 0.000000 1.000000
vn 0.000000 0.000000 1.000000
vn 0.000000 0.000000 1.000000
vn 0.000000 0.000000 1.000000
vn 1.000000 0.000000 0.000000
vn 1.000000 0.000000 0.000000
vn 1.000000 0.000000 0.000000
vn 1.000000 0.000000 0.000000
vn 1.000000 0.000000 0.000000
vn 1.000000 0.000000 0.000000
vn -1.000000 0.000000 -0.000010
vn -1.000000 0.000000 -0.000010
vn -1.000000 0.000000 -0.000010
vn -1.000000 0.000000 -0.000010
vn -1.000000 0.000000 -0.000010
vn -1.000000 0.000000 -0.000010
vn -0.000003 0.000000 -1.000000
vn -0.000003 0.000000 -1.000000
vn -0.000003 0.000000 -1.000000
vn -0.000003 0.000000 -1.000000
vn -0.000003 0.000000 -1.000000
vn -0.000003 0.000000 -1.000000
vn 0.000000 0.000000 1.000000
vn 0.000000 0.000000 1.000000
vn 0.000000 0.000000 1.000000
vn 0.000000 0.000000 1.000000
vn 0.000000 0.000000 1.000000
vn 0.000000 0.000000 1.000000
vn -1.000000 0.000000 -0.000015
vn -1.000000 0.000000 -0.000015
vn -1.000000 0.000000 -0.000015
vn -1.000000 0.000000 -0.000015
vn -1.000000 0.000000 -0.000015
vn -1.000000 0.000000 -0.000015
vn 1.000000 0.000000 0.000000
vn 1.000000 0.000000 0.000000
vn 1.000000 0.000000 0.000000
vn 1.000000 0.000000 0.000000
vn 1.000000 0.000000 0.000000
vn 1.000000 0.000000 0.000000
vn 0.000000 0.000000 0.000000
vn 0.000000 0.000000 0.000000
vn 0.000000 0.000000 0.000000
vn 0.000000 0.000000 0.000000
vn 0.000000 0.000000 0.000000
vn 0.000000 0.000000 0.000000
vn 0.000000 0.000000 0.000000
vn 0.000000 0.000000 0.000000
vn 0.000000 0.000000 0.000000
vn 0.000000 0.000000 0.000000
vn 0.000000 0.000000 0.000000
vn 0.000000 0.000000 0.000000
vn 0.000000 0.000000 0.000000
vn 0.000000 0.000000 0.000000
vn 0.000000 0.000000 0.000000
vn 0.000000 0.000000 0.000000
vn 0.000000 0.000000 0.000000
vn 0.000000 0.000000 0.000000
vn 0.000000 0.000000 0.000000
vn 0.000000 0.000000 0.000000
vn 0.000000 0.000000 0.000000
vn 0.000000 0.000000 0.000000
vn 0.000000 0.000000 0.000000
vn 0.000000 0.000000 0.000000
s off
f 17/41/1 18/42/2 20/44/3
f 20/44/4 18/42/5 19/43/6
f 2/3/7 1/4/8 8/2/9
f 8/2/10 1/4/11 7/1/12
f 4/8/13 2/5/14 6/7/15
f 6/7/16 2/5/17 8/6/18
f 7/9/19 1/10/20 5/12/21
f 5/12/22 1/10/23 3/11/24
f 11/25/25 9/26/26 12/28/27
f 12/28/28 9/26/29 10/27/30
f 15/29/31 13/30/32 16/32/33
f 16/32/34 13/30/35 14/31/36
f 10/33/37 16/34/38 12/36/39
f 12/36/40 16/34/41 14/35/42
f 15/37/43 9/38/44 13/40/45
f 13/40/46 9/38/47 11/39/48
f 6/13/49 8/14/50 5/16/51
f 5/16/52 8/14/53 7/15/54
f 2/17/55 4/18/56 1/20/57
f 1/20/58 4/18/59 3/19/60
f 17/41/61 3/21/62 18/42/63
f 3/21/64 4/22/65 18/42/66
f 18/42/67 4/22/68 19/43/69
f 4/22/70 6/23/71 19/43/72
f 19/43/73 6/23/74 20/44/75
f 6/23/76 5/24/77 20/44/78
f 20/44/79 5/24/80 17/41/81
f 5/24/82 3/21/83 17/41/84
