# This file uses centimeters as units for non-parametric coordinates.

v 0.919800 0.116613 0.721399
v 0.919800 0.116613 -0.721399
v 0.919800 3.285063 0.721399
v 0.919800 3.285063 -0.721399
v -0.919792 3.285063 0.721399
v -0.919777 3.285063 -0.721394
v -0.919792 0.116613 0.721399
v -0.919777 0.116613 -0.721394
v 0.879120 0.000000 0.604650
v 0.879120 0.000000 -0.604650
v 0.879120 0.116613 0.604650
v 0.879120 0.116613 -0.604650
v -0.879105 0.116613 0.604650
v -0.879097 0.116613 -0.604647
v -0.879105 0.000000 0.604650
v -0.879097 0.000000 -0.604647
v 0.854225 3.285063 0.669970
v 0.854225 3.285063 -0.669970
v -0.854202 3.285063 -0.669964
v -0.854218 3.285063 0.669970
v 0.854225 3.350500 0.669970
v 0.854225 3.350500 -0.669970
v -0.854202 3.350500 -0.669964
v -0.854218 3.350500 0.669970
vt 0.219253 0.742822
vt 0.221900 0.742822
vt 0.221900 0.743481
vt 0.219253 0.743481
vt 0.221437 0.744842
vt 0.221437 0.745392
vt 0.219898 0.745392
vt 0.219898 0.744842
vt 0.108580 0.597378
vt 0.193321 0.597378
vt 0.193321 0.740830
vt 0.108580 0.740830
vt 0.193321 0.740830
vt 0.193321 0.597378
vt 0.247799 0.597378
vt 0.247799 0.740830
vt 0.247799 0.597378
vt 0.247799 0.740830
vt 0.193321 0.740830
vt 0.193321 0.597378
vt 0.169205 0.746815
vt 0.131633 0.746815
vt 0.131633 0.743024
vt 0.169205 0.743024
vt 0.220257 0.743399
vt 0.221761 0.743399
vt 0.221761 0.744891
vt 0.220257 0.744891
vt 0.221877 0.743399
vt 0.223381 0.743399
vt 0.223381 0.744891
vt 0.221877 0.744891
vt 0.218596 0.745562
vt 0.218596 0.743394
vt 0.220100 0.743394
vt 0.220100 0.745562
vt 0.218480 0.743394
vt 0.218480 0.745562
vt 0.216976 0.745562
vt 0.216976 0.743394
vt 0.169205 0.746815
vt 0.131633 0.746815
vt 0.131633 0.743024
vt 0.169205 0.743024
vt 0.179983 0.645715
vt 0.177012 0.645715
vt 0.177012 0.643730
vt 0.179983 0.643730
vt 0.742227 0.901784
vt 0.742227 0.944260
vt 0.740928 0.944260
vt 0.740928 0.901784
vt 0.742791 0.833323
vt 0.742791 0.777591
vt 0.743839 0.777591
vt 0.743839 0.833323
vt 0.742473 0.944260
vt 0.742473 0.901784
vt 0.743772 0.901784
vt 0.743772 0.944260
vt 0.742593 0.777591
vt 0.742593 0.833323
vt 0.741544 0.833323
vt 0.741544 0.777591
vn 0.000000 1.000000 0.000000
vn 0.000000 1.000000 0.000000
vn 0.000000 1.000000 0.000000
vn 0.000000 1.000000 0.000000
vn 0.000000 1.000000 0.000000
vn 0.000000 1.000000 0.000000
vn 0.000000 -1.000000 0.000000
vn 0.000000 -1.000000 0.000000
vn 0.000000 -1.000000 0.000000
vn 0.000000 -1.000000 -0.000000
vn 0.000000 -1.000000 -0.000000
vn 0.000000 -1.000000 -0.000000
vn -0.000003 0.000000 -1.000000
vn -0.000003 0.000000 -1.000000
vn -0.000003 0.000000 -1.000000
vn -0.000003 0.000000 -1.000000
vn -0.000003 0.000000 -1.000000
vn -0.000003 0.000000 -1.000000
vn 0.000000 0.000000 1.000000
vn 0.000000 0.000000 1.000000
vn 0.000000 0.000000 1.000000
vn 0.000000 0.000000 1.000000
vn 0.000000 0.000000 1.000000
vn 0.000000 0.000000 1.000000
vn 1.000000 0.000000 0.000000
vn 1.000000 0.000000 0.000000
vn 1.000000 0.000000 0.000000
vn 1.000000 0.000000 0.000000
vn 1.000000 0.000000 0.000000
vn 1.000000 0.000000 0.000000
vn -1.000000 0.000000 -0.000006
vn -1.000000 0.000000 -0.000006
vn -1.000000 0.000000 -0.000006
vn -1.000000 0.000000 -0.000006
vn -1.000000 0.000000 -0.000006
vn -1.000000 0.000000 -0.000006
vn -0.000002 0.000000 -1.000000
vn -0.000002 0.000000 -1.000000
vn -0.000002 0.000000 -1.000000
vn -0.000002 0.000000 -1.000000
vn -0.000002 0.000000 -1.000000
vn -0.000002 0.000000 -1.000000
vn 0.000000 0.000000 1.000000
vn 0.000000 0.000000 1.000000
vn 0.000000 0.000000 1.000000
vn 0.000000 0.000000 1.000000
vn 0.000000 0.000000 1.000000
vn 0.000000 0.000000 1.000000
vn -1.000000 0.000000 -0.000011
vn -1.000000 0.000000 -0.000011
vn -1.000000 0.000000 -0.000011
vn -1.000000 0.000000 -0.000011
vn -1.000000 0.000000 -0.000011
vn -1.000000 0.000000 -0.000011
vn 1.000000 0.000000 0.000000
vn 1.000000 0.000000 0.000000
vn 1.000000 0.000000 0.000000
vn 1.000000 0.000000 0.000000
vn 1.000000 0.000000 0.000000
vn 1.000000 0.000000 0.000000
vn 0.000000 1.000000 0.000000
vn 0.000000 1.000000 0.000000
vn 0.000000 1.000000 0.000000
vn 0.000000 1.000000 0.000000
vn 0.000000 1.000000 0.000000
vn 0.000000 1.000000 0.000000
vn 0.000000 1.000000 0.000002
vn 0.000000 1.000000 0.000002
vn 0.000000 1.000000 0.000002
vn 0.000000 1.000000 0.000000
vn 0.000000 1.000000 0.000000
vn 0.000000 1.000000 0.000000
vn 0.000000 1.000000 0.000000
vn 0.000000 1.000000 0.000000
vn 0.000000 1.000000 0.000000
vn 0.000000 1.000000 0.000000
vn 0.000000 1.000000 0.000000
vn 0.000000 1.000000 0.000000
vn 0.000000 1.000000 -0.000002
vn 0.000000 1.000000 -0.000002
vn 0.000000 1.000000 -0.000002
vn 0.000000 1.000000 0.000000
vn 0.000000 1.000000 0.000000
vn 0.000000 1.000000 0.000000
vn 1.000000 0.000000 0.000000
vn 1.000000 0.000000 0.000000
vn 1.000000 0.000000 0.000000
vn 1.000000 0.000000 0.000000
vn 1.000000 0.000000 0.000000
vn 1.000000 0.000000 0.000000
vn -0.000003 0.000000 -1.000000
vn -0.000003 0.000000 -1.000000
vn -0.000003 0.000000 -1.000000
vn -0.000003 0.000000 -1.000000
vn -0.000003 0.000000 -1.000000
vn -0.000003 0.000000 -1.000000
vn -1.000000 0.000000 -0.000011
vn -1.000000 0.000000 -0.000011
vn -1.000000 0.000000 -0.000011
vn -1.000000 0.000000 -0.000011
vn -1.000000 0.000000 -0.000011
vn -1.000000 0.000000 -0.000011
vn 0.000000 0.000000 1.000000
vn 0.000000 0.000000 1.000000
vn 0.000000 0.000000 1.000000
vn 0.000000 0.000000 1.000000
vn 0.000000 0.000000 1.000000
vn 0.000000 0.000000 1.000000
s off
f 21/45/1 22/46/2 24/48/3
f 24/48/4 22/46/5 23/47/6
f 2/3/7 1/4/8 8/2/9
f 8/2/10 1/4/11 7/1/12
f 4/8/13 2/5/14 6/7/15
f 6/7/16 2/5/17 8/6/18
f 7/9/19 1/10/20 5/12/21
f 5/12/22 1/10/23 3/11/24
f 11/25/25 9/26/26 12/28/27
f 12/28/28 9/26/29 10/27/30
f 15/29/31 13/30/32 16/32/33
f 16/32/34 13/30/35 14/31/36
f 10/33/37 16/34/38 12/36/39
f 12/36/40 16/34/41 14/35/42
f 15/37/43 9/38/44 13/40/45
f 13/40/46 9/38/47 11/39/48
f 6/13/49 8/14/50 5/16/51
f 5/16/52 8/14/53 7/15/54
f 2/17/55 4/18/56 1/20/57
f 1/20/58 4/18/59 3/19/60
f 3/21/61 4/22/62 17/41/63
f 17/41/64 4/22/65 18/42/66
f 4/22/67 6/23/68 18/42/69
f 18/42/70 6/23/71 19/43/72
f 6/23/73 5/24/74 19/43/75
f 19/43/76 5/24/77 20/44/78
f 5/24/79 3/21/80 20/44/81
f 20/44/82 3/21/83 17/41/84
f 17/49/85 18/50/86 21/52/87
f 21/52/88 18/50/89 22/51/90
f 18/53/91 19/54/92 22/56/93
f 22/56/94 19/54/95 23/55/96
f 19/57/97 20/58/98 23/60/99
f 23/60/100 20/58/101 24/59/102
f 20/61/103 17/62/104 24/64/105
f 24/64/106 17/62/107 21/63/108
