# This file uses centimeters as units for non-parametric coordinates.

v 0.919800 0.116613 0.721399
v 0.919800 0.116613 -0.721399
v 0.919800 3.285063 0.721399
v 0.919800 3.285063 -0.721399
v -0.919792 3.285063 0.721399
v -0.919777 3.285063 -0.721394
v -0.919792 0.116613 0.721399
v -0.919777 0.116613 -0.721394
v 0.879120 0.000000 0.604650
v 0.879120 0.000000 -0.604650
v 0.879120 0.116613 0.604650
v 0.879120 0.116613 -0.604650
v -0.879105 0.116613 0.604650
v -0.879097 0.116613 -0.604647
v -0.879105 0.000000 0.604650
v -0.879097 0.000000 -0.604647
v 0.854225 3.285063 0.669970
v 0.854225 3.285063 -0.669970
v -0.854202 3.285063 -0.669964
v -0.854218 3.285063 0.669970
v 0.854225 3.350500 0.669970
v 0.854225 3.350500 -0.669970
v -0.854202 3.350500 -0.669964
v -0.854218 3.350500 0.669970
vt 0.613365 0.991287
vt 0.616012 0.991287
vt 0.616012 0.991946
vt 0.613365 0.991946
vt 0.615548 0.993307
vt 0.615548 0.993857
vt 0.614009 0.993857
vt 0.614009 0.993307
vt 0.502691 0.845843
vt 0.587432 0.845843
vt 0.587432 0.989295
vt 0.502691 0.989295
vt 0.587432 0.989295
vt 0.587432 0.845843
vt 0.641910 0.845843
vt 0.641910 0.989295
vt 0.641910 0.845843
vt 0.641910 0.989295
vt 0.587432 0.989295
vt 0.587432 0.845843
vt 0.563316 0.995280
vt 0.525744 0.995280
vt 0.525744 0.991489
vt 0.563316 0.991489
vt 0.614368 0.991864
vt 0.615872 0.991864
vt 0.615872 0.993355
vt 0.614368 0.993355
vt 0.615988 0.991864
vt 0.617492 0.991864
vt 0.617492 0.993355
vt 0.615988 0.993355
vt 0.612708 0.994027
vt 0.612708 0.991858
vt 0.614211 0.991858
vt 0.614211 0.994027
vt 0.612591 0.991858
vt 0.612591 0.994027
vt 0.611088 0.994027
vt 0.611088 0.991858
vt 0.563316 0.995280
vt 0.525744 0.995280
vt 0.525744 0.991489
vt 0.563316 0.991489
vt 0.574094 0.894180
vt 0.571124 0.894180
vt 0.571124 0.892195
vt 0.574094 0.892195
vt 0.742227 0.901784
vt 0.742227 0.944260
vt 0.740928 0.944260
vt 0.740928 0.901784
vt 0.742791 0.833323
vt 0.742791 0.777591
vt 0.743839 0.777591
vt 0.743839 0.833323
vt 0.742473 0.944260
vt 0.742473 0.901784
vt 0.743772 0.901784
vt 0.743772 0.944260
vt 0.742593 0.777591
vt 0.742593 0.833323
vt 0.741544 0.833323
vt 0.741544 0.777591
vn 0.000000 1.000000 0.000000
vn 0.000000 1.000000 0.000000
vn 0.000000 1.000000 0.000000
vn 0.000000 1.000000 0.000000
vn 0.000000 1.000000 0.000000
vn 0.000000 1.000000 0.000000
vn 0.000000 -1.000000 0.000000
vn 0.000000 -1.000000 0.000000
vn 0.000000 -1.000000 0.000000
vn 0.000000 -1.000000 -0.000000
vn 0.000000 -1.000000 -0.000000
vn 0.000000 -1.000000 -0.000000
vn -0.000003 0.000000 -1.000000
vn -0.000003 0.000000 -1.000000
vn -0.000003 0.000000 -1.000000
vn -0.000003 0.000000 -1.000000
vn -0.000003 0.000000 -1.000000
vn -0.000003 0.000000 -1.000000
vn 0.000000 0.000000 1.000000
vn 0.000000 0.000000 1.000000
vn 0.000000 0.000000 1.000000
vn 0.000000 0.000000 1.000000
vn 0.000000 0.000000 1.000000
vn 0.000000 0.000000 1.000000
vn 1.000000 0.000000 0.000000
vn 1.000000 0.000000 0.000000
vn 1.000000 0.000000 0.000000
vn 1.000000 0.000000 0.000000
vn 1.000000 0.000000 0.000000
vn 1.000000 0.000000 0.000000
vn -1.000000 0.000000 -0.000006
vn -1.000000 0.000000 -0.000006
vn -1.000000 0.000000 -0.000006
vn -1.000000 0.000000 -0.000006
vn -1.000000 0.000000 -0.000006
vn -1.000000 0.000000 -0.000006
vn -0.000002 0.000000 -1.000000
vn -0.000002 0.000000 -1.000000
vn -0.000002 0.000000 -1.000000
vn -0.000002 0.000000 -1.000000
vn -0.000002 0.000000 -1.000000
vn -0.000002 0.000000 -1.000000
vn 0.000000 0.000000 1.000000
vn 0.000000 0.000000 1.000000
vn 0.000000 0.000000 1.000000
vn 0.000000 0.000000 1.000000
vn 0.000000 0.000000 1.000000
vn 0.000000 0.000000 1.000000
vn -1.000000 0.000000 -0.000011
vn -1.000000 0.000000 -0.000011
vn -1.000000 0.000000 -0.000011
vn -1.000000 0.000000 -0.000011
vn -1.000000 0.000000 -0.000011
vn -1.000000 0.000000 -0.000011
vn 1.000000 0.000000 0.000000
vn 1.000000 0.000000 0.000000
vn 1.000000 0.000000 0.000000
vn 1.000000 0.000000 0.000000
vn 1.000000 0.000000 0.000000
vn 1.000000 0.000000 0.000000
vn 0.000000 1.000000 0.000000
vn 0.000000 1.000000 0.000000
vn 0.000000 1.000000 0.000000
vn 0.000000 1.000000 0.000000
vn 0.000000 1.000000 0.000000
vn 0.000000 1.000000 0.000000
vn 0.000000 1.000000 0.000002
vn 0.000000 1.000000 0.000002
vn 0.000000 1.000000 0.000002
vn 0.000000 1.000000 0.000000
vn 0.000000 1.000000 0.000000
vn 0.000000 1.000000 0.000000
vn 0.000000 1.000000 0.000000
vn 0.000000 1.000000 0.000000
vn 0.000000 1.000000 0.000000
vn 0.000000 1.000000 0.000000
vn 0.000000 1.000000 0.000000
vn 0.000000 1.000000 0.000000
vn 0.000000 1.000000 -0.000002
vn 0.000000 1.000000 -0.000002
vn 0.000000 1.000000 -0.000002
vn 0.000000 1.000000 0.000000
vn 0.000000 1.000000 0.000000
vn 0.000000 1.000000 0.000000
vn 1.000000 0.000000 0.000000
vn 1.000000 0.000000 0.000000
vn 1.000000 0.000000 0.000000
vn 1.000000 0.000000 0.000000
vn 1.000000 0.000000 0.000000
vn 1.000000 0.000000 0.000000
vn -0.000003 0.000000 -1.000000
vn -0.000003 0.000000 -1.000000
vn -0.000003 0.000000 -1.000000
vn -0.000003 0.000000 -1.000000
vn -0.000003 0.000000 -1.000000
vn -0.000003 0.000000 -1.000000
vn -1.000000 0.000000 -0.000011
vn -1.000000 0.000000 -0.000011
vn -1.000000 0.000000 -0.000011
vn -1.000000 0.000000 -0.000011
vn -1.000000 0.000000 -0.000011
vn -1.000000 0.000000 -0.000011
vn 0.000000 0.000000 1.000000
vn 0.000000 0.000000 1.000000
vn 0.000000 0.000000 1.000000
vn 0.000000 0.000000 1.000000
vn 0.000000 0.000000 1.000000
vn 0.000000 0.000000 1.000000
s off
f 21/45/1 22/46/2 24/48/3
f 24/48/4 22/46/5 23/47/6
f 2/3/7 1/4/8 8/2/9
f 8/2/10 1/4/11 7/1/12
f 4/8/13 2/5/14 6/7/15
f 6/7/16 2/5/17 8/6/18
f 7/9/19 1/10/20 5/12/21
f 5/12/22 1/10/23 3/11/24
f 11/25/25 9/26/26 12/28/27
f 12/28/28 9/26/29 10/27/30
f 15/29/31 13/30/32 16/32/33
f 16/32/34 13/30/35 14/31/36
f 10/33/37 16/34/38 12/36/39
f 12/36/40 16/34/41 14/35/42
f 15/37/43 9/38/44 13/40/45
f 13/40/46 9/38/47 11/39/48
f 6/13/49 8/14/50 5/16/51
f 5/16/52 8/14/53 7/15/54
f 2/17/55 4/18/56 1/20/57
f 1/20/58 4/18/59 3/19/60
f 3/21/61 4/22/62 17/41/63
f 17/41/64 4/22/65 18/42/66
f 4/22/67 6/23/68 18/42/69
f 18/42/70 6/23/71 19/43/72
f 6/23/73 5/24/74 19/43/75
f 19/43/76 5/24/77 20/44/78
f 5/24/79 3/21/80 20/44/81
f 20/44/82 3/21/83 17/41/84
f 17/49/85 18/50/86 21/52/87
f 21/52/88 18/50/89 22/51/90
f 18/53/91 19/54/92 22/56/93
f 22/56/94 19/54/95 23/55/96
f 19/57/97 20/58/98 23/60/99
f 23/60/100 20/58/101 24/59/102
f 20/61/103 17/62/104 24/64/105
f 24/64/106 17/62/107 21/63/108
