# This file uses centimeters as units for non-parametric coordinates.

v -0.715298 0.000000 -0.000138
v -1.000000 0.000000 -0.000138
v -0.715298 1.562701 -0.000138
v -1.000000 1.562701 -0.000138
v -0.715298 1.562701 0.073840
v -1.000000 1.562701 0.073840
v -0.715298 0.000000 0.073840
v -1.000000 0.000000 0.073840
v -0.857649 1.763008 -0.000138
v -0.857649 1.763008 0.073840
v -0.311903 0.000000 -0.000138
v -0.596605 0.000000 -0.000138
v -0.311903 1.562701 -0.000138
v -0.596605 1.562701 -0.000138
v -0.311903 1.562701 0.073840
v -0.596605 1.562701 0.073840
v -0.311903 0.000000 0.073840
v -0.596605 0.000000 0.073840
v -0.454254 1.763008 -0.000138
v -0.454254 1.763008 0.073840
v 0.085515 0.000000 -0.000138
v -0.199187 0.000000 -0.000138
v 0.085515 1.562701 -0.000138
v -0.199187 1.562701 -0.000138
v 0.085515 1.562701 0.073840
v -0.199187 1.562701 0.073840
v 0.085515 0.000000 0.073840
v -0.199187 0.000000 0.073840
v -0.056836 1.763008 -0.000138
v -0.056836 1.763008 0.073840
v 0.482345 0.000000 -0.000138
v 0.197643 0.000000 -0.000138
v 0.482345 1.562701 -0.000138
v 0.197643 1.562701 -0.000138
v 0.482345 1.562701 0.073840
v 0.197643 1.562701 0.073840
v 0.482345 0.000000 0.073840
v 0.197643 0.000000 0.073840
v 0.339994 1.763008 -0.000138
v 0.339994 1.763008 0.073840
v 0.886952 0.000000 -0.000138
v 0.602250 0.000000 -0.000138
v 0.886952 1.562701 -0.000138
v 0.602250 1.562701 -0.000138
v 0.886952 1.562701 0.073840
v 0.602250 1.562701 0.073840
v 0.886952 0.000000 0.073840
v 0.602250 0.000000 0.073840
v 0.744601 1.763008 -0.000138
v 0.744601 1.763008 0.073840
v -1.000759 1.212509 -0.073841
v -1.000759 1.397840 -0.073841
v 1.000000 1.212509 -0.073841
v 1.000000 1.397840 -0.073841
v 1.000000 1.212509 0.000138
v 1.000000 1.397840 0.000138
v -1.000759 1.212509 0.000138
v -1.000759 1.397840 0.000138
v -1.000759 0.277035 -0.073841
v -1.000759 0.462366 -0.073841
v 1.000000 0.277035 -0.073841
v 1.000000 0.462366 -0.073841
v 1.000000 0.277035 0.000138
v 1.000000 0.462366 0.000138
v -1.000759 0.277035 0.000138
v -1.000759 0.462366 0.000138
vt 0.912126 0.011596
vt 0.948466 0.009673
vt 0.975947 0.009463
vt 0.972494 0.012916
vt 0.972494 0.016370
vt 0.948466 0.020034
vt 0.972494 0.019824
vt 0.975947 0.019824
vt 0.916839 0.011596
vt 0.916839 0.013952
vt 0.909769 0.011596
vt 0.909769 0.013952
vt 0.974220 0.009463
vt 0.946739 0.016580
vt 0.945013 0.016580
vt 0.974220 0.012916
vt 0.946739 0.013127
vt 0.948466 0.016580
vt 0.975947 0.012916
vt 0.914483 0.013952
vt 0.948466 0.013127
vt 0.945013 0.013127
vt 0.912126 0.013952
vt 0.972494 0.009463
vt 0.975947 0.016370
vt 0.914483 0.011596
vt 0.945013 0.020034
vt 0.945013 0.009673
vt 0.945013 0.009673
vt 0.948466 0.009673
vt 0.948466 0.013127
vt 0.945013 0.013127
vt 0.945013 0.016580
vt 0.948466 0.016580
vt 0.948466 0.020034
vt 0.945013 0.020034
vt 0.972494 0.016370
vt 0.975947 0.016370
vt 0.975947 0.019824
vt 0.972494 0.019824
vt 0.914483 0.011596
vt 0.916839 0.011596
vt 0.916839 0.013952
vt 0.914483 0.013952
vt 0.909769 0.011596
vt 0.912126 0.011596
vt 0.912126 0.013952
vt 0.909769 0.013952
vt 0.946739 0.013127
vt 0.975947 0.009463
vt 0.975947 0.012916
vt 0.974220 0.012916
vt 0.974220 0.009463
vt 0.946739 0.016580
vt 0.972494 0.012916
vt 0.972494 0.009463
vt 0.945013 0.009673
vt 0.948466 0.009673
vt 0.948466 0.013127
vt 0.945013 0.013127
vt 0.945013 0.016580
vt 0.948466 0.016580
vt 0.948466 0.020034
vt 0.945013 0.020034
vt 0.972494 0.016370
vt 0.975947 0.016370
vt 0.975947 0.019824
vt 0.972494 0.019824
vt 0.914483 0.011596
vt 0.916839 0.011596
vt 0.916839 0.013952
vt 0.914483 0.013952
vt 0.909769 0.011596
vt 0.912126 0.011596
vt 0.912126 0.013952
vt 0.909769 0.013952
vt 0.946739 0.013127
vt 0.975947 0.009463
vt 0.975947 0.012916
vt 0.974220 0.012916
vt 0.974220 0.009463
vt 0.946739 0.016580
vt 0.972494 0.012916
vt 0.972494 0.009463
vt 0.945013 0.009673
vt 0.948466 0.009673
vt 0.948466 0.013127
vt 0.945013 0.013127
vt 0.945013 0.016580
vt 0.948466 0.016580
vt 0.948466 0.020034
vt 0.945013 0.020034
vt 0.972494 0.016370
vt 0.975947 0.016370
vt 0.975947 0.019824
vt 0.972494 0.019824
vt 0.914483 0.011596
vt 0.916839 0.011596
vt 0.916839 0.013952
vt 0.914483 0.013952
vt 0.909769 0.011596
vt 0.912126 0.011596
vt 0.912126 0.013952
vt 0.909769 0.013952
vt 0.946739 0.013127
vt 0.975947 0.009463
vt 0.975947 0.012916
vt 0.974220 0.012916
vt 0.974220 0.009463
vt 0.946739 0.016580
vt 0.972494 0.012916
vt 0.972494 0.009463
vt 0.945013 0.009673
vt 0.948466 0.009673
vt 0.948466 0.013127
vt 0.945013 0.013127
vt 0.945013 0.016580
vt 0.948466 0.016580
vt 0.948466 0.020034
vt 0.945013 0.020034
vt 0.972494 0.016370
vt 0.975947 0.016370
vt 0.975947 0.019824
vt 0.972494 0.019824
vt 0.914483 0.011596
vt 0.916839 0.011596
vt 0.916839 0.013952
vt 0.914483 0.013952
vt 0.909769 0.011596
vt 0.912126 0.011596
vt 0.912126 0.013952
vt 0.909769 0.013952
vt 0.946739 0.013127
vt 0.975947 0.009463
vt 0.975947 0.012916
vt 0.974220 0.012916
vt 0.974220 0.009463
vt 0.946739 0.016580
vt 0.972494 0.012916
vt 0.972494 0.009463
vt 0.924402 0.009673
vt 0.927855 0.009673
vt 0.927855 0.013127
vt 0.924402 0.013127
vt 0.896463 0.007420
vt 0.899917 0.007420
vt 0.899917 0.010874
vt 0.896463 0.010874
vt 0.916645 0.018632
vt 0.916682 0.018632
vt 0.916682 0.018669
vt 0.916645 0.018669
vt 0.957994 0.012054
vt 0.960351 0.012054
vt 0.960351 0.014410
vt 0.957994 0.014410
vt 0.909769 0.011596
vt 0.912126 0.011596
vt 0.912126 0.013952
vt 0.909769 0.013952
vt 0.914266 0.021114
vt 0.916922 0.021114
vt 0.916922 0.018459
vt 0.914266 0.018459
vt 0.924402 0.009673
vt 0.927855 0.009673
vt 0.927855 0.013127
vt 0.924402 0.013127
vt 0.896463 0.007420
vt 0.899917 0.007420
vt 0.899917 0.010874
vt 0.896463 0.010874
vt 0.916645 0.018632
vt 0.916682 0.018632
vt 0.916682 0.018669
vt 0.916645 0.018669
vt 0.957994 0.012054
vt 0.960351 0.012054
vt 0.960351 0.014410
vt 0.957994 0.014410
vt 0.909769 0.011596
vt 0.912126 0.011596
vt 0.912126 0.013952
vt 0.909769 0.013952
vt 0.914266 0.021114
vt 0.916922 0.021114
vt 0.916922 0.018459
vt 0.914266 0.018459
vn 0.000000 0.000000 -1.000000
vn 0.000000 0.000000 -1.000000
vn 0.000000 0.000000 -1.000000
vn 0.000000 0.000000 -1.000000
vn 0.000000 0.000000 -1.000000
vn 0.000000 0.000000 -1.000000
vn 0.000000 0.000000 1.000000
vn 0.000000 0.000000 1.000000
vn 0.000000 0.000000 1.000000
vn 0.000000 0.000000 1.000000
vn 0.000000 0.000000 1.000000
vn 0.000000 0.000000 1.000000
vn 0.000000 -1.000000 0.000000
vn 0.000000 -1.000000 0.000000
vn 0.000000 -1.000000 0.000000
vn 0.000000 -1.000000 0.000000
vn 0.000000 -1.000000 0.000000
vn 0.000000 -1.000000 0.000000
vn -1.000000 0.000000 0.000000
vn -1.000000 0.000000 0.000000
vn -1.000000 0.000000 0.000000
vn -1.000000 0.000000 0.000000
vn -1.000000 0.000000 0.000000
vn -1.000000 0.000000 0.000000
vn 1.000000 0.000000 0.000000
vn 1.000000 0.000000 0.000000
vn 1.000000 0.000000 0.000000
vn 1.000000 0.000000 0.000000
vn 1.000000 0.000000 0.000000
vn 1.000000 0.000000 0.000000
vn 0.000000 0.000000 -1.000000
vn 0.000000 0.000000 -1.000000
vn 0.000000 0.000000 -1.000000
vn -0.815126 0.579284 0.000000
vn -0.815126 0.579284 0.000000
vn -0.815126 0.579284 0.000000
vn -0.815126 0.579283 0.000000
vn -0.815126 0.579283 0.000000
vn -0.815126 0.579283 0.000000
vn 0.000000 0.000000 1.000000
vn 0.000000 0.000000 1.000000
vn 0.000000 0.000000 1.000000
vn 0.815126 0.579283 0.000000
vn 0.815126 0.579283 0.000000
vn 0.815126 0.579283 0.000000
vn 0.815126 0.579283 0.000000
vn 0.815126 0.579283 0.000000
vn 0.815126 0.579283 0.000000
vn 0.000000 0.000000 -1.000000
vn 0.000000 0.000000 -1.000000
vn 0.000000 0.000000 -1.000000
vn 0.000000 0.000000 -1.000000
vn 0.000000 0.000000 -1.000000
vn 0.000000 0.000000 -1.000000
vn 0.000000 0.000000 1.000000
vn 0.000000 0.000000 1.000000
vn 0.000000 0.000000 1.000000
vn 0.000000 0.000000 1.000000
vn 0.000000 0.000000 1.000000
vn 0.000000 0.000000 1.000000
vn 0.000000 -1.000000 0.000000
vn 0.000000 -1.000000 0.000000
vn 0.000000 -1.000000 0.000000
vn 0.000000 -1.000000 0.000000
vn 0.000000 -1.000000 0.000000
vn 0.000000 -1.000000 0.000000
vn -1.000000 0.000000 0.000000
vn -1.000000 0.000000 0.000000
vn -1.000000 0.000000 0.000000
vn -1.000000 0.000000 0.000000
vn -1.000000 0.000000 0.000000
vn -1.000000 0.000000 0.000000
vn 1.000000 0.000000 0.000000
vn 1.000000 0.000000 0.000000
vn 1.000000 0.000000 0.000000
vn 1.000000 0.000000 0.000000
vn 1.000000 0.000000 0.000000
vn 1.000000 0.000000 0.000000
vn 0.000000 0.000000 -1.000000
vn 0.000000 0.000000 -1.000000
vn 0.000000 0.000000 -1.000000
vn -0.815126 0.579283 0.000000
vn -0.815126 0.579283 0.000000
vn -0.815126 0.579283 0.000000
vn -0.815126 0.579283 0.000000
vn -0.815126 0.579283 0.000000
vn -0.815126 0.579283 0.000000
vn 0.000000 0.000000 1.000000
vn 0.000000 0.000000 1.000000
vn 0.000000 0.000000 1.000000
vn 0.815126 0.579284 0.000000
vn 0.815126 0.579284 0.000000
vn 0.815126 0.579284 0.000000
vn 0.815126 0.579284 0.000000
vn 0.815126 0.579284 0.000000
vn 0.815126 0.579284 0.000000
vn 0.000000 0.000000 -1.000000
vn 0.000000 0.000000 -1.000000
vn 0.000000 0.000000 -1.000000
vn 0.000000 0.000000 -1.000000
vn 0.000000 0.000000 -1.000000
vn 0.000000 0.000000 -1.000000
vn 0.000000 0.000000 1.000000
vn 0.000000 0.000000 1.000000
vn 0.000000 0.000000 1.000000
vn 0.000000 0.000000 1.000000
vn 0.000000 0.000000 1.000000
vn 0.000000 0.000000 1.000000
vn 0.000000 -1.000000 0.000000
vn 0.000000 -1.000000 0.000000
vn 0.000000 -1.000000 0.000000
vn 0.000000 -1.000000 0.000000
vn 0.000000 -1.000000 0.000000
vn 0.000000 -1.000000 0.000000
vn -1.000000 0.000000 0.000000
vn -1.000000 0.000000 0.000000
vn -1.000000 0.000000 0.000000
vn -1.000000 0.000000 0.000000
vn -1.000000 0.000000 0.000000
vn -1.000000 0.000000 0.000000
vn 1.000000 0.000000 0.000000
vn 1.000000 0.000000 0.000000
vn 1.000000 0.000000 0.000000
vn 1.000000 0.000000 0.000000
vn 1.000000 0.000000 0.000000
vn 1.000000 0.000000 0.000000
vn 0.000000 0.000000 -1.000000
vn 0.000000 0.000000 -1.000000
vn 0.000000 0.000000 -1.000000
vn -0.815126 0.579284 0.000000
vn -0.815126 0.579284 0.000000
vn -0.815126 0.579284 0.000000
vn -0.815126 0.579284 0.000000
vn -0.815126 0.579284 0.000000
vn -0.815126 0.579284 0.000000
vn 0.000000 0.000000 1.000000
vn 0.000000 0.000000 1.000000
vn 0.000000 0.000000 1.000000
vn 0.815126 0.579283 0.000000
vn 0.815126 0.579283 0.000000
vn 0.815126 0.579283 0.000000
vn 0.815126 0.579283 0.000000
vn 0.815126 0.579283 0.000000
vn 0.815126 0.579283 0.000000
vn 0.000000 0.000000 -1.000000
vn 0.000000 0.000000 -1.000000
vn 0.000000 0.000000 -1.000000
vn 0.000000 0.000000 -1.000000
vn 0.000000 0.000000 -1.000000
vn 0.000000 0.000000 -1.000000
vn 0.000000 0.000000 1.000000
vn 0.000000 0.000000 1.000000
vn 0.000000 0.000000 1.000000
vn 0.000000 0.000000 1.000000
vn 0.000000 0.000000 1.000000
vn 0.000000 0.000000 1.000000
vn 0.000000 -1.000000 0.000000
vn 0.000000 -1.000000 0.000000
vn 0.000000 -1.000000 0.000000
vn 0.000000 -1.000000 0.000000
vn 0.000000 -1.000000 0.000000
vn 0.000000 -1.000000 0.000000
vn -1.000000 0.000000 0.000000
vn -1.000000 0.000000 0.000000
vn -1.000000 0.000000 0.000000
vn -1.000000 0.000000 0.000000
vn -1.000000 0.000000 0.000000
vn -1.000000 0.000000 0.000000
vn 1.000000 0.000000 0.000000
vn 1.000000 0.000000 0.000000
vn 1.000000 0.000000 0.000000
vn 1.000000 0.000000 0.000000
vn 1.000000 0.000000 0.000000
vn 1.000000 0.000000 0.000000
vn 0.000000 0.000000 -1.000000
vn 0.000000 0.000000 -1.000000
vn 0.000000 0.000000 -1.000000
vn -0.815126 0.579284 0.000000
vn -0.815126 0.579284 0.000000
vn -0.815126 0.579284 0.000000
vn -0.815126 0.579284 0.000000
vn -0.815126 0.579284 0.000000
vn -0.815126 0.579284 0.000000
vn 0.000000 0.000000 1.000000
vn 0.000000 0.000000 1.000000
vn 0.000000 0.000000 1.000000
vn 0.815127 0.579282 0.000000
vn 0.815127 0.579282 0.000000
vn 0.815127 0.579282 0.000000
vn 0.815127 0.579282 0.000000
vn 0.815127 0.579282 0.000000
vn 0.815127 0.579282 0.000000
vn 0.000000 0.000000 -1.000000
vn 0.000000 0.000000 -1.000000
vn 0.000000 0.000000 -1.000000
vn 0.000000 0.000000 -1.000000
vn 0.000000 0.000000 -1.000000
vn 0.000000 0.000000 -1.000000
vn 0.000000 0.000000 1.000000
vn 0.000000 0.000000 1.000000
vn 0.000000 0.000000 1.000000
vn 0.000000 0.000000 1.000000
vn 0.000000 0.000000 1.000000
vn 0.000000 0.000000 1.000000
vn 0.000000 -1.000000 0.000000
vn 0.000000 -1.000000 0.000000
vn 0.000000 -1.000000 0.000000
vn 0.000000 -1.000000 0.000000
vn 0.000000 -1.000000 0.000000
vn 0.000000 -1.000000 0.000000
vn -1.000000 0.000000 0.000000
vn -1.000000 0.000000 0.000000
vn -1.000000 0.000000 0.000000
vn -1.000000 0.000000 0.000000
vn -1.000000 0.000000 0.000000
vn -1.000000 0.000000 0.000000
vn 1.000000 0.000000 0.000000
vn 1.000000 0.000000 0.000000
vn 1.000000 0.000000 0.000000
vn 1.000000 0.000000 0.000000
vn 1.000000 0.000000 0.000000
vn 1.000000 0.000000 0.000000
vn 0.000000 0.000000 -1.000000
vn 0.000000 0.000000 -1.000000
vn 0.000000 0.000000 -1.000000
vn -0.815126 0.579284 0.000000
vn -0.815126 0.579284 0.000000
vn -0.815126 0.579284 0.000000
vn -0.815126 0.579284 0.000000
vn -0.815126 0.579284 0.000000
vn -0.815126 0.579284 0.000000
vn 0.000000 0.000000 1.000000
vn 0.000000 0.000000 1.000000
vn 0.000000 0.000000 1.000000
vn 0.815126 0.579284 0.000000
vn 0.815126 0.579284 0.000000
vn 0.815126 0.579284 0.000000
vn 0.815126 0.579284 0.000000
vn 0.815126 0.579284 0.000000
vn 0.815126 0.579284 0.000000
vn 0.000000 0.000000 -1.000000
vn 0.000000 0.000000 -1.000000
vn 0.000000 0.000000 -1.000000
vn 0.000000 0.000000 -1.000000
vn 0.000000 0.000000 -1.000000
vn 0.000000 0.000000 -1.000000
vn 0.000000 0.000000 1.000000
vn 0.000000 0.000000 1.000000
vn 0.000000 0.000000 1.000000
vn 0.000000 0.000000 1.000000
vn 0.000000 0.000000 1.000000
vn 0.000000 0.000000 1.000000
vn -1.000000 0.000000 0.000000
vn -1.000000 0.000000 0.000000
vn -1.000000 0.000000 0.000000
vn -1.000000 0.000000 0.000000
vn -1.000000 0.000000 0.000000
vn -1.000000 0.000000 0.000000
vn 0.000000 1.000000 0.000000
vn 0.000000 1.000000 0.000000
vn 0.000000 1.000000 0.000000
vn 0.000000 1.000000 0.000000
vn 0.000000 1.000000 0.000000
vn 0.000000 1.000000 0.000000
vn 0.000000 -1.000000 0.000000
vn 0.000000 -1.000000 0.000000
vn 0.000000 -1.000000 0.000000
vn 0.000000 -1.000000 0.000000
vn 0.000000 -1.000000 0.000000
vn 0.000000 -1.000000 0.000000
vn 1.000000 0.000000 0.000000
vn 1.000000 0.000000 0.000000
vn 1.000000 0.000000 0.000000
vn 1.000000 0.000000 0.000000
vn 1.000000 0.000000 0.000000
vn 1.000000 0.000000 0.000000
vn 0.000000 0.000000 -1.000000
vn 0.000000 0.000000 -1.000000
vn 0.000000 0.000000 -1.000000
vn 0.000000 0.000000 -1.000000
vn 0.000000 0.000000 -1.000000
vn 0.000000 0.000000 -1.000000
vn 0.000000 0.000000 1.000000
vn 0.000000 0.000000 1.000000
vn 0.000000 0.000000 1.000000
vn 0.000000 0.000000 1.000000
vn 0.000000 0.000000 1.000000
vn 0.000000 0.000000 1.000000
vn -1.000000 0.000000 0.000000
vn -1.000000 0.000000 0.000000
vn -1.000000 0.000000 0.000000
vn -1.000000 0.000000 0.000000
vn -1.000000 0.000000 0.000000
vn -1.000000 0.000000 0.000000
vn 0.000000 1.000000 0.000000
vn 0.000000 1.000000 0.000000
vn 0.000000 1.000000 0.000000
vn 0.000000 1.000000 0.000000
vn 0.000000 1.000000 0.000000
vn 0.000000 1.000000 0.000000
vn 0.000000 -1.000000 0.000000
vn 0.000000 -1.000000 0.000000
vn 0.000000 -1.000000 0.000000
vn 0.000000 -1.000000 0.000000
vn 0.000000 -1.000000 0.000000
vn 0.000000 -1.000000 0.000000
vn 1.000000 0.000000 0.000000
vn 1.000000 0.000000 0.000000
vn 1.000000 0.000000 0.000000
vn 1.000000 0.000000 0.000000
vn 1.000000 0.000000 0.000000
vn 1.000000 0.000000 0.000000
s off
f 1/28/1 2/2/2 3/22/3
f 3/22/4 2/2/5 4/21/6
f 5/15/7 6/18/8 7/27/9
f 7/27/10 6/18/11 8/6/12
f 7/5/13 8/25/14 1/7/15
f 1/7/16 8/25/17 2/8/18
f 2/26/19 8/9/20 4/20/21
f 4/20/22 8/9/23 6/10/24
f 7/11/25 1/1/26 5/12/27
f 5/12/28 1/1/29 3/23/30
f 3/22/31 4/21/32 9/17/33
f 4/3/34 6/19/35 9/13/36
f 9/13/37 6/19/38 10/16/39
f 6/18/40 5/15/41 10/14/42
f 5/4/43 3/24/44 10/16/45
f 10/16/46 3/24/47 9/13/48
f 11/29/49 12/30/50 13/32/51
f 13/32/52 12/30/53 14/31/54
f 15/33/55 16/34/56 17/36/57
f 17/36/58 16/34/59 18/35/60
f 17/37/61 18/38/62 11/40/63
f 11/40/64 18/38/65 12/39/66
f 12/41/67 18/42/68 14/44/69
f 14/44/70 18/42/71 16/43/72
f 17/45/73 11/46/74 15/48/75
f 15/48/76 11/46/77 13/47/78
f 13/32/79 14/31/80 19/49/81
f 14/50/82 16/51/83 19/53/84
f 19/53/85 16/51/86 20/52/87
f 16/34/88 15/33/89 20/54/90
f 15/55/91 13/56/92 20/52/93
f 20/52/94 13/56/95 19/53/96
f 21/57/97 22/58/98 23/60/99
f 23/60/100 22/58/101 24/59/102
f 25/61/103 26/62/104 27/64/105
f 27/64/106 26/62/107 28/63/108
f 27/65/109 28/66/110 21/68/111
f 21/68/112 28/66/113 22/67/114
f 22/69/115 28/70/116 24/72/117
f 24/72/118 28/70/119 26/71/120
f 27/73/121 21/74/122 25/76/123
f 25/76/124 21/74/125 23/75/126
f 23/60/127 24/59/128 29/77/129
f 24/78/130 26/79/131 29/81/132
f 29/81/133 26/79/134 30/80/135
f 26/62/136 25/61/137 30/82/138
f 25/83/139 23/84/140 30/80/141
f 30/80/142 23/84/143 29/81/144
f 31/85/145 32/86/146 33/88/147
f 33/88/148 32/86/149 34/87/150
f 35/89/151 36/90/152 37/92/153
f 37/92/154 36/90/155 38/91/156
f 37/93/157 38/94/158 31/96/159
f 31/96/160 38/94/161 32/95/162
f 32/97/163 38/98/164 34/100/165
f 34/100/166 38/98/167 36/99/168
f 37/101/169 31/102/170 35/104/171
f 35/104/172 31/102/173 33/103/174
f 33/88/175 34/87/176 39/105/177
f 34/106/178 36/107/179 39/109/180
f 39/109/181 36/107/182 40/108/183
f 36/90/184 35/89/185 40/110/186
f 35/111/187 33/112/188 40/108/189
f 40/108/190 33/112/191 39/109/192
f 41/113/193 42/114/194 43/116/195
f 43/116/196 42/114/197 44/115/198
f 45/117/199 46/118/200 47/120/201
f 47/120/202 46/118/203 48/119/204
f 47/121/205 48/122/206 41/124/207
f 41/124/208 48/122/209 42/123/210
f 42/125/211 48/126/212 44/128/213
f 44/128/214 48/126/215 46/127/216
f 47/129/217 41/130/218 45/132/219
f 45/132/220 41/130/221 43/131/222
f 43/116/223 44/115/224 49/133/225
f 44/134/226 46/135/227 49/137/228
f 49/137/229 46/135/230 50/136/231
f 46/118/232 45/117/233 50/138/234
f 45/139/235 43/140/236 50/136/237
f 50/136/238 43/140/239 49/137/240
f 51/141/241 52/142/242 53/144/243
f 53/144/244 52/142/245 54/143/246
f 55/145/247 56/146/248 57/148/249
f 57/148/250 56/146/251 58/147/252
f 57/149/253 58/150/254 51/152/255
f 51/152/256 58/150/257 52/151/258
f 52/153/259 58/154/260 54/156/261
f 54/156/262 58/154/263 56/155/264
f 57/157/265 51/158/266 55/160/267
f 55/160/268 51/158/269 53/159/270
f 56/161/271 55/162/272 54/164/273
f 54/164/274 55/162/275 53/163/276
f 59/165/277 60/166/278 61/168/279
f 61/168/280 60/166/281 62/167/282
f 63/169/283 64/170/284 65/172/285
f 65/172/286 64/170/287 66/171/288
f 65/173/289 66/174/290 59/176/291
f 59/176/292 66/174/293 60/175/294
f 60/177/295 66/178/296 62/180/297
f 62/180/298 66/178/299 64/179/300
f 65/181/301 59/182/302 63/184/303
f 63/184/304 59/182/305 61/183/306
f 64/185/307 63/186/308 62/188/309
f 62/188/310 63/186/311 61/187/312
