# This file uses centimeters as units for non-parametric coordinates.

v 0.309563 1.239693 -0.175730
v -0.309563 1.239693 -0.175730
v 0.309563 1.839254 -0.175730
v -0.309563 1.839254 -0.175730
v 0.309563 1.839254 0.175732
v -0.309563 1.839254 0.175732
v 0.309563 1.239693 0.175732
v -0.309563 1.239693 0.175732
v -0.114075 1.265756 0.044630
v -0.030540 1.265756 0.044630
v -0.030540 1.265756 0.126961
v -0.114075 1.265756 0.126961
v -0.114075 -0.000004 0.126513
v -0.030540 0.000000 0.126513
v -0.030540 0.000000 0.044630
v -0.114075 -0.000004 0.044630
v 0.028015 1.265756 0.044630
v 0.111542 1.265756 0.044630
v 0.111542 1.265756 0.126961
v 0.028015 1.265756 0.126961
v 0.028015 -0.000004 0.126513
v 0.111542 0.000000 0.126513
v 0.111542 0.000000 0.044630
v 0.028015 -0.000004 0.044630
vt 0.810207 0.722050
vt 0.810207 0.725178
vt 0.786111 0.725178
vt 0.786111 0.722050
vt 0.830694 0.713004
vt 0.767489 0.713004
vt 0.767489 0.665440
vt 0.830694 0.665440
vt 0.810207 0.721877
vt 0.810207 0.725005
vt 0.786111 0.725005
vt 0.786111 0.721877
vt 0.864092 0.666773
vt 0.864092 0.711161
vt 0.849422 0.711161
vt 0.849422 0.666773
vt 0.849366 0.711940
vt 0.849366 0.667552
vt 0.864036 0.667552
vt 0.864036 0.711940
vt 0.889415 0.503810
vt 0.889415 0.503371
vt 0.889336 0.503371
vt 0.889336 0.503810
vt 0.888575 0.510764
vt 0.888575 0.511203
vt 0.888673 0.511203
vt 0.888673 0.510764
vt 0.889305 0.510388
vt 0.889305 0.510827
vt 0.889405 0.510827
vt 0.889405 0.510388
vt 0.888801 0.511642
vt 0.888801 0.511203
vt 0.888703 0.511203
vt 0.888703 0.511642
vt 0.889415 0.503810
vt 0.889415 0.503371
vt 0.889336 0.503371
vt 0.889336 0.503810
vt 0.888575 0.510764
vt 0.888575 0.511203
vt 0.888673 0.511203
vt 0.888673 0.510764
vt 0.889305 0.510388
vt 0.889305 0.510827
vt 0.889405 0.510827
vt 0.889405 0.510388
vt 0.888801 0.511642
vt 0.888801 0.511203
vt 0.888703 0.511203
vt 0.888703 0.511642
vn 0.000000 1.000000 0.000000
vn 0.000000 1.000000 0.000000
vn 0.000000 1.000000 0.000000
vn 0.000000 1.000000 0.000000
vn 0.000000 1.000000 0.000000
vn 0.000000 1.000000 0.000000
vn 0.000000 0.000000 1.000000
vn 0.000000 0.000000 1.000000
vn 0.000000 0.000000 1.000000
vn 0.000000 0.000000 1.000000
vn 0.000000 0.000000 1.000000
vn 0.000000 0.000000 1.000000
vn 0.000000 -1.000000 0.000000
vn 0.000000 -1.000000 0.000000
vn 0.000000 -1.000000 0.000000
vn 0.000000 -1.000000 0.000000
vn 0.000000 -1.000000 0.000000
vn 0.000000 -1.000000 0.000000
vn -1.000000 0.000000 0.000000
vn -1.000000 0.000000 0.000000
vn -1.000000 0.000000 0.000000
vn -1.000000 0.000000 0.000000
vn -1.000000 0.000000 0.000000
vn -1.000000 0.000000 0.000000
vn 1.000000 0.000000 0.000000
vn 1.000000 0.000000 0.000000
vn 1.000000 0.000000 0.000000
vn 1.000000 0.000000 0.000000
vn 1.000000 0.000000 0.000000
vn 1.000000 0.000000 0.000000
vn 0.000000 -0.000354 1.000000
vn 0.000000 -0.000354 1.000000
vn 0.000000 -0.000354 1.000000
vn 0.000000 -0.000354 1.000000
vn 0.000000 -0.000354 1.000000
vn 0.000000 -0.000354 1.000000
vn 1.000000 0.000000 0.000000
vn 1.000000 0.000000 0.000000
vn 1.000000 0.000000 0.000000
vn 1.000000 0.000000 0.000000
vn 1.000000 0.000000 0.000000
vn 1.000000 0.000000 0.000000
vn 0.000000 0.000000 -1.000000
vn 0.000000 0.000000 -1.000000
vn 0.000000 0.000000 -1.000000
vn 0.000000 0.000000 -1.000000
vn 0.000000 0.000000 -1.000000
vn 0.000000 0.000000 -1.000000
vn -1.000000 0.000000 0.000000
vn -1.000000 0.000000 0.000000
vn -1.000000 0.000000 0.000000
vn -1.000000 -0.000000 0.000000
vn -1.000000 -0.000000 0.000000
vn -1.000000 -0.000000 0.000000
vn 0.000000 -0.000354 1.000000
vn 0.000000 -0.000354 1.000000
vn 0.000000 -0.000354 1.000000
vn 0.000000 -0.000354 1.000000
vn 0.000000 -0.000354 1.000000
vn 0.000000 -0.000354 1.000000
vn 1.000000 0.000000 0.000000
vn 1.000000 0.000000 0.000000
vn 1.000000 0.000000 0.000000
vn 1.000000 0.000000 0.000000
vn 1.000000 0.000000 0.000000
vn 1.000000 0.000000 0.000000
vn 0.000000 0.000000 -1.000000
vn 0.000000 0.000000 -1.000000
vn 0.000000 0.000000 -1.000000
vn 0.000000 0.000000 -1.000000
vn 0.000000 0.000000 -1.000000
vn 0.000000 0.000000 -1.000000
vn -1.000000 0.000000 0.000000
vn -1.000000 0.000000 0.000000
vn -1.000000 0.000000 0.000000
vn -1.000000 0.000000 0.000000
vn -1.000000 0.000000 0.000000
vn -1.000000 0.000000 0.000000
s off
f 4/1/1 6/2/2 3/4/3
f 3/4/4 6/2/5 5/3/6
f 5/5/7 6/6/8 7/8/9
f 7/8/10 6/6/11 8/7/12
f 8/9/13 2/10/14 7/12/15
f 7/12/16 2/10/17 1/11/18
f 8/13/19 6/14/20 2/16/21
f 2/16/22 6/14/23 4/15/24
f 5/17/25 7/18/26 3/20/27
f 3/20/28 7/18/29 1/19/30
f 12/21/31 13/22/32 11/24/33
f 11/24/34 13/22/35 14/23/36
f 11/25/37 14/26/38 10/28/39
f 10/28/40 14/26/41 15/27/42
f 10/29/43 15/30/44 9/32/45
f 9/32/46 15/30/47 16/31/48
f 9/33/49 16/34/50 12/36/51
f 12/36/52 16/34/53 13/35/54
f 20/37/55 21/38/56 19/40/57
f 19/40/58 21/38/59 22/39/60
f 19/41/61 22/42/62 18/44/63
f 18/44/64 22/42/65 23/43/66
f 18/45/67 23/46/68 17/48/69
f 17/48/70 23/46/71 24/47/72
f 17/49/73 24/50/74 20/52/75
f 20/52/76 24/50/77 21/51/78
