# This file uses centimeters as units for non-parametric coordinates.

v 1.279892 0.000000 1.706703
v -1.279892 0.000000 1.706703
v 1.279892 0.000000 -1.706703
v -1.279892 0.000000 -1.706703
v 1.279892 0.321212 -1.706703
v -1.279892 0.321212 -1.706703
v 1.279892 0.321212 1.706703
v -1.279892 0.321212 1.706703
v -0.000000 0.799835 -0.745163
v 0.000000 0.799835 0.745165
v 0.000000 0.321212 1.706703
v 0.000000 0.000000 1.706703
v -0.000000 0.321212 -1.706703
v -0.000000 0.000000 -1.706703
v 1.279892 0.000000 -0.000000
v 1.279892 0.321212 -0.000000
v 0.000000 0.799835 0.000000
v -1.279892 0.321212 0.000000
v -1.279892 0.000000 0.000000
v 1.279892 0.000000 0.853352
v 1.279892 0.321212 0.853352
v 0.000000 0.799835 0.372581
v -1.279892 0.321212 0.853352
v -1.279892 0.000000 0.853352
v 1.279892 0.000000 -0.853352
v 1.279892 0.321212 -0.853352
v -0.000000 0.799835 -0.372581
v -1.279892 0.321212 -0.853352
v -1.279892 0.000000 -0.853352
vt 0.706127 0.807826
vt 0.732581 0.996270
vt 0.645541 0.807826
vt 0.706156 0.807826
vt 0.645541 0.864258
vt 0.645541 0.864258
vt 0.732581 0.996270
vt 0.645541 0.807826
vt 0.742801 0.776425
vt 0.742801 0.842958
vt 0.742106 0.842958
vt 0.742106 0.776425
vt 0.742839 0.842958
vt 0.742839 0.776425
vt 0.743535 0.776425
vt 0.743535 0.842958
vt 0.740438 0.933097
vt 0.741911 0.933097
vt 0.741911 0.961139
vt 0.740438 0.961139
vt 0.741911 0.905056
vt 0.740438 0.905056
vt 0.743462 0.905056
vt 0.743462 0.933097
vt 0.741990 0.933097
vt 0.741990 0.905056
vt 0.743462 0.961139
vt 0.741990 0.961139
vt 0.644633 0.996270
vt 0.732581 0.996270
vt 0.645541 0.864258
vt 0.644633 0.996270
vt 0.645541 0.864258
vt 0.732581 0.996270
vt 0.743535 0.809692
vt 0.732581 0.903876
vt 0.742839 0.809692
vt 0.644633 0.903876
vt 0.732581 0.903876
vt 0.742801 0.809692
vt 0.742106 0.809692
vt 0.743535 0.793058
vt 0.732581 0.954131
vt 0.742839 0.793058
vt 0.644633 0.954131
vt 0.732581 0.954131
vt 0.742801 0.793058
vt 0.742106 0.793058
vt 0.743535 0.826325
vt 0.732581 0.954131
vt 0.742839 0.826325
vt 0.644633 0.954131
vt 0.732581 0.954131
vt 0.742801 0.826325
vt 0.742106 0.826325
vn 0.000000 0.895225 -0.445614
vn 0.000000 0.895225 -0.445614
vn 0.000000 0.895225 -0.445614
vn 0.350266 0.936650 0.000000
vn 0.350266 0.936650 0.000000
vn 0.350266 0.936650 0.000000
vn 0.350266 0.936650 0.000000
vn 0.350266 0.936650 0.000000
vn 0.350266 0.936650 0.000000
vn 0.000000 0.895225 0.445615
vn 0.000000 0.895225 0.445615
vn 0.000000 0.895225 0.445615
vn -1.000000 0.000000 0.000000
vn -1.000000 0.000000 0.000000
vn -1.000000 0.000000 0.000000
vn -1.000000 0.000000 0.000000
vn -1.000000 0.000000 0.000000
vn -1.000000 0.000000 0.000000
vn 1.000000 0.000000 0.000000
vn 1.000000 0.000000 0.000000
vn 1.000000 0.000000 0.000000
vn 1.000000 0.000000 0.000000
vn 1.000000 0.000000 0.000000
vn 1.000000 0.000000 0.000000
vn -0.350266 0.936650 0.000000
vn -0.350266 0.936650 0.000000
vn -0.350266 0.936650 0.000000
vn -0.350266 0.936650 0.000000
vn -0.350266 0.936650 0.000000
vn -0.350266 0.936650 0.000000
vn 0.000000 0.000000 1.000000
vn 0.000000 0.000000 1.000000
vn 0.000000 0.000000 1.000000
vn 0.000000 0.000000 1.000000
vn 0.000000 0.000000 1.000000
vn 0.000000 0.000000 1.000000
vn 0.000000 0.000000 -1.000000
vn 0.000000 0.000000 -1.000000
vn 0.000000 0.000000 -1.000000
vn 0.000000 0.000000 -1.000000
vn 0.000000 0.000000 -1.000000
vn 0.000000 0.000000 -1.000000
vn 0.000000 0.000000 1.000000
vn 0.000000 0.000000 1.000000
vn 0.000000 0.000000 1.000000
vn 0.000000 0.000000 1.000000
vn 0.000000 0.000000 1.000000
vn 0.000000 0.000000 1.000000
vn 0.000000 0.000000 -1.000000
vn 0.000000 0.000000 -1.000000
vn 0.000000 0.000000 -1.000000
vn 0.000000 0.000000 -1.000000
vn 0.000000 0.000000 -1.000000
vn 0.000000 0.000000 -1.000000
vn 0.000000 0.895225 -0.445614
vn 0.000000 0.895225 -0.445614
vn 0.000000 0.895225 -0.445614
vn 0.000000 0.895225 0.445615
vn 0.000000 0.895225 0.445615
vn 0.000000 0.895225 0.445615
vn 1.000000 0.000000 0.000000
vn 1.000000 0.000000 0.000000
vn 1.000000 0.000000 0.000000
vn 1.000000 0.000000 0.000000
vn 1.000000 0.000000 0.000000
vn 1.000000 0.000000 0.000000
vn 0.350266 0.936650 0.000000
vn 0.350266 0.936650 0.000000
vn 0.350266 0.936650 0.000000
vn 0.350266 0.936650 0.000000
vn 0.350266 0.936650 0.000000
vn 0.350266 0.936650 0.000000
vn -0.350266 0.936650 0.000000
vn -0.350266 0.936650 0.000000
vn -0.350266 0.936650 0.000000
vn -0.350266 0.936650 0.000000
vn -0.350266 0.936650 0.000000
vn -0.350266 0.936650 0.000000
vn -1.000000 0.000000 0.000000
vn -1.000000 0.000000 0.000000
vn -1.000000 0.000000 0.000000
vn -1.000000 0.000000 0.000000
vn -1.000000 0.000000 0.000000
vn -1.000000 0.000000 0.000000
vn 1.000000 0.000000 0.000000
vn 1.000000 0.000000 0.000000
vn 1.000000 0.000000 0.000000
vn 1.000000 0.000000 0.000000
vn 1.000000 0.000000 0.000000
vn 1.000000 0.000000 0.000000
vn 0.350266 0.936650 0.000000
vn 0.350266 0.936650 0.000000
vn 0.350266 0.936650 0.000000
vn 0.350266 0.936650 0.000000
vn 0.350266 0.936650 0.000000
vn 0.350266 0.936650 0.000000
vn -0.350266 0.936650 0.000000
vn -0.350266 0.936650 0.000000
vn -0.350266 0.936650 0.000000
vn -0.350266 0.936650 0.000000
vn -0.350266 0.936650 0.000000
vn -0.350266 0.936650 0.000000
vn -1.000000 0.000000 0.000000
vn -1.000000 0.000000 0.000000
vn -1.000000 0.000000 0.000000
vn -1.000000 0.000000 0.000000
vn -1.000000 0.000000 0.000000
vn -1.000000 0.000000 0.000000
vn 1.000000 0.000000 0.000000
vn 1.000000 0.000000 0.000000
vn 1.000000 0.000000 0.000000
vn 1.000000 0.000000 0.000000
vn 1.000000 0.000000 0.000000
vn 1.000000 0.000000 0.000000
vn 0.350266 0.936650 0.000000
vn 0.350266 0.936650 0.000000
vn 0.350266 0.936650 0.000000
vn 0.350266 0.936650 0.000000
vn 0.350266 0.936650 0.000000
vn 0.350266 0.936650 0.000000
vn -0.350266 0.936650 0.000000
vn -0.350266 0.936650 0.000000
vn -0.350266 0.936650 0.000000
vn -0.350266 0.936650 0.000000
vn -0.350266 0.936650 0.000000
vn -0.350266 0.936650 0.000000
vn -1.000000 0.000000 0.000000
vn -1.000000 0.000000 0.000000
vn -1.000000 0.000000 0.000000
vn -1.000000 0.000000 0.000000
vn -1.000000 0.000000 0.000000
vn -1.000000 0.000000 0.000000
s off
f 9/1/1 5/33/2 13/3/3
f 22/45/4 10/29/5 21/43/6
f 21/43/7 10/29/8 7/30/9
f 11/8/10 7/5/11 10/4/12
f 8/9/13 23/47/14 2/12/15
f 2/12/16 23/47/17 24/48/18
f 20/42/19 21/44/20 1/15/21
f 1/15/22 21/44/23 7/14/24
f 22/45/25 23/46/26 10/29/27
f 10/29/28 23/46/29 8/7/30
f 12/18/31 1/19/32 11/17/33
f 11/17/34 1/19/35 7/20/36
f 6/23/37 13/24/38 4/26/39
f 4/26/40 13/24/41 14/25/42
f 2/21/43 12/18/44 8/22/45
f 8/22/46 12/18/47 11/17/48
f 14/25/49 13/24/50 3/28/51
f 3/28/52 13/24/53 5/27/54
f 9/1/55 13/3/56 6/6/57
f 10/4/58 8/31/59 11/8/60
f 25/49/61 26/51/62 15/35/63
f 15/35/64 26/51/65 16/37/66
f 26/50/67 27/52/68 16/36/69
f 16/36/70 27/52/71 17/38/72
f 17/38/73 27/52/74 18/39/75
f 18/39/76 27/52/77 28/53/78
f 19/41/79 18/40/80 29/55/81
f 29/55/82 18/40/83 28/54/84
f 15/35/85 16/37/86 20/42/87
f 20/42/88 16/37/89 21/44/90
f 17/38/91 22/45/92 16/36/93
f 16/36/94 22/45/95 21/43/96
f 23/46/97 22/45/98 18/39/99
f 18/39/100 22/45/101 17/38/102
f 24/48/103 23/47/104 19/41/105
f 19/41/106 23/47/107 18/40/108
f 5/13/109 26/51/110 3/16/111
f 3/16/112 26/51/113 25/49/114
f 5/2/115 9/32/116 26/50/117
f 26/50/118 9/32/119 27/52/120
f 27/52/121 9/32/122 28/53/123
f 28/53/124 9/32/125 6/34/126
f 29/55/127 28/54/128 4/11/129
f 4/11/130 28/54/131 6/10/132
